<svg width="3570" height="1210" xmlns="http://www.w3.org/2000/svg" xmlns:xlink="http://www.w3.org/1999/xlink" xml:space="preserve" overflow="hidden"><g transform="translate(-362 -114)"><g><rect x="366" y="136" width="3564" height="1187" fill="#000000" fill-opacity="1"/><path d="M465.5 363.5 3862.5 363.5 3862.5 1038.5 465.5 1038.5 465.5 363.5Z" stroke="#FFFFFF" stroke-width="6.875" stroke-linecap="butt" stroke-linejoin="miter" stroke-miterlimit="8" stroke-opacity="1" fill="none" fill-rule="evenodd"/><path d="M1273.5 362.5 3904.5 362.5 3904.5 1035.5 1273.5 1035.5 1273.5 362.5Z" stroke="#FFA600" stroke-width="6.875" stroke-linecap="butt" stroke-linejoin="miter" stroke-miterlimit="8" stroke-opacity="1" fill="#D9D9D9" fill-rule="evenodd" fill-opacity="1"/><g><g><g><path d="M123.21 50.6097C123.168 49.9957 122.721 49.4855 122.118 49.3638L107.692 46.4245C107.243 46.3292 106.777 46.4692 106.455 46.7956L104.643 48.6078 78.1046 22.3396C74.8093 18.5822 69.1659 18.0215 65.1957 21.0569L36.4112 43.6994C36.1014 43.6858 35.793 43.6667 35.4792 43.6667 21.9203 43.6825 10.9325 54.6702 10.9167 68.2291L10.9167 97.0219C7.74207 97.6747 5.46243 100.467 5.45833 103.708L5.45833 110.531 65.5 110.531 65.5 103.708C65.4907 100.443 63.1713 97.641 59.9652 97.0219L60.0417 68.2291C60.0366 62.7423 58.1797 57.4178 54.7716 53.1178L67.7161 37.6297C69.7634 38.3844 72.0097 38.4013 74.0682 37.6775L94.9914 58.2595 93.0045 60.245C92.6826 60.5662 92.5419 61.0267 92.6293 61.4731L95.4198 76.0509C95.537 76.6604 96.0505 77.114 96.6698 77.1549L111.143 78.1197 111.235 78.1197C111.989 78.1441 112.62 77.5531 112.644 76.7994 112.669 76.0458 112.078 75.415 111.324 75.3905L97.902 74.4967 95.4458 61.6628 107.863 49.2451 120.554 51.8296 121.448 65.2639C121.508 66.0112 122.151 66.575 122.9 66.5357 123.652 66.4892 124.224 65.8417 124.177 65.0895 124.177 65.0871 124.177 65.0847 124.177 65.0824ZM62.7708 103.708 62.7708 107.802 8.1875 107.802 8.1875 103.708C8.1875 101.447 10.0203 99.6146 12.2812 99.6146L58.6771 99.6146C60.938 99.6146 62.7708 101.447 62.7708 103.708ZM57.3125 68.2291 57.2361 96.8854 13.6458 96.8854 13.6458 68.2291C13.6632 57.2417 21.838 47.9766 32.7377 46.591L27.2657 50.8989C22.4583 54.9256 21.8253 62.0872 25.852 66.8946 28.0092 69.47 31.1959 70.9579 34.5553 70.9583 34.7205 70.9583 34.8869 70.9583 35.0534 70.946 38.2351 70.8021 41.2108 69.331 43.2573 66.8905L52.9881 55.2479C55.7933 58.9946 57.3103 63.5486 57.3125 68.2291ZM41.1667 65.1384C39.6212 67.0046 37.3546 68.125 34.9333 68.2196 32.5117 68.3531 30.1503 67.4354 28.4543 65.7019 25.0846 62.3358 25.0816 56.8753 28.4477 53.5056 28.6198 53.3332 28.7991 53.1684 28.9851 53.0113L61.4622 27.4459C61.4772 27.4349 61.4867 27.4459 61.484 27.4581 61.0258 30.8748 62.4742 34.2681 65.2585 36.3006ZM64.1927 29.546C63.7017 25.8099 66.3325 22.3833 70.0686 21.8923 73.8047 21.4014 77.2313 24.0321 77.7223 27.7682 78.2131 31.5043 75.5825 34.9309 71.8464 35.4218 71.2563 35.4994 70.6587 35.4994 70.0686 35.4218 67.0069 35.0167 64.5979 32.6077 64.1927 29.546ZM80.5295 28.5689 102.668 50.4896 96.8772 56.2822 76.6036 36.3443C79.0181 34.5791 80.4645 31.7833 80.5104 28.7927 80.5104 28.7518 80.5104 28.6562 80.5104 28.5826 80.5104 28.558 80.5104 28.5553 80.5295 28.5689Z" fill="#000000" fill-rule="nonzero" fill-opacity="1" transform="matrix(1 0 0 1 1821 669)"/><path d="M33.6179 54.7839C31.8514 56.195 31.5634 58.771 32.9745 60.5375 34.3856 62.304 36.9615 62.5921 38.7281 61.1809 38.8464 61.0864 38.9595 60.9853 39.0666 60.8781L39.0666 60.8781C40.6689 59.2831 40.6748 56.6911 39.0797 55.0888 37.6041 53.6063 35.248 53.4747 33.6165 54.7839ZM37.1371 58.95C36.598 59.4658 35.7481 59.4658 35.209 58.95 34.676 58.4171 34.6758 57.5532 35.2087 57.0202 35.7416 56.4872 36.6055 56.487 37.1385 57.0199 37.6715 57.5527 37.6716 58.4167 37.1388 58.9497 37.1386 58.9499 37.1386 58.9499 37.1385 58.95Z" fill="#000000" fill-rule="nonzero" fill-opacity="1" transform="matrix(1 0 0 1 1821 669)"/><path d="M71.627 25.3089C69.7792 24.9406 67.9827 26.1398 67.6144 27.9876 67.2461 29.8354 68.4453 31.6319 70.2931 32.0002 72.1409 32.3685 73.9373 31.1693 74.3056 29.3215 74.3934 28.8813 74.3934 28.4279 74.3056 27.9876 74.0361 26.6354 72.9791 25.5784 71.627 25.3089ZM70.9583 29.3385C70.5816 29.3385 70.276 29.033 70.276 28.6562 70.276 28.2795 70.5816 27.974 70.9583 27.974 71.3351 27.974 71.6406 28.2795 71.6406 28.6562 71.6406 29.033 71.3351 29.3385 70.9583 29.3385Z" fill="#000000" fill-rule="nonzero" fill-opacity="1" transform="matrix(1 0 0 1 1821 669)"/></g></g></g><path d="M1757 785.75 2622.5 785.75 2622.5 761 2672 810.501 2622.5 860 2622.5 835.25 1757 835.25Z" fill="#156082" fill-rule="evenodd" fill-opacity="1"/><text fill="#FFFFFF" fill-opacity="1" font-family="Aptos,Aptos_MSFontService,sans-serif" font-style="normal" font-variant="normal" font-weight="400" font-stretch="normal" font-size="48" text-anchor="start" direction="ltr" writing-mode="lr-tb" unicode-bidi="normal" text-decoration="none" transform="matrix(1 0 0 1 2039.57 826)">Production Line </text><rect x="1919.5" y="390.5" width="391" height="134" stroke="#000000" stroke-width="3.4375" stroke-linecap="butt" stroke-linejoin="round" stroke-miterlimit="10" stroke-dasharray="13.75 10.3125" stroke-opacity="1" fill="none"/><text fill="#000000" fill-opacity="1" font-family="Aptos,Aptos_MSFontService,sans-serif" font-style="normal" font-variant="normal" font-weight="700" font-stretch="normal" font-size="41" text-anchor="start" direction="ltr" writing-mode="lr-tb" unicode-bidi="normal" text-decoration="none" transform="matrix(1 0 0 1 2011.06 445)">Short Term </text><text fill="#000000" fill-opacity="1" font-family="Aptos,Aptos_MSFontService,sans-serif" font-style="normal" font-variant="normal" font-weight="700" font-stretch="normal" font-size="41" text-anchor="start" direction="ltr" writing-mode="lr-tb" unicode-bidi="normal" text-decoration="none" transform="matrix(1 0 0 1 1952.34 495)">Material Demand</text><rect x="1382" y="628" width="28.0002" height="28.9999" fill="#156082" fill-opacity="1"/><rect x="1382" y="659" width="7.00024" height="6.99988" fill="#7F7F7F" fill-opacity="1"/><rect x="1404" y="659" width="6.00024" height="6.99988" fill="#7F7F7F" fill-opacity="1"/><path d="M1382.5 658.5 1410.78 658.5" stroke="#7F7F7F" stroke-width="3.4375" stroke-linecap="butt" stroke-linejoin="miter" stroke-miterlimit="8" stroke-opacity="1" fill="none" fill-rule="evenodd"/><rect x="1470" y="627" width="28.0002" height="28.9999" fill="#156082" fill-opacity="1"/><rect x="1470" y="658" width="7.00024" height="7.00024" fill="#7F7F7F" fill-opacity="1"/><rect x="1492" y="658" width="6.00024" height="7.00024" fill="#7F7F7F" fill-opacity="1"/><path d="M1470.5 657.5 1498.78 657.5" stroke="#7F7F7F" stroke-width="3.4375" stroke-linecap="butt" stroke-linejoin="miter" stroke-miterlimit="8" stroke-opacity="1" fill="none" fill-rule="evenodd"/><rect x="1425" y="629" width="28.0002" height="28.9999" fill="#156082" fill-opacity="1"/><rect x="1425" y="660" width="7.00024" height="6.99988" fill="#7F7F7F" fill-opacity="1"/><rect x="1446" y="660" width="6.99988" height="6.99988" fill="#7F7F7F" fill-opacity="1"/><path d="M1425.5 659.5 1453.78 659.501" stroke="#7F7F7F" stroke-width="3.4375" stroke-linecap="butt" stroke-linejoin="miter" stroke-miterlimit="8" stroke-opacity="1" fill="none" fill-rule="evenodd"/><rect x="1338" y="628" width="29.0002" height="28.9999" fill="#156082" fill-opacity="1"/><rect x="1338" y="659" width="7.00024" height="6.99988" fill="#7F7F7F" fill-opacity="1"/><rect x="1360" y="659" width="7.00024" height="6.99988" fill="#7F7F7F" fill-opacity="1"/><path d="M1338.5 658.5 1366.78 658.5" stroke="#7F7F7F" stroke-width="3.4375" stroke-linecap="butt" stroke-linejoin="miter" stroke-miterlimit="8" stroke-opacity="1" fill="none" fill-rule="evenodd"/><path d="M1330.5 676.5 1557.38 676.5" stroke="#000000" stroke-width="6.875" stroke-linecap="butt" stroke-linejoin="miter" stroke-miterlimit="8" stroke-opacity="1" fill="none" fill-rule="evenodd"/><text fill="#000000" fill-opacity="1" font-family="Aptos,Aptos_MSFontService,sans-serif" font-style="normal" font-variant="normal" font-weight="400" font-stretch="normal" font-size="41" text-anchor="start" direction="ltr" writing-mode="lr-tb" unicode-bidi="normal" text-decoration="none" transform="matrix(1 0 0 1 1311.13 728)">Item Stock [S1]</text><rect x="1379" y="760" width="27.9999" height="28.9999" fill="#C00000" fill-opacity="1"/><rect x="1379" y="791" width="6.99988" height="7.99988" fill="#7F7F7F" fill-opacity="1"/><rect x="1400" y="791" width="6.99988" height="7.99988" fill="#7F7F7F" fill-opacity="1"/><path d="M1379.5 790.5 1407.78 790.5" stroke="#7F7F7F" stroke-width="3.4375" stroke-linecap="butt" stroke-linejoin="miter" stroke-miterlimit="8" stroke-opacity="1" fill="none" fill-rule="evenodd"/><rect x="1335" y="760" width="27.9999" height="28.9999" fill="#C00000" fill-opacity="1"/><rect x="1335" y="791" width="6.99988" height="7.99988" fill="#7F7F7F" fill-opacity="1"/><rect x="1356" y="791" width="6.99988" height="7.99988" fill="#7F7F7F" fill-opacity="1"/><path d="M1335.5 790.5 1363.78 790.5" stroke="#7F7F7F" stroke-width="3.4375" stroke-linecap="butt" stroke-linejoin="miter" stroke-miterlimit="8" stroke-opacity="1" fill="none" fill-rule="evenodd"/><path d="M1326.5 808.5 1553.38 808.5" stroke="#000000" stroke-width="6.875" stroke-linecap="butt" stroke-linejoin="miter" stroke-miterlimit="8" stroke-opacity="1" fill="none" fill-rule="evenodd"/><text fill="#000000" fill-opacity="1" font-family="Aptos,Aptos_MSFontService,sans-serif" font-style="normal" font-variant="normal" font-weight="400" font-stretch="normal" font-size="41" text-anchor="start" direction="ltr" writing-mode="lr-tb" unicode-bidi="normal" text-decoration="none" transform="matrix(1 0 0 1 1307.81 860)">Item Stock [S2]</text><rect x="1383" y="895" width="29.0002" height="29.9999" fill="#A02B93" fill-opacity="1"/><rect x="1383" y="926" width="7.00024" height="7.99988" fill="#7F7F7F" fill-opacity="1"/><rect x="1405" y="926" width="7.00024" height="7.99988" fill="#7F7F7F" fill-opacity="1"/><path d="M1383.5 926.5 1411.78 926.5" stroke="#7F7F7F" stroke-width="3.4375" stroke-linecap="butt" stroke-linejoin="miter" stroke-miterlimit="8" stroke-opacity="1" fill="none" fill-rule="evenodd"/><rect x="1426" y="896" width="28.0002" height="29.9999" fill="#A02B93" fill-opacity="1"/><rect x="1426" y="927" width="7.00024" height="7.99988" fill="#7F7F7F" fill-opacity="1"/><rect x="1448" y="927" width="6.00024" height="7.99988" fill="#7F7F7F" fill-opacity="1"/><path d="M1426.5 927.5 1454.78 927.5" stroke="#7F7F7F" stroke-width="3.4375" stroke-linecap="butt" stroke-linejoin="miter" stroke-miterlimit="8" stroke-opacity="1" fill="none" fill-rule="evenodd"/><rect x="1340" y="895" width="28.0002" height="29.9999" fill="#A02B93" fill-opacity="1"/><rect x="1340" y="926" width="6.00024" height="7.99988" fill="#7F7F7F" fill-opacity="1"/><rect x="1361" y="926" width="7.00024" height="7.99988" fill="#7F7F7F" fill-opacity="1"/><path d="M1340.5 926.5 1368.78 926.5" stroke="#7F7F7F" stroke-width="3.4375" stroke-linecap="butt" stroke-linejoin="miter" stroke-miterlimit="8" stroke-opacity="1" fill="none" fill-rule="evenodd"/><path d="M1331.5 943.5 1558.37 943.5" stroke="#000000" stroke-width="6.875" stroke-linecap="butt" stroke-linejoin="miter" stroke-miterlimit="8" stroke-opacity="1" fill="none" fill-rule="evenodd"/><text fill="#000000" fill-opacity="1" font-family="Aptos,Aptos_MSFontService,sans-serif" font-style="normal" font-variant="normal" font-weight="400" font-stretch="normal" font-size="41" text-anchor="start" direction="ltr" writing-mode="lr-tb" unicode-bidi="normal" text-decoration="none" transform="matrix(1 0 0 1 1312.37 995)">Item Stock [S3]</text><g><g><g><path d="M125.125 128.375 125.125 30.875C125.125 21.3753 100.846 16.25 78 16.25 55.1542 16.25 30.875 21.3753 30.875 30.875L30.875 128.375C30.875 137.875 55.1542 143 78 143 100.846 143 125.125 137.875 125.125 128.375ZM78 19.5C103.111 19.5 121.875 25.5125 121.875 30.875 121.875 36.2375 103.111 42.25 78 42.25 52.8889 42.25 34.125 36.2375 34.125 30.875 34.125 25.5125 52.8889 19.5 78 19.5ZM34.125 36.4975C41.4846 42.38 60.1787 45.5 78 45.5 95.8214 45.5 114.515 42.38 121.875 36.4975L121.875 63.375C121.875 68.7375 103.111 74.75 78 74.75 52.8889 74.75 34.125 68.7375 34.125 63.375ZM34.125 68.9975C41.4846 74.88 60.1787 78 78 78 95.8214 78 114.515 74.88 121.875 68.9975L121.875 95.875C121.875 101.238 103.111 107.25 78 107.25 52.8889 107.25 34.125 101.238 34.125 95.875ZM34.125 128.375 34.125 101.498C41.4846 107.38 60.1787 110.5 78 110.5 95.8214 110.5 114.515 107.38 121.875 101.498L121.875 128.375C121.875 133.738 103.111 139.75 78 139.75 52.8889 139.75 34.125 133.738 34.125 128.375Z" fill="#000000" fill-rule="nonzero" fill-opacity="1" transform="matrix(1.00641 0 0 1 3382 443)"/><path d="M113.75 58.5C113.75 60.2949 112.295 61.75 110.5 61.75 108.705 61.75 107.25 60.2949 107.25 58.5 107.25 56.7051 108.705 55.25 110.5 55.25 112.295 55.25 113.75 56.7051 113.75 58.5Z" fill="#000000" fill-rule="nonzero" fill-opacity="1" transform="matrix(1.00641 0 0 1 3382 443)"/><path d="M113.75 91C113.75 92.795 112.295 94.25 110.5 94.25 108.705 94.25 107.25 92.795 107.25 91 107.25 89.2051 108.705 87.75 110.5 87.75 112.295 87.75 113.75 89.2051 113.75 91Z" fill="#000000" fill-rule="nonzero" fill-opacity="1" transform="matrix(1.00641 0 0 1 3382 443)"/><path d="M113.75 123.5C113.75 125.295 112.295 126.75 110.5 126.75 108.705 126.75 107.25 125.295 107.25 123.5 107.25 121.705 108.705 120.25 110.5 120.25 112.295 120.25 113.75 121.705 113.75 123.5Z" fill="#000000" fill-rule="nonzero" fill-opacity="1" transform="matrix(1.00641 0 0 1 3382 443)"/></g></g></g><g><g><g><path d="M17.9062 49.7515 13.9271 49.7515 13.9271 117.421 109.427 117.421 109.427 49.7515 17.9062 49.7515ZM105.448 113.442 17.9062 113.442 17.9062 53.7306 105.448 53.7306Z" fill="#000000" fill-rule="nonzero" fill-opacity="1" transform="matrix(1.00524 0 0 1 3193 432)"/><path d="M111.417 39.7916 11.9375 39.7916C7.54767 39.8047 3.99227 43.3601 3.97916 47.7499L3.97916 119.413C3.99337 123.802 7.54811 127.357 11.9375 127.371L51.7291 127.371 51.7291 143.288 31.8333 143.288 31.8333 147.267 91.5207 147.267 91.5207 143.288 71.6249 143.288 71.6249 127.371 111.417 127.371C115.806 127.357 119.361 123.802 119.375 119.413L119.375 47.7599C119.367 43.3661 115.81 39.8047 111.417 39.7916ZM67.6458 143.296 55.7083 143.296 55.7083 127.379 67.6458 127.379ZM115.396 119.421C115.396 121.618 113.614 123.4 111.417 123.4L11.9375 123.4C9.73985 123.4 7.95832 121.618 7.95832 119.421L7.95832 47.7599C7.95832 45.5622 9.73985 43.7807 11.9375 43.7807L111.417 43.7807C113.614 43.7807 115.396 45.5622 115.396 47.7599Z" fill="#000000" fill-rule="nonzero" fill-opacity="1" transform="matrix(1.00524 0 0 1 3193 432)"/><path d="M179.062 39.7916 139.271 39.7916C134.875 39.7916 131.312 43.3548 131.312 47.7499L131.312 139.271C131.312 143.666 134.875 147.229 139.271 147.229L179.062 147.229C183.457 147.229 187.021 143.666 187.021 139.271L187.021 47.7499C187.021 43.3548 183.457 39.7916 179.062 39.7916ZM183.041 139.271C183.041 141.468 181.26 143.25 179.062 143.25L139.271 143.25C137.073 143.25 135.292 141.468 135.292 139.271L135.292 47.7499C135.292 45.5522 137.073 43.7708 139.271 43.7708L179.062 43.7708C181.26 43.7708 183.041 45.5522 183.041 47.7499Z" fill="#000000" fill-rule="nonzero" fill-opacity="1" transform="matrix(1.00524 0 0 1 3193 432)"/><path d="M143.25 55.7083 175.083 55.7083 175.083 59.6874 143.25 59.6874Z" fill="#000000" fill-rule="nonzero" fill-opacity="1" transform="matrix(1.00524 0 0 1 3193 432)"/><path d="M143.25 67.6458 175.083 67.6458 175.083 71.6249 143.25 71.6249Z" fill="#000000" fill-rule="nonzero" fill-opacity="1" transform="matrix(1.00524 0 0 1 3193 432)"/><path d="M162.151 128.328C162.151 129.976 160.815 131.312 159.166 131.312 157.518 131.312 156.182 129.976 156.182 128.328 156.182 126.68 157.518 125.344 159.166 125.344 160.815 125.344 162.151 126.68 162.151 128.328Z" fill="#000000" fill-rule="nonzero" fill-opacity="1" transform="matrix(1.00524 0 0 1 3193 432)"/></g></g></g><path d="M2862 590.549 3199.97 590.549 3199.97 755.549 2862 755.549Z" fill="#156082" fill-rule="evenodd" fill-opacity="1"/><path d="M3199.97 590.549 3537.95 590.549 3537.95 755.549 3199.97 755.549Z" fill="#156082" fill-rule="evenodd" fill-opacity="1"/><path d="M3537.95 590.549 3875.92 590.549 3875.92 755.549 3537.95 755.549Z" fill="#156082" fill-rule="evenodd" fill-opacity="1"/><path d="M2862 755.549 3199.97 755.549 3199.97 837.736 2862 837.736Z" fill="#CCD2D8" fill-rule="evenodd" fill-opacity="1"/><path d="M3199.97 755.549 3537.95 755.549 3537.95 837.736 3199.97 837.736Z" fill="#CCD2D8" fill-rule="evenodd" fill-opacity="1"/><path d="M3537.95 755.549 3875.92 755.549 3875.92 837.736 3537.95 837.736Z" fill="#CCD2D8" fill-rule="evenodd" fill-opacity="1"/><path d="M2862 837.736 3199.97 837.736 3199.97 919.922 2862 919.922Z" fill="#E7EAED" fill-rule="evenodd" fill-opacity="1"/><path d="M3199.97 837.736 3537.95 837.736 3537.95 919.922 3199.97 919.922Z" fill="#E7EAED" fill-rule="evenodd" fill-opacity="1"/><path d="M3537.95 837.736 3875.92 837.736 3875.92 919.922 3537.95 919.922Z" fill="#E7EAED" fill-rule="evenodd" fill-opacity="1"/><path d="M2862 919.922 3199.97 919.922 3199.97 1002.11 2862 1002.11Z" fill="#CCD2D8" fill-rule="evenodd" fill-opacity="1"/><path d="M3199.97 919.922 3537.95 919.922 3537.95 1002.11 3199.97 1002.11Z" fill="#CCD2D8" fill-rule="evenodd" fill-opacity="1"/><path d="M3537.95 919.922 3875.92 919.922 3875.92 1002.11 3537.95 1002.11Z" fill="#CCD2D8" fill-rule="evenodd" fill-opacity="1"/><path d="M3199.97 588.258 3199.97 1004.4" stroke="#FFFFFF" stroke-width="4.58333" stroke-linecap="butt" stroke-linejoin="round" stroke-miterlimit="10" stroke-opacity="1" fill="none" fill-rule="evenodd"/><path d="M3537.95 588.258 3537.95 1004.4" stroke="#FFFFFF" stroke-width="4.58333" stroke-linecap="butt" stroke-linejoin="round" stroke-miterlimit="10" stroke-opacity="1" fill="none" fill-rule="evenodd"/><path d="M2859.71 755.549 3878.21 755.549" stroke="#FFFFFF" stroke-width="13.75" stroke-linecap="butt" stroke-linejoin="round" stroke-miterlimit="10" stroke-opacity="1" fill="none" fill-rule="evenodd"/><path d="M2859.71 837.736 3878.21 837.736" stroke="#FFFFFF" stroke-width="4.58333" stroke-linecap="butt" stroke-linejoin="round" stroke-miterlimit="10" stroke-opacity="1" fill="none" fill-rule="evenodd"/><path d="M2859.71 919.922 3878.21 919.922" stroke="#FFFFFF" stroke-width="4.58333" stroke-linecap="butt" stroke-linejoin="round" stroke-miterlimit="10" stroke-opacity="1" fill="none" fill-rule="evenodd"/><path d="M2862 588.258 2862 1004.4" stroke="#FFFFFF" stroke-width="4.58333" stroke-linecap="butt" stroke-linejoin="round" stroke-miterlimit="10" stroke-opacity="1" fill="none" fill-rule="evenodd"/><path d="M3875.92 588.258 3875.92 1004.4" stroke="#FFFFFF" stroke-width="4.58333" stroke-linecap="butt" stroke-linejoin="round" stroke-miterlimit="10" stroke-opacity="1" fill="none" fill-rule="evenodd"/><path d="M2859.71 590.549 3878.21 590.549" stroke="#FFFFFF" stroke-width="4.58333" stroke-linecap="butt" stroke-linejoin="round" stroke-miterlimit="10" stroke-opacity="1" fill="none" fill-rule="evenodd"/><path d="M2859.71 1002.11 3878.21 1002.11" stroke="#FFFFFF" stroke-width="4.58333" stroke-linecap="butt" stroke-linejoin="round" stroke-miterlimit="10" stroke-opacity="1" fill="none" fill-rule="evenodd"/><text fill="#FFFFFF" fill-opacity="1" font-family="Aptos,Aptos_MSFontService,sans-serif" font-style="normal" font-variant="normal" font-weight="700" font-stretch="normal" font-size="37" text-anchor="start" direction="ltr" writing-mode="lr-tb" unicode-bidi="normal" text-decoration="none" transform="matrix(1 0 0 1 3570.95 641)">Item Stock</text><text fill="#FFFFFF" fill-opacity="1" font-family="Aptos,Aptos_MSFontService,sans-serif" font-style="normal" font-variant="normal" font-weight="700" font-stretch="normal" font-size="37" text-anchor="start" direction="ltr" writing-mode="lr-tb" unicode-bidi="normal" text-decoration="none" transform="matrix(1 0 0 1 3232.97 641)">Short Term </text><text fill="#FFFFFF" fill-opacity="1" font-family="Aptos,Aptos_MSFontService,sans-serif" font-style="normal" font-variant="normal" font-weight="700" font-stretch="normal" font-size="37" text-anchor="start" direction="ltr" writing-mode="lr-tb" unicode-bidi="normal" text-decoration="none" transform="matrix(1 0 0 1 3232.97 685)">Material </text><text fill="#FFFFFF" fill-opacity="1" font-family="Aptos,Aptos_MSFontService,sans-serif" font-style="normal" font-variant="normal" font-weight="700" font-stretch="normal" font-size="37" text-anchor="start" direction="ltr" writing-mode="lr-tb" unicode-bidi="normal" text-decoration="none" transform="matrix(1 0 0 1 3232.97 729)">Demand</text><text fill="#FFFFFF" fill-opacity="1" font-family="Aptos,Aptos_MSFontService,sans-serif" font-style="normal" font-variant="normal" font-weight="700" font-stretch="normal" font-size="37" text-anchor="start" direction="ltr" writing-mode="lr-tb" unicode-bidi="normal" text-decoration="none" transform="matrix(1 0 0 1 2895 641)">Supplier</text><text fill="#000000" fill-opacity="1" font-family="Aptos,Aptos_MSFontService,sans-serif" font-style="normal" font-variant="normal" font-weight="400" font-stretch="normal" font-size="37" text-anchor="start" direction="ltr" writing-mode="lr-tb" unicode-bidi="normal" text-decoration="none" transform="matrix(1 0 0 1 3570.95 806)">specific</text><text fill="#000000" fill-opacity="1" font-family="Aptos,Aptos_MSFontService,sans-serif" font-style="normal" font-variant="normal" font-weight="400" font-stretch="normal" font-size="37" text-anchor="start" direction="ltr" writing-mode="lr-tb" unicode-bidi="normal" text-decoration="none" transform="matrix(1 0 0 1 3232.97 806)">specific</text><text fill="#000000" fill-opacity="1" font-family="Aptos,Aptos_MSFontService,sans-serif" font-style="normal" font-variant="normal" font-weight="400" font-stretch="normal" font-size="37" text-anchor="start" direction="ltr" writing-mode="lr-tb" unicode-bidi="normal" text-decoration="none" transform="matrix(1 0 0 1 2895 806)">1</text><text fill="#000000" fill-opacity="1" font-family="Aptos,Aptos_MSFontService,sans-serif" font-style="normal" font-variant="normal" font-weight="400" font-stretch="normal" font-size="37" text-anchor="start" direction="ltr" writing-mode="lr-tb" unicode-bidi="normal" text-decoration="none" transform="matrix(1 0 0 1 3570.95 888)">specific</text><text fill="#000000" fill-opacity="1" font-family="Aptos,Aptos_MSFontService,sans-serif" font-style="normal" font-variant="normal" font-weight="400" font-stretch="normal" font-size="37" text-anchor="start" direction="ltr" writing-mode="lr-tb" unicode-bidi="normal" text-decoration="none" transform="matrix(1 0 0 1 3232.97 888)">specific</text><text fill="#000000" fill-opacity="1" font-family="Aptos,Aptos_MSFontService,sans-serif" font-style="normal" font-variant="normal" font-weight="400" font-stretch="normal" font-size="37" text-anchor="start" direction="ltr" writing-mode="lr-tb" unicode-bidi="normal" text-decoration="none" transform="matrix(1 0 0 1 2895 888)">2</text><text fill="#000000" fill-opacity="1" font-family="Aptos,Aptos_MSFontService,sans-serif" font-style="normal" font-variant="normal" font-weight="400" font-stretch="normal" font-size="37" text-anchor="start" direction="ltr" writing-mode="lr-tb" unicode-bidi="normal" text-decoration="none" transform="matrix(1 0 0 1 3570.95 970)">specific</text><text fill="#000000" fill-opacity="1" font-family="Aptos,Aptos_MSFontService,sans-serif" font-style="normal" font-variant="normal" font-weight="400" font-stretch="normal" font-size="37" text-anchor="start" direction="ltr" writing-mode="lr-tb" unicode-bidi="normal" text-decoration="none" transform="matrix(1 0 0 1 3232.97 970)">specific</text><text fill="#000000" fill-opacity="1" font-family="Aptos,Aptos_MSFontService,sans-serif" font-style="normal" font-variant="normal" font-weight="400" font-stretch="normal" font-size="37" text-anchor="start" direction="ltr" writing-mode="lr-tb" unicode-bidi="normal" text-decoration="none" transform="matrix(1 0 0 1 2895 970)">3</text><text fill="#FFFFFF" fill-opacity="1" font-family="Aptos,Aptos_MSFontService,sans-serif" font-style="normal" font-variant="normal" font-weight="700" font-stretch="normal" font-size="83" text-anchor="start" direction="ltr" writing-mode="lr-tb" unicode-bidi="normal" text-decoration="none" transform="matrix(1 0 0 1 1584.54 328)">Customer | Multi Sourcing per Item</text><g><g><g><path d="M64.1789 12.3958 5.75384 12.3958 5.75384 57.6222 64.1789 57.6222ZM62.7205 56.1639 7.21216 56.1639 7.21216 24.0624 62.7205 24.0624ZM62.7205 22.6041 7.21216 22.6041 7.21216 13.8541 62.7205 13.8541Z" stroke="#BAE9FD" stroke-width="0.729026" stroke-linecap="butt" stroke-linejoin="miter" stroke-miterlimit="4" stroke-opacity="1" fill="#BAE9FD" fill-rule="nonzero" fill-opacity="1" transform="matrix(1 0 0 1.00001 654 545)"/><path d="M47.3957 18.2291C47.3957 19.0345 46.7428 19.6874 45.9374 19.6874 45.1319 19.6874 44.479 19.0345 44.479 18.2291 44.479 17.4237 45.1319 16.7708 45.9374 16.7708 46.7428 16.7708 47.3957 17.4237 47.3957 18.2291Z" stroke="#BAE9FD" stroke-width="0.729026" stroke-linecap="butt" stroke-linejoin="miter" stroke-miterlimit="4" stroke-opacity="1" fill="#BAE9FD" fill-rule="nonzero" fill-opacity="1" transform="matrix(1 0 0 1.00001 654 545)"/><path d="M52.4998 18.2291C52.4998 19.0345 51.8469 19.6874 51.0415 19.6874 50.2361 19.6874 49.5832 19.0345 49.5832 18.2291 49.5832 17.4237 50.2361 16.7708 51.0415 16.7708 51.8469 16.7708 52.4998 17.4237 52.4998 18.2291Z" stroke="#BAE9FD" stroke-width="0.729026" stroke-linecap="butt" stroke-linejoin="miter" stroke-miterlimit="4" stroke-opacity="1" fill="#BAE9FD" fill-rule="nonzero" fill-opacity="1" transform="matrix(1 0 0 1.00001 654 545)"/><path d="M57.604 18.2291C57.604 19.0345 56.9511 19.6874 56.1457 19.6874 55.3402 19.6874 54.6873 19.0345 54.6873 18.2291 54.6873 17.4237 55.3402 16.7708 56.1457 16.7708 56.9511 16.7708 57.604 17.4237 57.604 18.2291Z" stroke="#BAE9FD" stroke-width="0.729026" stroke-linecap="butt" stroke-linejoin="miter" stroke-miterlimit="4" stroke-opacity="1" fill="#BAE9FD" fill-rule="nonzero" fill-opacity="1" transform="matrix(1 0 0 1.00001 654 545)"/><path d="M16.6198 44.3281 17.6509 45.3591 25.0935 37.9165 17.2863 30.1094 16.2553 31.1404 23.0314 37.9165 16.6198 44.3281Z" stroke="#BAE9FD" stroke-width="0.729026" stroke-linecap="butt" stroke-linejoin="miter" stroke-miterlimit="4" stroke-opacity="1" fill="#BAE9FD" fill-rule="nonzero" fill-opacity="1" transform="matrix(1 0 0 1.00001 654 545)"/><path d="M27.7082 43.7499 39.3749 43.7499 39.3749 45.2082 27.7082 45.2082Z" stroke="#BAE9FD" stroke-width="0.729026" stroke-linecap="butt" stroke-linejoin="miter" stroke-miterlimit="4" stroke-opacity="1" fill="#BAE9FD" fill-rule="nonzero" fill-opacity="1" transform="matrix(1 0 0 1.00001 654 545)"/></g></g></g><g><g><g><path d="M66.2947 5.12007C66.7247 5.11874 67.1545 5.14126 67.582 5.18751L61.2706 11.499 63.432 19.5664 71.5055 21.7279 77.7167 15.4467C78.37 21.758 73.7832 27.4038 67.472 28.057 67.0894 28.0966 66.7052 28.117 66.3206 28.118 65.333 28.1181 64.3497 27.987 63.3966 27.7281L62.4283 27.4636 27.4497 62.4421 27.7359 63.4251C28.9018 67.5643 27.6206 72.0067 24.4297 74.8895 22.317 76.8131 19.5627 77.8794 16.7055 77.8801 16.2755 77.8814 15.8457 77.8589 15.4182 77.8127L21.7296 71.5012 19.5725 63.4372 11.5924 61.2758 5.28521 67.5743C4.62098 61.2637 9.19832 55.6094 15.5088 54.9453 15.8978 54.9043 16.2885 54.8833 16.6796 54.8822 17.6672 54.882 18.6505 55.0131 19.6036 55.2721L20.5719 55.5366 55.5505 20.5581 55.2643 19.5751C54.0984 15.4359 55.3795 10.9935 58.5705 8.11067 60.6832 6.18711 63.4375 5.12074 66.2947 5.12007M66.2947 3.3909C59.032 3.38035 53.1358 9.25936 53.1252 16.5221 53.1235 17.7172 53.2847 18.9068 53.6043 20.0584L20.0584 53.6043C18.9572 53.3044 17.8209 53.1525 16.6796 53.153 9.37911 53.1705 3.47518 59.1029 3.49272 66.4034 3.49648 67.9668 3.77756 69.5172 4.32293 70.9825L12.1042 63.2012 18.1563 64.8439 19.799 70.9825 12.0177 78.7637C13.5178 79.3216 15.1051 79.6079 16.7055 79.6093 23.9682 79.6198 29.8644 73.7408 29.875 66.4781 29.8767 65.283 29.7155 64.0934 29.3959 62.9418L62.9418 29.3959C64.043 29.6958 65.1793 29.8476 66.3206 29.8472 73.6211 29.8297 79.525 23.8973 79.5074 16.5968 79.5037 15.0334 79.2226 13.483 78.6773 12.0177L70.9825 19.799 64.8439 18.1563 63.2012 12.0177 70.9825 4.23647C69.4825 3.67855 67.8951 3.39223 66.2947 3.3909Z" stroke="#FFFFFF" stroke-width="0.864495" stroke-linecap="butt" stroke-linejoin="miter" stroke-miterlimit="4" stroke-opacity="1" fill="#FFFFFF" fill-rule="nonzero" fill-opacity="1" transform="matrix(1.01204 0 0 1 947 755)"/></g></g></g><g><g><g><path d="M1024.24 886.328 1015.17 893.59 1012.78 898.36 983.758 927.38 980.17 923.705 976.388 927.488 977.006 928.106C977.308 928.396 977.476 928.797 977.472 929.216 977.46 929.592 977.291 929.947 977.006 930.194 976.718 930.498 976.316 930.666 975.897 930.659 975.534 930.651 975.19 930.493 974.948 930.222L974.335 929.545 951.817 951.974C951.023 952.732 950.41 953.659 950.024 954.686 949.008 957.636 949.769 960.907 951.981 963.106 954.726 965.887 959.091 966.247 962.254 963.952L963.281 963.106 985.512 940.875 984.894 940.256C984.592 939.966 984.424 939.565 984.428 939.147 984.44 938.77 984.609 938.416 984.894 938.169 985.184 937.869 985.585 937.701 986.003 937.703 986.367 937.711 986.71 937.87 986.953 938.141L987.569 938.819 991.28 935.109 987.605 931.346 1016.64 902.307 1021.42 899.925 1028.67 890.758ZM988.82 935.093 987.534 936.378C987.083 936.112 986.571 935.966 986.047 935.954 985.163 935.936 984.31 936.279 983.684 936.903 983.059 937.466 982.695 938.263 982.677 939.105 982.663 939.698 982.815 940.284 983.115 940.796L962.109 961.81 961.189 962.565C958.722 964.325 955.341 964.028 953.219 961.865 951.483 960.142 950.883 957.579 951.673 955.265 951.974 954.487 952.445 953.786 953.052 953.213L974.365 931.983C974.816 932.251 975.328 932.397 975.852 932.409 976.737 932.431 977.591 932.088 978.215 931.46 978.84 930.896 979.204 930.099 979.222 929.258 979.236 928.664 979.085 928.079 978.784 927.566L980.156 926.195 983.15 929.262 985.15 931.328 985.723 931.914 985.751 931.943ZM1020.28 898.529 1015.61 900.868 986.382 930.093 984.975 928.635 1014.22 899.393 1016.56 894.714 1024.11 888.676 1026.33 890.896Z" stroke="#FFFFFF" stroke-width="0.874907" stroke-linecap="butt" stroke-linejoin="miter" stroke-miterlimit="4" stroke-opacity="1" fill="#FFFFFF" fill-rule="nonzero" fill-opacity="1"/></g></g></g><text fill="#FFFFFF" fill-opacity="1" font-family="Aptos,Aptos_MSFontService,sans-serif" font-style="normal" font-variant="normal" font-weight="400" font-stretch="normal" font-size="41" text-anchor="start" direction="ltr" writing-mode="lr-tb" unicode-bidi="normal" text-decoration="none" transform="matrix(1 0 0 1 955.025 571)">Item</text><g><g><g><path d="M64.1789 12.3958 5.75384 12.3958 5.75384 57.6222 64.1789 57.6222ZM62.7205 56.1639 7.21216 56.1639 7.21216 24.0624 62.7205 24.0624ZM62.7205 22.6041 7.21216 22.6041 7.21216 13.8541 62.7205 13.8541Z" stroke="#FF0000" stroke-width="0.729026" stroke-linecap="butt" stroke-linejoin="miter" stroke-miterlimit="4" stroke-opacity="1" fill="#FF0000" fill-rule="nonzero" fill-opacity="1" transform="matrix(1 0 0 1.00001 585 705)"/><path d="M47.3957 18.2291C47.3957 19.0345 46.7428 19.6874 45.9374 19.6874 45.1319 19.6874 44.479 19.0345 44.479 18.2291 44.479 17.4237 45.1319 16.7708 45.9374 16.7708 46.7428 16.7708 47.3957 17.4237 47.3957 18.2291Z" stroke="#FF0000" stroke-width="0.729026" stroke-linecap="butt" stroke-linejoin="miter" stroke-miterlimit="4" stroke-opacity="1" fill="#FF0000" fill-rule="nonzero" fill-opacity="1" transform="matrix(1 0 0 1.00001 585 705)"/><path d="M52.4998 18.2291C52.4998 19.0345 51.8469 19.6874 51.0415 19.6874 50.2361 19.6874 49.5832 19.0345 49.5832 18.2291 49.5832 17.4237 50.2361 16.7708 51.0415 16.7708 51.8469 16.7708 52.4998 17.4237 52.4998 18.2291Z" stroke="#FF0000" stroke-width="0.729026" stroke-linecap="butt" stroke-linejoin="miter" stroke-miterlimit="4" stroke-opacity="1" fill="#FF0000" fill-rule="nonzero" fill-opacity="1" transform="matrix(1 0 0 1.00001 585 705)"/><path d="M57.604 18.2291C57.604 19.0345 56.9511 19.6874 56.1457 19.6874 55.3402 19.6874 54.6873 19.0345 54.6873 18.2291 54.6873 17.4237 55.3402 16.7708 56.1457 16.7708 56.9511 16.7708 57.604 17.4237 57.604 18.2291Z" stroke="#FF0000" stroke-width="0.729026" stroke-linecap="butt" stroke-linejoin="miter" stroke-miterlimit="4" stroke-opacity="1" fill="#FF0000" fill-rule="nonzero" fill-opacity="1" transform="matrix(1 0 0 1.00001 585 705)"/><path d="M16.6198 44.3281 17.6509 45.3591 25.0935 37.9165 17.2863 30.1094 16.2553 31.1404 23.0314 37.9165 16.6198 44.3281Z" stroke="#FF0000" stroke-width="0.729026" stroke-linecap="butt" stroke-linejoin="miter" stroke-miterlimit="4" stroke-opacity="1" fill="#FF0000" fill-rule="nonzero" fill-opacity="1" transform="matrix(1 0 0 1.00001 585 705)"/><path d="M27.7082 43.7499 39.3749 43.7499 39.3749 45.2082 27.7082 45.2082Z" stroke="#FF0000" stroke-width="0.729026" stroke-linecap="butt" stroke-linejoin="miter" stroke-miterlimit="4" stroke-opacity="1" fill="#FF0000" fill-rule="nonzero" fill-opacity="1" transform="matrix(1 0 0 1.00001 585 705)"/></g></g></g><g><g><g><path d="M63.262 12.2187 5.67163 12.2187 5.67163 56.799 63.262 56.799ZM61.8245 55.3615 7.10913 55.3615 7.10913 23.7187 61.8245 23.7187ZM61.8245 22.2812 7.10913 22.2812 7.10913 13.6562 61.8245 13.6562Z" stroke="#F9E7F7" stroke-width="0.718611" stroke-linecap="butt" stroke-linejoin="miter" stroke-miterlimit="4" stroke-opacity="1" fill="#F9E7F7" fill-rule="nonzero" fill-opacity="1" transform="matrix(1.0145 0 0 1 496 851)"/><path d="M46.7186 17.9687C46.7186 18.7626 46.075 19.4062 45.2811 19.4062 44.4872 19.4062 43.8436 18.7626 43.8436 17.9687 43.8436 17.1748 44.4872 16.5312 45.2811 16.5312 46.075 16.5312 46.7186 17.1748 46.7186 17.9687Z" stroke="#F9E7F7" stroke-width="0.718611" stroke-linecap="butt" stroke-linejoin="miter" stroke-miterlimit="4" stroke-opacity="1" fill="#F9E7F7" fill-rule="nonzero" fill-opacity="1" transform="matrix(1.0145 0 0 1 496 851)"/><path d="M51.7498 17.9687C51.7498 18.7626 51.1062 19.4062 50.3123 19.4062 49.5184 19.4062 48.8748 18.7626 48.8748 17.9687 48.8748 17.1748 49.5184 16.5312 50.3123 16.5312 51.1062 16.5312 51.7498 17.1748 51.7498 17.9687Z" stroke="#F9E7F7" stroke-width="0.718611" stroke-linecap="butt" stroke-linejoin="miter" stroke-miterlimit="4" stroke-opacity="1" fill="#F9E7F7" fill-rule="nonzero" fill-opacity="1" transform="matrix(1.0145 0 0 1 496 851)"/><path d="M56.781 17.9687C56.781 18.7626 56.1374 19.4062 55.3435 19.4062 54.5496 19.4062 53.906 18.7626 53.906 17.9687 53.906 17.1748 54.5496 16.5312 55.3435 16.5312 56.1374 16.5312 56.781 17.1748 56.781 17.9687Z" stroke="#F9E7F7" stroke-width="0.718611" stroke-linecap="butt" stroke-linejoin="miter" stroke-miterlimit="4" stroke-opacity="1" fill="#F9E7F7" fill-rule="nonzero" fill-opacity="1" transform="matrix(1.0145 0 0 1 496 851)"/><path d="M16.3824 43.6948 17.3987 44.7111 24.735 37.3749 17.0393 29.6792 16.023 30.6955 22.7024 37.3749 16.3824 43.6948Z" stroke="#F9E7F7" stroke-width="0.718611" stroke-linecap="butt" stroke-linejoin="miter" stroke-miterlimit="4" stroke-opacity="1" fill="#F9E7F7" fill-rule="nonzero" fill-opacity="1" transform="matrix(1.0145 0 0 1 496 851)"/><path d="M27.3124 43.1248 38.8124 43.1248 38.8124 44.5623 27.3124 44.5623Z" stroke="#F9E7F7" stroke-width="0.718611" stroke-linecap="butt" stroke-linejoin="miter" stroke-miterlimit="4" stroke-opacity="1" fill="#F9E7F7" fill-rule="nonzero" fill-opacity="1" transform="matrix(1.0145 0 0 1 496 851)"/></g></g></g><path d="M2.27232e-05-3.4375 31.6781-3.43729 31.678 3.43771-2.27232e-05 3.4375ZM27.0948-13.7498 54.5947 0.000360892 27.0946 13.7502Z" fill="#FFFFFF" fill-rule="nonzero" fill-opacity="1" transform="matrix(-1 0 0 1 2365.09 455.5)"/><path d="M1189.5 666.063 1237.13 666.063 1237.13 672.938 1189.5 672.938ZM1232.55 655.75 1260.05 669.5 1232.55 683.25Z" fill="#FFFFFF" fill-rule="nonzero" fill-opacity="1"/><path d="M1634.5 804.062 1720.48 804.063 1720.48 810.938 1634.5 810.937ZM1715.9 793.75 1743.4 807.5 1715.9 821.25Z" fill="#156082" fill-rule="nonzero" fill-opacity="1"/><text fill="#000000" fill-opacity="1" font-family="Aptos,Aptos_MSFontService,sans-serif" font-style="normal" font-variant="normal" font-weight="700" font-stretch="normal" font-size="41" text-anchor="start" direction="ltr" writing-mode="lr-tb" unicode-bidi="normal" text-decoration="none" transform="matrix(1 0 0 1 1295.68 571)">Physical</text><text fill="#000000" fill-opacity="1" font-family="Aptos,Aptos_MSFontService,sans-serif" font-style="normal" font-variant="normal" font-weight="700" font-stretch="normal" font-size="41" text-anchor="start" direction="ltr" writing-mode="lr-tb" unicode-bidi="normal" text-decoration="none" transform="matrix(1 0 0 1 1464.11 571)">Storage</text><g><g><g><path d="M1483.17 257.168 1483.17 220.127 1411.43 257.324 1403.61 150.396 1377.52 150.396 1369.4 261.521 1369.4 335.604 1554.6 335.604 1554.6 220.127ZM1398.69 155.687 1399.65 168.917 1381.47 168.917 1382.44 155.687ZM1381.08 174.208 1400.04 174.208 1406.24 258.875 1374.89 258.875ZM1409.88 264.085 1477.88 228.831 1477.88 265.873 1549.31 228.831 1549.31 330.312 1374.69 330.312 1374.69 264.167 1406.62 264.167Z" fill="#FFFFFF" fill-rule="nonzero" fill-opacity="1"/><path d="M1387.92 314.437 1430.25 314.437 1430.25 287.979 1387.92 287.979ZM1424.96 309.146 1411.73 309.146 1411.73 293.271 1424.96 293.271ZM1393.21 293.271 1406.44 293.271 1406.44 309.146 1393.21 309.146Z" fill="#FFFFFF" fill-rule="nonzero" fill-opacity="1"/><path d="M1440.83 314.437 1483.17 314.437 1483.17 287.979 1440.83 287.979ZM1477.88 309.146 1464.65 309.146 1464.65 293.271 1477.88 293.271ZM1446.13 293.271 1459.35 293.271 1459.35 309.146 1446.13 309.146Z" fill="#FFFFFF" fill-rule="nonzero" fill-opacity="1"/><path d="M1536.08 287.979 1493.75 287.979 1493.75 314.437 1536.08 314.437ZM1499.04 293.271 1512.27 293.271 1512.27 309.146 1499.04 309.146ZM1530.79 309.146 1517.56 309.146 1517.56 293.271 1530.79 293.271Z" fill="#FFFFFF" fill-rule="nonzero" fill-opacity="1"/></g></g></g><text fill="#FFFFFF" fill-opacity="1" font-family="Aptos,Aptos_MSFontService,sans-serif" font-style="italic" font-variant="normal" font-weight="400" font-stretch="normal" font-size="41" text-anchor="start" direction="ltr" writing-mode="lr-tb" unicode-bidi="normal" text-decoration="none" transform="matrix(1 0 0 1 671.364 666)">Supplier 1 (S1)</text><text fill="#FFFFFF" fill-opacity="1" font-family="Aptos,Aptos_MSFontService,sans-serif" font-style="italic" font-variant="normal" font-weight="400" font-stretch="normal" font-size="41" text-anchor="start" direction="ltr" writing-mode="lr-tb" unicode-bidi="normal" text-decoration="none" transform="matrix(1 0 0 1 600.464 816)">Supplier 2 (S2)</text><text fill="#FFFFFF" fill-opacity="1" font-family="Aptos,Aptos_MSFontService,sans-serif" font-style="italic" font-variant="normal" font-weight="400" font-stretch="normal" font-size="41" text-anchor="start" direction="ltr" writing-mode="lr-tb" unicode-bidi="normal" text-decoration="none" transform="matrix(1 0 0 1 508.57 955)">Supplier 3 (S3)</text><text fill="#000000" fill-opacity="1" font-family="Calibri,Calibri_MSFontService,sans-serif" font-style="normal" font-variant="normal" font-weight="400" font-stretch="normal" font-size="73" text-anchor="start" direction="ltr" writing-mode="lr-tb" unicode-bidi="normal" text-decoration="none" transform="matrix(1 0 0 1 3523.45 554)">Data</text><text fill="#FFFFFF" fill-opacity="1" font-family="Aptos,Aptos_MSFontService,sans-serif" font-style="normal" font-variant="normal" font-weight="700" font-stretch="normal" font-size="46" text-anchor="start" direction="ltr" writing-mode="lr-tb" unicode-bidi="normal" text-decoration="none" transform="matrix(1 0 0 1 1465.86 1119)">Physical</text><text fill="#FFFFFF" fill-opacity="1" font-family="Aptos,Aptos_MSFontService,sans-serif" font-style="normal" font-variant="normal" font-weight="700" font-stretch="normal" font-size="46" text-anchor="start" direction="ltr" writing-mode="lr-tb" unicode-bidi="normal" text-decoration="none" transform="matrix(1 0 0 1 1650.91 1119)">separation</text><text fill="#FFFFFF" fill-opacity="1" font-family="Arial,Arial_MSFontService,sans-serif" font-style="normal" font-variant="normal" font-weight="400" font-stretch="normal" font-size="46" text-anchor="start" direction="ltr" writing-mode="lr-tb" unicode-bidi="normal" text-decoration="none" transform="matrix(1 0 0 1 1465.86 1174)">•</text><text fill="#FFFFFF" fill-opacity="1" font-family="Aptos,Aptos_MSFontService,sans-serif" font-style="normal" font-variant="normal" font-weight="400" font-stretch="normal" font-size="46" text-anchor="start" direction="ltr" writing-mode="lr-tb" unicode-bidi="normal" text-decoration="none" transform="matrix(1 0 0 1 1527.73 1174)">Storage: </text><text fill="#92D050" fill-opacity="1" font-family="Aptos,Aptos_MSFontService,sans-serif" font-style="normal" font-variant="normal" font-weight="400" font-stretch="normal" font-size="46" text-anchor="start" direction="ltr" writing-mode="lr-tb" unicode-bidi="normal" text-decoration="none" transform="matrix(1 0 0 1 1702.47 1174)">yes</text><text fill="#FFFFFF" fill-opacity="1" font-family="Aptos,Aptos_MSFontService,sans-serif" font-style="normal" font-variant="normal" font-weight="700" font-stretch="normal" font-size="46" text-anchor="start" direction="ltr" writing-mode="lr-tb" unicode-bidi="normal" text-decoration="none" transform="matrix(1 0 0 1 3029.74 1110)">Data </text><text fill="#FFFFFF" fill-opacity="1" font-family="Aptos,Aptos_MSFontService,sans-serif" font-style="normal" font-variant="normal" font-weight="700" font-stretch="normal" font-size="46" text-anchor="start" direction="ltr" writing-mode="lr-tb" unicode-bidi="normal" text-decoration="none" transform="matrix(1 0 0 1 3138.02 1110)">seperation</text><text fill="#FFFFFF" fill-opacity="1" font-family="Arial,Arial_MSFontService,sans-serif" font-style="normal" font-variant="normal" font-weight="400" font-stretch="normal" font-size="46" text-anchor="start" direction="ltr" writing-mode="lr-tb" unicode-bidi="normal" text-decoration="none" transform="matrix(1 0 0 1 3029.74 1165)">•</text><text fill="#FFFFFF" fill-opacity="1" font-family="Aptos,Aptos_MSFontService,sans-serif" font-style="normal" font-variant="normal" font-weight="400" font-stretch="normal" font-size="46" text-anchor="start" direction="ltr" writing-mode="lr-tb" unicode-bidi="normal" text-decoration="none" transform="matrix(1 0 0 1 3091.62 1165)">Short Term Material Demand: </text><text fill="#92D050" fill-opacity="1" font-family="Aptos,Aptos_MSFontService,sans-serif" font-style="normal" font-variant="normal" font-weight="400" font-stretch="normal" font-size="46" text-anchor="start" direction="ltr" writing-mode="lr-tb" unicode-bidi="normal" text-decoration="none" transform="matrix(1 0 0 1 3681.15 1165)">yes</text><text fill="#FFFFFF" fill-opacity="1" font-family="Arial,Arial_MSFontService,sans-serif" font-style="normal" font-variant="normal" font-weight="400" font-stretch="normal" font-size="46" text-anchor="start" direction="ltr" writing-mode="lr-tb" unicode-bidi="normal" text-decoration="none" transform="matrix(1 0 0 1 3029.74 1220)">•</text><text fill="#FFFFFF" fill-opacity="1" font-family="Aptos,Aptos_MSFontService,sans-serif" font-style="normal" font-variant="normal" font-weight="400" font-stretch="normal" font-size="46" text-anchor="start" direction="ltr" writing-mode="lr-tb" unicode-bidi="normal" text-decoration="none" transform="matrix(1 0 0 1 3091.62 1220)">Item Stock: </text><text fill="#92D050" fill-opacity="1" font-family="Aptos,Aptos_MSFontService,sans-serif" font-style="normal" font-variant="normal" font-weight="400" font-stretch="normal" font-size="46" text-anchor="start" direction="ltr" writing-mode="lr-tb" unicode-bidi="normal" text-decoration="none" transform="matrix(1 0 0 1 3325.37 1220)">yes</text><rect x="1273.5" y="1042.5" width="2631" height="234" stroke="#FFFFFF" stroke-width="3.4375" stroke-linecap="butt" stroke-linejoin="round" stroke-miterlimit="10" stroke-opacity="1" fill="none"/><path d="M0-3.4375 141.996-3.4375 142.182 67.8123 135.307 67.8304 135.13 0.00901149 138.567 3.4375 0 3.4375ZM152.307 62.7081 139.634 90.7208 124.828 63.7749Z" fill="#156082" fill-rule="nonzero" fill-opacity="1" transform="matrix(1 0 0 -1 1633.5 941.221)"/><path d="M1636.5 669.062 1778.5 669.062 1778.68 740.312 1771.81 740.33 1771.63 672.509 1775.07 675.937 1636.5 675.937ZM1788.81 735.208 1776.13 763.221 1761.33 736.275Z" fill="#156082" fill-rule="nonzero" fill-opacity="1"/><rect x="2382" y="387" width="314" height="139" fill="#035073" fill-opacity="1"/><text fill="#FFFFFF" fill-opacity="1" font-family="Calibri,Calibri_MSFontService,sans-serif" font-style="normal" font-variant="normal" font-weight="400" font-stretch="normal" font-size="50" text-anchor="start" direction="ltr" writing-mode="lr-tb" unicode-bidi="normal" text-decoration="none" transform="matrix(1 0 0 1 2426.48 444)">Production </text><text fill="#FFFFFF" fill-opacity="1" font-family="Calibri,Calibri_MSFontService,sans-serif" font-style="normal" font-variant="normal" font-weight="400" font-stretch="normal" font-size="50" text-anchor="start" direction="ltr" writing-mode="lr-tb" unicode-bidi="normal" text-decoration="none" transform="matrix(1 0 0 1 2450.84 499)">planning</text><g><g><g><path d="M26.125 68.8869C20.8783 68.8869 16.625 73.1402 16.625 78.387 16.625 83.6337 20.8783 87.887 26.125 87.887 31.3718 87.887 35.625 83.6337 35.625 78.387 35.6185 73.143 31.369 68.8935 26.125 68.8869ZM26.125 85.512C22.19 85.512 19 82.322 19 78.387 19 74.4519 22.19 71.262 26.125 71.262 30.0601 71.262 33.25 74.4519 33.25 78.387 33.2474 82.3216 30.0597 85.5115 26.125 85.5167Z" fill="#FFFFFF" fill-rule="nonzero" fill-opacity="1" transform="matrix(1 0 0 1.00877 1062 604)"/><path d="M107.35 57.9584 101.056 53.2084C100.231 52.594 99.6436 51.7128 99.3939 50.7146L97.0189 42.5209C95.8099 38.4679 92.1043 35.6733 87.8751 35.625L76.0001 35.625 76.0001 28.5 4.75001 28.5 4.75001 78.3893 14.25 78.3893C14.2497 77.5917 14.3292 76.7961 14.4875 76.0143L7.12501 76.0143 7.12501 60.4996 73.6251 60.4996 73.6251 76.0143 37.7625 76.0143C37.9214 76.7959 38.001 77.5917 38 78.3893L77.1876 78.3893C77.1872 77.5917 77.2668 76.7961 77.4251 76.0143L76.0001 76.0143 76.0001 38 80.7501 38 80.7501 54.5621 99.0139 54.5621C99.214 54.7616 99.427 54.9477 99.6516 55.1191L105.894 59.8323C106.506 60.2848 106.869 60.9986 106.875 61.7596L106.875 73.6346C106.875 74.9463 105.812 76.0096 104.5 76.0096L100.7 76.0096C100.859 76.7912 100.939 77.5869 100.938 78.3846L104.5 78.3846C107.12 78.3762 109.242 76.2544 109.25 73.6346L109.25 61.7596C109.245 60.2653 108.542 58.8591 107.35 57.9584ZM73.6251 58.1246 7.12501 58.1246 7.12501 30.875 73.6251 30.875ZM83.1251 38 87.8751 38C91.0425 38.056 93.8137 40.1453 94.7389 43.1752L97.1032 51.3333C97.1839 51.6234 97.2838 51.9079 97.4024 52.1847L83.1251 52.1847Z" fill="#FFFFFF" fill-rule="nonzero" fill-opacity="1" transform="matrix(1 0 0 1.00877 1062 604)"/><path d="M89.0626 68.8869C83.8159 68.8869 79.5626 73.1402 79.5626 78.387 79.5626 83.6337 83.8159 87.887 89.0626 87.887 94.3093 87.887 98.5626 83.6337 98.5626 78.387 98.5561 73.143 94.3066 68.8935 89.0626 68.8869ZM89.0626 85.512C85.1276 85.512 81.9376 82.322 81.9376 78.387 81.9376 74.4519 85.1276 71.262 89.0626 71.262 92.9976 71.262 96.1876 74.4519 96.1876 78.387 96.185 82.3216 92.9973 85.5115 89.0626 85.5167Z" fill="#FFFFFF" fill-rule="nonzero" fill-opacity="1" transform="matrix(1 0 0 1.00877 1062 604)"/></g></g></g><g><g><g><path d="M1088.35 814.491C1083.06 814.491 1078.77 818.782 1078.77 824.074 1078.77 829.367 1083.06 833.658 1088.35 833.658 1093.65 833.658 1097.94 829.367 1097.94 824.074 1097.93 818.784 1093.64 814.498 1088.35 814.491ZM1088.35 831.262C1084.38 831.262 1081.17 828.044 1081.17 824.074 1081.17 820.105 1084.38 816.887 1088.35 816.887 1092.32 816.887 1095.54 820.105 1095.54 824.074 1095.54 828.044 1092.32 831.261 1088.35 831.267Z" fill="#FFFFFF" fill-rule="nonzero" fill-opacity="1"/><path d="M1170.29 803.467 1163.94 798.675C1163.11 798.055 1162.52 797.166 1162.27 796.159L1159.87 787.894C1158.65 783.805 1154.91 780.986 1150.65 780.937L1138.67 780.937 1138.67 773.75 1066.79 773.75 1066.79 824.077 1076.37 824.077C1076.37 823.272 1076.45 822.47 1076.61 821.681L1069.19 821.681 1069.19 806.03 1136.27 806.03 1136.27 821.681 1100.09 821.681C1100.25 822.469 1100.33 823.272 1100.33 824.077L1139.86 824.077C1139.86 823.272 1139.94 822.47 1140.1 821.681L1138.67 821.681 1138.67 783.333 1143.46 783.333 1143.46 800.041 1161.88 800.041C1162.08 800.242 1162.3 800.43 1162.53 800.602L1168.82 805.357C1169.44 805.814 1169.81 806.534 1169.81 807.301L1169.81 819.28C1169.81 820.604 1168.74 821.676 1167.42 821.676L1163.58 821.676C1163.74 822.465 1163.82 823.267 1163.82 824.072L1167.42 824.072C1170.06 824.064 1172.2 821.923 1172.21 819.28L1172.21 807.301C1172.2 805.794 1171.49 804.375 1170.29 803.467ZM1136.27 803.634 1069.19 803.634 1069.19 776.146 1136.27 776.146ZM1145.85 783.333 1150.65 783.333C1153.84 783.39 1156.64 785.497 1157.57 788.554L1159.95 796.784C1160.04 797.076 1160.14 797.363 1160.26 797.642L1145.85 797.642Z" fill="#FFFFFF" fill-rule="nonzero" fill-opacity="1"/><path d="M1151.84 814.491C1146.55 814.491 1142.26 818.782 1142.26 824.074 1142.26 829.367 1146.55 833.658 1151.84 833.658 1157.14 833.658 1161.43 829.367 1161.43 824.074 1161.42 818.784 1157.13 814.498 1151.84 814.491ZM1151.84 831.262C1147.87 831.262 1144.66 828.044 1144.66 824.074 1144.66 820.105 1147.87 816.887 1151.84 816.887 1155.81 816.887 1159.03 820.105 1159.03 824.074 1159.03 828.044 1155.81 831.261 1151.84 831.267Z" fill="#FFFFFF" fill-rule="nonzero" fill-opacity="1"/></g></g></g><g><g><g><path d="M26.1249 68.8867C20.8782 68.8867 16.625 73.14 16.625 78.3867 16.625 83.6334 20.8782 87.8867 26.1249 87.8867 31.3717 87.8867 35.6249 83.6334 35.6249 78.3867 35.6184 73.1427 31.3689 68.8933 26.1249 68.8867ZM26.1249 85.5117C22.1899 85.5117 19 82.3217 19 78.3867 19 74.4517 22.1899 71.2617 26.1249 71.2617 30.06 71.2617 33.2499 74.4517 33.2499 78.3867 33.2473 82.3214 30.0596 85.5112 26.1249 85.5165Z" fill="#FFFFFF" fill-rule="nonzero" fill-opacity="1" transform="matrix(1.00878 0 0 1 1063 873)"/><path d="M107.35 57.9582 101.056 53.2082C100.231 52.5938 99.6433 51.7127 99.3935 50.7145L97.0186 42.5207C95.8096 38.4678 92.104 35.6731 87.8748 35.6249L75.9998 35.6249 75.9998 28.4999 4.74999 28.4999 4.74999 78.3891 14.25 78.3891C14.2496 77.5915 14.3292 76.7958 14.4875 76.0141L7.12499 76.0141 7.12499 60.4994 73.6249 60.4994 73.6249 76.0141 37.7624 76.0141C37.9213 76.7957 38.0009 77.5915 37.9999 78.3891L77.1873 78.3891C77.187 77.5915 77.2666 76.7958 77.4248 76.0141L75.9998 76.0141 75.9998 37.9999 80.7498 37.9999 80.7498 54.562 99.0135 54.562C99.2136 54.7615 99.4267 54.9475 99.6512 55.1189L105.894 59.8321C106.506 60.2846 106.869 60.9984 106.875 61.7594L106.875 73.6344C106.875 74.9461 105.812 76.0094 104.5 76.0094L100.7 76.0094C100.859 76.791 100.938 77.5867 100.937 78.3843L104.5 78.3843C107.12 78.3759 109.241 76.2542 109.25 73.6344L109.25 61.7594C109.245 60.2651 108.542 58.8589 107.35 57.9582ZM73.6249 58.1244 7.12499 58.1244 7.12499 30.8749 73.6249 30.8749ZM83.1248 37.9999 87.8748 37.9999C91.0422 38.0559 93.8134 40.1451 94.7386 43.175L97.1029 51.3331C97.1836 51.6233 97.2835 51.9078 97.4021 52.1846L83.1248 52.1846Z" fill="#FFFFFF" fill-rule="nonzero" fill-opacity="1" transform="matrix(1.00878 0 0 1 1063 873)"/><path d="M89.0623 68.8867C83.8156 68.8867 79.5623 73.14 79.5623 78.3867 79.5623 83.6334 83.8156 87.8867 89.0623 87.8867 94.309 87.8867 98.5623 83.6334 98.5623 78.3867 98.5558 73.1427 94.3063 68.8933 89.0623 68.8867ZM89.0623 85.5117C85.1273 85.5117 81.9373 82.3217 81.9373 78.3867 81.9373 74.4517 85.1273 71.2617 89.0623 71.2617 92.9973 71.2617 96.1873 74.4517 96.1873 78.3867 96.1847 82.3214 92.997 85.5112 89.0623 85.5165Z" fill="#FFFFFF" fill-rule="nonzero" fill-opacity="1" transform="matrix(1.00878 0 0 1 1063 873)"/></g></g></g><path d="M1188.5 805.062 1236.13 805.063 1236.13 811.938 1188.5 811.938ZM1231.55 794.75 1259.05 808.5 1231.55 822.25Z" fill="#FFFFFF" fill-rule="nonzero" fill-opacity="1"/><path d="M1189.5 938.063 1237.13 938.063 1237.13 944.938 1189.5 944.938ZM1232.55 927.75 1260.05 941.5 1232.55 955.25Z" fill="#FFFFFF" fill-rule="nonzero" fill-opacity="1"/><path d="M0-1.71875 1093.2-1.71875 1093.2 11.4248 1089.76 11.4248 1089.76 0 1091.48 1.71875 0 1.71875ZM1105.23 6.84144 1091.48 34.3414 1077.73 6.84144Z" fill="#FFFFFF" fill-rule="nonzero" fill-opacity="1" transform="matrix(-1 1.22465e-16 1.22465e-16 1 1780.98 511.5)"/><path d="M0-1.71875 1161.91-1.71875 1161.91 227.102 1158.48 227.102 1158.48 0 1160.19 1.71875 0 1.71875ZM1173.94 222.518 1160.19 250.018 1146.44 222.518Z" fill="#FFFFFF" fill-rule="nonzero" fill-opacity="1" transform="matrix(-1 1.22465e-16 1.22465e-16 1 1780.69 455.5)"/><path d="M0-1.71875 1250.74-1.71875 1250.74 428.375 1247.3 428.375 1247.3 0 1249.02 1.71875 0 1.71875ZM1262.77 423.792 1249.02 451.292 1235.27 423.792Z" fill="#FFFFFF" fill-rule="nonzero" fill-opacity="1" transform="matrix(-1 1.22465e-16 1.22465e-16 1 1780.52 399.5)"/><g><g><g><path d="M1827.81 374.441 1822.2 378.937 1820.72 381.889 1802.75 399.854 1800.53 397.579 1798.19 399.921 1798.58 400.304C1798.76 400.483 1798.87 400.732 1798.86 400.991 1798.86 401.224 1798.75 401.443 1798.58 401.596 1798.4 401.784 1798.15 401.889 1797.89 401.884 1797.66 401.879 1797.45 401.781 1797.3 401.613L1796.92 401.194 1782.98 415.079C1782.49 415.548 1782.11 416.122 1781.87 416.758 1781.24 418.584 1781.71 420.609 1783.08 421.97 1784.78 423.692 1787.48 423.914 1789.44 422.494L1790.08 421.97 1803.84 408.208 1803.46 407.825C1803.27 407.646 1803.17 407.397 1803.17 407.138 1803.18 406.905 1803.28 406.686 1803.46 406.533 1803.64 406.347 1803.89 406.243 1804.14 406.245 1804.37 406.25 1804.58 406.348 1804.73 406.516L1805.11 406.935 1807.41 404.639 1805.14 402.31 1823.11 384.333 1826.07 382.858 1830.56 377.183ZM1805.89 404.629 1805.09 405.425C1804.81 405.26 1804.5 405.169 1804.17 405.162 1803.62 405.151 1803.1 405.363 1802.71 405.749 1802.32 406.098 1802.1 406.591 1802.09 407.112 1802.08 407.48 1802.17 407.842 1802.36 408.159L1789.35 421.168 1788.78 421.635C1787.26 422.725 1785.16 422.541 1783.85 421.202 1782.77 420.135 1782.4 418.549 1782.89 417.116 1783.08 416.635 1783.37 416.2 1783.75 415.846L1796.94 402.704C1797.22 402.869 1797.54 402.96 1797.86 402.967 1798.41 402.981 1798.94 402.768 1799.32 402.38 1799.71 402.031 1799.94 401.538 1799.95 401.017 1799.96 400.649 1799.86 400.287 1799.68 399.97L1800.52 399.121 1802.38 401.019 1803.62 402.298 1803.97 402.661 1803.99 402.679ZM1825.37 381.994 1822.47 383.442 1804.38 401.534 1803.51 400.631 1821.61 382.529 1823.06 379.632 1827.74 375.895 1829.11 377.269Z" stroke="#000000" stroke-width="0.541609" stroke-linecap="butt" stroke-linejoin="miter" stroke-miterlimit="4" stroke-opacity="1" fill="#000000" fill-rule="nonzero" fill-opacity="1"/></g></g></g><g><g><g><path d="M1821.53 432.208C1821.8 432.207 1822.07 432.221 1822.34 432.25L1818.39 436.204 1819.74 441.258 1824.8 442.613 1828.69 438.677C1829.1 442.631 1826.23 446.169 1822.27 446.578 1822.03 446.603 1821.79 446.615 1821.55 446.616 1820.93 446.616 1820.32 446.534 1819.72 446.372L1819.11 446.206 1797.2 468.12 1797.38 468.736C1798.11 471.329 1797.3 474.112 1795.31 475.919 1793.98 477.124 1792.26 477.792 1790.47 477.792 1790.2 477.793 1789.93 477.779 1789.66 477.75L1793.61 473.796 1792.26 468.744 1787.26 467.389 1783.31 471.336C1782.89 467.382 1785.76 463.84 1789.72 463.423 1789.96 463.398 1790.2 463.385 1790.45 463.384 1791.07 463.384 1791.68 463.466 1792.28 463.628L1792.89 463.794 1814.8 441.88 1814.62 441.264C1813.89 438.671 1814.7 435.887 1816.69 434.081 1818.02 432.876 1819.74 432.208 1821.53 432.208M1821.53 431.124C1816.98 431.118 1813.29 434.801 1813.28 439.351 1813.28 440.1 1813.38 440.845 1813.58 441.567L1792.57 462.583C1791.88 462.395 1791.16 462.3 1790.45 462.301 1785.88 462.312 1782.18 466.028 1782.19 470.602 1782.19 471.581 1782.37 472.553 1782.71 473.471L1787.58 468.596 1791.37 469.625 1792.4 473.471 1787.53 478.346C1788.47 478.695 1789.46 478.875 1790.47 478.875 1795.02 478.882 1798.71 475.199 1798.72 470.649 1798.72 469.9 1798.62 469.155 1798.42 468.433L1819.43 447.417C1820.12 447.605 1820.83 447.7 1821.55 447.699 1826.12 447.688 1829.82 443.972 1829.81 439.398 1829.81 438.418 1829.63 437.447 1829.29 436.529L1824.47 441.404 1820.62 440.375 1819.6 436.529 1824.47 431.654C1823.53 431.305 1822.54 431.125 1821.53 431.124Z" stroke="#000000" stroke-width="0.541609" stroke-linecap="butt" stroke-linejoin="miter" stroke-miterlimit="4" stroke-opacity="1" fill="#000000" fill-rule="nonzero" fill-opacity="1"/></g></g></g><path d="M1.02186e-05-1.71875 37.7847-1.71853 37.7847 1.71897-1.02186e-05 1.71875ZM33.2015-13.7498 60.7014 0.000360892 33.2013 13.7502Z" fill="#FFFFFF" fill-rule="nonzero" fill-opacity="1" transform="matrix(-1 0 0 1 1904.2 455.5)"/><path d="M1.02186e-05-1.71875 37.7847-1.71853 37.7847 1.71897-1.02186e-05 1.71875ZM33.2015-13.7498 60.7014 0.000360892 33.2013 13.7502Z" fill="#FFFFFF" fill-rule="nonzero" fill-opacity="1" transform="matrix(-1 0 0 1 1902.2 399.5)"/><path d="M1.02186e-05-1.71875 37.7847-1.71853 37.7847 1.71897-1.02186e-05 1.71875ZM33.2015-13.7498 60.7014 0.000360892 33.2013 13.7502Z" fill="#FFFFFF" fill-rule="nonzero" fill-opacity="1" transform="matrix(-1 0 0 1 1904.2 513.5)"/><path d="M398 367C398 326.131 431.131 293 472 293 512.869 293 546 326.131 546 367 546 407.869 512.869 441 472 441 431.131 441 398 407.869 398 367Z" fill="#B3CB2D" fill-rule="evenodd" fill-opacity="1"/><text fill="#595959" fill-opacity="1" font-family="Calibri,Calibri_MSFontService,sans-serif" font-style="normal" font-variant="normal" font-weight="400" font-stretch="normal" font-size="83" text-anchor="start" direction="ltr" writing-mode="lr-tb" unicode-bidi="normal" text-decoration="none" transform="matrix(1 0 0 1 451.379 390)">1</text><g><g><g><path d="M66.2944 5.12005C66.7244 5.11872 67.1542 5.14123 67.5818 5.18749L61.2703 11.4989 63.4318 19.5663 71.5052 21.7278 77.7164 15.4466C78.3697 21.7579 73.7829 27.4037 67.4717 28.0569 67.0891 28.0965 66.7049 28.1169 66.3203 28.1179 65.3327 28.118 64.3494 27.9869 63.3963 27.728L62.428 27.4634 27.4496 62.4418 27.7358 63.4248C28.9017 67.564 27.6205 72.0064 24.4296 74.8892 22.3169 76.8127 19.5626 77.8791 16.7054 77.8798 16.2754 77.8811 15.8456 77.8586 15.4181 77.8123L21.7295 71.5009 19.5724 63.437 11.5923 61.2755 5.28519 67.574C4.62096 61.2634 9.19828 55.6092 15.5088 54.945 15.8978 54.904 16.2885 54.883 16.6795 54.8819 17.6671 54.8817 18.6504 55.0129 19.6035 55.2718L20.5719 55.5364 55.5502 20.558 55.2641 19.575C54.0982 15.4358 55.3793 10.9934 58.5702 8.11064 60.6829 6.18708 63.4372 5.12072 66.2944 5.12005M66.2944 3.39089C59.0317 3.38033 53.1355 9.25932 53.125 16.5221 53.1233 17.7171 53.2844 18.9068 53.6041 20.0583L20.0583 53.6041C18.9571 53.3041 17.8208 53.1523 16.6795 53.1528 9.37907 53.1703 3.47517 59.1026 3.4927 66.4031 3.49646 67.9665 3.77755 69.5169 4.32291 70.9822L12.1041 63.2009 18.1562 64.8436 19.7989 70.9822 12.0177 78.7634C13.5177 79.3212 15.105 79.6076 16.7054 79.6089 23.9681 79.6195 29.8643 73.7405 29.8748 66.4778 29.8766 65.2827 29.7154 64.0931 29.3958 62.9415L62.9415 29.3958C64.0428 29.6957 65.179 29.8475 66.3203 29.8471 73.6208 29.8295 79.5247 23.8972 79.5071 16.5968 79.5034 15.0333 79.2223 13.483 78.6769 12.0177L70.9822 19.7989 64.8436 18.1562 63.2009 12.0177 70.9822 4.23645C69.4822 3.67854 67.8948 3.39221 66.2944 3.39089Z" stroke="#FFFFFF" stroke-width="0.864491" stroke-linecap="butt" stroke-linejoin="miter" stroke-miterlimit="4" stroke-opacity="1" fill="#FFFFFF" fill-rule="nonzero" fill-opacity="1" transform="matrix(1 0 0 1 953 619)"/></g></g></g><g><g><g><path d="M41.5338 3.20774C41.8033 3.20691 42.0725 3.22101 42.3404 3.24999L38.3862 7.20415 39.7404 12.2584 44.7985 13.6126 48.6898 9.6774C49.0991 13.6314 46.2254 17.1686 42.2714 17.5778 42.0317 17.6026 41.791 17.6154 41.5501 17.616 40.9313 17.6161 40.3153 17.5339 39.7182 17.3718L39.1115 17.206 17.1973 39.1202 17.3766 39.736C18.1071 42.3293 17.3044 45.1125 15.3053 46.9185 13.9817 48.1236 12.2561 48.7917 10.4661 48.7922 10.1966 48.793 9.92738 48.7789 9.65952 48.7499L13.6137 44.7957 12.2622 39.7436 7.26265 38.3895 3.3112 42.3355C2.89506 38.3819 5.76278 34.8395 9.71634 34.4234 9.96004 34.3977 10.2048 34.3846 10.4498 34.3839 11.0686 34.3837 11.6846 34.4659 12.2817 34.6281L12.8884 34.7939 34.8026 12.8797 34.6233 12.2639C33.8928 9.67063 34.6955 6.88744 36.6946 5.08137 38.0182 3.87625 39.7438 3.20816 41.5338 3.20774M41.5338 2.12441C36.9837 2.1178 33.2897 5.80102 33.2831 10.3512 33.282 11.0999 33.383 11.8452 33.5833 12.5666L12.5666 33.5833C11.8767 33.3954 11.1649 33.3002 10.4498 33.3005 5.87604 33.3115 2.17721 37.0282 2.1882 41.6019 2.19056 42.5814 2.36666 43.5527 2.70833 44.4707L7.58332 39.5958 11.375 40.6249 12.4041 44.4707 7.52915 49.3457C8.46894 49.6952 9.46339 49.8746 10.4661 49.8755 15.0162 49.8821 18.7102 46.1989 18.7168 41.6487 18.7178 40.9 18.6169 40.1547 18.4166 39.4333L39.4333 18.4166C40.1232 18.6045 40.835 18.6996 41.5501 18.6994 46.1239 18.6884 49.8227 14.9717 49.8117 10.398 49.8093 9.41848 49.6333 8.44717 49.2916 7.52915L44.4707 12.4041 40.6249 11.375 39.5958 7.52915 44.4707 2.65416C43.531 2.30462 42.5365 2.12524 41.5338 2.12441Z" stroke="#000000" stroke-width="0.541609" stroke-linecap="butt" stroke-linejoin="miter" stroke-miterlimit="4" stroke-opacity="1" fill="#000000" fill-rule="nonzero" fill-opacity="1" transform="matrix(1.00001 0 0 1 1778 487)"/></g></g></g><rect x="936.5" y="600.5" width="126" height="250" stroke="#FFA600" stroke-width="3.4375" stroke-linecap="butt" stroke-linejoin="round" stroke-miterlimit="10" stroke-dasharray="13.75 10.3125" stroke-opacity="1" fill="none"/><text fill="#FFC000" fill-opacity="1" font-family="Calibri,Calibri_MSFontService,sans-serif" font-style="normal" font-variant="normal" font-weight="700" font-stretch="normal" font-size="110" text-anchor="start" direction="ltr" writing-mode="lr-tb" unicode-bidi="normal" text-decoration="none" transform="matrix(1 0 0 1 1022.74 824)">!</text><rect x="1773.5" y="430.5" width="74.0002" height="115" stroke="#FFA600" stroke-width="3.4375" stroke-linecap="butt" stroke-linejoin="round" stroke-miterlimit="10" stroke-dasharray="13.75 10.3125" stroke-opacity="1" fill="none"/><path d="M1755.83 524.88C1757.3 524.88 1758.51 525.014 1759.48 525.282 1760.45 525.551 1761.23 525.999 1761.82 526.625 1762.41 527.252 1762.82 528.075 1763.05 529.096 1763.29 530.116 1763.4 531.379 1763.4 532.883 1763.4 534.351 1763.29 535.586 1763.05 536.589 1762.82 537.591 1762.41 538.397 1761.82 539.006 1761.23 539.614 1760.45 540.053 1759.48 540.321 1758.51 540.59 1757.3 540.724 1755.83 540.724 1754.36 540.724 1753.13 540.59 1752.15 540.321 1751.16 540.053 1750.39 539.614 1749.81 539.006 1749.24 538.397 1748.84 537.591 1748.6 536.589 1748.37 535.586 1748.26 534.351 1748.26 532.883 1748.26 531.379 1748.37 530.116 1748.6 529.096 1748.84 528.075 1749.24 527.252 1749.81 526.625 1750.39 525.999 1751.16 525.551 1752.15 525.282 1753.13 525.014 1754.36 524.88 1755.83 524.88ZM1755.83 465.583C1757.26 465.583 1758.44 465.645 1759.37 465.771 1760.3 465.896 1761.05 466.075 1761.6 466.308 1762.16 466.541 1762.55 466.827 1762.78 467.167 1763.02 467.507 1763.13 467.91 1763.13 468.376L1761.74 517.145C1761.7 517.503 1761.59 517.826 1761.41 518.112 1761.24 518.398 1760.92 518.64 1760.47 518.837 1760.03 519.034 1759.42 519.186 1758.65 519.294 1757.88 519.401 1756.94 519.455 1755.83 519.455 1754.68 519.455 1753.73 519.401 1752.98 519.294 1752.23 519.186 1751.63 519.034 1751.18 518.837 1750.74 518.64 1750.42 518.398 1750.24 518.112 1750.06 517.826 1749.96 517.503 1749.92 517.145L1748.52 468.376C1748.52 467.91 1748.63 467.498 1748.85 467.14 1749.06 466.782 1749.45 466.487 1750 466.254 1750.56 466.021 1751.31 465.851 1752.26 465.744 1753.21 465.636 1754.4 465.583 1755.83 465.583Z" stroke="#000000" stroke-width="3" stroke-linecap="butt" stroke-linejoin="round" stroke-miterlimit="10" stroke-opacity="1" fill="#FFC000" fill-rule="evenodd" fill-opacity="1"/><text fill="#000000" fill-opacity="0" font-family="Arial,Arial_MSFontService,sans-serif" font-size="75.1416" direction="ltr" writing-mode="lr-tb" x="1748.26" y="531.332">!</text><text fill="#595959" fill-opacity="1" font-family="Calibri,Calibri_MSFontService,sans-serif" font-style="normal" font-variant="normal" font-weight="400" font-stretch="normal" font-size="83" text-anchor="start" direction="ltr" writing-mode="lr-tb" unicode-bidi="normal" text-decoration="none" transform="matrix(1 0 0 1 2801.35 482)">Start</text><path d="M2.27232e-05-3.4375 31.6781-3.43729 31.678 3.43771-2.27232e-05 3.4375ZM27.0948-13.7498 54.5947 0.000360892 27.0946 13.7502Z" fill="#FFFFFF" fill-rule="nonzero" fill-opacity="1" transform="matrix(-1 0 0 1 2779.09 454.5)"/><text fill="#FFA600" fill-opacity="1" font-family="Arial,Arial_MSFontService,sans-serif" font-style="normal" font-variant="normal" font-weight="400" font-stretch="normal" font-size="46" text-anchor="start" direction="ltr" writing-mode="lr-tb" unicode-bidi="normal" text-decoration="none" transform="matrix(1 0 0 1 486.198 1121)">•</text><text fill="#FFA600" fill-opacity="1" font-family="Calibri,Calibri_MSFontService,sans-serif" font-style="normal" font-variant="normal" font-weight="400" font-stretch="normal" font-size="46" text-anchor="start" direction="ltr" writing-mode="lr-tb" unicode-bidi="normal" text-decoration="none" transform="matrix(1 0 0 1 548.073 1121)">Two</text><text fill="#FFA600" fill-opacity="1" font-family="Calibri,Calibri_MSFontService,sans-serif" font-style="normal" font-variant="normal" font-weight="400" font-stretch="normal" font-size="46" text-anchor="start" direction="ltr" writing-mode="lr-tb" unicode-bidi="normal" text-decoration="none" transform="matrix(1 0 0 1 637.448 1121)">suppliers</text><text fill="#FFA600" fill-opacity="1" font-family="Calibri,Calibri_MSFontService,sans-serif" font-style="normal" font-variant="normal" font-weight="400" font-stretch="normal" font-size="46" text-anchor="start" direction="ltr" writing-mode="lr-tb" unicode-bidi="normal" text-decoration="none" transform="matrix(1 0 0 1 815.052 1121)">for</text><text fill="#FFA600" fill-opacity="1" font-family="Calibri,Calibri_MSFontService,sans-serif" font-style="normal" font-variant="normal" font-weight="400" font-stretch="normal" font-size="46" text-anchor="start" direction="ltr" writing-mode="lr-tb" unicode-bidi="normal" text-decoration="none" transform="matrix(1 0 0 1 879.219 1121)">the</text><text fill="#FFA600" fill-opacity="1" font-family="Calibri,Calibri_MSFontService,sans-serif" font-style="normal" font-variant="normal" font-weight="400" font-stretch="normal" font-size="46" text-anchor="start" direction="ltr" writing-mode="lr-tb" unicode-bidi="normal" text-decoration="none" transform="matrix(1 0 0 1 951.979 1121)">same i</text><text fill="#FFA600" fill-opacity="1" font-family="Calibri,Calibri_MSFontService,sans-serif" font-style="normal" font-variant="normal" font-weight="400" font-stretch="normal" font-size="46" text-anchor="start" direction="ltr" writing-mode="lr-tb" unicode-bidi="normal" text-decoration="none" transform="matrix(1 0 0 1 1071.72 1121)">tem</text></g></g></svg>