<svg id="mermaid-svg" width="100%" xmlns="http://www.w3.org/2000/svg" style="max-width: 1200px;" viewBox="0 0 1200 420" role="graphics-document document" aria-roledescription="xychart" xmlns:xlink="http://www.w3.org/1999/xlink"><style xmlns="http://www.w3.org/1999/xhtml">@import url("https://cdnjs.cloudflare.com/ajax/libs/font-awesome/6.6.0/css/all.min.css");</style><style>#mermaid-svg{font-family:"trebuchet ms",verdana,arial,sans-serif;font-size:16px;fill:#ccc;}#mermaid-svg .error-icon{fill:#a44141;}#mermaid-svg .error-text{fill:#ddd;stroke:#ddd;}#mermaid-svg .edge-thickness-normal{stroke-width:1px;}#mermaid-svg .edge-thickness-thick{stroke-width:3.5px;}#mermaid-svg .edge-pattern-solid{stroke-dasharray:0;}#mermaid-svg .edge-thickness-invisible{stroke-width:0;fill:none;}#mermaid-svg .edge-pattern-dashed{stroke-dasharray:3;}#mermaid-svg .edge-pattern-dotted{stroke-dasharray:2;}#mermaid-svg .marker{fill:lightgrey;stroke:lightgrey;}#mermaid-svg .marker.cross{stroke:lightgrey;}#mermaid-svg svg{font-family:"trebuchet ms",verdana,arial,sans-serif;font-size:16px;}#mermaid-svg p{margin:0;}#mermaid-svg :root{--mermaid-font-family:"trebuchet ms",verdana,arial,sans-serif;}</style><g/><g class="main"><rect width="1200" height="420" class="background" fill="#000000"/><g class="chart-title"><text x="0" y="0" fill="#F4F2F3" font-size="20" dominant-baseline="middle" text-anchor="middle" transform="translate(600, 21.5) rotate(0)">Example 4a</text></g><g class="plot"><g class="bar-plot-0"><rect x="77.22500190734863" y="379" width="70.3" height="8" fill="#FFA600" stroke="#FFA600" stroke-width="0"/><rect x="193.9611128065321" y="379" width="70.3" height="8" fill="#FFA600" stroke="#FFA600" stroke-width="0"/><rect x="310.6972237057156" y="379" width="70.3" height="8" fill="#FFA600" stroke="#FFA600" stroke-width="0"/><rect x="427.43333460489913" y="379" width="70.3" height="8" fill="#FFA600" stroke="#FFA600" stroke-width="0"/><rect x="544.1694455040825" y="379" width="70.3" height="8" fill="#FFA600" stroke="#FFA600" stroke-width="0"/><rect x="660.9055564032661" y="379" width="70.3" height="8" fill="#FFA600" stroke="#FFA600" stroke-width="0"/><rect x="777.6416673024496" y="379" width="70.3" height="8" fill="#FFA600" stroke="#FFA600" stroke-width="0"/><rect x="894.3777782016331" y="379" width="70.3" height="8" fill="#FFA600" stroke="#FFA600" stroke-width="0"/><rect x="1011.1138891008164" y="379" width="70.3" height="8" fill="#FFA600" stroke="#FFA600" stroke-width="0"/><rect x="1127.85" y="379" width="70.3" height="8" fill="#FFA600" stroke="#FFA600" stroke-width="0"/></g><g class="bar-plot-1"><rect x="77.22500190734863" y="379" width="70.3" height="8" fill="#d91e18" stroke="#d91e18" stroke-width="0"/><rect x="193.9611128065321" y="379" width="70.3" height="8" fill="#d91e18" stroke="#d91e18" stroke-width="0"/><rect x="310.6972237057156" y="379" width="70.3" height="8" fill="#d91e18" stroke="#d91e18" stroke-width="0"/><rect x="427.43333460489913" y="379" width="70.3" height="8" fill="#d91e18" stroke="#d91e18" stroke-width="0"/><rect x="544.1694455040825" y="379" width="70.3" height="8" fill="#d91e18" stroke="#d91e18" stroke-width="0"/><rect x="660.9055564032661" y="88.27272727272728" width="70.3" height="298.72727272727275" fill="#d91e18" stroke="#d91e18" stroke-width="0"/><rect x="777.6416673024496" y="88.27272727272728" width="70.3" height="298.72727272727275" fill="#d91e18" stroke="#d91e18" stroke-width="0"/><rect x="894.3777782016331" y="88.27272727272728" width="70.3" height="298.72727272727275" fill="#d91e18" stroke="#d91e18" stroke-width="0"/><rect x="1011.1138891008164" y="379" width="70.3" height="8" fill="#d91e18" stroke="#d91e18" stroke-width="0"/><rect x="1127.85" y="379" width="70.3" height="8" fill="#d91e18" stroke="#d91e18" stroke-width="0"/></g><g class="bar-plot-2"><rect x="77.22500190734863" y="113.61818181818182" width="70.3" height="273.3818181818182" fill="#809500" stroke="#809500" stroke-width="0"/><rect x="193.9611128065321" y="114.36363636363637" width="70.3" height="272.6363636363636" fill="#809500" stroke="#809500" stroke-width="0"/><rect x="310.6972237057156" y="114.36363636363637" width="70.3" height="272.6363636363636" fill="#809500" stroke="#809500" stroke-width="0"/><rect x="427.43333460489913" y="114.36363636363637" width="70.3" height="272.6363636363636" fill="#809500" stroke="#809500" stroke-width="0"/><rect x="544.1694455040825" y="115.1090909090909" width="70.3" height="271.8909090909091" fill="#809500" stroke="#809500" stroke-width="0"/><rect x="660.9055564032661" y="379" width="70.3" height="8" fill="#809500" stroke="#809500" stroke-width="0"/><rect x="777.6416673024496" y="379" width="70.3" height="8" fill="#809500" stroke="#809500" stroke-width="0"/><rect x="894.3777782016331" y="379" width="70.3" height="8" fill="#809500" stroke="#809500" stroke-width="0"/><rect x="1011.1138891008164" y="115.1090909090909" width="70.3" height="271.8909090909091" fill="#809500" stroke="#809500" stroke-width="0"/><rect x="1127.85" y="115.1090909090909" width="70.3" height="271.8909090909091" fill="#809500" stroke="#809500" stroke-width="0"/></g><g class="line-plot-3"><path d="M112.375,112.873L229.111,112.873L345.847,112.873L462.583,112.873L579.319,112.873L696.056,112.873L812.792,112.873L929.528,112.873L1046.264,112.873L1163,112.873" fill="none" stroke="#ffffff" stroke-width="2"/></g><g class="line-plot-4"><path d="M112.375,110.636L229.111,110.636L345.847,110.636L462.583,110.636L579.319,110.636L696.056,110.636L812.792,110.636L929.528,110.636L1046.264,110.636L1163,110.636" fill="none" stroke="#00ffff" stroke-width="2"/></g></g><g class="bottom-axis"><g class="axis-line"><path d="M 75.37500190734863,388 L 1200,388" fill="none" stroke="#F4F2F3" stroke-width="2"/></g><g class="label"><text x="0" y="0" fill="#F4F2F3" font-size="14" dominant-baseline="text-before-edge" text-anchor="middle" transform="translate(112.37500190734863, 399) rotate(0)">Week14</text><text x="0" y="0" fill="#F4F2F3" font-size="14" dominant-baseline="text-before-edge" text-anchor="middle" transform="translate(229.1111128065321, 399) rotate(0)">Week15</text><text x="0" y="0" fill="#F4F2F3" font-size="14" dominant-baseline="text-before-edge" text-anchor="middle" transform="translate(345.8472237057156, 399) rotate(0)">Week16</text><text x="0" y="0" fill="#F4F2F3" font-size="14" dominant-baseline="text-before-edge" text-anchor="middle" transform="translate(462.5833346048991, 399) rotate(0)">Week17</text><text x="0" y="0" fill="#F4F2F3" font-size="14" dominant-baseline="text-before-edge" text-anchor="middle" transform="translate(579.3194455040825, 399) rotate(0)">Week18</text><text x="0" y="0" fill="#F4F2F3" font-size="14" dominant-baseline="text-before-edge" text-anchor="middle" transform="translate(696.0555564032661, 399) rotate(0)">Week19</text><text x="0" y="0" fill="#F4F2F3" font-size="14" dominant-baseline="text-before-edge" text-anchor="middle" transform="translate(812.7916673024496, 399) rotate(0)">Week20</text><text x="0" y="0" fill="#F4F2F3" font-size="14" dominant-baseline="text-before-edge" text-anchor="middle" transform="translate(929.527778201633, 399) rotate(0)">Week21</text><text x="0" y="0" fill="#F4F2F3" font-size="14" dominant-baseline="text-before-edge" text-anchor="middle" transform="translate(1046.2638891008164, 399) rotate(0)">Week22</text><text x="0" y="0" fill="#F4F2F3" font-size="14" dominant-baseline="text-before-edge" text-anchor="middle" transform="translate(1163, 399) rotate(0)">Week23</text></g><g class="ticks"><path d="M 112.37500190734863,389 L 112.37500190734863,394" fill="none" stroke="#F4F2F3" stroke-width="2"/><path d="M 229.1111128065321,389 L 229.1111128065321,394" fill="none" stroke="#F4F2F3" stroke-width="2"/><path d="M 345.8472237057156,389 L 345.8472237057156,394" fill="none" stroke="#F4F2F3" stroke-width="2"/><path d="M 462.5833346048991,389 L 462.5833346048991,394" fill="none" stroke="#F4F2F3" stroke-width="2"/><path d="M 579.3194455040825,389 L 579.3194455040825,394" fill="none" stroke="#F4F2F3" stroke-width="2"/><path d="M 696.0555564032661,389 L 696.0555564032661,394" fill="none" stroke="#F4F2F3" stroke-width="2"/><path d="M 812.7916673024496,389 L 812.7916673024496,394" fill="none" stroke="#F4F2F3" stroke-width="2"/><path d="M 929.527778201633,389 L 929.527778201633,394" fill="none" stroke="#F4F2F3" stroke-width="2"/><path d="M 1046.2638891008164,389 L 1046.2638891008164,394" fill="none" stroke="#F4F2F3" stroke-width="2"/><path d="M 1163,389 L 1163,394" fill="none" stroke="#F4F2F3" stroke-width="2"/></g></g><g class="left-axis"><g class="axisl-line"><path d="M 74.37500190734863,43 L 74.37500190734863,387 " fill="none" stroke="#F4F2F3" stroke-width="2"/></g><g class="label"><text x="0" y="0" fill="#F4F2F3" font-size="14" dominant-baseline="middle" text-anchor="end" transform="translate(63.37500190734863, 51) rotate(0)">2200</text><text x="0" y="0" fill="#F4F2F3" font-size="14" dominant-baseline="middle" text-anchor="end" transform="translate(63.37500190734863, 80.81818181818183) rotate(0)">2000</text><text x="0" y="0" fill="#F4F2F3" font-size="14" dominant-baseline="middle" text-anchor="end" transform="translate(63.37500190734863, 110.63636363636363) rotate(0)">1800</text><text x="0" y="0" fill="#F4F2F3" font-size="14" dominant-baseline="middle" text-anchor="end" transform="translate(63.37500190734863, 140.45454545454544) rotate(0)">1600</text><text x="0" y="0" fill="#F4F2F3" font-size="14" dominant-baseline="middle" text-anchor="end" transform="translate(63.37500190734863, 170.27272727272725) rotate(0)">1400</text><text x="0" y="0" fill="#F4F2F3" font-size="14" dominant-baseline="middle" text-anchor="end" transform="translate(63.37500190734863, 200.0909090909091) rotate(0)">1200</text><text x="0" y="0" fill="#F4F2F3" font-size="14" dominant-baseline="middle" text-anchor="end" transform="translate(63.37500190734863, 229.9090909090909) rotate(0)">1000</text><text x="0" y="0" fill="#F4F2F3" font-size="14" dominant-baseline="middle" text-anchor="end" transform="translate(63.37500190734863, 259.72727272727275) rotate(0)">800</text><text x="0" y="0" fill="#F4F2F3" font-size="14" dominant-baseline="middle" text-anchor="end" transform="translate(63.37500190734863, 289.54545454545456) rotate(0)">600</text><text x="0" y="0" fill="#F4F2F3" font-size="14" dominant-baseline="middle" text-anchor="end" transform="translate(63.37500190734863, 319.3636363636363) rotate(0)">400</text><text x="0" y="0" fill="#F4F2F3" font-size="14" dominant-baseline="middle" text-anchor="end" transform="translate(63.37500190734863, 349.1818181818182) rotate(0)">200</text><text x="0" y="0" fill="#F4F2F3" font-size="14" dominant-baseline="middle" text-anchor="end" transform="translate(63.37500190734863, 379) rotate(0)">0</text></g><g class="ticks"><path d="M 73.37500190734863,51 L 68.37500190734863,51" fill="none" stroke="#F4F2F3" stroke-width="2"/><path d="M 73.37500190734863,80.81818181818183 L 68.37500190734863,80.81818181818183" fill="none" stroke="#F4F2F3" stroke-width="2"/><path d="M 73.37500190734863,110.63636363636363 L 68.37500190734863,110.63636363636363" fill="none" stroke="#F4F2F3" stroke-width="2"/><path d="M 73.37500190734863,140.45454545454544 L 68.37500190734863,140.45454545454544" fill="none" stroke="#F4F2F3" stroke-width="2"/><path d="M 73.37500190734863,170.27272727272725 L 68.37500190734863,170.27272727272725" fill="none" stroke="#F4F2F3" stroke-width="2"/><path d="M 73.37500190734863,200.0909090909091 L 68.37500190734863,200.0909090909091" fill="none" stroke="#F4F2F3" stroke-width="2"/><path d="M 73.37500190734863,229.9090909090909 L 68.37500190734863,229.9090909090909" fill="none" stroke="#F4F2F3" stroke-width="2"/><path d="M 73.37500190734863,259.72727272727275 L 68.37500190734863,259.72727272727275" fill="none" stroke="#F4F2F3" stroke-width="2"/><path d="M 73.37500190734863,289.54545454545456 L 68.37500190734863,289.54545454545456" fill="none" stroke="#F4F2F3" stroke-width="2"/><path d="M 73.37500190734863,319.3636363636363 L 68.37500190734863,319.3636363636363" fill="none" stroke="#F4F2F3" stroke-width="2"/><path d="M 73.37500190734863,349.1818181818182 L 68.37500190734863,349.1818181818182" fill="none" stroke="#F4F2F3" stroke-width="2"/><path d="M 73.37500190734863,379 L 68.37500190734863,379" fill="none" stroke="#F4F2F3" stroke-width="2"/></g><g class="title"><text x="0" y="0" fill="#F4F2F3" font-size="16" dominant-baseline="text-before-edge" text-anchor="middle" transform="translate(5, 215) rotate(270)">.</text></g></g></g><g class="mermaid-tmp-group"/></svg>