<svg width="4456" height="2048" xmlns="http://www.w3.org/2000/svg" xmlns:xlink="http://www.w3.org/1999/xlink" xml:space="preserve" overflow="hidden"><g transform="translate(47 4)"><path d="M4.49997 20.0998C4.49997 10.3796 12.3797 2.4999 22.0998 2.4999L1250.9 2.4999C1260.62 2.4999 1268.5 10.3796 1268.5 20.0998L1268.5 160.9C1268.5 170.62 1260.62 178.5 1250.9 178.5L22.0998 178.5C12.3797 178.5 4.49997 170.62 4.49997 160.9Z" stroke="#FFFFFF" stroke-width="4.58333" stroke-miterlimit="8" fill="#B3CB2D" fill-rule="evenodd"/><text font-family="Calibri,Calibri_MSFontService,sans-serif" font-weight="400" font-size="96" transform="matrix(1 0 0 1 275.429 117)">Capacity</text><text font-family="Calibri,Calibri_MSFontService,sans-serif" font-weight="400" font-size="96" transform="matrix(1 0 0 1 629.904 117)">Group </text><text font-family="Calibri,Calibri_MSFontService,sans-serif" font-weight="400" font-size="96" transform="matrix(1 0 0 1 896.31 117)">-</text><text font-family="Calibri,Calibri_MSFontService,sans-serif" font-weight="400" font-size="96" transform="matrix(1 0 0 1 947.552 117)">1</text><path d="M4.49997 208.7C4.49997 201.41 10.4098 195.5 17.7 195.5L123.3 195.5C130.59 195.5 136.5 201.41 136.5 208.7L136.5 357.3C136.5 364.59 130.59 370.5 123.3 370.5L17.7 370.5C10.4098 370.5 4.49997 364.59 4.49997 357.3Z" stroke="#FFFFFF" stroke-width="4.58333" stroke-miterlimit="8" fill="#B3CB2D" fill-rule="evenodd"/><text font-family="Calibri,Calibri_MSFontService,sans-serif" font-weight="400" font-size="23" transform="matrix(1 0 0 1 31.7343 289)">Supplier</text><path d="M4.49997 400.7C4.49997 393.41 10.4098 387.5 17.7 387.5L123.3 387.5C130.59 387.5 136.5 393.41 136.5 400.7L136.5 549.3C136.5 556.59 130.59 562.5 123.3 562.5L17.7 562.5C10.4098 562.5 4.49997 556.59 4.49997 549.3Z" stroke="#FFFFFF" stroke-width="4.58333" stroke-miterlimit="8" fill="#B3CB2D" fill-rule="evenodd"/><text font-family="Calibri,Calibri_MSFontService,sans-serif" font-weight="400" font-size="23" transform="matrix(1 0 0 1 33.5253 468)">Inactive</text><text font-family="Calibri,Calibri_MSFontService,sans-serif" font-weight="400" font-size="23" transform="matrix(1 0 0 1 51.3544 493)">Flag</text><path d="M147.5 208.8C147.5 201.455 153.455 195.5 160.8 195.5L267.2 195.5C274.545 195.5 280.5 201.455 280.5 208.8L280.5 357.2C280.5 364.545 274.545 370.5 267.2 370.5L160.8 370.5C153.455 370.5 147.5 364.545 147.5 357.2Z" stroke="#FFFFFF" stroke-width="4.58333" stroke-miterlimit="8" fill="#B3CB2D" fill-rule="evenodd"/><text font-family="Calibri,Calibri_MSFontService,sans-serif" font-weight="400" font-size="23" transform="matrix(1 0 0 1 168.33 289)">Customer</text><path d="M147.5 400.8C147.5 393.454 153.455 387.5 160.8 387.5L267.2 387.5C274.545 387.5 280.5 393.454 280.5 400.8L280.5 549.2C280.5 556.545 274.545 562.5 267.2 562.5L160.8 562.5C153.455 562.5 147.5 556.545 147.5 549.2Z" stroke="#FFFFFF" stroke-width="4.58333" stroke-miterlimit="8" fill="#809500" fill-rule="evenodd"/><text fill="#FFFFFF" font-family="Calibri,Calibri_MSFontService,sans-serif" font-weight="400" font-size="23" transform="matrix(1 0 0 1 181.713 468)">Unit </text><text fill="#FFFFFF" font-family="Calibri,Calibri_MSFontService,sans-serif" font-weight="400" font-size="23" transform="matrix(1 0 0 1 226.561 468)">of</text><text fill="#FFFFFF" font-family="Calibri,Calibri_MSFontService,sans-serif" font-weight="400" font-size="23" transform="matrix(1 0 0 1 172.478 493)">Measure</text><path d="M291.5 208.7C291.5 201.41 297.41 195.5 304.7 195.5L410.3 195.5C417.59 195.5 423.5 201.41 423.5 208.7L423.5 357.3C423.5 364.59 417.59 370.5 410.3 370.5L304.7 370.5C297.41 370.5 291.5 364.59 291.5 357.3Z" stroke="#FFFFFF" stroke-width="4.58333" stroke-miterlimit="8" fill="#B3CB2D" fill-rule="evenodd"/><text font-family="Calibri,Calibri_MSFontService,sans-serif" font-weight="400" font-size="23" transform="matrix(1 0 0 1 317.629 276)">Capacity</text><text font-family="Calibri,Calibri_MSFontService,sans-serif" font-weight="400" font-size="23" transform="matrix(1 0 0 1 315.406 301)">Group ID</text><path d="M291.5 400.7C291.5 393.41 297.41 387.5 304.7 387.5L410.3 387.5C417.59 387.5 423.5 393.41 423.5 400.7L423.5 549.3C423.5 556.59 417.59 562.5 410.3 562.5L304.7 562.5C297.41 562.5 291.5 556.59 291.5 549.3Z" stroke="#FFFFFF" stroke-width="4.58333" stroke-miterlimit="8" fill="#B3CB2D" fill-rule="evenodd"/><text font-family="Calibri,Calibri_MSFontService,sans-serif" font-weight="400" font-size="23" transform="matrix(1 0 0 1 329.477 481)">Name</text><path d="M435.5 208.7C435.5 201.41 441.41 195.5 448.7 195.5L554.3 195.5C561.59 195.5 567.5 201.41 567.5 208.7L567.5 357.3C567.5 364.59 561.59 370.5 554.3 370.5L448.7 370.5C441.41 370.5 435.5 364.59 435.5 357.3Z" stroke="#FFFFFF" stroke-width="4.58333" stroke-miterlimit="8" fill="#B3CB2D" fill-rule="evenodd"/><text font-family="Calibri,Calibri_MSFontService,sans-serif" font-weight="400" font-size="23" transform="matrix(1 0 0 1 446.98 289)">Changed</text><text font-family="Calibri,Calibri_MSFontService,sans-serif" font-weight="400" font-size="23" transform="matrix(1 0 0 1 533.651 289)">At</text><path d="M578.5 213C578.5 203.335 586.335 195.5 596 195.5L1108 195.5C1117.67 195.5 1125.5 203.335 1125.5 213L1125.5 353C1125.5 362.665 1117.67 370.5 1108 370.5L596 370.5C586.335 370.5 578.5 362.665 578.5 353Z" stroke="#FFFFFF" stroke-width="4.58333" stroke-miterlimit="8" fill="#B3CB2D" fill-rule="evenodd"/><text font-family="Calibri,Calibri_MSFontService,sans-serif" font-weight="400" font-size="23" transform="matrix(1 0 0 1 780.483 289)">Calendar</text><text font-family="Calibri,Calibri_MSFontService,sans-serif" font-weight="400" font-size="23" transform="matrix(1 0 0 1 868.552 289)">Week</text><path d="M578.5 400.8C578.5 393.454 584.455 387.5 591.8 387.5L698.2 387.5C705.546 387.5 711.5 393.454 711.5 400.8L711.5 549.2C711.5 556.545 705.546 562.5 698.2 562.5L591.8 562.5C584.455 562.5 578.5 556.545 578.5 549.2Z" stroke="#FFFFFF" stroke-width="4.58333" stroke-miterlimit="8" fill="#B3CB2D" fill-rule="evenodd"/><text font-family="Calibri,Calibri_MSFontService,sans-serif" font-weight="400" font-size="23" transform="matrix(1 0 0 1 614.899 468)">Actual</text><text font-family="Calibri,Calibri_MSFontService,sans-serif" font-weight="400" font-size="23" transform="matrix(1 0 0 1 604.747 493)">Capacity</text><path d="M578.5 592.8C578.5 585.455 584.455 579.5 591.8 579.5L698.2 579.5C705.546 579.5 711.5 585.455 711.5 592.8L711.5 742.2C711.5 749.546 705.545 755.5 698.2 755.5L591.8 755.5C584.455 755.5 578.5 749.545 578.5 742.2Z" stroke="#FFFFFF" stroke-width="4.58333" stroke-miterlimit="8" fill="#B3CB2D" fill-rule="evenodd"/><text font-family="Calibri,Calibri_MSFontService,sans-serif" font-weight="400" font-size="23" transform="matrix(1 0 0 1 603.624 673)">Quantity</text><path d="M716.5 400.8C716.5 393.454 722.454 387.5 729.8 387.5L836.2 387.5C843.545 387.5 849.5 393.454 849.5 400.8L849.5 549.2C849.5 556.545 843.545 562.5 836.2 562.5L729.8 562.5C722.454 562.5 716.5 556.545 716.5 549.2Z" stroke="#FFFFFF" stroke-width="4.58333" stroke-miterlimit="8" fill="#B3CB2D" fill-rule="evenodd"/><text font-family="Calibri,Calibri_MSFontService,sans-serif" font-weight="400" font-size="23" transform="matrix(1 0 0 1 735.146 468)">Maximum </text><text font-family="Calibri,Calibri_MSFontService,sans-serif" font-weight="400" font-size="23" transform="matrix(1 0 0 1 742.755 493)">Capacity</text><path d="M716.5 592.8C716.5 585.455 722.455 579.5 729.8 579.5L836.2 579.5C843.545 579.5 849.5 585.455 849.5 592.8L849.5 742.2C849.5 749.546 843.545 755.5 836.2 755.5L729.8 755.5C722.455 755.5 716.5 749.545 716.5 742.2Z" stroke="#FFFFFF" stroke-width="4.58333" stroke-miterlimit="8" fill="#B3CB2D" fill-rule="evenodd"/><text font-family="Calibri,Calibri_MSFontService,sans-serif" font-weight="400" font-size="23" transform="matrix(1 0 0 1 741.62 673)">Quantity</text><path d="M854.5 400.8C854.5 393.454 860.455 387.5 867.8 387.5L974.2 387.5C981.546 387.5 987.5 393.454 987.5 400.8L987.5 549.2C987.5 556.545 981.546 562.5 974.2 562.5L867.8 562.5C860.455 562.5 854.5 556.545 854.5 549.2Z" stroke="#FFFFFF" stroke-width="4.58333" stroke-miterlimit="8" fill="#809500" fill-rule="evenodd"/><text fill="#FFFFFF" font-family="Calibri,Calibri_MSFontService,sans-serif" font-weight="400" font-size="23" transform="matrix(1 0 0 1 886.882 468)">Agreed</text><text fill="#FFFFFF" font-family="Calibri,Calibri_MSFontService,sans-serif" font-weight="400" font-size="23" transform="matrix(1 0 0 1 880.74 493)">Capacity</text><path d="M854.5 592.8C854.5 585.455 860.455 579.5 867.8 579.5L974.2 579.5C981.546 579.5 987.5 585.455 987.5 592.8L987.5 742.2C987.5 749.546 981.545 755.5 974.2 755.5L867.8 755.5C860.455 755.5 854.5 749.545 854.5 742.2Z" stroke="#FFFFFF" stroke-width="4.58333" stroke-miterlimit="8" fill="#809500" fill-rule="evenodd"/><text fill="#FFFFFF" font-family="Calibri,Calibri_MSFontService,sans-serif" font-weight="400" font-size="23" transform="matrix(1 0 0 1 879.617 673)">Quantity</text><path d="M992.5 400.8C992.5 393.454 998.454 387.5 1005.8 387.5L1112.2 387.5C1119.55 387.5 1125.5 393.454 1125.5 400.8L1125.5 549.2C1125.5 556.545 1119.55 562.5 1112.2 562.5L1005.8 562.5C998.454 562.5 992.5 556.545 992.5 549.2Z" stroke="#FFFFFF" stroke-width="4.58333" stroke-miterlimit="8" fill="#809500" fill-rule="evenodd"/><text fill="#FFFFFF" font-family="Calibri,Calibri_MSFontService,sans-serif" font-weight="400" font-size="23" transform="matrix(1 0 0 1 1033.63 468)">Delta </text><text fill="#FFFFFF" font-family="Calibri,Calibri_MSFontService,sans-serif" font-weight="400" font-size="23" transform="matrix(1 0 0 1 1006.98 493)">Production</text><path d="M992.5 592.8C992.5 585.455 998.455 579.5 1005.8 579.5L1112.2 579.5C1119.55 579.5 1125.5 585.455 1125.5 592.8L1125.5 742.2C1125.5 749.546 1119.55 755.5 1112.2 755.5L1005.8 755.5C998.455 755.5 992.5 749.545 992.5 742.2Z" stroke="#FFFFFF" stroke-width="4.58333" stroke-miterlimit="8" fill="#809500" fill-rule="evenodd"/><text fill="#FFFFFF" font-family="Calibri,Calibri_MSFontService,sans-serif" font-weight="400" font-size="23" transform="matrix(1 0 0 1 1017.61 673)">Quantity</text><path d="M1136.5 208.7C1136.5 201.41 1142.41 195.5 1149.7 195.5L1255.3 195.5C1262.59 195.5 1268.5 201.41 1268.5 208.7L1268.5 357.3C1268.5 364.59 1262.59 370.5 1255.3 370.5L1149.7 370.5C1142.41 370.5 1136.5 364.59 1136.5 357.3Z" stroke="#FFFFFF" stroke-width="4.58333" stroke-miterlimit="8" fill="#809500" fill-rule="evenodd"/><text fill="#FFFFFF" font-family="Calibri,Calibri_MSFontService,sans-serif" font-weight="400" font-size="23" transform="matrix(1 0 0 1 1171.51 264)">Linked</text><text fill="#FFFFFF" font-family="Calibri,Calibri_MSFontService,sans-serif" font-weight="400" font-size="23" transform="matrix(1 0 0 1 1162.3 289)">Capacity</text><text fill="#FFFFFF" font-family="Calibri,Calibri_MSFontService,sans-serif" font-weight="400" font-size="23" transform="matrix(1 0 0 1 1168.12 314)">Groups</text><path d="M1136.5 400.7C1136.5 393.41 1142.41 387.5 1149.7 387.5L1255.3 387.5C1262.59 387.5 1268.5 393.41 1268.5 400.7L1268.5 549.3C1268.5 556.59 1262.59 562.5 1255.3 562.5L1149.7 562.5C1142.41 562.5 1136.5 556.59 1136.5 549.3Z" stroke="#FF0000" stroke-width="4.58333" stroke-miterlimit="8" fill="#809500" fill-rule="evenodd"/><text fill="#FFFFFF" font-family="Calibri,Calibri_MSFontService,sans-serif" font-weight="400" font-size="23" transform="matrix(1 0 0 1 1162.3 468)">Capacity</text><text fill="#FFFFFF" font-family="Calibri,Calibri_MSFontService,sans-serif" font-weight="400" font-size="23" transform="matrix(1 0 0 1 1158.1 493)">Group </text><text fill="#FFFFFF" font-family="Calibri,Calibri_MSFontService,sans-serif" font-weight="400" font-size="23" transform="matrix(1 0 0 1 1221.88 493)">-</text><text fill="#FFFFFF" font-family="Calibri,Calibri_MSFontService,sans-serif" font-weight="400" font-size="23" transform="matrix(1 0 0 1 1234.07 493)">2</text><path d="M2723.5 1294C2723.5 1284.33 2731.33 1276.5 2741 1276.5L4389 1276.5C4398.67 1276.5 4406.5 1284.33 4406.5 1294L4406.5 1434C4406.5 1443.67 4398.67 1451.5 4389 1451.5L2741 1451.5C2731.33 1451.5 2723.5 1443.67 2723.5 1434Z" stroke="#FF0000" stroke-width="4.58333" stroke-miterlimit="8" fill="#B3CB2D" fill-rule="evenodd"/><text font-family="Calibri,Calibri_MSFontService,sans-serif" font-weight="400" font-size="96" transform="matrix(1 0 0 1 3204.26 1390)">Capacity</text><text font-family="Calibri,Calibri_MSFontService,sans-serif" font-weight="400" font-size="96" transform="matrix(1 0 0 1 3558.73 1390)">Group </text><text font-family="Calibri,Calibri_MSFontService,sans-serif" font-weight="400" font-size="96" transform="matrix(1 0 0 1 3825.14 1390)">-</text><text font-family="Calibri,Calibri_MSFontService,sans-serif" font-weight="400" font-size="96" transform="matrix(1 0 0 1 3876.38 1390)">3</text><path d="M2723.5 1485.8C2723.5 1478.45 2729.45 1472.5 2736.8 1472.5L2843.2 1472.5C2850.55 1472.5 2856.5 1478.45 2856.5 1485.8L2856.5 1634.2C2856.5 1641.55 2850.55 1647.5 2843.2 1647.5L2736.8 1647.5C2729.45 1647.5 2723.5 1641.55 2723.5 1634.2Z" stroke="#FFFFFF" stroke-width="4.58333" stroke-miterlimit="8" fill="#B3CB2D" fill-rule="evenodd"/><text font-family="Calibri,Calibri_MSFontService,sans-serif" font-weight="400" font-size="23" transform="matrix(1 0 0 1 2750.99 1566)">Supplier</text><path d="M2723.5 1682.8C2723.5 1675.45 2729.45 1669.5 2736.8 1669.5L2843.2 1669.5C2850.55 1669.5 2856.5 1675.45 2856.5 1682.8L2856.5 1831.2C2856.5 1838.55 2850.55 1844.5 2843.2 1844.5L2736.8 1844.5C2729.45 1844.5 2723.5 1838.55 2723.5 1831.2Z" stroke="#FFFFFF" stroke-width="4.58333" stroke-miterlimit="8" fill="#B3CB2D" fill-rule="evenodd"/><text font-family="Calibri,Calibri_MSFontService,sans-serif" font-weight="400" font-size="23" transform="matrix(1 0 0 1 2752.66 1750)">Inactive</text><text font-family="Calibri,Calibri_MSFontService,sans-serif" font-weight="400" font-size="23" transform="matrix(1 0 0 1 2770.49 1775)">Flag</text><path d="M2867.5 1485.8C2867.5 1478.45 2873.45 1472.5 2880.8 1472.5L2987.2 1472.5C2994.55 1472.5 3000.5 1478.45 3000.5 1485.8L3000.5 1634.2C3000.5 1641.55 2994.55 1647.5 2987.2 1647.5L2880.8 1647.5C2873.45 1647.5 2867.5 1641.55 2867.5 1634.2Z" stroke="#FFFFFF" stroke-width="4.58333" stroke-miterlimit="8" fill="#B3CB2D" fill-rule="evenodd"/><text font-family="Calibri,Calibri_MSFontService,sans-serif" font-weight="400" font-size="23" transform="matrix(1 0 0 1 2887.84 1566)">Customer</text><path d="M2867.5 1682.8C2867.5 1675.45 2873.45 1669.5 2880.8 1669.5L2987.2 1669.5C2994.55 1669.5 3000.5 1675.45 3000.5 1682.8L3000.5 1831.2C3000.5 1838.55 2994.55 1844.5 2987.2 1844.5L2880.8 1844.5C2873.45 1844.5 2867.5 1838.55 2867.5 1831.2Z" stroke="#FFFFFF" stroke-width="4.58333" stroke-miterlimit="8" fill="#809500" fill-rule="evenodd"/><text fill="#FFFFFF" font-family="Calibri,Calibri_MSFontService,sans-serif" font-weight="400" font-size="23" transform="matrix(1 0 0 1 2901.22 1750)">Unit </text><text fill="#FFFFFF" font-family="Calibri,Calibri_MSFontService,sans-serif" font-weight="400" font-size="23" transform="matrix(1 0 0 1 2946.07 1750)">of</text><text fill="#FFFFFF" font-family="Calibri,Calibri_MSFontService,sans-serif" font-weight="400" font-size="23" transform="matrix(1 0 0 1 2891.98 1775)">Measure</text><path d="M3011.5 1485.7C3011.5 1478.41 3017.41 1472.5 3024.7 1472.5L3130.3 1472.5C3137.59 1472.5 3143.5 1478.41 3143.5 1485.7L3143.5 1634.3C3143.5 1641.59 3137.59 1647.5 3130.3 1647.5L3024.7 1647.5C3017.41 1647.5 3011.5 1641.59 3011.5 1634.3Z" stroke="#FFFFFF" stroke-width="4.58333" stroke-miterlimit="8" fill="#B3CB2D" fill-rule="evenodd"/><text font-family="Calibri,Calibri_MSFontService,sans-serif" font-weight="400" font-size="23" transform="matrix(1 0 0 1 3037.5 1554)">Capacity</text><text font-family="Calibri,Calibri_MSFontService,sans-serif" font-weight="400" font-size="23" transform="matrix(1 0 0 1 3035.28 1579)">Group ID</text><path d="M3011.5 1682.7C3011.5 1675.41 3017.41 1669.5 3024.7 1669.5L3130.3 1669.5C3137.59 1669.5 3143.5 1675.41 3143.5 1682.7L3143.5 1831.3C3143.5 1838.59 3137.59 1844.5 3130.3 1844.5L3024.7 1844.5C3017.41 1844.5 3011.5 1838.59 3011.5 1831.3Z" stroke="#FFFFFF" stroke-width="4.58333" stroke-miterlimit="8" fill="#B3CB2D" fill-rule="evenodd"/><text font-family="Calibri,Calibri_MSFontService,sans-serif" font-weight="400" font-size="23" transform="matrix(1 0 0 1 3049.35 1763)">Name</text><path d="M3155.5 1485.7C3155.5 1478.41 3161.41 1472.5 3168.7 1472.5L3274.3 1472.5C3281.59 1472.5 3287.5 1478.41 3287.5 1485.7L3287.5 1634.3C3287.5 1641.59 3281.59 1647.5 3274.3 1647.5L3168.7 1647.5C3161.41 1647.5 3155.5 1641.59 3155.5 1634.3Z" stroke="#FFFFFF" stroke-width="4.58333" stroke-miterlimit="8" fill="#B3CB2D" fill-rule="evenodd"/><text font-family="Calibri,Calibri_MSFontService,sans-serif" font-weight="400" font-size="23" transform="matrix(1 0 0 1 3167.22 1566)">Changed</text><text font-family="Calibri,Calibri_MSFontService,sans-serif" font-weight="400" font-size="23" transform="matrix(1 0 0 1 3253.89 1566)">At</text><path d="M3299.5 1490C3299.5 1480.34 3307.34 1472.5 3317 1472.5L3829 1472.5C3838.67 1472.5 3846.5 1480.34 3846.5 1490L3846.5 1630C3846.5 1639.67 3838.67 1647.5 3829 1647.5L3317 1647.5C3307.34 1647.5 3299.5 1639.67 3299.5 1630Z" stroke="#FFFFFF" stroke-width="4.58333" stroke-miterlimit="8" fill="#B3CB2D" fill-rule="evenodd"/><text font-family="Calibri,Calibri_MSFontService,sans-serif" font-weight="400" font-size="23" transform="matrix(1 0 0 1 3501.62 1566)">Calendar</text><text font-family="Calibri,Calibri_MSFontService,sans-serif" font-weight="400" font-size="23" transform="matrix(1 0 0 1 3589.68 1566)">Week</text><path d="M3299.5 1682.7C3299.5 1675.41 3305.41 1669.5 3312.7 1669.5L3418.3 1669.5C3425.59 1669.5 3431.5 1675.41 3431.5 1682.7L3431.5 1831.3C3431.5 1838.59 3425.59 1844.5 3418.3 1844.5L3312.7 1844.5C3305.41 1844.5 3299.5 1838.59 3299.5 1831.3Z" stroke="#FFFFFF" stroke-width="4.58333" stroke-miterlimit="8" fill="#B3CB2D" fill-rule="evenodd"/><text font-family="Calibri,Calibri_MSFontService,sans-serif" font-weight="400" font-size="23" transform="matrix(1 0 0 1 3335.5 1750)">Actual</text><text font-family="Calibri,Calibri_MSFontService,sans-serif" font-weight="400" font-size="23" transform="matrix(1 0 0 1 3325.35 1775)">Capacity</text><path d="M3299.5 1879.7C3299.5 1872.41 3305.41 1866.5 3312.7 1866.5L3418.3 1866.5C3425.59 1866.5 3431.5 1872.41 3431.5 1879.7L3431.5 2028.3C3431.5 2035.59 3425.59 2041.5 3418.3 2041.5L3312.7 2041.5C3305.41 2041.5 3299.5 2035.59 3299.5 2028.3Z" stroke="#FFFFFF" stroke-width="4.58333" stroke-miterlimit="8" fill="#B3CB2D" fill-rule="evenodd"/><text font-family="Calibri,Calibri_MSFontService,sans-serif" font-weight="400" font-size="23" transform="matrix(1 0 0 1 3324.23 1960)">Quantity</text><path d="M3437.5 1682.8C3437.5 1675.45 3443.45 1669.5 3450.8 1669.5L3557.2 1669.5C3564.55 1669.5 3570.5 1675.45 3570.5 1682.8L3570.5 1831.2C3570.5 1838.55 3564.55 1844.5 3557.2 1844.5L3450.8 1844.5C3443.45 1844.5 3437.5 1838.55 3437.5 1831.2Z" stroke="#FFFFFF" stroke-width="4.58333" stroke-miterlimit="8" fill="#B3CB2D" fill-rule="evenodd"/><text font-family="Calibri,Calibri_MSFontService,sans-serif" font-weight="400" font-size="23" transform="matrix(1 0 0 1 3456.1 1750)">Maximum </text><text font-family="Calibri,Calibri_MSFontService,sans-serif" font-weight="400" font-size="23" transform="matrix(1 0 0 1 3463.71 1775)">Capacity</text><path d="M3437.5 1879.8C3437.5 1872.45 3443.45 1866.5 3450.8 1866.5L3557.2 1866.5C3564.55 1866.5 3570.5 1872.45 3570.5 1879.8L3570.5 2028.2C3570.5 2035.55 3564.55 2041.5 3557.2 2041.5L3450.8 2041.5C3443.45 2041.5 3437.5 2035.55 3437.5 2028.2Z" stroke="#FFFFFF" stroke-width="4.58333" stroke-miterlimit="8" fill="#B3CB2D" fill-rule="evenodd"/><text font-family="Calibri,Calibri_MSFontService,sans-serif" font-weight="400" font-size="23" transform="matrix(1 0 0 1 3462.58 1960)">Quantity</text><path d="M3575.5 1682.8C3575.5 1675.45 3581.45 1669.5 3588.8 1669.5L3695.2 1669.5C3702.55 1669.5 3708.5 1675.45 3708.5 1682.8L3708.5 1831.2C3708.5 1838.55 3702.55 1844.5 3695.2 1844.5L3588.8 1844.5C3581.45 1844.5 3575.5 1838.55 3575.5 1831.2Z" stroke="#FFFFFF" stroke-width="4.58333" stroke-miterlimit="8" fill="#809500" fill-rule="evenodd"/><text fill="#FFFFFF" font-family="Calibri,Calibri_MSFontService,sans-serif" font-weight="400" font-size="23" transform="matrix(1 0 0 1 3608.19 1750)">Agreed</text><text fill="#FFFFFF" font-family="Calibri,Calibri_MSFontService,sans-serif" font-weight="400" font-size="23" transform="matrix(1 0 0 1 3602.05 1775)">Capacity</text><path d="M3575.5 1879.8C3575.5 1872.45 3581.45 1866.5 3588.8 1866.5L3695.2 1866.5C3702.55 1866.5 3708.5 1872.45 3708.5 1879.8L3708.5 2028.2C3708.5 2035.55 3702.55 2041.5 3695.2 2041.5L3588.8 2041.5C3581.45 2041.5 3575.5 2035.55 3575.5 2028.2Z" stroke="#FFFFFF" stroke-width="4.58333" stroke-miterlimit="8" fill="#809500" fill-rule="evenodd"/><text fill="#FFFFFF" font-family="Calibri,Calibri_MSFontService,sans-serif" font-weight="400" font-size="23" transform="matrix(1 0 0 1 3600.93 1960)">Quantity</text><path d="M3714.5 1682.7C3714.5 1675.41 3720.41 1669.5 3727.7 1669.5L3833.3 1669.5C3840.59 1669.5 3846.5 1675.41 3846.5 1682.7L3846.5 1831.3C3846.5 1838.59 3840.59 1844.5 3833.3 1844.5L3727.7 1844.5C3720.41 1844.5 3714.5 1838.59 3714.5 1831.3Z" stroke="#FFFFFF" stroke-width="4.58333" stroke-miterlimit="8" fill="#809500" fill-rule="evenodd"/><text fill="#FFFFFF" font-family="Calibri,Calibri_MSFontService,sans-serif" font-weight="400" font-size="23" transform="matrix(1 0 0 1 3755.29 1750)">Delta </text><text fill="#FFFFFF" font-family="Calibri,Calibri_MSFontService,sans-serif" font-weight="400" font-size="23" transform="matrix(1 0 0 1 3728.64 1775)">Production</text><path d="M3714.5 1879.7C3714.5 1872.41 3720.41 1866.5 3727.7 1866.5L3833.3 1866.5C3840.59 1866.5 3846.5 1872.41 3846.5 1879.7L3846.5 2028.3C3846.5 2035.59 3840.59 2041.5 3833.3 2041.5L3727.7 2041.5C3720.41 2041.5 3714.5 2035.59 3714.5 2028.3Z" stroke="#FFFFFF" stroke-width="4.58333" stroke-miterlimit="8" fill="#809500" fill-rule="evenodd"/><text fill="#FFFFFF" font-family="Calibri,Calibri_MSFontService,sans-serif" font-weight="400" font-size="23" transform="matrix(1 0 0 1 3739.27 1960)">Quantity</text><path d="M3858.5 1490C3858.5 1480.34 3866.33 1472.5 3876 1472.5L4388 1472.5C4397.67 1472.5 4405.5 1480.34 4405.5 1490L4405.5 1630C4405.5 1639.67 4397.67 1647.5 4388 1647.5L3876 1647.5C3866.33 1647.5 3858.5 1639.67 3858.5 1630Z" stroke="#FFFFFF" stroke-width="4.58333" stroke-miterlimit="8" fill="#F2A506" fill-rule="evenodd"/><text font-family="Calibri,Calibri_MSFontService,sans-serif" font-weight="400" font-size="23" transform="matrix(1 0 0 1 4028.68 1566)">Linked</text><text font-family="Calibri,Calibri_MSFontService,sans-serif" font-weight="400" font-size="23" transform="matrix(1 0 0 1 4094.63 1566)">Demand Series</text><path d="M3858.5 1682.7C3858.5 1675.41 3864.41 1669.5 3871.7 1669.5L3977.3 1669.5C3984.59 1669.5 3990.5 1675.41 3990.5 1682.7L3990.5 1831.3C3990.5 1838.59 3984.59 1844.5 3977.3 1844.5L3871.7 1844.5C3864.41 1844.5 3858.5 1838.59 3858.5 1831.3Z" stroke="#FFFFFF" stroke-width="4.58333" stroke-miterlimit="8" fill="#F2A506" fill-rule="evenodd"/><text font-family="Calibri,Calibri_MSFontService,sans-serif" font-weight="400" font-size="23" transform="matrix(1 0 0 1 3878.58 1738)">Customer </text><text font-family="Calibri,Calibri_MSFontService,sans-serif" font-weight="400" font-size="23" transform="matrix(1 0 0 1 3884.36 1763)">Material </text><text font-family="Calibri,Calibri_MSFontService,sans-serif" font-weight="400" font-size="23" transform="matrix(1 0 0 1 3885.64 1788)">Number</text><path d="M3996.5 1682.8C3996.5 1675.45 4002.45 1669.5 4009.8 1669.5L4116.2 1669.5C4123.55 1669.5 4129.5 1675.45 4129.5 1682.8L4129.5 1831.2C4129.5 1838.55 4123.55 1844.5 4116.2 1844.5L4009.8 1844.5C4002.45 1844.5 3996.5 1838.55 3996.5 1831.2Z" stroke="#FFFFFF" stroke-width="4.58333" stroke-miterlimit="8" fill="#F2A506" fill-rule="evenodd"/><text font-family="Calibri,Calibri_MSFontService,sans-serif" font-weight="400" font-size="23" transform="matrix(1 0 0 1 4022.84 1750)">Demand </text><text font-family="Calibri,Calibri_MSFontService,sans-serif" font-weight="400" font-size="23" transform="matrix(1 0 0 1 4020.51 1775)">Category</text><path d="M4134.5 1682.8C4134.5 1675.45 4140.45 1669.5 4147.8 1669.5L4254.2 1669.5C4261.55 1669.5 4267.5 1675.45 4267.5 1682.8L4267.5 1831.2C4267.5 1838.55 4261.55 1844.5 4254.2 1844.5L4147.8 1844.5C4140.45 1844.5 4134.5 1838.55 4134.5 1831.2Z" stroke="#FFFFFF" stroke-width="4.58333" stroke-miterlimit="8" fill="#F2A506" fill-rule="evenodd"/><text font-family="Calibri,Calibri_MSFontService,sans-serif" font-weight="400" font-size="23" transform="matrix(1 0 0 1 4155.28 1750)">Customer </text><text font-family="Calibri,Calibri_MSFontService,sans-serif" font-weight="400" font-size="23" transform="matrix(1 0 0 1 4160.92 1775)">Location</text><path d="M4273.5 1682.7C4273.5 1675.41 4279.41 1669.5 4286.7 1669.5L4392.3 1669.5C4399.59 1669.5 4405.5 1675.41 4405.5 1682.7L4405.5 1831.3C4405.5 1838.59 4399.59 1844.5 4392.3 1844.5L4286.7 1844.5C4279.41 1844.5 4273.5 1838.59 4273.5 1831.3Z" stroke="#FFFFFF" stroke-width="4.58333" stroke-miterlimit="8" fill="#BF7100" fill-rule="evenodd"/><text fill="#FFFFFF" font-family="Calibri,Calibri_MSFontService,sans-serif" font-weight="400" font-size="23" transform="matrix(1 0 0 1 4284.55 1763)">Load </text><text fill="#FFFFFF" font-family="Calibri,Calibri_MSFontService,sans-serif" font-weight="400" font-size="23" transform="matrix(1 0 0 1 4334.44 1763)">Factor</text><path d="M1391.5 658C1391.5 648.335 1399.34 640.5 1409 640.5L2638 640.5C2647.66 640.5 2655.5 648.335 2655.5 658L2655.5 798C2655.5 807.665 2647.66 815.5 2638 815.5L1409 815.5C1399.34 815.5 1391.5 807.665 1391.5 798Z" stroke="#FF0000" stroke-width="4.58333" stroke-miterlimit="8" fill="#B3CB2D" fill-rule="evenodd"/><text font-family="Calibri,Calibri_MSFontService,sans-serif" font-weight="400" font-size="96" transform="matrix(1 0 0 1 1662.36 755)">Capacity</text><text font-family="Calibri,Calibri_MSFontService,sans-serif" font-weight="400" font-size="96" transform="matrix(1 0 0 1 2016.84 755)">Group </text><text font-family="Calibri,Calibri_MSFontService,sans-serif" font-weight="400" font-size="96" transform="matrix(1 0 0 1 2283.25 755)">-</text><text font-family="Calibri,Calibri_MSFontService,sans-serif" font-weight="400" font-size="96" transform="matrix(1 0 0 1 2334.49 755)">2</text><path d="M1391.5 845.7C1391.5 838.41 1397.41 832.5 1404.7 832.5L1510.3 832.5C1517.59 832.5 1523.5 838.41 1523.5 845.7L1523.5 995.3C1523.5 1002.59 1517.59 1008.5 1510.3 1008.5L1404.7 1008.5C1397.41 1008.5 1391.5 1002.59 1391.5 995.3Z" stroke="#FFFFFF" stroke-width="4.58333" stroke-miterlimit="8" fill="#B3CB2D" fill-rule="evenodd"/><text font-family="Calibri,Calibri_MSFontService,sans-serif" font-weight="400" font-size="23" transform="matrix(1 0 0 1 1418.78 926)">Supplier</text><path d="M1391.5 1037.7C1391.5 1030.41 1397.41 1024.5 1404.7 1024.5L1510.3 1024.5C1517.59 1024.5 1523.5 1030.41 1523.5 1037.7L1523.5 1187.3C1523.5 1194.59 1517.59 1200.5 1510.3 1200.5L1404.7 1200.5C1397.41 1200.5 1391.5 1194.59 1391.5 1187.3Z" stroke="#FFFFFF" stroke-width="4.58333" stroke-miterlimit="8" fill="#B3CB2D" fill-rule="evenodd"/><text font-family="Calibri,Calibri_MSFontService,sans-serif" font-weight="400" font-size="23" transform="matrix(1 0 0 1 1420.46 1106)">Inactive</text><text font-family="Calibri,Calibri_MSFontService,sans-serif" font-weight="400" font-size="23" transform="matrix(1 0 0 1 1438.29 1131)">Flag</text><path d="M1534.5 845.8C1534.5 838.455 1540.45 832.5 1547.8 832.5L1654.2 832.5C1661.55 832.5 1667.5 838.455 1667.5 845.8L1667.5 995.2C1667.5 1002.55 1661.55 1008.5 1654.2 1008.5L1547.8 1008.5C1540.45 1008.5 1534.5 1002.55 1534.5 995.2Z" stroke="#FFFFFF" stroke-width="4.58333" stroke-miterlimit="8" fill="#B3CB2D" fill-rule="evenodd"/><text font-family="Calibri,Calibri_MSFontService,sans-serif" font-weight="400" font-size="23" transform="matrix(1 0 0 1 1555.26 926)">Customer</text><path d="M1534.5 1037.8C1534.5 1030.45 1540.45 1024.5 1547.8 1024.5L1654.2 1024.5C1661.55 1024.5 1667.5 1030.45 1667.5 1037.8L1667.5 1187.2C1667.5 1194.55 1661.55 1200.5 1654.2 1200.5L1547.8 1200.5C1540.45 1200.5 1534.5 1194.55 1534.5 1187.2Z" stroke="#FFFFFF" stroke-width="4.58333" stroke-miterlimit="8" fill="#809500" fill-rule="evenodd"/><text fill="#FFFFFF" font-family="Calibri,Calibri_MSFontService,sans-serif" font-weight="400" font-size="23" transform="matrix(1 0 0 1 1568.64 1106)">Unit </text><text fill="#FFFFFF" font-family="Calibri,Calibri_MSFontService,sans-serif" font-weight="400" font-size="23" transform="matrix(1 0 0 1 1613.49 1106)">of</text><text fill="#FFFFFF" font-family="Calibri,Calibri_MSFontService,sans-serif" font-weight="400" font-size="23" transform="matrix(1 0 0 1 1559.41 1131)">Measure</text><path d="M1678.5 845.7C1678.5 838.41 1684.41 832.5 1691.7 832.5L1797.3 832.5C1804.59 832.5 1810.5 838.41 1810.5 845.7L1810.5 995.3C1810.5 1002.59 1804.59 1008.5 1797.3 1008.5L1691.7 1008.5C1684.41 1008.5 1678.5 1002.59 1678.5 995.3Z" stroke="#FFFFFF" stroke-width="4.58333" stroke-miterlimit="8" fill="#B3CB2D" fill-rule="evenodd"/><text font-family="Calibri,Calibri_MSFontService,sans-serif" font-weight="400" font-size="23" transform="matrix(1 0 0 1 1704.56 914)">Capacity</text><text font-family="Calibri,Calibri_MSFontService,sans-serif" font-weight="400" font-size="23" transform="matrix(1 0 0 1 1702.34 939)">Group ID</text><path d="M1678.5 1037.7C1678.5 1030.41 1684.41 1024.5 1691.7 1024.5L1797.3 1024.5C1804.59 1024.5 1810.5 1030.41 1810.5 1037.7L1810.5 1187.3C1810.5 1194.59 1804.59 1200.5 1797.3 1200.5L1691.7 1200.5C1684.41 1200.5 1678.5 1194.59 1678.5 1187.3Z" stroke="#FFFFFF" stroke-width="4.58333" stroke-miterlimit="8" fill="#B3CB2D" fill-rule="evenodd"/><text font-family="Calibri,Calibri_MSFontService,sans-serif" font-weight="400" font-size="23" transform="matrix(1 0 0 1 1716.41 1118)">Name</text><path d="M1822.5 845.7C1822.5 838.41 1828.41 832.5 1835.7 832.5L1941.3 832.5C1948.59 832.5 1954.5 838.41 1954.5 845.7L1954.5 995.3C1954.5 1002.59 1948.59 1008.5 1941.3 1008.5L1835.7 1008.5C1828.41 1008.5 1822.5 1002.59 1822.5 995.3Z" stroke="#FFFFFF" stroke-width="4.58333" stroke-miterlimit="8" fill="#B3CB2D" fill-rule="evenodd"/><text font-family="Calibri,Calibri_MSFontService,sans-serif" font-weight="400" font-size="23" transform="matrix(1 0 0 1 1833.91 926)">Changed</text><text font-family="Calibri,Calibri_MSFontService,sans-serif" font-weight="400" font-size="23" transform="matrix(1 0 0 1 1920.58 926)">At</text><path d="M1965.5 850.1C1965.5 840.38 1973.38 832.5 1983.1 832.5L2493.9 832.5C2503.62 832.5 2511.5 840.38 2511.5 850.1L2511.5 990.9C2511.5 1000.62 2503.62 1008.5 2493.9 1008.5L1983.1 1008.5C1973.38 1008.5 1965.5 1000.62 1965.5 990.9Z" stroke="#FFFFFF" stroke-width="4.58333" stroke-miterlimit="8" fill="#B3CB2D" fill-rule="evenodd"/><text font-family="Calibri,Calibri_MSFontService,sans-serif" font-weight="400" font-size="23" transform="matrix(1 0 0 1 2167.41 926)">Calendar</text><text font-family="Calibri,Calibri_MSFontService,sans-serif" font-weight="400" font-size="23" transform="matrix(1 0 0 1 2255.48 926)">Week</text><path d="M1965.5 1037.7C1965.5 1030.41 1971.41 1024.5 1978.7 1024.5L2084.3 1024.5C2091.59 1024.5 2097.5 1030.41 2097.5 1037.7L2097.5 1187.3C2097.5 1194.59 2091.59 1200.5 2084.3 1200.5L1978.7 1200.5C1971.41 1200.5 1965.5 1194.59 1965.5 1187.3Z" stroke="#FFFFFF" stroke-width="4.58333" stroke-miterlimit="8" fill="#B3CB2D" fill-rule="evenodd"/><text font-family="Calibri,Calibri_MSFontService,sans-serif" font-weight="400" font-size="23" transform="matrix(1 0 0 1 2001.83 1106)">Actual</text><text font-family="Calibri,Calibri_MSFontService,sans-serif" font-weight="400" font-size="23" transform="matrix(1 0 0 1 1991.68 1131)">Capacity</text><path d="M1965.5 1229.7C1965.5 1222.41 1971.41 1216.5 1978.7 1216.5L2084.3 1216.5C2091.59 1216.5 2097.5 1222.41 2097.5 1229.7L2097.5 1379.3C2097.5 1386.59 2091.59 1392.5 2084.3 1392.5L1978.7 1392.5C1971.41 1392.5 1965.5 1386.59 1965.5 1379.3Z" stroke="#FFFFFF" stroke-width="4.58333" stroke-miterlimit="8" fill="#B3CB2D" fill-rule="evenodd"/><text font-family="Calibri,Calibri_MSFontService,sans-serif" font-weight="400" font-size="23" transform="matrix(1 0 0 1 1990.55 1310)">Quantity</text><path d="M2103.5 1037.7C2103.5 1030.41 2109.41 1024.5 2116.7 1024.5L2222.3 1024.5C2229.59 1024.5 2235.5 1030.41 2235.5 1037.7L2235.5 1187.3C2235.5 1194.59 2229.59 1200.5 2222.3 1200.5L2116.7 1200.5C2109.41 1200.5 2103.5 1194.59 2103.5 1187.3Z" stroke="#FFFFFF" stroke-width="4.58333" stroke-miterlimit="8" fill="#B3CB2D" fill-rule="evenodd"/><text font-family="Calibri,Calibri_MSFontService,sans-serif" font-weight="400" font-size="23" transform="matrix(1 0 0 1 2122.08 1106)">Maximum </text><text font-family="Calibri,Calibri_MSFontService,sans-serif" font-weight="400" font-size="23" transform="matrix(1 0 0 1 2129.69 1131)">Capacity</text><path d="M2103.5 1229.7C2103.5 1222.41 2109.41 1216.5 2116.7 1216.5L2222.3 1216.5C2229.59 1216.5 2235.5 1222.41 2235.5 1229.7L2235.5 1379.3C2235.5 1386.59 2229.59 1392.5 2222.3 1392.5L2116.7 1392.5C2109.41 1392.5 2103.5 1386.59 2103.5 1379.3Z" stroke="#FFFFFF" stroke-width="4.58333" stroke-miterlimit="8" fill="#B3CB2D" fill-rule="evenodd"/><text font-family="Calibri,Calibri_MSFontService,sans-serif" font-weight="400" font-size="23" transform="matrix(1 0 0 1 2128.55 1310)">Quantity</text><path d="M2241.5 1037.7C2241.5 1030.41 2247.41 1024.5 2254.7 1024.5L2360.3 1024.5C2367.59 1024.5 2373.5 1030.41 2373.5 1037.7L2373.5 1187.3C2373.5 1194.59 2367.59 1200.5 2360.3 1200.5L2254.7 1200.5C2247.41 1200.5 2241.5 1194.59 2241.5 1187.3Z" stroke="#FFFFFF" stroke-width="4.58333" stroke-miterlimit="8" fill="#809500" fill-rule="evenodd"/><text fill="#FFFFFF" font-family="Calibri,Calibri_MSFontService,sans-serif" font-weight="400" font-size="23" transform="matrix(1 0 0 1 2273.81 1106)">Agreed</text><text fill="#FFFFFF" font-family="Calibri,Calibri_MSFontService,sans-serif" font-weight="400" font-size="23" transform="matrix(1 0 0 1 2267.67 1131)">Capacity</text><path d="M2241.5 1229.7C2241.5 1222.41 2247.41 1216.5 2254.7 1216.5L2360.3 1216.5C2367.59 1216.5 2373.5 1222.41 2373.5 1229.7L2373.5 1379.3C2373.5 1386.59 2367.59 1392.5 2360.3 1392.5L2254.7 1392.5C2247.41 1392.5 2241.5 1386.59 2241.5 1379.3Z" stroke="#FFFFFF" stroke-width="4.58333" stroke-miterlimit="8" fill="#809500" fill-rule="evenodd"/><text fill="#FFFFFF" font-family="Calibri,Calibri_MSFontService,sans-serif" font-weight="400" font-size="23" transform="matrix(1 0 0 1 2266.55 1310)">Quantity</text><path d="M2379.5 1037.7C2379.5 1030.41 2385.41 1024.5 2392.7 1024.5L2498.3 1024.5C2505.59 1024.5 2511.5 1030.41 2511.5 1037.7L2511.5 1187.3C2511.5 1194.59 2505.59 1200.5 2498.3 1200.5L2392.7 1200.5C2385.41 1200.5 2379.5 1194.59 2379.5 1187.3Z" stroke="#FFFFFF" stroke-width="4.58333" stroke-miterlimit="8" fill="#809500" fill-rule="evenodd"/><text fill="#FFFFFF" font-family="Calibri,Calibri_MSFontService,sans-serif" font-weight="400" font-size="23" transform="matrix(1 0 0 1 2420.56 1106)">Delta </text><text fill="#FFFFFF" font-family="Calibri,Calibri_MSFontService,sans-serif" font-weight="400" font-size="23" transform="matrix(1 0 0 1 2393.91 1131)">Production</text><path d="M2379.5 1229.7C2379.5 1222.41 2385.41 1216.5 2392.7 1216.5L2498.3 1216.5C2505.59 1216.5 2511.5 1222.41 2511.5 1229.7L2511.5 1379.3C2511.5 1386.59 2505.59 1392.5 2498.3 1392.5L2392.7 1392.5C2385.41 1392.5 2379.5 1386.59 2379.5 1379.3Z" stroke="#FFFFFF" stroke-width="4.58333" stroke-miterlimit="8" fill="#809500" fill-rule="evenodd"/><text fill="#FFFFFF" font-family="Calibri,Calibri_MSFontService,sans-serif" font-weight="400" font-size="23" transform="matrix(1 0 0 1 2404.54 1310)">Quantity</text><path d="M2523.5 845.7C2523.5 838.41 2529.41 832.5 2536.7 832.5L2642.3 832.5C2649.59 832.5 2655.5 838.41 2655.5 845.7L2655.5 995.3C2655.5 1002.59 2649.59 1008.5 2642.3 1008.5L2536.7 1008.5C2529.41 1008.5 2523.5 1002.59 2523.5 995.3Z" stroke="#FFFFFF" stroke-width="4.58333" stroke-miterlimit="8" fill="#809500" fill-rule="evenodd"/><text fill="#FFFFFF" font-family="Calibri,Calibri_MSFontService,sans-serif" font-weight="400" font-size="23" transform="matrix(1 0 0 1 2558.44 901)">Linked</text><text fill="#FFFFFF" font-family="Calibri,Calibri_MSFontService,sans-serif" font-weight="400" font-size="23" transform="matrix(1 0 0 1 2549.23 926)">Capacity</text><text fill="#FFFFFF" font-family="Calibri,Calibri_MSFontService,sans-serif" font-weight="400" font-size="23" transform="matrix(1 0 0 1 2555.05 951)">Groups</text><path d="M2523.5 1037.7C2523.5 1030.41 2529.41 1024.5 2536.7 1024.5L2642.3 1024.5C2649.59 1024.5 2655.5 1030.41 2655.5 1037.7L2655.5 1187.3C2655.5 1194.59 2649.59 1200.5 2642.3 1200.5L2536.7 1200.5C2529.41 1200.5 2523.5 1194.59 2523.5 1187.3Z" stroke="#FF0000" stroke-width="4.58333" stroke-miterlimit="8" fill="#809500" fill-rule="evenodd"/><text fill="#FFFFFF" font-family="Calibri,Calibri_MSFontService,sans-serif" font-weight="400" font-size="23" transform="matrix(1 0 0 1 2549.23 1106)">Capacity</text><text fill="#FFFFFF" font-family="Calibri,Calibri_MSFontService,sans-serif" font-weight="400" font-size="23" transform="matrix(1 0 0 1 2545.03 1131)">Group </text><text fill="#FFFFFF" font-family="Calibri,Calibri_MSFontService,sans-serif" font-weight="400" font-size="23" transform="matrix(1 0 0 1 2608.81 1131)">-</text><text fill="#FFFFFF" font-family="Calibri,Calibri_MSFontService,sans-serif" font-weight="400" font-size="23" transform="matrix(1 0 0 1 2621 1131)">3</text><path d="M2694 1088 3557.56 1088C3599.85 1088 3634.13 1122.28 3634.13 1164.56L3634.12 1219.25 3656 1219.25 3612.25 1263 3568.5 1219.25 3590.38 1219.25 3590.38 1164.56C3590.38 1146.44 3575.68 1131.75 3557.56 1131.75L2694 1131.75Z" fill="#B3CB2D" fill-rule="evenodd"/><path d="M1290 464 2035.58 464C2077.85 464 2112.13 498.273 2112.13 540.552L2112.13 595.232 2134 595.232 2090.26 638.975 2046.51 595.232 2068.38 595.232 2068.38 540.552C2068.38 522.433 2053.7 507.744 2035.58 507.744L1290 507.744Z" fill="#B3CB2D" fill-rule="evenodd"/><text fill="#E7E6E6" font-family="Manrope ExtraBold,Manrope ExtraBold_MSFontService,sans-serif" font-weight="800" font-size="83" transform="matrix(1 0 0 1 2.8727 1739)">Legend</text><path d="M3.49993 1835.3C3.49993 1822.71 13.7078 1812.5 26.2999 1812.5L230.7 1812.5C243.292 1812.5 253.5 1822.71 253.5 1835.3L253.5 2017.7C253.5 2030.29 243.292 2040.5 230.7 2040.5L26.2999 2040.5C13.7078 2040.5 3.49993 2030.29 3.49993 2017.7Z" stroke="#FFFFFF" stroke-width="4.58333" stroke-miterlimit="8" fill="#B3CB2D" fill-rule="evenodd"/><text font-family="Calibri,Calibri_MSFontService,sans-serif" font-weight="400" font-size="46" transform="matrix(1 0 0 1 48.7598 1889)">Capacity</text><text font-family="Calibri,Calibri_MSFontService,sans-serif" font-weight="400" font-size="46" transform="matrix(1 0 0 1 57.1473 1939)">Group </text><text font-family="Calibri,Calibri_MSFontService,sans-serif" font-weight="400" font-size="46" transform="matrix(1 0 0 1 184.747 1939)">-</text><text font-family="Calibri,Calibri_MSFontService,sans-serif" font-weight="400" font-size="46" transform="matrix(1 0 0 1 25.4994 1990)">mandatory</text><path d="M293.5 1835.3C293.5 1822.71 303.708 1812.5 316.3 1812.5L520.7 1812.5C533.292 1812.5 543.5 1822.71 543.5 1835.3L543.5 2017.7C543.5 2030.29 533.292 2040.5 520.7 2040.5L316.3 2040.5C303.708 2040.5 293.5 2030.29 293.5 2017.7Z" stroke="#FFFFFF" stroke-width="4.58333" stroke-miterlimit="8" fill="#7E9303" fill-rule="evenodd"/><text fill="#FFFFFF" font-family="Calibri,Calibri_MSFontService,sans-serif" font-weight="400" font-size="46" transform="matrix(1 0 0 1 338.556 1889)">Capacity</text><text fill="#FFFFFF" font-family="Calibri,Calibri_MSFontService,sans-serif" font-weight="400" font-size="46" transform="matrix(1 0 0 1 346.944 1939)">Group </text><text fill="#FFFFFF" font-family="Calibri,Calibri_MSFontService,sans-serif" font-weight="400" font-size="46" transform="matrix(1 0 0 1 474.544 1939)">-</text><text fill="#FFFFFF" font-family="Calibri,Calibri_MSFontService,sans-serif" font-weight="400" font-size="46" transform="matrix(1 0 0 1 340.321 1990)">optional</text><path d="M585.5 1835.3C585.5 1822.71 595.708 1812.5 608.3 1812.5L812.7 1812.5C825.292 1812.5 835.5 1822.71 835.5 1835.3L835.5 2017.7C835.5 2030.29 825.292 2040.5 812.7 2040.5L608.3 2040.5C595.708 2040.5 585.5 2030.29 585.5 2017.7Z" stroke="#FFFFFF" stroke-width="4.58333" stroke-miterlimit="8" fill="#F2A506" fill-rule="evenodd"/><text font-family="Calibri,Calibri_MSFontService,sans-serif" font-weight="400" font-size="46" transform="matrix(1 0 0 1 630.853 1889)">Material </text><text font-family="Calibri,Calibri_MSFontService,sans-serif" font-weight="400" font-size="46" transform="matrix(1 0 0 1 618.936 1939)">Demand </text><text font-family="Calibri,Calibri_MSFontService,sans-serif" font-weight="400" font-size="46" transform="matrix(1 0 0 1 787.03 1939)">-</text><text font-family="Calibri,Calibri_MSFontService,sans-serif" font-weight="400" font-size="46" transform="matrix(1 0 0 1 607.524 1990)">mandatory</text><path d="M877.5 1835.3C877.5 1822.71 887.708 1812.5 900.3 1812.5L1104.7 1812.5C1117.29 1812.5 1127.5 1822.71 1127.5 1835.3L1127.5 2017.7C1127.5 2030.29 1117.29 2040.5 1104.7 2040.5L900.3 2040.5C887.708 2040.5 877.5 2030.29 877.5 2017.7Z" stroke="#FFFFFF" stroke-width="4.58333" stroke-miterlimit="8" fill="#BF7100" fill-rule="evenodd"/><text fill="#FFFFFF" font-family="Calibri,Calibri_MSFontService,sans-serif" font-weight="400" font-size="46" transform="matrix(1 0 0 1 923.081 1889)">Material </text><text fill="#FFFFFF" font-family="Calibri,Calibri_MSFontService,sans-serif" font-weight="400" font-size="46" transform="matrix(1 0 0 1 911.164 1939)">Demand </text><text fill="#FFFFFF" font-family="Calibri,Calibri_MSFontService,sans-serif" font-weight="400" font-size="46" transform="matrix(1 0 0 1 1079.26 1939)">-</text><text fill="#FFFFFF" font-family="Calibri,Calibri_MSFontService,sans-serif" font-weight="400" font-size="46" transform="matrix(1 0 0 1 924.777 1990)">optional</text></g></svg>