<svg width="2766" height="726" xmlns="http://www.w3.org/2000/svg" xmlns:xlink="http://www.w3.org/1999/xlink" xml:space="preserve" overflow="hidden"><g transform="translate(-758 -1037)"><path d="M759.5 1049C759.5 1043.2 764.201 1038.5 770 1038.5L3512 1038.5C3517.8 1038.5 3522.5 1043.2 3522.5 1049L3522.5 1091C3522.5 1096.8 3517.8 1101.5 3512 1101.5L770 1101.5C764.201 1101.5 759.5 1096.8 759.5 1091Z" stroke="#FFFFFF" stroke-width="3.4375" stroke-miterlimit="8" fill="#B3CB2D" fill-rule="evenodd"/><text font-family="Calibri,Calibri_MSFontService,sans-serif" font-weight="400" font-size="32" transform="matrix(1 0 0 1 1953.67 1080)">Capacity Group “Paint Shop”</text><path d="M759.5 1127C759.5 1121.2 764.201 1116.5 770 1116.5L2124 1116.5C2129.8 1116.5 2134.5 1121.2 2134.5 1127L2134.5 1169C2134.5 1174.8 2129.8 1179.5 2124 1179.5L770 1179.5C764.201 1179.5 759.5 1174.8 759.5 1169Z" stroke="#FFFFFF" stroke-width="3.4375" stroke-miterlimit="8" stroke-dasharray="13.75 10.3125" fill="#617000" fill-rule="evenodd"/><text fill="#FFFFFF" font-family="Calibri,Calibri_MSFontService,sans-serif" font-weight="400" font-size="32" transform="matrix(1 0 0 1 1215.05 1158)">Capacity Group “Production Line 1”</text><path d="M2609.5 1127C2609.5 1121.2 2614.2 1116.5 2620 1116.5L3512 1116.5C3517.8 1116.5 3522.5 1121.2 3522.5 1127L3522.5 1169C3522.5 1174.8 3517.8 1179.5 3512 1179.5L2620 1179.5C2614.2 1179.5 2609.5 1174.8 2609.5 1169Z" stroke="#FFFFFF" stroke-width="3.4375" stroke-miterlimit="8" stroke-dasharray="13.75 10.3125" fill="#617000" fill-rule="evenodd"/><text fill="#FFFFFF" font-family="Calibri,Calibri_MSFontService,sans-serif" font-weight="400" font-size="32" transform="matrix(1 0 0 1 2833.66 1158)">Capacity Group “Production Line 2”</text><path d="M2609.5 1283C2609.5 1277.2 2614.2 1272.5 2620 1272.5L3049 1272.5C3054.8 1272.5 3059.5 1277.2 3059.5 1283L3059.5 1325C3059.5 1330.8 3054.8 1335.5 3049 1335.5L2620 1335.5C2614.2 1335.5 2609.5 1330.8 2609.5 1325Z" stroke="#FFFFFF" stroke-width="3.4375" stroke-miterlimit="8" stroke-dasharray="13.75 10.3125" fill="#BF7100" fill-rule="evenodd"/><text fill="#FFFFFF" font-family="Calibri,Calibri_MSFontService,sans-serif" font-weight="400" font-size="32" transform="matrix(1 0 0 1 2667.09 1314)">Material Demand “Toy 4”</text><path d="M3072.5 1284C3072.5 1278.2 3077.2 1273.5 3083 1273.5L3512 1273.5C3517.8 1273.5 3522.5 1278.2 3522.5 1284L3522.5 1326C3522.5 1331.8 3517.8 1336.5 3512 1336.5L3083 1336.5C3077.2 1336.5 3072.5 1331.8 3072.5 1326Z" stroke="#FFFFFF" stroke-width="3.4375" stroke-miterlimit="8" stroke-dasharray="13.75 10.3125" fill="#BF7100" fill-rule="evenodd"/><text fill="#FFFFFF" font-family="Calibri,Calibri_MSFontService,sans-serif" font-weight="400" font-size="32" transform="matrix(1 0 0 1 3130.27 1315)">Material Demand “Toy 5”</text><path d="M1396.5 1411.86 1447.5 1394.5 1498.5 1411.86 1473 1411.86 1473 1478.5 1422 1478.5 1422 1411.86Z" stroke="#FFFFFF" stroke-width="3.4375" stroke-miterlimit="8" fill-rule="evenodd"/><path d="M3015.5 1411.86 3066 1394.5 3116.5 1411.86 3091.25 1411.86 3091.25 1478.5 3040.75 1478.5 3040.75 1411.86Z" stroke="#FFFFFF" stroke-width="3.4375" stroke-miterlimit="8" fill-rule="evenodd"/><path d="M759.5 1546.17C759.5 1540.28 764.276 1535.5 770.167 1535.5L2123.83 1535.5C2129.72 1535.5 2134.5 1540.28 2134.5 1546.17L2134.5 1588.83C2134.5 1594.72 2129.72 1599.5 2123.83 1599.5L770.167 1599.5C764.276 1599.5 759.5 1594.72 759.5 1588.83Z" stroke="#FFFFFF" stroke-width="3.4375" stroke-miterlimit="8" fill="#B3CB2D" fill-rule="evenodd"/><text font-family="Calibri,Calibri_MSFontService,sans-serif" font-weight="400" font-size="32" transform="matrix(1 0 0 1 1215.05 1578)">Capacity Group “Production Line 1”</text><path d="M759.5 1624C759.5 1618.2 764.201 1613.5 770 1613.5L1200 1613.5C1205.8 1613.5 1210.5 1618.2 1210.5 1624L1210.5 1666C1210.5 1671.8 1205.8 1676.5 1200 1676.5L770 1676.5C764.201 1676.5 759.5 1671.8 759.5 1666Z" stroke="#FFFFFF" stroke-width="3.4375" stroke-miterlimit="8" fill="#FFA600" fill-rule="evenodd"/><text font-family="Calibri,Calibri_MSFontService,sans-serif" font-weight="400" font-size="32" transform="matrix(1 0 0 1 817.741 1655)">Material Demand “Toy 1”</text><path d="M2609.5 1546.17C2609.5 1540.28 2614.28 1535.5 2620.17 1535.5L3511.83 1535.5C3517.72 1535.5 3522.5 1540.28 3522.5 1546.17L3522.5 1588.83C3522.5 1594.72 3517.72 1599.5 3511.83 1599.5L2620.17 1599.5C2614.28 1599.5 2609.5 1594.72 2609.5 1588.83Z" stroke="#FFFFFF" stroke-width="3.4375" stroke-miterlimit="8" fill="#B3CB2D" fill-rule="evenodd"/><text font-family="Calibri,Calibri_MSFontService,sans-serif" font-weight="400" font-size="32" transform="matrix(1 0 0 1 2833.66 1578)">Capacity Group “Production Line 2”</text><path d="M2609.5 1624C2609.5 1618.2 2614.2 1613.5 2620 1613.5L3049 1613.5C3054.8 1613.5 3059.5 1618.2 3059.5 1624L3059.5 1666C3059.5 1671.8 3054.8 1676.5 3049 1676.5L2620 1676.5C2614.2 1676.5 2609.5 1671.8 2609.5 1666Z" stroke="#FFFFFF" stroke-width="3.4375" stroke-miterlimit="8" fill="#FFA600" fill-rule="evenodd"/><text font-family="Calibri,Calibri_MSFontService,sans-serif" font-weight="400" font-size="32" transform="matrix(1 0 0 1 2667.09 1655)">Material </text><text font-family="Calibri,Calibri_MSFontService,sans-serif" font-weight="400" font-size="32" transform="matrix(1 0 0 1 2786.26 1655)">Deman</text><text font-family="Calibri,Calibri_MSFontService,sans-serif" font-weight="400" font-size="32" transform="matrix(1 0 0 1 2879.65 1655)">d “Toy 4”</text><path d="M3072.5 1624C3072.5 1618.2 3077.2 1613.5 3083 1613.5L3512 1613.5C3517.8 1613.5 3522.5 1618.2 3522.5 1624L3522.5 1666C3522.5 1671.8 3517.8 1676.5 3512 1676.5L3083 1676.5C3077.2 1676.5 3072.5 1671.8 3072.5 1666Z" stroke="#FFFFFF" stroke-width="3.4375" stroke-miterlimit="8" fill="#FFA600" fill-rule="evenodd"/><text font-family="Calibri,Calibri_MSFontService,sans-serif" font-weight="400" font-size="32" transform="matrix(1 0 0 1 3130.27 1655)">Material Demand “Toy 5”</text><path d="M2609.5 1204C2609.5 1198.2 2614.2 1193.5 2620 1193.5L3512 1193.5C3517.8 1193.5 3522.5 1198.2 3522.5 1204L3522.5 1246C3522.5 1251.8 3517.8 1256.5 3512 1256.5L2620 1256.5C2614.2 1256.5 2609.5 1251.8 2609.5 1246Z" stroke="#FFFFFF" stroke-width="3.4375" stroke-miterlimit="8" fill="#1F2020" fill-rule="evenodd"/><text fill="#FFFFFF" font-family="Calibri,Calibri_MSFontService,sans-serif" font-weight="400" font-size="32" transform="matrix(1 0 0 1 2996.37 1235)">170 pieces</text><path d="M2609.5 1703.17C2609.5 1697.28 2614.28 1692.5 2620.17 1692.5L3048.83 1692.5C3054.72 1692.5 3059.5 1697.28 3059.5 1703.17L3059.5 1745.83C3059.5 1751.72 3054.72 1756.5 3048.83 1756.5L2620.17 1756.5C2614.28 1756.5 2609.5 1751.72 2609.5 1745.83Z" stroke="#FFFFFF" stroke-width="3.4375" stroke-miterlimit="8" fill="#1F2020" fill-rule="evenodd"/><text fill="#FFFFFF" font-family="Calibri,Calibri_MSFontService,sans-serif" font-weight="400" font-size="32" transform="matrix(1 0 0 1 2764.78 1735)">100 pieces</text><path d="M3072.5 1701.17C3072.5 1695.28 3077.28 1690.5 3083.17 1690.5L3511.83 1690.5C3517.72 1690.5 3522.5 1695.28 3522.5 1701.17L3522.5 1743.83C3522.5 1749.72 3517.72 1754.5 3511.83 1754.5L3083.17 1754.5C3077.28 1754.5 3072.5 1749.72 3072.5 1743.83Z" stroke="#FFFFFF" stroke-width="3.4375" stroke-miterlimit="8" fill="#1F2020" fill-rule="evenodd"/><text fill="#FFFFFF" font-family="Calibri,Calibri_MSFontService,sans-serif" font-weight="400" font-size="32" transform="matrix(1 0 0 1 3235.98 1733)">70 pieces</text><path d="M759.5 1283C759.5 1277.2 764.201 1272.5 770 1272.5L1200 1272.5C1205.8 1272.5 1210.5 1277.2 1210.5 1283L1210.5 1325C1210.5 1330.8 1205.8 1335.5 1200 1335.5L770 1335.5C764.201 1335.5 759.5 1330.8 759.5 1325Z" stroke="#FFFFFF" stroke-width="3.4375" stroke-miterlimit="8" stroke-dasharray="13.75 10.3125" fill="#BF7100" fill-rule="evenodd"/><text fill="#FFFFFF" font-family="Calibri,Calibri_MSFontService,sans-serif" font-weight="400" font-size="32" transform="matrix(1 0 0 1 817.741 1314)">Material Demand “Toy 1”</text><path d="M1223.5 1284C1223.5 1278.2 1228.2 1273.5 1234 1273.5L1663 1273.5C1668.8 1273.5 1673.5 1278.2 1673.5 1284L1673.5 1326C1673.5 1331.8 1668.8 1336.5 1663 1336.5L1234 1336.5C1228.2 1336.5 1223.5 1331.8 1223.5 1326Z" stroke="#FFFFFF" stroke-width="3.4375" stroke-miterlimit="8" stroke-dasharray="13.75 10.3125" fill="#BF7100" fill-rule="evenodd"/><text fill="#FFFFFF" font-family="Calibri,Calibri_MSFontService,sans-serif" font-weight="400" font-size="32" transform="matrix(1 0 0 1 1280.92 1315)">Material Demand “Toy 2”</text><path d="M1684.5 1283C1684.5 1277.2 1689.2 1272.5 1695 1272.5L2124 1272.5C2129.8 1272.5 2134.5 1277.2 2134.5 1283L2134.5 1325C2134.5 1330.8 2129.8 1335.5 2124 1335.5L1695 1335.5C1689.2 1335.5 1684.5 1330.8 1684.5 1325Z" stroke="#FFFFFF" stroke-width="3.4375" stroke-miterlimit="8" stroke-dasharray="13.75 10.3125" fill="#BF7100" fill-rule="evenodd"/><text fill="#FFFFFF" font-family="Calibri,Calibri_MSFontService,sans-serif" font-weight="400" font-size="32" transform="matrix(1 0 0 1 1742.42 1314)">Material Demand “Toy 3”</text><path d="M759.5 1204C759.5 1198.2 764.201 1193.5 770 1193.5L2124 1193.5C2129.8 1193.5 2134.5 1198.2 2134.5 1204L2134.5 1246C2134.5 1251.8 2129.8 1256.5 2124 1256.5L770 1256.5C764.201 1256.5 759.5 1251.8 759.5 1246Z" stroke="#FFFFFF" stroke-width="3.4375" stroke-miterlimit="8" fill="#1F2020" fill-rule="evenodd"/><text fill="#FFFFFF" font-family="Calibri,Calibri_MSFontService,sans-serif" font-weight="400" font-size="32" transform="matrix(1 0 0 1 1377.76 1235)">150 pieces</text><path d="M1222.5 1624C1222.5 1618.2 1227.2 1613.5 1233 1613.5L1662 1613.5C1667.8 1613.5 1672.5 1618.2 1672.5 1624L1672.5 1666C1672.5 1671.8 1667.8 1676.5 1662 1676.5L1233 1676.5C1227.2 1676.5 1222.5 1671.8 1222.5 1666Z" stroke="#FFFFFF" stroke-width="3.4375" stroke-miterlimit="8" fill="#FFA600" fill-rule="evenodd"/><text font-family="Calibri,Calibri_MSFontService,sans-serif" font-weight="400" font-size="32" transform="matrix(1 0 0 1 1280.08 1655)">Material Demand “Toy 2”</text><path d="M1684.5 1624C1684.5 1618.2 1689.2 1613.5 1695 1613.5L2124 1613.5C2129.8 1613.5 2134.5 1618.2 2134.5 1624L2134.5 1666C2134.5 1671.8 2129.8 1676.5 2124 1676.5L1695 1676.5C1689.2 1676.5 1684.5 1671.8 1684.5 1666Z" stroke="#FFFFFF" stroke-width="3.4375" stroke-miterlimit="8" fill="#FFA600" fill-rule="evenodd"/><text font-family="Calibri,Calibri_MSFontService,sans-serif" font-weight="400" font-size="32" transform="matrix(1 0 0 1 1742.42 1655)">Material Demand “Toy 3”</text><path d="M759.5 1701.17C759.5 1695.28 764.276 1690.5 770.167 1690.5L1199.83 1690.5C1205.72 1690.5 1210.5 1695.28 1210.5 1701.17L1210.5 1743.83C1210.5 1749.72 1205.72 1754.5 1199.83 1754.5L770.167 1754.5C764.276 1754.5 759.5 1749.72 759.5 1743.83Z" stroke="#FFFFFF" stroke-width="3.4375" stroke-miterlimit="8" fill="#1F2020" fill-rule="evenodd"/><text fill="#FFFFFF" font-family="Calibri,Calibri_MSFontService,sans-serif" font-weight="400" font-size="32" transform="matrix(1 0 0 1 923.443 1733)">60 pieces</text><path d="M1222.5 1701.17C1222.5 1695.28 1227.28 1690.5 1233.17 1690.5L1661.83 1690.5C1667.72 1690.5 1672.5 1695.28 1672.5 1701.17L1672.5 1743.83C1672.5 1749.72 1667.72 1754.5 1661.83 1754.5L1233.17 1754.5C1227.28 1754.5 1222.5 1749.72 1222.5 1743.83Z" stroke="#FFFFFF" stroke-width="3.4375" stroke-miterlimit="8" fill="#1F2020" fill-rule="evenodd"/><text fill="#FFFFFF" font-family="Calibri,Calibri_MSFontService,sans-serif" font-weight="400" font-size="32" transform="matrix(1 0 0 1 1385.78 1733)">40 pieces</text><path d="M1684.5 1701.17C1684.5 1695.28 1689.28 1690.5 1695.17 1690.5L2123.83 1690.5C2129.72 1690.5 2134.5 1695.28 2134.5 1701.17L2134.5 1743.83C2134.5 1749.72 2129.72 1754.5 2123.83 1754.5L1695.17 1754.5C1689.28 1754.5 1684.5 1749.72 1684.5 1743.83Z" stroke="#FFFFFF" stroke-width="3.4375" stroke-miterlimit="8" fill="#1F2020" fill-rule="evenodd"/><text fill="#FFFFFF" font-family="Calibri,Calibri_MSFontService,sans-serif" font-weight="400" font-size="32" transform="matrix(1 0 0 1 1848.12 1733)">50 pieces</text></g></svg>