<svg width="4109" height="1731" xmlns="http://www.w3.org/2000/svg" xmlns:xlink="http://www.w3.org/1999/xlink" xml:space="preserve" overflow="hidden"><defs><clipPath id="clip0"><rect x="156" y="256" width="4109" height="1731"/></clipPath></defs><g clip-path="url(#clip0)" transform="translate(-156 -256)"><rect x="156" y="265" width="4109" height="1717" fill="#FFFFFF"/><rect x="186.5" y="439.5" width="707" height="108" stroke="#042433" stroke-width="6.875" stroke-miterlimit="8" fill="none"/><text font-family="Aptos,Aptos_MSFontService,sans-serif" font-weight="400" font-size="55" transform="matrix(1 0 0 1 384.724 511)">MachineType</text><rect x="677.5" y="634.5" width="572" height="108" stroke="#042433" stroke-width="6.875" stroke-miterlimit="8" fill="none"/><text font-family="Aptos,Aptos_MSFontService,sans-serif" font-weight="400" font-size="55" transform="matrix(1 0 0 1 731.628 706)">EnergyCounterType</text><rect x="181.5" y="838.5" width="708" height="108" stroke="#042433" stroke-width="6.875" stroke-miterlimit="8" fill="none"/><text font-family="Aptos,Aptos_MSFontService,sans-serif" font-weight="400" font-size="55" transform="matrix(1 0 0 1 323.889 910)">MESInterfaceType</text><rect x="181.5" y="1351.5" width="708" height="107" stroke="#042433" stroke-width="6.875" stroke-miterlimit="8" fill="none"/><text font-family="Aptos,Aptos_MSFontService,sans-serif" font-weight="400" font-size="55" transform="matrix(1 0 0 1 199.245 1423)">EnergyUsedAggregationType</text><rect x="181.5" y="1102.5" width="708" height="108" stroke="#042433" stroke-width="6.875" stroke-miterlimit="8" fill="none"/><text font-family="Aptos,Aptos_MSFontService,sans-serif" font-weight="400" font-size="55" transform="matrix(1 0 0 1 338.498 1174)">EnergyUsedType</text><path d="M0 0 4.47146 291.195" stroke="#156082" stroke-width="6.875" stroke-miterlimit="8" fill="none" fill-rule="evenodd" transform="matrix(-1 0 0 1 539.971 547.5)"/><path d="M893.5 493.5 963.729 493.5 963.729 634.369" stroke="#156082" stroke-width="6.875" stroke-miterlimit="8" fill="none" fill-rule="evenodd"/><path d="M0 0 0.000721785 156.195" stroke="#156082" stroke-width="6.875" stroke-miterlimit="8" fill="none" fill-rule="evenodd" transform="matrix(-1 0 0 1 535.501 946.5)"/><path d="M535.5 1210.5 535.5 1351.37" stroke="#156082" stroke-width="6.875" stroke-miterlimit="8" fill="none" fill-rule="evenodd"/><text font-family="Aptos,Aptos_MSFontService,sans-serif" font-weight="400" font-size="55" transform="matrix(1 0 0 1 1003.55 588)">1:0..1</text><text font-family="Aptos,Aptos_MSFontService,sans-serif" font-weight="400" font-size="55" transform="matrix(1 0 0 1 374.868 736)">1:0..1</text><text font-family="Aptos,Aptos_MSFontService,sans-serif" font-weight="400" font-size="55" transform="matrix(1 0 0 1 565.276 1042)">1:0..n</text><text font-family="Aptos,Aptos_MSFontService,sans-serif" font-weight="400" font-size="55" transform="matrix(1 0 0 1 567.951 1298)">1:0..1</text><text font-family="Aptos,Aptos_MSFontService,sans-serif" font-weight="400" font-size="83" transform="matrix(1 0 0 1 309.33 358)">Entity </text><text font-family="Aptos,Aptos_MSFontService,sans-serif" font-weight="400" font-size="83" transform="matrix(1 0 0 1 527.611 358)">relation</text><text font-family="Aptos,Aptos_MSFontService,sans-serif" font-weight="400" font-size="83" transform="matrix(1 0 0 1 799.036 358)">:</text><text font-family="Aptos,Aptos_MSFontService,sans-serif" font-weight="400" font-size="83" transform="matrix(1 0 0 1 1444.91 358)">Example</text><text font-family="Aptos,Aptos_MSFontService,sans-serif" font-weight="400" font-size="83" transform="matrix(1 0 0 1 1752.66 358)">:</text><rect x="1818.5" y="406.5" width="204" height="111" stroke="#156082" stroke-width="3.4375" stroke-linejoin="round" stroke-miterlimit="10" fill="none"/><text font-family="Aptos,Aptos_MSFontService,sans-serif" font-weight="700" font-size="64" transform="matrix(1 0 0 1 1850.56 482)">Root</text><text font-family="Aptos,Aptos_MSFontService,sans-serif" font-weight="400" font-size="64" transform="matrix(1 0 0 1 1945.03 596)">Objects</text><text font-family="Aptos,Aptos_MSFontService,sans-serif" font-weight="400" font-size="64" transform="matrix(1 0 0 1 2127.18 711)">DeviceSet</text><text font-family="Aptos,Aptos_MSFontService,sans-serif" font-weight="400" font-size="64" transform="matrix(1 0 0 1 2373.16 815)">MyMachines</text><text fill="#4E95D9" font-family="Aptos,Aptos_MSFontService,sans-serif" font-weight="700" font-size="64" transform="matrix(1 0 0 1 2956.81 940)">Trumpf</text><text fill="#4E95D9" font-family="Aptos,Aptos_MSFontService,sans-serif" font-weight="700" font-size="64" transform="matrix(1 0 0 1 3164 940)">-</text><text fill="#4E95D9" font-family="Aptos,Aptos_MSFontService,sans-serif" font-weight="700" font-size="64" transform="matrix(1 0 0 1 3181.58 940)">1</text><text font-family="Aptos,Aptos_MSFontService,sans-serif" font-weight="400" font-size="64" transform="matrix(1 0 0 1 3215.95 940)">: </text><text fill="#A6A6A6" font-family="Aptos,Aptos_MSFontService,sans-serif" font-style="italic" font-weight="400" font-size="64" transform="matrix(1 0 0 1 3247.46 940)">MachineType</text><text fill="#4E95D9" font-family="Aptos,Aptos_MSFontService,sans-serif" font-weight="700" font-size="64" transform="matrix(1 0 0 1 1596.37 1331)">OpcenterInterface</text><text font-family="Aptos,Aptos_MSFontService,sans-serif" font-weight="400" font-size="64" transform="matrix(1 0 0 1 2135.73 1331)">: </text><text fill="#A6A6A6" font-family="Aptos,Aptos_MSFontService,sans-serif" font-style="italic" font-weight="400" font-size="64" transform="matrix(1 0 0 1 2167.24 1331)">MESInterfaceType</text><text fill="#4E95D9" font-family="Aptos,Aptos_MSFontService,sans-serif" font-weight="700" font-size="64" transform="matrix(1 0 0 1 3090.13 1331)">OpcenterInterface</text><text font-family="Aptos,Aptos_MSFontService,sans-serif" font-weight="400" font-size="64" transform="matrix(1 0 0 1 3629.49 1331)">: </text><text fill="#A6A6A6" font-family="Aptos,Aptos_MSFontService,sans-serif" font-style="italic" font-weight="400" font-size="64" transform="matrix(1 0 0 1 3661 1331)">MESInterfaceType</text><path d="M0-3.4375 236.165-3.4375 236.165 27.5025 229.29 27.5025 229.29 0 232.728 3.4375 0 3.4375ZM246.478 22.9192 232.728 50.4192 218.978 22.9192Z" fill="#156082" transform="matrix(-1 1.22465e-16 1.22465e-16 1 1937.23 1480.5)"/><path d="M2773.5 792.062 3291.01 792.062 3291.01 841.792 3284.13 841.792 3284.13 795.5 3287.57 798.937 2773.5 798.937ZM3301.32 837.208 3287.57 864.708 3273.82 837.208Z" fill="#156082"/><path d="M2444.5 688.063 2560.37 688.063 2560.37 716.742 2553.49 716.742 2553.49 691.5 2556.93 694.938 2444.5 694.938ZM2570.68 712.159 2556.93 739.659 2543.18 712.159Z" fill="#156082"/><path d="M2198.5 573.062 2272.89 573.062 2272.89 612.742 2266.01 612.742 2266.01 576.5 2269.45 579.937 2198.5 579.937ZM2283.2 608.159 2269.45 635.659 2255.7 608.159Z" fill="#156082"/><path d="M2022.5 459.062 2058.61 459.062 2058.61 498.742 2051.74 498.742 2051.74 462.5 2055.18 465.937 2022.5 465.937ZM2068.93 494.158 2055.18 521.658 2041.42 494.158Z" fill="#156082"/><text font-family="Aptos,Aptos_MSFontService,sans-serif" font-weight="400" font-size="64" transform="matrix(1 0 0 1 1969.6 1500)">Used</text><text font-family="Aptos,Aptos_MSFontService,sans-serif" font-weight="400" font-size="64" transform="matrix(1 0 0 1 2127.08 1500)">Energies</text><text font-family="Aptos,Aptos_MSFontService,sans-serif" font-weight="400" font-size="64" transform="matrix(1 0 0 1 3428.41 1500)">Used</text><text font-family="Aptos,Aptos_MSFontService,sans-serif" font-weight="400" font-size="64" transform="matrix(1 0 0 1 3585.89 1500)">Energies</text><text fill="#4E95D9" font-family="Aptos,Aptos_MSFontService,sans-serif" font-weight="700" font-size="64" transform="matrix(1 0 0 1 1472.41 1606)">Electricity</text><text font-family="Aptos,Aptos_MSFontService,sans-serif" font-weight="400" font-size="64" transform="matrix(1 0 0 1 1768.61 1606)">: </text><text fill="#A6A6A6" font-family="Aptos,Aptos_MSFontService,sans-serif" font-style="italic" font-weight="400" font-size="64" transform="matrix(1 0 0 1 1472.41 1683)">EnergyUsedType</text><text fill="#4E95D9" font-family="Aptos,Aptos_MSFontService,sans-serif" font-weight="700" font-size="64" transform="matrix(1 0 0 1 2418.32 1606)">CompressedAir</text><text font-family="Aptos,Aptos_MSFontService,sans-serif" font-weight="400" font-size="64" transform="matrix(1 0 0 1 2873.65 1606)">:</text><text fill="#A6A6A6" font-family="Aptos,Aptos_MSFontService,sans-serif" font-style="italic" font-weight="400" font-size="64" transform="matrix(1 0 0 1 2418.32 1683)">EnergyUsedType</text><text fill="#4E95D9" font-family="Aptos,Aptos_MSFontService,sans-serif" font-weight="700" font-size="64" transform="matrix(1 0 0 1 3099.76 1606)">Electricity</text><text font-family="Aptos,Aptos_MSFontService,sans-serif" font-weight="400" font-size="64" transform="matrix(1 0 0 1 3395.96 1606)">:</text><text fill="#A6A6A6" font-family="Aptos,Aptos_MSFontService,sans-serif" font-style="italic" font-weight="400" font-size="64" transform="matrix(1 0 0 1 3099.76 1683)">EnergyUsedType</text><path d="M0-3.4375 67.6197-3.4375 67.6197 27.5025 60.7447 27.5025 60.7447 0 64.1822 3.4375 0 3.4375ZM77.9322 22.9192 64.1822 50.4192 50.4322 22.9192Z" fill="#156082" transform="matrix(-1 1.22465e-16 1.22465e-16 1 3395.68 1480.5)"/><path d="M2401.5 1477.06 2662.09 1477.06 2662.09 1508 2655.21 1508 2655.21 1480.5 2658.65 1483.94 2401.5 1483.94ZM2672.4 1503.42 2658.65 1530.92 2644.9 1503.42Z" fill="#156082"/><path d="M2173.83 1367.5 2173.83 1399.79 2169.5 1399.79 2172.94 1396.36 2172.94 1402.29 2166.06 1402.29 2166.06 1392.92 2170.4 1392.92 2166.96 1396.36 2166.96 1367.5ZM2183.25 1397.71 2169.5 1425.21 2155.75 1397.71Z" fill="#156082"/><text fill="#4E95D9" font-family="Aptos,Aptos_MSFontService,sans-serif" font-weight="700" font-size="64" transform="matrix(1 0 0 1 1596.37 1062)">ElectricityCounter</text><text font-family="Aptos,Aptos_MSFontService,sans-serif" font-weight="400" font-size="64" transform="matrix(1 0 0 1 2143.75 1062)">: </text><text fill="#A6A6A6" font-family="Aptos,Aptos_MSFontService,sans-serif" font-style="italic" font-weight="400" font-size="64" transform="matrix(1 0 0 1 2175.26 1062)">EnergyCounterType</text><text fill="#4E95D9" font-family="Aptos,Aptos_MSFontService,sans-serif" font-weight="700" font-size="64" transform="matrix(1 0 0 1 3080.6 1033)">ElectricityCounter</text><text font-family="Aptos,Aptos_MSFontService,sans-serif" font-weight="400" font-size="64" transform="matrix(1 0 0 1 3627.99 1033)">: </text><text fill="#A6A6A6" font-family="Aptos,Aptos_MSFontService,sans-serif" font-style="italic" font-weight="400" font-size="64" transform="matrix(1 0 0 1 3659.5 1033)">EnergyCounterType</text><text fill="#4E95D9" font-family="Aptos,Aptos_MSFontService,sans-serif" font-weight="700" font-size="64" transform="matrix(1 0 0 1 1596.37 1161)">CompresseAirCounter</text><text font-family="Aptos,Aptos_MSFontService,sans-serif" font-weight="400" font-size="64" transform="matrix(1 0 0 1 2265.07 1161)">: </text><text fill="#A6A6A6" font-family="Aptos,Aptos_MSFontService,sans-serif" font-style="italic" font-weight="400" font-size="64" transform="matrix(1 0 0 1 2296.58 1161)">EnergyCounterType</text><path d="M0-3.4375 590.048-3.4375 590.048 46.2917 583.173 46.2917 583.173 0 586.61 3.4375 0 3.4375ZM600.36 41.7083 586.61 69.2083 572.86 41.7083Z" fill="#156082" transform="matrix(-1 1.22465e-16 1.22465e-16 1 2341.11 795.5)"/><path d="M0-3.4375 344.895-3.4375 344.895 69.4076 338.02 69.4076 338.02 0 341.458 3.4375 0 3.4375ZM355.208 64.8242 341.458 92.3242 327.708 64.8242Z" fill="#156082" transform="matrix(1.83697e-16 1 1 -1.83697e-16 1471.5 970.5)"/><path d="M1471.5 1040.06 1540.91 1040.06 1540.91 1046.94 1471.5 1046.94ZM1536.32 1029.75 1563.82 1043.5 1536.32 1057.25Z" fill="#156082"/><path d="M1471.5 1139.06 1540.91 1139.06 1540.91 1145.94 1471.5 1145.94ZM1536.32 1128.75 1563.82 1142.5 1536.32 1156.25Z" fill="#156082"/><path d="M0-3.4375 338.298-3.4375 338.298 55.8366 331.423 55.8366 331.423 0 334.861 3.4375 0 3.4375ZM348.611 51.2532 334.861 78.7532 321.111 51.2532Z" fill="#156082" transform="matrix(1.83697e-16 1 1 -1.83697e-16 2978.5 976.5)"/><path d="M2978.5 1010.06 3024.81 1010.06 3024.81 1016.94 2978.5 1016.94ZM3020.23 999.75 3047.73 1013.5 3020.23 1027.25Z" fill="#156082"/><path d="M3631.09 1367.5 3631.09 1399.79 3627.5 1399.79 3630.94 1396.36 3630.94 1402.29 3624.06 1402.29 3624.06 1392.92 3627.65 1392.92 3624.21 1396.36 3624.21 1367.5ZM3641.25 1397.71 3627.5 1425.21 3613.75 1397.71Z" fill="#156082"/><text fill="#4E95D9" font-family="Aptos,Aptos_MSFontService,sans-serif" font-weight="700" font-size="64" transform="matrix(1 0 0 1 1457.48 940)">DMG</text><text fill="#4E95D9" font-family="Aptos,Aptos_MSFontService,sans-serif" font-weight="700" font-size="64" transform="matrix(1 0 0 1 1601.28 940)">-</text><text fill="#4E95D9" font-family="Aptos,Aptos_MSFontService,sans-serif" font-weight="700" font-size="64" transform="matrix(1 0 0 1 1618.86 940)">1</text><text font-family="Aptos,Aptos_MSFontService,sans-serif" font-weight="400" font-size="64" transform="matrix(1 0 0 1 1653.23 940)">: </text><text fill="#A6A6A6" font-family="Aptos,Aptos_MSFontService,sans-serif" font-style="italic" font-weight="400" font-size="64" transform="matrix(1 0 0 1 1684.74 940)">MachineType</text><text fill="#4E95D9" font-family="Aptos,Aptos_MSFontService,sans-serif" font-weight="700" font-size="64" transform="matrix(1 0 0 1 1578.25 1833)">EnergyUsedAggregation</text><text font-family="Aptos,Aptos_MSFontService,sans-serif" font-weight="400" font-size="64" transform="matrix(1 0 0 1 2271.34 1833)">: </text><text fill="#A6A6A6" font-family="Aptos,Aptos_MSFontService,sans-serif" font-style="italic" font-weight="400" font-size="64" transform="matrix(1 0 0 1 1578.25 1910)">EnergyUsedAggregationType</text><path d="M0-3.4375 124.832-3.4375 124.832 42.8354 117.957 42.8354 117.957 0 121.394 3.4375 0 3.4375ZM135.144 38.2521 121.394 65.7521 107.644 38.2521Z" fill="#156082" transform="matrix(1.83697e-16 1 1 -1.83697e-16 1480.5 1730.5)"/><text fill="#4E95D9" font-family="Aptos,Aptos_MSFontService,sans-serif" font-weight="700" font-size="64" transform="matrix(1 0 0 1 3188.35 1853)">EnergyUsedAggregation</text><text font-family="Aptos,Aptos_MSFontService,sans-serif" font-weight="400" font-size="64" transform="matrix(1 0 0 1 3881.44 1853)">: </text><text fill="#A6A6A6" font-family="Aptos,Aptos_MSFontService,sans-serif" font-style="italic" font-weight="400" font-size="64" transform="matrix(1 0 0 1 3188.35 1930)">EnergyUsedAggregationType</text><path d="M0-3.4375 124.832-3.4375 124.832 42.8354 117.957 42.8354 117.957 0 121.394 3.4375 0 3.4375ZM135.144 38.2521 121.394 65.7521 107.644 38.2521Z" fill="#156082" transform="matrix(1.83697e-16 1 1 -1.83697e-16 3117.5 1750.5)"/></g></svg>