<svg width="2693" height="2172" xmlns="http://www.w3.org/2000/svg" xmlns:xlink="http://www.w3.org/1999/xlink" xml:space="preserve" overflow="hidden"><g transform="translate(-808 -219)"><rect x="810" y="220" width="2658" height="2168" fill="#FFFFFF"/><rect x="2890" y="247" width="208" height="208" fill="#EB780A"/><path d="M2965 351 2965 320 3022 351Z" fill-rule="evenodd"/><path d="M3014 351 3014 320 3063 351Z" fill-rule="evenodd"/><rect x="2916" y="351" width="156" height="78"/><rect x="2932" y="273" width="17.0002" height="78"/><rect x="2932" y="366" width="17.0002" height="15.9998" fill="#EB780A"/><rect x="2967" y="366" width="16.0002" height="15.9998" fill="#EB780A"/><rect x="3002" y="366" width="16.0002" height="15.9998" fill="#EB780A"/><rect x="3036" y="366" width="16.9998" height="15.9998" fill="#EB780A"/><rect x="2932" y="399" width="17.0002" height="15.9998" fill="#EB780A"/><rect x="2967" y="399" width="16.0002" height="15.9998" fill="#EB780A"/><rect x="3002" y="399" width="16.0002" height="15.9998" fill="#EB780A"/><rect x="3036" y="399" width="16.9998" height="15.9998" fill="#EB780A"/><text font-family="Arial,Arial_MSFontService,sans-serif" font-weight="400" font-size="55" transform="matrix(1 0 0 1 3033.5 2078)">Diverse Protocols</text><g><g><g><path d="M39 17.3333 39 190.667 169 190.667 169 64.103 122.23 17.3333ZM123.537 24.7672 161.566 62.7965C161.575 62.8049 161.574 62.8188 161.566 62.827 161.562 62.8309 161.557 62.8333 161.551 62.8333L123.5 62.8333 123.5 24.7823C123.5 24.7704 123.51 24.7609 123.522 24.7609 123.527 24.7611 123.533 24.7633 123.537 24.7672ZM43.3333 186.333 43.3333 21.6667 119.167 21.6667 119.167 67.1667 164.667 67.1667 164.667 186.333Z" transform="matrix(1.75 0 0 1 2965 1450)"/></g></g></g><text font-family="Arial,Arial_MSFontService,sans-serif" font-weight="400" font-size="55" transform="matrix(1 0 0 1 3040.82 1568)">OPC</text><text font-family="Arial,Arial_MSFontService,sans-serif" font-weight="400" font-size="55" transform="matrix(1 0 0 1 3159.99 1568)">-</text><text font-family="Arial,Arial_MSFontService,sans-serif" font-weight="400" font-size="55" transform="matrix(1 0 0 1 3178.32 1568)">UA</text><text font-family="Arial,Arial_MSFontService,sans-serif" font-weight="400" font-size="55" transform="matrix(1 0 0 1 3092.66 1634)">AAS</text><rect x="2519.5" y="220.5" width="949" height="2168" stroke="#000000" stroke-width="3.4375" stroke-miterlimit="8" stroke-dasharray="13.75 10.3125" fill="none"/><rect x="2657.5" y="554.5" width="678" height="153" stroke="#00B0F0" stroke-width="6.875" stroke-miterlimit="8" fill="none"/><text font-family="Arial,Arial_MSFontService,sans-serif" font-weight="400" font-size="46" transform="matrix(1 0 0 1 2759.98 638)">PCF Management Tool</text><rect x="2657.5" y="2202.5" width="678" height="140" stroke="#00B0F0" stroke-width="6.875" stroke-miterlimit="8" fill="none"/><text font-family="Arial,Arial_MSFontService,sans-serif" font-weight="400" font-size="46" transform="matrix(1 0 0 1 2898.05 2286)">Machines</text><path d="M2994.36 2201.82 2994.34 2192.66 2996.63 2192.65 2996.65 2201.82ZM2994.33 2185.78 2994.31 2176.62 2996.6 2176.61 2996.62 2185.78ZM2994.3 2169.74 2994.28 2160.57 2996.57 2160.57 2996.59 2169.74ZM2994.27 2153.7 2994.25 2144.53 2996.55 2144.53 2996.56 2153.7ZM2994.24 2137.66 2994.22 2128.49 2996.52 2128.49 2996.53 2137.65ZM2994.21 2121.62 2994.2 2112.45 2996.49 2112.45 2996.5 2121.61ZM2994.18 2105.57 2994.17 2096.41 2996.46 2096.4 2996.48 2105.57ZM2994.16 2089.53 2994.14 2080.37 2996.43 2080.36 2996.45 2089.53ZM2994.13 2073.49 2994.11 2064.32 2996.4 2064.32 2996.42 2073.49ZM2994.1 2057.45 2994.08 2048.28 2996.37 2048.28 2996.39 2057.45ZM2994.07 2041.41 2994.05 2032.24 2996.34 2032.24 2996.36 2041.4ZM2994.04 2025.37 2994.02 2016.2 2996.32 2016.2 2996.33 2025.36ZM2994.01 2009.32 2994 2000.16 2996.29 2000.15 2996.3 2009.32ZM2993.98 1993.28 2993.97 1984.12 2996.26 1984.11 2996.27 1993.28ZM2993.95 1977.24 2993.94 1968.07 2996.23 1968.07 2996.25 1977.24ZM2993.93 1961.2 2993.91 1952.03 2996.2 1952.03 2996.22 1961.2ZM2993.9 1945.16 2993.9 1943.92 2996.19 1943.91 2996.19 1945.15ZM2981.3 1948.52 2995 1921 3008.8 1948.48Z" fill="#C00000"/><rect x="2657.5" y="932.5" width="678" height="139" stroke="#00B0F0" stroke-width="6.875" stroke-miterlimit="8" fill="none"/><text font-family="Arial,Arial_MSFontService,sans-serif" font-weight="400" font-size="46" transform="matrix(1 0 0 1 2780.03 1016)">PCF Calculation Tool</text><path d="M1.14583-0.00139998 1.15703 9.16526-1.13463 9.16806-1.14583 0.00139998ZM1.16543 16.0403 1.17663 25.2069-1.11503 25.2097-1.12623 16.0431ZM1.18503 32.0819 1.19623 41.2486-1.09543 41.2514-1.10663 32.0847ZM1.20463 48.1236 1.21583 57.2902-1.07583 57.293-1.08703 48.1264ZM1.22423 64.1652 1.23543 73.3319-1.05623 73.3347-1.06743 64.168ZM1.24383 80.2069 1.25503 89.3735-1.03663 89.3763-1.04783 80.2097ZM1.26343 96.2485 1.27463 105.415-1.01703 105.418-1.02823 96.2513ZM1.28303 112.29 1.29423 121.457-0.997435 121.46-1.00863 112.293ZM1.30263 128.332 1.31383 137.498-0.977835 137.501-0.989035 128.335ZM1.32223 144.373 1.33343 153.54-0.958236 153.543-0.969436 144.376ZM1.34183 160.415 1.35303 169.582-0.938636 169.585-0.949836 160.418ZM1.36143 176.457 1.37263 185.623-0.919037 185.626-0.930236 176.46ZM1.38103 192.498 1.39223 201.665-0.899437 201.668-0.910637 192.501ZM13.991 197.266 0.274639 224.783-13.509 197.3Z" fill="#C00000" transform="matrix(1 0 0 -1 2996 931.783)"/><rect x="2656.5" y="1281.5" width="678" height="144" stroke="#00B0F0" stroke-width="6.875" stroke-miterlimit="8" fill="none"/><text font-family="Arial,Arial_MSFontService,sans-serif" font-weight="400" font-size="46" transform="matrix(1 0 0 1 2840.27 1365)">MES/ERP/AAS</text><rect x="2657.5" y="1725.5" width="678" height="196" stroke="#00B0F0" stroke-width="6.875" stroke-miterlimit="8" fill="none"/><text font-family="Arial,Arial_MSFontService,sans-serif" font-weight="400" font-size="46" transform="matrix(1 0 0 1 2765.41 1809)">Intermediate storage &amp; </text><text font-family="Arial,Arial_MSFontService,sans-serif" font-weight="400" font-size="46" transform="matrix(1 0 0 1 2684.35 1864)">Consumption</text><text font-family="Arial,Arial_MSFontService,sans-serif" font-weight="400" font-size="46" transform="matrix(1 0 0 1 2953.05 1864)">-</text><text font-family="Arial,Arial_MSFontService,sans-serif" font-weight="400" font-size="46" transform="matrix(1 0 0 1 2968.52 1864)">Aggregation App</text><path d="M1.14583-0.00423563 1.17971 9.16237-1.11194 9.17084-1.14583 0.00423563ZM1.20512 16.0373 1.23901 25.2039-1.05264 25.2124-1.08653 16.0458ZM1.26442 32.0789 1.29831 41.2455-0.993343 41.254-1.02723 32.0873ZM1.32372 48.1204 1.35761 57.287-0.934044 57.2955-0.967929 48.1289ZM1.38302 64.162 1.41691 73.3286-0.874745 73.3371-0.90863 64.1705ZM1.44232 80.2036 1.4762 89.3702-0.815446 89.3786-0.849331 80.212ZM1.50162 96.2451 1.5355 105.412-0.756148 105.42-0.790033 96.2536ZM1.56092 112.287 1.5948 121.453-0.696849 121.462-0.730734 112.295ZM1.62022 128.328 1.6541 137.495-0.63755 137.503-0.671435 128.337ZM1.67951 144.37 1.7134 153.536-0.578251 153.545-0.612136 144.378ZM1.73881 160.411 1.7727 169.578-0.518952 169.586-0.552837 160.42ZM1.79811 176.453 1.832 185.619-0.459653 185.628-0.493538 176.461ZM14.4245 182.449 0.77628 210-13.0753 182.551Z" fill="#C00000" transform="matrix(1 0 0 -1 2995 1281)"/><path d="M2994.63 1725.07 2994.61 1715.91 2996.9 1715.9 2996.92 1725.07ZM2994.59 1709.03 2994.57 1699.87 2996.86 1699.86 2996.88 1709.03ZM2994.55 1692.99 2994.52 1683.82 2996.82 1683.82 2996.84 1692.99ZM2994.51 1676.95 2994.48 1667.78 2996.77 1667.78 2996.8 1676.94ZM2994.46 1660.91 2994.44 1651.74 2996.73 1651.74 2996.76 1660.9ZM2994.42 1644.87 2994.4 1635.7 2996.69 1635.69 2996.71 1644.86ZM2994.38 1628.83 2994.36 1619.66 2996.65 1619.65 2996.67 1628.82ZM2994.34 1612.78 2994.32 1603.62 2996.61 1603.61 2996.63 1612.78ZM2994.3 1596.74 2994.27 1587.58 2996.57 1587.57 2996.59 1596.74ZM2994.26 1580.7 2994.23 1571.53 2996.52 1571.53 2996.55 1580.69ZM2994.22 1564.66 2994.19 1555.49 2996.48 1555.49 2996.51 1564.65ZM2994.17 1548.62 2994.15 1539.45 2996.44 1539.44 2996.47 1548.61ZM2994.13 1532.58 2994.11 1523.41 2996.4 1523.4 2996.42 1532.57ZM2994.09 1516.53 2994.07 1507.37 2996.36 1507.36 2996.38 1516.53ZM2994.05 1500.49 2994.03 1491.33 2996.32 1491.32 2996.34 1500.49ZM2994.01 1484.45 2993.98 1475.28 2996.28 1475.28 2996.3 1484.44ZM2993.97 1468.41 2993.94 1459.24 2996.23 1459.24 2996.26 1468.4ZM2993.93 1452.37 2993.91 1447.92 2996.21 1447.91 2996.22 1452.36ZM2981.32 1452.54 2995 1425 3008.82 1452.46Z" fill="#C00000"/><rect x="2408" y="857" width="213" height="138" fill="#FFFFFF"/><path d="M2357.01 997.854 2366.18 997.943 2366.16 1000.23 2356.99 1000.15ZM2373.05 998.01 2382.22 998.099 2382.2 1000.39 2373.03 1000.3ZM2389.09 998.166 2398.26 998.255 2398.24 1000.55 2389.07 1000.46ZM2405.13 998.322 2414.3 998.411 2414.28 1000.7 2405.11 1000.61ZM2421.17 998.478 2430.34 998.567 2430.32 1000.86 2421.15 1000.77ZM2437.22 998.634 2446.38 998.723 2446.36 1001.01 2437.19 1000.93ZM2453.26 998.79 2462.42 998.879 2462.4 1001.17 2453.23 1001.08ZM2469.3 998.946 2478.46 999.035 2478.44 1001.33 2469.28 1001.24ZM2485.34 999.102 2494.5 999.191 2494.48 1001.48 2485.32 1001.39ZM2501.38 999.258 2510.55 999.347 2510.52 1001.64 2501.36 1001.55ZM2517.42 999.414 2526.59 999.503 2526.56 1001.79 2517.4 1001.71ZM2533.46 999.569 2542.63 999.659 2542.6 1001.95 2533.44 1001.86ZM2549.5 999.725 2558.67 999.815 2558.65 1002.11 2549.48 1002.02ZM2565.54 999.881 2574.71 999.97 2574.69 1002.26 2565.52 1002.17ZM2581.58 1000.04 2590.75 1000.13 2590.73 1002.42 2581.56 1002.33ZM2597.62 1000.19 2606.79 1000.28 2606.77 1002.57 2597.6 1002.48ZM2613.67 1000.35 2622.83 1000.44 2622.81 1002.73 2613.64 1002.64ZM2629.71 1000.51 2633.54 1000.54 2633.52 1002.83 2629.68 1002.8ZM2629.08 987.894 2656.45 1001.91 2628.82 1015.39Z" fill="#1D71B8"/><text font-family="Arial,Arial_MSFontService,sans-serif" font-weight="400" font-size="55" transform="matrix(1 0 0 1 2444.05 957)">iLeap</text><rect x="1776.5" y="929.5" width="581" height="139" stroke="#00B0F0" stroke-width="6.875" stroke-miterlimit="8" fill="none"/><text font-family="Arial,Arial_MSFontService,sans-serif" font-weight="400" font-size="46" transform="matrix(1 0 0 1 1886.52 1013)">Logistics Platform</text><rect x="1963" y="612" width="208" height="207" fill="#C1D100"/><g><g><g><path d="M2028.66 747.938C2028.66 754.904 2023.01 760.552 2016.04 760.552 2009.07 760.552 2003.43 754.904 2003.43 747.938 2003.43 740.971 2009.07 735.323 2016.04 735.323 2023.01 735.323 2028.66 740.971 2028.66 747.938Z"/><path d="M2133.18 747.938C2133.18 754.904 2127.53 760.552 2120.56 760.552 2113.6 760.552 2107.95 754.904 2107.95 747.938 2107.95 740.971 2113.6 735.323 2120.56 735.323 2127.53 735.323 2133.18 740.971 2133.18 747.938Z"/><path d="M1987.21 672.25 2088.12 672.25 2088.12 715.5 1987.21 715.5Z"/><path d="M2102.54 690.271 2113.35 690.271C2116.6 690.271 2119.48 692.433 2120.2 695.497L2123.81 707.931C2123.81 708.111 2123.99 708.111 2123.99 708.292L2102.54 708.292 2102.54 690.271ZM2113.35 683.062 2095.33 683.062 2095.33 708.292 2095.33 719.104 2095.33 747.938 2102.54 747.938C2102.54 738.026 2110.65 729.917 2120.56 729.917 2130.47 729.917 2138.58 738.026 2138.58 747.938 2142.55 747.938 2145.79 744.694 2145.79 740.729L2145.79 722.708C2145.79 720.366 2144.71 718.383 2142.91 716.942L2133.36 709.733C2132.1 708.832 2131.19 707.391 2130.83 705.949L2127.23 693.515C2125.43 687.388 2119.66 683.062 2113.35 683.062Z"/><path d="M2088.12 747.938 2034.06 747.938C2034.06 738.026 2025.95 729.917 2016.04 729.917 2006.13 729.917 1998.02 738.026 1998.02 747.938L1987.21 747.938 1987.21 722.708 2088.12 722.708 2088.12 747.938Z"/></g></g></g><path d="M2068.15 819 2068.15 828.167 2065.85 828.167 2065.85 819ZM2068.15 835.042 2068.15 844.208 2065.85 844.208 2065.85 835.042ZM2068.15 851.083 2068.15 860.25 2065.85 860.25 2065.85 851.083ZM2068.15 867.125 2068.15 876.292 2065.85 876.292 2065.85 867.125ZM2068.15 883.167 2068.15 892.333 2065.85 892.333 2065.85 883.167ZM2068.15 899.208 2068.15 905.564 2065.85 905.564 2065.85 899.208ZM2080.75 900.981 2067 928.481 2053.25 900.981Z" fill="#1D71B8"/><path d="M0-1.14583 9.16667-1.14583 9.16667 1.14583 0 1.14583ZM16.0417-1.14583 25.2083-1.14583 25.2083 1.14583 16.0417 1.14583ZM32.0833-1.14583 41.25-1.14583 41.25 1.14583 32.0833 1.14583ZM48.125-1.14583 57.2917-1.14583 57.2917 1.14583 48.125 1.14583ZM64.1667-1.14583 73.3333-1.14583 73.3333 1.14583 64.1667 1.14583ZM80.2083-1.14583 89.375-1.14583 89.375 1.14583 80.2083 1.14583ZM96.25-1.14583 105.417-1.14583 105.417 1.14583 96.25 1.14583ZM112.292-1.14583 121.458-1.14583 121.458 1.14583 112.292 1.14583ZM128.333-1.14583 137.5-1.14583 137.5 1.14583 128.333 1.14583ZM144.375-1.14583 153.542-1.14583 153.542 1.14583 144.375 1.14583ZM160.417-1.14583 169.583-1.14583 169.583 1.14583 160.417 1.14583ZM176.458-1.14583 185.625-1.14583 185.625 1.14583 176.458 1.14583ZM192.5-1.14583 202.807-1.14583 202.807 0.00541339 200.515 0.00541339 200.515 0 201.661 1.14583 192.5 1.14583ZM202.807 6.88041 202.807 16.0471 200.515 16.0471 200.515 6.88041ZM202.807 22.9221 202.807 32.0887 200.515 32.0887 200.515 22.9221ZM202.807 38.9637 202.807 48.1304 200.515 48.1304 200.515 38.9637ZM202.807 55.0054 202.807 64.1721 200.515 64.1721 200.515 55.0054ZM202.807 71.0471 202.807 80.2137 200.515 80.2137 200.515 71.0471ZM202.807 87.0887 202.807 96.2554 200.515 96.2554 200.515 87.0887ZM202.807 103.13 202.807 112.297 200.515 112.297 200.515 103.13ZM202.807 119.172 202.807 128.339 200.515 128.339 200.515 119.172ZM202.807 135.214 202.807 144.38 200.515 144.38 200.515 135.214ZM202.807 151.255 202.807 160.422 200.515 160.422 200.515 151.255ZM202.807 167.297 202.807 176.464 200.515 176.464 200.515 167.297ZM202.807 183.339 202.807 192.505 200.515 192.505 200.515 183.339ZM202.807 199.38 202.807 208.547 200.515 208.547 200.515 199.38ZM202.807 215.422 202.807 224.589 200.515 224.589 200.515 215.422ZM202.807 231.464 202.807 240.63 200.515 240.63 200.515 231.464ZM202.807 247.505 202.807 256.672 200.515 256.672 200.515 247.505ZM202.807 263.547 202.807 272.714 200.515 272.714 200.515 263.547ZM202.807 279.589 202.807 288.755 200.515 288.755 200.515 279.589ZM202.807 295.63 202.807 304.797 200.515 304.797 200.515 295.63ZM202.807 311.672 202.807 320.839 200.515 320.839 200.515 311.672ZM202.807 327.714 202.807 336.88 200.515 336.88 200.515 327.714ZM202.807 343.755 202.807 352.922 200.515 352.922 200.515 343.755ZM202.807 359.797 202.807 368.964 200.515 368.964 200.515 359.797ZM202.807 375.839 202.807 385.005 200.515 385.005 200.515 375.839ZM202.807 391.88 202.807 401.047 200.515 401.047 200.515 391.88ZM202.807 407.922 202.807 417.089 200.515 417.089 200.515 407.922ZM202.807 423.964 202.807 433.13 200.515 433.13 200.515 423.964ZM202.807 440.005 202.807 449.172 200.515 449.172 200.515 440.005ZM202.807 456.047 202.807 465.214 200.515 465.214 200.515 456.047ZM202.807 472.089 202.807 481.255 200.515 481.255 200.515 472.089ZM202.807 488.13 202.807 497.297 200.515 497.297 200.515 488.13ZM202.807 504.172 202.807 513.339 200.515 513.339 200.515 504.172ZM202.807 520.214 202.807 529.38 200.515 529.38 200.515 520.214ZM202.807 536.255 202.807 540.678 200.515 540.678 200.515 536.255ZM215.411 536.095 201.661 563.595 187.911 536.095Z" fill="#1D71B8" transform="matrix(1.83697e-16 1 1 -1.83697e-16 1213 797)"/><g><g><g><path d="M25.875 11.5 25.875 126.5 112.125 126.5 112.125 42.5299 81.0952 11.5ZM81.9621 16.4321 107.193 41.6631C107.199 41.6687 107.199 41.6779 107.193 41.6834 107.19 41.686 107.187 41.6876 107.183 41.6876L81.9376 41.6876 81.9376 16.4421C81.9378 16.4342 81.9442 16.4279 81.9521 16.4279 81.9559 16.4281 81.9595 16.4295 81.9621 16.4321ZM28.75 123.625 28.75 14.375 79.0626 14.375 79.0626 44.5626 109.25 44.5626 109.25 123.625Z" transform="matrix(2.3913 0 0 1 2347 857)"/></g></g></g><rect x="810.5" y="1394.5" width="1227" height="994" stroke="#062C4C" stroke-width="4.58333" stroke-miterlimit="8" fill="none"/><g><g><g><path d="M15.5625 6.91665 15.5625 76.0832 67.4374 76.0832 67.4374 25.5795 48.7745 6.91665ZM49.2958 9.88303 64.471 25.0582C64.4744 25.0615 64.4743 25.0671 64.4709 25.0704 64.4693 25.0719 64.4672 25.0729 64.4649 25.0729L49.2812 25.0729 49.2812 9.88908C49.2812 9.88433 49.2851 9.88053 49.2899 9.88053 49.2921 9.88061 49.2943 9.88148 49.2958 9.88303ZM17.2916 74.354 17.2916 8.64582 47.552 8.64582 47.552 26.802 65.7082 26.802 65.7082 74.354Z" transform="matrix(2 0 0 1 835 1463)"/></g></g></g><text font-family="Arial,Arial_MSFontService,sans-serif" font-weight="400" font-size="55" transform="matrix(1 0 0 1 1038.24 1524)">Data format</text><rect x="835" y="1576" width="123" height="125" fill="#CC9900"/><path d="M858 1641C858 1619.46 875.237 1602 896.5 1602 917.763 1602 935 1619.46 935 1641 935 1662.54 917.763 1680 896.5 1680 875.237 1680 858 1662.54 858 1641Z" stroke="#000000" stroke-width="27.5" stroke-miterlimit="8" fill-rule="evenodd"/><path d="M890 1639C890 1635.13 892.91 1632 896.5 1632 900.09 1632 903 1635.13 903 1639 903 1642.87 900.09 1646 896.5 1646 892.91 1646 890 1642.87 890 1639Z" fill="#FFFFFF" fill-rule="evenodd"/><path d="M897 1680 943.231 1680" stroke="#000000" stroke-width="27.5" stroke-linecap="round" stroke-miterlimit="8" fill="none" fill-rule="evenodd"/><text font-family="Arial,Arial_MSFontService,sans-serif" font-weight="400" font-size="55" transform="matrix(1 0 0 1 1003.08 1658)">Supplier</text><rect x="835" y="1723" width="123" height="125" fill="#EB780A"/><path d="M879 1786 879 1767 914 1786Z" fill-rule="evenodd"/><path d="M909 1786 909 1767 938 1786Z" fill-rule="evenodd"/><rect x="850" y="1786" width="92.9998" height="46.9998"/><rect x="860" y="1739" width="9.99994" height="47.0001"/><rect x="860" y="1795" width="9.99994" height="10" fill="#EB780A"/><rect x="881" y="1795" width="8.99994" height="10" fill="#EB780A"/><rect x="901" y="1795" width="9.99994" height="10" fill="#EB780A"/><rect x="922" y="1795" width="8.99994" height="10" fill="#EB780A"/><rect x="860" y="1815" width="9.99994" height="8.99988" fill="#EB780A"/><rect x="881" y="1815" width="8.99994" height="8.99988" fill="#EB780A"/><rect x="901" y="1815" width="9.99994" height="8.99988" fill="#EB780A"/><rect x="922" y="1815" width="8.99994" height="8.99988" fill="#EB780A"/><text font-family="Arial,Arial_MSFontService,sans-serif" font-weight="400" font-size="55" transform="matrix(1 0 0 1 1010.88 1805)">Factory Operator</text><rect x="835" y="1870" width="123" height="125" fill="#C1D100"/><g><g><g><path d="M28.9688 70.8126C28.9688 74.9605 25.6063 78.323 21.4584 78.323 17.3105 78.323 13.9479 74.9605 13.9479 70.8126 13.9479 66.6647 17.3105 63.3022 21.4584 63.3022 25.6063 63.3022 28.9688 66.6647 28.9688 70.8126Z" transform="matrix(1 0 0 1.00971 845 1881)"/><path d="M91.198 70.8126C91.198 74.9605 87.8355 78.323 83.6876 78.323 79.5397 78.323 76.1772 74.9605 76.1772 70.8126 76.1772 66.6647 79.5397 63.3022 83.6876 63.3022 87.8355 63.3022 91.198 66.6647 91.198 70.8126Z" transform="matrix(1 0 0 1.00971 845 1881)"/><path d="M4.29167 25.75 64.3751 25.75 64.3751 51.5001 4.29167 51.5001Z" transform="matrix(1 0 0 1.00971 845 1881)"/><path d="M72.9584 36.4792 79.3959 36.4792C81.3272 36.4792 83.0439 37.7667 83.473 39.5907L85.6189 46.9938C85.6189 47.1011 85.7262 47.1011 85.7262 47.2084L72.9584 47.2084 72.9584 36.4792ZM79.3959 32.1875 68.6668 32.1875 68.6668 47.2084 68.6668 53.6459 68.6668 70.8126 72.9584 70.8126C72.9584 64.9115 77.7866 60.0834 83.6876 60.0834 89.5887 60.0834 94.4168 64.9115 94.4168 70.8126 96.7772 70.8126 98.7085 68.8813 98.7085 66.5209L98.7085 55.7917C98.7085 54.3969 98.0647 53.2167 96.9918 52.3584L91.3053 48.0667C90.5543 47.5303 90.0178 46.6719 89.8032 45.8136L87.6574 38.4105C86.5845 34.7625 83.1511 32.1875 79.3959 32.1875Z" transform="matrix(1 0 0 1.00971 845 1881)"/><path d="M64.3751 70.8126 32.1875 70.8126C32.1875 64.9115 27.3594 60.0834 21.4584 60.0834 15.5573 60.0834 10.7292 64.9115 10.7292 70.8126L4.29167 70.8126 4.29167 55.7917 64.3751 55.7917 64.3751 70.8126Z" transform="matrix(1 0 0 1.00971 845 1881)"/></g></g></g><text font-family="Arial,Arial_MSFontService,sans-serif" font-weight="400" font-size="55" transform="matrix(1 0 0 1 1012.11 1952)">Logistics company</text><rect x="835.5" y="2026.5" width="126" height="83.0001" stroke="#000000" stroke-width="3.4375" stroke-miterlimit="8" stroke-dasharray="13.75 10.3125" fill="none"/><text font-family="Arial,Arial_MSFontService,sans-serif" font-weight="400" font-size="55" transform="matrix(1 0 0 1 1014.34 2087)">Company “border”</text><path d="M1.14583-3.14623e-06 1.14586 9.16666-1.14581 9.16667-1.14583 3.14623e-06ZM1.14588 16.0417 1.1459 25.2083-1.14576 25.2083-1.14579 16.0417ZM1.14592 32.0833 1.14595 41.25-1.14572 41.25-1.14575 32.0833ZM1.14597 48.125 1.14599 57.2917-1.14568 57.2917-1.1457 48.125ZM1.14601 64.1667 1.14603 73.3333-1.14563 73.3333-1.14566 64.1667ZM1.14605 80.2083 1.14608 89.375-1.14559 89.375-1.14561 80.2083ZM1.1461 96.25 1.14612 105.417-1.14554 105.417-1.14557 96.25ZM13.7503 103.934 0.000360892 131.434-13.7497 103.934Z" fill="#1D71B8" transform="matrix(6.12323e-17 1 1 -6.12323e-17 835 2311)"/><text font-family="Arial,Arial_MSFontService,sans-serif" font-weight="400" font-size="55" transform="matrix(1 0 0 1 1008.04 2331)">Cross</text><text font-family="Arial,Arial_MSFontService,sans-serif" font-weight="400" font-size="55" transform="matrix(1 0 0 1 1151.27 2331)">-</text><text font-family="Arial,Arial_MSFontService,sans-serif" font-weight="400" font-size="55" transform="matrix(1 0 0 1 1169.6 2331)">company communication</text><path d="M1.14583-3.14623e-06 1.14586 9.16666-1.14581 9.16667-1.14583 3.14623e-06ZM1.14588 16.0417 1.1459 25.2083-1.14576 25.2083-1.14579 16.0417ZM1.14592 32.0833 1.14595 41.25-1.14572 41.25-1.14575 32.0833ZM1.14597 48.125 1.14599 57.2917-1.14568 57.2917-1.1457 48.125ZM1.14601 64.1667 1.14603 73.3333-1.14563 73.3333-1.14566 64.1667ZM1.14605 80.2083 1.14608 89.375-1.14559 89.375-1.14561 80.2083ZM1.1461 96.25 1.14612 105.417-1.14554 105.417-1.14557 96.25ZM13.7503 103.934 0.000360892 131.434-13.7497 103.934Z" fill="#C00000" transform="matrix(6.12323e-17 1 1 -6.12323e-17 835 2189)"/><text font-family="Arial,Arial_MSFontService,sans-serif" font-weight="400" font-size="55" transform="matrix(1 0 0 1 1019.24 2209)">Communication within company borders</text><rect x="1291" y="1346" width="265" height="100" fill="#FFFFFF"/><text font-family="Arial,Arial_MSFontService,sans-serif" font-weight="700" font-size="55" transform="matrix(1 0 0 1 1324.11 1416)">Legend</text><rect x="1109" y="247" width="208" height="208" fill="#CC9900"/><path d="M1148 355C1148 319.102 1177.1 290 1213 290 1248.9 290 1278 319.102 1278 355 1278 390.899 1248.9 420 1213 420 1177.1 420 1148 390.899 1148 355Z" stroke="#000000" stroke-width="27.5" stroke-miterlimit="8" fill-rule="evenodd"/><path d="M1201 351C1201 344.373 1206.15 339 1212.5 339 1218.85 339 1224 344.373 1224 351 1224 357.627 1218.85 363 1212.5 363 1206.15 363 1201 357.627 1201 351Z" fill="#FFFFFF" fill-rule="evenodd"/><path d="M1213 420 1290.95 420" stroke="#000000" stroke-width="27.5" stroke-linecap="round" stroke-miterlimit="8" fill="none" fill-rule="evenodd"/><rect x="874.5" y="558.5" width="678" height="153" stroke="#00B0F0" stroke-width="6.875" stroke-miterlimit="8" fill="none"/><text font-family="Arial,Arial_MSFontService,sans-serif" font-weight="400" font-size="46" transform="matrix(1 0 0 1 976.868 642)">PCF Management Tool</text><rect x="811.5" y="220.5" width="803" height="577" stroke="#000000" stroke-width="3.4375" stroke-miterlimit="8" stroke-dasharray="13.75 10.3125" fill="none"/></g></svg>