<svg width="985" height="2171" xmlns="http://www.w3.org/2000/svg" xmlns:xlink="http://www.w3.org/1999/xlink" xml:space="preserve" overflow="hidden"><g transform="translate(-2518 -219)"><rect x="2519.5" y="220.5" width="982" height="2168" stroke="#000000" stroke-width="3.4375" stroke-miterlimit="8" stroke-dasharray="13.75 10.3125" fill="#FFFFFF"/><rect x="2906" y="247" width="208" height="208" fill="#EB780A"/><path d="M2981 351 2981 320 3039 351Z" fill-rule="evenodd"/><path d="M3031 351 3031 320 3080 351Z" fill-rule="evenodd"/><rect x="2932" y="351" width="156" height="78"/><rect x="2949" y="273" width="15.9998" height="78"/><rect x="2949" y="366" width="15.9998" height="15.9998" fill="#EB780A"/><rect x="2983" y="366" width="16.9998" height="15.9998" fill="#EB780A"/><rect x="3018" y="366" width="15.9998" height="15.9998" fill="#EB780A"/><rect x="3053" y="366" width="16.0002" height="15.9998" fill="#EB780A"/><rect x="2949" y="399" width="15.9998" height="15.9998" fill="#EB780A"/><rect x="2983" y="399" width="16.9998" height="15.9998" fill="#EB780A"/><rect x="3018" y="399" width="15.9998" height="15.9998" fill="#EB780A"/><rect x="3053" y="399" width="16.0002" height="15.9998" fill="#EB780A"/><text font-family="Arial,Arial_MSFontService,sans-serif" font-weight="400" font-size="55" transform="matrix(1 0 0 1 3031.77 2059)">Diverse Protocols</text><g><g><g><path d="M39 17.3333 39 190.667 169 190.667 169 64.103 122.23 17.3333ZM123.537 24.7672 161.566 62.7965C161.575 62.8049 161.574 62.8188 161.566 62.827 161.562 62.8309 161.557 62.8333 161.551 62.8333L123.5 62.8333 123.5 24.7823C123.5 24.7704 123.51 24.7609 123.522 24.7609 123.527 24.7611 123.533 24.7633 123.537 24.7672ZM43.3333 186.333 43.3333 21.6667 119.167 21.6667 119.167 67.1667 164.667 67.1667 164.667 186.333Z" transform="matrix(1.75 0 0 1 2965 1450)"/></g></g></g><text font-family="Arial,Arial_MSFontService,sans-serif" font-weight="400" font-size="55" transform="matrix(1 0 0 1 3040.82 1568)">OPC</text><text font-family="Arial,Arial_MSFontService,sans-serif" font-weight="400" font-size="55" transform="matrix(1 0 0 1 3159.99 1568)">-</text><text font-family="Arial,Arial_MSFontService,sans-serif" font-weight="400" font-size="55" transform="matrix(1 0 0 1 3178.32 1568)">UA</text><text font-family="Arial,Arial_MSFontService,sans-serif" font-weight="400" font-size="55" transform="matrix(1 0 0 1 3092.66 1634)">AAS</text><rect x="2674.5" y="554.5" width="672" height="153" stroke="#00B0F0" stroke-width="6.875" stroke-miterlimit="8" fill="none"/><text font-family="Arial,Arial_MSFontService,sans-serif" font-weight="400" font-size="46" transform="matrix(1 0 0 1 2774.35 638)">PCF Management Tool</text><rect x="2674.5" y="2202.5" width="672" height="140" stroke="#00B0F0" stroke-width="6.875" stroke-miterlimit="8" fill="none"/><text font-family="Arial,Arial_MSFontService,sans-serif" font-weight="400" font-size="46" transform="matrix(1 0 0 1 2912.42 2286)">Machines</text><path d="M1.14583-1.47254e-06 1.14585 9.16667-1.14582 9.16667-1.14583 1.47254e-06ZM1.14585 16.0417 1.14587 25.2083-1.1458 25.2083-1.14581 16.0417ZM1.14587 32.0833 1.14589 41.25-1.14578 41.25-1.14579 32.0833ZM1.1459 48.125 1.14591 57.2917-1.14576 57.2917-1.14577 48.125ZM1.14592 64.1667 1.14593 73.3333-1.14574 73.3333-1.14575 64.1667ZM1.14594 80.2083 1.14595 89.375-1.14572 89.375-1.14573 80.2083ZM1.14596 96.25 1.14597 105.417-1.1457 105.417-1.14571 96.25ZM1.14598 112.292 1.14599 121.458-1.14568 121.458-1.14569 112.292ZM1.146 128.333 1.14601 137.5-1.14566 137.5-1.14567 128.333ZM1.14602 144.375 1.14603 153.542-1.14564 153.542-1.14565 144.375ZM1.14604 160.417 1.14605 169.583-1.14562 169.583-1.14563 160.417ZM1.14606 176.458 1.14607 185.625-1.14559 185.625-1.14561 176.458ZM1.14608 192.5 1.14609 201.667-1.14557 201.667-1.14559 192.5ZM1.1461 208.542 1.14611 217.708-1.14555 217.708-1.14557 208.542ZM1.14612 224.583 1.14613 233.75-1.14553 233.75-1.14554 224.583ZM1.14614 240.625 1.14615 249.792-1.14551 249.792-1.14552 240.625ZM1.14616 256.667 1.14616 257.906-1.1455 257.906-1.1455 256.667ZM13.7503 253.322 0.000360892 280.822-13.7497 253.322Z" fill="#C00000" transform="matrix(1 0 0 -1 3010 2201.82)"/><rect x="2674.5" y="932.5" width="672" height="139" stroke="#00B0F0" stroke-width="6.875" stroke-miterlimit="8" fill="none"/><text font-family="Arial,Arial_MSFontService,sans-serif" font-weight="400" font-size="46" transform="matrix(1 0 0 1 2794.4 1016)">PCF Calculation Tool</text><path d="M1.14583-1.83965e-06 1.14585 9.16666-1.14582 9.16667-1.14583 1.83965e-06ZM1.14586 16.0417 1.14587 25.2083-1.14579 25.2083-1.14581 16.0417ZM1.14588 32.0833 1.1459 41.25-1.14577 41.25-1.14578 32.0833ZM1.14591 48.125 1.14593 57.2917-1.14574 57.2917-1.14576 48.125ZM1.14594 64.1667 1.14595 73.3333-1.14572 73.3333-1.14573 64.1667ZM1.14596 80.2083 1.14598 89.375-1.14569 89.375-1.1457 80.2083ZM1.14599 96.25 1.146 105.417-1.14566 105.417-1.14568 96.25ZM1.14601 112.292 1.14603 121.458-1.14564 121.458-1.14565 112.292ZM1.14604 128.333 1.14605 137.5-1.14561 137.5-1.14563 128.333ZM1.14607 144.375 1.14608 153.542-1.14559 153.542-1.1456 144.375ZM1.14609 160.417 1.14611 169.583-1.14556 169.583-1.14558 160.417ZM1.14612 176.458 1.14613 185.625-1.14554 185.625-1.14555 176.458ZM1.14614 192.5 1.14616 201.667-1.14551 201.667-1.14552 192.5ZM13.7503 197.283 0.000360892 224.783-13.7497 197.283Z" fill="#C00000" transform="matrix(1 0 0 -1 3010 931.783)"/><rect x="2674.5" y="1281.5" width="672" height="144" stroke="#00B0F0" stroke-width="6.875" stroke-miterlimit="8" fill="none"/><text font-family="Arial,Arial_MSFontService,sans-serif" font-weight="400" font-size="46" transform="matrix(1 0 0 1 2855.42 1365)">MES/ERP/AAS</text><rect x="2674.5" y="1725.5" width="672" height="196" stroke="#00B0F0" stroke-width="6.875" stroke-miterlimit="8" fill="none"/><text font-family="Arial,Arial_MSFontService,sans-serif" font-weight="400" font-size="46" transform="matrix(1 0 0 1 2779.78 1809)">Intermediate storage &amp; </text><text font-family="Arial,Arial_MSFontService,sans-serif" font-weight="400" font-size="46" transform="matrix(1 0 0 1 2698.73 1864)">Consumption</text><text font-family="Arial,Arial_MSFontService,sans-serif" font-weight="400" font-size="46" transform="matrix(1 0 0 1 2967.42 1864)">-</text><text font-family="Arial,Arial_MSFontService,sans-serif" font-weight="400" font-size="46" transform="matrix(1 0 0 1 2982.89 1864)">Aggregation App</text><path d="M1.14583-1.96916e-06 1.14585 9.16666-1.14582 9.16667-1.14583 1.96916e-06ZM1.14586 16.0417 1.14588 25.2083-1.14579 25.2083-1.14581 16.0417ZM1.14589 32.0833 1.1459 41.25-1.14576 41.25-1.14578 32.0833ZM1.14592 48.125 1.14593 57.2917-1.14573 57.2917-1.14575 48.125ZM1.14594 64.1667 1.14596 73.3333-1.14571 73.3333-1.14572 64.1667ZM1.14597 80.2083 1.14599 89.375-1.14568 89.375-1.1457 80.2083ZM1.146 96.25 1.14601 105.417-1.14565 105.417-1.14567 96.25ZM1.14603 112.292 1.14604 121.458-1.14562 121.458-1.14564 112.292ZM1.14605 128.333 1.14607 137.5-1.1456 137.5-1.14561 128.333ZM1.14608 144.375 1.1461 153.542-1.14557 153.542-1.14559 144.375ZM1.14611 160.417 1.14612 169.583-1.14554 169.583-1.14556 160.417ZM1.14614 176.458 1.14615 185.625-1.14551 185.625-1.14553 176.458ZM13.7503 182.5 0.000360892 210-13.7497 182.5Z" fill="#C00000" transform="matrix(1 0 0 -1 3010 1281)"/><path d="M1.14583-1.37808e-06 1.14584 9.16667-1.14582 9.16667-1.14583 1.37808e-06ZM1.14585 16.0417 1.14586 25.2083-1.1458 25.2083-1.14581 16.0417ZM1.14587 32.0833 1.14588 41.25-1.14578 41.25-1.14579 32.0833ZM1.14589 48.125 1.1459 57.2917-1.14576 57.2917-1.14578 48.125ZM1.14591 64.1667 1.14592 73.3333-1.14575 73.3333-1.14576 64.1667ZM1.14593 80.2083 1.14594 89.375-1.14573 89.375-1.14574 80.2083ZM1.14595 96.25 1.14596 105.417-1.14571 105.417-1.14572 96.25ZM1.14597 112.292 1.14598 121.458-1.14569 121.458-1.1457 112.292ZM1.14599 128.333 1.146 137.5-1.14567 137.5-1.14568 128.333ZM1.14601 144.375 1.14602 153.542-1.14565 153.542-1.14566 144.375ZM1.14603 160.417 1.14604 169.583-1.14563 169.583-1.14564 160.417ZM1.14605 176.458 1.14606 185.625-1.14561 185.625-1.14562 176.458ZM1.14606 192.5 1.14608 201.667-1.14559 201.667-1.1456 192.5ZM1.14608 208.542 1.1461 217.708-1.14557 217.708-1.14558 208.542ZM1.1461 224.583 1.14611 233.75-1.14555 233.75-1.14556 224.583ZM1.14612 240.625 1.14613 249.792-1.14553 249.792-1.14554 240.625ZM1.14614 256.667 1.14615 265.833-1.14551 265.833-1.14552 256.667ZM1.14616 272.708 1.14617 277.155-1.1455 277.155-1.14551 272.708ZM13.7503 272.572 0.000360892 300.072-13.7497 272.572Z" fill="#C00000" transform="matrix(1 0 0 -1 3010 1725.07)"/></g></svg>