<svg width="3023" height="2178" xmlns="http://www.w3.org/2000/svg" xmlns:xlink="http://www.w3.org/1999/xlink" xml:space="preserve" overflow="hidden"><g transform="translate(-808 -213)"><rect x="810" y="213" width="3019" height="2168" fill="#FFFFFF"/><rect x="2890" y="247" width="208" height="208" fill="#EB780A"/><path d="M2965 351 2965 320 3022 351Z" fill-rule="evenodd"/><path d="M3014 351 3014 320 3063 351Z" fill-rule="evenodd"/><rect x="2916" y="351" width="156" height="78"/><rect x="2932" y="273" width="17.0002" height="78"/><rect x="2932" y="366" width="17.0002" height="15.9998" fill="#EB780A"/><rect x="2967" y="366" width="16.0002" height="15.9998" fill="#EB780A"/><rect x="3002" y="366" width="16.0002" height="15.9998" fill="#EB780A"/><rect x="3036" y="366" width="16.9998" height="15.9998" fill="#EB780A"/><rect x="2932" y="399" width="17.0002" height="15.9998" fill="#EB780A"/><rect x="2967" y="399" width="16.0002" height="15.9998" fill="#EB780A"/><rect x="3002" y="399" width="16.0002" height="15.9998" fill="#EB780A"/><rect x="3036" y="399" width="16.9998" height="15.9998" fill="#EB780A"/><text font-family="Arial,Arial_MSFontService,sans-serif" font-weight="400" font-size="55" transform="matrix(1 0 0 1 3033.5 2078)">Diverse Protocols</text><g><g><g><path d="M39 17.3333 39 190.667 169 190.667 169 64.103 122.23 17.3333ZM123.537 24.7672 161.566 62.7965C161.575 62.8049 161.574 62.8188 161.566 62.827 161.562 62.8309 161.557 62.8333 161.551 62.8333L123.5 62.8333 123.5 24.7823C123.5 24.7704 123.51 24.7609 123.522 24.7609 123.527 24.7611 123.533 24.7633 123.537 24.7672ZM43.3333 186.333 43.3333 21.6667 119.167 21.6667 119.167 67.1667 164.667 67.1667 164.667 186.333Z" transform="matrix(1.75 0 0 1 2965 1450)"/></g></g></g><text font-family="Arial,Arial_MSFontService,sans-serif" font-weight="400" font-size="55" transform="matrix(1 0 0 1 3040.82 1568)">OPC</text><text font-family="Arial,Arial_MSFontService,sans-serif" font-weight="400" font-size="55" transform="matrix(1 0 0 1 3159.99 1568)">-</text><text font-family="Arial,Arial_MSFontService,sans-serif" font-weight="400" font-size="55" transform="matrix(1 0 0 1 3178.32 1568)">UA</text><text font-family="Arial,Arial_MSFontService,sans-serif" font-weight="400" font-size="55" transform="matrix(1 0 0 1 3092.66 1634)">AAS</text><rect x="2519.5" y="220.5" width="1310" height="2168" stroke="#000000" stroke-width="3.4375" stroke-miterlimit="8" stroke-dasharray="13.75 10.3125" fill="none"/><rect x="2657.5" y="554.5" width="549" height="153" stroke="#00B0F0" stroke-width="6.875" stroke-miterlimit="8" fill="none"/><text font-family="Arial,Arial_MSFontService,sans-serif" font-weight="400" font-size="46" transform="matrix(1 0 0 1 2695.81 638)">PCF Management Tool</text><rect x="2657.5" y="2202.5" width="549" height="140" stroke="#00B0F0" stroke-width="6.875" stroke-miterlimit="8" fill="none"/><text font-family="Arial,Arial_MSFontService,sans-serif" font-weight="400" font-size="46" transform="matrix(1 0 0 1 2833.88 2286)">Machines</text><path d="M1.14583-1.47254e-06 1.14585 9.16667-1.14582 9.16667-1.14583 1.47254e-06ZM1.14585 16.0417 1.14587 25.2083-1.1458 25.2083-1.14581 16.0417ZM1.14587 32.0833 1.14589 41.25-1.14578 41.25-1.14579 32.0833ZM1.1459 48.125 1.14591 57.2917-1.14576 57.2917-1.14577 48.125ZM1.14592 64.1667 1.14593 73.3333-1.14574 73.3333-1.14575 64.1667ZM1.14594 80.2083 1.14595 89.375-1.14572 89.375-1.14573 80.2083ZM1.14596 96.25 1.14597 105.417-1.1457 105.417-1.14571 96.25ZM1.14598 112.292 1.14599 121.458-1.14568 121.458-1.14569 112.292ZM1.146 128.333 1.14601 137.5-1.14566 137.5-1.14567 128.333ZM1.14602 144.375 1.14603 153.542-1.14564 153.542-1.14565 144.375ZM1.14604 160.417 1.14605 169.583-1.14562 169.583-1.14563 160.417ZM1.14606 176.458 1.14607 185.625-1.14559 185.625-1.14561 176.458ZM1.14608 192.5 1.14609 201.667-1.14557 201.667-1.14559 192.5ZM1.1461 208.542 1.14611 217.708-1.14555 217.708-1.14557 208.542ZM1.14612 224.583 1.14613 233.75-1.14553 233.75-1.14554 224.583ZM1.14614 240.625 1.14615 249.792-1.14551 249.792-1.14552 240.625ZM1.14616 256.667 1.14616 257.906-1.1455 257.906-1.1455 256.667ZM13.7503 253.322 0.000360892 280.822-13.7497 253.322Z" fill="#C00000" transform="matrix(1 0 0 -1 2932 2201.82)"/><rect x="2657.5" y="932.5" width="549" height="139" stroke="#00B0F0" stroke-width="6.875" stroke-miterlimit="8" fill="none"/><text font-family="Arial,Arial_MSFontService,sans-serif" font-weight="400" font-size="46" transform="matrix(1 0 0 1 2715.86 1016)">PCF Calculation Tool</text><path d="M1.14583-1.83965e-06 1.14585 9.16666-1.14582 9.16667-1.14583 1.83965e-06ZM1.14586 16.0417 1.14587 25.2083-1.14579 25.2083-1.14581 16.0417ZM1.14588 32.0833 1.1459 41.25-1.14577 41.25-1.14578 32.0833ZM1.14591 48.125 1.14593 57.2917-1.14574 57.2917-1.14576 48.125ZM1.14594 64.1667 1.14595 73.3333-1.14572 73.3333-1.14573 64.1667ZM1.14596 80.2083 1.14598 89.375-1.14569 89.375-1.1457 80.2083ZM1.14599 96.25 1.146 105.417-1.14566 105.417-1.14568 96.25ZM1.14601 112.292 1.14603 121.458-1.14564 121.458-1.14565 112.292ZM1.14604 128.333 1.14605 137.5-1.14561 137.5-1.14563 128.333ZM1.14607 144.375 1.14608 153.542-1.14559 153.542-1.1456 144.375ZM1.14609 160.417 1.14611 169.583-1.14556 169.583-1.14558 160.417ZM1.14612 176.458 1.14613 185.625-1.14554 185.625-1.14555 176.458ZM1.14614 192.5 1.14616 201.667-1.14551 201.667-1.14552 192.5ZM13.7503 197.283 0.000360892 224.783-13.7497 197.283Z" fill="#C00000" transform="matrix(1 0 0 -1 2932 931.783)"/><rect x="2656.5" y="1281.5" width="550" height="144" stroke="#00B0F0" stroke-width="6.875" stroke-miterlimit="8" fill="none"/><text font-family="Arial,Arial_MSFontService,sans-serif" font-weight="400" font-size="46" transform="matrix(1 0 0 1 2776.1 1365)">MES/ERP/AAS</text><rect x="2657.5" y="1725.5" width="549" height="196" stroke="#00B0F0" stroke-width="6.875" stroke-miterlimit="8" fill="none"/><text font-family="Arial,Arial_MSFontService,sans-serif" font-weight="400" font-size="46" transform="matrix(1 0 0 1 2701.25 1809)">Intermediate storage &amp; </text><text font-family="Arial,Arial_MSFontService,sans-serif" font-weight="400" font-size="46" transform="matrix(1 0 0 1 2666.88 1864)">Consumption</text><text font-family="Arial,Arial_MSFontService,sans-serif" font-weight="400" font-size="46" transform="matrix(1 0 0 1 2935.57 1864)">-</text><text font-family="Arial,Arial_MSFontService,sans-serif" font-weight="400" font-size="46" transform="matrix(1 0 0 1 2951.04 1864)">Aggregation </text><text font-family="Arial,Arial_MSFontService,sans-serif" font-weight="400" font-size="46" transform="matrix(1 0 0 1 2891.18 1919)">App</text><path d="M1.14583-0.00423563 1.17971 9.16237-1.11194 9.17084-1.14583 0.00423563ZM1.20512 16.0373 1.23901 25.2039-1.05264 25.2124-1.08653 16.0458ZM1.26442 32.0789 1.29831 41.2455-0.993343 41.254-1.02723 32.0873ZM1.32372 48.1204 1.35761 57.287-0.934044 57.2955-0.967929 48.1289ZM1.38302 64.162 1.41691 73.3286-0.874745 73.3371-0.90863 64.1705ZM1.44232 80.2036 1.4762 89.3702-0.815446 89.3786-0.849331 80.212ZM1.50162 96.2451 1.5355 105.412-0.756148 105.42-0.790033 96.2536ZM1.56092 112.287 1.5948 121.453-0.696849 121.462-0.730734 112.295ZM1.62022 128.328 1.6541 137.495-0.63755 137.503-0.671435 128.337ZM1.67951 144.37 1.7134 153.536-0.578251 153.545-0.612136 144.378ZM1.73881 160.411 1.7727 169.578-0.518952 169.586-0.552837 160.42ZM1.79811 176.453 1.832 185.619-0.459653 185.628-0.493538 176.461ZM14.4245 182.449 0.77628 210-13.0753 182.551Z" fill="#C00000" transform="matrix(1 0 0 -1 2931 1281)"/><path d="M2930.63 1725.07 2930.61 1715.91 2932.9 1715.9 2932.92 1725.07ZM2930.59 1709.03 2930.57 1699.87 2932.86 1699.86 2932.88 1709.03ZM2930.55 1692.99 2930.52 1683.82 2932.82 1683.82 2932.84 1692.99ZM2930.51 1676.95 2930.48 1667.78 2932.77 1667.78 2932.8 1676.94ZM2930.46 1660.91 2930.44 1651.74 2932.73 1651.74 2932.76 1660.9ZM2930.42 1644.87 2930.4 1635.7 2932.69 1635.69 2932.71 1644.86ZM2930.38 1628.83 2930.36 1619.66 2932.65 1619.65 2932.67 1628.82ZM2930.34 1612.78 2930.32 1603.62 2932.61 1603.61 2932.63 1612.78ZM2930.3 1596.74 2930.27 1587.58 2932.57 1587.57 2932.59 1596.74ZM2930.26 1580.7 2930.23 1571.53 2932.52 1571.53 2932.55 1580.69ZM2930.22 1564.66 2930.19 1555.49 2932.48 1555.49 2932.51 1564.65ZM2930.17 1548.62 2930.15 1539.45 2932.44 1539.44 2932.47 1548.61ZM2930.13 1532.58 2930.11 1523.41 2932.4 1523.4 2932.42 1532.57ZM2930.09 1516.53 2930.07 1507.37 2932.36 1507.36 2932.38 1516.53ZM2930.05 1500.49 2930.03 1491.33 2932.32 1491.32 2932.34 1500.49ZM2930.01 1484.45 2929.98 1475.28 2932.28 1475.28 2932.3 1484.44ZM2929.97 1468.41 2929.94 1459.24 2932.23 1459.24 2932.26 1468.4ZM2929.93 1452.37 2929.91 1447.92 2932.21 1447.91 2932.22 1452.36ZM2917.32 1452.54 2931 1425 2944.82 1452.46Z" fill="#C00000"/><rect x="2408" y="857" width="213" height="138" fill="#FFFFFF"/><path d="M0.00150938-1.14583 9.16817-1.13376 9.16515 1.15791-0.00150938 1.14583ZM16.0432-1.1247 25.2098-1.11263 25.2068 1.17904 16.0401 1.16696ZM32.0848-1.10357 41.2515-1.09149 41.2485 1.20017 32.0818 1.18809ZM48.1265-1.08244 57.2931-1.07036 57.2901 1.2213 48.1234 1.20923ZM64.1681-1.06131 73.3348-1.04923 73.3318 1.24243 64.1651 1.23036ZM80.2098-1.04018 89.3764-1.0281 89.3734 1.26356 80.2067 1.25149ZM96.2514-1.01904 105.418-1.00697 105.415 1.2847 96.2484 1.27262ZM112.293-0.997913 121.46-0.985838 121.457 1.30583 112.29 1.29375ZM128.335-0.976782 137.501-0.964707 137.498 1.32696 128.332 1.31488ZM144.376-0.955651 153.543-0.943576 153.54 1.34809 144.373 1.33601ZM160.418-0.934519 169.585-0.922444 169.582 1.36922 160.415 1.35715ZM176.46-0.913388 185.626-0.901313 185.623 1.39035 176.457 1.37828ZM192.501-0.892257 201.668-0.880182 201.665 1.41148 192.498 1.39941ZM208.543-0.871126 217.71-0.85905 217.707 1.43261 208.54 1.42054ZM224.585-0.849994 233.751-0.837919 233.748 1.45375 224.582 1.44167ZM240.626-0.828863 249.793-0.816788 249.79 1.47488 240.623 1.4628ZM256.668-0.807732 265.835-0.795657 265.832 1.49601 256.665 1.48393ZM272.71-0.7866 276.533-0.781564 276.53 1.5101 272.707 1.50506ZM271.966-13.3918 299.448 0.394455 271.929 14.1082Z" fill="#1D71B8" transform="matrix(1 0 0 -1 2357 1002.39)"/><text font-family="Arial,Arial_MSFontService,sans-serif" font-weight="400" font-size="55" transform="matrix(1 0 0 1 2444.05 957)">iLeap</text><rect x="1776.5" y="932.5" width="581" height="140" stroke="#00B0F0" stroke-width="6.875" stroke-miterlimit="8" fill="none"/><text font-family="Arial,Arial_MSFontService,sans-serif" font-weight="400" font-size="46" transform="matrix(1 0 0 1 1886.52 1016)">Logistics Platform</text><rect x="1963" y="612" width="208" height="207" fill="#C1D100"/><g><g><g><path d="M2028.66 747.938C2028.66 754.904 2023.01 760.552 2016.04 760.552 2009.07 760.552 2003.43 754.904 2003.43 747.938 2003.43 740.971 2009.07 735.323 2016.04 735.323 2023.01 735.323 2028.66 740.971 2028.66 747.938Z"/><path d="M2133.18 747.938C2133.18 754.904 2127.53 760.552 2120.56 760.552 2113.6 760.552 2107.95 754.904 2107.95 747.938 2107.95 740.971 2113.6 735.323 2120.56 735.323 2127.53 735.323 2133.18 740.971 2133.18 747.938Z"/><path d="M1987.21 672.25 2088.12 672.25 2088.12 715.5 1987.21 715.5Z"/><path d="M2102.54 690.271 2113.35 690.271C2116.6 690.271 2119.48 692.433 2120.2 695.497L2123.81 707.931C2123.81 708.111 2123.99 708.111 2123.99 708.292L2102.54 708.292 2102.54 690.271ZM2113.35 683.062 2095.33 683.062 2095.33 708.292 2095.33 719.104 2095.33 747.938 2102.54 747.938C2102.54 738.026 2110.65 729.917 2120.56 729.917 2130.47 729.917 2138.58 738.026 2138.58 747.938 2142.55 747.938 2145.79 744.694 2145.79 740.729L2145.79 722.708C2145.79 720.366 2144.71 718.383 2142.91 716.942L2133.36 709.733C2132.1 708.832 2131.19 707.391 2130.83 705.949L2127.23 693.515C2125.43 687.388 2119.66 683.062 2113.35 683.062Z"/><path d="M2088.12 747.938 2034.06 747.938C2034.06 738.026 2025.95 729.917 2016.04 729.917 2006.13 729.917 1998.02 738.026 1998.02 747.938L1987.21 747.938 1987.21 722.708 2088.12 722.708 2088.12 747.938Z"/></g></g></g><path d="M2068.15 819 2068.15 828.167 2065.85 828.167 2065.85 819ZM2068.15 835.042 2068.15 844.208 2065.85 844.208 2065.85 835.042ZM2068.15 851.083 2068.15 860.25 2065.85 860.25 2065.85 851.083ZM2068.15 867.125 2068.15 876.292 2065.85 876.292 2065.85 867.125ZM2068.15 883.167 2068.15 892.333 2065.85 892.333 2065.85 883.167ZM2068.15 899.208 2068.15 908.375 2065.85 908.375 2065.85 899.208ZM2080.75 904.286 2067 931.786 2053.25 904.286Z" fill="#1D71B8"/><g><g><g><path d="M25.875 11.5 25.875 126.5 112.125 126.5 112.125 42.5299 81.0952 11.5ZM81.9621 16.4321 107.193 41.6631C107.199 41.6687 107.199 41.6779 107.193 41.6834 107.19 41.686 107.187 41.6876 107.183 41.6876L81.9376 41.6876 81.9376 16.4421C81.9378 16.4342 81.9442 16.4279 81.9521 16.4279 81.9559 16.4281 81.9595 16.4295 81.9621 16.4321ZM28.75 123.625 28.75 14.375 79.0626 14.375 79.0626 44.5626 109.25 44.5626 109.25 123.625Z" transform="matrix(2.3913 0 0 1 2347 857)"/></g></g></g><rect x="810.5" y="1394.5" width="1227" height="994" stroke="#062C4C" stroke-width="4.58333" stroke-miterlimit="8" fill="none"/><g><g><g><path d="M15.5625 6.91665 15.5625 76.0832 67.4374 76.0832 67.4374 25.5795 48.7745 6.91665ZM49.2958 9.88303 64.471 25.0582C64.4744 25.0615 64.4743 25.0671 64.4709 25.0704 64.4693 25.0719 64.4672 25.0729 64.4649 25.0729L49.2812 25.0729 49.2812 9.88908C49.2812 9.88433 49.2851 9.88053 49.2899 9.88053 49.2921 9.88061 49.2943 9.88148 49.2958 9.88303ZM17.2916 74.354 17.2916 8.64582 47.552 8.64582 47.552 26.802 65.7082 26.802 65.7082 74.354Z" transform="matrix(2 0 0 1 835 1463)"/></g></g></g><text font-family="Arial,Arial_MSFontService,sans-serif" font-weight="400" font-size="55" transform="matrix(1 0 0 1 1038.24 1524)">Data format</text><rect x="835" y="1576" width="123" height="125" fill="#CC9900"/><path d="M858 1641C858 1619.46 875.237 1602 896.5 1602 917.763 1602 935 1619.46 935 1641 935 1662.54 917.763 1680 896.5 1680 875.237 1680 858 1662.54 858 1641Z" stroke="#000000" stroke-width="27.5" stroke-miterlimit="8" fill-rule="evenodd"/><path d="M890 1639C890 1635.13 892.91 1632 896.5 1632 900.09 1632 903 1635.13 903 1639 903 1642.87 900.09 1646 896.5 1646 892.91 1646 890 1642.87 890 1639Z" fill="#FFFFFF" fill-rule="evenodd"/><path d="M897 1680 943.231 1680" stroke="#000000" stroke-width="27.5" stroke-linecap="round" stroke-miterlimit="8" fill="none" fill-rule="evenodd"/><text font-family="Arial,Arial_MSFontService,sans-serif" font-weight="400" font-size="55" transform="matrix(1 0 0 1 1003.08 1658)">Supplier</text><rect x="835" y="1723" width="123" height="125" fill="#EB780A"/><path d="M879 1786 879 1767 914 1786Z" fill-rule="evenodd"/><path d="M909 1786 909 1767 938 1786Z" fill-rule="evenodd"/><rect x="850" y="1786" width="92.9998" height="46.9998"/><rect x="860" y="1739" width="9.99994" height="47.0001"/><rect x="860" y="1795" width="9.99994" height="10" fill="#EB780A"/><rect x="881" y="1795" width="8.99994" height="10" fill="#EB780A"/><rect x="901" y="1795" width="9.99994" height="10" fill="#EB780A"/><rect x="922" y="1795" width="8.99994" height="10" fill="#EB780A"/><rect x="860" y="1815" width="9.99994" height="8.99988" fill="#EB780A"/><rect x="881" y="1815" width="8.99994" height="8.99988" fill="#EB780A"/><rect x="901" y="1815" width="9.99994" height="8.99988" fill="#EB780A"/><rect x="922" y="1815" width="8.99994" height="8.99988" fill="#EB780A"/><text font-family="Arial,Arial_MSFontService,sans-serif" font-weight="400" font-size="55" transform="matrix(1 0 0 1 1010.88 1805)">Factory Operator</text><rect x="835" y="1870" width="123" height="125" fill="#C1D100"/><g><g><g><path d="M28.9688 70.8126C28.9688 74.9605 25.6063 78.323 21.4584 78.323 17.3105 78.323 13.9479 74.9605 13.9479 70.8126 13.9479 66.6647 17.3105 63.3022 21.4584 63.3022 25.6063 63.3022 28.9688 66.6647 28.9688 70.8126Z" transform="matrix(1 0 0 1.00971 845 1881)"/><path d="M91.198 70.8126C91.198 74.9605 87.8355 78.323 83.6876 78.323 79.5397 78.323 76.1772 74.9605 76.1772 70.8126 76.1772 66.6647 79.5397 63.3022 83.6876 63.3022 87.8355 63.3022 91.198 66.6647 91.198 70.8126Z" transform="matrix(1 0 0 1.00971 845 1881)"/><path d="M4.29167 25.75 64.3751 25.75 64.3751 51.5001 4.29167 51.5001Z" transform="matrix(1 0 0 1.00971 845 1881)"/><path d="M72.9584 36.4792 79.3959 36.4792C81.3272 36.4792 83.0439 37.7667 83.473 39.5907L85.6189 46.9938C85.6189 47.1011 85.7262 47.1011 85.7262 47.2084L72.9584 47.2084 72.9584 36.4792ZM79.3959 32.1875 68.6668 32.1875 68.6668 47.2084 68.6668 53.6459 68.6668 70.8126 72.9584 70.8126C72.9584 64.9115 77.7866 60.0834 83.6876 60.0834 89.5887 60.0834 94.4168 64.9115 94.4168 70.8126 96.7772 70.8126 98.7085 68.8813 98.7085 66.5209L98.7085 55.7917C98.7085 54.3969 98.0647 53.2167 96.9918 52.3584L91.3053 48.0667C90.5543 47.5303 90.0178 46.6719 89.8032 45.8136L87.6574 38.4105C86.5845 34.7625 83.1511 32.1875 79.3959 32.1875Z" transform="matrix(1 0 0 1.00971 845 1881)"/><path d="M64.3751 70.8126 32.1875 70.8126C32.1875 64.9115 27.3594 60.0834 21.4584 60.0834 15.5573 60.0834 10.7292 64.9115 10.7292 70.8126L4.29167 70.8126 4.29167 55.7917 64.3751 55.7917 64.3751 70.8126Z" transform="matrix(1 0 0 1.00971 845 1881)"/></g></g></g><text font-family="Arial,Arial_MSFontService,sans-serif" font-weight="400" font-size="55" transform="matrix(1 0 0 1 1012.11 1952)">Logistics company</text><rect x="835.5" y="2026.5" width="126" height="83.0001" stroke="#000000" stroke-width="3.4375" stroke-miterlimit="8" stroke-dasharray="13.75 10.3125" fill="none"/><text font-family="Arial,Arial_MSFontService,sans-serif" font-weight="400" font-size="55" transform="matrix(1 0 0 1 1014.34 2087)">Company “border”</text><path d="M1.14583-3.14623e-06 1.14586 9.16666-1.14581 9.16667-1.14583 3.14623e-06ZM1.14588 16.0417 1.1459 25.2083-1.14576 25.2083-1.14579 16.0417ZM1.14592 32.0833 1.14595 41.25-1.14572 41.25-1.14575 32.0833ZM1.14597 48.125 1.14599 57.2917-1.14568 57.2917-1.1457 48.125ZM1.14601 64.1667 1.14603 73.3333-1.14563 73.3333-1.14566 64.1667ZM1.14605 80.2083 1.14608 89.375-1.14559 89.375-1.14561 80.2083ZM1.1461 96.25 1.14612 105.417-1.14554 105.417-1.14557 96.25ZM13.7503 103.934 0.000360892 131.434-13.7497 103.934Z" fill="#1D71B8" transform="matrix(6.12323e-17 1 1 -6.12323e-17 835 2311)"/><text font-family="Arial,Arial_MSFontService,sans-serif" font-weight="400" font-size="55" transform="matrix(1 0 0 1 1008.04 2331)">Cross</text><text font-family="Arial,Arial_MSFontService,sans-serif" font-weight="400" font-size="55" transform="matrix(1 0 0 1 1151.27 2331)">-</text><text font-family="Arial,Arial_MSFontService,sans-serif" font-weight="400" font-size="55" transform="matrix(1 0 0 1 1169.6 2331)">company communication</text><path d="M1.14583-3.14623e-06 1.14586 9.16666-1.14581 9.16667-1.14583 3.14623e-06ZM1.14588 16.0417 1.1459 25.2083-1.14576 25.2083-1.14579 16.0417ZM1.14592 32.0833 1.14595 41.25-1.14572 41.25-1.14575 32.0833ZM1.14597 48.125 1.14599 57.2917-1.14568 57.2917-1.1457 48.125ZM1.14601 64.1667 1.14603 73.3333-1.14563 73.3333-1.14566 64.1667ZM1.14605 80.2083 1.14608 89.375-1.14559 89.375-1.14561 80.2083ZM1.1461 96.25 1.14612 105.417-1.14554 105.417-1.14557 96.25ZM13.7503 103.934 0.000360892 131.434-13.7497 103.934Z" fill="#C00000" transform="matrix(6.12323e-17 1 1 -6.12323e-17 835 2189)"/><text font-family="Arial,Arial_MSFontService,sans-serif" font-weight="400" font-size="55" transform="matrix(1 0 0 1 1019.24 2209)">Communication within company borders</text><rect x="1291" y="1346" width="265" height="100" fill="#FFFFFF"/><text font-family="Arial,Arial_MSFontService,sans-serif" font-weight="700" font-size="55" transform="matrix(1 0 0 1 1324.11 1416)">Legend</text><rect x="1109" y="247" width="208" height="208" fill="#CC9900"/><path d="M1148 355C1148 319.102 1177.1 290 1213 290 1248.9 290 1278 319.102 1278 355 1278 390.899 1248.9 420 1213 420 1177.1 420 1148 390.899 1148 355Z" stroke="#000000" stroke-width="27.5" stroke-miterlimit="8" fill-rule="evenodd"/><path d="M1201 351C1201 344.373 1206.15 339 1212.5 339 1218.85 339 1224 344.373 1224 351 1224 357.627 1218.85 363 1212.5 363 1206.15 363 1201 357.627 1201 351Z" fill="#FFFFFF" fill-rule="evenodd"/><path d="M1213 420 1290.95 420" stroke="#000000" stroke-width="27.5" stroke-linecap="round" stroke-miterlimit="8" fill="none" fill-rule="evenodd"/><rect x="874.5" y="558.5" width="678" height="153" stroke="#00B0F0" stroke-width="6.875" stroke-miterlimit="8" fill="none"/><text font-family="Arial,Arial_MSFontService,sans-serif" font-weight="400" font-size="46" transform="matrix(1 0 0 1 976.868 642)">PCF Management Tool</text><rect x="811.5" y="220.5" width="803" height="978" stroke="#000000" stroke-width="3.4375" stroke-miterlimit="8" stroke-dasharray="13.75 10.3125" fill="none"/><rect x="1118.5" y="926.5" width="325" height="152" stroke="#000000" stroke-width="6.875" stroke-miterlimit="8" fill="none"/><text font-family="Arial,Arial_MSFontService,sans-serif" font-weight="400" font-size="46" transform="matrix(1 0 0 1 1233.37 1009)">ERP</text><path d="M1443 1000.85 1452.17 1000.85 1452.17 1003.15 1443 1003.15ZM1459.04 1000.85 1468.21 1000.85 1468.21 1003.15 1459.04 1003.15ZM1475.08 1000.85 1484.25 1000.85 1484.25 1003.15 1475.08 1003.15ZM1491.13 1000.85 1500.29 1000.85 1500.29 1003.15 1491.13 1003.15ZM1507.17 1000.85 1516.33 1000.85 1516.33 1003.15 1507.17 1003.15ZM1523.21 1000.85 1532.38 1000.85 1532.38 1003.15 1523.21 1003.15ZM1539.25 1000.85 1548.42 1000.85 1548.42 1003.15 1539.25 1003.15ZM1555.29 1000.85 1564.46 1000.85 1564.46 1003.15 1555.29 1003.15ZM1571.33 1000.85 1580.5 1000.85 1580.5 1003.15 1571.33 1003.15ZM1587.38 1000.85 1596.54 1000.85 1596.54 1003.15 1587.38 1003.15ZM1603.42 1000.85 1612.58 1000.85 1612.58 1003.15 1603.42 1003.15ZM1619.46 1000.85 1628.63 1000.85 1628.63 1003.15 1619.46 1003.15ZM1635.5 1000.85 1644.67 1000.85 1644.67 1003.15 1635.5 1003.15ZM1651.54 1000.85 1660.71 1000.85 1660.71 1003.15 1651.54 1003.15ZM1667.58 1000.85 1676.75 1000.85 1676.75 1003.15 1667.58 1003.15ZM1683.63 1000.85 1692.79 1000.85 1692.79 1003.15 1683.63 1003.15ZM1699.67 1000.85 1708.83 1000.85 1708.83 1003.15 1699.67 1003.15ZM1715.71 1000.85 1724.88 1000.85 1724.88 1003.15 1715.71 1003.15ZM1731.75 1000.85 1740.92 1000.85 1740.92 1003.15 1731.75 1003.15ZM1747.79 1000.85 1753.76 1000.85 1753.76 1003.15 1747.79 1003.15ZM1749.17 988.25 1776.67 1002 1749.17 1015.75Z" fill="#1D71B8"/><rect x="1065" y="854" width="2713" height="245" stroke="#C1D100" stroke-width="13.75" stroke-miterlimit="8" stroke-dasharray="55 41.25" fill="none"/><rect x="3414.5" y="932.5" width="324" height="139" stroke="#000000" stroke-width="6.875" stroke-miterlimit="8" fill="none"/><text font-family="Arial,Arial_MSFontService,sans-serif" font-weight="400" font-size="46" transform="matrix(1 0 0 1 3529.03 1016)">ERP</text><path d="M1.99457e-06-1.14583 9.16667-1.14582 9.16666 1.14585-1.99457e-06 1.14583ZM16.0417-1.14581 25.2083-1.14579 25.2083 1.14588 16.0417 1.14586ZM32.0833-1.14578 41.25-1.14576 41.25 1.14591 32.0833 1.14589ZM48.125-1.14575 57.2917-1.14573 57.2917 1.14593 48.125 1.14592ZM64.1667-1.14572 73.3333-1.14571 73.3333 1.14596 64.1667 1.14595ZM80.2083-1.14569 89.375-1.14568 89.375 1.14599 80.2083 1.14597ZM96.25-1.14567 105.417-1.14565 105.417 1.14602 96.25 1.146ZM112.292-1.14564 121.458-1.14562 121.458 1.14604 112.292 1.14603ZM128.333-1.14561 137.5-1.14559 137.5 1.14607 128.333 1.14606ZM144.375-1.14558 153.542-1.14557 153.542 1.1461 144.375 1.14608ZM160.417-1.14555 169.583-1.14554 169.583 1.14613 160.417 1.14611ZM176.458-1.14553 184.408-1.14551 184.408 1.14615 176.458 1.14614ZM179.824-13.7497 207.324 0.000360892 179.824 13.7503Z" fill="#C00000" transform="matrix(-1 0 0 1 3413.32 1002)"/></g></svg>