<?xml version="1.0" encoding="UTF-8"?>
<?xml-stylesheet href="https://cdnjs.cloudflare.com/ajax/libs/font-awesome/6.5.2/css/all.min.css" type="text/css"?>
<svg aria-roledescription="xychart" role="graphics-document document" viewBox="0 0 1200 700" style="max-width: 100%;" xmlns="http://www.w3.org/2000/svg" width="100%" id="graph-div" height="100%" xmlns:xlink="http://www.w3.org/1999/xlink"><style>#graph-div{font-family:"trebuchet ms",verdana,arial,sans-serif;font-size:16px;fill:#ccc;}#graph-div .error-icon{fill:#a44141;}#graph-div .error-text{fill:#ddd;stroke:#ddd;}#graph-div .edge-thickness-normal{stroke-width:2px;}#graph-div .edge-thickness-thick{stroke-width:3.5px;}#graph-div .edge-pattern-solid{stroke-dasharray:0;}#graph-div .edge-pattern-dashed{stroke-dasharray:3;}#graph-div .edge-pattern-dotted{stroke-dasharray:2;}#graph-div .marker{fill:lightgrey;stroke:lightgrey;}#graph-div .marker.cross{stroke:lightgrey;}#graph-div svg{font-family:"trebuchet ms",verdana,arial,sans-serif;font-size:16px;}#graph-div :root{--mermaid-font-family:"trebuchet ms",verdana,arial,sans-serif;}</style><g></g><g class="main"><rect fill="#000000" class="background" height="700" width="1200"></rect><g class="chart-title"><text transform="translate(600, 21.666666984558105) rotate(0)" text-anchor="middle" dominant-baseline="middle" font-size="20" fill="#F4F2F3" y="0" x="0">Example: Demand and Capacity Data Matching and Comparison within Capacity Group</text></g><g class="plot"><g class="bar-plot-0"><rect stroke-width="0" stroke="#FFA600" fill="#FFA600" height="311.4999990463257" width="89.3" y="354.8333330154419" x="79.15312919616699"></rect><rect stroke-width="0" stroke="#FFA600" fill="#FFA600" height="311.4999990463257" width="89.3" y="354.8333330154419" x="226.18125359671453"></rect><rect stroke-width="0" stroke="#FFA600" fill="#FFA600" height="311.4999990463257" width="89.3" y="354.8333330154419" x="373.20937799726215"></rect><rect stroke-width="0" stroke="#FFA600" fill="#FFA600" height="311.4999990463257" width="89.3" y="354.8333330154419" x="520.2375023978097"></rect><rect stroke-width="0" stroke="#FFA600" fill="#FFA600" height="412.55555407206214" width="89.3" y="253.7777779897054" x="667.2656267983573"></rect><rect stroke-width="0" stroke="#FFA600" fill="#FFA600" height="412.55555407206214" width="89.3" y="253.7777779897054" x="814.2937511989048"></rect><rect stroke-width="0" stroke="#FFA600" fill="#FFA600" height="412.55555407206214" width="89.3" y="253.7777779897054" x="961.3218755994525"></rect><rect stroke-width="0" stroke="#FFA600" fill="#FFA600" height="513.6111090977987" width="89.3" y="152.7222229639689" x="1108.35"></rect></g><g class="bar-plot-1"><rect stroke-width="0" stroke="#d91e18" fill="#d91e18" height="8.333333969116211" width="89.3" y="657.9999980926514" x="79.15312919616699"></rect><rect stroke-width="0" stroke="#d91e18" fill="#d91e18" height="8.333333969116211" width="89.3" y="657.9999980926514" x="226.18125359671453"></rect><rect stroke-width="0" stroke="#d91e18" fill="#d91e18" height="8.333333969116211" width="89.3" y="657.9999980926514" x="373.20937799726215"></rect><rect stroke-width="0" stroke="#d91e18" fill="#d91e18" height="8.333333969116211" width="89.3" y="657.9999980926514" x="520.2375023978097"></rect><rect stroke-width="0" stroke="#d91e18" fill="#d91e18" height="412.55555407206214" width="89.3" y="253.7777779897054" x="667.2656267983573"></rect><rect stroke-width="0" stroke="#d91e18" fill="#d91e18" height="8.333333969116211" width="89.3" y="657.9999980926514" x="814.2937511989048"></rect><rect stroke-width="0" stroke="#d91e18" fill="#d91e18" height="8.333333969116211" width="89.3" y="657.9999980926514" x="961.3218755994525"></rect><rect stroke-width="0" stroke="#d91e18" fill="#d91e18" height="513.6111090977987" width="89.3" y="152.7222229639689" x="1108.35"></rect></g><g class="bar-plot-2"><rect stroke-width="0" stroke="#809500" fill="#809500" height="311.4999990463257" width="89.3" y="354.8333330154419" x="79.15312919616699"></rect><rect stroke-width="0" stroke="#809500" fill="#809500" height="311.4999990463257" width="89.3" y="354.8333330154419" x="226.18125359671453"></rect><rect stroke-width="0" stroke="#809500" fill="#809500" height="311.4999990463257" width="89.3" y="354.8333330154419" x="373.20937799726215"></rect><rect stroke-width="0" stroke="#809500" fill="#809500" height="311.4999990463257" width="89.3" y="354.8333330154419" x="520.2375023978097"></rect><rect stroke-width="0" stroke="#809500" fill="#809500" height="8.333333969116211" width="89.3" y="657.9999980926514" x="667.2656267983573"></rect><rect stroke-width="0" stroke="#809500" fill="#809500" height="8.333333969116211" width="89.3" y="657.9999980926514" x="814.2937511989048"></rect><rect stroke-width="0" stroke="#809500" fill="#809500" height="8.333333969116211" width="89.3" y="657.9999980926514" x="961.3218755994525"></rect><rect stroke-width="0" stroke="#809500" fill="#809500" height="8.333333969116211" width="89.3" y="657.9999980926514" x="1108.35"></rect></g><g class="line-plot-3"><path stroke-width="2" stroke="#ffffff" fill="none" d="M123.803,354.833L270.831,354.833L417.859,253.778L564.888,253.778L711.916,354.833L858.944,354.833L1005.972,354.833L1153,354.833"></path></g><g class="line-plot-4"><path stroke-width="2" stroke="#046b99" fill="none" d="M123.803,354.833L270.831,253.778L417.859,253.778L564.888,152.722L711.916,354.833L858.944,253.778L1005.972,152.722L1153,354.833"></path></g><g class="line-plot-5"><path stroke-width="2" stroke="#219dd4" fill="none" d="M123.803,152.722L270.831,152.722L417.859,152.722L564.888,152.722L711.916,152.722L858.944,152.722L1005.972,152.722L1153,152.722"></path></g></g><g class="bottom-axis"><g class="axis-line"><path stroke-width="2" stroke="#F4F2F3" fill="none" d="M 76.80312919616699,667.3333320617676 L 1200,667.3333320617676"></path></g><g class="label"><text transform="translate(123.80312919616699, 678.3333320617676) rotate(0)" text-anchor="middle" dominant-baseline="text-before-edge" font-size="14" fill="#F4F2F3" y="0" x="0">Week1</text><text transform="translate(270.83125359671453, 678.3333320617676) rotate(0)" text-anchor="middle" dominant-baseline="text-before-edge" font-size="14" fill="#F4F2F3" y="0" x="0">Week2</text><text transform="translate(417.85937799726213, 678.3333320617676) rotate(0)" text-anchor="middle" dominant-baseline="text-before-edge" font-size="14" fill="#F4F2F3" y="0" x="0">Week3</text><text transform="translate(564.8875023978097, 678.3333320617676) rotate(0)" text-anchor="middle" dominant-baseline="text-before-edge" font-size="14" fill="#F4F2F3" y="0" x="0">Week4</text><text transform="translate(711.9156267983573, 678.3333320617676) rotate(0)" text-anchor="middle" dominant-baseline="text-before-edge" font-size="14" fill="#F4F2F3" y="0" x="0">Week5</text><text transform="translate(858.9437511989048, 678.3333320617676) rotate(0)" text-anchor="middle" dominant-baseline="text-before-edge" font-size="14" fill="#F4F2F3" y="0" x="0">Week6</text><text transform="translate(1005.9718755994525, 678.3333320617676) rotate(0)" text-anchor="middle" dominant-baseline="text-before-edge" font-size="14" fill="#F4F2F3" y="0" x="0">Week7</text><text transform="translate(1153, 678.3333320617676) rotate(0)" text-anchor="middle" dominant-baseline="text-before-edge" font-size="14" fill="#F4F2F3" y="0" x="0">Week8</text></g><g class="ticks"><path stroke-width="2" stroke="#F4F2F3" fill="none" d="M 123.80312919616699,668.3333320617676 L 123.80312919616699,673.3333320617676"></path><path stroke-width="2" stroke="#F4F2F3" fill="none" d="M 270.83125359671453,668.3333320617676 L 270.83125359671453,673.3333320617676"></path><path stroke-width="2" stroke="#F4F2F3" fill="none" d="M 417.85937799726213,668.3333320617676 L 417.85937799726213,673.3333320617676"></path><path stroke-width="2" stroke="#F4F2F3" fill="none" d="M 564.8875023978097,668.3333320617676 L 564.8875023978097,673.3333320617676"></path><path stroke-width="2" stroke="#F4F2F3" fill="none" d="M 711.9156267983573,668.3333320617676 L 711.9156267983573,673.3333320617676"></path><path stroke-width="2" stroke="#F4F2F3" fill="none" d="M 858.9437511989048,668.3333320617676 L 858.9437511989048,673.3333320617676"></path><path stroke-width="2" stroke="#F4F2F3" fill="none" d="M 1005.9718755994525,668.3333320617676 L 1005.9718755994525,673.3333320617676"></path><path stroke-width="2" stroke="#F4F2F3" fill="none" d="M 1153,668.3333320617676 L 1153,673.3333320617676"></path></g></g><g class="left-axis"><g class="axisl-line"><path stroke-width="2" stroke="#F4F2F3" fill="none" d="M 75.80312919616699,43.33333396911621 L 75.80312919616699,666.3333320617676"></path></g><g class="label"><text transform="translate(64.80312919616699, 51.66666793823242) rotate(0)" text-anchor="end" dominant-baseline="middle" font-size="14" fill="#F4F2F3" y="0" x="0">6000</text><text transform="translate(64.80312919616699, 102.19444545110069) rotate(0)" text-anchor="end" dominant-baseline="middle" font-size="14" fill="#F4F2F3" y="0" x="0">5500</text><text transform="translate(64.80312919616699, 152.7222229639689) rotate(0)" text-anchor="end" dominant-baseline="middle" font-size="14" fill="#F4F2F3" y="0" x="0">5000</text><text transform="translate(64.80312919616699, 203.25000047683716) rotate(0)" text-anchor="end" dominant-baseline="middle" font-size="14" fill="#F4F2F3" y="0" x="0">4500</text><text transform="translate(64.80312919616699, 253.7777779897054) rotate(0)" text-anchor="end" dominant-baseline="middle" font-size="14" fill="#F4F2F3" y="0" x="0">4000</text><text transform="translate(64.80312919616699, 304.3055555025736) rotate(0)" text-anchor="end" dominant-baseline="middle" font-size="14" fill="#F4F2F3" y="0" x="0">3500</text><text transform="translate(64.80312919616699, 354.8333330154419) rotate(0)" text-anchor="end" dominant-baseline="middle" font-size="14" fill="#F4F2F3" y="0" x="0">3000</text><text transform="translate(64.80312919616699, 405.3611105283101) rotate(0)" text-anchor="end" dominant-baseline="middle" font-size="14" fill="#F4F2F3" y="0" x="0">2500</text><text transform="translate(64.80312919616699, 455.8888880411784) rotate(0)" text-anchor="end" dominant-baseline="middle" font-size="14" fill="#F4F2F3" y="0" x="0">2000</text><text transform="translate(64.80312919616699, 506.41666555404663) rotate(0)" text-anchor="end" dominant-baseline="middle" font-size="14" fill="#F4F2F3" y="0" x="0">1500</text><text transform="translate(64.80312919616699, 556.9444430669149) rotate(0)" text-anchor="end" dominant-baseline="middle" font-size="14" fill="#F4F2F3" y="0" x="0">1000</text><text transform="translate(64.80312919616699, 607.4722205797831) rotate(0)" text-anchor="end" dominant-baseline="middle" font-size="14" fill="#F4F2F3" y="0" x="0">500</text><text transform="translate(64.80312919616699, 657.9999980926514) rotate(0)" text-anchor="end" dominant-baseline="middle" font-size="14" fill="#F4F2F3" y="0" x="0">0</text></g><g class="ticks"><path stroke-width="2" stroke="#F4F2F3" fill="none" d="M 74.80312919616699,51.66666793823242 L 69.80312919616699,51.66666793823242"></path><path stroke-width="2" stroke="#F4F2F3" fill="none" d="M 74.80312919616699,102.19444545110069 L 69.80312919616699,102.19444545110069"></path><path stroke-width="2" stroke="#F4F2F3" fill="none" d="M 74.80312919616699,152.7222229639689 L 69.80312919616699,152.7222229639689"></path><path stroke-width="2" stroke="#F4F2F3" fill="none" d="M 74.80312919616699,203.25000047683716 L 69.80312919616699,203.25000047683716"></path><path stroke-width="2" stroke="#F4F2F3" fill="none" d="M 74.80312919616699,253.7777779897054 L 69.80312919616699,253.7777779897054"></path><path stroke-width="2" stroke="#F4F2F3" fill="none" d="M 74.80312919616699,304.3055555025736 L 69.80312919616699,304.3055555025736"></path><path stroke-width="2" stroke="#F4F2F3" fill="none" d="M 74.80312919616699,354.8333330154419 L 69.80312919616699,354.8333330154419"></path><path stroke-width="2" stroke="#F4F2F3" fill="none" d="M 74.80312919616699,405.3611105283101 L 69.80312919616699,405.3611105283101"></path><path stroke-width="2" stroke="#F4F2F3" fill="none" d="M 74.80312919616699,455.8888880411784 L 69.80312919616699,455.8888880411784"></path><path stroke-width="2" stroke="#F4F2F3" fill="none" d="M 74.80312919616699,506.41666555404663 L 69.80312919616699,506.41666555404663"></path><path stroke-width="2" stroke="#F4F2F3" fill="none" d="M 74.80312919616699,556.9444430669149 L 69.80312919616699,556.9444430669149"></path><path stroke-width="2" stroke="#F4F2F3" fill="none" d="M 74.80312919616699,607.4722205797831 L 69.80312919616699,607.4722205797831"></path><path stroke-width="2" stroke="#F4F2F3" fill="none" d="M 74.80312919616699,657.9999980926514 L 69.80312919616699,657.9999980926514"></path></g><g class="title"><text transform="translate(5, 354.8333330154419) rotate(270)" text-anchor="middle" dominant-baseline="text-before-edge" font-size="16" fill="#F4F2F3" y="0" x="0">.</text></g></g></g><g class="mermaid-tmp-group"></g></svg>