<svg xmlns="http://www.w3.org/2000/svg" viewBox="0 0 1254 1254" width="1254" height="1254">
  <rect width="1254" height="1254" fill="black"/>
  <path d="M 663.00,1053.54 C 663.00,1053.13 665.19,1050.02 667.87,1046.64 C 673.91,1039.03 683.93,1023.81 689.10,1014.43 L 692.99,1007.36 L 705.24,1005.55 C 725.31,1002.60 745.38,997.00 770.00,987.50 L 774.50,985.77 L 784.50,990.25 C 790.00,992.72 801.59,997.59 810.26,1001.08 C 818.93,1004.56 825.89,1007.84 825.71,1008.36 C 825.18,1009.96 804.21,1020.68 789.50,1026.88 C 752.16,1042.60 713.93,1051.58 675.62,1053.63 C 668.68,1054.00 663.00,1053.96 663.00,1053.54 Z" fill="white"/>
  <path d="M 564.00,1051.39 C 542.98,1048.58 513.68,1042.13 511.39,1039.80 C 510.25,1038.64 508.03,1009.52 508.01,995.42 L 508.00,991.35 L 497.75,987.02 C 483.97,981.21 472.10,975.23 461.04,968.53 C 455.98,965.45 451.34,963.28 450.68,963.66 C 450.03,964.05 442.52,969.36 434.00,975.48 C 409.98,992.72 409.13,993.25 406.63,992.62 C 398.62,990.61 349.00,947.49 349.00,942.55 C 349.00,940.46 350.66,937.17 366.34,908.19 C 370.00,901.42 373.00,895.62 373.00,895.31 C 373.00,895.00 369.25,889.96 364.67,884.12 C 356.25,873.39 347.49,860.70 340.61,849.25 C 338.55,845.81 336.33,842.98 335.68,842.96 C 335.03,842.94 323.15,844.38 309.28,846.16 C 291.20,848.49 283.30,849.13 281.40,848.45 C 279.29,847.70 277.84,845.46 274.37,837.61 C 263.10,812.15 252.87,779.77 254.77,775.60 C 255.59,773.80 286.46,752.36 296.75,746.44 C 298.54,745.41 300.00,743.88 300.00,743.03 C 299.99,742.19 299.09,735.42 297.99,728.00 C 296.89,720.58 295.69,706.99 295.34,697.81 L 294.69,681.12 L 274.09,672.93 C 262.77,668.42 250.85,663.41 247.60,661.78 L 241.70,658.82 L 242.32,648.16 C 243.31,630.84 251.41,588.96 255.15,581.76 C 256.43,579.31 257.51,579.16 286.40,577.51 C 300.64,576.70 312.49,575.85 312.71,575.62 C 312.94,575.39 315.95,568.24 319.39,559.72 C 322.84,551.21 328.88,538.30 332.83,531.04 C 336.77,523.78 340.00,517.40 340.00,516.87 C 340.00,516.35 336.47,511.77 332.16,506.71 C 321.30,493.97 306.00,474.00 306.00,472.57 C 306.00,468.07 336.92,429.81 352.32,415.25 C 355.44,412.30 358.81,410.00 360.01,410.00 C 362.07,410.00 382.30,420.49 400.42,430.95 L 409.29,436.08 L 414.90,431.55 C 422.41,425.49 447.85,408.29 456.25,403.60 C 459.96,401.52 463.00,399.45 463.00,398.99 C 463.00,398.53 461.47,389.01 459.60,377.83 C 454.99,350.34 454.64,346.87 456.21,344.75 C 458.80,341.24 506.04,323.37 525.81,318.42 C 531.10,317.09 533.57,316.87 534.77,317.63 C 536.50,318.72 545.25,332.99 556.69,353.35 L 563.34,365.20 L 567.16,364.59 C 569.26,364.25 574.96,363.70 579.82,363.35 L 588.65,362.73 L 588.58,380.61 C 588.53,391.13 589.06,402.13 589.86,407.31 C 590.61,412.15 591.01,416.32 590.76,416.58 C 590.50,416.83 586.65,417.68 582.21,418.46 C 548.14,424.45 513.03,438.30 482.78,457.66 C 451.12,477.93 418.83,509.82 399.23,540.19 C 366.16,591.41 350.93,654.90 357.52,713.96 C 366.23,791.93 402.21,857.24 464.33,907.83 C 497.38,934.75 543.53,956.81 585.00,965.52 C 596.75,967.99 617.03,970.98 622.13,970.99 C 624.67,971.00 628.17,971.28 629.90,971.63 C 633.75,972.40 633.74,972.44 626.51,987.50 C 619.10,1002.94 595.12,1038.60 584.66,1049.75 C 581.14,1053.50 580.28,1053.57 564.00,1051.39 Z" fill="white"/>
  <path d="M 824.00,991.62 C 807.46,985.30 792.00,978.55 792.00,977.65 C 792.00,977.39 797.96,974.24 805.25,970.65 C 812.54,967.06 822.63,961.51 827.68,958.31 C 832.73,955.12 840.30,950.31 844.51,947.63 L 852.15,942.76 L 868.95,943.88 C 878.20,944.50 890.54,945.00 896.38,945.00 C 904.70,945.00 907.00,945.30 907.00,946.37 C 907.00,947.82 896.05,958.60 884.48,968.53 C 868.88,981.92 845.99,998.02 842.62,997.96 C 841.46,997.94 833.08,995.09 824.00,991.62 Z" fill="white"/>
  <path d="M 755.01,971.75 C 756.69,968.86 758.48,965.83 758.97,965.00 C 760.29,962.81 761.65,964.75 762.27,969.68 C 762.78,973.78 762.71,973.90 758.88,975.43 C 752.15,978.13 751.61,977.61 755.01,971.75 Z" fill="white"/>
  <path d="M 775.58,964.80 C 775.28,962.99 774.33,957.50 773.46,952.62 C 772.60,947.73 772.09,943.20 772.35,942.54 C 772.60,941.88 776.11,939.40 780.15,937.02 C 788.43,932.16 805.50,919.99 814.16,912.79 C 817.32,910.15 820.29,908.00 820.76,908.00 C 821.58,908.00 833.08,930.43 834.35,934.50 C 834.88,936.18 833.20,937.65 823.74,943.80 C 813.50,950.44 783.61,966.03 778.30,967.50 C 776.43,968.01 776.03,967.62 775.58,964.80 Z" fill="white"/>
  <path d="M 635.00,958.34 C 575.21,954.17 525.38,935.98 479.50,901.57 C 465.56,891.12 440.70,866.83 429.78,853.00 C 418.55,838.77 407.65,821.99 400.55,808.00 C 372.27,752.23 363.73,691.89 376.00,634.41 C 378.27,623.76 384.06,604.26 387.70,595.00 C 395.07,576.27 415.86,539.96 422.83,533.65 C 424.66,532.00 424.85,532.26 428.36,541.06 L 432.01,550.18 L 426.63,558.34 C 415.62,575.07 404.39,599.94 398.57,620.48 C 391.46,645.54 389.55,659.74 389.61,687.00 C 389.67,714.92 392.07,731.06 400.21,758.50 C 417.71,817.46 459.31,870.03 515.25,903.89 C 523.50,908.88 538.00,916.24 538.00,915.43 C 538.00,915.11 537.28,909.36 536.39,902.67 C 533.74,882.59 536.13,861.89 543.68,839.50 C 547.48,828.25 559.51,803.58 569.03,787.51 C 582.17,765.35 593.14,740.33 598.00,721.50 C 603.41,700.51 604.19,686.76 601.04,667.50 C 597.24,644.21 591.31,628.67 579.42,610.81 C 570.75,597.79 562.09,589.29 550.53,582.49 C 542.26,577.62 528.35,571.00 526.41,571.00 C 526.02,571.00 529.58,573.36 534.31,576.25 C 551.30,586.62 565.52,601.05 574.90,617.44 C 579.82,626.03 584.58,637.27 585.59,642.64 C 586.21,645.92 586.08,646.25 584.39,645.72 C 575.55,642.98 569.79,641.90 559.00,640.95 C 543.21,639.56 533.63,637.63 524.43,633.97 C 500.88,624.62 480.71,604.68 468.82,579.00 C 461.60,563.42 450.57,533.37 451.80,532.64 C 452.19,532.42 457.23,531.40 463.00,530.39 C 477.81,527.78 511.94,527.73 523.82,530.30 C 559.93,538.08 584.39,560.34 594.60,594.70 C 596.55,601.28 597.34,606.64 597.75,615.91 C 598.24,627.34 598.51,628.68 601.14,632.92 C 602.71,635.45 605.57,641.11 607.49,645.51 C 609.41,649.90 610.98,653.24 610.99,652.93 C 610.99,652.61 611.67,647.89 612.48,642.43 C 614.47,629.08 616.69,594.22 617.97,556.50 C 619.96,497.59 623.09,472.84 632.63,440.40 C 636.59,426.92 637.91,425.50 636.03,436.74 C 633.83,449.91 633.64,484.64 635.59,519.50 C 638.16,565.57 638.23,642.91 635.72,665.00 C 631.66,700.68 625.11,727.48 614.18,753.09 C 611.93,758.37 603.61,775.53 595.70,791.23 C 579.19,823.96 573.21,840.01 570.43,859.00 C 567.43,879.52 570.04,900.36 578.15,920.62 L 582.50,931.50 L 592.97,934.21 C 624.07,942.27 667.88,942.58 700.00,934.97 C 740.66,925.33 779.59,903.74 807.81,875.15 C 842.69,839.82 866.18,793.98 876.38,741.36 C 881.61,714.33 883.15,685.22 880.61,661.41 C 876.06,618.81 863.35,580.79 842.24,546.66 C 821.69,513.44 787.80,480.52 755.61,462.53 L 748.85,458.75 L 758.03,453.82 L 767.21,448.90 L 774.24,453.07 C 794.52,465.12 820.65,488.23 836.81,508.40 C 886.81,570.80 907.29,648.03 895.05,727.93 C 886.58,783.18 863.92,836.60 833.63,872.71 C 796.90,916.50 747.14,945.22 691.00,955.05 C 674.14,958.00 650.27,959.40 635.00,958.34 Z" fill="white"/>
  <path d="M 878.32,931.02 C 873.28,930.57 868.63,929.89 868.00,929.50 C 867.27,929.05 869.71,925.84 874.74,920.64 C 884.02,911.08 895.32,897.56 903.43,886.36 L 909.21,878.37 L 920.85,877.10 C 927.26,876.40 939.20,874.73 947.40,873.39 C 955.59,872.05 962.54,871.21 962.85,871.52 C 965.18,873.85 926.24,928.93 921.24,930.37 C 917.83,931.36 887.34,931.82 878.32,931.02 Z" fill="white"/>
  <path d="M 846.27,923.75 C 845.74,923.06 842.22,916.59 838.45,909.37 L 831.60,896.23 L 838.35,888.93 C 845.95,880.73 857.12,866.11 863.19,856.44 C 865.41,852.90 867.78,850.00 868.45,850.00 C 869.65,850.00 892.00,875.74 892.00,877.11 C 892.00,879.96 868.71,907.35 857.59,917.58 C 849.33,925.18 847.96,925.92 846.27,923.75 Z" fill="white"/>
  <path d="M 900.00,861.66 C 898.36,860.37 887.01,847.62 880.06,839.26 L 875.70,834.02 L 880.73,823.26 C 886.81,810.27 894.19,791.70 896.53,783.50 C 899.35,773.64 899.42,773.57 903.83,776.76 C 910.61,781.69 933.02,799.23 933.49,799.98 C 934.77,802.06 920.41,833.00 909.77,851.09 C 903.28,862.12 902.14,863.34 900.00,861.66 Z" fill="white"/>
  <path d="M 920.00,862.14 C 920.00,861.57 921.65,858.29 923.67,854.85 C 928.43,846.73 944.08,814.30 947.13,806.25 C 949.19,800.79 949.94,799.85 953.00,798.84 C 956.67,797.63 985.76,785.83 994.73,781.91 C 997.60,780.65 1000.27,779.94 1000.66,780.33 C 1003.09,782.75 979.11,846.78 973.41,853.09 C 972.62,853.97 969.62,855.19 966.74,855.81 C 958.83,857.49 939.22,860.79 933.00,861.48 C 929.98,861.81 925.81,862.33 923.75,862.63 C 921.48,862.96 920.00,862.77 920.00,862.14 Z" fill="white"/>
  <path d="M 921.71,771.60 C 913.02,764.84 905.45,758.85 904.89,758.29 C 904.20,757.60 904.67,753.48 906.37,745.38 C 909.15,732.16 911.49,715.99 912.54,702.75 C 912.92,697.94 913.61,694.00 914.06,694.00 C 914.52,694.00 918.18,695.52 922.19,697.38 C 942.88,706.95 952.66,711.88 953.90,713.37 C 955.06,714.78 954.95,717.14 953.13,729.29 C 949.74,751.99 941.27,784.06 938.71,783.95 C 938.04,783.92 930.39,778.36 921.71,771.60 Z" fill="white"/>
  <path d="M 956.30,779.75 C 956.59,778.51 958.63,770.52 960.83,762.00 C 964.22,748.85 965.78,740.36 969.60,714.31 C 969.99,711.65 971.43,710.17 978.28,705.38 C 982.80,702.23 992.07,695.43 998.88,690.28 C 1005.70,685.14 1011.77,681.09 1012.38,681.29 C 1016.52,682.66 1010.39,753.91 1005.62,759.90 C 1003.74,762.26 960.30,782.00 956.99,782.00 C 956.23,782.00 955.97,781.15 956.30,779.75 Z" fill="white"/>
  <path d="M 943.50,691.31 C 938.00,688.83 928.89,684.63 923.25,681.97 L 913.00,677.14 L 913.00,673.04 C 913.00,665.02 909.89,639.31 907.46,627.28 C 904.55,612.84 904.51,612.00 906.62,612.00 C 908.46,612.00 947.94,620.65 950.39,621.60 C 951.28,621.94 952.00,622.46 952.00,622.76 C 952.00,623.06 952.94,630.55 954.09,639.40 C 956.79,660.19 957.36,695.35 955.00,695.64 C 954.17,695.74 949.00,693.79 943.50,691.31 Z" fill="white"/>
  <path d="M 970.67,672.56 C 970.12,656.68 966.92,623.65 965.47,618.97 C 965.20,618.07 967.72,614.16 971.53,609.57 C 975.13,605.25 981.96,596.82 986.72,590.84 C 991.48,584.85 995.85,580.11 996.44,580.29 C 1000.52,581.57 1011.99,636.39 1011.96,654.50 L 1011.95,660.50 L 1005.73,665.82 C 997.11,673.19 973.45,691.00 972.28,691.00 C 971.72,691.00 971.05,683.27 970.67,672.56 Z" fill="white"/>
  <path d="M 939.50,604.31 C 938.40,604.07 929.17,602.09 919.00,599.93 C 901.37,596.18 898.00,594.87 898.00,591.77 C 898.00,589.21 889.82,569.35 882.75,554.76 C 878.29,545.55 874.99,537.68 875.41,537.26 C 875.82,536.84 886.89,536.35 900.01,536.17 L 923.85,535.84 L 925.35,538.17 C 927.77,541.91 937.47,566.61 940.81,577.50 C 943.98,587.87 948.00,602.77 948.00,604.19 C 948.00,605.03 942.99,605.11 939.50,604.31 Z" fill="white"/>
  <path d="M 959.60,592.49 C 955.13,576.62 946.44,551.34 941.92,541.05 L 936.89,529.61 L 946.68,509.24 C 958.12,485.46 955.92,485.82 966.97,505.87 C 974.33,519.23 982.36,536.61 987.98,551.35 C 990.93,559.08 991.19,560.46 990.04,562.35 C 987.28,566.85 971.86,586.75 966.68,592.49 L 961.28,598.47 L 959.60,592.49 Z" fill="white"/>
  <path d="M 861.00,516.35 C 854.80,507.02 842.52,491.78 833.42,482.11 L 825.81,474.02 L 828.64,472.95 C 832.77,471.38 846.49,468.23 863.00,465.06 C 880.25,461.75 877.88,460.66 889.84,477.35 C 903.23,496.04 917.23,520.10 915.64,521.69 C 915.24,522.09 903.79,522.58 890.21,522.77 L 865.50,523.11 L 861.00,516.35 Z" fill="white"/>
  <path d="M 922.92,503.75 C 916.62,492.54 901.00,468.74 894.55,460.50 C 890.68,455.56 889.94,453.97 890.36,451.50 C 891.43,445.30 898.01,417.65 898.54,417.12 C 899.61,416.06 902.58,418.77 913.89,431.09 C 923.71,441.79 945.36,469.22 946.69,472.65 C 947.39,474.44 930.06,513.00 928.55,513.00 C 928.32,513.00 925.79,508.84 922.92,503.75 Z" fill="white"/>
  <path d="M 646.38,472.50 C 646.99,446.72 650.41,429.03 659.75,403.50 C 672.05,369.83 696.58,336.68 727.56,311.83 C 736.27,304.85 756.83,291.07 763.68,287.64 C 770.42,284.26 771.50,282.43 765.32,284.89 C 762.67,285.94 757.02,288.19 752.76,289.88 C 727.40,300.00 705.16,314.15 686.68,331.93 C 667.64,350.26 654.78,368.04 642.90,392.50 C 633.74,411.38 628.83,424.28 624.86,439.94 C 623.26,446.23 621.80,451.53 621.61,451.72 C 620.38,452.95 612.68,425.40 610.37,411.50 C 607.89,396.58 607.88,368.14 610.35,355.65 C 614.20,336.18 622.46,316.23 633.81,299.00 C 641.92,286.69 659.81,269.16 673.50,260.10 C 692.29,247.68 710.20,239.95 744.10,229.61 C 790.97,215.32 809.32,207.27 836.98,188.82 C 845.19,183.35 848.70,181.51 849.21,182.41 C 851.30,186.15 852.49,204.62 852.45,233.00 C 852.42,259.56 852.13,265.35 850.17,277.86 C 839.57,345.64 809.25,395.12 758.50,427.49 C 748.63,433.79 732.32,441.51 718.50,446.44 C 693.66,455.30 682.14,460.11 673.98,465.01 C 661.21,472.68 656.33,477.15 647.72,489.04 C 645.99,491.43 645.95,490.93 646.38,472.50 Z" fill="white"/>
  <path d="M 804.53,455.91 C 799.81,452.12 792.59,446.76 788.47,443.98 C 784.36,441.21 781.01,438.62 781.02,438.22 C 781.03,437.82 783.60,435.70 786.73,433.50 C 789.85,431.30 798.12,423.80 805.09,416.84 L 817.76,404.19 L 829.59,413.34 C 841.70,422.71 867.00,447.10 867.00,449.40 C 867.00,450.14 864.77,451.15 861.75,451.79 C 843.35,455.66 822.74,460.22 818.30,461.41 L 813.10,462.79 L 804.53,455.91 Z" fill="white"/>
  <path d="M 870.44,432.47 C 863.07,424.23 845.82,408.63 834.00,399.52 C 829.88,396.34 826.63,393.29 826.79,392.73 C 826.96,392.18 829.02,388.98 831.37,385.62 C 833.73,382.25 836.89,377.34 838.40,374.71 L 841.13,369.92 L 844.82,372.13 C 850.92,375.80 874.10,393.41 880.38,399.15 L 886.26,404.53 L 883.63,418.01 C 880.59,433.64 879.27,438.72 878.05,439.47 C 877.58,439.76 874.15,436.61 870.44,432.47 Z" fill="white"/>
</svg>
