<?xml version="1.0" encoding="utf-8"?>
<!-- Generator: Adobe Illustrator 27.2.0, SVG Export Plug-In . SVG Version: 6.00 Build 0)  -->
<svg version="1.1" id="Ebene_1" xmlns="http://www.w3.org/2000/svg" xmlns:xlink="http://www.w3.org/1999/xlink" x="0px" y="0px"
	 viewBox="0 0 150 150" style="enable-background:new 0 0 150 150;" xml:space="preserve">
<style type="text/css">
	.st0{fill:none;stroke:#FFFFFF;stroke-width:6;stroke-linejoin:round;stroke-miterlimit:10;}
	.st1{fill:none;stroke:#FFFFFF;stroke-width:6;stroke-miterlimit:10;}
	.st2{fill:none;stroke:#FFFFFF;stroke-width:6;stroke-linecap:round;stroke-linejoin:round;stroke-miterlimit:10;}
	.st3{fill:none;stroke:#FFFFFF;stroke-width:6;stroke-linecap:round;stroke-miterlimit:10;}
</style>
<g>
	<line class="st2" x1="92.1" y1="54.5" x2="92.1" y2="71.1"/>
	<line class="st2" x1="128.6" y1="58.7" x2="128.6" y2="71.1"/>
	<line class="st2" x1="73.8" y1="58.7" x2="73.8" y2="71.1"/>
	<line class="st2" x1="110.3" y1="46.5" x2="110.3" y2="71.1"/>
</g>
<g>
	<circle class="st2" cx="25.2" cy="60.9" r="6.4"/>
	<circle class="st2" cx="34.3" cy="26.1" r="6.4"/>
	<circle class="st2" cx="72.4" cy="36.3" r="6.4"/>
	<circle class="st2" cx="115.9" cy="25.7" r="6.4"/>
	<line class="st2" x1="27.3" y1="54.2" x2="33.1" y2="32.9"/>
	<line class="st2" x1="40.6" y1="27.6" x2="66.3" y2="33.8"/>
	<line class="st2" x1="78.6" y1="34.5" x2="109.3" y2="27.1"/>
</g>
<path class="st2" d="M126.9,105.7h-104c-9.9,0-18-8.1-18-18v-64c0-9.9,8.1-18,18-18h104c9.9,0,18,8.1,18,18v64
	C144.9,97.7,136.9,105.7,126.9,105.7z"/>
<line class="st2" x1="93.6" y1="105.7" x2="101.8" y2="134.8"/>
<line class="st2" x1="48" y1="134.8" x2="56.2" y2="105.7"/>
<line class="st2" x1="11.3" y1="145.5" x2="138.5" y2="145.5"/>
<path class="st1" d="M21.6,142.6L21.6,142.6c0-2.7,2.2-7.9,4.9-7.9h96.9c2.7,0,4.9,5.2,4.9,7.9l0,0"/>
<line class="st1" x1="4.5" y1="83.7" x2="145.3" y2="83.7"/>
<line class="st3" x1="22.8" y1="93.3" x2="32.9" y2="93.3"/>
<line class="st3" x1="120" y1="93.3" x2="123.2" y2="93.3"/>
</svg>
