<?xml version="1.0" encoding="utf-8"?>
<!-- Generator: Adobe Illustrator 27.2.0, SVG Export Plug-In . SVG Version: 6.00 Build 0)  -->
<svg version="1.1" id="Ebene_1" xmlns="http://www.w3.org/2000/svg" xmlns:xlink="http://www.w3.org/1999/xlink" x="0px" y="0px"
	 viewBox="0 0 150 150" style="enable-background:new 0 0 150 150;" xml:space="preserve">
<style type="text/css">
	.st0{fill:none;stroke:#FFFFFF;stroke-width:6;stroke-linejoin:round;stroke-miterlimit:10;}
	.st1{fill:none;stroke:#FFFFFF;stroke-width:6;stroke-miterlimit:10;}
	.st2{fill:none;stroke:#FFFFFF;stroke-width:6;stroke-linecap:round;stroke-linejoin:round;stroke-miterlimit:10;}
	.st3{fill:none;stroke:#FFFFFF;stroke-width:6;stroke-linecap:round;stroke-miterlimit:10;}
</style>
<g>
	<g>
		<path class="st1" d="M104.4,54.7c4.1,5.8,6.5,12.9,6.5,20.5c0,19.7-15.9,35.6-35.6,35.6S39.7,94.9,39.7,75.2s15.9-35.6,35.6-35.6
			c4.4,0,8.6,0.8,12.6,2.3"/>
		<path class="st1" d="M142.4,64.9H131c-1.4-7.6-4.3-14.7-8.4-20.9l8.2-8.2c1.2-1.2,1.2-3,0-4.2l-11.2-11.2c-1.2-1.2-3-1.2-4.2,0
			l-8,8c-6.1-4.2-13.1-7.3-20.7-8.8V8.2c0-1.6-1.3-2.9-2.9-2.9H68c-1.6,0-2.9,1.3-2.9,2.9v11.4c-7.6,1.4-14.7,4.3-20.9,8.4L36,19.7
			c-1.2-1.2-3-1.2-4.2,0L20.6,30.9c-1.2,1.2-1.2,3,0,4.2l8,8c-4.2,6.1-7.3,13.1-8.8,20.7H8.3c-1.6,0-2.9,1.3-2.9,2.9v15.8
			c0,1.6,1.3,2.9,2.9,2.9h11.4c1.4,7.6,4.3,14.7,8.4,20.9l-8.2,8.2c-1.2,1.2-1.2,3,0,4.2L31,129.9c1.2,1.2,3,1.2,4.2,0l8-8
			c6.1,4.2,13.1,7.3,20.7,8.8v11.6c0,1.6,1.3,2.9,2.9,2.9h15.8c1.6,0,2.9-1.3,2.9-2.9v-11.4c7.6-1.4,14.7-4.3,20.9-8.4l8.2,8.2
			c1.2,1.2,3,1.2,4.2,0l11.2-11.2c1.2-1.2,1.2-3,0-4.2l-8-8c4.2-6.1,7.3-13.1,8.8-20.7h11.6c1.6,0,2.9-1.3,2.9-2.9V67.9
			C145.3,66.2,144,64.9,142.4,64.9z"/>
	</g>
	<polyline class="st1" points="56.3,74.9 68,87.9 104,39.6 	"/>
</g>
</svg>
