<?xml version="1.0" encoding="utf-8"?>
<!-- Generator: Adobe Illustrator 27.2.0, SVG Export Plug-In . SVG Version: 6.00 Build 0)  -->
<svg version="1.1" id="Ebene_1" xmlns="http://www.w3.org/2000/svg" xmlns:xlink="http://www.w3.org/1999/xlink" x="0px" y="0px"
	 viewBox="0 0 150 150" style="enable-background:new 0 0 150 150;" xml:space="preserve">
<style type="text/css">
	.st0{fill:none;stroke:#FFFFFF;stroke-width:6;stroke-linejoin:round;stroke-miterlimit:10;}
	.st1{fill:none;stroke:#FFFFFF;stroke-width:6;stroke-miterlimit:10;}
	.st2{fill:none;stroke:#FFFFFF;stroke-width:6;stroke-linecap:round;stroke-linejoin:round;stroke-miterlimit:10;}
	.st3{fill:none;stroke:#FFFFFF;stroke-width:6;stroke-linecap:round;stroke-miterlimit:10;}
</style>
<g>
	<line class="st2" x1="75" y1="18.6" x2="75" y2="116.6"/>
	<line class="st2" x1="11.5" y1="31" x2="138.4" y2="31"/>
	<path class="st2" d="M123.9,146.3H26v0c0-7.2,5.8-13,13-13h71.9C118.1,133.4,123.9,139.2,123.9,146.3L123.9,146.3z"/>
	<path class="st2" d="M87.2,133.3H62.7v-7.7c0-4.2,3.4-7.7,7.7-7.7h9.2c4.2,0,7.7,3.4,7.7,7.7V133.3z"/>
	<g>
		<g>
			<path class="st2" d="M46.4,86.5v7.3c0,8.8-6.8,12.9-15.2,12.9H20.3c-8.4,0-15.2-4.1-15.2-12.9v-7.3l20.6-57.3L46.4,86.5z"/>
			<line class="st2" x1="5" y1="87" x2="45.5" y2="87"/>
		</g>
		<g>
			<path class="st2" d="M145,86.5v7.3c0,8.8-6.8,12.9-15.2,12.9h-10.9c-8.4,0-15.2-4.1-15.2-12.9v-7.3l20.6-57.3L145,86.5z"/>
			<line class="st2" x1="103.6" y1="87" x2="144.1" y2="87"/>
		</g>
	</g>
	<ellipse class="st2" cx="75" cy="11.5" rx="7.5" ry="7.1"/>
</g>
</svg>
