<?xml version="1.0" encoding="utf-8"?>
<!-- Generator: Adobe Illustrator 27.2.0, SVG Export Plug-In . SVG Version: 6.00 Build 0)  -->
<svg version="1.1" id="Ebene_1" xmlns="http://www.w3.org/2000/svg" xmlns:xlink="http://www.w3.org/1999/xlink" x="0px" y="0px"
	 viewBox="0 0 150 150" style="enable-background:new 0 0 150 150;" xml:space="preserve">
<style type="text/css">
	.st0{fill:none;stroke:#FFFFFF;stroke-width:6;stroke-linejoin:round;stroke-miterlimit:10;}
	.st1{fill:none;stroke:#FFFFFF;stroke-width:6;stroke-miterlimit:10;}
	.st2{fill:none;stroke:#FFFFFF;stroke-width:6;stroke-linecap:round;stroke-linejoin:round;stroke-miterlimit:10;}
	.st3{fill:none;stroke:#FFFFFF;stroke-width:6;stroke-linecap:round;stroke-miterlimit:10;}
</style>
<polyline class="st2" points="72.1,101.5 72.1,143.8 53.9,122.1 35.8,144.8 35.8,102.5 "/>
<line class="st2" x1="109.8" y1="72.6" x2="127.5" y2="72.6"/>
<line class="st2" x1="24.8" y1="25" x2="79.6" y2="25"/>
<line class="st2" x1="96" y1="88" x2="127.5" y2="88"/>
<path class="st0" d="M23.9,107.2c-10.2,0-18.4-8.1-18.4-18v-64c0-9.9,8.2-18,18.4-18h103.2c10.2,0,18.4,8.1,18.4,18v64
	c0,9.9-8.2,18-18.4,18H82.7"/>
<ellipse class="st2" cx="53.9" cy="76.2" rx="30.7" ry="30"/>
<ellipse class="st2" cx="53.9" cy="76.2" rx="15.2" ry="14.9"/>
</svg>
