<?xml version="1.0" encoding="utf-8"?>
<!-- Generator: Adobe Illustrator 27.2.0, SVG Export Plug-In . SVG Version: 6.00 Build 0)  -->
<svg version="1.1" id="Ebene_1" xmlns="http://www.w3.org/2000/svg" xmlns:xlink="http://www.w3.org/1999/xlink" x="0px" y="0px"
	 viewBox="0 0 150 150" style="enable-background:new 0 0 150 150;" xml:space="preserve">
<style type="text/css">
	.st0{fill:none;stroke:#FFFFFF;stroke-width:6;stroke-linejoin:round;stroke-miterlimit:10;}
	.st1{fill:none;stroke:#FFFFFF;stroke-width:6;stroke-miterlimit:10;}
	.st2{fill:none;stroke:#FFFFFF;stroke-width:6;stroke-linecap:round;stroke-linejoin:round;stroke-miterlimit:10;}
	.st3{fill:none;stroke:#FFFFFF;stroke-width:6;stroke-linecap:round;stroke-miterlimit:10;}
</style>
<path class="st1" d="M95.6,37.1c6.1,16.6,2.5,36-10.8,49.3c-18.3,18.3-47.9,18.3-66.2,0s-18.3-47.9,0-66.2C35.7,3.1,62.8,2,81.2,17"
	/>
<line class="st1" x1="84.7" y1="86.4" x2="98.8" y2="100.6"/>
<path class="st2" d="M139.2,141L139.2,141c-5.4,5.4-14.3,5.1-19.3-0.7l-28.1-32.7l13.9-13.9l32.7,28.1
	C144.3,126.7,144.6,135.6,139.2,141z"/>
<g>
	<line class="st2" x1="44.2" y1="39" x2="44.2" y2="73.7"/>
	<line class="st2" x1="74" y1="47.8" x2="74" y2="73.7"/>
	<line class="st2" x1="29.3" y1="47.8" x2="29.3" y2="73.7"/>
	<line class="st2" x1="59.1" y1="22.4" x2="59.1" y2="73.7"/>
</g>
<polyline class="st2" points="70.7,28.3 90,28.3 97.7,12.8 118.6,61.6 125.8,29.8 144.9,29.8 "/>
</svg>
