<?xml version="1.0" encoding="utf-8"?>
<!-- Generator: Adobe Illustrator 27.2.0, SVG Export Plug-In . SVG Version: 6.00 Build 0)  -->
<svg version="1.1" id="Ebene_1" xmlns="http://www.w3.org/2000/svg" xmlns:xlink="http://www.w3.org/1999/xlink" x="0px" y="0px"
	 viewBox="0 0 150 150" style="enable-background:new 0 0 150 150;" xml:space="preserve">
<style type="text/css">
	.st0{fill:none;stroke:#FFFFFF;stroke-width:6;stroke-linejoin:round;stroke-miterlimit:10;}
	.st1{fill:none;stroke:#FFFFFF;stroke-width:6;stroke-miterlimit:10;}
	.st2{fill:none;stroke:#FFFFFF;stroke-width:6;stroke-linecap:round;stroke-linejoin:round;stroke-miterlimit:10;}
	.st3{fill:none;stroke:#FFFFFF;stroke-width:6;stroke-linecap:round;stroke-miterlimit:10;}
</style>
<path class="st1" d="M125.1,135.6h-101c-9.9,0-18-8.1-18-18v-84c0-9.9,8.1-18,18-18h101c9.9,0,18,8.1,18,18v84
	C143.1,127.6,135.1,135.6,125.1,135.6z"/>
<line class="st2" x1="6.6" y1="44.6" x2="142.6" y2="44.6"/>
<g>
	<line class="st2" x1="120.8" y1="31.5" x2="122.2" y2="31.5"/>
	<line class="st2" x1="109.4" y1="31.5" x2="110.8" y2="31.5"/>
	<line class="st2" x1="98" y1="31.5" x2="99.4" y2="31.5"/>
</g>
<circle class="st2" cx="46.3" cy="89.4" r="23.3"/>
<g>
	<line class="st2" x1="86.3" y1="119.4" x2="120.3" y2="119.4"/>
	<g>
		<line class="st2" x1="89.4" y1="75.5" x2="89.4" y2="108.3"/>
		<line class="st2" x1="117.2" y1="83.7" x2="117.2" y2="108.3"/>
		<line class="st2" x1="103.3" y1="59.8" x2="103.3" y2="108.3"/>
	</g>
</g>
<g>
	<polyline class="st2" points="47.7,67.5 47.7,89.9 31.7,106 	"/>
	<line class="st2" x1="26.7" y1="81.9" x2="46.8" y2="89.9"/>
</g>
</svg>
