<?xml version="1.0" encoding="utf-8"?>
<!-- Generator: Adobe Illustrator 27.2.0, SVG Export Plug-In . SVG Version: 6.00 Build 0)  -->
<svg version="1.1" id="Ebene_1" xmlns="http://www.w3.org/2000/svg" xmlns:xlink="http://www.w3.org/1999/xlink" x="0px" y="0px"
	 viewBox="0 0 150 150" style="enable-background:new 0 0 150 150;" xml:space="preserve">
<style type="text/css">
	.st0{fill:none;stroke:#FFFFFF;stroke-width:6;stroke-linejoin:round;stroke-miterlimit:10;}
	.st1{fill:none;stroke:#FFFFFF;stroke-width:6;stroke-miterlimit:10;}
	.st2{fill:none;stroke:#FFFFFF;stroke-width:6;stroke-linecap:round;stroke-linejoin:round;stroke-miterlimit:10;}
	.st3{fill:none;stroke:#FFFFFF;stroke-width:6;stroke-linecap:round;stroke-miterlimit:10;}
</style>
<path class="st0" d="M136.7,141l-8.4-23.1c-2.1-5.7-3.1-11.7-3.1-17.7v-5.7c0-11.6-9.4-20.9-20.9-20.9H91.9c-4.2,0-12,1.9-14.6,4.9
	L77,78.6l-3.5-48.6c-0.2-3.4-3.1-6-6.5-6h0c-3.6,0-6.5,2.9-6.5,6.5v67.3l-23-8.2c-2.3-0.8-4.8,0-6.2,1.9l0,0
	c-1.6,2.3-1.3,5.4,0.8,7.3L53,117.3c4.4,3.9,9.3,7,14.8,9.2l6.1,2.5c6.3,2.5,12,6.3,16.8,11.1l4,4"/>
<path class="st0" d="M48.1,51.9H22c-6.6,0-11.9-5.3-11.9-11.9V19.7c0-6.6,5.3-11.9,11.9-11.9h106.5c6.6,0,11.9,5.3,11.9,11.9V40
	c0,6.6-5.3,11.9-11.9,11.9H86.4"/>
</svg>
