<?xml version="1.0" encoding="utf-8"?>
<!-- Generator: Adobe Illustrator 27.2.0, SVG Export Plug-In . SVG Version: 6.00 Build 0)  -->
<svg version="1.1" id="Ebene_1" xmlns="http://www.w3.org/2000/svg" xmlns:xlink="http://www.w3.org/1999/xlink" x="0px" y="0px"
	 viewBox="0 0 150 150" style="enable-background:new 0 0 150 150;" xml:space="preserve">
<style type="text/css">
	.st0{fill:none;stroke:#FFFFFF;stroke-width:6;stroke-linejoin:round;stroke-miterlimit:10;}
	.st1{fill:none;stroke:#FFFFFF;stroke-width:6;stroke-miterlimit:10;}
	.st2{fill:none;stroke:#FFFFFF;stroke-width:6;stroke-linecap:round;stroke-linejoin:round;stroke-miterlimit:10;}
	.st3{fill:none;stroke:#FFFFFF;stroke-width:6;stroke-linecap:round;stroke-miterlimit:10;}
</style>
<g>
	<path class="st0" d="M52.2,91.2h19.1c5.3,0,9.6,4.3,9.6,9.6v34.5c0,5.3-4.3,9.6-9.6,9.6H15.3c-5.3,0-9.6-4.3-9.6-9.6v-34.5
		c0-5.3,4.3-9.6,9.6-9.6h16.2"/>
	<path class="st0" d="M116,59h19.1c5.3,0,9.6-4.3,9.6-9.6V14.9c0-5.3-4.3-9.6-9.6-9.6H79.1c-5.3,0-9.6,4.3-9.6,9.6v34.5
		c0,5.3,4.3,9.6,9.6,9.6h16.2"/>
	<g>
		<polyline class="st0" points="58,105.9 42.2,121.6 26.4,105.9 		"/>
	</g>
	<g>
		<polyline class="st0" points="42.2,117.7 42.2,75 106,75.1 106,32.4 		"/>
		<polyline class="st0" points="121.8,44.3 106,28.5 90.2,44.3 		"/>
	</g>
</g>
</svg>
