<?xml version="1.0" encoding="utf-8"?>
<!-- Generator: Adobe Illustrator 27.2.0, SVG Export Plug-In . SVG Version: 6.00 Build 0)  -->
<svg version="1.1" id="Ebene_1" xmlns="http://www.w3.org/2000/svg" xmlns:xlink="http://www.w3.org/1999/xlink" x="0px" y="0px"
	 viewBox="0 0 150 150" style="enable-background:new 0 0 150 150;" xml:space="preserve">
<style type="text/css">
	.st0{fill:none;stroke:#FFFFFF;stroke-width:6;stroke-linejoin:round;stroke-miterlimit:10;}
	.st1{fill:none;stroke:#FFFFFF;stroke-width:6;stroke-miterlimit:10;}
	.st2{fill:none;stroke:#FFFFFF;stroke-width:6;stroke-linecap:round;stroke-linejoin:round;stroke-miterlimit:10;}
	.st3{fill:none;stroke:#FFFFFF;stroke-width:6;stroke-linecap:round;stroke-miterlimit:10;}
</style>
<path class="st2" d="M97.8,124.3H47.4c-5,0-9-4-9-9V84.4c0-5,4-9,9-9h50.5c5,0,9,4,9,9v30.9C106.8,120.3,102.8,124.3,97.8,124.3z"/>
<line class="st2" x1="81.8" y1="124.3" x2="85.8" y2="138.5"/>
<line class="st2" x1="59.5" y1="138.5" x2="63.5" y2="124.3"/>
<line class="st2" x1="41.5" y1="142.7" x2="103.7" y2="142.7"/>
<g>
	<line class="st0" x1="71.6" y1="52.7" x2="71.6" y2="99.6"/>
	<polyline class="st0" points="86,88.7 71.6,103.1 57.3,88.7 	"/>
</g>
<path class="st0" d="M28.6,101.6c0,0-2.8-0.1-3.4-0.1c-11.1,0-20.1-9-20.1-20.1c0-9.2,6.2-17,14.7-19.3C20,44.8,34.1,30.8,51.5,30.8
	c1.7,0,3.4,0.1,5,0.4C56.6,17.6,67.6,6.6,81.3,6.6c13.7,0,24.8,11.1,24.8,24.8c0,0,0,0.1,0,0.1c0.7,0,1.4-0.1,2.2-0.1
	c19.3,0,35,15.7,35,35c0,16.9-12,31.1-27.9,34.4"/>
</svg>
