<?xml version="1.0" encoding="utf-8"?>
<!-- Generator: Adobe Illustrator 27.2.0, SVG Export Plug-In . SVG Version: 6.00 Build 0)  -->
<svg version="1.1" id="Ebene_1" xmlns="http://www.w3.org/2000/svg" xmlns:xlink="http://www.w3.org/1999/xlink" x="0px" y="0px"
	 viewBox="0 0 150 150" style="enable-background:new 0 0 150 150;" xml:space="preserve">
<style type="text/css">
	.st0{fill:none;stroke:#FFFFFF;stroke-width:6;stroke-linejoin:round;stroke-miterlimit:10;}
	.st1{fill:none;stroke:#FFFFFF;stroke-width:6;stroke-miterlimit:10;}
	.st2{fill:none;stroke:#FFFFFF;stroke-width:6;stroke-linecap:round;stroke-linejoin:round;stroke-miterlimit:10;}
	.st3{fill:none;stroke:#FFFFFF;stroke-width:6;stroke-linecap:round;stroke-miterlimit:10;}
</style>
<g>
	<path class="st2" d="M78.6,145.8H15.4v-17.7c0-6.4,5.2-11.6,11.6-11.6h40c6.4,0,11.6,5.2,11.6,11.6V145.8z"/>
	<path class="st2" d="M23.5,116.6c-0.9,0-1.6-0.7-1.6-1.6v0c0-5.5,4.5-10,10-10h30.2c5.5,0,10,4.5,10,10v0c0,0.9-0.7,1.6-1.6,1.6"/>
</g>
<g>
	<g>
		
			<rect x="50.3" y="32.6" transform="matrix(0.7071 -0.7071 0.7071 0.7071 -14.1889 65.3155)" class="st2" width="42.9" height="34.3"/>
		<path class="st2" d="M65,86.7l2.6-2.6c2.2-2.2,2.2-5.8,0-8L45.5,53.9c-2.2-2.2-5.8-2.2-8,0l-2.6,2.6c-2.2,2.2-2.2,5.8,0,8L57,86.7
			C59.2,88.9,62.8,88.9,65,86.7z"/>
		<path class="st2" d="M105.9,45.9l2.6-2.6c2.2-2.2,2.2-5.8,0-8L86.3,13c-2.2-2.2-5.8-2.2-8,0l-2.6,2.6c-2.2,2.2-2.2,5.8,0,8
			l22.2,22.2C100.1,48.1,103.7,48.1,105.9,45.9z"/>
	</g>
	<g>
		<path class="st2" d="M89.7,56.8l42.2,38.3c5.9,5.4,7.2,13.6,2.9,17.9l0,0c-4.3,4.3-12.5,3-17.9-2.9L78.6,68"/>
		<line class="st2" x1="103.9" y1="95.8" x2="117.6" y2="82.1"/>
	</g>
</g>
</svg>
