<svg width="193" height="216" viewBox="0 0 193 216" fill="none" xmlns="http://www.w3.org/2000/svg">
<g clip-path="url(#clip0_1288_1606)">
<mask id="mask0_1288_1606" style="mask-type:luminance" maskUnits="userSpaceOnUse" x="0" y="0" width="193" height="217">
<path d="M0 216.004H193V0H0V216.004Z" fill="white"/>
</mask>
<g mask="url(#mask0_1288_1606)">
<path d="M0 150.433C0.0105504 156.564 2.45235 162.44 6.79048 166.775C11.1286 171.11 17.0093 173.55 23.1444 173.561C26.5703 173.561 29.9536 172.801 33.0494 171.335C36.1453 169.869 38.8765 167.734 41.0453 165.084L74.872 184.598C73.8546 187.23 73.3311 190.027 73.3277 192.849C73.3383 198.979 75.7801 204.856 80.1182 209.191C84.4563 213.526 90.337 215.966 96.4721 215.976C102.607 215.966 108.488 213.526 112.826 209.191C117.164 204.856 119.606 198.979 119.616 192.849C119.613 190.027 119.088 187.23 118.068 184.598L151.895 165.084C154.063 167.734 156.795 169.869 159.891 171.335C162.986 172.802 166.37 173.562 169.796 173.561C175.93 173.549 181.811 171.109 186.148 166.774C190.486 162.439 192.929 156.564 192.94 150.433C192.93 144.969 190.988 139.685 187.456 135.514C183.924 131.343 179.029 128.554 173.639 127.641V88.3716C179.029 87.4574 183.923 84.6684 187.455 80.4976C190.987 76.3268 192.93 71.0426 192.94 65.5789C192.929 59.4487 190.486 53.5728 186.148 49.238C181.811 44.9033 175.93 42.4629 169.796 42.4513C166.37 42.4505 162.986 43.2107 159.891 44.6768C156.795 46.143 154.063 48.2785 151.895 50.9288L118.116 31.3939C119.136 28.7625 119.661 25.9656 119.664 23.1437C119.654 17.0131 117.212 11.1367 112.874 6.80167C108.536 2.46668 102.655 0.026656 96.5199 0.0161133C90.3849 0.026656 84.5042 2.46668 80.1661 6.80167C75.8279 11.1367 73.3861 17.0131 73.3756 23.1437C73.3788 25.9652 73.9023 28.762 74.9199 31.3939L41.0613 50.9088C38.8927 48.253 36.1598 46.1126 33.0609 44.6429C29.962 43.1732 26.5746 42.4109 23.1444 42.4114C17.0097 42.423 11.1295 44.8634 6.79164 49.1981C2.45374 53.5329 0.0116018 59.4088 0 65.539C0.0104514 71.0028 1.95334 76.2869 5.48531 80.4578C9.01729 84.6286 13.911 87.4175 19.3016 88.3317V127.601C13.9042 128.516 9.00526 131.311 5.47246 135.49C1.93966 139.669 0.00103854 144.963 0 150.433ZM96.496 208.292C92.403 208.287 88.4791 206.66 85.5849 203.768C82.6907 200.876 81.0624 196.955 81.0571 192.865C81.0624 188.775 82.6907 184.853 85.5849 181.961C88.4791 179.069 92.403 177.442 96.496 177.437C100.59 177.441 104.515 179.068 107.41 181.96C110.305 184.852 111.934 188.774 111.939 192.865C111.934 196.955 110.305 200.877 107.41 203.769C104.515 206.661 100.59 208.288 96.496 208.292ZM185.279 150.433C185.274 154.524 183.646 158.445 180.752 161.338C177.858 164.23 173.933 165.857 169.84 165.861C165.747 165.856 161.823 164.229 158.929 161.337C156.034 158.444 154.406 154.523 154.401 150.433C154.406 146.343 156.034 142.422 158.929 139.53C161.823 136.638 165.747 135.011 169.84 135.006C173.933 135.01 177.858 136.637 180.752 139.529C183.646 142.421 185.274 146.343 185.279 150.433ZM169.84 50.1472C173.933 50.1514 177.858 51.7782 180.752 54.6706C183.646 57.5629 185.274 61.4845 185.279 65.5749C185.274 69.6653 183.646 73.587 180.752 76.4793C177.858 79.3717 173.933 80.9984 169.84 81.0026C165.747 80.9974 161.823 79.3703 158.929 76.4781C156.034 73.586 154.406 69.665 154.401 65.5749C154.406 61.4849 156.034 57.5638 158.929 54.6717C161.823 51.7796 165.747 50.1525 169.84 50.1472ZM96.496 7.72C100.59 7.72422 104.515 9.35085 107.41 12.2431C110.305 15.1353 111.934 19.0569 111.939 23.1477C111.934 27.2385 110.305 31.1601 107.41 34.0523C104.515 36.9446 100.59 38.5712 96.496 38.5754C92.4026 38.5712 88.4782 36.9444 85.5837 34.0521C82.6893 31.1597 81.0613 27.2381 81.0571 23.1477C81.0613 19.0573 82.6893 15.1357 85.5837 12.2433C88.4782 9.35098 92.4026 7.72422 96.496 7.72ZM46.3206 65.5749C46.3167 62.8523 45.8289 60.1521 44.8801 57.5999L78.8025 38.0252C80.9708 40.6066 83.6784 42.6825 86.735 44.1071C89.7916 45.5317 93.1233 46.2704 96.496 46.2713C99.8701 46.2718 103.203 45.5338 106.262 44.1092C109.32 42.6846 112.028 40.6079 114.197 38.0252L148.116 57.5959C147.166 60.1479 146.679 62.8483 146.675 65.5709C146.686 71.0347 148.629 76.3188 152.161 80.4897C155.693 84.6605 160.586 87.4494 165.977 88.3636V127.633C160.586 128.546 155.692 131.335 152.16 135.506C148.628 139.677 146.685 144.961 146.675 150.425C146.678 153.148 147.166 155.849 148.116 158.4L114.197 177.975C112.029 175.393 109.321 173.317 106.263 171.892C103.206 170.467 99.8734 169.729 96.5 169.729C93.1273 169.73 89.7956 170.469 86.739 171.893C83.6824 173.318 80.9748 175.394 78.8065 177.975L44.8881 158.4C45.8372 155.848 46.3249 153.148 46.3286 150.425C46.319 144.961 44.3764 139.677 40.8442 135.506C37.3121 131.335 32.418 128.546 27.027 127.633V88.3636C32.4176 87.4494 37.3113 84.6605 40.8433 80.4897C44.3753 76.3188 46.3182 71.0347 46.3286 65.5709M7.72942 65.5709C7.73573 61.4857 9.3612 57.5693 12.2501 54.6787C15.139 51.7882 19.0562 50.1588 23.1444 50.1472C27.2377 50.1514 31.1622 51.7782 34.0566 54.6706C36.9511 57.5629 38.579 61.4845 38.5832 65.5749C38.578 69.665 36.9497 73.586 34.0555 76.4781C31.1613 79.3703 27.2374 80.9974 23.1444 81.0026C19.0513 80.9974 15.1275 79.3703 12.2332 76.4781C9.33904 73.586 7.71075 69.665 7.70547 65.5749M23.1444 135.002C27.2408 135.003 31.1694 136.628 34.0672 139.522C36.965 142.415 38.595 146.34 38.5992 150.433C38.5939 154.526 36.9634 158.45 34.0658 161.342C31.1681 164.235 27.2401 165.86 23.1444 165.861C19.0534 165.853 15.1326 164.224 12.241 161.332C9.34936 158.441 7.72272 154.521 7.71745 150.433C7.72166 146.345 9.34784 142.424 12.2396 139.532C15.1313 136.639 19.0527 135.01 23.1444 135.002Z" fill="white"/>
</g>
</g>
<defs>
<clipPath id="clip0_1288_1606">
<rect width="193" height="216" fill="white"/>
</clipPath>
</defs>
</svg>
