<svg width="188" height="182" viewBox="0 0 188 182" fill="none" xmlns="http://www.w3.org/2000/svg">
<g clip-path="url(#clip0_1288_1516)">
<mask id="mask0_1288_1516" style="mask-type:luminance" maskUnits="userSpaceOnUse" x="0" y="0" width="188" height="182">
<path d="M188 0H0V182H188V0Z" fill="white"/>
</mask>
<g mask="url(#mask0_1288_1516)">
<path d="M25.5703 154.905C25.5748 161.782 28.1962 168.399 32.9028 173.415C37.6094 178.431 44.0488 181.469 50.9146 181.915C57.7804 182.36 64.5586 180.178 69.874 175.812C75.1895 171.446 78.6443 165.222 79.5376 158.404H86.1439C87.0728 158.404 87.9637 158.035 88.6205 157.378C89.2773 156.722 89.6464 155.832 89.6464 154.903C89.6464 153.975 89.2773 153.084 88.6205 152.428C87.9637 151.771 87.0728 151.403 86.1439 151.403H79.5376C78.7488 145.329 75.9181 139.704 71.51 135.45L74.597 130.989C75.0632 130.226 75.2195 129.313 75.0337 128.438C74.848 127.563 74.3342 126.792 73.5979 126.283C72.8617 125.775 71.9586 125.567 71.0739 125.703C70.1893 125.838 69.3901 126.307 68.8404 127.013L65.8888 131.275C60.3015 128.134 53.776 127.091 47.4874 128.332L45.3855 121.868C45.2436 121.431 45.0169 121.027 44.7184 120.677C44.4199 120.328 44.0555 120.041 43.6459 119.832C43.2364 119.623 42.7897 119.497 42.3315 119.461C41.8732 119.425 41.4123 119.479 40.975 119.621C40.5378 119.763 40.1328 119.99 39.7832 120.288C39.4336 120.586 39.1461 120.951 38.9374 121.36C38.7286 121.769 38.6025 122.216 38.5663 122.674C38.5301 123.132 38.5846 123.592 38.7266 124.029L40.8547 130.58C36.281 132.798 32.4232 136.257 29.7214 140.562C27.0196 144.866 25.5825 149.843 25.5741 154.924M52.6837 134.826C56.6597 134.827 60.5462 136.006 63.8518 138.214C67.1575 140.422 69.7338 143.561 71.255 147.232C72.7762 150.904 73.174 154.944 72.3981 158.841C71.6223 162.739 69.7076 166.319 66.8961 169.129C64.0846 171.939 60.5027 173.852 56.6031 174.628C52.7035 175.403 48.6614 175.006 44.9879 173.485C41.3144 171.965 38.1744 169.39 35.965 166.086C33.7556 162.782 32.5759 158.898 32.5752 154.924C32.5812 149.595 34.7016 144.487 38.4714 140.719C42.2412 136.951 47.3524 134.832 52.6837 134.826Z" fill="white"/>
<path d="M94.0028 61.2557C94.9305 61.2527 95.8192 60.8817 96.4734 60.2243C97.1277 59.5669 97.4941 58.6767 97.4921 57.7495V53.9389C103.67 53.1381 109.382 50.2281 113.66 45.7013L119.041 49.6059C119.792 50.1516 120.73 50.3766 121.647 50.2314C122.564 50.0862 123.386 49.5827 123.932 48.8317C124.478 48.0807 124.703 47.1437 124.558 46.2268C124.413 45.3099 123.909 44.4883 123.158 43.9426L117.796 40.053C120.048 35.9265 121.186 31.2855 121.1 26.586C121.014 21.8866 119.707 17.2903 117.306 13.2486C114.905 9.20703 111.494 5.85913 107.407 3.53384C103.32 1.20854 98.698 -0.0141602 93.9953 -0.0141602C89.2925 -0.0141602 84.6707 1.20854 80.5837 3.53384C76.4968 5.85913 73.0853 9.20703 70.6845 13.2486C68.2837 17.2903 66.9761 21.8866 66.8902 26.586C66.8043 31.2855 67.943 35.9265 70.1945 40.053L64.9004 43.8975C64.1692 44.4509 63.6843 45.2688 63.5497 46.1756C63.4151 47.0824 63.6415 48.0057 64.1804 48.7475C64.7193 49.4893 65.5278 49.9903 66.4321 50.1431C67.3365 50.2958 68.2647 50.0881 69.0176 49.5645L74.3342 45.7013C78.6122 50.2281 84.3239 53.1381 90.5022 53.9389V57.7495C90.5022 58.2094 90.5929 58.6649 90.769 59.0898C90.9451 59.5147 91.2032 59.9009 91.5286 60.2261C91.854 60.5513 92.2403 60.8093 92.6655 60.9853C93.0907 61.1613 93.5464 61.2519 94.0066 61.2519M73.8943 27.0955C73.8951 23.1216 75.0747 19.2371 77.2841 15.9332C79.4936 12.6294 82.6335 10.0544 86.307 8.53403C89.9805 7.01363 94.0226 6.61602 97.9222 7.39147C101.822 8.16692 105.404 10.0806 108.215 12.8906C111.027 15.7006 112.941 19.2806 113.717 23.1781C114.493 27.0757 114.095 31.1156 112.574 34.7871C111.053 38.4587 108.477 41.597 105.171 43.8052C101.865 46.0135 97.9788 47.1925 94.0028 47.1932C88.6715 47.1873 83.5603 45.0679 79.7905 41.3002C76.0208 37.5324 73.9003 32.4239 73.8943 27.0955Z" fill="white"/>
<path d="M188.005 76.2502C188.019 70.8637 186.424 65.5957 183.424 61.1206C180.425 56.6456 176.157 53.1672 171.167 51.131C166.178 49.0947 160.694 48.5931 155.418 49.6906C150.141 50.788 145.313 53.4345 141.55 57.2911L136.117 53.3527C135.366 52.8045 134.427 52.5771 133.508 52.7205C132.589 52.864 131.764 53.3664 131.216 54.1174C130.668 54.8684 130.44 55.8064 130.583 56.7251C130.727 57.6438 131.23 58.4678 131.981 59.016L137.324 62.8905C134.992 66.9585 133.766 71.5656 133.767 76.2539C133.771 78.0051 133.944 79.7519 134.282 81.47L130.007 82.8943C129.554 83.0259 129.132 83.2474 128.767 83.5458C128.402 83.8441 128.101 84.2131 127.882 84.6306C127.662 85.0481 127.53 85.5055 127.492 85.9754C127.454 86.4453 127.511 86.918 127.66 87.3653C127.809 87.8126 128.047 88.2251 128.36 88.5782C128.672 88.9314 129.053 89.2178 129.479 89.4204C129.905 89.6229 130.367 89.7375 130.839 89.7571C131.31 89.7768 131.78 89.7011 132.222 89.5347L136.531 88.0992C139.262 93.678 143.821 98.1549 149.45 100.786L147.446 106.953C147.304 107.39 147.249 107.851 147.285 108.309C147.321 108.767 147.447 109.214 147.655 109.623C147.864 110.033 148.151 110.397 148.501 110.696C148.85 110.994 149.255 111.221 149.693 111.363C150.13 111.505 150.591 111.56 151.049 111.524C151.508 111.488 151.954 111.362 152.364 111.154C152.774 110.945 153.138 110.658 153.437 110.309C153.736 109.959 153.963 109.555 154.105 109.118L156.124 102.906C160.027 103.622 164.041 103.47 167.878 102.46C171.716 101.449 175.284 99.6062 178.328 97.0611C181.372 94.5161 183.817 91.3318 185.49 87.7348C187.162 84.1379 188.021 80.2166 188.005 76.2502ZM160.896 96.348C156.92 96.3472 153.033 95.1682 149.727 92.96C146.422 90.7517 143.845 87.6134 142.324 83.9419C140.803 80.2703 140.405 76.2304 141.181 72.3329C141.957 68.4354 143.872 64.8553 146.683 62.0453C149.495 59.2353 153.077 57.3216 156.976 56.5462C160.876 55.7707 164.918 56.1684 168.591 57.6888C172.265 59.2092 175.405 61.7841 177.614 65.0879C179.824 68.3918 181.003 72.2763 181.004 76.2502C180.997 81.5783 178.876 86.6862 175.107 90.4538C171.337 94.2213 166.227 96.341 160.896 96.348Z" fill="white"/>
<path d="M27.1092 103.345C28.7033 103.338 30.2936 103.191 31.8619 102.905L33.9073 109.196C34.0493 109.633 34.276 110.038 34.5744 110.387C34.8729 110.737 35.2373 111.024 35.6469 111.233C36.0564 111.442 36.5031 111.568 36.9614 111.604C37.4197 111.64 37.8806 111.585 38.3178 111.444C38.755 111.302 39.16 111.075 39.5097 110.777C39.8593 110.478 40.1467 110.114 40.3555 109.705C40.5643 109.296 40.6904 108.849 40.7265 108.391C40.7627 107.933 40.7082 107.472 40.5663 107.035L38.5359 100.79C44.1643 98.158 48.724 93.683 51.459 88.1064L55.768 89.5419C56.2093 89.7084 56.6797 89.784 57.151 89.7644C57.6223 89.7447 58.0848 89.6302 58.5107 89.4276C58.9366 89.225 59.3173 88.9386 59.6298 88.5855C59.9423 88.2323 60.1803 87.8198 60.3294 87.3725C60.4786 86.9253 60.5359 86.4525 60.4979 85.9826C60.4598 85.5127 60.3273 85.0553 60.1082 84.6378C59.889 84.2203 59.5878 83.8513 59.2226 83.553C58.8573 83.2547 58.4356 83.0331 57.9826 82.9015L53.7075 81.481C54.0459 79.7628 54.2184 78.0161 54.2226 76.2649C54.2243 71.5765 52.998 66.9693 50.6656 62.9015L55.9033 59.0946C56.6547 58.5489 57.1585 57.7273 57.3037 56.8104C57.449 55.8935 57.2239 54.9565 56.6779 54.2055C56.1319 53.4545 55.3098 52.951 54.3924 52.8058C53.475 52.6606 52.5375 52.8856 51.7861 53.4313L46.4507 57.2908C43.3218 54.1042 39.4533 51.7402 35.1893 50.409C30.9254 49.0779 26.3984 48.8209 22.0111 49.661C17.6238 50.5011 13.5123 52.4122 10.0426 55.2243C6.5729 58.0363 3.85254 61.662 2.12362 65.7788C0.394709 69.8955 -0.289128 74.3756 0.132971 78.8203C0.555069 83.2651 2.07001 87.5366 4.54297 91.2547C7.01594 94.9729 10.3702 98.0223 14.3073 100.132C18.2444 102.241 22.6422 103.345 27.1092 103.345ZM27.1092 56.1559C31.0853 56.1566 34.9718 57.3356 38.2774 59.5439C41.583 61.7521 44.1593 64.8904 45.6805 68.562C47.2018 72.2335 47.5996 76.2735 46.8237 80.171C46.0478 84.0685 44.1331 87.6485 41.3217 90.4585C38.5102 93.2685 34.9282 95.1822 31.0286 95.9576C27.1291 96.7331 23.087 96.3355 19.4135 94.8151C15.74 93.2947 12.6 90.7197 10.3906 87.4159C8.18117 84.112 7.00151 80.2275 7.00076 76.2536C7.00873 70.9265 9.13009 65.82 12.8996 62.0538C16.6692 58.2877 21.7793 56.1693 27.1092 56.1634" fill="white"/>
<path d="M101.854 158.404H108.46C109.062 163.054 110.862 167.469 113.683 171.215C116.504 174.961 120.25 177.911 124.555 179.776C128.859 181.641 133.574 182.357 138.239 181.854C142.903 181.351 147.357 179.646 151.164 176.906C154.971 174.166 158.001 170.485 159.957 166.223C161.914 161.961 162.729 157.265 162.325 152.593C161.92 147.922 160.308 143.435 157.648 139.573C154.987 135.711 151.369 132.606 147.147 130.561L149.177 124.33C149.453 123.449 149.371 122.495 148.947 121.675C148.523 120.855 147.793 120.236 146.914 119.951C146.036 119.666 145.081 119.74 144.256 120.155C143.432 120.57 142.804 121.294 142.511 122.169L140.511 128.317C134.222 127.076 127.696 128.12 122.109 131.26L119.15 127.002C118.606 126.277 117.802 125.791 116.907 125.646C116.012 125.5 115.095 125.708 114.35 126.224C113.605 126.74 113.089 127.525 112.91 128.414C112.732 129.303 112.905 130.226 113.393 130.989L116.484 135.45C112.075 139.704 109.243 145.329 108.453 151.403H101.854C100.925 151.403 100.034 151.772 99.3774 152.428C98.7206 153.085 98.3516 153.975 98.3516 154.903C98.3516 155.832 98.7206 156.722 99.3774 157.379C100.034 158.035 100.925 158.404 101.854 158.404ZM135.318 134.811C139.294 134.813 143.181 135.993 146.486 138.202C149.792 140.411 152.367 143.55 153.888 147.222C155.408 150.895 155.805 154.935 155.027 158.833C154.25 162.73 152.334 166.31 149.521 169.119C146.709 171.928 143.126 173.841 139.225 174.615C135.325 175.388 131.283 174.989 127.61 173.467C123.937 171.945 120.798 169.368 118.59 166.063C116.382 162.757 115.204 158.872 115.206 154.898C115.215 149.571 117.337 144.464 121.107 140.699C124.878 136.934 129.988 134.816 135.318 134.811Z" fill="white"/>
<path d="M103.507 116.705L105.612 119.745C105.936 120.209 106.366 120.588 106.868 120.85C107.369 121.112 107.927 121.248 108.493 121.248C109.131 121.247 109.758 121.072 110.304 120.74C110.85 120.409 111.295 119.935 111.591 119.37C111.887 118.804 112.023 118.168 111.984 117.531C111.945 116.894 111.732 116.279 111.369 115.754L109.113 112.526C111.311 110.283 112.967 107.568 113.953 104.587C114.939 101.606 115.229 98.4396 114.802 95.3293L119.242 93.8487C119.695 93.7172 120.117 93.4956 120.482 93.1972C120.848 92.8989 121.149 92.5299 121.368 92.1124C121.587 91.695 121.72 91.2376 121.758 90.7676C121.796 90.2977 121.738 89.825 121.589 89.3777C121.44 88.9305 121.202 88.5179 120.89 88.1648C120.577 87.8117 120.196 87.5252 119.77 87.3226C119.345 87.1201 118.882 87.0055 118.411 86.9859C117.939 86.9662 117.469 87.0419 117.028 87.2083L112.76 88.6288C111.282 85.6755 109.129 83.1117 106.475 81.1452C103.821 79.1786 100.74 77.8646 97.4832 77.3097V73.4991C97.4832 72.5707 97.1142 71.6803 96.4574 71.0238C95.8006 70.3673 94.9097 69.9985 93.9808 69.9985C93.0519 69.9985 92.161 70.3673 91.5042 71.0238C90.8474 71.6803 90.4784 72.5707 90.4784 73.4991V77.3135C87.2268 77.874 84.1525 79.1903 81.5034 81.1565C78.8543 83.1227 76.7047 85.6835 75.2278 88.6326L70.964 87.2121C70.5226 87.0456 70.0522 86.97 69.5809 86.9896C69.1096 87.0093 68.6472 87.1238 68.2212 87.3264C67.7953 87.529 67.4147 87.8154 67.1021 88.1685C66.7896 88.5217 66.5517 88.9342 66.4025 89.3815C66.2533 89.8287 66.196 90.3015 66.2341 90.7714C66.2721 91.2413 66.4046 91.6987 66.6238 92.1162C66.8429 92.5337 67.1441 92.9027 67.5094 93.201C67.8746 93.4993 68.2964 93.7209 68.7493 93.8524L73.1861 95.3331C73.0689 96.2165 73.0061 97.1064 72.9981 97.9975C72.9985 103.42 75.1055 108.63 78.875 112.53L76.619 115.758C76.1417 116.521 75.9766 117.439 76.158 118.32C76.3395 119.202 76.8535 119.98 77.5935 120.493C78.3335 121.005 79.2427 121.214 80.1324 121.075C81.0221 120.936 81.824 120.459 82.3718 119.745L84.4774 116.705C87.4191 118.212 90.6772 118.997 93.9827 118.997C97.2882 118.997 100.546 118.212 103.488 116.705M79.9729 97.9975C79.9722 95.2278 80.7933 92.5201 82.3324 90.2168C83.8716 87.9136 86.0595 86.1183 88.6196 85.058C91.1798 83.9978 93.997 83.7202 96.7149 84.2603C99.4329 84.8005 101.93 86.1341 103.889 88.0926C105.849 90.0511 107.183 92.5464 107.723 95.263C108.264 97.9795 107.986 100.795 106.925 103.354C105.864 105.913 104.068 108.1 101.764 109.638C99.4593 111.176 96.7501 111.997 93.9789 111.996C90.2655 111.992 86.7054 110.516 84.0796 107.892C81.4538 105.267 79.9769 101.709 79.9729 97.9975Z" fill="white"/>
</g>
</g>
<defs>
<clipPath id="clip0_1288_1516">
<rect width="188" height="182" fill="white"/>
</clipPath>
</defs>
</svg>
