<svg width="195" height="195" viewBox="0 0 195 195" fill="none" xmlns="http://www.w3.org/2000/svg">
<g clip-path="url(#clip0_1288_1528)">
<mask id="mask0_1288_1528" style="mask-type:luminance" maskUnits="userSpaceOnUse" x="0" y="-1" width="196" height="196">
<path d="M0 194.996H195.004V-0.0131836H0V194.996Z" fill="white"/>
</mask>
<g mask="url(#mask0_1288_1528)">
<path d="M97.4986 105.624C87.8056 105.636 78.5128 109.491 71.6588 116.346C64.8048 123.2 60.9491 132.493 60.9375 142.186C60.9491 151.879 64.8048 161.172 71.6588 168.026C78.5128 174.881 87.8056 178.736 97.4986 178.748C107.192 178.738 116.485 174.882 123.34 168.028C130.194 161.173 134.049 151.88 134.06 142.186C134.049 132.492 130.194 123.199 123.34 116.344C116.485 109.49 107.192 105.634 97.4986 105.624ZM97.4986 170.624C89.9651 170.611 82.7438 167.613 77.4168 162.286C72.0897 156.959 69.0914 149.737 69.0787 142.203C69.0914 134.67 72.0897 127.448 77.4168 122.121C82.7438 116.794 89.9651 113.796 97.4986 113.783C105.032 113.797 112.252 116.796 117.579 122.122C122.906 127.449 125.905 134.67 125.919 142.203C125.905 149.737 122.906 156.958 117.579 162.285C112.252 167.611 105.032 170.61 97.4986 170.624Z" fill="white"/>
<path d="M25.5914 170.252C26.5996 172.476 27.7309 174.642 28.9799 176.741C29.3363 177.353 29.8467 177.861 30.4603 178.214C31.074 178.568 31.7695 178.755 32.4777 178.756C33.197 178.757 33.9034 178.565 34.524 178.201C34.9849 177.932 35.3883 177.575 35.711 177.15C36.0338 176.725 36.2695 176.241 36.4047 175.724C36.54 175.208 36.5721 174.67 36.4992 174.142C36.4263 173.613 36.2498 173.104 35.9799 172.644C35.4684 171.769 34.7907 170.558 34.231 169.483L45.0874 157.625C45.5311 157.14 45.8507 156.555 46.019 155.92C46.1873 155.285 46.1992 154.619 46.0537 153.978C45.1679 150.105 44.7191 146.145 44.7158 142.173C44.719 138.2 45.1677 134.24 46.0537 130.367C46.1992 129.726 46.1873 129.06 46.019 128.425C45.8507 127.79 45.5311 127.205 45.0874 126.721L34.113 114.731C36.2243 109.855 38.8931 105.239 42.0662 100.976L57.9332 104.474C58.5753 104.615 59.2422 104.599 59.8766 104.426C60.511 104.253 61.0939 103.929 61.5753 103.481C67.4038 98.0651 74.3765 94.0303 81.9765 91.6758C82.6057 91.483 83.1787 91.1403 83.6463 90.6773C84.1139 90.2142 84.4621 89.6446 84.6611 89.0174L89.5537 73.526C94.8299 72.9237 100.158 72.9237 105.434 73.526L110.326 89.0174C110.525 89.6446 110.874 90.2142 111.341 90.6773C111.809 91.1403 112.382 91.483 113.011 91.6758C120.611 94.0307 127.583 98.0655 133.412 103.481C133.894 103.928 134.477 104.252 135.111 104.425C135.745 104.598 136.412 104.615 137.054 104.474L152.921 100.976C156.095 105.238 158.764 109.854 160.875 114.731L149.9 126.721C149.458 127.206 149.139 127.791 148.971 128.426C148.804 129.061 148.792 129.727 148.938 130.367C149.824 134.24 150.273 138.2 150.276 142.173C150.273 146.145 149.824 150.105 148.938 153.978C148.792 154.618 148.804 155.284 148.971 155.919C149.139 156.554 149.458 157.139 149.9 157.625L160.757 169.483C160.179 170.562 159.497 171.765 159.008 172.631C158.737 173.091 158.56 173.599 158.486 174.128C158.412 174.656 158.443 175.194 158.577 175.71C158.711 176.227 158.945 176.712 159.267 177.138C159.588 177.564 159.99 177.922 160.45 178.192C160.91 178.463 161.419 178.64 161.947 178.714C162.476 178.788 163.014 178.757 163.53 178.623C164.047 178.489 164.532 178.255 164.957 177.933C165.383 177.612 165.742 177.209 166.012 176.749C167.273 174.652 168.409 172.483 169.414 170.252C169.69 169.545 169.763 168.774 169.624 168.028C169.485 167.281 169.14 166.588 168.627 166.028L157.316 153.672C158.038 149.887 158.401 146.043 158.4 142.19C158.395 138.337 158.026 134.492 157.298 130.708L168.609 118.352C169.121 117.792 169.466 117.1 169.605 116.355C169.745 115.609 169.672 114.839 169.396 114.132C166.551 106.854 162.616 100.05 157.727 93.9538C157.251 93.3634 156.62 92.9173 155.905 92.6655C155.19 92.4137 154.418 92.3662 153.678 92.5284L137.334 96.1444C131.489 91.0904 124.74 87.1873 117.445 84.6406L112.408 68.6901C112.179 67.9658 111.751 67.3201 111.174 66.8263C110.597 66.3325 109.893 66.0103 109.142 65.8961C101.424 64.7338 93.5764 64.7338 85.8591 65.8961C85.1074 66.01 84.4027 66.3321 83.8247 66.8259C83.2467 67.3197 82.8185 67.9654 82.5886 68.6901L77.5473 84.6537C70.2512 87.1992 63.5026 91.1025 57.6578 96.1575L41.3098 92.524C40.5691 92.3629 39.7982 92.4109 39.0833 92.6626C38.3683 92.9143 37.7374 93.3598 37.261 93.9494C32.3706 100.045 28.4357 106.849 25.5914 114.128C25.315 114.835 25.2422 115.604 25.3813 116.35C25.5204 117.096 25.8658 117.788 26.3784 118.347L37.6895 130.704C36.96 134.488 36.5911 138.332 36.5877 142.186C36.5911 146.039 36.96 149.884 37.6895 153.668L26.3827 166.028C25.8702 166.588 25.5248 167.28 25.3857 168.025C25.2466 168.771 25.3193 169.541 25.5957 170.248" fill="white"/>
<path d="M170.625 0H24.3765C17.9123 0.00462936 11.7141 2.57403 7.14237 7.14418C2.57068 11.7143 -0.000864669 17.9118 -0.0078125 24.3761V170.628C-0.00202224 177.093 2.56902 183.292 7.14083 187.863C11.7126 192.434 17.9115 195.004 24.3765 195.009H170.625C177.088 195.001 183.284 192.429 187.853 187.858C192.422 183.288 194.991 177.091 194.997 170.628V24.3761C194.99 17.914 192.42 11.7186 187.851 7.14881C183.282 2.57903 177.087 0.00810134 170.625 0ZM186.873 170.628C186.867 174.936 185.153 179.065 182.108 182.111C179.062 185.157 174.933 186.87 170.625 186.876H24.3765C20.0684 186.871 15.938 185.158 12.8913 182.112C9.84467 179.066 8.13045 174.936 8.12466 170.628V48.7478H186.873V170.628ZM186.873 40.6283H8.12466V24.3761C8.12929 20.0672 9.84301 15.936 12.8898 12.8892C15.9366 9.8423 20.0676 8.12854 24.3765 8.12391H170.625C174.933 8.12969 179.063 9.84397 182.109 12.8907C185.155 15.9375 186.868 20.0679 186.873 24.3761V40.6283Z" fill="white"/>
</g>
</g>
<defs>
<clipPath id="clip0_1288_1528">
<rect width="195" height="195" fill="white"/>
</clipPath>
</defs>
</svg>
