<?xml version="1.0" encoding="utf-8"?>
<!-- Generator: Adobe Illustrator 27.2.0, SVG Export Plug-In . SVG Version: 6.00 Build 0)  -->
<svg version="1.1" id="Ebene_1" xmlns="http://www.w3.org/2000/svg" xmlns:xlink="http://www.w3.org/1999/xlink" x="0px" y="0px"
	 viewBox="0 0 150 150" style="enable-background:new 0 0 150 150;" xml:space="preserve">
<style type="text/css">
	.st0{fill:none;stroke:#FFFFFF;stroke-width:6;stroke-linejoin:round;stroke-miterlimit:10;}
	.st1{fill:none;stroke:#FFFFFF;stroke-width:6;stroke-miterlimit:10;}
	.st2{fill:none;stroke:#FFFFFF;stroke-width:6;stroke-linecap:round;stroke-linejoin:round;stroke-miterlimit:10;}
	.st3{fill:none;stroke:#FFFFFF;stroke-width:6;stroke-linecap:round;stroke-miterlimit:10;}
</style>
<g>
	<circle class="st2" cx="27.5" cy="62.3" r="19"/>
	<polyline class="st2" points="42.8,73.9 42.8,123.6 27.5,109.5 12.3,123.6 12.3,73.9 	"/>
</g>
<path class="st0" d="M27.6,32.4v-9.1c0-9.9,8.1-18,18-18h29c2.3,0,4.5,0.9,6.2,2.5L132,56.6c1.8,1.7,2.8,4.1,2.8,6.5v63.5
	c0,9.9-8.1,18-18,18H45.6c-9.9,0-18-8.1-18-18"/>
<path class="st2" d="M133.8,59.5H87.3c-5,0-9-4-9-9V6"/>
<line class="st2" x1="62.9" y1="84.5" x2="115.4" y2="84.5"/>
<line class="st2" x1="62.9" y1="103" x2="115.4" y2="103"/>
</svg>
