<?xml version="1.0" encoding="utf-8"?>
<!-- Generator: Adobe Illustrator 27.2.0, SVG Export Plug-In . SVG Version: 6.00 Build 0)  -->
<svg version="1.1" id="Ebene_1" xmlns="http://www.w3.org/2000/svg" xmlns:xlink="http://www.w3.org/1999/xlink" x="0px" y="0px"
	 viewBox="0 0 150 150" style="enable-background:new 0 0 150 150;" xml:space="preserve">
<style type="text/css">
	.st0{fill:none;stroke:#FFFFFF;stroke-width:6;stroke-linejoin:round;stroke-miterlimit:10;}
	.st1{fill:none;stroke:#FFFFFF;stroke-width:6;stroke-miterlimit:10;}
	.st2{fill:none;stroke:#FFFFFF;stroke-width:6;stroke-linecap:round;stroke-linejoin:round;stroke-miterlimit:10;}
	.st3{fill:none;stroke:#FFFFFF;stroke-width:6;stroke-linecap:round;stroke-miterlimit:10;}
</style>
<g>
	<g>
		<circle class="st1" cx="68.4" cy="75" r="8.9"/>
		<path class="st1" d="M98.1,83.3L90.7,79c0.2-1.3,0.3-2.6,0.3-4c0-1.7-0.2-3.3-0.5-4.9l7.2-4.2c0.6-0.3,0.8-1,0.4-1.6l-5.7-9.9
			c-0.3-0.6-1-0.8-1.6-0.4l-7.3,4.2c-2.3-2-5-3.6-8-4.6v-7.9c0-0.7-0.5-1.2-1.2-1.2H62.9c-0.7,0-1.2,0.5-1.2,1.2v7.8
			c-3.2,1-6.1,2.7-8.6,4.9l-6.3-3.6c-0.6-0.3-1.3-0.1-1.6,0.4L39.5,65c-0.3,0.6-0.1,1.3,0.4,1.6l6.3,3.6c-0.3,1.5-0.5,3.1-0.5,4.7
			c0,1.9,0.2,3.7,0.7,5.5L40.4,84c-0.6,0.3-0.8,1-0.4,1.6l5.7,9.9c0.3,0.6,1,0.8,1.6,0.4l6.5-3.7c2.5,2.1,5.5,3.7,8.8,4.6v7.4
			c0,0.7,0.5,1.2,1.2,1.2h11.5c0.7,0,1.2-0.5,1.2-1.2v-8.1c2.9-1.1,5.6-2.8,7.8-5l7,4c0.6,0.3,1.3,0.1,1.6-0.4l5.7-9.9
			C98.9,84.3,98.7,83.6,98.1,83.3z"/>
	</g>
	<path class="st0" d="M132.2,75c0,34.6-28.3,62.7-63.2,62.7S5.9,109.6,5.9,75S34.2,12.2,69,12.2c24.3,0,45.4,13.7,56,33.7"/>
	<polyline class="st0" points="146.9,88.4 131.5,73.1 116.2,88.4 	"/>
</g>
</svg>
