<?xml version="1.0" encoding="utf-8"?>
<!-- Generator: Adobe Illustrator 27.2.0, SVG Export Plug-In . SVG Version: 6.00 Build 0)  -->
<svg version="1.1" id="Ebene_1" xmlns="http://www.w3.org/2000/svg" xmlns:xlink="http://www.w3.org/1999/xlink" x="0px" y="0px"
	 viewBox="0 0 150 150" style="enable-background:new 0 0 150 150;" xml:space="preserve">
<style type="text/css">
	.st0{fill:none;stroke:#FFFFFF;stroke-width:6;stroke-linejoin:round;stroke-miterlimit:10;}
	.st1{fill:none;stroke:#FFFFFF;stroke-width:6;stroke-miterlimit:10;}
	.st2{fill:none;stroke:#FFFFFF;stroke-width:6;stroke-linecap:round;stroke-linejoin:round;stroke-miterlimit:10;}
	.st3{fill:none;stroke:#FFFFFF;stroke-width:6;stroke-linecap:round;stroke-miterlimit:10;}
</style>
<path class="st1" d="M18.5,86.4c-18.3-18.3-18.3-47.9,0-66.2s47.9-18.3,66.2,0c5.5,5.5,9.3,12,11.5,18.9"/>
<path class="st1" d="M98.2,57.8c-1,10.4-5.5,20.6-13.5,28.6C71,100.1,50.9,103.6,33.9,96.7"/>
<line class="st1" x1="84.7" y1="86.4" x2="98.8" y2="100.6"/>
<path class="st2" d="M139.2,141L139.2,141c-5.4,5.4-14.3,5.1-19.3-0.7l-28.1-32.7l13.9-13.9l32.7,28.1
	C144.3,126.7,144.6,135.6,139.2,141z"/>
<g>
	<circle class="st2" cx="23.5" cy="118.3" r="9"/>
	<circle class="st2" cx="36.3" cy="34.4" r="9"/>
	<circle class="st2" cx="71.6" cy="60.7" r="9"/>
	<circle class="st2" cx="125.8" cy="38" r="9"/>
	<line class="st2" x1="25" y1="109.1" x2="34.5" y2="44"/>
	<line class="st2" x1="45.1" y1="36.4" x2="63" y2="57.2"/>
	<line class="st2" x1="80.4" y1="58.2" x2="116.5" y2="40"/>
</g>
</svg>
