<svg width="376" height="465" viewBox="0 0 376 465" fill="none" xmlns="http://www.w3.org/2000/svg">
<path d="M102.907 120.503V150" stroke="white" stroke-width="6.01985"/>
<path d="M73.4098 97.0254V150" stroke="white" stroke-width="6.01985"/>
<path fill-rule="evenodd" clip-rule="evenodd" d="M135.414 131.996L135.414 103.647L129.394 103.647L129.394 141.397C130.848 137.988 132.868 134.802 135.414 131.996Z" fill="white"/>
<path fill-rule="evenodd" clip-rule="evenodd" d="M193.794 150C193.213 145.817 191.832 141.673 189.59 137.791C189.208 137.13 188.808 136.486 188.389 135.861L188.389 109.667L194.409 109.667L194.409 150L193.794 150Z" fill="white"/>
<path fill-rule="evenodd" clip-rule="evenodd" d="M158.892 120.961C160.91 120.873 162.925 120.967 164.912 121.237L164.912 87.3932L158.892 87.3932L158.892 120.961Z" fill="white"/>
<circle cx="160.396" cy="154.218" r="24.6814" transform="rotate(-30 160.396 154.218)" stroke="white" stroke-width="6.01985"/>
<path d="M171.232 172.986L187.786 201.66" stroke="white" stroke-width="6.01985"/>
<path d="M0.40918 18C0.40918 8.05886 8.46805 0 18.4092 0H357.206C367.147 0 375.206 8.05888 375.206 18V251.03H0.40918V18Z" fill="url(#paint0_linear_778_4194)"/>
<path d="M0.410034 251.03H375.207V447C375.207 456.941 367.148 465 357.207 465H18.41C8.46892 465 0.410034 456.941 0.410034 447V251.03Z" fill="url(#paint1_linear_778_4194)"/>
<path d="M30.26 405V392.04H38.063V394.209H32.429V397.44H36.983V399.6H32.429V405H30.26ZM43.8372 405.27C42.8532 405.27 41.9892 405.057 41.2452 404.631C40.5012 404.205 39.9192 403.614 39.4992 402.858C39.0852 402.102 38.8782 401.232 38.8782 400.248C38.8782 399.186 39.0822 398.265 39.4902 397.485C39.8982 396.699 40.4652 396.09 41.1912 395.658C41.9172 395.226 42.7572 395.01 43.7112 395.01C44.7192 395.01 45.5742 395.247 46.2762 395.721C46.9842 396.189 47.5092 396.852 47.8512 397.71C48.1932 398.568 48.3222 399.579 48.2382 400.743H46.0872V399.951C46.0812 398.895 45.8952 398.124 45.5292 397.638C45.1632 397.152 44.5872 396.909 43.8012 396.909C42.9132 396.909 42.2532 397.185 41.8212 397.737C41.3892 398.283 41.1732 399.084 41.1732 400.14C41.1732 401.124 41.3892 401.886 41.8212 402.426C42.2532 402.966 42.8832 403.236 43.7112 403.236C44.2452 403.236 44.7042 403.119 45.0882 402.885C45.4782 402.645 45.7782 402.3 45.9882 401.85L48.1302 402.498C47.7582 403.374 47.1822 404.055 46.4022 404.541C45.6282 405.027 44.7732 405.27 43.8372 405.27ZM40.4892 400.743V399.105H47.1762V400.743H40.4892ZM54.1433 405.27C53.2493 405.27 52.4693 405.045 51.8033 404.595C51.1373 404.145 50.6213 403.533 50.2553 402.759C49.8893 401.985 49.7063 401.112 49.7063 400.14C49.7063 399.156 49.8893 398.28 50.2553 397.512C50.6273 396.738 51.1523 396.129 51.8303 395.685C52.5083 395.235 53.3063 395.01 54.2243 395.01C55.1483 395.01 55.9223 395.235 56.5463 395.685C57.1763 396.129 57.6533 396.738 57.9773 397.512C58.3013 398.286 58.4633 399.162 58.4633 400.14C58.4633 401.106 58.3013 401.979 57.9773 402.759C57.6533 403.533 57.1703 404.145 56.5283 404.595C55.8863 405.045 55.0913 405.27 54.1433 405.27ZM54.4763 403.326C55.0583 403.326 55.5263 403.194 55.8803 402.93C56.2403 402.66 56.5013 402.285 56.6633 401.805C56.8313 401.325 56.9153 400.77 56.9153 400.14C56.9153 399.504 56.8313 398.949 56.6633 398.475C56.5013 397.995 56.2463 397.623 55.8983 397.359C55.5503 397.089 55.1003 396.954 54.5483 396.954C53.9663 396.954 53.4863 397.098 53.1083 397.386C52.7303 397.668 52.4513 398.052 52.2713 398.538C52.0913 399.018 52.0013 399.552 52.0013 400.14C52.0013 400.734 52.0883 401.274 52.2623 401.76C52.4423 402.24 52.7153 402.621 53.0813 402.903C53.4473 403.185 53.9123 403.326 54.4763 403.326ZM56.9153 405V398.178H56.6453V392.04H58.8323V405H56.9153ZM65.7747 405.27C64.7907 405.27 63.9267 405.057 63.1827 404.631C62.4387 404.205 61.8567 403.614 61.4367 402.858C61.0227 402.102 60.8157 401.232 60.8157 400.248C60.8157 399.186 61.0197 398.265 61.4277 397.485C61.8357 396.699 62.4027 396.09 63.1287 395.658C63.8547 395.226 64.6947 395.01 65.6487 395.01C66.6567 395.01 67.5117 395.247 68.2137 395.721C68.9217 396.189 69.4467 396.852 69.7887 397.71C70.1307 398.568 70.2597 399.579 70.1757 400.743H68.0247V399.951C68.0187 398.895 67.8327 398.124 67.4667 397.638C67.1007 397.152 66.5247 396.909 65.7387 396.909C64.8507 396.909 64.1907 397.185 63.7587 397.737C63.3267 398.283 63.1107 399.084 63.1107 400.14C63.1107 401.124 63.3267 401.886 63.7587 402.426C64.1907 402.966 64.8207 403.236 65.6487 403.236C66.1827 403.236 66.6417 403.119 67.0257 402.885C67.4157 402.645 67.7157 402.3 67.9257 401.85L70.0677 402.498C69.6957 403.374 69.1197 404.055 68.3397 404.541C67.5657 405.027 66.7107 405.27 65.7747 405.27ZM62.4267 400.743V399.105H69.1137V400.743H62.4267ZM72.1838 405V395.28H74.1008V397.647L73.8668 397.341C73.9868 397.017 74.1458 396.723 74.3438 396.459C74.5478 396.189 74.7908 395.967 75.0728 395.793C75.3128 395.631 75.5768 395.505 75.8648 395.415C76.1588 395.319 76.4588 395.262 76.7648 395.244C77.0708 395.22 77.3678 395.232 77.6558 395.28V397.305C77.3678 397.221 77.0348 397.194 76.6568 397.224C76.2848 397.254 75.9488 397.359 75.6488 397.539C75.3488 397.701 75.1028 397.908 74.9108 398.16C74.7248 398.412 74.5868 398.7 74.4968 399.024C74.4068 399.342 74.3618 399.687 74.3618 400.059V405H72.1838ZM81.8628 405.27C81.1608 405.27 80.5668 405.138 80.0808 404.874C79.5948 404.604 79.2258 404.247 78.9738 403.803C78.7278 403.359 78.6048 402.87 78.6048 402.336C78.6048 401.868 78.6828 401.448 78.8388 401.076C78.9948 400.698 79.2348 400.374 79.5588 400.104C79.8828 399.828 80.3028 399.603 80.8188 399.429C81.2088 399.303 81.6648 399.189 82.1868 399.087C82.7148 398.985 83.2848 398.892 83.8968 398.808C84.5148 398.718 85.1598 398.622 85.8318 398.52L85.0578 398.961C85.0638 398.289 84.9138 397.794 84.6078 397.476C84.3018 397.158 83.7858 396.999 83.0598 396.999C82.6218 396.999 82.1988 397.101 81.7908 397.305C81.3828 397.509 81.0978 397.86 80.9358 398.358L78.9558 397.737C79.1958 396.915 79.6518 396.255 80.3238 395.757C81.0018 395.259 81.9138 395.01 83.0598 395.01C83.9238 395.01 84.6828 395.151 85.3368 395.433C85.9968 395.715 86.4858 396.177 86.8038 396.819C86.9778 397.161 87.0828 397.512 87.1188 397.872C87.1548 398.226 87.1728 398.613 87.1728 399.033V405H85.2738V402.894L85.5888 403.236C85.1508 403.938 84.6378 404.454 84.0498 404.784C83.4678 405.108 82.7388 405.27 81.8628 405.27ZM82.2948 403.542C82.7868 403.542 83.2068 403.455 83.5548 403.281C83.9028 403.107 84.1788 402.894 84.3828 402.642C84.5928 402.39 84.7338 402.153 84.8058 401.931C84.9198 401.655 84.9828 401.34 84.9948 400.986C85.0128 400.626 85.0218 400.335 85.0218 400.113L85.6878 400.311C85.0338 400.413 84.4728 400.503 84.0048 400.581C83.5368 400.659 83.1348 400.734 82.7988 400.806C82.4628 400.872 82.1658 400.947 81.9078 401.031C81.6558 401.121 81.4428 401.226 81.2688 401.346C81.0948 401.466 80.9598 401.604 80.8638 401.76C80.7738 401.916 80.7288 402.099 80.7288 402.309C80.7288 402.549 80.7888 402.762 80.9088 402.948C81.0288 403.128 81.2028 403.272 81.4308 403.38C81.6648 403.488 81.9528 403.542 82.2948 403.542ZM95.2129 405C94.5709 405.12 93.9409 405.171 93.3229 405.153C92.7109 405.141 92.1619 405.03 91.6759 404.82C91.1899 404.604 90.8209 404.265 90.5689 403.803C90.3469 403.383 90.2299 402.954 90.2179 402.516C90.2059 402.078 90.1999 401.583 90.1999 401.031V392.58H92.3599V400.905C92.3599 401.295 92.3629 401.637 92.3689 401.931C92.3809 402.225 92.4439 402.465 92.5579 402.651C92.7739 403.011 93.1189 403.212 93.5929 403.254C94.0669 403.296 94.6069 403.272 95.2129 403.182V405ZM88.4359 396.981V395.28H95.2129V396.981H88.4359ZM101.23 405.27C100.246 405.27 99.3818 405.057 98.6378 404.631C97.8938 404.205 97.3118 403.614 96.8918 402.858C96.4778 402.102 96.2708 401.232 96.2708 400.248C96.2708 399.186 96.4748 398.265 96.8828 397.485C97.2908 396.699 97.8578 396.09 98.5838 395.658C99.3098 395.226 100.15 395.01 101.104 395.01C102.112 395.01 102.967 395.247 103.669 395.721C104.377 396.189 104.902 396.852 105.244 397.71C105.586 398.568 105.715 399.579 105.631 400.743H103.48V399.951C103.474 398.895 103.288 398.124 102.922 397.638C102.556 397.152 101.98 396.909 101.194 396.909C100.306 396.909 99.6458 397.185 99.2138 397.737C98.7818 398.283 98.5658 399.084 98.5658 400.14C98.5658 401.124 98.7818 401.886 99.2138 402.426C99.6458 402.966 100.276 403.236 101.104 403.236C101.638 403.236 102.097 403.119 102.481 402.885C102.871 402.645 103.171 402.3 103.381 401.85L105.523 402.498C105.151 403.374 104.575 404.055 103.795 404.541C103.021 405.027 102.166 405.27 101.23 405.27ZM97.8818 400.743V399.105H104.569V400.743H97.8818ZM111.536 405.27C110.642 405.27 109.862 405.045 109.196 404.595C108.53 404.145 108.014 403.533 107.648 402.759C107.282 401.985 107.099 401.112 107.099 400.14C107.099 399.156 107.282 398.28 107.648 397.512C108.02 396.738 108.545 396.129 109.223 395.685C109.901 395.235 110.699 395.01 111.617 395.01C112.541 395.01 113.315 395.235 113.939 395.685C114.569 396.129 115.046 396.738 115.37 397.512C115.694 398.286 115.856 399.162 115.856 400.14C115.856 401.106 115.694 401.979 115.37 402.759C115.046 403.533 114.563 404.145 113.921 404.595C113.279 405.045 112.484 405.27 111.536 405.27ZM111.869 403.326C112.451 403.326 112.919 403.194 113.273 402.93C113.633 402.66 113.894 402.285 114.056 401.805C114.224 401.325 114.308 400.77 114.308 400.14C114.308 399.504 114.224 398.949 114.056 398.475C113.894 397.995 113.639 397.623 113.291 397.359C112.943 397.089 112.493 396.954 111.941 396.954C111.359 396.954 110.879 397.098 110.501 397.386C110.123 397.668 109.844 398.052 109.664 398.538C109.484 399.018 109.394 399.552 109.394 400.14C109.394 400.734 109.481 401.274 109.655 401.76C109.835 402.24 110.108 402.621 110.474 402.903C110.84 403.185 111.305 403.326 111.869 403.326ZM114.308 405V398.178H114.038V392.04H116.225V405H114.308ZM126.105 405.27C124.905 405.27 123.93 405 123.18 404.46C122.43 403.92 121.974 403.161 121.812 402.183L124.026 401.841C124.14 402.321 124.392 402.699 124.782 402.975C125.172 403.251 125.664 403.389 126.258 403.389C126.78 403.389 127.182 403.287 127.464 403.083C127.752 402.873 127.896 402.588 127.896 402.228C127.896 402.006 127.842 401.829 127.734 401.697C127.632 401.559 127.404 401.427 127.05 401.301C126.696 401.175 126.153 401.016 125.421 400.824C124.605 400.608 123.957 400.377 123.477 400.131C122.997 399.879 122.652 399.582 122.442 399.24C122.232 398.898 122.127 398.484 122.127 397.998C122.127 397.392 122.286 396.864 122.604 396.414C122.922 395.964 123.366 395.619 123.936 395.379C124.506 395.133 125.178 395.01 125.952 395.01C126.708 395.01 127.377 395.127 127.959 395.361C128.547 395.595 129.021 395.928 129.381 396.36C129.741 396.792 129.963 397.299 130.047 397.881L127.833 398.277C127.779 397.863 127.59 397.536 127.266 397.296C126.948 397.056 126.522 396.921 125.988 396.891C125.478 396.861 125.067 396.939 124.755 397.125C124.443 397.305 124.287 397.56 124.287 397.89C124.287 398.076 124.35 398.235 124.476 398.367C124.602 398.499 124.854 398.631 125.232 398.763C125.616 398.895 126.186 399.057 126.942 399.249C127.716 399.447 128.334 399.675 128.796 399.933C129.264 400.185 129.6 400.488 129.804 400.842C130.014 401.196 130.119 401.625 130.119 402.129C130.119 403.107 129.762 403.875 129.048 404.433C128.34 404.991 127.359 405.27 126.105 405.27ZM132.27 393.804V391.815H134.439V393.804H132.27ZM132.27 405V395.28H134.439V405H132.27ZM148.808 405V399.096C148.808 398.43 148.643 397.911 148.313 397.539C147.983 397.161 147.536 396.972 146.972 396.972C146.624 396.972 146.312 397.053 146.036 397.215C145.76 397.371 145.541 397.605 145.379 397.917C145.217 398.223 145.136 398.589 145.136 399.015L144.173 398.448C144.167 397.776 144.317 397.185 144.623 396.675C144.935 396.159 145.355 395.757 145.883 395.469C146.411 395.181 146.999 395.037 147.647 395.037C148.721 395.037 149.543 395.361 150.113 396.009C150.689 396.651 150.977 397.497 150.977 398.547V405H148.808ZM137.117 405V395.28H139.034V398.295H139.304V405H137.117ZM142.976 405V399.123C142.976 398.445 142.811 397.917 142.481 397.539C142.151 397.161 141.701 396.972 141.131 396.972C140.579 396.972 140.135 397.161 139.799 397.539C139.469 397.917 139.304 398.409 139.304 399.015L138.332 398.367C138.332 397.737 138.488 397.17 138.8 396.666C139.112 396.162 139.532 395.766 140.06 395.478C140.594 395.184 141.191 395.037 141.851 395.037C142.577 395.037 143.183 395.193 143.669 395.505C144.161 395.811 144.527 396.231 144.767 396.765C145.013 397.293 145.136 397.89 145.136 398.556V405H142.976ZM156.969 405.279C156.249 405.279 155.655 405.159 155.187 404.919C154.719 404.679 154.347 404.373 154.071 404.001C153.795 403.629 153.591 403.233 153.459 402.813C153.327 402.393 153.24 401.997 153.198 401.625C153.162 401.247 153.144 400.941 153.144 400.707V395.28H155.34V399.96C155.34 400.26 155.361 400.599 155.403 400.977C155.445 401.349 155.541 401.709 155.691 402.057C155.847 402.399 156.075 402.681 156.375 402.903C156.681 403.125 157.092 403.236 157.608 403.236C157.884 403.236 158.157 403.191 158.427 403.101C158.697 403.011 158.94 402.858 159.156 402.642C159.378 402.42 159.555 402.117 159.687 401.733C159.819 401.349 159.885 400.863 159.885 400.275L161.172 400.824C161.172 401.652 161.01 402.402 160.686 403.074C160.368 403.746 159.897 404.283 159.273 404.685C158.649 405.081 157.881 405.279 156.969 405.279ZM160.146 405V401.985H159.885V395.28H162.063V405H160.146ZM164.772 405V391.77H166.941V405H164.772ZM172.355 405.27C171.653 405.27 171.059 405.138 170.573 404.874C170.087 404.604 169.718 404.247 169.466 403.803C169.22 403.359 169.097 402.87 169.097 402.336C169.097 401.868 169.175 401.448 169.331 401.076C169.487 400.698 169.727 400.374 170.051 400.104C170.375 399.828 170.795 399.603 171.311 399.429C171.701 399.303 172.157 399.189 172.679 399.087C173.207 398.985 173.777 398.892 174.389 398.808C175.007 398.718 175.652 398.622 176.324 398.52L175.55 398.961C175.556 398.289 175.406 397.794 175.1 397.476C174.794 397.158 174.278 396.999 173.552 396.999C173.114 396.999 172.691 397.101 172.283 397.305C171.875 397.509 171.59 397.86 171.428 398.358L169.448 397.737C169.688 396.915 170.144 396.255 170.816 395.757C171.494 395.259 172.406 395.01 173.552 395.01C174.416 395.01 175.175 395.151 175.829 395.433C176.489 395.715 176.978 396.177 177.296 396.819C177.47 397.161 177.575 397.512 177.611 397.872C177.647 398.226 177.665 398.613 177.665 399.033V405H175.766V402.894L176.081 403.236C175.643 403.938 175.13 404.454 174.542 404.784C173.96 405.108 173.231 405.27 172.355 405.27ZM172.787 403.542C173.279 403.542 173.699 403.455 174.047 403.281C174.395 403.107 174.671 402.894 174.875 402.642C175.085 402.39 175.226 402.153 175.298 401.931C175.412 401.655 175.475 401.34 175.487 400.986C175.505 400.626 175.514 400.335 175.514 400.113L176.18 400.311C175.526 400.413 174.965 400.503 174.497 400.581C174.029 400.659 173.627 400.734 173.291 400.806C172.955 400.872 172.658 400.947 172.4 401.031C172.148 401.121 171.935 401.226 171.761 401.346C171.587 401.466 171.452 401.604 171.356 401.76C171.266 401.916 171.221 402.099 171.221 402.309C171.221 402.549 171.281 402.762 171.401 402.948C171.521 403.128 171.695 403.272 171.923 403.38C172.157 403.488 172.445 403.542 172.787 403.542ZM185.705 405C185.063 405.12 184.433 405.171 183.815 405.153C183.203 405.141 182.654 405.03 182.168 404.82C181.682 404.604 181.313 404.265 181.061 403.803C180.839 403.383 180.722 402.954 180.71 402.516C180.698 402.078 180.692 401.583 180.692 401.031V392.58H182.852V400.905C182.852 401.295 182.855 401.637 182.861 401.931C182.873 402.225 182.936 402.465 183.05 402.651C183.266 403.011 183.611 403.212 184.085 403.254C184.559 403.296 185.099 403.272 185.705 403.182V405ZM178.928 396.981V395.28H185.705V396.981H178.928ZM187.975 393.804V391.815H190.144V393.804H187.975ZM187.975 405V395.28H190.144V405H187.975ZM197.133 405.27C196.161 405.27 195.312 405.051 194.586 404.613C193.86 404.175 193.296 403.572 192.894 402.804C192.498 402.03 192.3 401.142 192.3 400.14C192.3 399.12 192.504 398.226 192.912 397.458C193.32 396.69 193.887 396.09 194.613 395.658C195.339 395.226 196.179 395.01 197.133 395.01C198.111 395.01 198.963 395.229 199.689 395.667C200.415 396.105 200.979 396.711 201.381 397.485C201.783 398.253 201.984 399.138 201.984 400.14C201.984 401.148 201.78 402.039 201.372 402.813C200.97 403.581 200.406 404.184 199.68 404.622C198.954 405.054 198.105 405.27 197.133 405.27ZM197.133 403.236C197.997 403.236 198.639 402.948 199.059 402.372C199.479 401.796 199.689 401.052 199.689 400.14C199.689 399.198 199.476 398.448 199.05 397.89C198.624 397.326 197.985 397.044 197.133 397.044C196.551 397.044 196.071 397.176 195.693 397.44C195.321 397.698 195.045 398.061 194.865 398.529C194.685 398.991 194.595 399.528 194.595 400.14C194.595 401.082 194.808 401.835 195.234 402.399C195.666 402.957 196.299 403.236 197.133 403.236ZM210.69 405V400.32C210.69 400.014 210.669 399.675 210.627 399.303C210.585 398.931 210.486 398.574 210.33 398.232C210.18 397.884 209.952 397.599 209.646 397.377C209.346 397.155 208.938 397.044 208.422 397.044C208.146 397.044 207.873 397.089 207.603 397.179C207.333 397.269 207.087 397.425 206.865 397.647C206.649 397.863 206.475 398.163 206.343 398.547C206.211 398.925 206.145 399.411 206.145 400.005L204.858 399.456C204.858 398.628 205.017 397.878 205.335 397.206C205.659 396.534 206.133 396 206.757 395.604C207.381 395.202 208.149 395.001 209.061 395.001C209.781 395.001 210.375 395.121 210.843 395.361C211.311 395.601 211.683 395.907 211.959 396.279C212.235 396.651 212.439 397.047 212.571 397.467C212.703 397.887 212.787 398.286 212.823 398.664C212.865 399.036 212.886 399.339 212.886 399.573V405H210.69ZM203.949 405V395.28H205.884V398.295H206.145V405H203.949ZM221.556 405.27C220.854 405.27 220.26 405.138 219.774 404.874C219.288 404.604 218.919 404.247 218.667 403.803C218.421 403.359 218.298 402.87 218.298 402.336C218.298 401.868 218.376 401.448 218.532 401.076C218.688 400.698 218.928 400.374 219.252 400.104C219.576 399.828 219.996 399.603 220.512 399.429C220.902 399.303 221.358 399.189 221.88 399.087C222.408 398.985 222.978 398.892 223.59 398.808C224.208 398.718 224.853 398.622 225.525 398.52L224.751 398.961C224.757 398.289 224.607 397.794 224.301 397.476C223.995 397.158 223.479 396.999 222.753 396.999C222.315 396.999 221.892 397.101 221.484 397.305C221.076 397.509 220.791 397.86 220.629 398.358L218.649 397.737C218.889 396.915 219.345 396.255 220.017 395.757C220.695 395.259 221.607 395.01 222.753 395.01C223.617 395.01 224.376 395.151 225.03 395.433C225.69 395.715 226.179 396.177 226.497 396.819C226.671 397.161 226.776 397.512 226.812 397.872C226.848 398.226 226.866 398.613 226.866 399.033V405H224.967V402.894L225.282 403.236C224.844 403.938 224.331 404.454 223.743 404.784C223.161 405.108 222.432 405.27 221.556 405.27ZM221.988 403.542C222.48 403.542 222.9 403.455 223.248 403.281C223.596 403.107 223.872 402.894 224.076 402.642C224.286 402.39 224.427 402.153 224.499 401.931C224.613 401.655 224.676 401.34 224.688 400.986C224.706 400.626 224.715 400.335 224.715 400.113L225.381 400.311C224.727 400.413 224.166 400.503 223.698 400.581C223.23 400.659 222.828 400.734 222.492 400.806C222.156 400.872 221.859 400.947 221.601 401.031C221.349 401.121 221.136 401.226 220.962 401.346C220.788 401.466 220.653 401.604 220.557 401.76C220.467 401.916 220.422 402.099 220.422 402.309C220.422 402.549 220.482 402.762 220.602 402.948C220.722 403.128 220.896 403.272 221.124 403.38C221.358 403.488 221.646 403.542 221.988 403.542ZM235.932 405V400.32C235.932 400.014 235.911 399.675 235.869 399.303C235.827 398.931 235.728 398.574 235.572 398.232C235.422 397.884 235.194 397.599 234.888 397.377C234.588 397.155 234.18 397.044 233.664 397.044C233.388 397.044 233.115 397.089 232.845 397.179C232.575 397.269 232.329 397.425 232.107 397.647C231.891 397.863 231.717 398.163 231.585 398.547C231.453 398.925 231.387 399.411 231.387 400.005L230.1 399.456C230.1 398.628 230.259 397.878 230.577 397.206C230.901 396.534 231.375 396 231.999 395.604C232.623 395.202 233.391 395.001 234.303 395.001C235.023 395.001 235.617 395.121 236.085 395.361C236.553 395.601 236.925 395.907 237.201 396.279C237.477 396.651 237.681 397.047 237.813 397.467C237.945 397.887 238.029 398.286 238.065 398.664C238.107 399.036 238.128 399.339 238.128 399.573V405H235.932ZM229.191 405V395.28H231.126V398.295H231.387V405H229.191ZM244.216 405.27C243.322 405.27 242.542 405.045 241.876 404.595C241.21 404.145 240.694 403.533 240.328 402.759C239.962 401.985 239.779 401.112 239.779 400.14C239.779 399.156 239.962 398.28 240.328 397.512C240.7 396.738 241.225 396.129 241.903 395.685C242.581 395.235 243.379 395.01 244.297 395.01C245.221 395.01 245.995 395.235 246.619 395.685C247.249 396.129 247.726 396.738 248.05 397.512C248.374 398.286 248.536 399.162 248.536 400.14C248.536 401.106 248.374 401.979 248.05 402.759C247.726 403.533 247.243 404.145 246.601 404.595C245.959 405.045 245.164 405.27 244.216 405.27ZM244.549 403.326C245.131 403.326 245.599 403.194 245.953 402.93C246.313 402.66 246.574 402.285 246.736 401.805C246.904 401.325 246.988 400.77 246.988 400.14C246.988 399.504 246.904 398.949 246.736 398.475C246.574 397.995 246.319 397.623 245.971 397.359C245.623 397.089 245.173 396.954 244.621 396.954C244.039 396.954 243.559 397.098 243.181 397.386C242.803 397.668 242.524 398.052 242.344 398.538C242.164 399.018 242.074 399.552 242.074 400.14C242.074 400.734 242.161 401.274 242.335 401.76C242.515 402.24 242.788 402.621 243.154 402.903C243.52 403.185 243.985 403.326 244.549 403.326ZM246.988 405V398.178H246.718V392.04H248.905V405H246.988ZM258.928 405.27C258.034 405.27 257.254 405.045 256.588 404.595C255.922 404.145 255.406 403.533 255.04 402.759C254.674 401.985 254.491 401.112 254.491 400.14C254.491 399.156 254.674 398.28 255.04 397.512C255.412 396.738 255.937 396.129 256.615 395.685C257.293 395.235 258.091 395.01 259.009 395.01C259.933 395.01 260.707 395.235 261.331 395.685C261.961 396.129 262.438 396.738 262.762 397.512C263.086 398.286 263.248 399.162 263.248 400.14C263.248 401.106 263.086 401.979 262.762 402.759C262.438 403.533 261.955 404.145 261.313 404.595C260.671 405.045 259.876 405.27 258.928 405.27ZM259.261 403.326C259.843 403.326 260.311 403.194 260.665 402.93C261.025 402.66 261.286 402.285 261.448 401.805C261.616 401.325 261.7 400.77 261.7 400.14C261.7 399.504 261.616 398.949 261.448 398.475C261.286 397.995 261.031 397.623 260.683 397.359C260.335 397.089 259.885 396.954 259.333 396.954C258.751 396.954 258.271 397.098 257.893 397.386C257.515 397.668 257.236 398.052 257.056 398.538C256.876 399.018 256.786 399.552 256.786 400.14C256.786 400.734 256.873 401.274 257.047 401.76C257.227 402.24 257.5 402.621 257.866 402.903C258.232 403.185 258.697 403.326 259.261 403.326ZM261.7 405V398.178H261.43V392.04H263.617V405H261.7ZM268.859 405.27C268.157 405.27 267.563 405.138 267.077 404.874C266.591 404.604 266.222 404.247 265.97 403.803C265.724 403.359 265.601 402.87 265.601 402.336C265.601 401.868 265.679 401.448 265.835 401.076C265.991 400.698 266.231 400.374 266.555 400.104C266.879 399.828 267.299 399.603 267.815 399.429C268.205 399.303 268.661 399.189 269.183 399.087C269.711 398.985 270.281 398.892 270.893 398.808C271.511 398.718 272.156 398.622 272.828 398.52L272.054 398.961C272.06 398.289 271.91 397.794 271.604 397.476C271.298 397.158 270.782 396.999 270.056 396.999C269.618 396.999 269.195 397.101 268.787 397.305C268.379 397.509 268.094 397.86 267.932 398.358L265.952 397.737C266.192 396.915 266.648 396.255 267.32 395.757C267.998 395.259 268.91 395.01 270.056 395.01C270.92 395.01 271.679 395.151 272.333 395.433C272.993 395.715 273.482 396.177 273.8 396.819C273.974 397.161 274.079 397.512 274.115 397.872C274.151 398.226 274.169 398.613 274.169 399.033V405H272.27V402.894L272.585 403.236C272.147 403.938 271.634 404.454 271.046 404.784C270.464 405.108 269.735 405.27 268.859 405.27ZM269.291 403.542C269.783 403.542 270.203 403.455 270.551 403.281C270.899 403.107 271.175 402.894 271.379 402.642C271.589 402.39 271.73 402.153 271.802 401.931C271.916 401.655 271.979 401.34 271.991 400.986C272.009 400.626 272.018 400.335 272.018 400.113L272.684 400.311C272.03 400.413 271.469 400.503 271.001 400.581C270.533 400.659 270.131 400.734 269.795 400.806C269.459 400.872 269.162 400.947 268.904 401.031C268.652 401.121 268.439 401.226 268.265 401.346C268.091 401.466 267.956 401.604 267.86 401.76C267.77 401.916 267.725 402.099 267.725 402.309C267.725 402.549 267.785 402.762 267.905 402.948C268.025 403.128 268.199 403.272 268.427 403.38C268.661 403.488 268.949 403.542 269.291 403.542ZM282.209 405C281.567 405.12 280.937 405.171 280.319 405.153C279.707 405.141 279.158 405.03 278.672 404.82C278.186 404.604 277.817 404.265 277.565 403.803C277.343 403.383 277.226 402.954 277.214 402.516C277.202 402.078 277.196 401.583 277.196 401.031V392.58H279.356V400.905C279.356 401.295 279.359 401.637 279.365 401.931C279.377 402.225 279.44 402.465 279.554 402.651C279.77 403.011 280.115 403.212 280.589 403.254C281.063 403.296 281.603 403.272 282.209 403.182V405ZM275.432 396.981V395.28H282.209V396.981H275.432ZM287.017 405.27C286.315 405.27 285.721 405.138 285.235 404.874C284.749 404.604 284.38 404.247 284.128 403.803C283.882 403.359 283.759 402.87 283.759 402.336C283.759 401.868 283.837 401.448 283.993 401.076C284.149 400.698 284.389 400.374 284.713 400.104C285.037 399.828 285.457 399.603 285.973 399.429C286.363 399.303 286.819 399.189 287.341 399.087C287.869 398.985 288.439 398.892 289.051 398.808C289.669 398.718 290.314 398.622 290.986 398.52L290.212 398.961C290.218 398.289 290.068 397.794 289.762 397.476C289.456 397.158 288.94 396.999 288.214 396.999C287.776 396.999 287.353 397.101 286.945 397.305C286.537 397.509 286.252 397.86 286.09 398.358L284.11 397.737C284.35 396.915 284.806 396.255 285.478 395.757C286.156 395.259 287.068 395.01 288.214 395.01C289.078 395.01 289.837 395.151 290.491 395.433C291.151 395.715 291.64 396.177 291.958 396.819C292.132 397.161 292.237 397.512 292.273 397.872C292.309 398.226 292.327 398.613 292.327 399.033V405H290.428V402.894L290.743 403.236C290.305 403.938 289.792 404.454 289.204 404.784C288.622 405.108 287.893 405.27 287.017 405.27ZM287.449 403.542C287.941 403.542 288.361 403.455 288.709 403.281C289.057 403.107 289.333 402.894 289.537 402.642C289.747 402.39 289.888 402.153 289.96 401.931C290.074 401.655 290.137 401.34 290.149 400.986C290.167 400.626 290.176 400.335 290.176 400.113L290.842 400.311C290.188 400.413 289.627 400.503 289.159 400.581C288.691 400.659 288.289 400.734 287.953 400.806C287.617 400.872 287.32 400.947 287.062 401.031C286.81 401.121 286.597 401.226 286.423 401.346C286.249 401.466 286.114 401.604 286.018 401.76C285.928 401.916 285.883 402.099 285.883 402.309C285.883 402.549 285.943 402.762 286.063 402.948C286.183 403.128 286.357 403.272 286.585 403.38C286.819 403.488 287.107 403.542 287.449 403.542ZM34.931 430.27C33.983 430.27 33.188 430.045 32.546 429.595C31.904 429.145 31.421 428.533 31.097 427.759C30.773 426.979 30.611 426.106 30.611 425.14C30.611 424.162 30.773 423.286 31.097 422.512C31.421 421.738 31.895 421.129 32.519 420.685C33.149 420.235 33.926 420.01 34.85 420.01C35.768 420.01 36.563 420.235 37.235 420.685C37.913 421.129 38.438 421.738 38.81 422.512C39.182 423.28 39.368 424.156 39.368 425.14C39.368 426.112 39.185 426.985 38.819 427.759C38.453 428.533 37.937 429.145 37.271 429.595C36.605 430.045 35.825 430.27 34.931 430.27ZM30.242 434.32V420.28H32.159V427.102H32.429V434.32H30.242ZM34.598 428.326C35.162 428.326 35.627 428.185 35.993 427.903C36.359 427.621 36.629 427.24 36.803 426.76C36.983 426.274 37.073 425.734 37.073 425.14C37.073 424.552 36.983 424.018 36.803 423.538C36.623 423.052 36.344 422.668 35.966 422.386C35.588 422.098 35.108 421.954 34.526 421.954C33.974 421.954 33.524 422.089 33.176 422.359C32.828 422.623 32.57 422.995 32.402 423.475C32.24 423.949 32.159 424.504 32.159 425.14C32.159 425.77 32.24 426.325 32.402 426.805C32.57 427.285 32.831 427.66 33.185 427.93C33.545 428.194 34.016 428.326 34.598 428.326ZM41.3518 430V420.28H43.2688V422.647L43.0348 422.341C43.1548 422.017 43.3138 421.723 43.5118 421.459C43.7158 421.189 43.9588 420.967 44.2408 420.793C44.4808 420.631 44.7448 420.505 45.0328 420.415C45.3268 420.319 45.6268 420.262 45.9328 420.244C46.2388 420.22 46.5358 420.232 46.8238 420.28V422.305C46.5358 422.221 46.2028 422.194 45.8248 422.224C45.4528 422.254 45.1168 422.359 44.8168 422.539C44.5168 422.701 44.2708 422.908 44.0788 423.16C43.8928 423.412 43.7548 423.7 43.6648 424.024C43.5748 424.342 43.5298 424.687 43.5298 425.059V430H41.3518ZM52.6585 430.27C51.6865 430.27 50.8375 430.051 50.1115 429.613C49.3855 429.175 48.8215 428.572 48.4195 427.804C48.0235 427.03 47.8255 426.142 47.8255 425.14C47.8255 424.12 48.0295 423.226 48.4375 422.458C48.8455 421.69 49.4125 421.09 50.1385 420.658C50.8645 420.226 51.7045 420.01 52.6585 420.01C53.6365 420.01 54.4885 420.229 55.2145 420.667C55.9405 421.105 56.5045 421.711 56.9065 422.485C57.3085 423.253 57.5095 424.138 57.5095 425.14C57.5095 426.148 57.3055 427.039 56.8975 427.813C56.4955 428.581 55.9315 429.184 55.2055 429.622C54.4795 430.054 53.6305 430.27 52.6585 430.27ZM52.6585 428.236C53.5225 428.236 54.1645 427.948 54.5845 427.372C55.0045 426.796 55.2145 426.052 55.2145 425.14C55.2145 424.198 55.0015 423.448 54.5755 422.89C54.1495 422.326 53.5105 422.044 52.6585 422.044C52.0765 422.044 51.5965 422.176 51.2185 422.44C50.8465 422.698 50.5705 423.061 50.3905 423.529C50.2105 423.991 50.1205 424.528 50.1205 425.14C50.1205 426.082 50.3335 426.835 50.7595 427.399C51.1915 427.957 51.8245 428.236 52.6585 428.236ZM63.7134 430.27C62.7114 430.27 61.8564 430.048 61.1484 429.604C60.4404 429.154 59.8974 428.542 59.5194 427.768C59.1474 426.994 58.9584 426.118 58.9524 425.14C58.9584 424.144 59.1534 423.262 59.5374 422.494C59.9274 421.72 60.4794 421.114 61.1934 420.676C61.9074 420.232 62.7564 420.01 63.7404 420.01C64.8444 420.01 65.7774 420.289 66.5394 420.847C67.3074 421.399 67.8084 422.155 68.0424 423.115L65.8824 423.7C65.7144 423.178 65.4354 422.773 65.0454 422.485C64.6554 422.191 64.2114 422.044 63.7134 422.044C63.1494 422.044 62.6844 422.179 62.3184 422.449C61.9524 422.713 61.6824 423.079 61.5084 423.547C61.3344 424.015 61.2474 424.546 61.2474 425.14C61.2474 426.064 61.4544 426.811 61.8684 427.381C62.2824 427.951 62.8974 428.236 63.7134 428.236C64.2894 428.236 64.7424 428.104 65.0724 427.84C65.4084 427.576 65.6604 427.195 65.8284 426.697L68.0424 427.192C67.7424 428.182 67.2174 428.944 66.4674 429.478C65.7174 430.006 64.7994 430.27 63.7134 430.27ZM74.0013 430.27C73.0173 430.27 72.1533 430.057 71.4093 429.631C70.6653 429.205 70.0833 428.614 69.6633 427.858C69.2493 427.102 69.0423 426.232 69.0423 425.248C69.0423 424.186 69.2463 423.265 69.6543 422.485C70.0623 421.699 70.6293 421.09 71.3553 420.658C72.0813 420.226 72.9213 420.01 73.8753 420.01C74.8833 420.01 75.7383 420.247 76.4403 420.721C77.1483 421.189 77.6733 421.852 78.0153 422.71C78.3573 423.568 78.4863 424.579 78.4023 425.743H76.2513V424.951C76.2453 423.895 76.0593 423.124 75.6933 422.638C75.3273 422.152 74.7513 421.909 73.9653 421.909C73.0773 421.909 72.4173 422.185 71.9853 422.737C71.5533 423.283 71.3373 424.084 71.3373 425.14C71.3373 426.124 71.5533 426.886 71.9853 427.426C72.4173 427.966 73.0473 428.236 73.8753 428.236C74.4093 428.236 74.8683 428.119 75.2523 427.885C75.6423 427.645 75.9423 427.3 76.1523 426.85L78.2943 427.498C77.9223 428.374 77.3463 429.055 76.5663 429.541C75.7923 430.027 74.9373 430.27 74.0013 430.27ZM70.6533 425.743V424.105H77.3403V425.743H70.6533ZM84.1634 430.27C82.9634 430.27 81.9884 430 81.2384 429.46C80.4884 428.92 80.0324 428.161 79.8704 427.183L82.0844 426.841C82.1984 427.321 82.4504 427.699 82.8404 427.975C83.2304 428.251 83.7224 428.389 84.3164 428.389C84.8384 428.389 85.2404 428.287 85.5224 428.083C85.8104 427.873 85.9544 427.588 85.9544 427.228C85.9544 427.006 85.9004 426.829 85.7924 426.697C85.6904 426.559 85.4624 426.427 85.1084 426.301C84.7544 426.175 84.2114 426.016 83.4794 425.824C82.6634 425.608 82.0154 425.377 81.5354 425.131C81.0554 424.879 80.7104 424.582 80.5004 424.24C80.2904 423.898 80.1854 423.484 80.1854 422.998C80.1854 422.392 80.3444 421.864 80.6624 421.414C80.9804 420.964 81.4244 420.619 81.9944 420.379C82.5644 420.133 83.2364 420.01 84.0104 420.01C84.7664 420.01 85.4354 420.127 86.0174 420.361C86.6054 420.595 87.0794 420.928 87.4394 421.36C87.7994 421.792 88.0214 422.299 88.1054 422.881L85.8914 423.277C85.8374 422.863 85.6484 422.536 85.3244 422.296C85.0064 422.056 84.5804 421.921 84.0464 421.891C83.5364 421.861 83.1254 421.939 82.8134 422.125C82.5014 422.305 82.3454 422.56 82.3454 422.89C82.3454 423.076 82.4084 423.235 82.5344 423.367C82.6604 423.499 82.9124 423.631 83.2904 423.763C83.6744 423.895 84.2444 424.057 85.0004 424.249C85.7744 424.447 86.3924 424.675 86.8544 424.933C87.3224 425.185 87.6584 425.488 87.8624 425.842C88.0724 426.196 88.1774 426.625 88.1774 427.129C88.1774 428.107 87.8204 428.875 87.1064 429.433C86.3984 429.991 85.4174 430.27 84.1634 430.27ZM93.9017 430.27C92.7017 430.27 91.7267 430 90.9767 429.46C90.2267 428.92 89.7707 428.161 89.6087 427.183L91.8227 426.841C91.9367 427.321 92.1887 427.699 92.5787 427.975C92.9687 428.251 93.4607 428.389 94.0547 428.389C94.5767 428.389 94.9787 428.287 95.2607 428.083C95.5487 427.873 95.6927 427.588 95.6927 427.228C95.6927 427.006 95.6387 426.829 95.5307 426.697C95.4287 426.559 95.2007 426.427 94.8467 426.301C94.4927 426.175 93.9497 426.016 93.2177 425.824C92.4017 425.608 91.7537 425.377 91.2737 425.131C90.7937 424.879 90.4487 424.582 90.2387 424.24C90.0287 423.898 89.9237 423.484 89.9237 422.998C89.9237 422.392 90.0827 421.864 90.4007 421.414C90.7187 420.964 91.1627 420.619 91.7327 420.379C92.3027 420.133 92.9747 420.01 93.7487 420.01C94.5047 420.01 95.1737 420.127 95.7557 420.361C96.3437 420.595 96.8177 420.928 97.1777 421.36C97.5377 421.792 97.7597 422.299 97.8437 422.881L95.6297 423.277C95.5757 422.863 95.3867 422.536 95.0627 422.296C94.7447 422.056 94.3187 421.921 93.7847 421.891C93.2747 421.861 92.8637 421.939 92.5517 422.125C92.2397 422.305 92.0837 422.56 92.0837 422.89C92.0837 423.076 92.1467 423.235 92.2727 423.367C92.3987 423.499 92.6507 423.631 93.0287 423.763C93.4127 423.895 93.9827 424.057 94.7387 424.249C95.5127 424.447 96.1307 424.675 96.5927 424.933C97.0607 425.185 97.3967 425.488 97.6007 425.842C97.8107 426.196 97.9157 426.625 97.9157 427.129C97.9157 428.107 97.5587 428.875 96.8447 429.433C96.1367 429.991 95.1557 430.27 93.9017 430.27ZM100.067 418.804V416.815H102.236V418.804H100.067ZM100.067 430V420.28H102.236V430H100.067ZM111.655 430V425.32C111.655 425.014 111.634 424.675 111.592 424.303C111.55 423.931 111.451 423.574 111.295 423.232C111.145 422.884 110.917 422.599 110.611 422.377C110.311 422.155 109.903 422.044 109.387 422.044C109.111 422.044 108.838 422.089 108.568 422.179C108.298 422.269 108.052 422.425 107.83 422.647C107.614 422.863 107.44 423.163 107.308 423.547C107.176 423.925 107.11 424.411 107.11 425.005L105.823 424.456C105.823 423.628 105.982 422.878 106.3 422.206C106.624 421.534 107.098 421 107.722 420.604C108.346 420.202 109.114 420.001 110.026 420.001C110.746 420.001 111.34 420.121 111.808 420.361C112.276 420.601 112.648 420.907 112.924 421.279C113.2 421.651 113.404 422.047 113.536 422.467C113.668 422.887 113.752 423.286 113.788 423.664C113.83 424.036 113.851 424.339 113.851 424.573V430H111.655ZM104.914 430V420.28H106.849V423.295H107.11V430H104.914ZM120.285 434.59C119.745 434.59 119.226 434.506 118.728 434.338C118.236 434.17 117.792 433.927 117.396 433.609C117 433.297 116.676 432.919 116.424 432.475L118.422 431.485C118.608 431.839 118.869 432.1 119.205 432.268C119.547 432.442 119.91 432.529 120.294 432.529C120.744 432.529 121.146 432.448 121.5 432.286C121.854 432.13 122.127 431.896 122.319 431.584C122.517 431.278 122.61 430.894 122.598 430.432V427.669H122.868V420.28H124.767V430.468C124.767 430.714 124.755 430.948 124.731 431.17C124.713 431.398 124.68 431.62 124.632 431.836C124.488 432.466 124.212 432.982 123.804 433.384C123.396 433.792 122.889 434.095 122.283 434.293C121.683 434.491 121.017 434.59 120.285 434.59ZM120.096 430.27C119.202 430.27 118.422 430.045 117.756 429.595C117.09 429.145 116.574 428.533 116.208 427.759C115.842 426.985 115.659 426.112 115.659 425.14C115.659 424.156 115.842 423.28 116.208 422.512C116.58 421.738 117.105 421.129 117.783 420.685C118.461 420.235 119.259 420.01 120.177 420.01C121.101 420.01 121.875 420.235 122.499 420.685C123.129 421.129 123.606 421.738 123.93 422.512C124.254 423.286 124.416 424.162 124.416 425.14C124.416 426.106 124.254 426.979 123.93 427.759C123.606 428.533 123.123 429.145 122.481 429.595C121.839 430.045 121.044 430.27 120.096 430.27ZM120.429 428.326C121.011 428.326 121.479 428.194 121.833 427.93C122.193 427.66 122.454 427.285 122.616 426.805C122.784 426.325 122.868 425.77 122.868 425.14C122.868 424.504 122.784 423.949 122.616 423.475C122.454 422.995 122.199 422.623 121.851 422.359C121.503 422.089 121.053 421.954 120.501 421.954C119.919 421.954 119.439 422.098 119.061 422.386C118.683 422.668 118.404 423.052 118.224 423.538C118.044 424.018 117.954 424.552 117.954 425.14C117.954 425.734 118.041 426.274 118.215 426.76C118.395 427.24 118.668 427.621 119.034 427.903C119.4 428.185 119.865 428.326 120.429 428.326ZM127.651 430V427.777H129.874V430H127.651Z" fill="white"/>
<path d="M31.0261 314.789V296.069H33.8471L40.3211 309.329L46.7951 296.069H49.6161V314.789H46.6911V302.79L40.9451 314.789H39.6971L33.9641 302.79V314.789H31.0261ZM60.1192 315.179C58.7152 315.179 57.4889 314.863 56.4402 314.23C55.3916 313.597 54.5769 312.726 53.9962 311.617C53.4242 310.499 53.1382 309.216 53.1382 307.769C53.1382 306.296 53.4329 305.004 54.0222 303.895C54.6116 302.786 55.4306 301.919 56.4792 301.295C57.5279 300.671 58.7412 300.359 60.1192 300.359C61.5319 300.359 62.7626 300.675 63.8112 301.308C64.8599 301.941 65.6746 302.816 66.2552 303.934C66.8359 305.043 67.1262 306.322 67.1262 307.769C67.1262 309.225 66.8316 310.512 66.2422 311.63C65.6616 312.739 64.8469 313.61 63.7982 314.243C62.7496 314.867 61.5232 315.179 60.1192 315.179ZM60.1192 312.241C61.3672 312.241 62.2946 311.825 62.9012 310.993C63.5079 310.161 63.8112 309.086 63.8112 307.769C63.8112 306.408 63.5036 305.325 62.8882 304.519C62.2729 303.704 61.3499 303.297 60.1192 303.297C59.2786 303.297 58.5852 303.488 58.0392 303.869C57.5019 304.242 57.1032 304.766 56.8432 305.442C56.5832 306.109 56.4532 306.885 56.4532 307.769C56.4532 309.13 56.7609 310.217 57.3762 311.032C58.0002 311.838 58.9146 312.241 60.1192 312.241ZM76.2695 315.179C74.9782 315.179 73.8515 314.854 72.8895 314.204C71.9275 313.554 71.1822 312.67 70.6535 311.552C70.1248 310.434 69.8605 309.173 69.8605 307.769C69.8605 306.348 70.1248 305.082 70.6535 303.973C71.1908 302.855 71.9492 301.975 72.9285 301.334C73.9078 300.684 75.0605 300.359 76.3865 300.359C77.7212 300.359 78.8392 300.684 79.7405 301.334C80.6505 301.975 81.3395 302.855 81.8075 303.973C82.2755 305.091 82.5095 306.356 82.5095 307.769C82.5095 309.164 82.2755 310.425 81.8075 311.552C81.3395 312.67 80.6418 313.554 79.7145 314.204C78.7872 314.854 77.6388 315.179 76.2695 315.179ZM76.7505 312.371C77.5912 312.371 78.2672 312.18 78.7785 311.799C79.2985 311.409 79.6755 310.867 79.9095 310.174C80.1522 309.481 80.2735 308.679 80.2735 307.769C80.2735 306.85 80.1522 306.049 79.9095 305.364C79.6755 304.671 79.3072 304.133 78.8045 303.752C78.3018 303.362 77.6518 303.167 76.8545 303.167C76.0138 303.167 75.3205 303.375 74.7745 303.791C74.2285 304.198 73.8255 304.753 73.5655 305.455C73.3055 306.148 73.1755 306.92 73.1755 307.769C73.1755 308.627 73.3012 309.407 73.5525 310.109C73.8125 310.802 74.2068 311.353 74.7355 311.76C75.2642 312.167 75.9358 312.371 76.7505 312.371ZM80.2735 314.789V304.935H79.8835V296.069H83.0425V314.789H80.2735ZM93.7204 315.179C92.2991 315.179 91.0511 314.871 89.9764 314.256C88.9017 313.641 88.0611 312.787 87.4544 311.695C86.8564 310.603 86.5574 309.346 86.5574 307.925C86.5574 306.391 86.8521 305.061 87.4414 303.934C88.0307 302.799 88.8497 301.919 89.8984 301.295C90.9471 300.671 92.1604 300.359 93.5384 300.359C94.9944 300.359 96.2294 300.701 97.2434 301.386C98.2661 302.062 99.0244 303.02 99.5184 304.259C100.012 305.498 100.199 306.959 100.077 308.64H96.9704V307.496C96.9617 305.971 96.6931 304.857 96.1644 304.155C95.6357 303.453 94.8037 303.102 93.6684 303.102C92.3857 303.102 91.4324 303.501 90.8084 304.298C90.1844 305.087 89.8724 306.244 89.8724 307.769C89.8724 309.19 90.1844 310.291 90.8084 311.071C91.4324 311.851 92.3424 312.241 93.5384 312.241C94.3097 312.241 94.9727 312.072 95.5274 311.734C96.0907 311.387 96.5241 310.889 96.8274 310.239L99.9214 311.175C99.3841 312.44 98.5521 313.424 97.4254 314.126C96.3074 314.828 95.0724 315.179 93.7204 315.179ZM88.8844 308.64V306.274H98.5434V308.64H88.8844ZM103.888 314.789V295.679H107.021V314.789H103.888ZM117.42 314.789V296.069H124.843C126.109 296.069 127.144 296.325 127.95 296.836C128.765 297.339 129.367 297.984 129.757 298.773C130.156 299.562 130.355 300.376 130.355 301.217C130.355 302.248 130.108 303.124 129.614 303.843C129.129 304.562 128.466 305.048 127.625 305.299V304.649C128.804 304.918 129.697 305.477 130.303 306.326C130.919 307.175 131.226 308.142 131.226 309.225C131.226 310.334 131.014 311.305 130.589 312.137C130.165 312.969 129.532 313.619 128.691 314.087C127.859 314.555 126.828 314.789 125.597 314.789H117.42ZM120.592 311.838H125.207C125.753 311.838 126.243 311.73 126.676 311.513C127.11 311.288 127.448 310.976 127.69 310.577C127.942 310.17 128.067 309.689 128.067 309.134C128.067 308.631 127.959 308.181 127.742 307.782C127.526 307.383 127.209 307.067 126.793 306.833C126.377 306.59 125.879 306.469 125.298 306.469H120.592V311.838ZM120.592 303.544H124.804C125.255 303.544 125.658 303.457 126.013 303.284C126.369 303.111 126.65 302.855 126.858 302.517C127.066 302.179 127.17 301.763 127.17 301.269C127.17 300.619 126.962 300.077 126.546 299.644C126.13 299.211 125.55 298.994 124.804 298.994H120.592V303.544ZM138.399 315.179C137.385 315.179 136.527 314.988 135.825 314.607C135.123 314.217 134.59 313.701 134.226 313.06C133.87 312.419 133.693 311.712 133.693 310.941C133.693 310.265 133.805 309.658 134.031 309.121C134.256 308.575 134.603 308.107 135.071 307.717C135.539 307.318 136.145 306.993 136.891 306.742C137.454 306.56 138.113 306.395 138.867 306.248C139.629 306.101 140.453 305.966 141.337 305.845C142.229 305.715 143.161 305.576 144.132 305.429L143.014 306.066C143.022 305.095 142.806 304.38 142.364 303.921C141.922 303.462 141.176 303.232 140.128 303.232C139.495 303.232 138.884 303.379 138.295 303.674C137.705 303.969 137.294 304.476 137.06 305.195L134.2 304.298C134.546 303.111 135.205 302.157 136.176 301.438C137.155 300.719 138.472 300.359 140.128 300.359C141.376 300.359 142.472 300.563 143.417 300.97C144.37 301.377 145.076 302.045 145.536 302.972C145.787 303.466 145.939 303.973 145.991 304.493C146.043 305.004 146.069 305.563 146.069 306.17V314.789H143.326V311.747L143.781 312.241C143.148 313.255 142.407 314 141.558 314.477C140.717 314.945 139.664 315.179 138.399 315.179ZM139.023 312.683C139.733 312.683 140.34 312.557 140.843 312.306C141.345 312.055 141.744 311.747 142.039 311.383C142.342 311.019 142.546 310.677 142.65 310.356C142.814 309.957 142.905 309.502 142.923 308.991C142.949 308.471 142.962 308.051 142.962 307.73L143.924 308.016C142.979 308.163 142.169 308.293 141.493 308.406C140.817 308.519 140.236 308.627 139.751 308.731C139.265 308.826 138.836 308.935 138.464 309.056C138.1 309.186 137.792 309.338 137.541 309.511C137.289 309.684 137.094 309.884 136.956 310.109C136.826 310.334 136.761 310.599 136.761 310.902C136.761 311.249 136.847 311.556 137.021 311.825C137.194 312.085 137.445 312.293 137.775 312.449C138.113 312.605 138.529 312.683 139.023 312.683ZM155.524 315.179C153.791 315.179 152.382 314.789 151.299 314.009C150.216 313.229 149.557 312.133 149.323 310.72L152.521 310.226C152.686 310.919 153.05 311.465 153.613 311.864C154.176 312.263 154.887 312.462 155.745 312.462C156.499 312.462 157.08 312.315 157.487 312.02C157.903 311.717 158.111 311.305 158.111 310.785C158.111 310.464 158.033 310.209 157.877 310.018C157.73 309.819 157.4 309.628 156.889 309.446C156.378 309.264 155.593 309.034 154.536 308.757C153.357 308.445 152.421 308.111 151.728 307.756C151.035 307.392 150.536 306.963 150.233 306.469C149.93 305.975 149.778 305.377 149.778 304.675C149.778 303.8 150.008 303.037 150.467 302.387C150.926 301.737 151.568 301.239 152.391 300.892C153.214 300.537 154.185 300.359 155.303 300.359C156.395 300.359 157.361 300.528 158.202 300.866C159.051 301.204 159.736 301.685 160.256 302.309C160.776 302.933 161.097 303.665 161.218 304.506L158.02 305.078C157.942 304.48 157.669 304.008 157.201 303.661C156.742 303.314 156.126 303.119 155.355 303.076C154.618 303.033 154.025 303.145 153.574 303.414C153.123 303.674 152.898 304.042 152.898 304.519C152.898 304.788 152.989 305.017 153.171 305.208C153.353 305.399 153.717 305.589 154.263 305.78C154.818 305.971 155.641 306.205 156.733 306.482C157.851 306.768 158.744 307.097 159.411 307.47C160.087 307.834 160.572 308.272 160.867 308.783C161.17 309.294 161.322 309.914 161.322 310.642C161.322 312.055 160.806 313.164 159.775 313.97C158.752 314.776 157.335 315.179 155.524 315.179ZM171.202 315.179C169.781 315.179 168.533 314.871 167.458 314.256C166.384 313.641 165.543 312.787 164.936 311.695C164.338 310.603 164.039 309.346 164.039 307.925C164.039 306.391 164.334 305.061 164.923 303.934C165.513 302.799 166.332 301.919 167.38 301.295C168.429 300.671 169.642 300.359 171.02 300.359C172.476 300.359 173.711 300.701 174.725 301.386C175.748 302.062 176.506 303.02 177 304.259C177.494 305.498 177.681 306.959 177.559 308.64H174.452V307.496C174.444 305.971 174.175 304.857 173.646 304.155C173.118 303.453 172.286 303.102 171.15 303.102C169.868 303.102 168.914 303.501 168.29 304.298C167.666 305.087 167.354 306.244 167.354 307.769C167.354 309.19 167.666 310.291 168.29 311.071C168.914 311.851 169.824 312.241 171.02 312.241C171.792 312.241 172.455 312.072 173.009 311.734C173.573 311.387 174.006 310.889 174.309 310.239L177.403 311.175C176.866 312.44 176.034 313.424 174.907 314.126C173.789 314.828 172.554 315.179 171.202 315.179ZM166.366 308.64V306.274H176.025V308.64H166.366ZM186.739 315.179C185.448 315.179 184.321 314.854 183.359 314.204C182.397 313.554 181.652 312.67 181.123 311.552C180.594 310.434 180.33 309.173 180.33 307.769C180.33 306.348 180.594 305.082 181.123 303.973C181.66 302.855 182.419 301.975 183.398 301.334C184.377 300.684 185.53 300.359 186.856 300.359C188.191 300.359 189.309 300.684 190.21 301.334C191.12 301.975 191.809 302.855 192.277 303.973C192.745 305.091 192.979 306.356 192.979 307.769C192.979 309.164 192.745 310.425 192.277 311.552C191.809 312.67 191.111 313.554 190.184 314.204C189.257 314.854 188.108 315.179 186.739 315.179ZM187.22 312.371C188.061 312.371 188.737 312.18 189.248 311.799C189.768 311.409 190.145 310.867 190.379 310.174C190.622 309.481 190.743 308.679 190.743 307.769C190.743 306.85 190.622 306.049 190.379 305.364C190.145 304.671 189.777 304.133 189.274 303.752C188.771 303.362 188.121 303.167 187.324 303.167C186.483 303.167 185.79 303.375 185.244 303.791C184.698 304.198 184.295 304.753 184.035 305.455C183.775 306.148 183.645 306.92 183.645 307.769C183.645 308.627 183.771 309.407 184.022 310.109C184.282 310.802 184.676 311.353 185.205 311.76C185.734 312.167 186.405 312.371 187.22 312.371ZM190.743 314.789V304.935H190.353V296.069H193.512V314.789H190.743ZM31.0261 346.789V328.069H36.9931C37.1491 328.069 37.4567 328.073 37.9161 328.082C38.3841 328.091 38.8347 328.121 39.2681 328.173C40.7501 328.364 42.0024 328.892 43.0251 329.759C44.0564 330.617 44.8364 331.713 45.3651 333.048C45.8937 334.383 46.1581 335.843 46.1581 337.429C46.1581 339.015 45.8937 340.475 45.3651 341.81C44.8364 343.145 44.0564 344.245 43.0251 345.112C42.0024 345.97 40.7501 346.494 39.2681 346.685C38.8434 346.737 38.3971 346.767 37.9291 346.776C37.4611 346.785 37.1491 346.789 36.9931 346.789H31.0261ZM34.2111 343.838H36.9931C37.2531 343.838 37.5824 343.829 37.9811 343.812C38.3884 343.795 38.7481 343.756 39.0601 343.695C39.9441 343.53 40.6634 343.136 41.2181 342.512C41.7727 341.888 42.1801 341.13 42.4401 340.237C42.7087 339.344 42.8431 338.408 42.8431 337.429C42.8431 336.415 42.7087 335.462 42.4401 334.569C42.1714 333.676 41.7554 332.927 41.1921 332.32C40.6374 331.713 39.9267 331.328 39.0601 331.163C38.7481 331.094 38.3884 331.055 37.9811 331.046C37.5824 331.029 37.2531 331.02 36.9931 331.02H34.2111V343.838ZM56.2641 347.179C54.8428 347.179 53.5948 346.871 52.5201 346.256C51.4455 345.641 50.6048 344.787 49.9981 343.695C49.4001 342.603 49.1011 341.346 49.1011 339.925C49.1011 338.391 49.3958 337.061 49.9851 335.934C50.5745 334.799 51.3935 333.919 52.4421 333.295C53.4908 332.671 54.7041 332.359 56.0821 332.359C57.5381 332.359 58.7731 332.701 59.7871 333.386C60.8098 334.062 61.5681 335.02 62.0621 336.259C62.5561 337.498 62.7425 338.959 62.6211 340.64H59.5141V339.496C59.5055 337.971 59.2368 336.857 58.7081 336.155C58.1795 335.453 57.3475 335.102 56.2121 335.102C54.9295 335.102 53.9761 335.501 53.3521 336.298C52.7281 337.087 52.4161 338.244 52.4161 339.769C52.4161 341.19 52.7281 342.291 53.3521 343.071C53.9761 343.851 54.8861 344.241 56.0821 344.241C56.8535 344.241 57.5165 344.072 58.0711 343.734C58.6345 343.387 59.0678 342.889 59.3711 342.239L62.4651 343.175C61.9278 344.44 61.0958 345.424 59.9691 346.126C58.8511 346.828 57.6161 347.179 56.2641 347.179ZM51.4281 340.64V338.274H61.0871V340.64H51.4281ZM69.4599 346.789L64.3639 332.749H67.4969L71.0329 342.928L74.5559 332.749H77.7019L72.6059 346.789H69.4599ZM86.5602 347.179C85.1389 347.179 83.8909 346.871 82.8162 346.256C81.7416 345.641 80.9009 344.787 80.2942 343.695C79.6962 342.603 79.3972 341.346 79.3972 339.925C79.3972 338.391 79.6919 337.061 80.2812 335.934C80.8706 334.799 81.6896 333.919 82.7382 333.295C83.7869 332.671 85.0002 332.359 86.3782 332.359C87.8342 332.359 89.0692 332.701 90.0832 333.386C91.1059 334.062 91.8642 335.02 92.3582 336.259C92.8522 337.498 93.0386 338.959 92.9172 340.64H89.8102V339.496C89.8016 337.971 89.5329 336.857 89.0042 336.155C88.4756 335.453 87.6436 335.102 86.5082 335.102C85.2256 335.102 84.2722 335.501 83.6482 336.298C83.0242 337.087 82.7122 338.244 82.7122 339.769C82.7122 341.19 83.0242 342.291 83.6482 343.071C84.2722 343.851 85.1822 344.241 86.3782 344.241C87.1496 344.241 87.8126 344.072 88.3672 343.734C88.9306 343.387 89.3639 342.889 89.6672 342.239L92.7612 343.175C92.2239 344.44 91.3919 345.424 90.2652 346.126C89.1472 346.828 87.9122 347.179 86.5602 347.179ZM81.7242 340.64V338.274H91.3832V340.64H81.7242ZM96.7279 346.789V327.679H99.8609V346.789H96.7279ZM110.606 347.179C109.202 347.179 107.976 346.863 106.927 346.23C105.878 345.597 105.064 344.726 104.483 343.617C103.911 342.499 103.625 341.216 103.625 339.769C103.625 338.296 103.92 337.004 104.509 335.895C105.098 334.786 105.917 333.919 106.966 333.295C108.015 332.671 109.228 332.359 110.606 332.359C112.019 332.359 113.249 332.675 114.298 333.308C115.347 333.941 116.161 334.816 116.742 335.934C117.323 337.043 117.613 338.322 117.613 339.769C117.613 341.225 117.318 342.512 116.729 343.63C116.148 344.739 115.334 345.61 114.285 346.243C113.236 346.867 112.01 347.179 110.606 347.179ZM110.606 344.241C111.854 344.241 112.781 343.825 113.388 342.993C113.995 342.161 114.298 341.086 114.298 339.769C114.298 338.408 113.99 337.325 113.375 336.519C112.76 335.704 111.837 335.297 110.606 335.297C109.765 335.297 109.072 335.488 108.526 335.869C107.989 336.242 107.59 336.766 107.33 337.442C107.07 338.109 106.94 338.885 106.94 339.769C106.94 341.13 107.248 342.217 107.863 343.032C108.487 343.838 109.401 344.241 110.606 344.241ZM127.874 347.179C126.505 347.179 125.357 346.854 124.429 346.204C123.502 345.554 122.804 344.67 122.336 343.552C121.868 342.425 121.634 341.164 121.634 339.769C121.634 338.356 121.868 337.091 122.336 335.973C122.804 334.855 123.489 333.975 124.39 333.334C125.3 332.684 126.423 332.359 127.757 332.359C129.083 332.359 130.232 332.684 131.202 333.334C132.182 333.975 132.94 334.855 133.477 335.973C134.015 337.082 134.283 338.348 134.283 339.769C134.283 341.173 134.019 342.434 133.49 343.552C132.962 344.67 132.216 345.554 131.254 346.204C130.292 346.854 129.166 347.179 127.874 347.179ZM121.101 353.029V332.749H123.87V342.603H124.26V353.029H121.101ZM127.393 344.371C128.208 344.371 128.88 344.167 129.408 343.76C129.937 343.353 130.327 342.802 130.578 342.109C130.838 341.407 130.968 340.627 130.968 339.769C130.968 338.92 130.838 338.148 130.578 337.455C130.318 336.753 129.915 336.198 129.369 335.791C128.823 335.375 128.13 335.167 127.289 335.167C126.492 335.167 125.842 335.362 125.339 335.752C124.837 336.133 124.464 336.671 124.221 337.364C123.987 338.049 123.87 338.85 123.87 339.769C123.87 340.679 123.987 341.481 124.221 342.174C124.464 342.867 124.841 343.409 125.352 343.799C125.872 344.18 126.553 344.371 127.393 344.371ZM154.66 346.789V338.261C154.66 337.299 154.421 336.549 153.945 336.012C153.468 335.466 152.822 335.193 152.008 335.193C151.505 335.193 151.054 335.31 150.656 335.544C150.257 335.769 149.941 336.107 149.707 336.558C149.473 337 149.356 337.529 149.356 338.144L147.965 337.325C147.956 336.354 148.173 335.501 148.615 334.764C149.065 334.019 149.672 333.438 150.435 333.022C151.197 332.606 152.047 332.398 152.983 332.398C154.534 332.398 155.721 332.866 156.545 333.802C157.377 334.729 157.793 335.951 157.793 337.468V346.789H154.66ZM137.773 346.789V332.749H140.542V337.104H140.932V346.789H137.773ZM146.236 346.789V338.3C146.236 337.321 145.997 336.558 145.521 336.012C145.044 335.466 144.394 335.193 143.571 335.193C142.773 335.193 142.132 335.466 141.647 336.012C141.17 336.558 140.932 337.269 140.932 338.144L139.528 337.208C139.528 336.298 139.753 335.479 140.204 334.751C140.654 334.023 141.261 333.451 142.024 333.035C142.795 332.61 143.657 332.398 144.611 332.398C145.659 332.398 146.535 332.623 147.237 333.074C147.947 333.516 148.476 334.123 148.823 334.894C149.178 335.657 149.356 336.519 149.356 337.481V346.789H146.236ZM167.988 347.179C166.567 347.179 165.319 346.871 164.244 346.256C163.169 345.641 162.329 344.787 161.722 343.695C161.124 342.603 160.825 341.346 160.825 339.925C160.825 338.391 161.12 337.061 161.709 335.934C162.298 334.799 163.117 333.919 164.166 333.295C165.215 332.671 166.428 332.359 167.806 332.359C169.262 332.359 170.497 332.701 171.511 333.386C172.534 334.062 173.292 335.02 173.786 336.259C174.28 337.498 174.466 338.959 174.345 340.64H171.238V339.496C171.229 337.971 170.961 336.857 170.432 336.155C169.903 335.453 169.071 335.102 167.936 335.102C166.653 335.102 165.7 335.501 165.076 336.298C164.452 337.087 164.14 338.244 164.14 339.769C164.14 341.19 164.452 342.291 165.076 343.071C165.7 343.851 166.61 344.241 167.806 344.241C168.577 344.241 169.24 344.072 169.795 343.734C170.358 343.387 170.792 342.889 171.095 342.239L174.189 343.175C173.652 344.44 172.82 345.424 171.693 346.126C170.575 346.828 169.34 347.179 167.988 347.179ZM163.152 340.64V338.274H172.811V340.64H163.152ZM187.226 346.789V340.029C187.226 339.587 187.195 339.097 187.135 338.56C187.074 338.023 186.931 337.507 186.706 337.013C186.489 336.51 186.16 336.099 185.718 335.778C185.284 335.457 184.695 335.297 183.95 335.297C183.551 335.297 183.157 335.362 182.767 335.492C182.377 335.622 182.021 335.847 181.701 336.168C181.389 336.48 181.137 336.913 180.947 337.468C180.756 338.014 180.661 338.716 180.661 339.574L178.802 338.781C178.802 337.585 179.031 336.502 179.491 335.531C179.959 334.56 180.643 333.789 181.545 333.217C182.446 332.636 183.555 332.346 184.873 332.346C185.913 332.346 186.771 332.519 187.447 332.866C188.123 333.213 188.66 333.655 189.059 334.192C189.457 334.729 189.752 335.301 189.943 335.908C190.133 336.515 190.255 337.091 190.307 337.637C190.367 338.174 190.398 338.612 190.398 338.95V346.789H187.226ZM177.489 346.789V332.749H180.284V337.104H180.661V346.789H177.489ZM202.669 346.789C201.742 346.962 200.832 347.036 199.939 347.01C199.055 346.993 198.262 346.832 197.56 346.529C196.858 346.217 196.325 345.727 195.961 345.06C195.64 344.453 195.471 343.834 195.454 343.201C195.437 342.568 195.428 341.853 195.428 341.056V328.849H198.548V340.874C198.548 341.437 198.552 341.931 198.561 342.356C198.578 342.781 198.669 343.127 198.834 343.396C199.146 343.916 199.644 344.206 200.329 344.267C201.014 344.328 201.794 344.293 202.669 344.163V346.789ZM192.88 335.206V332.749H202.669V335.206H192.88ZM216.119 347.179C215.105 347.179 214.247 346.988 213.545 346.607C212.843 346.217 212.31 345.701 211.946 345.06C211.591 344.419 211.413 343.712 211.413 342.941C211.413 342.265 211.526 341.658 211.751 341.121C211.977 340.575 212.323 340.107 212.791 339.717C213.259 339.318 213.866 338.993 214.611 338.742C215.175 338.56 215.833 338.395 216.587 338.248C217.35 338.101 218.173 337.966 219.057 337.845C219.95 337.715 220.882 337.576 221.852 337.429L220.734 338.066C220.743 337.095 220.526 336.38 220.084 335.921C219.642 335.462 218.897 335.232 217.848 335.232C217.216 335.232 216.605 335.379 216.015 335.674C215.426 335.969 215.014 336.476 214.78 337.195L211.92 336.298C212.267 335.111 212.926 334.157 213.896 333.438C214.876 332.719 216.193 332.359 217.848 332.359C219.096 332.359 220.193 332.563 221.137 332.97C222.091 333.377 222.797 334.045 223.256 334.972C223.508 335.466 223.659 335.973 223.711 336.493C223.763 337.004 223.789 337.563 223.789 338.17V346.789H221.046V343.747L221.501 344.241C220.869 345.255 220.128 346 219.278 346.477C218.438 346.945 217.385 347.179 216.119 347.179ZM216.743 344.683C217.454 344.683 218.061 344.557 218.563 344.306C219.066 344.055 219.465 343.747 219.759 343.383C220.063 343.019 220.266 342.677 220.37 342.356C220.535 341.957 220.626 341.502 220.643 340.991C220.669 340.471 220.682 340.051 220.682 339.73L221.644 340.016C220.7 340.163 219.889 340.293 219.213 340.406C218.537 340.519 217.957 340.627 217.471 340.731C216.986 340.826 216.557 340.935 216.184 341.056C215.82 341.186 215.513 341.338 215.261 341.511C215.01 341.684 214.815 341.884 214.676 342.109C214.546 342.334 214.481 342.599 214.481 342.902C214.481 343.249 214.568 343.556 214.741 343.825C214.915 344.085 215.166 344.293 215.495 344.449C215.833 344.605 216.249 344.683 216.743 344.683ZM237.535 346.789V340.029C237.535 339.587 237.504 339.097 237.444 338.56C237.383 338.023 237.24 337.507 237.015 337.013C236.798 336.51 236.469 336.099 236.027 335.778C235.593 335.457 235.004 335.297 234.259 335.297C233.86 335.297 233.466 335.362 233.076 335.492C232.686 335.622 232.33 335.847 232.01 336.168C231.698 336.48 231.446 336.913 231.256 337.468C231.065 338.014 230.97 338.716 230.97 339.574L229.111 338.781C229.111 337.585 229.34 336.502 229.8 335.531C230.268 334.56 230.952 333.789 231.854 333.217C232.755 332.636 233.864 332.346 235.182 332.346C236.222 332.346 237.08 332.519 237.756 332.866C238.432 333.213 238.969 333.655 239.368 334.192C239.766 334.729 240.061 335.301 240.252 335.908C240.442 336.515 240.564 337.091 240.616 337.637C240.676 338.174 240.707 338.612 240.707 338.95V346.789H237.535ZM227.798 346.789V332.749H230.593V337.104H230.97V346.789H227.798ZM250.15 347.179C248.858 347.179 247.732 346.854 246.77 346.204C245.808 345.554 245.062 344.67 244.534 343.552C244.005 342.434 243.741 341.173 243.741 339.769C243.741 338.348 244.005 337.082 244.534 335.973C245.071 334.855 245.829 333.975 246.809 333.334C247.788 332.684 248.941 332.359 250.267 332.359C251.601 332.359 252.719 332.684 253.621 333.334C254.531 333.975 255.22 334.855 255.688 335.973C256.156 337.091 256.39 338.356 256.39 339.769C256.39 341.164 256.156 342.425 255.688 343.552C255.22 344.67 254.522 345.554 253.595 346.204C252.667 346.854 251.519 347.179 250.15 347.179ZM250.631 344.371C251.471 344.371 252.147 344.18 252.659 343.799C253.179 343.409 253.556 342.867 253.79 342.174C254.032 341.481 254.154 340.679 254.154 339.769C254.154 338.85 254.032 338.049 253.79 337.364C253.556 336.671 253.187 336.133 252.685 335.752C252.182 335.362 251.532 335.167 250.735 335.167C249.894 335.167 249.201 335.375 248.655 335.791C248.109 336.198 247.706 336.753 247.446 337.455C247.186 338.148 247.056 338.92 247.056 339.769C247.056 340.627 247.181 341.407 247.433 342.109C247.693 342.802 248.087 343.353 248.616 343.76C249.144 344.167 249.816 344.371 250.631 344.371ZM254.154 346.789V336.935H253.764V328.069H256.923V346.789H254.154ZM267.073 346.789V328.069H273.04C273.196 328.069 273.503 328.073 273.963 328.082C274.431 328.091 274.881 328.121 275.315 328.173C276.797 328.364 278.049 328.892 279.072 329.759C280.103 330.617 280.883 331.713 281.412 333.048C281.94 334.383 282.205 335.843 282.205 337.429C282.205 339.015 281.94 340.475 281.412 341.81C280.883 343.145 280.103 344.245 279.072 345.112C278.049 345.97 276.797 346.494 275.315 346.685C274.89 346.737 274.444 346.767 273.976 346.776C273.508 346.785 273.196 346.789 273.04 346.789H267.073ZM270.258 343.838H273.04C273.3 343.838 273.629 343.829 274.028 343.812C274.435 343.795 274.795 343.756 275.107 343.695C275.991 343.53 276.71 343.136 277.265 342.512C277.819 341.888 278.227 341.13 278.487 340.237C278.755 339.344 278.89 338.408 278.89 337.429C278.89 336.415 278.755 335.462 278.487 334.569C278.218 333.676 277.802 332.927 277.239 332.32C276.684 331.713 275.973 331.328 275.107 331.163C274.795 331.094 274.435 331.055 274.028 331.046C273.629 331.029 273.3 331.02 273.04 331.02H270.258V343.838ZM289.854 347.179C288.84 347.179 287.982 346.988 287.28 346.607C286.578 346.217 286.045 345.701 285.681 345.06C285.325 344.419 285.148 343.712 285.148 342.941C285.148 342.265 285.26 341.658 285.486 341.121C285.711 340.575 286.058 340.107 286.526 339.717C286.994 339.318 287.6 338.993 288.346 338.742C288.909 338.56 289.568 338.395 290.322 338.248C291.084 338.101 291.908 337.966 292.792 337.845C293.684 337.715 294.616 337.576 295.587 337.429L294.469 338.066C294.477 337.095 294.261 336.38 293.819 335.921C293.377 335.462 292.631 335.232 291.583 335.232C290.95 335.232 290.339 335.379 289.75 335.674C289.16 335.969 288.749 336.476 288.515 337.195L285.655 336.298C286.001 335.111 286.66 334.157 287.631 333.438C288.61 332.719 289.927 332.359 291.583 332.359C292.831 332.359 293.927 332.563 294.872 332.97C295.825 333.377 296.531 334.045 296.991 334.972C297.242 335.466 297.394 335.973 297.446 336.493C297.498 337.004 297.524 337.563 297.524 338.17V346.789H294.781V343.747L295.236 344.241C294.603 345.255 293.862 346 293.013 346.477C292.172 346.945 291.119 347.179 289.854 347.179ZM290.478 344.683C291.188 344.683 291.795 344.557 292.298 344.306C292.8 344.055 293.199 343.747 293.494 343.383C293.797 343.019 294.001 342.677 294.105 342.356C294.269 341.957 294.36 341.502 294.378 340.991C294.404 340.471 294.417 340.051 294.417 339.73L295.379 340.016C294.434 340.163 293.624 340.293 292.948 340.406C292.272 340.519 291.691 340.627 291.206 340.731C290.72 340.826 290.291 340.935 289.919 341.056C289.555 341.186 289.247 341.338 288.996 341.511C288.744 341.684 288.549 341.884 288.411 342.109C288.281 342.334 288.216 342.599 288.216 342.902C288.216 343.249 288.302 343.556 288.476 343.825C288.649 344.085 288.9 344.293 289.23 344.449C289.568 344.605 289.984 344.683 290.478 344.683ZM309.787 346.789C308.86 346.962 307.95 347.036 307.057 347.01C306.173 346.993 305.38 346.832 304.678 346.529C303.976 346.217 303.443 345.727 303.079 345.06C302.758 344.453 302.589 343.834 302.572 343.201C302.555 342.568 302.546 341.853 302.546 341.056V328.849H305.666V340.874C305.666 341.437 305.67 341.931 305.679 342.356C305.696 342.781 305.787 343.127 305.952 343.396C306.264 343.916 306.762 344.206 307.447 344.267C308.132 344.328 308.912 344.293 309.787 344.163V346.789ZM299.998 335.206V332.749H309.787V335.206H299.998ZM317.382 347.179C316.368 347.179 315.51 346.988 314.808 346.607C314.106 346.217 313.573 345.701 313.209 345.06C312.854 344.419 312.676 343.712 312.676 342.941C312.676 342.265 312.789 341.658 313.014 341.121C313.239 340.575 313.586 340.107 314.054 339.717C314.522 339.318 315.129 338.993 315.874 338.742C316.437 338.56 317.096 338.395 317.85 338.248C318.613 338.101 319.436 337.966 320.32 337.845C321.213 337.715 322.144 337.576 323.115 337.429L321.997 338.066C322.006 337.095 321.789 336.38 321.347 335.921C320.905 335.462 320.16 335.232 319.111 335.232C318.478 335.232 317.867 335.379 317.278 335.674C316.689 335.969 316.277 336.476 316.043 337.195L313.183 336.298C313.53 335.111 314.188 334.157 315.159 333.438C316.138 332.719 317.456 332.359 319.111 332.359C320.359 332.359 321.455 332.563 322.4 332.97C323.353 333.377 324.06 334.045 324.519 334.972C324.77 335.466 324.922 335.973 324.974 336.493C325.026 337.004 325.052 337.563 325.052 338.17V346.789H322.309V343.747L322.764 344.241C322.131 345.255 321.39 346 320.541 346.477C319.7 346.945 318.647 347.179 317.382 347.179ZM318.006 344.683C318.717 344.683 319.323 344.557 319.826 344.306C320.329 344.055 320.727 343.747 321.022 343.383C321.325 343.019 321.529 342.677 321.633 342.356C321.798 341.957 321.889 341.502 321.906 340.991C321.932 340.471 321.945 340.051 321.945 339.73L322.907 340.016C321.962 340.163 321.152 340.293 320.476 340.406C319.8 340.519 319.219 340.627 318.734 340.731C318.249 340.826 317.82 340.935 317.447 341.056C317.083 341.186 316.775 341.338 316.524 341.511C316.273 341.684 316.078 341.884 315.939 342.109C315.809 342.334 315.744 342.599 315.744 342.902C315.744 343.249 315.831 343.556 316.004 343.825C316.177 344.085 316.429 344.293 316.758 344.449C317.096 344.605 317.512 344.683 318.006 344.683ZM31.0261 378.789V360.069H38.7611C38.9431 360.069 39.1771 360.078 39.4631 360.095C39.7491 360.104 40.0134 360.13 40.2561 360.173C41.3394 360.338 42.2321 360.697 42.9341 361.252C43.6447 361.807 44.1691 362.509 44.5071 363.358C44.8537 364.199 45.0271 365.135 45.0271 366.166C45.0271 367.189 44.8537 368.125 44.5071 368.974C44.1604 369.815 43.6317 370.512 42.9211 371.067C42.2191 371.622 41.3307 371.981 40.2561 372.146C40.0134 372.181 39.7447 372.207 39.4501 372.224C39.1641 372.241 38.9344 372.25 38.7611 372.25H34.1591V378.789H31.0261ZM34.1591 369.325H38.6311C38.8044 369.325 38.9994 369.316 39.2161 369.299C39.4327 369.282 39.6321 369.247 39.8141 369.195C40.3341 369.065 40.7414 368.835 41.0361 368.506C41.3394 368.177 41.5517 367.804 41.6731 367.388C41.8031 366.972 41.8681 366.565 41.8681 366.166C41.8681 365.767 41.8031 365.36 41.6731 364.944C41.5517 364.519 41.3394 364.142 41.0361 363.813C40.7414 363.484 40.3341 363.254 39.8141 363.124C39.6321 363.072 39.4327 363.042 39.2161 363.033C38.9994 363.016 38.8044 363.007 38.6311 363.007H34.1591V369.325ZM48.2815 378.789V364.749H51.0505V368.168L50.7125 367.726C50.8859 367.258 51.1155 366.833 51.4015 366.452C51.6962 366.062 52.0472 365.741 52.4545 365.49C52.8012 365.256 53.1825 365.074 53.5985 364.944C54.0232 364.805 54.4565 364.723 54.8985 364.697C55.3405 364.662 55.7695 364.68 56.1855 364.749V367.674C55.7695 367.553 55.2885 367.514 54.7425 367.557C54.2052 367.6 53.7199 367.752 53.2865 368.012C52.8532 368.246 52.4979 368.545 52.2205 368.909C51.9519 369.273 51.7525 369.689 51.6225 370.157C51.4925 370.616 51.4275 371.115 51.4275 371.652V378.789H48.2815ZM65.2634 379.179C63.8594 379.179 62.633 378.863 61.5844 378.23C60.5357 377.597 59.721 376.726 59.1404 375.617C58.5684 374.499 58.2824 373.216 58.2824 371.769C58.2824 370.296 58.577 369.004 59.1664 367.895C59.7557 366.786 60.5747 365.919 61.6234 365.295C62.672 364.671 63.8854 364.359 65.2634 364.359C66.676 364.359 67.9067 364.675 68.9554 365.308C70.004 365.941 70.8187 366.816 71.3994 367.934C71.98 369.043 72.2704 370.322 72.2704 371.769C72.2704 373.225 71.9757 374.512 71.3864 375.63C70.8057 376.739 69.991 377.61 68.9424 378.243C67.8937 378.867 66.6674 379.179 65.2634 379.179ZM65.2634 376.241C66.5114 376.241 67.4387 375.825 68.0454 374.993C68.652 374.161 68.9554 373.086 68.9554 371.769C68.9554 370.408 68.6477 369.325 68.0324 368.519C67.417 367.704 66.494 367.297 65.2634 367.297C64.4227 367.297 63.7294 367.488 63.1834 367.869C62.646 368.242 62.2474 368.766 61.9874 369.442C61.7274 370.109 61.5974 370.885 61.5974 371.769C61.5974 373.13 61.905 374.217 62.5204 375.032C63.1444 375.838 64.0587 376.241 65.2634 376.241ZM81.8816 379.179C80.4343 379.179 79.1993 378.858 78.1766 378.217C77.154 377.567 76.3696 376.683 75.8236 375.565C75.2863 374.447 75.0133 373.182 75.0046 371.769C75.0133 370.33 75.295 369.056 75.8496 367.947C76.413 366.829 77.2103 365.954 78.2416 365.321C79.273 364.68 80.4993 364.359 81.9206 364.359C83.5153 364.359 84.863 364.762 85.9636 365.568C87.073 366.365 87.7966 367.457 88.1346 368.844L85.0146 369.689C84.772 368.935 84.369 368.35 83.8056 367.934C83.2423 367.509 82.601 367.297 81.8816 367.297C81.067 367.297 80.3953 367.492 79.8666 367.882C79.338 368.263 78.948 368.792 78.6966 369.468C78.4453 370.144 78.3196 370.911 78.3196 371.769C78.3196 373.104 78.6186 374.183 79.2166 375.006C79.8146 375.829 80.703 376.241 81.8816 376.241C82.7136 376.241 83.368 376.05 83.8446 375.669C84.33 375.288 84.694 374.737 84.9366 374.018L88.1346 374.733C87.7013 376.163 86.943 377.264 85.8596 378.035C84.7763 378.798 83.4503 379.179 81.8816 379.179ZM97.3919 379.179C95.9705 379.179 94.7225 378.871 93.6479 378.256C92.5732 377.641 91.7325 376.787 91.1259 375.695C90.5279 374.603 90.2289 373.346 90.2289 371.925C90.2289 370.391 90.5235 369.061 91.1129 367.934C91.7022 366.799 92.5212 365.919 93.5699 365.295C94.6185 364.671 95.8319 364.359 97.2099 364.359C98.6659 364.359 99.9009 364.701 100.915 365.386C101.938 366.062 102.696 367.02 103.19 368.259C103.684 369.498 103.87 370.959 103.749 372.64H100.642V371.496C100.633 369.971 100.365 368.857 99.8359 368.155C99.3072 367.453 98.4752 367.102 97.3399 367.102C96.0572 367.102 95.1039 367.501 94.4799 368.298C93.8559 369.087 93.5439 370.244 93.5439 371.769C93.5439 373.19 93.8559 374.291 94.4799 375.071C95.1039 375.851 96.0139 376.241 97.2099 376.241C97.9812 376.241 98.6442 376.072 99.1989 375.734C99.7622 375.387 100.196 374.889 100.499 374.239L103.593 375.175C103.056 376.44 102.224 377.424 101.097 378.126C99.9789 378.828 98.7439 379.179 97.3919 379.179ZM92.5559 372.64V370.274H102.215V372.64H92.5559ZM112.72 379.179C110.987 379.179 109.579 378.789 108.495 378.009C107.412 377.229 106.753 376.133 106.519 374.72L109.717 374.226C109.882 374.919 110.246 375.465 110.809 375.864C111.373 376.263 112.083 376.462 112.941 376.462C113.695 376.462 114.276 376.315 114.683 376.02C115.099 375.717 115.307 375.305 115.307 374.785C115.307 374.464 115.229 374.209 115.073 374.018C114.926 373.819 114.597 373.628 114.085 373.446C113.574 373.264 112.79 373.034 111.732 372.757C110.554 372.445 109.618 372.111 108.924 371.756C108.231 371.392 107.733 370.963 107.429 370.469C107.126 369.975 106.974 369.377 106.974 368.675C106.974 367.8 107.204 367.037 107.663 366.387C108.123 365.737 108.764 365.239 109.587 364.892C110.411 364.537 111.381 364.359 112.499 364.359C113.591 364.359 114.558 364.528 115.398 364.866C116.248 365.204 116.932 365.685 117.452 366.309C117.972 366.933 118.293 367.665 118.414 368.506L115.216 369.078C115.138 368.48 114.865 368.008 114.397 367.661C113.938 367.314 113.323 367.119 112.551 367.076C111.815 367.033 111.221 367.145 110.77 367.414C110.32 367.674 110.094 368.042 110.094 368.519C110.094 368.788 110.185 369.017 110.367 369.208C110.549 369.399 110.913 369.589 111.459 369.78C112.014 369.971 112.837 370.205 113.929 370.482C115.047 370.768 115.94 371.097 116.607 371.47C117.283 371.834 117.769 372.272 118.063 372.783C118.367 373.294 118.518 373.914 118.518 374.642C118.518 376.055 118.003 377.164 116.971 377.97C115.949 378.776 114.532 379.179 112.72 379.179ZM127.437 379.179C125.704 379.179 124.295 378.789 123.212 378.009C122.129 377.229 121.47 376.133 121.236 374.72L124.434 374.226C124.599 374.919 124.963 375.465 125.526 375.864C126.089 376.263 126.8 376.462 127.658 376.462C128.412 376.462 128.993 376.315 129.4 376.02C129.816 375.717 130.024 375.305 130.024 374.785C130.024 374.464 129.946 374.209 129.79 374.018C129.643 373.819 129.313 373.628 128.802 373.446C128.291 373.264 127.506 373.034 126.449 372.757C125.27 372.445 124.334 372.111 123.641 371.756C122.948 371.392 122.449 370.963 122.146 370.469C121.843 369.975 121.691 369.377 121.691 368.675C121.691 367.8 121.921 367.037 122.38 366.387C122.839 365.737 123.481 365.239 124.304 364.892C125.127 364.537 126.098 364.359 127.216 364.359C128.308 364.359 129.274 364.528 130.115 364.866C130.964 365.204 131.649 365.685 132.169 366.309C132.689 366.933 133.01 367.665 133.131 368.506L129.933 369.078C129.855 368.48 129.582 368.008 129.114 367.661C128.655 367.314 128.039 367.119 127.268 367.076C126.531 367.033 125.938 367.145 125.487 367.414C125.036 367.674 124.811 368.042 124.811 368.519C124.811 368.788 124.902 369.017 125.084 369.208C125.266 369.399 125.63 369.589 126.176 369.78C126.731 369.971 127.554 370.205 128.646 370.482C129.764 370.768 130.657 371.097 131.324 371.47C132 371.834 132.485 372.272 132.78 372.783C133.083 373.294 133.235 373.914 133.235 374.642C133.235 376.055 132.719 377.164 131.688 377.97C130.665 378.776 129.248 379.179 127.437 379.179ZM136.992 362.617V359.744H140.125V362.617H136.992ZM136.992 378.789V364.749H140.125V378.789H136.992ZM154.38 378.789V372.029C154.38 371.587 154.35 371.097 154.289 370.56C154.229 370.023 154.086 369.507 153.86 369.013C153.644 368.51 153.314 368.099 152.872 367.778C152.439 367.457 151.85 367.297 151.104 367.297C150.706 367.297 150.311 367.362 149.921 367.492C149.531 367.622 149.176 367.847 148.855 368.168C148.543 368.48 148.292 368.913 148.101 369.468C147.911 370.014 147.815 370.716 147.815 371.574L145.956 370.781C145.956 369.585 146.186 368.502 146.645 367.531C147.113 366.56 147.798 365.789 148.699 365.217C149.601 364.636 150.71 364.346 152.027 364.346C153.067 364.346 153.925 364.519 154.601 364.866C155.277 365.213 155.815 365.655 156.213 366.192C156.612 366.729 156.907 367.301 157.097 367.908C157.288 368.515 157.409 369.091 157.461 369.637C157.522 370.174 157.552 370.612 157.552 370.95V378.789H154.38ZM144.643 378.789V364.749H147.438V369.104H147.815V378.789H144.643ZM167.497 385.419C166.717 385.419 165.967 385.298 165.248 385.055C164.537 384.812 163.896 384.461 163.324 384.002C162.752 383.551 162.284 383.005 161.92 382.364L164.806 380.934C165.074 381.445 165.451 381.822 165.937 382.065C166.431 382.316 166.955 382.442 167.51 382.442C168.16 382.442 168.74 382.325 169.252 382.091C169.763 381.866 170.157 381.528 170.435 381.077C170.721 380.635 170.855 380.08 170.838 379.413V375.422H171.228V364.749H173.971V379.465C173.971 379.82 173.953 380.158 173.919 380.479C173.893 380.808 173.845 381.129 173.776 381.441C173.568 382.351 173.169 383.096 172.58 383.677C171.99 384.266 171.258 384.704 170.383 384.99C169.516 385.276 168.554 385.419 167.497 385.419ZM167.224 379.179C165.932 379.179 164.806 378.854 163.844 378.204C162.882 377.554 162.136 376.67 161.608 375.552C161.079 374.434 160.815 373.173 160.815 371.769C160.815 370.348 161.079 369.082 161.608 367.973C162.145 366.855 162.903 365.975 163.883 365.334C164.862 364.684 166.015 364.359 167.341 364.359C168.675 364.359 169.793 364.684 170.695 365.334C171.605 365.975 172.294 366.855 172.762 367.973C173.23 369.091 173.464 370.356 173.464 371.769C173.464 373.164 173.23 374.425 172.762 375.552C172.294 376.67 171.596 377.554 170.669 378.204C169.741 378.854 168.593 379.179 167.224 379.179ZM167.705 376.371C168.545 376.371 169.221 376.18 169.733 375.799C170.253 375.409 170.63 374.867 170.864 374.174C171.106 373.481 171.228 372.679 171.228 371.769C171.228 370.85 171.106 370.049 170.864 369.364C170.63 368.671 170.261 368.133 169.759 367.752C169.256 367.362 168.606 367.167 167.809 367.167C166.968 367.167 166.275 367.375 165.729 367.791C165.183 368.198 164.78 368.753 164.52 369.455C164.26 370.148 164.13 370.92 164.13 371.769C164.13 372.627 164.255 373.407 164.507 374.109C164.767 374.802 165.161 375.353 165.69 375.76C166.218 376.167 166.89 376.371 167.705 376.371ZM190.699 382.962C189.685 381.783 188.819 380.449 188.099 378.958C187.38 377.476 186.834 375.92 186.461 374.291C186.089 372.662 185.915 371.041 185.941 369.429C185.915 367.817 186.089 366.196 186.461 364.567C186.834 362.929 187.38 361.369 188.099 359.887C188.819 358.405 189.685 357.075 190.699 355.896L193.013 357.612C191.973 358.869 191.141 360.138 190.517 361.421C189.902 362.704 189.46 364.012 189.191 365.347C188.923 366.673 188.784 368.034 188.775 369.429C188.784 370.824 188.923 372.189 189.191 373.524C189.469 374.85 189.915 376.159 190.53 377.45C191.146 378.733 191.973 379.994 193.013 381.233L190.699 382.962ZM196.553 378.789V360.069H199.374L205.848 373.329L212.322 360.069H215.143V378.789H212.218V366.79L206.472 378.789H205.224L199.491 366.79V378.789H196.553ZM219.445 378.789V360.069H225.412C225.568 360.069 225.875 360.073 226.335 360.082C226.803 360.091 227.253 360.121 227.687 360.173C229.169 360.364 230.421 360.892 231.444 361.759C232.475 362.617 233.255 363.713 233.784 365.048C234.312 366.383 234.577 367.843 234.577 369.429C234.577 371.015 234.312 372.475 233.784 373.81C233.255 375.145 232.475 376.245 231.444 377.112C230.421 377.97 229.169 378.494 227.687 378.685C227.262 378.737 226.816 378.767 226.348 378.776C225.88 378.785 225.568 378.789 225.412 378.789H219.445ZM222.63 375.838H225.412C225.672 375.838 226.001 375.829 226.4 375.812C226.807 375.795 227.167 375.756 227.479 375.695C228.363 375.53 229.082 375.136 229.637 374.512C230.191 373.888 230.599 373.13 230.859 372.237C231.127 371.344 231.262 370.408 231.262 369.429C231.262 368.415 231.127 367.462 230.859 366.569C230.59 365.676 230.174 364.927 229.611 364.32C229.056 363.713 228.345 363.328 227.479 363.163C227.167 363.094 226.807 363.055 226.4 363.046C226.001 363.029 225.672 363.02 225.412 363.02H222.63V375.838ZM238.3 378.789V360.069H246.035C246.217 360.069 246.451 360.078 246.737 360.095C247.023 360.104 247.287 360.13 247.53 360.173C248.613 360.338 249.506 360.697 250.208 361.252C250.919 361.807 251.443 362.509 251.781 363.358C252.128 364.199 252.301 365.135 252.301 366.166C252.301 367.189 252.128 368.125 251.781 368.974C251.434 369.815 250.906 370.512 250.195 371.067C249.493 371.622 248.605 371.981 247.53 372.146C247.287 372.181 247.019 372.207 246.724 372.224C246.438 372.241 246.208 372.25 246.035 372.25H241.433V378.789H238.3ZM241.433 369.325H245.905C246.078 369.325 246.273 369.316 246.49 369.299C246.707 369.282 246.906 369.247 247.088 369.195C247.608 369.065 248.015 368.835 248.31 368.506C248.613 368.177 248.826 367.804 248.947 367.388C249.077 366.972 249.142 366.565 249.142 366.166C249.142 365.767 249.077 365.36 248.947 364.944C248.826 364.519 248.613 364.142 248.31 363.813C248.015 363.484 247.608 363.254 247.088 363.124C246.906 363.072 246.707 363.042 246.49 363.033C246.273 363.016 246.078 363.007 245.905 363.007H241.433V369.325ZM255.567 382.962L253.253 381.233C254.293 379.994 255.12 378.733 255.736 377.45C256.351 376.159 256.793 374.85 257.062 373.524C257.339 372.189 257.482 370.824 257.491 369.429C257.482 368.034 257.343 366.673 257.075 365.347C256.806 364.012 256.36 362.704 255.736 361.421C255.12 360.138 254.293 358.869 253.253 357.612L255.567 355.896C256.581 357.075 257.447 358.405 258.167 359.887C258.886 361.369 259.432 362.929 259.805 364.567C260.177 366.196 260.351 367.817 260.325 369.429C260.351 371.041 260.177 372.662 259.805 374.291C259.432 375.92 258.886 377.476 258.167 378.958C257.447 380.449 256.581 381.783 255.567 382.962Z" fill="white"/>
<path fill-rule="evenodd" clip-rule="evenodd" d="M179.509 69.0006C179.548 69.0002 179.588 69 179.627 69H185.937C187.87 69 189.437 67.433 189.437 65.5C189.437 63.567 187.87 62 185.937 62H179.627C178.846 62 178.073 62.0491 177.311 62.1449C175.393 62.3863 174.386 64.3975 174.984 66.2355C175.583 68.0735 177.576 69.0203 179.509 69.0006ZM225.175 69C227.108 69 228.675 67.433 228.675 65.5C228.675 63.567 227.108 62 225.175 62H212.556C210.623 62 209.056 63.567 209.056 65.5C209.056 67.433 210.623 69 212.556 69H225.175ZM251.794 69H258.104C258.758 69 259.394 69.0528 260.009 69.1536C261.917 69.466 264.034 68.843 264.912 67.1211C265.79 65.3991 265.109 63.2547 263.252 62.7203C261.624 62.2518 259.897 62 258.104 62H251.794C249.861 62 248.294 63.567 248.294 65.5C248.294 67.433 249.861 69 251.794 69ZM168.72 76.8556C169.332 75.0222 169.043 72.8347 167.478 71.7006C165.913 70.5666 163.689 70.9077 162.87 72.6587C162.545 73.3538 162.261 74.0745 162.021 74.8181C161.079 76.9772 162.633 79.4007 164.988 79.4468L165.262 79.4522C166.729 79.4809 168.058 78.5884 168.586 77.2189L168.683 76.968L168.697 76.9235L168.72 76.8556ZM269.487 82.1715C269.394 82.7879 269.249 83.4094 269.048 84.032L266.895 90.7011C266.302 92.5407 267.312 94.5133 269.151 95.1069C270.991 95.7006 272.963 94.6906 273.557 92.851L275.709 86.1819C276.26 84.4748 276.551 82.7547 276.605 81.0613C276.667 79.1293 274.835 77.8226 272.927 78.1296C271.018 78.4366 269.775 80.2602 269.487 82.1715ZM253.986 130.701C253.393 132.541 254.403 134.513 256.242 135.107C258.082 135.701 260.054 134.691 260.648 132.851L264.953 119.513C265.546 117.673 264.536 115.701 262.697 115.107C260.857 114.513 258.885 115.523 258.291 117.363L253.986 130.701ZM245.382 157.363L243.23 164.032L243.209 164.094L243.193 164.144C242.58 165.978 242.869 168.165 244.435 169.299C246 170.433 248.223 170.092 249.042 168.341C249.367 167.646 249.651 166.925 249.891 166.182L252.044 159.513C252.637 157.673 251.627 155.701 249.788 155.107C247.948 154.513 245.976 155.523 245.382 157.363ZM232.404 171.999C232.364 172 232.325 172 232.285 172H230.801C229.059 172 227.583 173.281 227.336 175.005C227.035 177.114 228.671 179 230.801 179H232.285C233.067 179 233.84 178.951 234.601 178.855C236.519 178.614 237.527 176.603 236.928 174.765C236.33 172.926 234.337 171.98 232.404 171.999ZM149.627 82C141.599 82 134.487 87.1779 132.021 94.8181L106.203 174.818C102.348 186.764 111.256 199 123.809 199H202.285C210.313 199 217.425 193.822 219.891 186.182L245.709 106.182C249.565 94.2357 240.656 82 228.103 82H149.627ZM138.683 96.968C140.215 92.2187 144.636 89 149.627 89H189.399L174.552 135H126.409L138.683 96.968ZM181.908 135L196.754 89H228.103C235.906 89 241.444 96.606 239.048 104.032L229.053 135H181.908ZM124.15 142H172.293L156.155 192H123.809C116.006 192 110.468 184.394 112.865 176.968L124.15 142ZM179.648 142L163.511 192H202.285C207.276 192 211.697 188.781 213.229 184.032L226.794 142H179.648ZM156.706 101C158.639 101 160.206 102.567 160.206 104.5V111.5H167.206C169.139 111.5 170.706 113.067 170.706 115C170.706 116.933 169.139 118.5 167.206 118.5H160.206V125.5C160.206 127.433 158.639 129 156.706 129C154.773 129 153.206 127.433 153.206 125.5V118.5H146.206C144.273 118.5 142.706 116.933 142.706 115C142.706 113.067 144.273 111.5 146.206 111.5H153.206V104.5C153.206 102.567 154.773 101 156.706 101ZM150.606 162.05C151.973 160.683 151.973 158.467 150.606 157.1C149.239 155.733 147.023 155.733 145.656 157.1L140.706 162.051L135.756 157.101C134.39 155.734 132.174 155.734 130.807 157.101C129.44 158.468 129.44 160.684 130.807 162.051L135.756 167L130.807 171.95C129.44 173.316 129.44 175.532 130.807 176.899C132.174 178.266 134.39 178.266 135.757 176.899L140.706 171.95L145.656 176.9C147.023 178.267 149.239 178.267 150.606 176.9C151.973 175.533 151.973 173.317 150.606 171.95L145.656 167L150.606 162.05ZM225.706 115C225.706 116.933 224.139 118.5 222.206 118.5L201.206 118.5C199.273 118.5 197.706 116.933 197.706 115C197.706 113.067 199.273 111.5 201.206 111.5L222.206 111.5C224.139 111.5 225.706 113.067 225.706 115ZM203.206 171C205.139 171 206.706 169.433 206.706 167.5C206.706 165.567 205.139 164 203.206 164H183.206C181.273 164 179.706 165.567 179.706 167.5C179.706 169.433 181.273 171 183.206 171H203.206ZM199.206 156C199.206 157.933 197.639 159.5 195.706 159.5C193.773 159.5 192.206 157.933 192.206 156C192.206 154.067 193.773 152.5 195.706 152.5C197.639 152.5 199.206 154.067 199.206 156ZM191.706 182.5C193.639 182.5 195.206 180.933 195.206 179C195.206 177.067 193.639 175.5 191.706 175.5C189.773 175.5 188.206 177.067 188.206 179C188.206 180.933 189.773 182.5 191.706 182.5Z" fill="white"/>
<defs>
<linearGradient id="paint0_linear_778_4194" x1="0.40918" y1="0" x2="375.206" y2="251.03" gradientUnits="userSpaceOnUse">
<stop stop-color="#FEE24E"/>
<stop offset="1" stop-color="#EDDD49"/>
</linearGradient>
<linearGradient id="paint1_linear_778_4194" x1="0.410034" y1="251.03" x2="375.207" y2="465" gradientUnits="userSpaceOnUse">
<stop offset="0.296875" stop-color="#FEE24E"/>
<stop offset="0.980339" stop-color="#EDDD49"/>
</linearGradient>
</defs>
</svg>
