<?xml version="1.0" encoding="UTF-8" standalone="no"?>
<svg
   viewBox="0 0 772.04834 871.69122"
   width="772.04834"
   height="871.69122"
   version="1.1"
   id="svg21"
   xmlns="http://www.w3.org/2000/svg">
  <defs
     id="defs21" />
  <path
     d="m 421.3,871.34792 c 0,-0.41 2.19,-3.52 4.87,-6.9 6.04,-7.61 16.06,-22.83 21.23,-32.21 l 3.89,-7.07 12.25,-1.81 c 20.07,-2.95 40.14,-8.55 64.76,-18.05 l 4.5,-1.73 10,4.48 c 5.5,2.47 17.09,7.34 25.76,10.83 8.67,3.48 15.63,6.76 15.45,7.28 -0.53,1.6 -21.5,12.32 -36.21,18.52 -37.34,15.72 -75.57,24.7 -113.88,26.75 -6.94,0.37 -12.62,0.33 -12.62,-0.09 z"
     fill="white"
     id="path1"
     style="opacity:1;fill:#ffffff" />
  <path
     d="m 322.3,869.19792 c -21.02,-2.81 -50.32,-9.26 -52.61,-11.59 -1.14,-1.16 -3.36,-30.28 -3.38,-44.38 l -0.01,-4.07 -10.25,-4.33 c -13.78,-5.81 -25.65,-11.79 -36.71,-18.49 -5.06,-3.08 -9.7,-5.25 -10.36,-4.87 -0.65,0.39 -8.16,5.7 -16.68,11.82 -24.02,17.24 -24.87,17.77 -27.37,17.14 -8.01,-2.01 -57.63,-45.13 -57.63,-50.07 0,-2.09 1.66,-5.38 17.34,-34.36 3.66,-6.77 6.66,-12.57 6.66,-12.88 0,-0.31 -3.75,-5.35 -8.33,-11.19 -8.42,-10.73 -17.18,-23.42 -24.059997,-34.87 -2.06,-3.44 -4.28,-6.27 -4.93,-6.29 -0.65,-0.02 -12.53,1.42 -26.4,3.2 -18.08,2.33 -25.98,2.97 -27.88,2.29 -2.11,-0.75 -3.56,-2.99 -7.03,-10.84 -11.27,-25.46 -21.5,-57.84 -19.6,-62.01 0.82,-1.8 31.69,-23.24 41.98,-29.16 1.79,-1.03 3.25,-2.56 3.25,-3.41 -0.01,-0.84 -0.91,-7.61 -2.01,-15.03 -1.1,-7.42 -2.3,-21.01 -2.65,-30.19 l -0.65,-16.69 -20.6,-8.19 c -11.32,-4.51 -23.2399999,-9.52 -26.4899999,-11.15 L 3.100674e-6,476.62792 0.6200031,465.96792 c 0.99,-17.32 9.09,-59.2 12.8299999,-66.4 1.28,-2.45 2.36,-2.6 31.25,-4.25 14.24,-0.81 26.09,-1.66 26.31,-1.89 0.23,-0.23 3.24,-7.38 6.68,-15.9 3.45,-8.51 9.49,-21.42 13.44,-28.68 3.94,-7.26 7.17,-13.64 7.17,-14.17 0,-0.52 -3.53,-5.1 -7.84,-10.16 -10.86,-12.74 -26.16,-32.71 -26.16,-34.14 0,-4.5 30.92,-42.76 46.319997,-57.32 3.12,-2.95 6.49,-5.25 7.69,-5.25 2.06,0 22.29,10.49 40.41,20.95 l 8.87,5.13 5.61,-4.53 c 7.51,-6.06 32.95,-23.26 41.35,-27.95 3.71,-2.08 6.75,-4.15 6.75,-4.61 0,-0.46 -1.53,-9.98 -3.4,-21.16 -4.61,-27.49 -4.96,-30.96 -3.39,-33.08 2.59,-3.51 49.83,-21.38 69.6,-26.33 5.29,-1.33 7.76,-1.55 8.96,-0.79 1.73,1.09 10.48,15.36 21.92,35.72 l 6.65,11.85 3.82,-0.61 c 2.1,-0.34 7.8,-0.89 12.66,-1.24 l 8.83,-0.62 -0.07,17.88 c -0.05,10.52 0.48,21.52 1.28,26.7 0.75,4.84 1.15,9.01 0.9,9.27 -0.26,0.25 -4.11,1.1 -8.55,1.88 -34.07,5.99 -69.18,19.84 -99.43,39.2 -31.66,20.27 -63.95,52.16 -83.55,82.53 -33.07,51.22 -48.3,114.71 -41.71,173.77 8.71,77.97 44.69,143.28 106.81,193.87 33.05,26.92 79.2,48.98 120.67,57.69 11.75,2.47 32.03,5.46 37.13,5.47 2.54,0.01 6.04,0.29 7.77,0.64 3.85,0.77 3.84,0.81 -3.39,15.87 -7.41,15.44 -31.39,51.1 -41.85,62.25 -3.52,3.75 -4.38,3.82 -20.66,1.64 z"
     fill="white"
     id="path2"
     style="opacity:1;fill:#ffffff" />
  <path
     d="m 582.3,809.42792 c -16.54,-6.32 -32,-13.07 -32,-13.97 0,-0.26 5.96,-3.41 13.25,-7 7.29,-3.59 17.38,-9.14 22.43,-12.34 5.05,-3.19 12.62,-8 16.83,-10.68 l 7.64,-4.87 16.8,1.12 c 9.25,0.62 21.59,1.12 27.43,1.12 8.32,0 10.62,0.3 10.62,1.37 0,1.45 -10.95,12.23 -22.52,22.16 -15.6,13.39 -38.49,29.49 -41.86,29.43 -1.16,-0.02 -9.54,-2.87 -18.62,-6.34 z"
     fill="white"
     id="path3"
     style="opacity:1;fill:#ffffff" />
  <path
     d="m 513.31,789.55792 c 1.68,-2.89 3.47,-5.92 3.96,-6.75 1.32,-2.19 2.68,-0.25 3.3,4.68 0.51,4.1 0.44,4.22 -3.39,5.75 -6.73,2.7 -7.27,2.18 -3.87,-3.68 z"
     fill="white"
     id="path4"
     style="opacity:1;fill:#ffffff" />
  <path
     d="m 533.88,782.60792 c -0.3,-1.81 -1.25,-7.3 -2.12,-12.18 -0.86,-4.89 -1.37,-9.42 -1.11,-10.08 0.25,-0.66 3.76,-3.14 7.8,-5.52 8.28,-4.86 25.35,-17.03 34.01,-24.23 3.16,-2.64 6.13,-4.79 6.6,-4.79 0.82,0 12.32,22.43 13.59,26.5 0.53,1.68 -1.15,3.15 -10.61,9.3 -10.24,6.64 -40.13,22.23 -45.44,23.7 -1.87,0.51 -2.27,0.12 -2.72,-2.7 z"
     fill="white"
     id="path5"
     style="opacity:1;fill:#ffffff" />
  <path
     d="m 393.3,776.14792 c -59.79,-4.17 -109.62,-22.36 -155.5,-56.77 -13.94,-10.45 -38.8,-34.74 -49.72,-48.57 -11.23,-14.23 -22.13,-31.01 -29.23,-45 -28.28,-55.77 -36.82,-116.11 -24.55,-173.59 2.27,-10.65 8.06,-30.15 11.7,-39.41 7.37,-18.73 28.16,-55.04 35.13,-61.35 1.83,-1.65 2.02,-1.39 5.53,7.41 l 3.65,9.12 -5.38,8.16 c -11.01,16.73 -22.24,41.6 -28.06,62.14 -7.11,25.06 -9.02,39.26 -8.96,66.52 0.06,27.92 2.46,44.06 10.6,71.5 17.5,58.96 59.1,111.53 115.04,145.39 8.25,4.99 22.75,12.35 22.75,11.54 0,-0.32 -0.72,-6.07 -1.61,-12.76 -2.65,-20.08 -0.26,-40.78 7.29,-63.17 3.8,-11.25 15.83,-35.92 25.35,-51.99 13.14,-22.16 24.11,-47.18 28.97,-66.01 5.41,-20.99 6.19,-34.74 3.04,-54 -3.8,-23.29 -9.73,-38.83 -21.62,-56.69 -8.67,-13.02 -17.33,-21.52 -28.89,-28.32 -8.27,-4.87 -22.18,-11.49 -24.12,-11.49 -0.39,0 3.17,2.36 7.9,5.25 16.99,10.37 31.21,24.8 40.59,41.19 4.92,8.59 9.68,19.83 10.69,25.2 0.62,3.28 0.49,3.61 -1.2,3.08 -8.84,-2.74 -14.6,-3.82 -25.39,-4.77 -15.79,-1.39 -25.37,-3.32 -34.57,-6.98 -23.55,-9.35 -43.72,-29.29 -55.61,-54.97 -7.22,-15.58 -18.25,-45.63 -17.02,-46.36 0.39,-0.22 5.43,-1.24 11.2,-2.25 14.81,-2.61 48.94,-2.66 60.82,-0.09 36.11,7.78 60.57,30.04 70.78,64.4 1.95,6.58 2.74,11.94 3.15,21.21 0.49,11.43 0.76,12.77 3.39,17.01 1.57,2.53 4.43,8.19 6.35,12.59 1.92,4.39 3.49,7.73 3.5,7.42 0,-0.32 0.68,-5.04 1.49,-10.5 1.99,-13.35 4.21,-48.21 5.49,-85.93 1.99,-58.91 5.12,-83.66 14.66,-116.1 3.96,-13.48 5.28,-14.9 3.4,-3.66 -2.2,13.17 -2.39,47.9 -0.44,82.76 2.57,46.07 2.64,123.41 0.13,145.5 -4.06,35.68 -10.61,62.48 -21.54,88.09 -2.25,5.28 -10.57,22.44 -18.48,38.14 -16.51,32.73 -22.49,48.78 -25.27,67.77 -3,20.52 -0.39,41.36 7.72,61.62 l 4.35,10.88 10.47,2.71 c 31.1,8.06 74.91,8.37 107.03,0.76 40.66,-9.64 79.59,-31.23 107.81,-59.82 34.88,-35.33 58.37,-81.17 68.57,-133.79 5.23,-27.03 6.77,-56.14 4.23,-79.95 -4.55,-42.6 -17.26,-80.62 -38.37,-114.75 -20.55,-33.22 -54.44,-66.14 -86.63,-84.13 l -6.76,-3.78 9.18,-4.93 9.18,-4.92 7.03,4.17 c 20.28,12.05 46.41,35.16 62.57,55.33 50,62.4 70.48,139.63 58.24,219.53 -8.47,55.25 -31.13,108.67 -61.42,144.78 -36.73,43.79 -86.49,72.51 -142.63,82.34 -16.86,2.95 -40.73,4.35 -56,3.29 z"
     fill="white"
     id="path6"
     style="opacity:1;fill:#ffffff" />
  <path
     d="m 636.62,748.82792 c -5.04,-0.45 -9.69,-1.13 -10.32,-1.52 -0.73,-0.45 1.71,-3.66 6.74,-8.86 9.28,-9.56 20.58,-23.08 28.69,-34.28 l 5.78,-7.99 11.64,-1.27 c 6.41,-0.7 18.35,-2.37 26.55,-3.71 8.19,-1.34 15.14,-2.18 15.45,-1.87 2.33,2.33 -36.61,57.41 -41.61,58.85 -3.41,0.99 -33.9,1.45 -42.92,0.65 z"
     fill="white"
     id="path7"
     style="opacity:1;fill:#ffffff" />
  <path
     d="m 604.57,741.55792 c -0.53,-0.69 -4.05,-7.16 -7.82,-14.38 l -6.85,-13.14 6.75,-7.3 c 7.6,-8.2 18.77,-22.82 24.84,-32.49 2.22,-3.54 4.59,-6.44 5.26,-6.44 1.2,0 23.55,25.74 23.55,27.11 0,2.85 -23.29,30.24 -34.41,40.47 -8.26,7.6 -9.63,8.34 -11.32,6.17 z"
     fill="white"
     id="path8"
     style="opacity:1;fill:#ffffff" />
  <path
     d="m 658.3,679.46792 c -1.64,-1.29 -12.99,-14.04 -19.94,-22.4 l -4.36,-5.24 5.03,-10.76 c 6.08,-12.99 13.46,-31.56 15.8,-39.76 2.82,-9.86 2.89,-9.93 7.3,-6.74 6.78,4.93 29.19,22.47 29.66,23.22 1.28,2.08 -13.08,33.02 -23.72,51.11 -6.49,11.03 -7.63,12.25 -9.77,10.57 z"
     fill="white"
     id="path9"
     style="opacity:1;fill:#ffffff" />
  <path
     d="m 678.3,679.94792 c 0,-0.57 1.65,-3.85 3.67,-7.29 4.76,-8.12 20.41,-40.55 23.46,-48.6 2.06,-5.46 2.81,-6.4 5.87,-7.41 3.67,-1.21 32.76,-13.01 41.73,-16.93 2.87,-1.26 5.54,-1.97 5.93,-1.58 2.43,2.42 -21.55,66.45 -27.25,72.76 -0.79,0.88 -3.79,2.1 -6.67,2.72 -7.91,1.68 -27.52,4.98 -33.74,5.67 -3.02,0.33 -7.19,0.85 -9.25,1.15 -2.27,0.33 -3.75,0.14 -3.75,-0.49 z"
     fill="white"
     id="path10"
     style="opacity:1;fill:#ffffff" />
  <path
     d="m 680.01,589.40792 c -8.69,-6.76 -16.26,-12.75 -16.82,-13.31 -0.69,-0.69 -0.22,-4.81 1.48,-12.91 2.78,-13.22 5.12,-29.39 6.17,-42.63 0.38,-4.81 1.07,-8.75 1.52,-8.75 0.46,0 4.12,1.52 8.13,3.38 20.69,9.57 30.47,14.5 31.71,15.99 1.16,1.41 1.05,3.77 -0.77,15.92 -3.39,22.7 -11.86,54.77 -14.42,54.66 -0.67,-0.03 -8.32,-5.59 -17,-12.35 z"
     fill="white"
     id="path11"
     style="opacity:1;fill:#ffffff" />
  <path
     d="m 714.6,597.55792 c 0.29,-1.24 2.33,-9.23 4.53,-17.75 3.39,-13.15 4.95,-21.64 8.77,-47.69 0.39,-2.66 1.83,-4.14 8.68,-8.93 4.52,-3.15 13.79,-9.95 20.6,-15.1 6.82,-5.14 12.89,-9.19 13.5,-8.99 4.14,1.37 -1.99,72.62 -6.76,78.61 -1.88,2.36 -45.32,22.1 -48.63,22.1 -0.76,0 -1.02,-0.85 -0.69,-2.25 z"
     fill="white"
     id="path12"
     style="opacity:1;fill:#ffffff" />
  <path
     d="m 701.8,509.11792 c -5.5,-2.48 -14.61,-6.68 -20.25,-9.34 l -10.25,-4.83 v -4.1 c 0,-8.02 -3.11,-33.73 -5.54,-45.76 -2.91,-14.44 -2.95,-15.28 -0.84,-15.28 1.84,0 41.32,8.65 43.77,9.6 0.89,0.34 1.61,0.86 1.61,1.16 0,0.3 0.94,7.79 2.09,16.64 2.7,20.79 3.27,55.95 0.91,56.24 -0.83,0.1 -6,-1.85 -11.5,-4.33 z"
     fill="white"
     id="path13"
     style="opacity:1;fill:#ffffff" />
  <path
     d="m 728.97,490.36792 c -0.55,-15.88 -3.75,-48.91 -5.2,-53.59 -0.27,-0.9 2.25,-4.81 6.06,-9.4 3.6,-4.32 10.43,-12.75 15.19,-18.73 4.76,-5.99 9.13,-10.73 9.72,-10.55 4.08,1.28 15.55,56.1 15.52,74.21 l -0.01,6 -6.22,5.32 c -8.62,7.37 -32.28,25.18 -33.45,25.18 -0.56,0 -1.23,-7.73 -1.61,-18.44 z"
     fill="white"
     id="path14"
     style="opacity:1;fill:#ffffff" />
  <path
     d="m 697.8,422.11792 c -1.1,-0.24 -10.33,-2.22 -20.5,-4.38 -17.63,-3.75 -21,-5.06 -21,-8.16 0,-2.56 -8.18,-22.42 -15.25,-37.01 -4.46,-9.21 -7.76,-17.08 -7.34,-17.5 0.41,-0.42 11.48,-0.91 24.6,-1.09 l 23.84,-0.33 1.5,2.33 c 2.42,3.74 12.12,28.44 15.46,39.33 3.17,10.37 7.19,25.27 7.19,26.69 0,0.84 -5.01,0.92 -8.5,0.12 z"
     fill="white"
     id="path15"
     style="opacity:1;fill:#ffffff" />
  <path
     d="m 717.9,410.29792 c -4.47,-15.87 -13.16,-41.15 -17.68,-51.44 l -5.03,-11.44 9.79,-20.37 c 11.44,-23.78 9.24,-23.42 20.29,-3.37 7.36,13.36 15.39,30.74 21.01,45.48 2.95,7.73 3.21,9.11 2.06,11 -2.76,4.5 -18.18,24.4 -23.36,30.14 l -5.4,5.98 z"
     fill="white"
     id="path16"
     style="opacity:1;fill:#ffffff" />
  <path
     d="m 619.3,334.15792 c -6.2,-9.33 -18.48,-24.57 -27.58,-34.24 l -7.61,-8.09 2.83,-1.07 c 4.13,-1.57 17.85,-4.72 34.36,-7.89 17.25,-3.31 14.88,-4.4 26.84,12.29 13.39,18.69 27.39,42.75 25.8,44.34 -0.4,0.4 -11.85,0.89 -25.43,1.08 l -24.71,0.34 z"
     fill="white"
     id="path17"
     style="opacity:1;fill:#ffffff" />
  <path
     d="m 681.22,321.55792 c -6.3,-11.21 -21.92,-35.01 -28.37,-43.25 -3.87,-4.94 -4.61,-6.53 -4.19,-9 1.07,-6.2 7.65,-33.85 8.18,-34.38 1.07,-1.06 4.04,1.65 15.35,13.97 9.82,10.7 31.47,38.13 32.8,41.56 0.7,1.79 -16.63,40.35 -18.14,40.35 -0.23,0 -2.76,-4.16 -5.63,-9.25 z"
     fill="white"
     id="path18"
     style="opacity:1;fill:#ffffff" />
  <path
     d="m 404.68,290.30792 c 0.61,-25.78 4.03,-43.47 13.37,-69 12.3,-33.67 36.83,-66.82 67.81,-91.67 8.71,-6.98 29.27,-20.76 36.12,-24.19 6.74,-3.38 7.82,-5.21 1.64,-2.75 -2.65,1.05 -8.3,3.3 -12.56,4.99 -25.36,10.12 -47.6,24.27 -66.08,42.05 -19.04,18.33 -31.9,36.11 -43.78,60.57 -9.16,18.88 -14.07,31.78 -18.04,47.44 -1.6,6.29 -3.06,11.59 -3.25,11.78 -1.23,1.23 -8.93,-26.32 -11.24,-40.22 -2.48,-14.92 -2.49,-43.36 -0.02,-55.85 3.85,-19.47 12.11,-39.42 23.46,-56.65 8.11,-12.31 26,-29.839999 39.69,-38.899999 18.79,-12.42 36.7,-20.15 70.6,-30.49 46.87,-14.29 65.22,-22.34 92.88,-40.7899993 8.21,-5.47 11.72,-7.31 12.23,-6.41 2.09,3.74 3.28,22.2099993 3.24,50.5899993 -0.03,26.56 -0.32,32.35 -2.28,44.86 -10.6,67.779999 -40.92,117.259999 -91.67,149.629999 -9.87,6.3 -26.18,14.02 -40,18.95 -24.84,8.86 -36.36,13.67 -44.52,18.57 -12.77,7.67 -17.65,12.14 -26.26,24.03 -1.73,2.39 -1.77,1.89 -1.34,-16.54 z"
     fill="white"
     id="path19"
     style="opacity:1;fill:#ffffff" />
  <path
     d="m 562.83,273.71792 c -4.72,-3.79 -11.94,-9.15 -16.06,-11.93 -4.11,-2.77 -7.46,-5.36 -7.45,-5.76 0.01,-0.4 2.58,-2.52 5.71,-4.72 3.12,-2.2 11.39,-9.7 18.36,-16.66 l 12.67,-12.65 11.83,9.15 c 12.11,9.37 37.41,33.76 37.41,36.06 0,0.74 -2.23,1.75 -5.25,2.39 -18.4,3.87 -39.01,8.43 -43.45,9.62 l -5.2,1.38 z"
     fill="white"
     id="path20"
     style="opacity:1;fill:#ffffff" />
  <path
     d="m 628.74,250.27792 c -7.37,-8.24 -24.62,-23.84 -36.44,-32.95 -4.12,-3.18 -7.37,-6.23 -7.21,-6.79 0.17,-0.55 2.23,-3.75 4.58,-7.11 2.36,-3.37 5.52,-8.28 7.03,-10.91 l 2.73,-4.79 3.69,2.21 c 6.1,3.67 29.28,21.28 35.56,27.02 l 5.88,5.38 -2.63,13.48 c -3.04,15.63 -4.36,20.71 -5.58,21.46 -0.47,0.29 -3.9,-2.86 -7.61,-7 z"
     fill="white"
     id="path21"
     style="opacity:1;fill:#ffffff" />
</svg>
