<svg width="3833" height="2213" xmlns="http://www.w3.org/2000/svg" xmlns:xlink="http://www.w3.org/1999/xlink" xml:space="preserve" overflow="hidden"><defs><clipPath id="clip0"><rect x="116" y="131" width="3833" height="2213"/></clipPath></defs><g clip-path="url(#clip0)" transform="translate(-116 -131)"><path d="M909.5 1276.5C967.259 1264.13 1090.82 1270.94 1170.61 1276.5 1250.41 1282.06 1295.07 1269.99 1402.17 1276.5 1509.26 1283.01 1548.85 1271.61 1648.5 1276.5 1650.8 1307.78 1652.04 1375.88 1648.5 1416.5 1531.76 1417.11 1512.01 1427.71 1394.78 1416.5 1277.54 1405.29 1246.39 1417.83 1170.61 1416.5 1094.84 1415.17 1035.52 1423.84 909.5 1416.5 914.345 1365.96 902.754 1336.44 909.5 1276.5Z" fill="#F2F2F2" fill-rule="evenodd"/><path d="M909.5 1276.5C986.129 1268.13 1065.92 1285.88 1133.66 1276.5 1201.4 1267.12 1259.71 1277.89 1380 1276.5 1500.28 1275.11 1518.23 1281.19 1648.5 1276.5 1642.68 1320.65 1641.62 1358.23 1648.5 1416.5 1552.05 1405.7 1481.12 1417.9 1409.56 1416.5 1338 1415.1 1290.93 1405.48 1185.39 1416.5 1079.86 1427.52 1003.16 1422.24 909.5 1416.5 912.604 1377.24 907.535 1316.43 909.5 1276.5Z" stroke="#000000" stroke-width="9.16667" stroke-miterlimit="8" fill="none" fill-rule="evenodd"/><text fill="#0070C0" font-family="Arial,Arial_MSFontService,sans-serif" font-weight="700" font-size="73" transform="matrix(1 0 0 1 1156.01 1373)">Aspect</text><path d="M2240.5 1257.5C2325.75 1254.78 2400.45 1264.85 2451.1 1257.5 2501.75 1250.15 2549.68 1256.85 2645.5 1257.5 2656.11 1320.94 2641.9 1391.86 2645.5 1475.5 2575.24 1484.66 2546.11 1473.23 2451.1 1475.5 2356.08 1477.77 2294.27 1482.87 2240.5 1475.5 2244.27 1392.97 2240.21 1354.47 2240.5 1257.5Z" fill="#F2F2F2" fill-rule="evenodd"/><path d="M2240.5 1257.5C2334.91 1249.33 2346.55 1251.73 2430.85 1257.5 2515.15 1263.27 2554.1 1265.9 2645.5 1257.5 2647.79 1355.31 2645.45 1375.31 2645.5 1475.5 2565.18 1465.9 2514.96 1481.1 2447.05 1475.5 2379.14 1469.9 2321.88 1481.19 2240.5 1475.5 2235.44 1400.51 2243.55 1338.77 2240.5 1257.5Z" stroke="#000000" stroke-width="9.16667" stroke-miterlimit="8" fill="none" fill-rule="evenodd"/><text fill="#0070C0" font-family="Arial,Arial_MSFontService,sans-serif" font-weight="700" font-size="73" transform="matrix(1 0 0 1 2330.13 1354)">Digital <tspan font-size="73" x="28.6458" y="88">Twin</tspan></text><path d="M1651.5 1555.5C1704.06 1551.7 1745.23 1558.42 1833.86 1555.5 1922.49 1552.58 1944.7 1549.31 2039.5 1555.5 2040.49 1632.19 2046.31 1700.85 2039.5 1770.5 1952.41 1766.06 1878.7 1768.72 1837.74 1770.5 1796.78 1772.28 1696.1 1764.95 1651.5 1770.5 1644.67 1723.98 1657.71 1604.99 1651.5 1555.5Z" fill="#FFEFC9" fill-rule="evenodd"/><path d="M1651.5 1555.5C1737.27 1557.42 1790.77 1564.95 1841.62 1555.5 1892.47 1546.05 1976.42 1558.47 2039.5 1555.5 2039.33 1644.75 2048.19 1684.36 2039.5 1770.5 1978.48 1766.07 1903.17 1776.7 1849.38 1770.5 1795.59 1764.3 1735.74 1774.07 1651.5 1770.5 1641.21 1682.81 1645.46 1657.77 1651.5 1555.5Z" stroke="#000000" stroke-width="9.16667" stroke-miterlimit="8" fill="none" fill-rule="evenodd"/><text fill="#0070C0" font-family="Arial,Arial_MSFontService,sans-serif" font-weight="700" font-size="73" transform="matrix(1 0 0 1 1722.83 1652)">Aspect <tspan font-size="73" x="16.0416" y="88">Model</tspan></text><path d="M2919.5 813.5C3009.83 824.345 3082.03 823.397 3137.86 813.5 3193.69 803.603 3258.23 819.711 3337.68 813.5 3417.13 807.289 3491.98 810.661 3537.5 813.5 3536.77 860.345 3531.4 935.252 3537.5 969.32 3543.6 1003.39 3534.04 1072.33 3537.5 1131.5 3457.22 1121.71 3399.86 1128.2 3331.5 1131.5 3263.14 1134.8 3172.96 1137.52 3131.68 1131.5 3090.4 1125.48 3024.73 1128.18 2919.5 1131.5 2912.38 1062.05 2913.49 1014.78 2919.5 982.04 2925.51 949.301 2923.38 848.255 2919.5 813.5Z" fill="#F2F2F2" fill-rule="evenodd"/><path d="M2919.5 813.5C2981.6 807.614 3082.9 803.697 3125.5 813.5 3168.1 823.303 3236.28 819.205 3343.86 813.5 3451.44 807.796 3492.78 816.822 3537.5 813.5 3543.76 862.721 3532.23 913.187 3537.5 966.14 3542.77 1019.09 3531.21 1064.23 3537.5 1131.5 3443.01 1126.96 3423.82 1126.18 3343.86 1131.5 3263.91 1136.82 3172.34 1124.91 3125.5 1131.5 3078.66 1138.09 3017.21 1139.82 2919.5 1131.5 2916.11 1071.87 2913.88 1026.65 2919.5 978.86 2925.12 931.073 2918.48 886.173 2919.5 813.5Z" stroke="#000000" stroke-width="9.16667" stroke-miterlimit="8" fill="none" fill-rule="evenodd"/><text fill="#0070C0" font-family="Arial,Arial_MSFontService,sans-serif" font-weight="700" font-size="73" transform="matrix(1 0 0 1 3128.07 910)">Asset <tspan font-size="73" x="-159.271" y="88">Administration </tspan><tspan font-size="73" x="12.0313" y="176">Shell</tspan></text><path d="M1830.5 785.5C1890.99 785.425 1966.42 787.134 2048.86 785.5 2131.3 783.866 2168.99 783.279 2236.32 785.5 2303.65 787.721 2371.09 792.396 2448.5 785.5 2443.87 844.368 2445.94 858.922 2448.5 924.5 2382.9 922.459 2298.68 922.929 2242.5 924.5 2186.32 926.07 2132.2 930.988 2048.86 924.5 1965.52 918.011 1913.7 922.673 1830.5 924.5 1833.1 885.396 1825.4 831.609 1830.5 785.5Z" fill="#F2F2F2" fill-rule="evenodd"/><path d="M1830.5 785.5C1876.84 788.603 1986.45 776.155 2042.68 785.5 2098.91 794.845 2182.7 781.243 2254.86 785.5 2327.02 789.757 2390.78 788.165 2448.5 785.5 2446.59 817.465 2446.27 892.086 2448.5 924.5 2389.11 925.279 2310.65 920.741 2242.5 924.5 2174.35 928.259 2102.69 930.148 2055.04 924.5 2007.39 918.852 1942.01 924.346 1830.5 924.5 1833.97 864.214 1828.32 852.846 1830.5 785.5Z" stroke="#000000" stroke-width="9.16667" stroke-miterlimit="8" fill="none" fill-rule="evenodd"/><text fill="#0070C0" font-family="Arial,Arial_MSFontService,sans-serif" font-weight="700" font-size="73" transform="matrix(1 0 0 1 1961.78 882)">Submodel</text><path d="M2886.5 1475.5C2958.36 1481.24 3029.33 1472.98 3073.96 1475.5 3118.59 1478.02 3226.57 1473.75 3267.6 1475.5 3308.63 1477.25 3400.65 1470.85 3504.5 1475.5 3496.62 1571.63 3502.25 1622.04 3504.5 1689.5 3450.54 1696.45 3351.17 1692.3 3286.14 1689.5 3221.11 1686.7 3140.7 1690.83 3086.32 1689.5 3031.94 1688.17 2977.56 1694.13 2886.5 1689.5 2889.49 1645.52 2882.83 1565.31 2886.5 1475.5Z" fill="#F2F2F2" fill-rule="evenodd"/><path d="M2886.5 1475.5C2970.13 1473.1 3014.72 1473.55 3073.96 1475.5 3133.2 1477.45 3195.66 1466.22 3279.96 1475.5 3364.26 1484.78 3392.33 1473.2 3504.5 1475.5 3505.6 1556.41 3508.56 1613.54 3504.5 1689.5 3417.99 1684.87 3382.83 1684.54 3292.32 1689.5 3201.81 1694.46 3177.69 1690.59 3086.32 1689.5 2994.95 1688.41 2945 1694.14 2886.5 1689.5 2894.85 1643.06 2884.08 1530.79 2886.5 1475.5Z" stroke="#000000" stroke-width="9.16667" stroke-miterlimit="8" fill="none" fill-rule="evenodd"/><text fill="#0070C0" font-family="Arial,Arial_MSFontService,sans-serif" font-weight="700" font-size="73" transform="matrix(1 0 0 1 3082.82 1572)">Digital <tspan font-size="73" x="-154.39" y="88">Representation</tspan></text><path d="M839.5 792.5C899.992 792.425 975.423 794.14 1057.86 792.5 1140.3 790.859 1177.99 790.271 1245.32 792.5 1312.65 794.729 1380.09 799.422 1457.5 792.5 1460.54 890.844 1451.42 938.375 1457.5 1025.5 1391.9 1023.45 1307.68 1023.92 1251.5 1025.5 1195.32 1027.08 1141.2 1032.01 1057.86 1025.5 974.524 1018.99 922.695 1023.67 839.5 1025.5 842.506 913.751 842.395 872.722 839.5 792.5Z" fill="#F2F2F2" fill-rule="evenodd"/><path d="M839.5 792.5C885.841 795.615 995.446 783.12 1051.68 792.5 1107.91 801.88 1191.7 788.227 1263.86 792.5 1336.02 796.773 1399.78 795.175 1457.5 792.5 1459.02 865.131 1447.48 947.241 1457.5 1025.5 1398.11 1026.28 1319.65 1021.73 1251.5 1025.5 1183.35 1029.27 1111.69 1031.17 1064.04 1025.5 1016.39 1019.83 951.006 1025.34 839.5 1025.5 837.032 926.071 837.928 899.745 839.5 792.5Z" stroke="#000000" stroke-width="9.16667" stroke-miterlimit="8" fill="none" fill-rule="evenodd"/><text fill="#0070C0" font-family="Arial,Arial_MSFontService,sans-serif" font-weight="700" font-size="73" transform="matrix(1 0 0 1 971.35 889)">Submodel<tspan font-size="73" x="14.0479" y="88">Elements</tspan></text><path d="M1648.68 1666.68 1295.09 1432.96 1300.15 1425.31 1653.74 1659.03ZM1293.86 1443.13 1278.5 1416.5 1309.02 1420.19Z" fill="#FFFFFF"/><rect x="1307" y="1478" width="295" height="122"/><text fill="#FFFFFF" font-family="Arial,Arial_MSFontService,sans-serif" font-weight="400" font-size="50" transform="matrix(1 0 0 1 1353.53 1527)">semantic <tspan font-size="50" x="-36.3688" y="61">definition for</tspan></text><path d="M1648.65 1341.92 2218.22 1360.6 2217.92 1369.76 1648.35 1351.08ZM2213.94 1351.29 2240.98 1365.93 2213.04 1378.77Z" fill="#FFFFFF"/><rect x="1822" y="1224" width="295" height="122"/><text fill="#FFFFFF" font-family="Arial,Arial_MSFontService,sans-serif" font-weight="400" font-size="50" transform="matrix(1 0 0 1 1848.83 1273)">associated <tspan font-size="50" x="75.625" y="61">with</tspan></text><path d="M2443.58 1471.05 2865.03 1573.01 2862.88 1581.92 2441.42 1479.95ZM2862.73 1563.03 2886.23 1582.86 2856.27 1589.76Z" fill="#FFFFFF"/><rect x="2533" y="1579" width="295" height="61.0002"/><text fill="#FFFFFF" font-family="Arial,Arial_MSFontService,sans-serif" font-weight="400" font-size="50" transform="matrix(1 0 0 1 2641.36 1628)">is a</text><path d="M0.091042-4.58243 352.646 2.42201 352.464 11.5869-0.091042 4.58243ZM348.246-6.83389 375.467 7.45965 347.7 20.6607Z" fill="#FFFFFF" transform="matrix(-1 0 0 1 1829.97 854.5)"/><rect x="1503" y="786" width="295" height="60.9998"/><text fill="#FFFFFF" font-family="Arial,Arial_MSFontService,sans-serif" font-weight="400" font-size="50" transform="matrix(1 0 0 1 1556.41 835)">contains</text><path d="M4.5628-0.433347 35.0297 320.359 25.9041 321.226-4.5628 0.433347ZM43.722 314.93 32.6337 343.607 16.3452 317.53Z" fill="#FFFFFF" transform="matrix(-1 0 0 1 3228.13 1131.5)"/><rect x="3080" y="1272" width="295" height="61.0002"/><text fill="#FFFFFF" font-family="Arial,Arial_MSFontService,sans-serif" font-weight="400" font-size="50" transform="matrix(1 0 0 1 3188.51 1321)">is a</text><path d="M2449.61 850.053 2898.38 962.204 2896.16 971.097 2447.39 858.947ZM2896.16 952.2 2919.5 972.207 2889.49 978.879Z" fill="#FFFFFF"/><rect x="2520" y="841" width="295" height="122"/><text fill="#FFFFFF" font-family="Arial,Arial_MSFontService,sans-serif" font-weight="400" font-size="50" transform="matrix(1 0 0 1 2547.19 890)">associated <tspan font-size="50" x="75.625" y="61">with</tspan></text><path d="M1.73608-4.24181 841.306 339.375 837.834 347.859-1.73608 4.24181ZM840.536 329.155 860.779 352.297 830.12 354.606Z" fill="#FFFFFF" transform="matrix(-1 0 0 1 2139.28 924.5)"/><rect x="1503" y="1082" width="332" height="60.9999"/><text fill="#FFFFFF" font-family="Arial,Arial_MSFontService,sans-serif" font-weight="400" font-size="50" transform="matrix(1 0 0 1 1504.81 1131)">implements an</text><path d="M2.34996-3.93505 459.038 268.792 454.338 276.663-2.34996 3.93505ZM459.802 258.572 476.363 284.477 445.703 282.182Z" fill="#FFFFFF" transform="matrix(-1 0 0 1 2918.86 972.5)"/><rect x="2500" y="1101" width="315" height="60.9999"/><text fill="#FFFFFF" font-family="Arial,Arial_MSFontService,sans-serif" font-weight="400" font-size="50" transform="matrix(1 0 0 1 2506.84 1150)">Implements a</text><path d="M2301.5 270.5C2391.83 281.334 2464.03 280.387 2519.86 270.5 2575.69 260.613 2640.23 276.705 2719.68 270.5 2799.13 264.295 2873.98 267.663 2919.5 270.5 2920.27 341.752 2913.42 446.443 2919.5 501.5 2858.77 504.032 2774.2 510.858 2725.86 501.5 2677.52 492.142 2617.3 507.271 2513.68 501.5 2410.06 495.729 2356.69 507.314 2301.5 501.5 2303.35 414.733 2294.66 327.935 2301.5 270.5Z" fill="#F2F2F2" fill-rule="evenodd"/><path d="M2301.5 270.5C2390.8 276.134 2444.58 265.531 2488.96 270.5 2533.34 275.469 2624.64 264.688 2676.42 270.5 2728.2 276.312 2849.83 279.308 2919.5 270.5 2911.65 358.564 2913.95 447.363 2919.5 501.5 2841.94 498.166 2787.09 492.517 2732.04 501.5 2676.99 510.483 2596.69 496.589 2538.4 501.5 2480.11 506.411 2414.73 504.736 2301.5 501.5 2294.01 401.491 2301.36 357.953 2301.5 270.5Z" stroke="#000000" stroke-width="9.16667" stroke-miterlimit="8" fill="none" fill-rule="evenodd"/><text fill="#0070C0" font-family="Arial,Arial_MSFontService,sans-serif" font-weight="700" font-size="73" transform="matrix(1 0 0 1 2403.62 367)">Digital Twin <tspan font-size="73" x="59.5833" y="88">Registry</tspan></text><path d="M3307.5 137.5C3397.83 148.34 3470.03 147.393 3525.86 137.5 3581.69 127.607 3646.23 143.708 3725.68 137.5 3805.13 131.292 3879.98 134.661 3925.5 137.5 3922.19 177.726 3927.82 243.068 3925.5 273.5 3864.77 276.033 3780.2 282.864 3731.86 273.5 3683.52 264.137 3623.3 279.274 3519.68 273.5 3416.06 267.726 3362.69 279.317 3307.5 273.5 3307.93 216.876 3307.73 178.198 3307.5 137.5Z" fill="#F2F2F2" fill-rule="evenodd"/><path d="M3307.5 137.5C3396.8 143.137 3450.58 132.528 3494.96 137.5 3539.34 142.472 3630.64 131.685 3682.42 137.5 3734.2 143.315 3855.83 146.313 3925.5 137.5 3925.54 181.009 3924.34 227.156 3925.5 273.5 3847.94 270.165 3793.09 264.512 3738.04 273.5 3682.99 282.489 3602.69 268.586 3544.4 273.5 3486.11 278.414 3420.73 276.738 3307.5 273.5 3304.63 237.02 3308.87 170.085 3307.5 137.5Z" stroke="#000000" stroke-width="9.16667" stroke-miterlimit="8" fill="none" fill-rule="evenodd"/><text fill="#0070C0" font-family="Arial,Arial_MSFontService,sans-serif" font-weight="700" font-size="73" transform="matrix(1 0 0 1 3382.13 234)">AAS Registry</text><path d="M3307.5 500.5C3397.83 511.34 3470.03 510.393 3525.86 500.5 3581.69 490.607 3646.23 506.708 3725.68 500.5 3805.13 494.292 3879.98 497.661 3925.5 500.5 3922.19 540.726 3927.82 606.068 3925.5 636.5 3864.77 639.033 3780.2 645.864 3731.86 636.5 3683.52 627.137 3623.3 642.274 3519.68 636.5 3416.06 630.726 3362.69 642.317 3307.5 636.5 3307.93 579.876 3307.73 541.198 3307.5 500.5Z" fill="#F2F2F2" fill-rule="evenodd"/><path d="M3307.5 500.5C3396.8 506.137 3450.58 495.528 3494.96 500.5 3539.34 505.472 3630.64 494.685 3682.42 500.5 3734.2 506.315 3855.83 509.313 3925.5 500.5 3925.54 544.009 3924.34 590.156 3925.5 636.5 3847.94 633.165 3793.09 627.512 3738.04 636.5 3682.99 645.489 3602.69 631.586 3544.4 636.5 3486.11 641.414 3420.73 639.738 3307.5 636.5 3304.63 600.02 3308.87 533.085 3307.5 500.5Z" stroke="#000000" stroke-width="9.16667" stroke-miterlimit="8" fill="none" fill-rule="evenodd"/><text fill="#0070C0" font-family="Arial,Arial_MSFontService,sans-serif" font-weight="700" font-size="73" transform="matrix(1 0 0 1 3353.77 597)">AAS Discovery</text><path d="M2921.45 382.351 3289.06 554.916 3285.17 563.214 2917.55 390.649ZM3288.81 544.671 3307.86 568.803 3277.12 569.564Z" fill="#FFFFFF"/><path d="M1.93684-4.15399 369.525 167.238 365.651 175.546-1.93684 4.15399ZM369.245 156.993 388.358 181.076 357.624 181.917Z" fill="#FFFFFF" transform="matrix(1 0 0 -1 2919.5 386.576)"/><path d="M1110.5 432.5C1170.99 432.425 1246.42 434.134 1328.86 432.5 1411.3 430.866 1448.99 430.279 1516.32 432.5 1583.65 434.721 1651.09 439.396 1728.5 432.5 1723.87 491.368 1725.94 505.922 1728.5 571.5 1662.9 569.459 1578.68 569.93 1522.5 571.5 1466.32 573.071 1412.2 577.989 1328.86 571.5 1245.52 565.012 1193.7 569.673 1110.5 571.5 1113.1 532.396 1105.4 478.609 1110.5 432.5Z" fill="#FFEFC9" fill-rule="evenodd"/><path d="M1110.5 432.5C1156.84 435.603 1266.45 423.155 1322.68 432.5 1378.91 441.845 1462.7 428.243 1534.86 432.5 1607.02 436.757 1670.78 435.165 1728.5 432.5 1726.59 464.465 1726.27 539.086 1728.5 571.5 1669.11 572.28 1590.65 567.741 1522.5 571.5 1454.35 575.259 1382.69 577.148 1335.04 571.5 1287.39 565.852 1222.01 571.346 1110.5 571.5 1113.97 511.214 1108.32 499.846 1110.5 432.5Z" stroke="#000000" stroke-width="9.16667" stroke-miterlimit="8" fill="none" fill-rule="evenodd"/><text fill="#0070C0" font-family="Arial,Arial_MSFontService,sans-serif" font-weight="700" font-size="73" transform="matrix(1 0 0 1 1341.53 529)">EDC</text><path d="M2137.16 789.335 1744.78 519.269 1749.98 511.718 2142.35 781.784ZM1743.36 529.418 1728.5 502.5 1758.95 506.765Z" fill="#FFFFFF"/><path d="M0.907568-4.49258 551.784 106.793 549.969 115.778-0.907568 4.49258ZM549.106 96.8999 573.339 115.823 543.661 123.855Z" fill="#FFFFFF" transform="matrix(-1 0 0 1 2301.84 386.5)"/><path d="M2.36241-3.92759 453.78 267.595 449.055 275.45-2.36241 3.92759ZM454.576 257.377 471.055 283.334 440.402 280.943Z" fill="#FFFFFF" transform="matrix(1 0 0 -1 2139.5 784.834)"/><rect x="1843" y="332" width="296" height="60.9998"/><text fill="#FFFFFF" font-family="Arial,Arial_MSFontService,sans-serif" font-weight="400" font-size="50" transform="matrix(1 0 0 1 1852.27 381)">registered in</text><path d="M148.5 963.5C208.992 963.425 284.423 965.146 366.86 963.5 449.298 961.854 486.995 961.263 554.32 963.5 621.646 965.737 689.091 970.446 766.5 963.5 761.866 1022.79 763.939 1037.45 766.5 1103.5 700.897 1101.44 616.681 1101.92 560.5 1103.5 504.319 1105.08 450.196 1110.04 366.86 1103.5 283.524 1096.96 231.695 1101.66 148.5 1103.5 151.102 1064.11 143.402 1009.94 148.5 963.5Z" fill="#FFEFC9" fill-rule="evenodd"/><path d="M148.5 963.5C194.842 966.626 304.446 954.088 360.68 963.5 416.914 972.912 500.699 959.212 572.86 963.5 645.022 967.788 708.777 966.184 766.5 963.5 764.589 995.695 764.274 1070.85 766.5 1103.5 707.113 1104.28 628.647 1099.71 560.5 1103.5 492.353 1107.29 420.686 1109.19 373.04 1103.5 325.394 1097.81 260.006 1103.34 148.5 1103.5 151.965 1042.78 146.32 1031.33 148.5 963.5Z" stroke="#000000" stroke-width="9.16667" stroke-miterlimit="8" fill="none" fill-rule="evenodd"/><text fill="#0070C0" font-family="Arial,Arial_MSFontService,sans-serif" font-weight="700" font-size="73" transform="matrix(1 0 0 1 194.447 1060)">EDC Discovery</text><path d="M2.6461-3.74234 636.708 444.584 631.416 452.069-2.6461 3.74234ZM638.261 434.455 652.776 461.559 622.384 456.909Z" fill="#FFFFFF" transform="matrix(-1 0 0 1 1110.28 502.5)"/><path d="M3226.32 817.459 2628.89 515.918 2633.02 507.734 3230.45 809.276ZM2628.85 526.166 2610.5 501.5 2641.25 501.616Z" fill="#FFFFFF"/><rect x="2890" y="635" width="295" height="61.0002"/><text fill="#FFFFFF" font-family="Arial,Arial_MSFontService,sans-serif" font-weight="400" font-size="50" transform="matrix(1 0 0 1 2898.78 684)">registered in</text><path d="M152.5 1524.5C238.729 1534.74 337.058 1520.36 396.653 1524.5 456.249 1528.64 526.536 1531.38 606.257 1524.5 685.978 1517.62 740.858 1514.99 843.5 1524.5 837.395 1566.76 838.52 1611.03 843.5 1660.5 771.851 1662.12 668.927 1656.99 613.167 1660.5 557.406 1664.01 452.366 1660.65 396.653 1660.5 340.941 1660.35 242.202 1664.83 152.5 1660.5 153.219 1598.77 154.966 1578.06 152.5 1524.5Z" fill="#FFEFC9" fill-rule="evenodd"/><path d="M152.5 1524.5C212.226 1534.1 332.4 1532.62 389.744 1524.5 447.087 1516.38 557.351 1525.46 626.987 1524.5 696.622 1523.54 753.581 1522.43 843.5 1524.5 847.275 1561.81 848.005 1598.99 843.5 1660.5 765.105 1651.25 699.732 1660.41 613.167 1660.5 526.602 1660.59 476.46 1670.53 403.563 1660.5 330.667 1650.47 216.946 1658.56 152.5 1660.5 154.517 1602.26 152.128 1590.03 152.5 1524.5Z" stroke="#000000" stroke-width="9.16667" stroke-miterlimit="8" fill="none" fill-rule="evenodd"/><text fill="#0070C0" font-family="Arial,Arial_MSFontService,sans-serif" font-weight="700" font-size="73" transform="matrix(1 0 0 1 200.318 1621)">Discovery Finder</text><path d="M761.5 1802.5C851.827 1813.34 924.032 1812.39 979.86 1802.5 1035.69 1792.61 1100.23 1808.71 1179.68 1802.5 1259.13 1796.29 1333.98 1799.66 1379.5 1802.5 1376.19 1842.73 1381.82 1908.07 1379.5 1938.5 1318.77 1941.03 1234.2 1947.86 1185.86 1938.5 1137.52 1929.14 1077.3 1944.27 973.68 1938.5 870.059 1932.73 816.686 1944.32 761.5 1938.5 761.93 1881.88 761.734 1843.2 761.5 1802.5Z" fill="#FFEFC9" fill-rule="evenodd"/><path d="M761.5 1802.5C850.801 1808.14 904.576 1797.53 948.96 1802.5 993.345 1807.47 1084.64 1796.69 1136.42 1802.5 1188.2 1808.32 1309.83 1811.31 1379.5 1802.5 1379.54 1846.01 1378.34 1892.16 1379.5 1938.5 1301.94 1935.16 1247.09 1929.51 1192.04 1938.5 1136.99 1947.49 1056.69 1933.59 998.4 1938.5 940.111 1943.41 874.733 1941.74 761.5 1938.5 758.628 1902.02 762.869 1835.08 761.5 1802.5Z" stroke="#000000" stroke-width="9.16667" stroke-miterlimit="8" fill="none" fill-rule="evenodd"/><text fill="#0070C0" font-family="Arial,Arial_MSFontService,sans-serif" font-weight="700" font-size="73" transform="matrix(1 0 0 1 807.827 1899)">BPN Discovery</text><rect x="2162" y="642" width="295" height="60.9998"/><text fill="#FFFFFF" font-family="Arial,Arial_MSFontService,sans-serif" font-weight="400" font-size="50" transform="matrix(1 0 0 1 2171.09 691)">registered in</text><rect x="1787" y="555" width="296" height="60.9998"/><text fill="#FFFFFF" font-family="Arial,Arial_MSFontService,sans-serif" font-weight="400" font-size="50" transform="matrix(1 0 0 1 1796.19 604)">registered in</text><rect x="2955" y="429" width="316" height="60.9998"/><text fill="#FFFFFF" font-family="Arial,Arial_MSFontService,sans-serif" font-weight="400" font-size="50" transform="matrix(1 0 0 1 2984.11 478)">implements</text><rect x="2963" y="278" width="315" height="60.9998"/><text fill="#FFFFFF" font-family="Arial,Arial_MSFontService,sans-serif" font-weight="400" font-size="50" transform="matrix(1 0 0 1 2991.56 327)">implements</text><rect x="665" y="663" width="295" height="60.9998"/><text fill="#FFFFFF" font-family="Arial,Arial_MSFontService,sans-serif" font-weight="400" font-size="50" transform="matrix(1 0 0 1 673.862 712)">registered in</text><path d="M759.234 1874.02 513.571 1678.36 519.281 1671.19 764.945 1866.85ZM511.445 1688.39 498.5 1660.5 528.577 1666.88Z" fill="#FFFFFF"/><rect x="440" y="1732" width="295" height="60.9999"/><text fill="#FFFFFF" font-family="Arial,Arial_MSFontService,sans-serif" font-weight="400" font-size="50" transform="matrix(1 0 0 1 448.613 1781)">registered in</text><path d="M1419.5 2166.5C1509.83 2177.33 1582.03 2176.38 1637.86 2166.5 1693.69 2156.62 1758.23 2172.7 1837.68 2166.5 1917.13 2160.3 1991.98 2163.67 2037.5 2166.5 2036.85 2235.99 2041.05 2272.11 2037.5 2335.5 1976.77 2338.03 1892.2 2344.85 1843.86 2335.5 1795.52 2326.15 1735.3 2341.27 1631.68 2335.5 1528.06 2329.73 1474.69 2341.31 1419.5 2335.5 1413.82 2257.86 1422.98 2249.71 1419.5 2166.5Z" fill="#FFEFC9" fill-rule="evenodd"/><path d="M1419.5 2166.5C1508.8 2172.13 1562.58 2161.54 1606.96 2166.5 1651.34 2171.47 1742.64 2160.69 1794.42 2166.5 1846.2 2172.31 1967.83 2175.3 2037.5 2166.5 2038.51 2243.99 2045.56 2278.57 2037.5 2335.5 1959.94 2332.17 1905.09 2326.52 1850.04 2335.5 1794.99 2344.48 1714.69 2330.59 1656.4 2335.5 1598.11 2340.41 1532.73 2338.73 1419.5 2335.5 1416.58 2292.2 1427.12 2213.11 1419.5 2166.5Z" stroke="#000000" stroke-width="9.16667" stroke-miterlimit="8" fill="none" fill-rule="evenodd"/><text font-family="Arial,Arial_MSFontService,sans-serif" font-weight="400" font-size="50" transform="matrix(1 0 0 1 1456.86 2241)">Standardized elsewhere</text><path d="M0 0 3827.83 80.9431" stroke="#FFFFFF" stroke-width="9.16667" stroke-linejoin="round" stroke-miterlimit="10" fill="none" fill-rule="evenodd" transform="matrix(1 0 0 -1 116.5 2153.44)"/><path d="M2162.5 1769.5C2247.75 1766.76 2322.45 1776.89 2373.1 1769.5 2423.75 1762.11 2471.68 1768.85 2567.5 1769.5 2569.64 1827.2 2562.32 1859.78 2567.5 1914.5 2497.24 1923.71 2468.11 1912.22 2373.1 1914.5 2278.08 1916.78 2216.27 1921.91 2162.5 1914.5 2158.21 1853.48 2164.42 1820.25 2162.5 1769.5Z" fill="#F2F2F2" fill-rule="evenodd"/><path d="M2162.5 1769.5C2256.91 1761.29 2268.55 1763.7 2352.85 1769.5 2437.15 1775.3 2476.1 1777.94 2567.5 1769.5 2569.76 1825.89 2565.65 1860.22 2567.5 1914.5 2487.18 1904.85 2436.96 1920.13 2369.05 1914.5 2301.14 1908.87 2243.88 1920.22 2162.5 1914.5 2162.34 1860.99 2157.13 1820.64 2162.5 1769.5Z" stroke="#000000" stroke-width="9.16667" stroke-miterlimit="8" fill="none" fill-rule="evenodd"/><text fill="#0070C0" font-family="Arial,Arial_MSFontService,sans-serif" font-weight="700" font-size="73" transform="matrix(1 0 0 1 2264.76 1866)">Asset</text><path d="M0.168322-4.58024 760.092 23.3467 759.755 32.5072-0.168322 4.58024ZM755.849 14.0179 782.825 28.7685 754.839 41.4993Z" fill="#FFFFFF" transform="matrix(-1 0 0 1 2162.32 1842.5)"/><rect x="1454" y="1829" width="296" height="60.9999"/><text fill="#FFFFFF" font-family="Arial,Arial_MSFontService,sans-serif" font-weight="400" font-size="50" transform="matrix(1 0 0 1 1463.45 1878)">registered in</text><path d="M4.43095-1.172 76.5497 271.486 67.6878 273.83-4.43095 1.172ZM84.2396 264.711 77.9787 294.813 57.6539 271.743Z" fill="#FFFFFF" transform="matrix(-1 0 0 1 2442.48 1475.5)"/><rect x="2201" y="1570" width="316" height="61.0002"/><text fill="#FFFFFF" font-family="Arial,Arial_MSFontService,sans-serif" font-weight="400" font-size="50" transform="matrix(1 0 0 1 2204.75 1619)">represents an</text><path d="M2290.5 2166.5C2380.83 2177.33 2453.03 2176.38 2508.86 2166.5 2564.69 2156.62 2629.23 2172.7 2708.68 2166.5 2788.13 2160.3 2862.98 2163.67 2908.5 2166.5 2907.85 2235.99 2912.05 2272.11 2908.5 2335.5 2847.77 2338.03 2763.2 2344.85 2714.86 2335.5 2666.52 2326.15 2606.3 2341.27 2502.68 2335.5 2399.06 2329.73 2345.69 2341.31 2290.5 2335.5 2284.82 2257.86 2293.98 2249.71 2290.5 2166.5Z" fill="#F2F2F2" fill-rule="evenodd"/><path d="M2290.5 2166.5C2379.8 2172.13 2433.58 2161.54 2477.96 2166.5 2522.34 2171.47 2613.64 2160.69 2665.42 2166.5 2717.2 2172.31 2838.83 2175.3 2908.5 2166.5 2909.51 2243.99 2916.56 2278.57 2908.5 2335.5 2830.94 2332.17 2776.09 2326.52 2721.04 2335.5 2665.99 2344.48 2585.69 2330.59 2527.4 2335.5 2469.11 2340.41 2403.73 2338.73 2290.5 2335.5 2287.58 2292.2 2298.12 2213.11 2290.5 2166.5Z" stroke="#000000" stroke-width="9.16667" stroke-miterlimit="8" fill="none" fill-rule="evenodd"/><text font-family="Arial,Arial_MSFontService,sans-serif" font-weight="400" font-size="50" transform="matrix(1 0 0 1 2366.23 2241)">Standardized in CX <tspan font-size="50" x="448.594" y="0">-</tspan><tspan font-size="50" x="176.458" y="61">0002</tspan></text></g></svg>