<?xml version="1.0" encoding="utf-8"?>
<!-- Generator: Adobe Illustrator 27.3.1, SVG Export Plug-In . SVG Version: 6.00 Build 0)  -->
<svg version="1.0" id="Layer_1" xmlns="http://www.w3.org/2000/svg" xmlns:xlink="http://www.w3.org/1999/xlink" x="0px" y="0px"
	 viewBox="0 0 1429 801" style="enable-background:new 0 0 1429 801;" xml:space="preserve">
<path style="fill:#3A4148;" d="M75.7,85.8h85.7c11.8,0,21.4,9.6,21.4,21.4v85.7c0,11.8-9.6,21.4-21.4,21.4H75.7
	c-11.8,0-21.4-9.6-21.4-21.4v-85.7C54.3,95.4,63.9,85.8,75.7,85.8z"/>
<path style="fill:#FFFFFF;" d="M81.4,161.4l6.8-21h4.4l6.8,21h-3.2l-6.3-19.1h0.8l-6.2,19.1H81.4z M84.9,156.6v-2.9h11v2.9H84.9z
	 M102,161.4v-21h8.5c0.2,0,0.5,0,0.8,0c0.3,0,0.6,0,0.9,0.1c1.2,0.2,2.1,0.6,2.9,1.2c0.8,0.6,1.4,1.4,1.8,2.3c0.4,0.9,0.6,2,0.6,3.1
	c0,1.1-0.2,2.2-0.6,3.1c-0.4,0.9-1,1.7-1.8,2.3c-0.8,0.6-1.7,1-2.9,1.2c-0.3,0-0.6,0.1-0.9,0.1c-0.3,0-0.5,0-0.7,0H105v7.5H102z
	 M105,151h5.3c0.2,0,0.4,0,0.6,0c0.2,0,0.5-0.1,0.7-0.1c0.6-0.1,1.1-0.4,1.5-0.8c0.4-0.4,0.7-0.9,0.8-1.4c0.2-0.5,0.2-1,0.2-1.5
	c0-0.5-0.1-1-0.2-1.5c-0.2-0.5-0.4-1-0.8-1.4c-0.4-0.4-0.9-0.7-1.5-0.8c-0.2-0.1-0.4-0.1-0.7-0.1c-0.2,0-0.4,0-0.6,0H105V151z
	 M120.2,161.4v-21h8.5c0.2,0,0.5,0,0.8,0c0.3,0,0.6,0,0.9,0.1c1.2,0.2,2.1,0.6,2.9,1.2c0.8,0.6,1.4,1.4,1.8,2.3
	c0.4,0.9,0.6,2,0.6,3.1c0,1.1-0.2,2.2-0.6,3.1c-0.4,0.9-1,1.7-1.8,2.3c-0.8,0.6-1.7,1-2.9,1.2c-0.3,0-0.6,0.1-0.9,0.1
	c-0.3,0-0.5,0-0.7,0h-5.4v7.5H120.2z M123.3,151h5.3c0.2,0,0.4,0,0.6,0c0.2,0,0.5-0.1,0.7-0.1c0.6-0.1,1.1-0.4,1.5-0.8
	c0.4-0.4,0.7-0.9,0.8-1.4c0.2-0.5,0.2-1,0.2-1.5c0-0.5-0.1-1-0.2-1.5c-0.2-0.5-0.4-1-0.8-1.4c-0.4-0.4-0.9-0.7-1.5-0.8
	c-0.2-0.1-0.4-0.1-0.7-0.1c-0.2,0-0.4,0-0.6,0h-5.3V151z M148,161.4v-17.6l-3.9,2.4v-3.4l3.9-2.4h3.1v21H148z"/>
<path style="fill:#3A4148;" d="M75.7,265.8h85.7c11.8,0,21.4,9.6,21.4,21.4v85.7c0,11.8-9.6,21.4-21.4,21.4H75.7
	c-11.8,0-21.4-9.6-21.4-21.4v-85.7C54.3,275.3,63.9,265.8,75.7,265.8z"/>
<path style="fill:#FFFFFF;" d="M77.6,341.3l6.8-21h4.4l6.8,21h-3.2l-6.3-19.1h0.8l-6.2,19.1H77.6z M81.1,336.6v-2.9h11v2.9H81.1z
	 M98.2,341.3v-21h8.5c0.2,0,0.5,0,0.8,0c0.3,0,0.6,0,0.9,0.1c1.2,0.2,2.1,0.6,2.9,1.2c0.8,0.6,1.4,1.4,1.8,2.3
	c0.4,0.9,0.6,2,0.6,3.1c0,1.1-0.2,2.2-0.6,3.1c-0.4,0.9-1,1.7-1.8,2.3c-0.8,0.6-1.7,1-2.9,1.2c-0.3,0-0.6,0.1-0.9,0.1
	c-0.3,0-0.5,0-0.7,0h-5.4v7.5H98.2z M101.3,330.9h5.3c0.2,0,0.4,0,0.6,0c0.2,0,0.5-0.1,0.7-0.1c0.6-0.1,1.1-0.4,1.5-0.8
	c0.4-0.4,0.7-0.9,0.8-1.4c0.2-0.5,0.2-1,0.2-1.5c0-0.5-0.1-1-0.2-1.5c-0.2-0.5-0.4-1-0.8-1.4c-0.4-0.4-0.9-0.7-1.5-0.8
	c-0.2-0.1-0.4-0.1-0.7-0.1c-0.2,0-0.4,0-0.6,0h-5.3V330.9z M116.5,341.3v-21h8.5c0.2,0,0.5,0,0.8,0c0.3,0,0.6,0,0.9,0.1
	c1.2,0.2,2.1,0.6,2.9,1.2c0.8,0.6,1.4,1.4,1.8,2.3c0.4,0.9,0.6,2,0.6,3.1c0,1.1-0.2,2.2-0.6,3.1c-0.4,0.9-1,1.7-1.8,2.3
	c-0.8,0.6-1.7,1-2.9,1.2c-0.3,0-0.6,0.1-0.9,0.1c-0.3,0-0.5,0-0.7,0h-5.4v7.5H116.5z M119.5,330.9h5.3c0.2,0,0.4,0,0.6,0
	c0.2,0,0.5-0.1,0.7-0.1c0.6-0.1,1.1-0.4,1.5-0.8c0.4-0.4,0.7-0.9,0.8-1.4c0.2-0.5,0.2-1,0.2-1.5c0-0.5-0.1-1-0.2-1.5
	c-0.2-0.5-0.4-1-0.8-1.4c-0.4-0.4-0.9-0.7-1.5-0.8c-0.2-0.1-0.4-0.1-0.7-0.1c-0.2,0-0.4,0-0.6,0h-5.3V330.9z M140,341.3l0-2.7
	l9.1-8.2c0.7-0.7,1.2-1.3,1.5-1.9c0.3-0.6,0.4-1.2,0.4-1.8c0-0.7-0.2-1.4-0.5-2c-0.3-0.6-0.8-1.1-1.4-1.4c-0.6-0.3-1.3-0.5-2-0.5
	c-0.8,0-1.5,0.2-2.1,0.6c-0.6,0.4-1.1,0.8-1.4,1.4c-0.3,0.6-0.5,1.3-0.5,2h-3.1c0-1.4,0.3-2.5,0.9-3.6c0.6-1,1.5-1.8,2.5-2.4
	c1.1-0.6,2.3-0.9,3.7-0.9c1.3,0,2.5,0.3,3.6,0.9c1,0.6,1.9,1.4,2.5,2.4c0.6,1,0.9,2.2,0.9,3.6c0,1-0.1,1.8-0.4,2.4
	c-0.3,0.7-0.6,1.3-1.1,1.9c-0.5,0.6-1.1,1.2-1.9,1.9l-7.1,6.3l-0.3-0.9h10.8v2.9H140z"/>
<path style="fill:#3A4148;" d="M75.7,445.7h85.7c11.8,0,21.4,9.6,21.4,21.4v85.7c0,11.8-9.6,21.4-21.4,21.4H75.7
	c-11.8,0-21.4-9.6-21.4-21.4v-85.7C54.3,455.3,63.9,445.7,75.7,445.7z"/>
<path style="fill:#FFFFFF;" d="M79.3,521.2l6.8-21h4.4l6.8,21h-3.2l-6.3-19.1h0.8l-6.2,19.1H79.3z M82.8,516.5v-2.9h11v2.9H82.8z
	 M99.9,521.2v-21h8.5c0.2,0,0.5,0,0.8,0c0.3,0,0.6,0,0.9,0.1c1.2,0.2,2.1,0.6,2.9,1.2c0.8,0.6,1.4,1.4,1.8,2.3
	c0.4,0.9,0.6,2,0.6,3.1c0,1.1-0.2,2.2-0.6,3.1c-0.4,0.9-1,1.7-1.8,2.3c-0.8,0.6-1.7,1-2.9,1.2c-0.3,0-0.6,0.1-0.9,0.1
	c-0.3,0-0.5,0-0.7,0h-5.4v7.5H99.9z M102.9,510.8h5.3c0.2,0,0.4,0,0.6,0c0.2,0,0.5-0.1,0.7-0.1c0.6-0.1,1.1-0.4,1.5-0.8
	c0.4-0.4,0.7-0.9,0.8-1.4c0.2-0.5,0.2-1,0.2-1.5c0-0.5-0.1-1-0.2-1.5c-0.2-0.5-0.4-1-0.8-1.4c-0.4-0.4-0.9-0.7-1.5-0.8
	c-0.2-0.1-0.4-0.1-0.7-0.1c-0.2,0-0.4,0-0.6,0h-5.3V510.8z M118.2,521.2v-21h8.5c0.2,0,0.5,0,0.8,0c0.3,0,0.6,0,0.9,0.1
	c1.2,0.2,2.1,0.6,2.9,1.2c0.8,0.6,1.4,1.4,1.8,2.3c0.4,0.9,0.6,2,0.6,3.1c0,1.1-0.2,2.2-0.6,3.1c-0.4,0.9-1,1.7-1.8,2.3
	c-0.8,0.6-1.7,1-2.9,1.2c-0.3,0-0.6,0.1-0.9,0.1c-0.3,0-0.5,0-0.7,0h-5.4v7.5H118.2z M121.2,510.8h5.3c0.2,0,0.4,0,0.6,0
	c0.2,0,0.5-0.1,0.7-0.1c0.6-0.1,1.1-0.4,1.5-0.8c0.4-0.4,0.7-0.9,0.8-1.4c0.2-0.5,0.2-1,0.2-1.5c0-0.5-0.1-1-0.2-1.5
	c-0.2-0.5-0.4-1-0.8-1.4c-0.4-0.4-0.9-0.7-1.5-0.8c-0.2-0.1-0.4-0.1-0.7-0.1c-0.2,0-0.4,0-0.6,0h-5.3V510.8z M140.5,521.2l7.2-10.6
	l-7-10.4h3.7l5.1,7.8l5.1-7.8h3.7l-7,10.4l7.1,10.6h-3.7l-5.3-8l-5.3,8H140.5z"/>
<g>
	<path style="fill:#80CBB1;" d="M326.7,402.8h103.7c9.5,0,17.1,7.7,17.1,17.1v137.9c0,9.5-7.7,17.1-17.1,17.1H326.7
		c-9.5,0-17.1-7.7-17.1-17.1V420C309.6,410.5,317.3,402.8,326.7,402.8z"/>
	<path style="fill:none;stroke:#FFFFFF;stroke-width:0.8568;" d="M326.7,403.3h103.7c9.2,0,16.7,7.5,16.7,16.7v137.9
		c0,9.2-7.5,16.7-16.7,16.7H326.7c-9.2,0-16.7-7.5-16.7-16.7V420C310,410.7,317.5,403.3,326.7,403.3z"/>
</g>
<g>
	<path style="fill:#50947D;" d="M323.3,397.7h102.8c9.5,0,17.1,7.7,17.1,17.1v137.9c0,9.5-7.7,17.1-17.1,17.1H323.3
		c-9.5,0-17.1-7.7-17.1-17.1V414.8C306.2,405.4,313.8,397.7,323.3,397.7z"/>
	<path style="fill:none;stroke:#FFFFFF;stroke-width:0.8568;" d="M323.3,398.1h102.8c9.2,0,16.7,7.5,16.7,16.7v137.9
		c0,9.2-7.5,16.7-16.7,16.7H323.3c-9.2,0-16.7-7.5-16.7-16.7V414.8C306.6,405.6,314.1,398.1,323.3,398.1z"/>
</g>
<g>
	<path style="fill:#61AD93;" d="M319,392.6h102.8c9.5,0,17.1,7.7,17.1,17.1v137.9c0,9.5-7.7,17.1-17.1,17.1H319
		c-9.5,0-17.1-7.7-17.1-17.1V409.7C301.9,400.2,309.6,392.6,319,392.6z"/>
	<path style="fill:none;stroke:#FFFFFF;stroke-width:0.8568;" d="M319,393h102.8c9.2,0,16.7,7.5,16.7,16.7v137.9
		c0,9.2-7.5,16.7-16.7,16.7H319c-9.2,0-16.7-7.5-16.7-16.7V409.7C302.3,400.5,309.8,393,319,393z"/>
</g>
<linearGradient id="SVGID_1_" gradientUnits="userSpaceOnUse" x1="302.6662" y1="418.7235" x2="428.7562" y2="238.2265" gradientTransform="matrix(1 0 0 -1 0 802)">
	<stop  offset="0" style="stop-color:#75AA98"/>
	<stop  offset="1" style="stop-color:#37846A"/>
</linearGradient>
<path style="fill:url(#SVGID_1_);" d="M313.9,387.4h103.7c9.5,0,17.1,7.7,17.1,17.1v137.9c0,9.5-7.7,17.1-17.1,17.1H313.9
	c-9.5,0-17.1-7.7-17.1-17.1V404.6C296.7,395.1,304.4,387.4,313.9,387.4z"/>
<path style="fill:#FFFFFF;" d="M325.2,512.8v-11.1h4.4c0.7,0,1.3,0.1,1.8,0.4s0.8,0.7,1.1,1.1c0.2,0.5,0.4,0.9,0.4,1.4
	c0,0.6-0.2,1.1-0.5,1.6c-0.3,0.4-0.7,0.7-1.2,0.9l0-0.4c0.7,0.2,1.3,0.5,1.6,1c0.4,0.5,0.6,1.1,0.6,1.8c0,0.7-0.1,1.2-0.4,1.7
	c-0.3,0.5-0.6,0.9-1.1,1.1c-0.5,0.3-1.1,0.4-1.8,0.4H325.2z M326.9,511.3h2.9c0.4,0,0.7-0.1,1-0.2c0.3-0.1,0.5-0.3,0.7-0.6
	c0.2-0.3,0.3-0.6,0.3-0.9c0-0.3-0.1-0.6-0.2-0.9c-0.1-0.3-0.4-0.5-0.6-0.6c-0.3-0.2-0.6-0.2-1-0.2h-3V511.3z M326.9,506.2h2.7
	c0.3,0,0.6-0.1,0.8-0.2c0.2-0.1,0.4-0.3,0.6-0.5c0.1-0.2,0.2-0.5,0.2-0.8c0-0.4-0.1-0.8-0.4-1.1c-0.3-0.3-0.7-0.4-1.2-0.4h-2.7
	V506.2z M340.1,513c-0.9,0-1.6-0.2-2.3-0.5c-0.7-0.4-1.2-0.9-1.6-1.5c-0.4-0.6-0.6-1.4-0.6-2.3v-7l1.6,0v6.9c0,0.5,0.1,0.9,0.2,1.2
	c0.2,0.4,0.4,0.7,0.6,0.9c0.3,0.2,0.6,0.4,0.9,0.5c0.3,0.1,0.7,0.2,1,0.2c0.3,0,0.7-0.1,1-0.2c0.3-0.1,0.6-0.3,0.9-0.6
	c0.3-0.2,0.5-0.5,0.6-0.9c0.2-0.4,0.2-0.8,0.2-1.2v-6.9h1.6v7c0,0.9-0.2,1.6-0.6,2.3c-0.4,0.6-0.9,1.2-1.6,1.5
	C341.7,512.9,340.9,513,340.1,513z M351,513c-0.8,0-1.5-0.1-2.2-0.4c-0.6-0.3-1.2-0.7-1.6-1.2c-0.4-0.5-0.7-1.1-0.8-1.8l1.7-0.3
	c0.2,0.7,0.5,1.2,1.1,1.6c0.5,0.4,1.2,0.6,1.9,0.6c0.4,0,0.9-0.1,1.2-0.2c0.4-0.1,0.7-0.3,0.9-0.6c0.2-0.3,0.3-0.6,0.3-1
	c0-0.2,0-0.4-0.1-0.5c-0.1-0.2-0.2-0.3-0.3-0.4c-0.1-0.1-0.3-0.2-0.4-0.3c-0.2-0.1-0.4-0.2-0.6-0.2l-2.8-0.8
	c-0.3-0.1-0.6-0.2-0.8-0.3c-0.3-0.1-0.6-0.3-0.8-0.5c-0.2-0.2-0.4-0.5-0.6-0.8c-0.1-0.3-0.2-0.7-0.2-1.2c0-0.7,0.2-1.3,0.5-1.7
	c0.4-0.5,0.8-0.8,1.4-1.1c0.6-0.2,1.3-0.4,2-0.4c0.8,0,1.4,0.1,2,0.4c0.6,0.3,1.1,0.6,1.5,1.1c0.4,0.5,0.7,1.1,0.8,1.7l-1.7,0.3
	c-0.1-0.4-0.2-0.8-0.5-1.1c-0.3-0.3-0.6-0.5-0.9-0.7c-0.4-0.2-0.8-0.2-1.2-0.3c-0.4,0-0.8,0.1-1.1,0.2c-0.3,0.1-0.6,0.3-0.8,0.6
	c-0.2,0.2-0.3,0.5-0.3,0.8c0,0.3,0.1,0.6,0.3,0.7s0.4,0.3,0.7,0.5c0.3,0.1,0.5,0.2,0.8,0.3l2.1,0.6c0.3,0.1,0.5,0.2,0.9,0.3
	c0.3,0.1,0.6,0.3,0.9,0.5c0.3,0.2,0.6,0.5,0.8,0.9c0.2,0.4,0.3,0.8,0.3,1.3c0,0.6-0.1,1.1-0.3,1.5c-0.2,0.4-0.5,0.8-0.9,1.1
	c-0.4,0.3-0.8,0.5-1.4,0.6C352.1,513,351.5,513,351,513z M357.8,512.8v-11.1h1.6v11.1H357.8z M362.5,512.8v-11.1h1.6l5.5,8.3v-8.3
	h1.6v11.1h-1.6l-5.5-8.3v8.3H362.5z M374.2,512.8v-11.1h7.1v1.5h-5.5v3.1h4.6v1.5h-4.6v3.4h5.5v1.5H374.2z M387.7,513
	c-0.8,0-1.5-0.1-2.2-0.4c-0.6-0.3-1.2-0.7-1.6-1.2c-0.4-0.5-0.7-1.1-0.8-1.8l1.7-0.3c0.2,0.7,0.5,1.2,1.1,1.6
	c0.5,0.4,1.2,0.6,1.9,0.6c0.4,0,0.9-0.1,1.2-0.2c0.4-0.1,0.7-0.3,0.9-0.6c0.2-0.3,0.3-0.6,0.3-1c0-0.2,0-0.4-0.1-0.5
	c-0.1-0.2-0.2-0.3-0.3-0.4c-0.1-0.1-0.3-0.2-0.4-0.3c-0.2-0.1-0.4-0.2-0.6-0.2l-2.8-0.8c-0.3-0.1-0.6-0.2-0.8-0.3
	c-0.3-0.1-0.6-0.3-0.8-0.5c-0.2-0.2-0.4-0.5-0.6-0.8c-0.1-0.3-0.2-0.7-0.2-1.2c0-0.7,0.2-1.3,0.5-1.7c0.4-0.5,0.8-0.8,1.4-1.1
	c0.6-0.2,1.3-0.4,2-0.4c0.8,0,1.4,0.1,2,0.4c0.6,0.3,1.1,0.6,1.5,1.1c0.4,0.5,0.7,1.1,0.8,1.7l-1.7,0.3c-0.1-0.4-0.2-0.8-0.5-1.1
	c-0.3-0.3-0.6-0.5-0.9-0.7c-0.4-0.2-0.8-0.2-1.2-0.3c-0.4,0-0.8,0.1-1.1,0.2c-0.3,0.1-0.6,0.3-0.8,0.6c-0.2,0.2-0.3,0.5-0.3,0.8
	c0,0.3,0.1,0.6,0.3,0.7s0.4,0.3,0.7,0.5c0.3,0.1,0.5,0.2,0.8,0.3l2.1,0.6c0.3,0.1,0.5,0.2,0.9,0.3c0.3,0.1,0.6,0.3,0.9,0.5
	c0.3,0.2,0.6,0.5,0.8,0.9c0.2,0.4,0.3,0.8,0.3,1.3c0,0.6-0.1,1.1-0.3,1.5c-0.2,0.4-0.5,0.8-0.9,1.1c-0.4,0.3-0.8,0.5-1.4,0.6
	C388.8,513,388.3,513,387.7,513z M398.6,513c-0.8,0-1.5-0.1-2.2-0.4c-0.6-0.3-1.2-0.7-1.6-1.2c-0.4-0.5-0.7-1.1-0.8-1.8l1.7-0.3
	c0.2,0.7,0.5,1.2,1.1,1.6c0.5,0.4,1.2,0.6,1.9,0.6c0.4,0,0.9-0.1,1.2-0.2c0.4-0.1,0.7-0.3,0.9-0.6c0.2-0.3,0.3-0.6,0.3-1
	c0-0.2,0-0.4-0.1-0.5c-0.1-0.2-0.2-0.3-0.3-0.4c-0.1-0.1-0.3-0.2-0.4-0.3c-0.2-0.1-0.4-0.2-0.6-0.2l-2.8-0.8
	c-0.3-0.1-0.6-0.2-0.8-0.3c-0.3-0.1-0.6-0.3-0.8-0.5c-0.2-0.2-0.4-0.5-0.6-0.8c-0.1-0.3-0.2-0.7-0.2-1.2c0-0.7,0.2-1.3,0.5-1.7
	c0.4-0.5,0.8-0.8,1.4-1.1c0.6-0.2,1.3-0.4,2-0.4c0.8,0,1.4,0.1,2,0.4c0.6,0.3,1.1,0.6,1.5,1.1c0.4,0.5,0.7,1.1,0.8,1.7l-1.7,0.3
	c-0.1-0.4-0.2-0.8-0.5-1.1c-0.3-0.3-0.6-0.5-0.9-0.7c-0.4-0.2-0.8-0.2-1.2-0.3c-0.4,0-0.8,0.1-1.1,0.2c-0.3,0.1-0.6,0.3-0.8,0.6
	c-0.2,0.2-0.3,0.5-0.3,0.8c0,0.3,0.1,0.6,0.3,0.7s0.4,0.3,0.7,0.5c0.3,0.1,0.5,0.2,0.8,0.3l2.1,0.6c0.3,0.1,0.5,0.2,0.9,0.3
	c0.3,0.1,0.6,0.3,0.9,0.5c0.3,0.2,0.6,0.5,0.8,0.9c0.2,0.4,0.3,0.8,0.3,1.3c0,0.6-0.1,1.1-0.3,1.5c-0.2,0.4-0.5,0.8-0.9,1.1
	c-0.4,0.3-0.8,0.5-1.4,0.6C399.7,513,399.2,513,398.6,513z M315.7,527.8v-11.1h4.5c0.1,0,0.2,0,0.4,0c0.2,0,0.3,0,0.5,0
	c0.6,0.1,1.1,0.3,1.5,0.6c0.4,0.3,0.7,0.7,0.9,1.2c0.2,0.5,0.3,1,0.3,1.6c0,0.6-0.1,1.1-0.3,1.6c-0.2,0.5-0.5,0.9-0.9,1.2
	c-0.4,0.3-0.9,0.5-1.5,0.6c-0.1,0-0.3,0-0.5,0c-0.2,0-0.3,0-0.4,0h-2.9v4H315.7z M317.3,522.3h2.8c0.1,0,0.2,0,0.3,0
	c0.1,0,0.2,0,0.4-0.1c0.3-0.1,0.6-0.2,0.8-0.4c0.2-0.2,0.3-0.5,0.4-0.7c0.1-0.3,0.1-0.5,0.1-0.8c0-0.3,0-0.5-0.1-0.8
	c-0.1-0.3-0.2-0.5-0.4-0.7c-0.2-0.2-0.5-0.4-0.8-0.4c-0.1,0-0.2-0.1-0.4-0.1c-0.1,0-0.2,0-0.3,0h-2.8V522.3z M324.6,527.8l3.6-11.1
	h2.3l3.6,11.1h-1.7l-3.3-10.1h0.4l-3.3,10.1H324.6z M326.5,525.3v-1.5h5.8v1.5H326.5z M336.3,527.8v-11.1h4.5c0.1,0,0.2,0,0.4,0
	c0.2,0,0.3,0,0.5,0c0.6,0.1,1.1,0.3,1.5,0.6c0.4,0.3,0.7,0.7,0.9,1.2c0.2,0.5,0.3,1,0.3,1.6c0,0.9-0.2,1.6-0.7,2.3
	c-0.5,0.6-1.1,1-2,1.2l-0.7,0.1h-3.1v4H336.3z M342.8,527.8l-2.2-4.5l1.6-0.4l2.4,4.9H342.8z M337.9,522.3h2.8c0.1,0,0.2,0,0.3,0
	c0.1,0,0.2,0,0.4-0.1c0.3-0.1,0.6-0.2,0.8-0.4c0.2-0.2,0.3-0.5,0.4-0.7c0.1-0.3,0.1-0.5,0.1-0.8c0-0.3,0-0.5-0.1-0.8
	c-0.1-0.3-0.2-0.5-0.4-0.7c-0.2-0.2-0.5-0.4-0.8-0.4c-0.1,0-0.2-0.1-0.4-0.1c-0.1,0-0.2,0-0.3,0h-2.8V522.3z M349.9,527.8v-9.6h-3.7
	v-1.5h9v1.5h-3.7v9.6H349.9z M357.2,527.8v-11.1h1.6l5.5,8.3v-8.3h1.6v11.1h-1.6l-5.5-8.3v8.3H357.2z M368.8,527.8v-11.1h7.1v1.5
	h-5.5v3.1h4.6v1.5h-4.6v3.4h5.5v1.5H368.8z M378.6,527.8v-11.1h4.5c0.1,0,0.2,0,0.4,0c0.2,0,0.3,0,0.5,0c0.6,0.1,1.1,0.3,1.5,0.6
	c0.4,0.3,0.7,0.7,0.9,1.2c0.2,0.5,0.3,1,0.3,1.6c0,0.9-0.2,1.6-0.7,2.3c-0.5,0.6-1.1,1-2,1.2l-0.7,0.1h-3.1v4H378.6z M385.1,527.8
	l-2.2-4.5l1.6-0.4l2.4,4.9H385.1z M380.2,522.3h2.8c0.1,0,0.2,0,0.3,0c0.1,0,0.2,0,0.4-0.1c0.3-0.1,0.6-0.2,0.8-0.4
	c0.2-0.2,0.3-0.5,0.4-0.7c0.1-0.3,0.1-0.5,0.1-0.8c0-0.3,0-0.5-0.1-0.8c-0.1-0.3-0.2-0.5-0.4-0.7c-0.2-0.2-0.5-0.4-0.8-0.4
	c-0.1,0-0.2-0.1-0.4-0.1c-0.1,0-0.2,0-0.3,0h-2.8V522.3z M393.2,527.8v-11.1h1.6v5.2l4.6-5.2h2l-4.9,5.4l5.3,5.7h-2.1l-5-5.3v5.3
	H393.2z M403.9,527.8v-11.1h1.6v11.1H403.9z M411.3,527.8v-9.6h-3.7v-1.5h9v1.5h-3.7v9.6H411.3z"/>
<path style="fill:#FFFFFF;" d="M365.9,452.2c5.8,0,10.6-4.7,10.6-10.5s-4.7-10.5-10.6-10.5c-5.8,0-10.6,4.7-10.6,10.5
	S360.1,452.2,365.9,452.2z M365.9,433.8c4.4,0,7.9,3.5,7.9,7.9c0,4.3-3.5,7.9-7.9,7.9c-4.4,0-7.9-3.5-7.9-7.9
	C358,437.3,361.6,433.8,365.9,433.8L365.9,433.8z"/>
<path style="fill:#FFFFFF;" d="M391.4,450c5,0,9.1-4.1,9.1-9.1c0-5-4.1-9.1-9.1-9.1c-5,0-9.1,4.1-9.1,9.1
	C382.3,445.9,386.4,450,391.4,450z M391.4,434.5c3.5,0,6.4,2.9,6.4,6.4c0,3.5-2.9,6.4-6.4,6.4c-3.5,0-6.4-2.9-6.4-6.4
	C385,437.4,387.9,434.5,391.4,434.5z"/>
<path style="fill:#FFFFFF;" d="M406.9,463C406.9,463,406.9,463,406.9,463l-1.6-9.9c-0.4-2.5-2.6-4.4-5.2-4.4h-0.6
	c-0.3,0-0.7,0.1-0.9,0.4c-1.9,1.9-4.5,2.9-7.2,2.9c-2.7,0-5.2-1-7.1-2.9c-0.3-0.2-0.6-0.4-0.9-0.4h-1.1c-2,0-3.7,1.1-4.6,2.7
	c-0.5-0.1-0.9-0.2-1.4-0.2h-0.7c-0.3,0-0.7,0.1-0.9,0.4c-2.3,2.3-5.4,3.5-8.7,3.5s-6.3-1.2-8.7-3.5c-0.3-0.2-0.6-0.4-0.9-0.4h-1.3
	c-0.5,0-0.9,0.1-1.4,0.2c-0.9-1.6-2.6-2.7-4.6-2.7h-0.6c-0.3,0-0.7,0.1-0.9,0.4c-1.9,1.9-4.5,2.9-7.2,2.9c-2.7,0-5.2-1-7.1-2.9
	c-0.3-0.2-0.6-0.4-0.9-0.4h-1.1c-2.6,0-4.8,1.8-5.2,4.4l-1.6,9.9c0,0,0,0,0,0.1c-0.1,1.3,0.3,2.6,1.2,3.6c0.9,1,2.2,1.6,3.5,1.6
	h18.1c-0.1,1.4,0.4,2.9,1.3,4c1,1.1,2.5,1.8,4,1.8h26.2c1.5,0,3-0.6,4-1.8c1-1.1,1.5-2.5,1.3-4h18.1c1.3,0,2.6-0.6,3.5-1.6
	C406.6,465.7,407.1,464.3,406.9,463L406.9,463z M327.7,464.9c-0.4-0.4-0.6-1-0.5-1.5l1.6-9.8c0.2-1.2,1.3-2.1,2.5-2.1h0.6
	c2.4,2.1,5.4,3.3,8.6,3.3c3.2,0,6.2-1.2,8.6-3.3h0.1c0.9,0,1.7,0.5,2.2,1.2c0,0-0.1,0-0.1,0.1c-0.1,0-0.1,0.1-0.1,0.1
	c-0.1,0.1-0.2,0.2-0.3,0.3c0,0.1-0.1,0.1-0.1,0.1c-0.1,0.1-0.2,0.3-0.3,0.4c0,0-0.1,0.1-0.1,0.1c-0.1,0.2-0.2,0.3-0.3,0.5
	c0,0,0,0.1-0.1,0.1c-0.1,0.1-0.1,0.3-0.2,0.4c0,0.1-0.1,0.1-0.1,0.2c-0.1,0.1-0.1,0.3-0.1,0.4c0,0.1,0,0.1-0.1,0.2
	c-0.1,0.2-0.1,0.4-0.1,0.6l-1.5,9.3h-18.5C328.6,465.5,328.1,465.3,327.7,464.9L327.7,464.9z M380.8,470.4c-0.5,0.6-1.2,0.9-2,0.9
	h-26.2c-0.8,0-1.5-0.3-2-0.9c-0.5-0.6-0.7-1.3-0.7-2l0.2-1.3c0,0,0,0,0,0l1.7-10.4c0.2-1,0.8-1.9,1.7-2.4c0.5-0.2,1-0.4,1.5-0.4h0.8
	c2.8,2.5,6.4,3.9,10.2,3.9c3.8,0,7.4-1.4,10.2-3.9h0.2c0.6,0,1.1,0.1,1.6,0.4c0.9,0.5,1.5,1.3,1.7,2.4l1.7,10.4l0.2,1.3
	C381.5,469.1,381.3,469.8,380.8,470.4L380.8,470.4z M403.7,464.9c-0.4,0.4-0.9,0.7-1.5,0.7l-18.5,0l-1.5-9.3c0-0.2-0.1-0.4-0.1-0.6
	c0-0.1,0-0.1-0.1-0.2c0-0.1-0.1-0.3-0.1-0.4c0-0.1-0.1-0.1-0.1-0.2c-0.1-0.1-0.1-0.3-0.2-0.4c0-0.1-0.1-0.1-0.1-0.2
	c-0.1-0.2-0.2-0.3-0.3-0.5c0,0-0.1-0.1-0.1-0.1c-0.1-0.1-0.2-0.2-0.3-0.4c-0.1-0.1-0.1-0.1-0.2-0.2c-0.1-0.1-0.2-0.2-0.3-0.3
	c-0.1-0.1-0.1-0.1-0.2-0.2c0,0,0,0-0.1-0.1c0.5-0.7,1.3-1.2,2.2-1.2h0.6c2.4,2.1,5.4,3.3,8.6,3.3c3.2,0,6.2-1.2,8.6-3.3h0.1
	c1.3,0,2.3,0.9,2.5,2.1l1.6,9.8C404.3,463.9,404.1,464.4,403.7,464.9L403.7,464.9z"/>
<path style="fill:#FFFFFF;" d="M340.4,450c5,0,9.1-4.1,9.1-9.1c0-5-4.1-9.1-9.1-9.1c-5,0-9.1,4.1-9.1,9.1
	C331.3,445.9,335.4,450,340.4,450z M340.4,434.5c3.5,0,6.4,2.9,6.4,6.4c0,3.5-2.9,6.4-6.4,6.4c-3.5,0-6.4-2.9-6.4-6.4
	C334,437.4,336.9,434.5,340.4,434.5z"/>
<g>
	<path style="fill:#84A8CA;" d="M498.9,402.8h103.7c9.5,0,17.1,7.7,17.1,17.1v137.9c0,9.5-7.7,17.1-17.1,17.1H498.9
		c-9.5,0-17.1-7.7-17.1-17.1V420C481.8,410.5,489.5,402.8,498.9,402.8z"/>
	<path style="fill:none;stroke:#FFFFFF;stroke-width:0.8568;" d="M498.9,403.3h103.7c9.2,0,16.7,7.5,16.7,16.7v137.9
		c0,9.2-7.5,16.7-16.7,16.7H498.9c-9.2,0-16.7-7.5-16.7-16.7V420C482.2,410.7,489.7,403.3,498.9,403.3z"/>
</g>
<g>
	<path style="fill:#4E6D8C;" d="M495.5,397.7h102.8c9.5,0,17.1,7.7,17.1,17.1v137.9c0,9.5-7.7,17.1-17.1,17.1H495.5
		c-9.5,0-17.1-7.7-17.1-17.1V414.8C478.4,405.4,486.1,397.7,495.5,397.7z"/>
	<path style="fill:none;stroke:#FFFFFF;stroke-width:0.8568;" d="M495.5,398.1h102.8c9.2,0,16.7,7.5,16.7,16.7v137.9
		c0,9.2-7.5,16.7-16.7,16.7H495.5c-9.2,0-16.7-7.5-16.7-16.7V414.8C478.8,405.6,486.3,398.1,495.5,398.1z"/>
</g>
<g>
	<path style="fill:#5D768F;" d="M491.2,392.6H594c9.5,0,17.1,7.7,17.1,17.1v137.9c0,9.5-7.7,17.1-17.1,17.1H491.2
		c-9.5,0-17.1-7.7-17.1-17.1V409.7C474.1,400.2,481.8,392.6,491.2,392.6z"/>
	<path style="fill:none;stroke:#FFFFFF;stroke-width:0.8568;" d="M491.2,393H594c9.2,0,16.7,7.5,16.7,16.7v137.9
		c0,9.2-7.5,16.7-16.7,16.7H491.2c-9.2,0-16.7-7.5-16.7-16.7V409.7C474.5,400.5,482,393,491.2,393z"/>
</g>
<linearGradient id="SVGID_00000111189709461015624930000014123778721301928895_" gradientUnits="userSpaceOnUse" x1="474.782" y1="418.657" x2="601.0742" y2="238.293" gradientTransform="matrix(1 0 0 -1 0 802)">
	<stop  offset="0" style="stop-color:#70829B"/>
	<stop  offset="1" style="stop-color:#1B2B4E"/>
</linearGradient>
<path style="fill:url(#SVGID_00000111189709461015624930000014123778721301928895_);" d="M486.1,387.4h103.7
	c9.5,0,17.1,7.7,17.1,17.1v137.9c0,9.5-7.7,17.1-17.1,17.1H486.1c-9.5,0-17.1-7.7-17.1-17.1V404.6
	C469,395.1,476.6,387.4,486.1,387.4z"/>
<path style="fill:#FFFFFF;" d="M525.3,483.7h-14.9c-2.1,0-3.7-1.7-3.7-3.7v-14.9c0-2.1,1.7-3.7,3.7-3.7h14.9c2.1,0,3.7,1.7,3.7,3.7
	V480C529,482.1,527.3,483.7,525.3,483.7z M510.4,463.9c-0.7,0-1.2,0.6-1.2,1.2V480c0,0.7,0.6,1.2,1.2,1.2h14.9
	c0.7,0,1.2-0.6,1.2-1.2v-14.9c0-0.7-0.6-1.2-1.2-1.2H510.4z"/>
<path style="fill:#FFFFFF;" d="M565,444h-14.9c-2.1,0-3.7-1.7-3.7-3.7v-14.9c0-2.1,1.7-3.7,3.7-3.7H565c2.1,0,3.7,1.7,3.7,3.7v14.9
	C568.7,442.4,567,444,565,444z M550.1,424.2c-0.7,0-1.2,0.6-1.2,1.2v14.9c0,0.7,0.6,1.2,1.2,1.2H565c0.7,0,1.2-0.6,1.2-1.2v-14.9
	c0-0.7-0.6-1.2-1.2-1.2H550.1z"/>
<path style="fill:#FFFFFF;" d="M532.7,473.8v-2.5c0,0,1,0,2-0.5c1.2-0.6,1.7-1.7,1.7-3.2v-29.8c0-2.5,1.1-4.4,3.2-5.5
	c1.5-0.7,2.9-0.8,3-0.8l0,2.5c0,0-1,0-2,0.5c-1.2,0.6-1.7,1.7-1.7,3.2v29.8c0,2.5-1.1,4.4-3.2,5.5
	C534.3,473.8,532.9,473.8,532.7,473.8L532.7,473.8z"/>
<path style="fill:#FFFFFF;" d="M493,513c-1.1,0-2.1-0.2-2.8-0.7c-0.8-0.5-1.4-1.2-1.8-2c-0.4-0.9-0.6-1.9-0.6-3c0-1.1,0.2-2.2,0.6-3
	c0.4-0.9,1-1.5,1.8-2c0.8-0.5,1.7-0.7,2.8-0.7c1.3,0,2.3,0.3,3.2,1c0.8,0.6,1.4,1.5,1.8,2.6l-1.6,0.4c-0.2-0.8-0.6-1.4-1.2-1.8
	c-0.6-0.4-1.3-0.7-2.1-0.7c-0.8,0-1.4,0.2-2,0.5c-0.5,0.4-0.9,0.9-1.2,1.5c-0.3,0.6-0.4,1.4-0.4,2.2c0,0.8,0.1,1.6,0.4,2.2
	c0.3,0.6,0.7,1.1,1.2,1.5c0.5,0.4,1.2,0.5,2,0.5c0.9,0,1.6-0.2,2.1-0.7c0.6-0.4,0.9-1.1,1.2-1.8l1.6,0.4c-0.3,1.1-0.9,2-1.8,2.6
	C495.4,512.7,494.3,513,493,513z M505.1,513c-1.1,0-2.1-0.2-2.8-0.7c-0.8-0.5-1.4-1.2-1.8-2c-0.4-0.9-0.6-1.9-0.6-3
	c0-1.1,0.2-2.2,0.6-3c0.4-0.9,1-1.5,1.8-2c0.8-0.5,1.7-0.7,2.8-0.7c1.1,0,2,0.2,2.8,0.7c0.8,0.5,1.4,1.2,1.8,2
	c0.4,0.9,0.6,1.9,0.6,3c0,1.1-0.2,2.2-0.6,3c-0.4,0.9-1,1.5-1.8,2C507.1,512.8,506.2,513,505.1,513z M505.1,511.5
	c0.8,0,1.4-0.2,2-0.5c0.5-0.4,0.9-0.9,1.2-1.5c0.3-0.6,0.4-1.4,0.4-2.2c0-0.8-0.1-1.6-0.4-2.2c-0.3-0.6-0.7-1.1-1.2-1.5
	c-0.5-0.4-1.2-0.5-2-0.5c-0.8,0-1.4,0.2-2,0.5c-0.5,0.4-0.9,0.9-1.2,1.5c-0.3,0.6-0.4,1.4-0.4,2.2c0,0.8,0.1,1.6,0.4,2.2
	c0.3,0.6,0.7,1.1,1.2,1.5C503.6,511.3,504.3,511.5,505.1,511.5z M512.6,512.8v-11.1h1.6l5.5,8.3v-8.3h1.6v11.1h-1.6l-5.5-8.3v8.3
	H512.6z M524.3,512.8v-11.1h1.6l5.5,8.3v-8.3h1.6v11.1h-1.6l-5.5-8.3v8.3H524.3z M536,512.8v-11.1h7.1v1.5h-5.5v3.1h4.6v1.5h-4.6
	v3.4h5.5v1.5H536z M549.9,513c-1.1,0-2.1-0.2-2.8-0.7c-0.8-0.5-1.4-1.2-1.8-2c-0.4-0.9-0.6-1.9-0.6-3c0-1.1,0.2-2.2,0.6-3
	c0.4-0.9,1-1.5,1.8-2c0.8-0.5,1.7-0.7,2.8-0.7c1.3,0,2.3,0.3,3.2,1c0.8,0.6,1.4,1.5,1.8,2.6l-1.6,0.4c-0.2-0.8-0.6-1.4-1.2-1.8
	c-0.5-0.4-1.3-0.7-2.1-0.7c-0.8,0-1.4,0.2-2,0.5c-0.5,0.4-0.9,0.9-1.2,1.5c-0.3,0.6-0.4,1.4-0.4,2.2c0,0.8,0.1,1.6,0.4,2.2
	c0.3,0.6,0.7,1.1,1.2,1.5c0.5,0.4,1.2,0.5,2,0.5c0.9,0,1.6-0.2,2.1-0.7c0.6-0.4,0.9-1.1,1.2-1.8l1.6,0.4c-0.3,1.1-0.9,2-1.8,2.6
	C552.2,512.7,551.2,513,549.9,513z M560.1,512.8v-9.6h-3.7v-1.5h9v1.5h-3.7v9.6H560.1z M572,513c-1.1,0-2.1-0.2-2.8-0.7
	c-0.8-0.5-1.4-1.2-1.8-2c-0.4-0.9-0.6-1.9-0.6-3c0-1.1,0.2-2.2,0.6-3c0.4-0.9,1-1.5,1.8-2c0.8-0.5,1.7-0.7,2.8-0.7
	c1.1,0,2,0.2,2.8,0.7c0.8,0.5,1.4,1.2,1.8,2c0.4,0.9,0.6,1.9,0.6,3c0,1.1-0.2,2.2-0.6,3c-0.4,0.9-1,1.5-1.8,2
	C574.1,512.8,573.1,513,572,513z M572,511.5c0.8,0,1.4-0.2,2-0.5c0.5-0.4,0.9-0.9,1.2-1.5c0.3-0.6,0.4-1.4,0.4-2.2
	c0-0.8-0.1-1.6-0.4-2.2c-0.3-0.6-0.7-1.1-1.2-1.5c-0.5-0.4-1.2-0.5-2-0.5c-0.8,0-1.4,0.2-2,0.5c-0.5,0.4-0.9,0.9-1.2,1.5
	c-0.3,0.6-0.4,1.4-0.4,2.2c0,0.8,0.1,1.6,0.4,2.2c0.3,0.6,0.7,1.1,1.2,1.5C570.6,511.3,571.2,511.5,572,511.5z M579.6,512.8v-11.1
	h4.5c0.1,0,0.2,0,0.4,0c0.2,0,0.3,0,0.5,0c0.6,0.1,1.1,0.3,1.5,0.6c0.4,0.3,0.7,0.7,0.9,1.2c0.2,0.5,0.3,1,0.3,1.6
	c0,0.9-0.2,1.6-0.7,2.3c-0.5,0.6-1.1,1-2,1.2l-0.7,0.1h-3.1v4H579.6z M586.1,512.8l-2.2-4.5l1.6-0.4l2.4,4.9H586.1z M581.2,507.3
	h2.8c0.1,0,0.2,0,0.3,0c0.1,0,0.2,0,0.4-0.1c0.3-0.1,0.6-0.2,0.8-0.4c0.2-0.2,0.3-0.5,0.4-0.7c0.1-0.3,0.1-0.5,0.1-0.8
	s0-0.5-0.1-0.8c-0.1-0.3-0.2-0.5-0.4-0.7c-0.2-0.2-0.5-0.4-0.8-0.4c-0.1,0-0.2-0.1-0.4-0.1c-0.1,0-0.2,0-0.3,0h-2.8V507.3z
	 M526.7,527.8v-11.1h1.6v5.2l4.6-5.2h2l-4.9,5.4l5.3,5.7h-2.1l-4.9-5.3v5.3H526.7z M537.3,527.8v-11.1h1.6v11.1H537.3z M544.8,527.8
	v-9.6h-3.7v-1.5h9v1.5h-3.7v9.6H544.8z"/>
<g>
	<path style="fill:#C75956;" d="M671.2,402.8h103.7c9.5,0,17.1,7.7,17.1,17.1v137.9c0,9.5-7.7,17.1-17.1,17.1H671.2
		c-9.5,0-17.1-7.7-17.1-17.1V420C654,410.5,661.7,402.8,671.2,402.8z"/>
	<path style="fill:none;stroke:#FFFFFF;stroke-width:0.8568;" d="M671.2,403.3h103.7c9.2,0,16.7,7.5,16.7,16.7v137.9
		c0,9.2-7.5,16.7-16.7,16.7H671.2c-9.2,0-16.7-7.5-16.7-16.7V420C654.5,410.7,661.9,403.3,671.2,403.3z"/>
</g>
<g>
	<path style="fill:#802F2C;" d="M667.7,397.7h102.8c9.5,0,17.1,7.7,17.1,17.1v137.9c0,9.5-7.7,17.1-17.1,17.1H667.7
		c-9.5,0-17.1-7.7-17.1-17.1V414.8C650.6,405.4,658.3,397.7,667.7,397.7z"/>
	<path style="fill:none;stroke:#FFFFFF;stroke-width:0.8568;" d="M667.7,398.1h102.8c9.2,0,16.7,7.5,16.7,16.7v137.9
		c0,9.2-7.5,16.7-16.7,16.7H667.7c-9.2,0-16.7-7.5-16.7-16.7V414.8C651,405.6,658.5,398.1,667.7,398.1z"/>
</g>
<g>
	<path style="fill:#9E5856;" d="M663.4,392.6h102.8c9.5,0,17.1,7.7,17.1,17.1v137.9c0,9.5-7.7,17.1-17.1,17.1H663.4
		c-9.5,0-17.1-7.7-17.1-17.1V409.7C646.3,400.2,654,392.6,663.4,392.6z"/>
	<path style="fill:none;stroke:#FFFFFF;stroke-width:0.8568;" d="M663.4,393h102.8c9.2,0,16.7,7.5,16.7,16.7v137.9
		c0,9.2-7.5,16.7-16.7,16.7H663.4c-9.2,0-16.7-7.5-16.7-16.7V409.7C646.7,400.5,654.2,393,663.4,393z"/>
</g>
<linearGradient id="SVGID_00000178900761826706221290000009233436700258937991_" gradientUnits="userSpaceOnUse" x1="647.0991" y1="418.7235" x2="773.1891" y2="238.2265" gradientTransform="matrix(1 0 0 -1 0 802)">
	<stop  offset="0" style="stop-color:#86514F"/>
	<stop  offset="1" style="stop-color:#5D0A06"/>
</linearGradient>
<path style="fill:url(#SVGID_00000178900761826706221290000009233436700258937991_);" d="M658.3,387.4H762c9.5,0,17.1,7.7,17.1,17.1
	v137.9c0,9.5-7.7,17.1-17.1,17.1H658.3c-9.5,0-17.1-7.7-17.1-17.1V404.6C641.2,395.1,648.8,387.4,658.3,387.4z"/>
<path style="fill-rule:evenodd;clip-rule:evenodd;fill:#FFFFFF;" d="M702.7,444.8h14.8c2,0,3.7-1.7,3.7-3.7v-14.8
	c0-2-1.7-3.7-3.7-3.7h-14.8c-2,0-3.7,1.7-3.7,3.7v14.8C699,443.1,700.7,444.8,702.7,444.8z M701.5,426.2c0-0.7,0.6-1.2,1.2-1.2h14.8
	c0.7,0,1.2,0.6,1.2,1.2v14.8c0,0.7-0.6,1.2-1.2,1.2h-14.8c-0.7,0-1.2-0.6-1.2-1.2V426.2z M702.6,484.2h14.8c2,0,3.7-1.7,3.7-3.7
	v-14.8c0-2-1.7-3.7-3.7-3.7h-14.8c-2,0-3.7,1.7-3.7,3.7v14.8C698.9,482.6,700.5,484.2,702.6,484.2z M701.4,465.7
	c0-0.7,0.6-1.2,1.2-1.2h14.8c0.7,0,1.2,0.6,1.2,1.2v14.8c0,0.7-0.6,1.2-1.2,1.2h-14.8c-0.7,0-1.2-0.6-1.2-1.2V465.7z M689.2,464.8
	L689.2,464.8l0-26.2c0-2.5,1.1-4.4,3.1-5.4c1.5-0.7,2.9-0.7,3-0.7l0,2.5c0,0-1,0-2,0.5c-1.2,0.6-1.7,1.6-1.7,3.2v0.3h0v29.2
	c0,1.5,0.6,2.6,1.7,3.2c1,0.5,2,0.5,2,0.5v2.5c-0.2,0-1.6,0-3-0.7c-2-1-3.1-2.9-3.1-5.4V464.8z M731,441.9L731,441.9l0-3.3
	c0-2.5-1.1-4.4-3.1-5.4c-1.5-0.7-2.9-0.7-3-0.7v2.5c0,0,1,0,2,0.5c1.2,0.6,1.7,1.6,1.7,3.2v29.2h0v0.3c0,1.5-0.6,2.6-1.7,3.2
	c-1,0.5-2,0.5-2,0.5l0,2.5c0.2,0,1.6,0,3-0.7c2-1,3.1-2.9,3.1-5.4V441.9z"/>
<path style="fill:#FFFFFF;" d="M663.2,512.8v-11.1h3.5c0.1,0,0.3,0,0.6,0c0.3,0,0.6,0,0.8,0.1c0.9,0.1,1.6,0.4,2.2,0.9
	c0.6,0.5,1,1.2,1.3,2c0.3,0.8,0.5,1.6,0.5,2.6c0,0.9-0.2,1.8-0.5,2.6c-0.3,0.8-0.8,1.4-1.3,2c-0.6,0.5-1.3,0.8-2.2,0.9
	c-0.3,0-0.5,0.1-0.8,0.1c-0.3,0-0.5,0-0.6,0H663.2z M664.8,511.3h1.8c0.2,0,0.4,0,0.6,0c0.2,0,0.5,0,0.6-0.1c0.6-0.1,1-0.4,1.4-0.7
	c0.4-0.4,0.6-0.9,0.8-1.4c0.2-0.6,0.2-1.2,0.2-1.8c0-0.7-0.1-1.3-0.3-1.8c-0.2-0.6-0.4-1-0.8-1.4c-0.4-0.4-0.8-0.6-1.4-0.7
	c-0.2,0-0.4-0.1-0.6-0.1c-0.2,0-0.4,0-0.6,0h-1.8V511.3z M673.5,512.8l3.6-11.1h2.3l3.6,11.1h-1.7l-3.3-10.1h0.4l-3.3,10.1H673.5z
	 M675.4,510.3v-1.5h5.8v1.5H675.4z M687.1,512.8v-9.6h-3.7v-1.5h9v1.5h-3.7v9.6H687.1z M693.3,512.8l3.6-11.1h2.3l3.6,11.1h-1.7
	l-3.3-10.1h0.4l-3.3,10.1H693.3z M695.2,510.3v-1.5h5.8v1.5H695.2z M713.5,513c-1.1,0-2.1-0.2-2.8-0.7c-0.8-0.5-1.4-1.2-1.8-2
	c-0.4-0.9-0.6-1.9-0.6-3c0-1.1,0.2-2.2,0.6-3c0.4-0.9,1-1.5,1.8-2c0.8-0.5,1.7-0.7,2.8-0.7c1.3,0,2.3,0.3,3.2,1
	c0.8,0.6,1.4,1.5,1.8,2.6l-1.6,0.4c-0.2-0.8-0.6-1.4-1.2-1.8c-0.5-0.4-1.3-0.7-2.1-0.7c-0.8,0-1.4,0.2-2,0.5
	c-0.5,0.4-0.9,0.9-1.2,1.5c-0.3,0.6-0.4,1.4-0.4,2.2c0,0.8,0.1,1.6,0.4,2.2c0.3,0.6,0.7,1.1,1.2,1.5c0.5,0.4,1.2,0.5,2,0.5
	c0.9,0,1.6-0.2,2.1-0.7c0.6-0.4,0.9-1.1,1.2-1.8l1.6,0.4c-0.3,1.1-0.9,2-1.8,2.6C715.8,512.7,714.8,513,713.5,513z M720.9,512.8
	v-11.1h1.6v4.8h5.6v-4.8h1.6v11.1h-1.6V508h-5.6v4.8H720.9z M731.8,512.8l3.6-11.1h2.3l3.6,11.1h-1.7l-3.3-10.1h0.4l-3.3,10.1H731.8
	z M733.7,510.3v-1.5h5.8v1.5H733.7z M743.7,512.8v-11.1h1.6v11.1H743.7z M748.4,512.8v-11.1h1.6l5.5,8.3v-8.3h1.6v11.1h-1.6
	l-5.5-8.3v8.3H748.4z M698.9,527.8v-11.1h1.6v5.2l4.6-5.2h2l-4.9,5.4l5.3,5.7h-2.1l-5-5.3v5.3H698.9z M709.5,527.8v-11.1h1.6v11.1
	H709.5z M717,527.8v-9.6h-3.7v-1.5h9v1.5h-3.7v9.6H717z"/>
<g>
	<path style="fill:#656565;" d="M843.4,402.8H947c9.5,0,17.1,7.7,17.1,17.1v137.9c0,9.5-7.7,17.1-17.1,17.1H843.4
		c-9.5,0-17.1-7.7-17.1-17.1V420C826.2,410.5,833.9,402.8,843.4,402.8z"/>
</g>
<g>
	<path style="fill:#8A8A8A;" d="M839.9,397.7h102.8c9.5,0,17.1,7.7,17.1,17.1v137.9c0,9.5-7.7,17.1-17.1,17.1H839.9
		c-9.5,0-17.1-7.7-17.1-17.1V414.8C822.8,405.4,830.5,397.7,839.9,397.7z"/>
</g>
<g>
	<path style="fill:#A0A0A0;" d="M835.7,392.6h102.8c9.5,0,17.1,7.7,17.1,17.1v137.9c0,9.5-7.7,17.1-17.1,17.1H835.7
		c-9.5,0-17.1-7.7-17.1-17.1V409.7C818.5,400.2,826.2,392.6,835.7,392.6z"/>
</g>
<g>
	<path style="fill:#FCFCFC;" d="M830.5,387.4h103.7c9.5,0,17.1,7.7,17.1,17.1v137.9c0,9.5-7.7,17.1-17.1,17.1H830.5
		c-9.5,0-17.1-7.7-17.1-17.1V404.6C813.4,395.1,821.1,387.4,830.5,387.4z"/>
</g>
<g>
	<path style="fill:#656565;" d="M1015.6,402.8h103.7c9.5,0,17.1,7.7,17.1,17.1v137.9c0,9.5-7.7,17.1-17.1,17.1h-103.7
		c-9.5,0-17.1-7.7-17.1-17.1V420C998.5,410.5,1006.1,402.8,1015.6,402.8z"/>
</g>
<g>
	<path style="fill:#8A8A8A;" d="M1012.2,397.7H1115c9.5,0,17.1,7.7,17.1,17.1v137.9c0,9.5-7.7,17.1-17.1,17.1h-102.8
		c-9.5,0-17.1-7.7-17.1-17.1V414.8C995,405.4,1002.7,397.7,1012.2,397.7z"/>
</g>
<g>
	<path style="fill:#A0A0A0;" d="M1007.9,392.6h102.8c9.5,0,17.1,7.7,17.1,17.1v137.9c0,9.5-7.7,17.1-17.1,17.1h-102.8
		c-9.5,0-17.1-7.7-17.1-17.1V409.7C990.7,400.2,998.4,392.6,1007.9,392.6z"/>
</g>
<g>
	<path style="fill:#FCFCFC;" d="M1002.7,387.4h103.7c9.5,0,17.1,7.7,17.1,17.1v137.9c0,9.5-7.7,17.1-17.1,17.1h-103.7
		c-9.5,0-17.1-7.7-17.1-17.1V404.6C985.6,395.1,993.3,387.4,1002.7,387.4z"/>
</g>
<g>
	<path style="fill:#656565;" d="M1187.8,402.8h103.7c9.5,0,17.1,7.7,17.1,17.1v137.9c0,9.5-7.7,17.1-17.1,17.1h-103.7
		c-9.5,0-17.1-7.7-17.1-17.1V420C1170.7,410.5,1178.3,402.8,1187.8,402.8z"/>
</g>
<g>
	<path style="fill:#8A8A8A;" d="M1184.4,397.7h102.8c9.5,0,17.1,7.7,17.1,17.1v137.9c0,9.5-7.7,17.1-17.1,17.1h-102.8
		c-9.5,0-17.1-7.7-17.1-17.1V414.8C1167.2,405.4,1174.9,397.7,1184.4,397.7z"/>
</g>
<g>
	<path style="fill:#A0A0A0;" d="M1180.1,392.6h102.8c9.5,0,17.1,7.7,17.1,17.1v137.9c0,9.5-7.7,17.1-17.1,17.1h-102.8
		c-9.5,0-17.1-7.7-17.1-17.1V409.7C1163,400.2,1170.6,392.6,1180.1,392.6z"/>
</g>
<g>
	<path style="fill:#FCFCFC;" d="M1175,387.4h103.7c9.5,0,17.1,7.7,17.1,17.1v137.9c0,9.5-7.7,17.1-17.1,17.1H1175
		c-9.5,0-17.1-7.7-17.1-17.1V404.6C1157.8,395.1,1165.5,387.4,1175,387.4z"/>
</g>
<path style="fill-rule:evenodd;clip-rule:evenodd;fill:#FFFFFF;" d="M290.7,354.9H271c-4.7,0-8.6,3.8-8.6,8.6V599
	c0,4.7,3.8,8.6,8.6,8.6h1146.4c4.7,0,8.6-3.8,8.6-8.6V363.4c0-4.7-3.8-8.6-8.6-8.6H457v0.9h960.5c4.3,0,7.7,3.5,7.7,7.7V599
	c0,4.3-3.5,7.7-7.7,7.7H271c-4.3,0-7.7-3.5-7.7-7.7V363.4c0-4.3,3.5-7.7,7.7-7.7h19.7V354.9z"/>
<path style="fill:#FFFFFF;" d="M311,362.1c-1.1,0-2-0.2-2.8-0.7c-0.8-0.5-1.4-1.1-1.8-2c-0.4-0.8-0.6-1.8-0.6-2.9
	c0-1.1,0.2-2.1,0.6-2.9c0.4-0.8,1-1.5,1.8-2c0.8-0.5,1.7-0.7,2.8-0.7c1.2,0,2.3,0.3,3.1,0.9c0.8,0.6,1.4,1.4,1.8,2.5l-2.1,0.6
	c-0.2-0.7-0.5-1.2-1-1.5c-0.5-0.4-1.1-0.5-1.8-0.5c-0.7,0-1.3,0.2-1.7,0.5c-0.5,0.3-0.8,0.7-1,1.3c-0.2,0.6-0.3,1.2-0.3,2
	s0.1,1.4,0.3,2c0.2,0.6,0.6,1,1,1.3c0.5,0.3,1,0.5,1.7,0.5c0.8,0,1.4-0.2,1.8-0.5c0.5-0.4,0.8-0.9,1-1.5l2.1,0.6
	c-0.3,1-0.9,1.9-1.8,2.5C313.3,361.8,312.2,362.1,311,362.1z M323.7,362.1c-1.1,0-2-0.2-2.8-0.7c-0.8-0.5-1.4-1.1-1.8-2
	c-0.4-0.8-0.6-1.8-0.6-2.9c0-1.1,0.2-2.1,0.6-2.9c0.4-0.8,1-1.5,1.8-2c0.8-0.5,1.7-0.7,2.8-0.7c1.1,0,2,0.2,2.8,0.7
	c0.8,0.5,1.4,1.1,1.8,2c0.4,0.8,0.6,1.8,0.6,2.9c0,1.1-0.2,2.1-0.6,2.9c-0.4,0.8-1,1.5-1.8,2C325.7,361.9,324.7,362.1,323.7,362.1z
	 M323.7,360.2c0.7,0,1.3-0.1,1.7-0.4c0.5-0.3,0.8-0.7,1-1.3c0.2-0.6,0.3-1.2,0.3-2s-0.1-1.4-0.3-2c-0.2-0.5-0.6-1-1-1.3
	c-0.5-0.3-1-0.5-1.7-0.5s-1.3,0.1-1.7,0.4c-0.5,0.3-0.8,0.7-1,1.3c-0.2,0.6-0.3,1.2-0.3,2s0.1,1.4,0.3,1.9c0.2,0.6,0.6,1,1,1.3
	C322.4,360,323,360.2,323.7,360.2z M331.9,361.9v-10.8h4.6c0.1,0,0.2,0,0.4,0c0.2,0,0.3,0,0.5,0c0.6,0.1,1.2,0.3,1.6,0.6
	c0.4,0.3,0.7,0.7,0.9,1.2c0.2,0.5,0.3,1,0.3,1.6c0,0.9-0.2,1.7-0.7,2.3c-0.5,0.6-1.2,1-2.1,1.2l-0.9,0.1h-2.5v3.7H331.9z
	 M337.9,361.9l-2.1-4.4l2.1-0.4l2.3,4.8H337.9z M333.9,356.3h2.4c0.1,0,0.2,0,0.3,0c0.1,0,0.2,0,0.3-0.1c0.3-0.1,0.5-0.2,0.6-0.4
	c0.1-0.2,0.3-0.4,0.3-0.6c0.1-0.2,0.1-0.4,0.1-0.6s0-0.4-0.1-0.6c-0.1-0.2-0.2-0.4-0.3-0.6c-0.1-0.2-0.4-0.3-0.6-0.4
	c-0.1,0-0.2,0-0.3-0.1s-0.2,0-0.3,0h-2.4V356.3z M343.4,361.9v-10.8h7v1.9h-5v2.3h4.1v1.9h-4.1v2.8h5v1.9H343.4z M362.2,362.1
	c-0.8,0-1.5-0.1-2.2-0.4c-0.6-0.3-1.2-0.7-1.6-1.2c-0.4-0.5-0.7-1.2-0.8-1.9l2.1-0.3c0.2,0.6,0.5,1.1,0.9,1.4s1,0.5,1.6,0.5
	c0.3,0,0.7-0.1,1-0.2s0.6-0.3,0.8-0.5c0.2-0.2,0.3-0.5,0.3-0.8c0-0.1,0-0.2-0.1-0.3c0-0.1-0.1-0.2-0.2-0.3c-0.1-0.1-0.2-0.2-0.3-0.3
	c-0.1-0.1-0.3-0.2-0.5-0.2l-2.8-0.8c-0.2-0.1-0.5-0.1-0.7-0.3c-0.3-0.1-0.5-0.3-0.8-0.5c-0.3-0.2-0.5-0.5-0.7-0.8
	c-0.2-0.3-0.3-0.8-0.3-1.3c0-0.7,0.2-1.3,0.5-1.8s0.9-0.8,1.5-1.1c0.6-0.2,1.3-0.4,2-0.3c0.7,0,1.4,0.1,2,0.4s1.1,0.6,1.5,1.1
	c0.4,0.5,0.7,1,0.9,1.7l-2.2,0.4c-0.1-0.4-0.2-0.6-0.4-0.9s-0.5-0.4-0.8-0.5c-0.3-0.1-0.6-0.2-0.9-0.2c-0.3,0-0.6,0-0.9,0.1
	c-0.3,0.1-0.5,0.2-0.7,0.4c-0.2,0.2-0.3,0.4-0.3,0.7c0,0.2,0.1,0.4,0.2,0.6c0.1,0.1,0.3,0.3,0.5,0.4c0.2,0.1,0.4,0.2,0.7,0.2
	l1.9,0.5c0.3,0.1,0.6,0.2,0.9,0.3c0.3,0.1,0.7,0.3,1,0.5c0.3,0.2,0.6,0.5,0.8,0.9c0.2,0.4,0.3,0.8,0.3,1.4c0,0.6-0.1,1.1-0.4,1.5
	c-0.2,0.4-0.6,0.8-1,1.1c-0.4,0.3-0.9,0.5-1.4,0.6C363.3,362,362.8,362.1,362.2,362.1z M369.7,361.9v-10.8h7v1.9h-5v2.3h4.1v1.9
	h-4.1v2.8h5v1.9H369.7z M380,361.9v-10.8h4.6c0.1,0,0.2,0,0.4,0c0.2,0,0.3,0,0.5,0c0.6,0.1,1.2,0.3,1.6,0.6c0.4,0.3,0.7,0.7,0.9,1.2
	c0.2,0.5,0.3,1,0.3,1.6c0,0.9-0.2,1.7-0.7,2.3c-0.5,0.6-1.2,1-2.1,1.2l-0.9,0.1H382v3.7H380z M386.1,361.9l-2.1-4.4l2.1-0.4l2.3,4.8
	H386.1z M382,356.3h2.4c0.1,0,0.2,0,0.3,0c0.1,0,0.2,0,0.3-0.1c0.3-0.1,0.5-0.2,0.6-0.4c0.1-0.2,0.3-0.4,0.3-0.6
	c0.1-0.2,0.1-0.4,0.1-0.6s0-0.4-0.1-0.6c-0.1-0.2-0.2-0.4-0.3-0.6c-0.1-0.2-0.4-0.3-0.6-0.4c-0.1,0-0.2,0-0.3-0.1s-0.2,0-0.3,0H382
	V356.3z M393.9,361.9l-3.3-10.8h2.1l2.7,8.9l2.7-8.9h2.1l-3.3,10.8H393.9z M402.9,361.9v-10.8h2v10.8H402.9z M413.3,362.1
	c-1.1,0-2-0.2-2.8-0.7c-0.8-0.5-1.4-1.1-1.8-2c-0.4-0.8-0.6-1.8-0.6-2.9c0-1.1,0.2-2.1,0.6-2.9c0.4-0.8,1-1.5,1.8-2
	c0.8-0.5,1.7-0.7,2.8-0.7c1.2,0,2.3,0.3,3.1,0.9c0.8,0.6,1.4,1.4,1.8,2.5l-2.1,0.6c-0.2-0.7-0.5-1.2-1-1.5c-0.5-0.4-1.1-0.5-1.8-0.5
	c-0.7,0-1.3,0.2-1.7,0.5c-0.5,0.3-0.8,0.7-1,1.3c-0.2,0.6-0.3,1.2-0.3,2s0.1,1.4,0.3,2c0.2,0.6,0.6,1,1,1.3c0.5,0.3,1,0.5,1.7,0.5
	c0.8,0,1.4-0.2,1.8-0.5c0.5-0.4,0.8-0.9,1-1.5l2.1,0.6c-0.3,1-0.9,1.9-1.8,2.5C415.6,361.8,414.6,362.1,413.3,362.1z M421.4,361.9
	v-10.8h7v1.9h-5v2.3h4.1v1.9h-4.1v2.8h5v1.9H421.4z M435.8,362.1c-0.8,0-1.5-0.1-2.2-0.4c-0.6-0.3-1.2-0.7-1.6-1.2
	c-0.4-0.5-0.7-1.2-0.8-1.9l2.1-0.3c0.1,0.6,0.5,1.1,0.9,1.4s1,0.5,1.6,0.5c0.3,0,0.7-0.1,1-0.2s0.6-0.3,0.8-0.5
	c0.2-0.2,0.3-0.5,0.3-0.8c0-0.1,0-0.2-0.1-0.3c0-0.1-0.1-0.2-0.2-0.3c-0.1-0.1-0.2-0.2-0.3-0.3c-0.1-0.1-0.3-0.2-0.5-0.2l-2.8-0.8
	c-0.2-0.1-0.5-0.1-0.7-0.3c-0.3-0.1-0.5-0.3-0.8-0.5c-0.3-0.2-0.5-0.5-0.7-0.8c-0.2-0.3-0.3-0.8-0.3-1.3c0-0.7,0.2-1.3,0.5-1.8
	c0.4-0.5,0.9-0.8,1.5-1.1c0.6-0.2,1.3-0.4,2-0.3c0.7,0,1.4,0.1,2,0.4c0.6,0.2,1.1,0.6,1.5,1.1c0.4,0.5,0.7,1,0.9,1.7l-2.2,0.4
	c-0.1-0.4-0.2-0.6-0.4-0.9c-0.2-0.2-0.5-0.4-0.8-0.5c-0.3-0.1-0.6-0.2-0.9-0.2c-0.3,0-0.6,0-0.9,0.1c-0.3,0.1-0.5,0.2-0.7,0.4
	c-0.2,0.2-0.3,0.4-0.3,0.7c0,0.2,0.1,0.4,0.2,0.6c0.1,0.1,0.3,0.3,0.5,0.4c0.2,0.1,0.4,0.2,0.7,0.2l1.9,0.5c0.3,0.1,0.6,0.2,0.9,0.3
	c0.3,0.1,0.7,0.3,1,0.5c0.3,0.2,0.6,0.5,0.8,0.9c0.2,0.4,0.3,0.8,0.3,1.4c0,0.6-0.1,1.1-0.4,1.5c-0.2,0.4-0.6,0.8-1,1.1
	c-0.4,0.3-0.9,0.5-1.4,0.6C436.8,362,436.3,362.1,435.8,362.1z"/>
<path style="fill-rule:evenodd;clip-rule:evenodd;fill:#FFFFFF;" d="M895.6,67.8h-24.8c-4.7,0-8.6,3.8-8.6,8.6V270
	c0,4.7,3.8,8.6,8.6,8.6h546.6c4.7,0,8.6-3.8,8.6-8.6V76.4c0-4.7-3.8-8.6-8.6-8.6h-318.7v0.9h318.7c4.3,0,7.7,3.5,7.7,7.7V270
	c0,4.3-3.5,7.7-7.7,7.7H870.8c-4.3,0-7.7-3.5-7.7-7.7V76.4c0-4.3,3.5-7.7,7.7-7.7h24.8V67.8z"/>
<path style="fill:#FFFFFF;" d="M910.4,74V63.2h4.6c0.1,0,0.2,0,0.4,0c0.2,0,0.3,0,0.5,0c0.6,0.1,1.2,0.3,1.6,0.6
	c0.4,0.3,0.7,0.7,0.9,1.2c0.2,0.5,0.3,1,0.3,1.6c0,0.9-0.2,1.7-0.7,2.3c-0.4,0.6-1.2,1-2.1,1.2l-0.9,0.1h-2.5V74H910.4z M916.5,74
	l-2.1-4.4l2.1-0.4l2.3,4.8H916.5z M912.4,68.4h2.4c0.1,0,0.2,0,0.3,0s0.2,0,0.3-0.1c0.3-0.1,0.5-0.2,0.6-0.4
	c0.2-0.2,0.3-0.4,0.3-0.6c0.1-0.2,0.1-0.4,0.1-0.6s0-0.4-0.1-0.6c-0.1-0.2-0.2-0.4-0.3-0.6c-0.2-0.2-0.4-0.3-0.6-0.4
	c-0.1,0-0.2-0.1-0.3-0.1c-0.1,0-0.2,0-0.3,0h-2.4V68.4z M921.9,74V63.2h7v1.9h-5v2.3h4.1v1.9H924v2.8h5V74H921.9z M936.3,74.2
	c-0.8,0-1.5-0.1-2.2-0.4c-0.6-0.3-1.2-0.7-1.6-1.2c-0.4-0.5-0.7-1.2-0.8-1.9l2.1-0.3c0.2,0.6,0.5,1.1,0.9,1.4c0.5,0.3,1,0.5,1.6,0.5
	c0.3,0,0.7-0.1,1-0.2c0.3-0.1,0.6-0.3,0.8-0.5c0.2-0.2,0.3-0.5,0.3-0.8c0-0.1,0-0.2-0.1-0.3c0-0.1-0.1-0.2-0.2-0.3
	c-0.1-0.1-0.2-0.2-0.3-0.3c-0.1-0.1-0.3-0.2-0.5-0.2l-2.8-0.8c-0.2-0.1-0.5-0.1-0.7-0.3c-0.3-0.1-0.5-0.3-0.8-0.5
	c-0.3-0.2-0.5-0.5-0.7-0.8c-0.2-0.3-0.3-0.8-0.3-1.3c0-0.7,0.2-1.3,0.5-1.8c0.4-0.5,0.9-0.8,1.5-1.1s1.3-0.3,2-0.3
	c0.7,0,1.4,0.1,2,0.4c0.6,0.2,1.1,0.6,1.5,1.1c0.4,0.5,0.7,1,0.9,1.7l-2.2,0.4c-0.1-0.3-0.2-0.6-0.4-0.9c-0.2-0.2-0.5-0.4-0.8-0.5
	c-0.3-0.1-0.6-0.2-0.9-0.2c-0.3,0-0.6,0-0.9,0.1c-0.3,0.1-0.5,0.2-0.7,0.4c-0.2,0.2-0.3,0.4-0.3,0.7c0,0.2,0.1,0.4,0.2,0.6
	c0.1,0.1,0.3,0.3,0.5,0.4c0.2,0.1,0.4,0.2,0.7,0.2l1.9,0.5c0.3,0.1,0.6,0.2,0.9,0.3c0.3,0.1,0.7,0.3,1,0.5c0.3,0.2,0.6,0.5,0.8,0.9
	c0.2,0.4,0.3,0.8,0.3,1.3c0,0.6-0.1,1.1-0.4,1.5c-0.2,0.4-0.6,0.8-1,1.1c-0.4,0.3-0.9,0.5-1.4,0.6C937.4,74.1,936.9,74.2,936.3,74.2
	z M943.9,74V63.2h2V74H943.9z M949.8,74V63.2h2v8.9h4.6V74H949.8z M959.4,74V63.2h2V74H959.4z M965.2,74V63.2h7.1v1.9h-5v2.3h4.1
	v1.9h-4.1v2.8h5V74H965.2z M975.5,74V63.2h2.1l4.7,7.2v-7.2h2.1V74h-2.1l-4.7-7.2V74H975.5z M992.5,74.2c-1.1,0-2-0.2-2.8-0.7
	c-0.8-0.5-1.4-1.1-1.8-2c-0.4-0.8-0.6-1.8-0.6-2.9c0-1.1,0.2-2.1,0.6-2.9c0.4-0.8,1-1.5,1.8-2c0.8-0.5,1.7-0.7,2.8-0.7
	c1.2,0,2.3,0.3,3.1,0.9c0.8,0.6,1.4,1.4,1.8,2.5l-2.1,0.6c-0.2-0.7-0.5-1.2-1-1.5c-0.5-0.4-1.1-0.5-1.8-0.5c-0.7,0-1.3,0.2-1.7,0.5
	c-0.5,0.3-0.8,0.7-1,1.3s-0.3,1.2-0.3,2s0.1,1.4,0.3,2s0.6,1,1,1.3c0.5,0.3,1,0.5,1.7,0.5c0.8,0,1.4-0.2,1.8-0.5
	c0.5-0.4,0.8-0.9,1-1.5l2.1,0.6c-0.3,1.1-0.9,1.9-1.8,2.5C994.8,73.9,993.8,74.2,992.5,74.2z M1002.7,74v-4.4l-3.7-6.4h2.4l2.3,4.1
	l2.3-4.1h2.4l-3.7,6.4V74H1002.7z M1014.9,74V63.2h3.5c0.1,0,0.3,0,0.5,0c0.3,0,0.5,0,0.8,0.1c0.9,0.1,1.6,0.4,2.2,0.9
	c0.6,0.5,1.1,1.1,1.4,1.9c0.3,0.8,0.5,1.6,0.5,2.5s-0.2,1.8-0.5,2.5c-0.3,0.8-0.8,1.4-1.4,1.9c-0.6,0.5-1.3,0.8-2.2,0.9
	c-0.2,0-0.5,0-0.8,0.1c-0.3,0-0.4,0-0.5,0H1014.9z M1016.9,72.1h1.4c0.1,0,0.3,0,0.5,0c0.2,0,0.4,0,0.6-0.1c0.5-0.1,0.9-0.3,1.1-0.7
	c0.3-0.3,0.5-0.8,0.7-1.2c0.1-0.5,0.2-1,0.2-1.5c0-0.5-0.1-1.1-0.2-1.5c-0.2-0.5-0.4-0.9-0.7-1.2c-0.3-0.3-0.7-0.5-1.1-0.6
	c-0.2,0-0.4-0.1-0.6-0.1c-0.2,0-0.4,0-0.5,0h-1.4V72.1z M1031.6,74.2c-1.1,0-2-0.2-2.8-0.7c-0.8-0.5-1.4-1.1-1.8-2
	c-0.4-0.8-0.6-1.8-0.6-2.9c0-1.1,0.2-2.1,0.6-2.9c0.4-0.8,1-1.5,1.8-2c0.8-0.5,1.7-0.7,2.8-0.7s2,0.2,2.8,0.7c0.8,0.5,1.4,1.1,1.8,2
	c0.4,0.8,0.6,1.8,0.6,2.9c0,1.1-0.2,2.1-0.6,2.9c-0.4,0.8-1,1.5-1.8,2C1033.6,74,1032.7,74.2,1031.6,74.2z M1031.6,72.3
	c0.7,0,1.2-0.1,1.7-0.4c0.5-0.3,0.8-0.7,1-1.3c0.2-0.6,0.3-1.2,0.3-2s-0.1-1.4-0.3-1.9c-0.2-0.6-0.6-1-1-1.3c-0.5-0.3-1-0.5-1.7-0.5
	c-0.7,0-1.3,0.1-1.7,0.4c-0.5,0.3-0.8,0.7-1,1.3c-0.2,0.6-0.3,1.2-0.3,2s0.1,1.4,0.3,2c0.2,0.5,0.6,1,1,1.3
	C1030.4,72.1,1030.9,72.3,1031.6,72.3z M1039.8,74V63.2h1.8l3.6,7.2l3.6-7.2h1.8V74h-1.9v-6.4l-3.1,6.4h-0.7l-3.1-6.4V74H1039.8z
	 M1053.4,74l3.3-10.8h3.1l3.3,10.8h-2.1l-2.9-9.5h0.4l-2.9,9.5H1053.4z M1055.4,71.7v-1.9h5.7v1.9H1055.4z M1066.1,74V63.2h2V74
	H1066.1z M1071.8,74V63.2h2.1l4.7,7.2v-7.2h2.1V74h-2.1l-4.7-7.2V74H1071.8z"/>
<g>
	<path style="fill:#656565;" d="M922.2,108.6h103.7c9.5,0,17.1,7.7,17.1,17.1v103.2c0,9.5-7.7,17.1-17.1,17.1H922.2
		c-9.5,0-17.1-7.7-17.1-17.1V125.7C905.1,116.3,912.7,108.6,922.2,108.6z"/>
</g>
<g>
	<path style="fill:#A0A0A0;" d="M918.8,104.5h102.8c9.5,0,17.1,7.7,17.1,17.1v103.2c0,9.5-7.7,17.1-17.1,17.1H918.8
		c-9.5,0-17.1-7.7-17.1-17.1V121.6C901.6,112.2,909.3,104.5,918.8,104.5z"/>
</g>
<g>
	<path style="fill:#FCFCFC;" d="M914.5,100.4h102.8c9.5,0,17.1,7.7,17.1,17.1v103.2c0,9.5-7.7,17.1-17.1,17.1H914.5
		c-9.5,0-17.1-7.7-17.1-17.1V117.5C897.4,108.1,905,100.4,914.5,100.4z"/>
</g>
<path d="M936.8,178.6v-11.1h3.5c0.1,0,0.3,0,0.6,0c0.3,0,0.6,0,0.8,0.1c0.9,0.1,1.6,0.4,2.2,0.9c0.6,0.5,1,1.2,1.3,2
	c0.3,0.8,0.5,1.7,0.5,2.6c0,0.9-0.2,1.8-0.5,2.6c-0.3,0.8-0.8,1.4-1.3,2c-0.6,0.5-1.3,0.8-2.2,0.9c-0.3,0-0.5,0.1-0.8,0.1
	c-0.3,0-0.5,0-0.6,0H936.8z M938.4,177.1h1.8c0.2,0,0.4,0,0.6,0s0.5,0,0.6-0.1c0.6-0.1,1-0.4,1.4-0.7c0.4-0.4,0.6-0.9,0.8-1.4
	c0.2-0.6,0.2-1.2,0.2-1.8c0-0.7-0.1-1.3-0.3-1.8c-0.2-0.6-0.4-1-0.8-1.4c-0.3-0.4-0.8-0.6-1.4-0.7c-0.2,0-0.4-0.1-0.6-0.1
	c-0.2,0-0.4,0-0.6,0h-1.8V177.1z M952.1,178.9c-1.1,0-2.1-0.2-2.8-0.7c-0.8-0.5-1.4-1.2-1.8-2c-0.4-0.9-0.6-1.9-0.6-3
	c0-1.1,0.2-2.2,0.6-3c0.4-0.9,1-1.5,1.8-2c0.8-0.5,1.7-0.7,2.8-0.7c1.3,0,2.3,0.3,3.2,1c0.8,0.6,1.4,1.5,1.8,2.6l-1.6,0.4
	c-0.2-0.8-0.6-1.4-1.2-1.8c-0.5-0.4-1.3-0.7-2.1-0.7c-0.8,0-1.4,0.2-2,0.5c-0.5,0.4-0.9,0.9-1.2,1.5c-0.3,0.6-0.4,1.4-0.4,2.2
	c0,0.8,0.1,1.6,0.4,2.2c0.3,0.6,0.7,1.1,1.2,1.5c0.5,0.4,1.2,0.5,2,0.5c0.9,0,1.6-0.2,2.1-0.7c0.6-0.4,0.9-1.1,1.2-1.8l1.6,0.4
	c-0.3,1.1-0.9,2-1.8,2.6C954.4,178.6,953.4,178.9,952.1,178.9z M958.7,178.6v-11.1h1.5l4,8.4l4-8.4h1.5v11.1h-1.5V171l-3.6,7.6h-0.7
	l-3.6-7.6v7.6H958.7z M974.9,178.6v-11.1h1.6v5.2l4.7-5.2h2l-4.9,5.4l5.3,5.7h-2.1l-5-5.3v5.3H974.9z M984.8,178.6v-11.1h1.6v11.1
	H984.8z M991.5,178.6v-9.6h-3.7v-1.5h9v1.5h-3.7v9.6H991.5z"/>
<g>
	<path style="fill:#656565;" d="M1097,108.6h103.7c9.5,0,17.1,7.7,17.1,17.1v103.2c0,9.5-7.7,17.1-17.1,17.1H1097
		c-9.5,0-17.1-7.7-17.1-17.1V125.7C1079.8,116.3,1087.5,108.6,1097,108.6z"/>
</g>
<g>
	<path style="fill:#A0A0A0;" d="M1093.6,104.5h102.8c9.5,0,17.1,7.7,17.1,17.1v103.2c0,9.5-7.7,17.1-17.1,17.1h-102.8
		c-9.5,0-17.1-7.7-17.1-17.1V121.6C1076.4,112.2,1084.1,104.5,1093.6,104.5z"/>
</g>
<g>
	<path style="fill:#FCFCFC;" d="M1089.3,100.4h102.8c9.5,0,17.1,7.7,17.1,17.1v103.2c0,9.5-7.7,17.1-17.1,17.1h-102.8
		c-9.5,0-17.1-7.7-17.1-17.1V117.5C1072.1,108.1,1079.8,100.4,1089.3,100.4z"/>
</g>
<path d="M1122.4,178.6l3.8-5.6l-3.7-5.5h2l2.7,4.1l2.7-4.1h2l-3.7,5.5l3.8,5.6h-2l-2.8-4.2l-2.8,4.2H1122.4z M1136.2,178.6v-11.1
	h1.6v5.2l4.7-5.2h2l-4.9,5.4l5.3,5.7h-2.1l-4.9-5.3v5.3H1136.2z M1146.1,178.6v-11.1h1.6v11.1H1146.1z M1152.8,178.6v-9.6h-3.7v-1.5
	h9v1.5h-3.7v9.6H1152.8z"/>
<g>
	<path style="fill:#656565;" d="M1270.9,108.6h103.7c9.5,0,17.1,7.7,17.1,17.1v103.2c0,9.5-7.7,17.1-17.1,17.1h-103.7
		c-9.5,0-17.1-7.7-17.1-17.1V125.7C1253.8,116.3,1261.5,108.6,1270.9,108.6z"/>
</g>
<g>
	<path style="fill:#A0A0A0;" d="M1267.5,104.5h102.8c9.5,0,17.1,7.7,17.1,17.1v103.2c0,9.5-7.7,17.1-17.1,17.1h-102.8
		c-9.5,0-17.1-7.7-17.1-17.1V121.6C1250.4,112.2,1258,104.5,1267.5,104.5z"/>
</g>
<g>
	<path style="fill:#FCFCFC;" d="M1263.2,100.4H1366c9.5,0,17.1,7.7,17.1,17.1v103.2c0,9.5-7.7,17.1-17.1,17.1h-102.8
		c-9.5,0-17.1-7.7-17.1-17.1V117.5C1246.1,108.1,1253.7,100.4,1263.2,100.4z"/>
</g>
<path d="M1296.3,178.6l3.8-5.6l-3.7-5.5h2l2.7,4.1l2.7-4.1h2l-3.7,5.5l3.8,5.6h-2l-2.8-4.2l-2.8,4.2H1296.3z M1310.2,178.6v-11.1
	h1.6v5.2l4.6-5.2h2l-4.9,5.4l5.3,5.7h-2.1l-4.9-5.3v5.3H1310.2z M1320.1,178.6v-11.1h1.6v11.1H1320.1z M1326.8,178.6v-9.6h-3.7v-1.5
	h9v1.5h-3.7v9.6H1326.8z"/>
<path style="fill-rule:evenodd;clip-rule:evenodd;fill:#FFFFFF;" d="M289,66.1h-18c-4.7,0-8.6,3.8-8.6,8.6v193.6
	c0,4.7,3.8,8.6,8.6,8.6H816c4.7,0,8.6-3.8,8.6-8.6V74.7c0-4.7-3.8-8.6-8.6-8.6H534.1V67H816c4.3,0,7.7,3.5,7.7,7.7v193.6
	c0,4.3-3.5,7.7-7.7,7.7H271c-4.3,0-7.7-3.5-7.7-7.7V74.7c0-4.3,3.5-7.7,7.7-7.7h18V66.1z"/>
<path style="fill:#FFFFFF;" d="M307.9,72.5c-0.8,0-1.5-0.1-2.2-0.4c-0.6-0.3-1.2-0.7-1.6-1.2c-0.4-0.5-0.7-1.2-0.8-1.9l2.1-0.3
	c0.1,0.6,0.5,1.1,0.9,1.4c0.5,0.3,1,0.5,1.6,0.5c0.3,0,0.7-0.1,1-0.2c0.3-0.1,0.6-0.3,0.8-0.5c0.2-0.2,0.3-0.5,0.3-0.8
	c0-0.1,0-0.2-0.1-0.3c0-0.1-0.1-0.2-0.2-0.3c-0.1-0.1-0.2-0.2-0.3-0.3c-0.1-0.1-0.3-0.2-0.5-0.2l-2.8-0.8c-0.2-0.1-0.5-0.1-0.7-0.3
	c-0.3-0.1-0.5-0.3-0.8-0.5s-0.5-0.5-0.7-0.8c-0.2-0.3-0.3-0.8-0.3-1.3c0-0.7,0.2-1.3,0.5-1.8c0.4-0.5,0.9-0.8,1.5-1.1
	c0.6-0.2,1.3-0.4,2-0.3c0.7,0,1.4,0.1,2,0.4c0.6,0.2,1.1,0.6,1.5,1.1c0.4,0.5,0.7,1,0.9,1.7l-2.2,0.4c-0.1-0.3-0.2-0.6-0.4-0.9
	c-0.2-0.2-0.5-0.4-0.8-0.5c-0.3-0.1-0.6-0.2-0.9-0.2c-0.3,0-0.6,0-0.9,0.1c-0.3,0.1-0.5,0.2-0.7,0.4c-0.2,0.2-0.3,0.4-0.3,0.7
	c0,0.2,0.1,0.4,0.2,0.6c0.1,0.1,0.3,0.3,0.5,0.4c0.2,0.1,0.4,0.2,0.7,0.2l1.9,0.5c0.3,0.1,0.6,0.2,0.9,0.3c0.3,0.1,0.7,0.3,1,0.5
	c0.3,0.2,0.6,0.5,0.8,0.9c0.2,0.4,0.3,0.8,0.3,1.3c0,0.6-0.1,1.1-0.4,1.5c-0.2,0.4-0.6,0.8-1,1.1c-0.4,0.3-0.9,0.5-1.4,0.6
	C308.9,72.4,308.4,72.5,307.9,72.5z M319.7,72.5c-0.9,0-1.6-0.2-2.3-0.5c-0.7-0.4-1.2-0.9-1.5-1.5s-0.6-1.4-0.6-2.3v-6.7l2.1,0v6.7
	c0,0.4,0.1,0.7,0.2,1s0.3,0.5,0.5,0.8c0.2,0.2,0.5,0.4,0.7,0.5c0.3,0.1,0.6,0.2,0.9,0.2c0.3,0,0.6-0.1,0.9-0.2
	c0.3-0.1,0.5-0.3,0.7-0.5s0.4-0.5,0.5-0.8c0.1-0.3,0.2-0.6,0.2-1v-6.7h2.1v6.8c0,0.9-0.2,1.6-0.6,2.3c-0.4,0.6-0.9,1.1-1.5,1.5
	C321.3,72.3,320.6,72.5,319.7,72.5z M331.3,72.5c-0.8,0-1.5-0.1-2.2-0.4c-0.6-0.3-1.2-0.7-1.6-1.2c-0.4-0.5-0.7-1.2-0.8-1.9l2.1-0.3
	c0.1,0.6,0.5,1.1,0.9,1.4c0.5,0.3,1,0.5,1.6,0.5c0.3,0,0.7-0.1,1-0.2c0.3-0.1,0.6-0.3,0.8-0.5c0.2-0.2,0.3-0.5,0.3-0.8
	c0-0.1,0-0.2-0.1-0.3c0-0.1-0.1-0.2-0.2-0.3c-0.1-0.1-0.2-0.2-0.3-0.3c-0.1-0.1-0.3-0.2-0.5-0.2l-2.8-0.8c-0.2-0.1-0.5-0.1-0.7-0.3
	c-0.3-0.1-0.5-0.3-0.8-0.5s-0.5-0.5-0.7-0.8c-0.2-0.3-0.3-0.8-0.3-1.3c0-0.7,0.2-1.3,0.5-1.8c0.4-0.5,0.9-0.8,1.5-1.1
	c0.6-0.2,1.3-0.4,2-0.3c0.7,0,1.4,0.1,2,0.4c0.6,0.2,1.1,0.6,1.5,1.1c0.4,0.5,0.7,1,0.9,1.7l-2.2,0.4c-0.1-0.3-0.2-0.6-0.4-0.9
	c-0.2-0.2-0.5-0.4-0.8-0.5c-0.3-0.1-0.6-0.2-0.9-0.2c-0.3,0-0.6,0-0.9,0.1c-0.3,0.1-0.5,0.2-0.7,0.4c-0.2,0.2-0.3,0.4-0.3,0.7
	c0,0.2,0.1,0.4,0.2,0.6c0.1,0.1,0.3,0.3,0.5,0.4c0.2,0.1,0.4,0.2,0.7,0.2l1.9,0.5c0.3,0.1,0.6,0.2,0.9,0.3c0.3,0.1,0.7,0.3,1,0.5
	c0.3,0.2,0.6,0.5,0.8,0.9c0.2,0.4,0.3,0.8,0.3,1.3c0,0.6-0.1,1.1-0.4,1.5c-0.2,0.4-0.6,0.8-1,1.1c-0.4,0.3-0.9,0.5-1.4,0.6
	C332.4,72.4,331.8,72.5,331.3,72.5z M341.3,72.3v-8.9h-3.4v-1.9h8.9v1.9h-3.4v8.9H341.3z M348.3,72.3l3.3-10.8h3l3.3,10.8h-2.1
	l-2.9-9.5h0.4l-2.9,9.5H348.3z M350.3,70v-1.9h5.7V70H350.3z M360.9,72.3V61.5h2v10.8H360.9z M366.7,72.3V61.5h2.1l4.7,7.2v-7.2h2.1
	v10.8h-2.1l-4.7-7.2v7.2H366.7z M378.3,72.3l3.3-10.8h3l3.3,10.8h-2.1l-2.9-9.5h0.4l-2.9,9.5H378.3z M380.3,70v-1.9h5.7V70H380.3z
	 M390.8,72.3V61.5h4.3c0.8,0,1.4,0.2,1.9,0.5c0.5,0.3,0.8,0.7,1,1.2s0.3,0.9,0.3,1.4c0,0.6-0.1,1.1-0.4,1.5
	c-0.3,0.4-0.6,0.7-1.1,0.8v-0.4c0.7,0.1,1.2,0.5,1.5,0.9c0.3,0.5,0.5,1,0.5,1.6c0,0.6-0.1,1.2-0.4,1.7c-0.2,0.5-0.6,0.9-1.1,1.2
	c-0.5,0.3-1.1,0.4-1.8,0.4H390.8z M392.9,70.3h2.5c0.3,0,0.5-0.1,0.7-0.2c0.2-0.1,0.4-0.3,0.5-0.5c0.1-0.2,0.2-0.5,0.2-0.8
	c0-0.3-0.1-0.5-0.2-0.7c-0.1-0.2-0.3-0.4-0.5-0.5c-0.2-0.1-0.5-0.2-0.8-0.2h-2.5V70.3z M392.9,65.7h2.2c0.2,0,0.4,0,0.6-0.1
	c0.2-0.1,0.3-0.2,0.4-0.4c0.1-0.2,0.2-0.4,0.2-0.7c0-0.3-0.1-0.6-0.3-0.8s-0.5-0.3-0.9-0.3h-2.2V65.7z M402,72.3V61.5h2v10.8H402z
	 M407.9,72.3V61.5h2v8.9h4.6v1.9H407.9z M417.5,72.3V61.5h2v10.8H417.5z M425.7,72.3v-8.9h-3.4v-1.9h8.9v1.9h-3.4v8.9H425.7z
	 M436.9,72.3v-4.4l-3.7-6.4h2.4l2.3,4.1l2.3-4.1h2.4l-3.7,6.4v4.4H436.9z M449.1,72.3V61.5h3.5c0.1,0,0.3,0,0.5,0
	c0.3,0,0.5,0,0.8,0.1c0.9,0.1,1.6,0.4,2.2,0.9s1.1,1.1,1.4,1.9c0.3,0.8,0.5,1.6,0.5,2.5c0,0.9-0.2,1.8-0.5,2.5
	c-0.3,0.8-0.8,1.4-1.4,1.9s-1.3,0.8-2.2,0.9c-0.2,0-0.5,0-0.8,0.1c-0.3,0-0.4,0-0.5,0H449.1z M451.2,70.3h1.4c0.1,0,0.3,0,0.5,0
	c0.2,0,0.4,0,0.6-0.1c0.5-0.1,0.9-0.3,1.1-0.7c0.3-0.3,0.5-0.8,0.7-1.2c0.1-0.5,0.2-1,0.2-1.5c0-0.5-0.1-1.1-0.2-1.5
	c-0.1-0.5-0.4-0.9-0.7-1.2c-0.3-0.3-0.7-0.5-1.1-0.6c-0.2,0-0.4-0.1-0.6-0.1c-0.2,0-0.4,0-0.5,0h-1.4V70.3z M465.8,72.5
	c-1.1,0-2-0.2-2.8-0.7c-0.8-0.5-1.4-1.1-1.8-2c-0.4-0.8-0.6-1.8-0.6-2.9c0-1.1,0.2-2.1,0.6-2.9c0.4-0.8,1-1.5,1.8-2
	c0.8-0.5,1.7-0.7,2.8-0.7c1.1,0,2,0.2,2.8,0.7c0.8,0.5,1.4,1.1,1.8,2c0.4,0.8,0.6,1.8,0.6,2.9c0,1.1-0.2,2.1-0.6,2.9
	c-0.4,0.8-1,1.5-1.8,2C467.8,72.3,466.9,72.5,465.8,72.5z M465.8,70.6c0.7,0,1.3-0.1,1.7-0.4c0.5-0.3,0.8-0.7,1-1.3
	c0.2-0.6,0.3-1.2,0.3-2s-0.1-1.4-0.3-1.9c-0.2-0.6-0.6-1-1-1.3c-0.5-0.3-1-0.5-1.7-0.5c-0.7,0-1.3,0.1-1.7,0.4
	c-0.5,0.3-0.8,0.7-1,1.3c-0.2,0.6-0.3,1.2-0.3,2s0.1,1.4,0.3,2c0.2,0.5,0.6,1,1,1.3C464.6,70.4,465.2,70.6,465.8,70.6z M474,72.3
	V61.5h1.8l3.6,7.2l3.6-7.2h1.8v10.8h-1.9v-6.4l-3.1,6.4h-0.7l-3.1-6.4v6.4H474z M487.7,72.3l3.3-10.8h3l3.3,10.8h-2.1l-2.9-9.5h0.4
	l-2.9,9.5H487.7z M489.6,70v-1.9h5.7V70H489.6z M500.3,72.3V61.5h2v10.8H500.3z M506,72.3V61.5h2.1l4.7,7.2v-7.2h2.1v10.8h-2.1
	l-4.7-7.2v7.2H506z"/>
<g>
	<path style="fill:#656565;" d="M321.6,106.9h103.7c9.5,0,17.1,7.7,17.1,17.1v103.2c0,9.5-7.7,17.1-17.1,17.1H321.6
		c-9.5,0-17.1-7.7-17.1-17.1V124C304.5,114.6,312.1,106.9,321.6,106.9z"/>
</g>
<g>
	<path style="fill:#A0A0A0;" d="M318.2,102.8H421c9.5,0,17.1,7.7,17.1,17.1v103.2c0,9.5-7.7,17.1-17.1,17.1H318.2
		c-9.5,0-17.1-7.7-17.1-17.1V119.9C301,110.5,308.7,102.8,318.2,102.8z"/>
</g>
<g>
	<path style="fill:#FCFCFC;" d="M313.9,98.7h102.8c9.5,0,17.1,7.7,17.1,17.1V219c0,9.5-7.7,17.1-17.1,17.1H313.9
		c-9.5,0-17.1-7.7-17.1-17.1V115.8C296.7,106.3,304.4,98.7,313.9,98.7z"/>
</g>
<path d="M339.2,176.9v-11.1h4.5c0.1,0,0.2,0,0.4,0c0.2,0,0.3,0,0.5,0c0.6,0.1,1.1,0.3,1.5,0.6c0.4,0.3,0.7,0.7,0.9,1.2
	c0.2,0.5,0.3,1,0.3,1.6c0,0.6-0.1,1.1-0.3,1.6c-0.2,0.5-0.5,0.9-0.9,1.2c-0.4,0.3-0.9,0.5-1.5,0.6c-0.1,0-0.3,0-0.5,0
	c-0.2,0-0.3,0-0.4,0h-2.9v4H339.2z M340.9,171.4h2.8c0.1,0,0.2,0,0.3,0c0.1,0,0.2,0,0.4-0.1c0.3-0.1,0.6-0.2,0.8-0.4
	c0.2-0.2,0.3-0.5,0.4-0.7c0.1-0.3,0.1-0.5,0.1-0.8c0-0.3,0-0.5-0.1-0.8c-0.1-0.3-0.2-0.5-0.4-0.7c-0.2-0.2-0.5-0.4-0.8-0.4
	c-0.1,0-0.2-0.1-0.4-0.1c-0.1,0-0.2,0-0.3,0h-2.8V171.4z M353.5,177.2c-1.1,0-2.1-0.2-2.8-0.7c-0.8-0.5-1.4-1.2-1.8-2
	c-0.4-0.9-0.6-1.9-0.6-3c0-1.1,0.2-2.2,0.6-3c0.4-0.9,1-1.5,1.8-2c0.8-0.5,1.7-0.7,2.8-0.7c1.3,0,2.3,0.3,3.2,1
	c0.8,0.6,1.4,1.5,1.8,2.6l-1.6,0.4c-0.2-0.8-0.6-1.4-1.2-1.8c-0.5-0.4-1.3-0.7-2.1-0.7c-0.8,0-1.4,0.2-2,0.5s-0.9,0.9-1.2,1.5
	c-0.3,0.6-0.4,1.4-0.4,2.2c0,0.8,0.1,1.6,0.4,2.2c0.3,0.6,0.7,1.1,1.2,1.5c0.5,0.4,1.2,0.5,2,0.5c0.9,0,1.6-0.2,2.1-0.7
	c0.6-0.4,0.9-1.1,1.2-1.8l1.6,0.4c-0.3,1.1-0.9,2-1.8,2.6C355.9,176.8,354.8,177.2,353.5,177.2z M360.2,176.9v-11.1h6.6v1.6h-5v3.1
	h4v1.6h-4v4.7H360.2z M371.2,176.9v-11.1h1.6v5.2l4.6-5.2h2l-4.9,5.4l5.3,5.7h-2.1l-4.9-5.3v5.3H371.2z M381.1,176.9v-11.1h1.6v11.1
	H381.1z M387.8,176.9v-9.6h-3.7v-1.5h9v1.5h-3.7v9.6H387.8z"/>
<g>
	<path style="fill:#656565;" d="M495.5,106.9h103.7c9.5,0,17.1,7.7,17.1,17.1v103.2c0,9.5-7.7,17.1-17.1,17.1H495.5
		c-9.5,0-17.1-7.7-17.1-17.1V124C478.4,114.6,486.1,106.9,495.5,106.9z"/>
</g>
<g>
	<path style="fill:#A0A0A0;" d="M492.1,102.8h102.8c9.5,0,17.1,7.7,17.1,17.1v103.2c0,9.5-7.7,17.1-17.1,17.1H492.1
		c-9.5,0-17.1-7.7-17.1-17.1V119.9C475,110.5,482.6,102.8,492.1,102.8z"/>
</g>
<g>
	<path style="fill:#FCFCFC;" d="M487.8,98.7h102.8c9.5,0,17.1,7.7,17.1,17.1V219c0,9.5-7.7,17.1-17.1,17.1H487.8
		c-9.5,0-17.1-7.7-17.1-17.1V115.8C470.7,106.3,478.3,98.7,487.8,98.7z"/>
</g>
<path d="M521.8,176.9l3.8-5.6l-3.7-5.5h2l2.7,4.1l2.7-4.1h2l-3.7,5.5l3.8,5.6h-2l-2.8-4.2l-2.8,4.2H521.8z M535.6,176.9v-11.1h1.6
	v5.2l4.6-5.2h2l-4.9,5.4l5.3,5.7h-2.1l-5-5.3v5.3H535.6z M545.5,176.9v-11.1h1.6v11.1H545.5z M552.2,176.9v-9.6h-3.7v-1.5h9v1.5
	h-3.7v9.6H552.2z"/>
<line style="fill:none;stroke:#AFC72D;stroke-width:2.5704;stroke-linecap:round;stroke-linejoin:round;stroke-miterlimit:16;stroke-dasharray:1.000000e-02,10.28;" x1="13.6" y1="508.7" x2="47.8" y2="508.7"/>
<path style="fill:none;stroke:#AFC72D;stroke-width:2.5704;stroke-linecap:round;stroke-linejoin:round;stroke-miterlimit:16;stroke-dasharray:1.000000e-02,10.28;" d="
	M2,1.9h956.2"/>
<line style="fill:none;stroke:#AFC72D;stroke-width:2.5704;stroke-linecap:round;stroke-linejoin:round;stroke-miterlimit:16;stroke-dasharray:1.000000e-02,10.28;" x1="201.2" y1="325.3" x2="711" y2="325.3"/>
<line style="fill:none;stroke:#AFC72D;stroke-width:2.5704;stroke-linecap:round;stroke-linejoin:round;stroke-miterlimit:16;stroke-dasharray:1.000000e-02,10.28;" x1="2.4" y1="508.7" x2="2.4" y2="13.4"/>
<path style="fill-rule:evenodd;clip-rule:evenodd;fill:#AFC72D;" d="M967.6,92.2c0,0.7,0.6,1.3,1.3,1.3c0.7,0,1.3-0.6,1.3-1.3v0
	c0-0.7-0.6-1.3-1.3-1.3C968.2,91,967.6,91.5,967.6,92.2L967.6,92.2z M967.6,82.3c0,0.7,0.6,1.3,1.3,1.3c0.7,0,1.3-0.6,1.3-1.3v0
	c0-0.7-0.6-1.3-1.3-1.3C968.2,81,967.6,81.5,967.6,82.3L967.6,82.3z M967.6,42.3c0,0.7,0.6,1.3,1.3,1.3c0.7,0,1.3-0.6,1.3-1.3v0
	c0-0.7-0.6-1.3-1.3-1.3C968.2,41,967.6,41.6,967.6,42.3L967.6,42.3z M967.6,32.3c0,0.7,0.6,1.3,1.3,1.3c0.7,0,1.3-0.6,1.3-1.3v0
	c0-0.7-0.6-1.3-1.3-1.3C968.2,31,967.6,31.6,967.6,32.3L967.6,32.3z M967.6,22.3c0,0.7,0.6,1.3,1.3,1.3c0.7,0,1.3-0.6,1.3-1.3v0
	c0-0.7-0.6-1.3-1.3-1.3C968.2,21,967.6,21.6,967.6,22.3L967.6,22.3z M967.6,12.3c0,0.7,0.6,1.3,1.3,1.3c0.7,0,1.3-0.6,1.3-1.3v0
	c0-0.7-0.6-1.3-1.3-1.3C968.2,11,967.6,11.6,967.6,12.3L967.6,12.3z M967.6,2.3c0,0.7,0.6,1.3,1.3,1.3c0.7,0,1.3-0.6,1.3-1.3v0
	c0-0.7-0.6-1.3-1.3-1.3C968.2,1,967.6,1.6,967.6,2.3L967.6,2.3z"/>
<path style="fill-rule:evenodd;clip-rule:evenodd;fill:#AFC72D;" d="M364,319.7c-0.7,0-1.3-0.6-1.3-1.3v0c0-0.7,0.6-1.3,1.3-1.3
	c0.7,0,1.3,0.6,1.3,1.3v0C365.3,319.2,364.7,319.7,364,319.7z M364,309.9c-0.7,0-1.3-0.6-1.3-1.3v0c0-0.7,0.6-1.3,1.3-1.3
	c0.7,0,1.3,0.6,1.3,1.3v0C365.3,309.4,364.7,309.9,364,309.9z M364,300.1c-0.7,0-1.3-0.6-1.3-1.3v0c0-0.7,0.6-1.3,1.3-1.3
	c0.7,0,1.3,0.6,1.3,1.3v0C365.3,299.6,364.7,300.1,364,300.1z M364,290.4c-0.7,0-1.3-0.6-1.3-1.3v0c0-0.7,0.6-1.3,1.3-1.3
	c0.7,0,1.3,0.6,1.3,1.3v0C365.3,289.8,364.7,290.4,364,290.4z M364,270.8c-0.7,0-1.3-0.6-1.3-1.3v0c0-0.7,0.6-1.3,1.3-1.3
	c0.7,0,1.3,0.6,1.3,1.3v0C365.3,270.2,364.7,270.8,364,270.8z M364,261c-0.7,0-1.3-0.6-1.3-1.3v0c0-0.7,0.6-1.3,1.3-1.3
	c0.7,0,1.3,0.6,1.3,1.3v0C365.3,260.4,364.7,261,364,261z M364,251.2c-0.7,0-1.3-0.6-1.3-1.3v0c0-0.7,0.6-1.3,1.3-1.3
	c0.7,0,1.3,0.6,1.3,1.3v0C365.3,250.6,364.7,251.2,364,251.2z"/>
<path style="fill-rule:evenodd;clip-rule:evenodd;fill:#AFC72D;" d="M537.9,377.9c-0.7,0-1.3-0.6-1.3-1.3v0c0-0.7,0.6-1.3,1.3-1.3
	c0.7,0,1.3,0.6,1.3,1.3v0C539.2,377.3,538.6,377.9,537.9,377.9z M537.9,367.1c-0.7,0-1.3-0.6-1.3-1.3v0c0-0.7,0.6-1.3,1.3-1.3
	c0.7,0,1.3,0.6,1.3,1.3v0C539.2,366.5,538.6,367.1,537.9,367.1z M537.9,345.5c-0.7,0-1.3-0.6-1.3-1.3v0c0-0.7,0.6-1.3,1.3-1.3
	c0.7,0,1.3,0.6,1.3,1.3v0C539.2,344.9,538.6,345.5,537.9,345.5z M537.9,334.7c-0.7,0-1.3-0.6-1.3-1.3v0c0-0.7,0.6-1.3,1.3-1.3
	c0.7,0,1.3,0.6,1.3,1.3v0C539.2,334.2,538.6,334.7,537.9,334.7z"/>
<path style="fill-rule:evenodd;clip-rule:evenodd;fill:#AFC72D;" d="M364,377.9c-0.7,0-1.3-0.6-1.3-1.3v0c0-0.7,0.6-1.3,1.3-1.3
	c0.7,0,1.3,0.6,1.3,1.3v0C365.3,377.3,364.7,377.9,364,377.9z M364,367.1c-0.7,0-1.3-0.6-1.3-1.3v0c0-0.7,0.6-1.3,1.3-1.3
	c0.7,0,1.3,0.6,1.3,1.3v0C365.3,366.5,364.7,367.1,364,367.1z M364,345.5c-0.7,0-1.3-0.6-1.3-1.3v0c0-0.7,0.6-1.3,1.3-1.3
	c0.7,0,1.3,0.6,1.3,1.3v0C365.3,344.9,364.7,345.5,364,345.5z M364,334.7c-0.7,0-1.3-0.6-1.3-1.3v0c0-0.7,0.6-1.3,1.3-1.3
	c0.7,0,1.3,0.6,1.3,1.3v0C365.3,334.2,364.7,334.7,364,334.7z"/>
<path style="fill-rule:evenodd;clip-rule:evenodd;fill:#AFC72D;" d="M711,377.9c-0.7,0-1.3-0.6-1.3-1.3v0c0-0.7,0.6-1.3,1.3-1.3
	c0.7,0,1.3,0.6,1.3,1.3v0C712.3,377.3,711.7,377.9,711,377.9z M711,367.1c-0.7,0-1.3-0.6-1.3-1.3v0c0-0.7,0.6-1.3,1.3-1.3
	c0.7,0,1.3,0.6,1.3,1.3v0C712.3,366.5,711.7,367.1,711,367.1z M711,345.5c-0.7,0-1.3-0.6-1.3-1.3v0c0-0.7,0.6-1.3,1.3-1.3
	c0.7,0,1.3,0.6,1.3,1.3v0C712.3,344.9,711.7,345.5,711,345.5z M711,334.7c-0.7,0-1.3-0.6-1.3-1.3v0c0-0.7,0.6-1.3,1.3-1.3
	c0.7,0,1.3,0.6,1.3,1.3v0C712.3,334.2,711.7,334.7,711,334.7z"/>
<path style="fill-rule:evenodd;clip-rule:evenodd;fill:#AFC72D;" d="M194.4,147.5c-0.7,0-1.3,0.6-1.3,1.3c0,0.7,0.6,1.3,1.3,1.3h0
	c0.7,0,1.3-0.6,1.3-1.3C195.6,148.1,195.1,147.5,194.4,147.5L194.4,147.5z M204.5,147.5c-0.7,0-1.3,0.6-1.3,1.3
	c0,0.7,0.6,1.3,1.3,1.3h0c0.7,0,1.3-0.6,1.3-1.3C205.8,148.1,205.3,147.5,204.5,147.5L204.5,147.5z M214.7,147.5
	c-0.7,0-1.3,0.6-1.3,1.3c0,0.7,0.6,1.3,1.3,1.3h0c0.7,0,1.3-0.6,1.3-1.3C216,148.1,215.4,147.5,214.7,147.5L214.7,147.5z
	 M224.9,147.5c-0.7,0-1.3,0.6-1.3,1.3c0,0.7,0.6,1.3,1.3,1.3h0c0.7,0,1.3-0.6,1.3-1.3C226.2,148.1,225.6,147.5,224.9,147.5
	L224.9,147.5z M235.1,147.5c-0.7,0-1.3,0.6-1.3,1.3c0,0.7,0.6,1.3,1.3,1.3h0c0.7,0,1.3-0.6,1.3-1.3
	C236.4,148.1,235.8,147.5,235.1,147.5L235.1,147.5z M245.3,147.5c-0.7,0-1.3,0.6-1.3,1.3c0,0.7,0.6,1.3,1.3,1.3h0
	c0.7,0,1.3-0.6,1.3-1.3C246.6,148.1,246,147.5,245.3,147.5L245.3,147.5z M255.5,147.5c-0.7,0-1.3,0.6-1.3,1.3c0,0.7,0.6,1.3,1.3,1.3
	h0c0.7,0,1.3-0.6,1.3-1.3C256.8,148.1,256.2,147.5,255.5,147.5L255.5,147.5z M275.8,147.5c-0.7,0-1.3,0.6-1.3,1.3
	c0,0.7,0.6,1.3,1.3,1.3h0c0.7,0,1.3-0.6,1.3-1.3C277.1,148.1,276.6,147.5,275.8,147.5L275.8,147.5z M286,147.5
	c-0.7,0-1.3,0.6-1.3,1.3c0,0.7,0.6,1.3,1.3,1.3h0c0.7,0,1.3-0.6,1.3-1.3C287.3,148.1,286.7,147.5,286,147.5L286,147.5z"/>
<line style="fill:none;stroke:#FFFFFF;stroke-width:1;stroke-miterlimit:4;" x1="318.5" y1="564" x2="319.5" y2="632.7"/>
<line style="fill:none;stroke:#FFFFFF;stroke-width:1;stroke-miterlimit:4;" x1="381.5" y1="568.6" x2="382.5" y2="676.7"/>
<line style="fill:none;stroke:#FFFFFF;stroke-width:1;stroke-miterlimit:4;" x1="438.5" y1="571.7" x2="439.5" y2="733"/>
<path style="fill:#FFFFFF;" d="M285.3,661l3.3-10.1h2.1l3.3,10.1h-1.5l-3-9.2h0.4l-3,9.2H285.3z M287,658.7v-1.4h5.3v1.4H287z
	 M298.9,661.2c-0.7,0-1.3-0.2-1.8-0.5c-0.5-0.3-0.9-0.8-1.2-1.4c-0.3-0.6-0.4-1.3-0.4-2c0-0.8,0.1-1.4,0.4-2
	c0.3-0.6,0.7-1.1,1.2-1.4c0.5-0.3,1.1-0.5,1.8-0.5c0.7,0,1.3,0.2,1.8,0.5c0.5,0.3,0.9,0.8,1.1,1.4c0.3,0.6,0.4,1.3,0.4,2
	c0,0.8-0.1,1.4-0.4,2c-0.3,0.6-0.6,1.1-1.1,1.4C300.2,661,299.6,661.2,298.9,661.2z M299.1,659.9c0.5,0,0.9-0.1,1.2-0.3
	c0.3-0.2,0.5-0.5,0.7-0.9c0.1-0.4,0.2-0.9,0.2-1.4s-0.1-1-0.2-1.4c-0.1-0.4-0.4-0.7-0.7-0.9c-0.3-0.2-0.7-0.3-1.1-0.3
	c-0.5,0-0.9,0.1-1.2,0.4c-0.3,0.2-0.5,0.6-0.7,1c-0.1,0.4-0.2,0.8-0.2,1.3c0,0.5,0.1,1,0.2,1.4c0.2,0.4,0.4,0.7,0.7,1
	C298.2,659.8,298.6,659.9,299.1,659.9z M301.2,661v-5.4H301v-4.6h1.5V661H301.2z M308.4,661.2c-0.8,0-1.4-0.2-2-0.5
	c-0.6-0.3-1-0.8-1.3-1.4c-0.3-0.6-0.4-1.3-0.4-2.1c0-0.8,0.2-1.5,0.5-2.1c0.3-0.6,0.7-1.1,1.3-1.4c0.6-0.3,1.2-0.5,1.9-0.5
	c0.8,0,1.4,0.2,2,0.5c0.6,0.3,1,0.8,1.3,1.4c0.3,0.6,0.5,1.3,0.5,2.1c0,0.8-0.2,1.5-0.5,2.1c-0.3,0.6-0.7,1.1-1.3,1.4
	C309.8,661,309.1,661.2,308.4,661.2z M308.4,659.8c0.7,0,1.3-0.2,1.6-0.7c0.4-0.5,0.5-1.1,0.5-1.9c0-0.8-0.2-1.4-0.5-1.9
	c-0.4-0.5-0.9-0.7-1.6-0.7c-0.5,0-0.9,0.1-1.2,0.3c-0.3,0.2-0.6,0.5-0.7,0.9c-0.2,0.4-0.2,0.8-0.2,1.4c0,0.8,0.2,1.4,0.5,1.9
	C307.2,659.6,307.7,659.8,308.4,659.8z M317.9,661.2c-0.7,0-1.3-0.2-1.8-0.5c-0.5-0.4-0.9-0.8-1.1-1.4c-0.3-0.6-0.4-1.3-0.4-2
	c0-0.8,0.1-1.4,0.4-2c0.3-0.6,0.6-1.1,1.1-1.4c0.5-0.3,1.1-0.5,1.8-0.5c0.7,0,1.3,0.2,1.8,0.5c0.5,0.3,0.9,0.8,1.2,1.4
	c0.3,0.6,0.4,1.3,0.4,2c0,0.8-0.1,1.4-0.4,2c-0.3,0.6-0.7,1.1-1.2,1.4C319.2,661,318.6,661.2,317.9,661.2z M314.3,664.4v-10.9h1.3
	v5.4h0.2v5.5H314.3z M317.7,659.9c0.5,0,0.9-0.1,1.2-0.4c0.3-0.2,0.5-0.6,0.7-1c0.2-0.4,0.2-0.9,0.2-1.4c0-0.5-0.1-0.9-0.2-1.3
	c-0.1-0.4-0.4-0.7-0.7-1c-0.3-0.2-0.7-0.4-1.2-0.4c-0.5,0-0.8,0.1-1.1,0.3c-0.3,0.2-0.5,0.5-0.7,0.9c-0.1,0.4-0.2,0.9-0.2,1.4
	s0.1,1,0.2,1.4c0.1,0.4,0.4,0.7,0.7,0.9C316.8,659.8,317.2,659.9,317.7,659.9z M327.9,661c-0.5,0.1-0.9,0.1-1.4,0.1
	c-0.5,0-0.9-0.1-1.2-0.3c-0.4-0.2-0.6-0.4-0.8-0.8c-0.2-0.3-0.3-0.6-0.3-1c0-0.3,0-0.7,0-1.1v-6.7h1.5v6.6c0,0.3,0,0.6,0,0.8
	c0,0.2,0.1,0.4,0.1,0.6c0.2,0.3,0.4,0.5,0.8,0.5c0.4,0,0.8,0,1.3,0V661z M322.7,654.6v-1.2h5.2v1.2H322.7z M330.3,652.2v-1.4h1.5
	v1.4H330.3z M330.3,661v-7.6h1.5v7.6H330.3z M337.9,661.2c-0.8,0-1.4-0.2-2-0.5c-0.6-0.3-1-0.8-1.3-1.4c-0.3-0.6-0.4-1.3-0.4-2.1
	c0-0.8,0.2-1.5,0.5-2.1c0.3-0.6,0.7-1.1,1.3-1.4c0.6-0.3,1.2-0.5,1.9-0.5c0.8,0,1.4,0.2,2,0.5c0.6,0.3,1,0.8,1.3,1.4
	c0.3,0.6,0.5,1.3,0.5,2.1c0,0.8-0.2,1.5-0.5,2.1c-0.3,0.6-0.7,1.1-1.3,1.4C339.3,661,338.6,661.2,337.9,661.2z M337.9,659.8
	c0.7,0,1.3-0.2,1.6-0.7c0.4-0.5,0.5-1.1,0.5-1.9c0-0.8-0.2-1.4-0.5-1.9c-0.4-0.5-0.9-0.7-1.6-0.7c-0.5,0-0.9,0.1-1.2,0.3
	c-0.3,0.2-0.6,0.5-0.7,0.9c-0.2,0.4-0.2,0.8-0.2,1.4c0,0.8,0.2,1.4,0.5,1.9C336.6,659.6,337.2,659.8,337.9,659.8z M349.1,661v-3.7
	c0-0.3,0-0.6-0.1-0.9c0-0.3-0.1-0.6-0.3-0.9c-0.1-0.3-0.3-0.5-0.6-0.6c-0.2-0.2-0.6-0.2-1-0.2c-0.3,0-0.5,0-0.7,0.1
	c-0.2,0.1-0.4,0.2-0.6,0.4c-0.2,0.2-0.3,0.4-0.4,0.8c-0.1,0.3-0.1,0.7-0.1,1.1l-0.9-0.3c0-0.7,0.1-1.3,0.4-1.8
	c0.3-0.5,0.6-0.9,1.1-1.2c0.5-0.3,1.1-0.4,1.7-0.4c0.5,0,1,0.1,1.3,0.3c0.4,0.2,0.6,0.4,0.9,0.7c0.2,0.3,0.4,0.6,0.5,0.9
	c0.1,0.3,0.2,0.6,0.2,0.9c0,0.3,0.1,0.6,0.1,0.8v4.2H349.1z M343.8,661v-7.6h1.3v2.2h0.2v5.4H343.8z M288.3,677l-3.3-10.1h1.5
	l2.8,8.6l2.8-8.6h1.5l-3.3,10.1H288.3z M295.4,668.2v-1.4h1.5v1.4H295.4z M295.4,677v-7.6h1.5v7.6H295.4z M303,677.2
	c-0.8,0-1.4-0.2-2-0.5c-0.6-0.3-1-0.8-1.3-1.4c-0.3-0.6-0.5-1.3-0.5-2.1c0-0.8,0.2-1.5,0.5-2.1c0.3-0.6,0.7-1.1,1.3-1.4
	c0.6-0.3,1.2-0.5,1.9-0.5c0.8,0,1.4,0.2,2,0.5c0.5,0.4,0.9,0.9,1.2,1.5c0.3,0.7,0.4,1.4,0.3,2.3h-1.5v-0.5c0-0.9-0.2-1.5-0.5-1.9
	c-0.3-0.4-0.8-0.6-1.5-0.6c-0.7,0-1.3,0.2-1.7,0.7c-0.4,0.5-0.6,1.1-0.6,2c0,0.8,0.2,1.5,0.6,1.9c0.4,0.5,0.9,0.7,1.6,0.7
	c0.5,0,0.9-0.1,1.2-0.3c0.3-0.2,0.6-0.5,0.8-0.9l1.4,0.5c-0.3,0.7-0.7,1.2-1.3,1.6C304.4,677,303.7,677.2,303,677.2z M300.3,673.6
	v-1.1h5.4v1.1H300.3z M310,677l-2.3-7.6l1.4,0l1.6,5.2l1.6-5.2h1.3l1.6,5.2l1.6-5.2h1.4l-2.3,7.6h-1.2l-1.8-5.5l-1.8,5.5H310z"/>
<path style="fill:#FFFFFF;" d="M350.6,705.2c-0.7,0-1.4-0.1-2-0.4c-0.6-0.3-1.1-0.6-1.4-1.1c-0.4-0.5-0.6-1-0.7-1.7l1.5-0.2
	c0.2,0.6,0.5,1.1,1,1.4c0.5,0.3,1.1,0.5,1.7,0.5c0.4,0,0.8-0.1,1.1-0.2c0.3-0.1,0.6-0.3,0.8-0.6c0.2-0.2,0.3-0.5,0.3-0.9
	c0-0.2,0-0.3-0.1-0.5c-0.1-0.1-0.1-0.3-0.3-0.4c-0.1-0.1-0.2-0.2-0.4-0.3c-0.2-0.1-0.3-0.1-0.5-0.2l-2.6-0.8
	c-0.3-0.1-0.5-0.2-0.8-0.3c-0.3-0.1-0.5-0.3-0.7-0.5c-0.2-0.2-0.4-0.4-0.5-0.7c-0.1-0.3-0.2-0.6-0.2-1.1c0-0.6,0.2-1.1,0.5-1.6
	c0.3-0.4,0.8-0.8,1.3-1c0.5-0.2,1.2-0.3,1.8-0.3c0.7,0,1.3,0.1,1.8,0.4c0.5,0.2,1,0.6,1.3,1c0.4,0.4,0.6,1,0.7,1.6l-1.6,0.3
	c-0.1-0.4-0.2-0.7-0.4-1c-0.2-0.3-0.5-0.5-0.8-0.6c-0.3-0.1-0.7-0.2-1.1-0.2c-0.4,0-0.7,0-1,0.2c-0.3,0.1-0.6,0.3-0.7,0.5
	c-0.2,0.2-0.3,0.5-0.3,0.8c0,0.3,0.1,0.5,0.2,0.7c0.2,0.2,0.4,0.3,0.6,0.4c0.2,0.1,0.5,0.2,0.7,0.2l1.9,0.5c0.2,0.1,0.5,0.2,0.8,0.3
	c0.3,0.1,0.6,0.3,0.9,0.5c0.3,0.2,0.5,0.5,0.7,0.8c0.2,0.3,0.3,0.7,0.3,1.2c0,0.5-0.1,1-0.3,1.3c-0.2,0.4-0.5,0.7-0.8,1
	c-0.4,0.3-0.8,0.5-1.2,0.6C351.6,705.1,351.2,705.2,350.6,705.2z M360,705.2c-0.8,0-1.4-0.2-2-0.5c-0.6-0.3-1-0.8-1.3-1.4
	c-0.3-0.6-0.4-1.3-0.4-2.1c0-0.8,0.2-1.5,0.5-2.1c0.3-0.6,0.7-1.1,1.3-1.4c0.6-0.3,1.2-0.5,1.9-0.5c0.8,0,1.4,0.2,2,0.5
	c0.6,0.3,1,0.8,1.3,1.4c0.3,0.6,0.5,1.3,0.5,2.1c0,0.8-0.2,1.5-0.5,2.1c-0.3,0.6-0.7,1.1-1.3,1.4C361.4,705,360.7,705.2,360,705.2z
	 M360,703.8c0.7,0,1.3-0.2,1.6-0.7c0.4-0.5,0.5-1.1,0.5-1.9c0-0.8-0.2-1.4-0.5-1.9c-0.4-0.5-0.9-0.7-1.6-0.7c-0.5,0-0.9,0.1-1.2,0.3
	c-0.3,0.2-0.6,0.5-0.7,0.9c-0.2,0.4-0.2,0.8-0.2,1.4c0,0.8,0.2,1.4,0.5,1.9C358.7,703.6,359.3,703.8,360,703.8z M366.6,705v-7.8
	c0-0.2,0-0.4,0-0.6c0-0.2,0.1-0.4,0.1-0.6c0.1-0.2,0.2-0.4,0.3-0.6c0.2-0.2,0.4-0.4,0.6-0.4s0.5-0.1,0.7-0.2c0.2,0,0.4,0,0.6,0h1
	v1.2h-0.9c-0.3,0-0.6,0.1-0.8,0.3c-0.2,0.2-0.3,0.4-0.3,0.7v8.1H366.6z M365.4,698.6v-1.2h4.6v1.2H365.4z M376.1,705
	c-0.5,0.1-0.9,0.1-1.4,0.1c-0.5,0-0.9-0.1-1.2-0.3c-0.4-0.2-0.6-0.4-0.8-0.8c-0.2-0.3-0.3-0.6-0.3-1c0-0.3,0-0.7,0-1.1v-6.7h1.5v6.6
	c0,0.3,0,0.6,0,0.8c0,0.2,0.1,0.4,0.1,0.6c0.2,0.3,0.4,0.5,0.8,0.5c0.4,0,0.8,0,1.3,0V705z M371,698.6v-1.2h5.2v1.2H371z M380,705
	l-2.3-7.6l1.4,0l1.6,5.2l1.6-5.2h1.3l1.6,5.2l1.6-5.2h1.4l-2.3,7.6h-1.2l-1.8-5.5l-1.8,5.5H380z M391.9,705.2c-0.6,0-1-0.1-1.4-0.3
	c-0.4-0.2-0.7-0.5-0.9-0.8c-0.2-0.3-0.3-0.7-0.3-1.1c0-0.4,0.1-0.7,0.2-1c0.1-0.3,0.3-0.5,0.6-0.7c0.3-0.2,0.6-0.4,1-0.5
	c0.3-0.1,0.7-0.2,1.1-0.3c0.4-0.1,0.9-0.1,1.3-0.2c0.5-0.1,0.9-0.1,1.4-0.2l-0.5,0.3c0-0.6-0.1-1-0.4-1.3c-0.3-0.3-0.7-0.4-1.3-0.4
	c-0.4,0-0.8,0.1-1.1,0.3c-0.3,0.2-0.6,0.5-0.7,0.9l-1.4-0.4c0.2-0.6,0.5-1.2,1.1-1.5c0.5-0.4,1.2-0.6,2.1-0.6c0.7,0,1.3,0.1,1.8,0.4
	c0.5,0.2,0.9,0.6,1.1,1.1c0.1,0.2,0.2,0.5,0.2,0.8c0,0.3,0,0.6,0,0.9v4.7h-1.3v-1.7l0.3,0.2c-0.3,0.6-0.7,1-1.2,1.3
	C393.2,705.1,392.6,705.2,391.9,705.2z M392.2,704c0.4,0,0.8-0.1,1.1-0.2c0.3-0.1,0.5-0.3,0.7-0.6s0.3-0.5,0.4-0.7
	c0.1-0.2,0.1-0.5,0.1-0.8c0-0.3,0-0.5,0-0.7l0.5,0.2c-0.5,0.1-0.9,0.1-1.3,0.2c-0.4,0.1-0.7,0.1-1,0.2c-0.3,0.1-0.6,0.1-0.8,0.2
	c-0.2,0.1-0.4,0.2-0.5,0.3c-0.2,0.1-0.3,0.2-0.4,0.4c-0.1,0.1-0.1,0.3-0.1,0.5c0,0.2,0,0.4,0.1,0.5c0.1,0.2,0.2,0.3,0.4,0.4
	C391.6,704,391.8,704,392.2,704z M398.4,705v-7.6h1.3v1.8l-0.2-0.2c0.1-0.2,0.2-0.5,0.4-0.7c0.1-0.2,0.3-0.4,0.5-0.5
	c0.2-0.1,0.4-0.2,0.6-0.3c0.2-0.1,0.5-0.1,0.7-0.1c0.2,0,0.5,0,0.7,0v1.4c-0.2-0.1-0.5-0.1-0.8-0.1c-0.3,0-0.6,0.1-0.8,0.3
	c-0.2,0.2-0.4,0.3-0.6,0.6c-0.1,0.2-0.2,0.5-0.3,0.7c-0.1,0.3-0.1,0.5-0.1,0.8v3.8H398.4z M407.8,705.2c-0.8,0-1.4-0.2-2-0.5
	c-0.6-0.3-1-0.8-1.3-1.4c-0.3-0.6-0.5-1.3-0.5-2.1c0-0.8,0.2-1.5,0.5-2.1c0.3-0.6,0.7-1.1,1.3-1.4c0.6-0.3,1.2-0.5,1.9-0.5
	c0.8,0,1.4,0.2,2,0.5c0.5,0.4,0.9,0.9,1.2,1.5c0.3,0.7,0.4,1.4,0.3,2.3h-1.5v-0.5c0-0.9-0.2-1.5-0.5-1.9c-0.3-0.4-0.8-0.6-1.5-0.6
	c-0.7,0-1.3,0.2-1.7,0.7c-0.4,0.5-0.6,1.1-0.6,2c0,0.8,0.2,1.5,0.6,1.9c0.4,0.5,0.9,0.7,1.6,0.7c0.5,0,0.9-0.1,1.2-0.3
	c0.3-0.2,0.6-0.5,0.8-0.9l1.4,0.5c-0.3,0.7-0.7,1.2-1.3,1.6C409.2,705,408.5,705.2,407.8,705.2z M405.1,701.6v-1.1h5.4v1.1H405.1z
	 M347,721v-10.1h3.2c0.1,0,0.3,0,0.5,0c0.3,0,0.5,0,0.7,0.1c0.8,0.1,1.5,0.4,2,0.8c0.5,0.5,1,1.1,1.2,1.8c0.3,0.7,0.4,1.5,0.4,2.4
	c0,0.9-0.1,1.6-0.4,2.4c-0.3,0.7-0.7,1.3-1.2,1.8c-0.5,0.5-1.2,0.7-2,0.8c-0.2,0-0.5,0.1-0.7,0.1c-0.3,0-0.4,0-0.5,0H347z
	 M348.5,719.6h1.7c0.2,0,0.3,0,0.6,0c0.2,0,0.4,0,0.6-0.1c0.5-0.1,0.9-0.3,1.2-0.7c0.3-0.4,0.6-0.8,0.7-1.3c0.1-0.5,0.2-1,0.2-1.6
	c0-0.6-0.1-1.1-0.2-1.6c-0.2-0.5-0.4-0.9-0.7-1.3c-0.3-0.3-0.7-0.6-1.2-0.7c-0.2,0-0.4-0.1-0.6-0.1c-0.2,0-0.4,0-0.6,0h-1.7V719.6z
	 M360.7,721.2c-0.8,0-1.4-0.2-2-0.5c-0.6-0.3-1-0.8-1.3-1.4c-0.3-0.6-0.5-1.3-0.5-2.1c0-0.8,0.2-1.5,0.5-2.1
	c0.3-0.6,0.7-1.1,1.3-1.4s1.2-0.5,1.9-0.5c0.8,0,1.4,0.2,2,0.5c0.5,0.4,0.9,0.9,1.2,1.5c0.3,0.7,0.4,1.4,0.3,2.3h-1.5v-0.5
	c0-0.9-0.2-1.5-0.5-1.9c-0.3-0.4-0.8-0.6-1.5-0.6c-0.7,0-1.3,0.2-1.7,0.7c-0.4,0.5-0.6,1.1-0.6,2c0,0.8,0.2,1.5,0.6,1.9
	c0.4,0.5,0.9,0.7,1.6,0.7c0.5,0,0.9-0.1,1.2-0.3c0.3-0.2,0.6-0.5,0.8-0.9l1.4,0.5c-0.3,0.7-0.7,1.2-1.3,1.6
	C362.1,721,361.4,721.2,360.7,721.2z M358,717.6v-1.1h5.4v1.1H358z M368.2,721l-2.7-7.6h1.5l2,5.7l2-5.7h1.5l-2.7,7.6H368.2z
	 M377.4,721.2c-0.8,0-1.4-0.2-2-0.5c-0.6-0.3-1-0.8-1.3-1.4c-0.3-0.6-0.5-1.3-0.5-2.1c0-0.8,0.2-1.5,0.5-2.1
	c0.3-0.6,0.7-1.1,1.3-1.4s1.2-0.5,1.9-0.5c0.8,0,1.4,0.2,2,0.5c0.5,0.4,0.9,0.9,1.2,1.5c0.3,0.7,0.4,1.4,0.3,2.3h-1.5v-0.5
	c0-0.9-0.2-1.5-0.5-1.9c-0.3-0.4-0.8-0.6-1.5-0.6c-0.7,0-1.3,0.2-1.7,0.7c-0.4,0.5-0.6,1.1-0.6,2c0,0.8,0.2,1.5,0.6,1.9
	c0.4,0.5,0.9,0.7,1.6,0.7c0.5,0,0.9-0.1,1.2-0.3c0.3-0.2,0.6-0.5,0.8-0.9l1.4,0.5c-0.3,0.7-0.7,1.2-1.3,1.6
	C378.8,721,378.2,721.2,377.4,721.2z M374.7,717.6v-1.1h5.4v1.1H374.7z M383.3,721v-10.3h1.5V721H383.3z M390.8,721.2
	c-0.8,0-1.4-0.2-2-0.5c-0.6-0.3-1-0.8-1.3-1.4c-0.3-0.6-0.4-1.3-0.4-2.1c0-0.8,0.2-1.5,0.5-2.1c0.3-0.6,0.7-1.1,1.3-1.4
	c0.6-0.3,1.2-0.5,1.9-0.5c0.8,0,1.4,0.2,2,0.5c0.6,0.3,1,0.8,1.3,1.4c0.3,0.6,0.5,1.3,0.5,2.1c0,0.8-0.2,1.5-0.5,2.1
	c-0.3,0.6-0.7,1.1-1.3,1.4C392.2,721,391.6,721.2,390.8,721.2z M390.8,719.8c0.7,0,1.3-0.2,1.6-0.7c0.4-0.5,0.5-1.1,0.5-1.9
	c0-0.8-0.2-1.4-0.5-1.9c-0.4-0.5-0.9-0.7-1.6-0.7c-0.5,0-0.9,0.1-1.2,0.3c-0.3,0.2-0.6,0.5-0.7,0.9c-0.2,0.4-0.2,0.8-0.2,1.4
	c0,0.8,0.2,1.4,0.5,1.9S390.1,719.8,390.8,719.8z M400.3,721.2c-0.7,0-1.3-0.2-1.8-0.5c-0.5-0.4-0.9-0.8-1.1-1.4
	c-0.3-0.6-0.4-1.3-0.4-2c0-0.8,0.1-1.4,0.4-2c0.3-0.6,0.6-1.1,1.1-1.4c0.5-0.3,1.1-0.5,1.8-0.5c0.7,0,1.3,0.2,1.8,0.5
	c0.5,0.3,0.9,0.8,1.2,1.4c0.3,0.6,0.4,1.3,0.4,2c0,0.8-0.1,1.4-0.4,2c-0.3,0.6-0.7,1.1-1.2,1.4C401.6,721,401,721.2,400.3,721.2z
	 M396.8,724.4v-10.9h1.3v5.4h0.2v5.5H396.8z M400.1,719.9c0.5,0,0.9-0.1,1.2-0.4c0.3-0.2,0.5-0.6,0.7-1c0.2-0.4,0.2-0.9,0.2-1.4
	c0-0.5-0.1-0.9-0.2-1.3c-0.2-0.4-0.4-0.7-0.7-1c-0.3-0.2-0.7-0.4-1.2-0.4c-0.5,0-0.8,0.1-1.1,0.3c-0.3,0.2-0.5,0.5-0.7,0.9
	c-0.1,0.4-0.2,0.9-0.2,1.4s0.1,1,0.2,1.4c0.1,0.4,0.4,0.7,0.7,0.9C399.2,719.8,399.6,719.9,400.1,719.9z M409.3,721.2
	c-0.8,0-1.4-0.2-2-0.5c-0.6-0.3-1-0.8-1.3-1.4c-0.3-0.6-0.5-1.3-0.5-2.1c0-0.8,0.2-1.5,0.5-2.1c0.3-0.6,0.7-1.1,1.3-1.4
	c0.6-0.3,1.2-0.5,1.9-0.5c0.8,0,1.4,0.2,2,0.5c0.5,0.4,0.9,0.9,1.2,1.5c0.3,0.7,0.4,1.4,0.3,2.3h-1.5v-0.5c0-0.9-0.2-1.5-0.5-1.9
	c-0.3-0.4-0.8-0.6-1.5-0.6c-0.7,0-1.3,0.2-1.7,0.7c-0.4,0.5-0.6,1.1-0.6,2c0,0.8,0.2,1.5,0.6,1.9c0.4,0.5,0.9,0.7,1.6,0.7
	c0.5,0,0.9-0.1,1.2-0.3c0.3-0.2,0.6-0.5,0.8-0.9l1.4,0.5c-0.3,0.7-0.7,1.2-1.3,1.6C410.7,721,410.1,721.2,409.3,721.2z M406.7,717.6
	v-1.1h5.4v1.1H406.7z M415,721v-7.6h1.3v1.8l-0.2-0.2c0.1-0.2,0.2-0.5,0.4-0.7c0.1-0.2,0.3-0.4,0.5-0.5c0.2-0.1,0.4-0.2,0.6-0.3
	c0.2-0.1,0.5-0.1,0.7-0.1c0.2,0,0.5,0,0.7,0v1.4c-0.2-0.1-0.5-0.1-0.8-0.1c-0.3,0-0.6,0.1-0.8,0.3c-0.2,0.2-0.4,0.3-0.6,0.6
	c-0.1,0.2-0.2,0.5-0.3,0.7c-0.1,0.3-0.1,0.5-0.1,0.8v3.8H415z M349.3,737l-3.3-10.1h1.5l2.8,8.6l2.8-8.6h1.5l-3.3,10.1H349.3z
	 M356.4,728.2v-1.4h1.5v1.4H356.4z M356.4,737v-7.6h1.5v7.6H356.4z M364,737.2c-0.8,0-1.4-0.2-2-0.5c-0.6-0.3-1-0.8-1.3-1.4
	c-0.3-0.6-0.5-1.3-0.5-2.1c0-0.8,0.2-1.5,0.5-2.1c0.3-0.6,0.7-1.1,1.3-1.4c0.6-0.3,1.2-0.5,1.9-0.5c0.8,0,1.4,0.2,2,0.5
	c0.5,0.4,0.9,0.9,1.2,1.5c0.3,0.7,0.4,1.4,0.3,2.3h-1.5v-0.5c0-0.9-0.2-1.5-0.5-1.9c-0.3-0.4-0.8-0.6-1.5-0.6
	c-0.7,0-1.3,0.2-1.7,0.7c-0.4,0.5-0.6,1.1-0.6,2c0,0.8,0.2,1.5,0.6,1.9c0.4,0.5,0.9,0.7,1.6,0.7c0.5,0,0.9-0.1,1.2-0.3
	c0.3-0.2,0.6-0.5,0.8-0.9l1.4,0.5c-0.3,0.7-0.7,1.2-1.3,1.6C365.4,737,364.7,737.2,364,737.2z M361.3,733.6v-1.1h5.4v1.1H361.3z
	 M371,737l-2.3-7.6l1.4,0l1.6,5.2l1.6-5.2h1.3l1.6,5.2l1.6-5.2h1.4l-2.3,7.6h-1.2l-1.8-5.5l-1.8,5.5H371z"/>
<path style="fill:#FFFFFF;" d="M403.6,761.2c-0.7,0-1.4-0.1-2-0.4c-0.6-0.3-1.1-0.6-1.4-1.1c-0.4-0.5-0.6-1-0.7-1.7l1.5-0.2
	c0.2,0.6,0.5,1.1,1,1.4c0.5,0.3,1.1,0.5,1.7,0.5c0.4,0,0.8-0.1,1.1-0.2c0.3-0.1,0.6-0.3,0.8-0.6c0.2-0.2,0.3-0.5,0.3-0.9
	c0-0.2,0-0.3-0.1-0.5c-0.1-0.1-0.1-0.3-0.3-0.4c-0.1-0.1-0.2-0.2-0.4-0.3c-0.2-0.1-0.3-0.1-0.5-0.2l-2.6-0.8
	c-0.3-0.1-0.5-0.2-0.8-0.3c-0.3-0.1-0.5-0.3-0.7-0.5c-0.2-0.2-0.4-0.4-0.5-0.7c-0.1-0.3-0.2-0.6-0.2-1.1c0-0.6,0.2-1.1,0.5-1.6
	c0.3-0.4,0.8-0.8,1.3-1c0.5-0.2,1.2-0.3,1.8-0.3c0.7,0,1.3,0.1,1.8,0.4c0.5,0.2,1,0.6,1.3,1c0.4,0.4,0.6,1,0.7,1.6l-1.6,0.3
	c-0.1-0.4-0.2-0.7-0.4-1c-0.2-0.3-0.5-0.5-0.8-0.6c-0.3-0.1-0.7-0.2-1.1-0.2c-0.4,0-0.7,0-1,0.2c-0.3,0.1-0.6,0.3-0.7,0.5
	c-0.2,0.2-0.3,0.5-0.3,0.8c0,0.3,0.1,0.5,0.2,0.7c0.2,0.2,0.4,0.3,0.6,0.4c0.2,0.1,0.5,0.2,0.7,0.2l1.9,0.5c0.2,0.1,0.5,0.2,0.8,0.3
	c0.3,0.1,0.6,0.3,0.9,0.5c0.3,0.2,0.5,0.5,0.7,0.8c0.2,0.3,0.3,0.7,0.3,1.2c0,0.5-0.1,1-0.3,1.3c-0.2,0.4-0.5,0.7-0.8,1
	c-0.4,0.3-0.8,0.5-1.2,0.6C404.6,761.1,404.2,761.2,403.6,761.2z M413,761.2c-0.8,0-1.4-0.2-2-0.5c-0.6-0.3-1-0.8-1.3-1.4
	c-0.3-0.6-0.4-1.3-0.4-2.1c0-0.8,0.2-1.5,0.5-2.1c0.3-0.6,0.7-1.1,1.3-1.4c0.6-0.3,1.2-0.5,1.9-0.5c0.8,0,1.4,0.2,2,0.5
	c0.6,0.3,1,0.8,1.3,1.4c0.3,0.6,0.5,1.3,0.5,2.1c0,0.8-0.2,1.5-0.5,2.1c-0.3,0.6-0.7,1.1-1.3,1.4C414.4,761,413.7,761.2,413,761.2z
	 M413,759.8c0.7,0,1.3-0.2,1.6-0.7c0.4-0.5,0.5-1.1,0.5-1.9c0-0.8-0.2-1.4-0.5-1.9c-0.4-0.5-0.9-0.7-1.6-0.7c-0.5,0-0.9,0.1-1.2,0.3
	c-0.3,0.2-0.6,0.5-0.7,0.9c-0.2,0.4-0.2,0.8-0.2,1.4c0,0.8,0.2,1.4,0.5,1.9C411.7,759.6,412.3,759.8,413,759.8z M419.6,761v-7.8
	c0-0.2,0-0.4,0-0.6c0-0.2,0.1-0.4,0.1-0.6c0.1-0.2,0.2-0.4,0.3-0.6c0.2-0.2,0.4-0.4,0.6-0.4s0.5-0.1,0.7-0.2c0.2,0,0.4,0,0.6,0h1
	v1.2h-0.9c-0.3,0-0.6,0.1-0.8,0.3c-0.2,0.2-0.3,0.4-0.3,0.7v8.1H419.6z M418.4,754.6v-1.2h4.6v1.2H418.4z M429.1,761
	c-0.5,0.1-0.9,0.1-1.4,0.1c-0.5,0-0.9-0.1-1.2-0.3c-0.4-0.2-0.6-0.4-0.8-0.8c-0.2-0.3-0.3-0.6-0.3-1c0-0.3,0-0.7,0-1.1v-6.7h1.5v6.6
	c0,0.3,0,0.6,0,0.8c0,0.2,0.1,0.4,0.1,0.6c0.2,0.3,0.4,0.5,0.8,0.5c0.4,0,0.8,0,1.3,0V761z M424,754.6v-1.2h5.2v1.2H424z M433,761
	l-2.3-7.6l1.4,0l1.6,5.2l1.6-5.2h1.3l1.6,5.2l1.6-5.2h1.4l-2.3,7.6h-1.2l-1.8-5.5l-1.8,5.5H433z M444.9,761.2c-0.6,0-1-0.1-1.4-0.3
	c-0.4-0.2-0.7-0.5-0.9-0.8c-0.2-0.3-0.3-0.7-0.3-1.1c0-0.4,0.1-0.7,0.2-1c0.1-0.3,0.3-0.5,0.6-0.7c0.3-0.2,0.6-0.4,1-0.5
	c0.3-0.1,0.7-0.2,1.1-0.3c0.4-0.1,0.9-0.1,1.3-0.2c0.5-0.1,0.9-0.1,1.4-0.2l-0.5,0.3c0-0.6-0.1-1-0.4-1.3c-0.3-0.3-0.7-0.4-1.3-0.4
	c-0.4,0-0.8,0.1-1.1,0.3c-0.3,0.2-0.6,0.5-0.7,0.9l-1.4-0.4c0.2-0.6,0.5-1.2,1.1-1.5c0.5-0.4,1.2-0.6,2.1-0.6c0.7,0,1.3,0.1,1.8,0.4
	c0.5,0.2,0.9,0.6,1.1,1.1c0.1,0.2,0.2,0.5,0.2,0.8c0,0.3,0,0.6,0,0.9v4.7h-1.3v-1.7l0.3,0.2c-0.3,0.6-0.7,1-1.2,1.3
	C446.2,761.1,445.6,761.2,444.9,761.2z M445.2,760c0.4,0,0.8-0.1,1.1-0.2c0.3-0.1,0.5-0.3,0.7-0.6s0.3-0.5,0.4-0.7
	c0.1-0.2,0.1-0.5,0.1-0.8c0-0.3,0-0.5,0-0.7l0.5,0.2c-0.5,0.1-0.9,0.1-1.3,0.2c-0.4,0.1-0.7,0.1-1,0.2c-0.3,0.1-0.6,0.1-0.8,0.2
	c-0.2,0.1-0.4,0.2-0.5,0.3c-0.2,0.1-0.3,0.2-0.4,0.4c-0.1,0.1-0.1,0.3-0.1,0.5c0,0.2,0,0.4,0.1,0.5c0.1,0.2,0.2,0.3,0.4,0.4
	C444.6,760,444.8,760,445.2,760z M451.4,761v-7.6h1.3v1.8l-0.2-0.2c0.1-0.2,0.2-0.5,0.4-0.7c0.1-0.2,0.3-0.4,0.5-0.5
	c0.2-0.1,0.4-0.2,0.6-0.3c0.2-0.1,0.5-0.1,0.7-0.1c0.2,0,0.5,0,0.7,0v1.4c-0.2-0.1-0.5-0.1-0.8-0.1c-0.3,0-0.6,0.1-0.8,0.3
	c-0.2,0.2-0.4,0.3-0.6,0.6c-0.1,0.2-0.2,0.5-0.3,0.7c-0.1,0.3-0.1,0.5-0.1,0.8v3.8H451.4z M460.8,761.2c-0.8,0-1.4-0.2-2-0.5
	c-0.6-0.3-1-0.8-1.3-1.4c-0.3-0.6-0.5-1.3-0.5-2.1c0-0.8,0.2-1.5,0.5-2.1c0.3-0.6,0.7-1.1,1.3-1.4c0.6-0.3,1.2-0.5,1.9-0.5
	c0.8,0,1.4,0.2,2,0.5c0.5,0.4,0.9,0.9,1.2,1.5c0.3,0.7,0.4,1.4,0.3,2.3h-1.5v-0.5c0-0.9-0.2-1.5-0.5-1.9c-0.3-0.4-0.8-0.6-1.5-0.6
	c-0.7,0-1.3,0.2-1.7,0.7c-0.4,0.5-0.6,1.1-0.6,2c0,0.8,0.2,1.5,0.6,1.9c0.4,0.5,0.9,0.7,1.6,0.7c0.5,0,0.9-0.1,1.2-0.3
	c0.3-0.2,0.6-0.5,0.8-0.9l1.4,0.5c-0.3,0.7-0.7,1.2-1.3,1.6C462.2,761,461.5,761.2,460.8,761.2z M458.1,757.6v-1.1h5.4v1.1H458.1z
	 M404.2,777.2c-1,0-1.9-0.2-2.6-0.7c-0.7-0.4-1.3-1.1-1.6-1.8c-0.4-0.8-0.6-1.7-0.6-2.7c0-1,0.2-2,0.6-2.7c0.4-0.8,0.9-1.4,1.6-1.8
	c0.7-0.4,1.6-0.7,2.6-0.7c1,0,1.9,0.2,2.6,0.7c0.7,0.4,1.3,1.1,1.6,1.8c0.4,0.8,0.6,1.7,0.6,2.7c0,1-0.2,2-0.6,2.7
	c-0.4,0.8-0.9,1.4-1.6,1.8C406,777,405.2,777.2,404.2,777.2z M404.2,775.8c0.7,0,1.3-0.1,1.8-0.5c0.5-0.3,0.8-0.8,1.1-1.4
	c0.2-0.6,0.4-1.3,0.4-2c0-0.8-0.1-1.4-0.4-2c-0.2-0.6-0.6-1-1.1-1.4c-0.5-0.3-1.1-0.5-1.8-0.5c-0.7,0-1.3,0.1-1.8,0.5
	c-0.5,0.3-0.8,0.8-1.1,1.4c-0.2,0.6-0.4,1.3-0.4,2c0,0.8,0.1,1.4,0.4,2c0.2,0.6,0.6,1,1.1,1.3C402.9,775.6,403.5,775.8,404.2,775.8z
	 M414.6,777.2c-0.7,0-1.3-0.2-1.8-0.5c-0.5-0.4-0.9-0.8-1.1-1.4c-0.3-0.6-0.4-1.3-0.4-2c0-0.8,0.1-1.4,0.4-2
	c0.3-0.6,0.6-1.1,1.1-1.4c0.5-0.3,1.1-0.5,1.8-0.5c0.7,0,1.3,0.2,1.8,0.5c0.5,0.3,0.9,0.8,1.2,1.4c0.3,0.6,0.4,1.3,0.4,2
	c0,0.8-0.1,1.4-0.4,2c-0.3,0.6-0.7,1.1-1.2,1.4C415.9,777,415.3,777.2,414.6,777.2z M411,780.4v-10.9h1.3v5.4h0.2v5.5H411z
	 M414.4,775.9c0.5,0,0.9-0.1,1.2-0.4c0.3-0.2,0.5-0.6,0.7-1c0.2-0.4,0.2-0.9,0.2-1.4c0-0.5-0.1-0.9-0.2-1.3c-0.1-0.4-0.4-0.7-0.7-1
	c-0.3-0.2-0.7-0.4-1.2-0.4c-0.5,0-0.8,0.1-1.1,0.3c-0.3,0.2-0.5,0.5-0.7,0.9c-0.1,0.4-0.2,0.9-0.2,1.4s0.1,1,0.2,1.4
	c0.1,0.4,0.4,0.7,0.7,0.9C413.5,775.8,413.9,775.9,414.4,775.9z M423.6,777.2c-0.8,0-1.4-0.2-2-0.5c-0.6-0.3-1-0.8-1.3-1.4
	c-0.3-0.6-0.5-1.3-0.5-2.1c0-0.8,0.2-1.5,0.5-2.1c0.3-0.6,0.7-1.1,1.3-1.4c0.6-0.3,1.2-0.5,1.9-0.5c0.8,0,1.4,0.2,2,0.5
	c0.5,0.4,0.9,0.9,1.2,1.5c0.3,0.7,0.4,1.4,0.3,2.3h-1.5v-0.5c0-0.9-0.2-1.5-0.5-1.9c-0.3-0.4-0.8-0.6-1.5-0.6
	c-0.7,0-1.3,0.2-1.7,0.7c-0.4,0.5-0.6,1.1-0.6,2c0,0.8,0.2,1.5,0.6,1.9c0.4,0.5,0.9,0.7,1.6,0.7c0.5,0,0.9-0.1,1.2-0.3
	c0.3-0.2,0.6-0.5,0.8-0.9l1.4,0.5c-0.3,0.7-0.7,1.2-1.3,1.6C425,777,424.3,777.2,423.6,777.2z M420.9,773.6v-1.1h5.4v1.1H420.9z
	 M429.3,777v-7.6h1.3v1.8l-0.2-0.2c0.1-0.2,0.2-0.5,0.4-0.7c0.1-0.2,0.3-0.4,0.5-0.5c0.2-0.1,0.4-0.2,0.6-0.3
	c0.2-0.1,0.5-0.1,0.7-0.1c0.2,0,0.5,0,0.7,0v1.4c-0.2-0.1-0.5-0.1-0.8-0.1c-0.3,0-0.6,0.1-0.8,0.3c-0.2,0.2-0.4,0.3-0.6,0.6
	c-0.1,0.2-0.2,0.5-0.3,0.7c-0.1,0.3-0.1,0.5-0.1,0.8v3.8H429.3z M437.4,777.2c-0.6,0-1-0.1-1.4-0.3c-0.4-0.2-0.7-0.5-0.9-0.8
	c-0.2-0.3-0.3-0.7-0.3-1.1c0-0.4,0.1-0.7,0.2-1c0.1-0.3,0.3-0.5,0.6-0.7c0.3-0.2,0.6-0.4,1-0.5c0.3-0.1,0.7-0.2,1.1-0.3
	c0.4-0.1,0.9-0.1,1.3-0.2c0.5-0.1,0.9-0.1,1.4-0.2l-0.5,0.3c0-0.6-0.1-1-0.4-1.3c-0.3-0.3-0.7-0.4-1.3-0.4c-0.4,0-0.8,0.1-1.1,0.3
	c-0.3,0.2-0.6,0.5-0.7,0.9l-1.4-0.4c0.2-0.6,0.5-1.2,1.1-1.5c0.5-0.4,1.2-0.6,2.1-0.6c0.7,0,1.3,0.1,1.8,0.4
	c0.5,0.2,0.9,0.6,1.1,1.1c0.1,0.2,0.2,0.5,0.2,0.8c0,0.3,0,0.6,0,0.9v4.7h-1.3v-1.7l0.3,0.2c-0.3,0.6-0.7,1-1.2,1.3
	C438.7,777.1,438.1,777.2,437.4,777.2z M437.6,776c0.4,0,0.8-0.1,1.1-0.2c0.3-0.1,0.5-0.3,0.7-0.6s0.3-0.5,0.4-0.7
	c0.1-0.2,0.1-0.5,0.1-0.8c0-0.3,0-0.5,0-0.7l0.5,0.2c-0.5,0.1-0.9,0.1-1.3,0.2c-0.4,0.1-0.7,0.1-1,0.2c-0.3,0.1-0.6,0.1-0.8,0.2
	c-0.2,0.1-0.4,0.2-0.5,0.3c-0.2,0.1-0.3,0.2-0.4,0.4c-0.1,0.1-0.1,0.3-0.1,0.5c0,0.2,0,0.4,0.1,0.5c0.1,0.2,0.2,0.3,0.4,0.4
	C437,776,437.3,776,437.6,776z M448.2,777c-0.5,0.1-0.9,0.1-1.4,0.1c-0.5,0-0.9-0.1-1.2-0.3c-0.4-0.2-0.6-0.4-0.8-0.8
	c-0.2-0.3-0.3-0.6-0.3-1c0-0.3,0-0.7,0-1.1v-6.7h1.5v6.6c0,0.3,0,0.6,0,0.8c0,0.2,0.1,0.4,0.1,0.6c0.2,0.3,0.4,0.5,0.8,0.5
	c0.4,0,0.8,0,1.3,0V777z M443.1,770.6v-1.2h5.2v1.2H443.1z M450.7,768.2v-1.4h1.5v1.4H450.7z M450.7,777v-7.6h1.5v7.6H450.7z
	 M458.2,777.2c-0.8,0-1.4-0.2-2-0.5c-0.6-0.3-1-0.8-1.3-1.4c-0.3-0.6-0.4-1.3-0.4-2.1c0-0.8,0.2-1.5,0.5-2.1
	c0.3-0.6,0.7-1.1,1.3-1.4c0.6-0.3,1.2-0.5,1.9-0.5c0.8,0,1.4,0.2,2,0.5c0.6,0.3,1,0.8,1.3,1.4s0.5,1.3,0.5,2.1
	c0,0.8-0.2,1.5-0.5,2.1c-0.3,0.6-0.7,1.1-1.3,1.4C459.6,777,459,777.2,458.2,777.2z M458.2,775.8c0.7,0,1.3-0.2,1.6-0.7
	c0.4-0.5,0.5-1.1,0.5-1.9c0-0.8-0.2-1.4-0.5-1.9c-0.4-0.5-0.9-0.7-1.6-0.7c-0.5,0-0.9,0.1-1.2,0.3c-0.3,0.2-0.6,0.5-0.7,0.9
	c-0.2,0.4-0.2,0.8-0.2,1.4c0,0.8,0.2,1.4,0.5,1.9S457.5,775.8,458.2,775.8z M469.5,777v-3.7c0-0.3,0-0.6-0.1-0.9
	c0-0.3-0.1-0.6-0.3-0.9c-0.1-0.3-0.3-0.5-0.6-0.6c-0.2-0.2-0.6-0.2-1-0.2c-0.3,0-0.5,0-0.7,0.1c-0.2,0.1-0.4,0.2-0.6,0.4
	c-0.2,0.2-0.3,0.4-0.4,0.8c-0.1,0.3-0.1,0.7-0.1,1.1l-0.9-0.3c0-0.7,0.1-1.3,0.4-1.8c0.3-0.5,0.6-0.9,1.1-1.2
	c0.5-0.3,1.1-0.4,1.7-0.4c0.5,0,1,0.1,1.3,0.3c0.4,0.2,0.6,0.4,0.9,0.7c0.2,0.3,0.4,0.6,0.5,0.9c0.1,0.3,0.2,0.6,0.2,0.9
	c0,0.3,0.1,0.6,0.1,0.8v4.2H469.5z M464.1,777v-7.6h1.3v2.2h0.2v5.4H464.1z M479.3,777l-3.3-10.1h1.5l2.8,8.6l2.8-8.6h1.5l-3.3,10.1
	H479.3z M486.3,768.2v-1.4h1.5v1.4H486.3z M486.3,777v-7.6h1.5v7.6H486.3z M494,777.2c-0.8,0-1.4-0.2-2-0.5c-0.6-0.3-1-0.8-1.3-1.4
	c-0.3-0.6-0.5-1.3-0.5-2.1c0-0.8,0.2-1.5,0.5-2.1c0.3-0.6,0.7-1.1,1.3-1.4c0.6-0.3,1.2-0.5,1.9-0.5c0.8,0,1.4,0.2,2,0.5
	c0.5,0.4,0.9,0.9,1.2,1.5c0.3,0.7,0.4,1.4,0.3,2.3h-1.5v-0.5c0-0.9-0.2-1.5-0.5-1.9c-0.3-0.4-0.8-0.6-1.5-0.6
	c-0.7,0-1.3,0.2-1.7,0.7c-0.4,0.5-0.6,1.1-0.6,2c0,0.8,0.2,1.5,0.6,1.9c0.4,0.5,0.9,0.7,1.6,0.7c0.5,0,0.9-0.1,1.2-0.3
	c0.3-0.2,0.6-0.5,0.8-0.9l1.4,0.5c-0.3,0.7-0.7,1.2-1.3,1.6C495.4,777,494.7,777.2,494,777.2z M491.3,773.6v-1.1h5.4v1.1H491.3z
	 M501,777l-2.3-7.6l1.4,0l1.6,5.2l1.6-5.2h1.3l1.6,5.2l1.6-5.2h1.4l-2.3,7.6h-1.2l-1.8-5.5l-1.8,5.5H501z"/>
</svg>
