<?xml version="1.0" encoding="utf-8"?>
<!-- Generator: Adobe Illustrator 28.2.0, SVG Export Plug-In . SVG Version: 6.00 Build 0)  -->
<svg version="1.1" id="Layer_1" xmlns="http://www.w3.org/2000/svg" xmlns:xlink="http://www.w3.org/1999/xlink" x="0px" y="0px"
	 viewBox="0 0 600 228.6" style="enable-background:new 0 0 600 228.6;" xml:space="preserve">
<style type="text/css">
	.st0{fill:#FFFFFF;}
</style>
<g>
	<path class="st0" d="M170.5,25c-1.9-0.6-3.7-1.3-5.6-1.9c-2.4-0.7-4.8-1.4-7.2-2c-1.9-0.5-3.8-0.9-5.8-1.2c-2.6-0.5-5.3-0.9-8-1.2
		c-2-0.3-3.9-0.4-5.9-0.5c-1.7-0.1-3.5-0.1-5.2-0.2c-1.2,0-2.3-0.1-3.5-0.1c-1.7,0.1-3.5,0.2-5.2,0.3c-0.8,0-1.6,0.1-2.4,0.2
		c-1.2,0.1-2.4,0.1-3.6,0.3c-1.2,0.1-2.3,0.3-3.5,0.5c-1.4,0.2-2.8,0.4-4.2,0.7c-1.2,0.2-2.3,0.5-3.4,0.7c-1.4,0.3-2.8,0.6-4.1,0.9
		c-1.4,0.3-2.7,0.8-4.1,1.2c-1.5,0.5-3,0.9-4.5,1.4c-2.3,0.8-4.6,1.7-6.9,2.6c-1,0.4-2,0.8-3,1.3c-2.5,1.2-5,2.3-7.4,3.7
		c-2.7,1.5-5.3,3.1-7.9,4.7c-1.7,1.1-3.3,2.2-4.9,3.4c-1.8,1.3-3.5,2.7-5.1,4.1c-2.1,1.8-4.2,3.7-6.2,5.7c-1.9,1.9-3.8,3.8-5.5,5.8
		c-2,2.3-3.9,4.6-5.7,7c-1.4,1.8-2.7,3.7-3.9,5.6c-1.1,1.6-2,3.4-3,5.1c-0.7,1.3-1.5,2.5-2.2,3.8c-0.9,1.8-1.8,3.6-2.6,5.4
		c-0.3,0.7-0.7,1.4-1,2.2c-0.8,2-1.6,3.9-2.4,6c-0.6,1.6-1.2,3.3-1.7,5c-0.7,2.7-1.4,5.4-2.1,8.1c-0.4,1.6-0.7,3.2-1,4.8
		c-0.3,1.7-0.5,3.4-0.7,5.1c-0.2,1.7-0.5,3.5-0.6,5.2c-0.1,1.1-0.2,2.3-0.2,3.4c-0.1,3.2-0.2,6.4-0.1,9.6c0.1,3,0.4,6,0.7,9
		c0.3,2.7,0.7,5.3,1.2,8c0.4,2.3,1,4.6,1.6,6.9c0.6,2.3,1.2,4.5,1.9,6.8c0.7,2.1,1.4,4.1,2.2,6.2c0.8,2.1,1.7,4.2,2.7,6.3
		c1.2,2.5,2.4,5,3.8,7.4c1.4,2.5,2.9,5,4.5,7.4c1.5,2.2,3.1,4.4,4.7,6.5c0.8,1.1,1.6,2.1,2.4,3.2c1.5,1.7,3,3.4,4.5,5.1
		c0.9,1,1.8,2,2.8,2.9c1.6,1.5,3.2,3,4.8,4.5c0.9,0.9,1.9,1.7,2.9,2.5c0.7,0.6,1.5,1.2,2.2,1.9c-26.3-14.3-44.5-35.5-53.6-64.1
		c-9-28.5-6.9-56.4,6.8-83c14.5-28.2,37.3-46.8,67.8-55.5c30.4-8.6,59.3-4.3,86.6,11.4C170.5,24.9,170.5,24.9,170.5,25z"/>
	<g>
		<path class="st0" d="M117,176.4l-8.3,8.3c-4.8,4.8-12.7,4.8-17.5,0l-18.6-18.6c-4.8-4.8-4.8-12.7,0-17.5L83,138.1l24.2,24.2h23.9
			l0,0L83,114.2l-22.4,22.4c-11.4,11.4-11.4,30.1,0,41.5l18.6,18.6c11.4,11.4,30.1,11.4,41.5,0l8.3-8.3L117,176.4z"/>
		<path class="st0" d="M120.7,55.6c-11.4-11.4-30.1-11.4-41.5,0L60.6,74.3c-11.4,11.4-11.4,30.1,0,41.5l8.3,8.3l12-12l-8.3-8.3
			c-4.8-4.8-4.8-12.7,0-17.5l18.6-18.6c4.8-4.8,12.7-4.8,17.5,0L119.1,78l-24.2,24.2v24L143.1,78L120.7,55.6z"/>
		<path class="st0" d="M201.6,74.3L183,55.6c-11.4-11.4-30.1-11.4-41.5,0l-8.3,8.3l12,12l8.3-8.3c4.8-4.8,12.7-4.8,17.5,0l18.6,18.6
			c4.8,4.8,4.8,12.7,0,17.5l-10.4,10.4L155.1,90h-24l48.1,48.1l22.4-22.4C213.1,104.3,213.1,85.7,201.6,74.3z"/>
		<path class="st0" d="M201.6,136.5l-8.3-8.3l-12,12l8.3,8.3c4.8,4.8,4.8,12.7,0,17.5L171,184.7c-4.8,4.8-12.7,4.8-17.5,0
			l-10.4-10.4l24.2-24.2v-24l-48.1,48.1l22.4,22.4c11.4,11.4,30.1,11.4,41.5,0l18.6-18.6C213,166.6,213,148,201.6,136.5z"/>
	</g>
</g>
<g>
	<g>
		<path class="st0" d="M236.6,103.5V78.9h18.8v4.3h-13.5v5h10.7v4.3h-10.7v6.8h13.5v4.3H236.6z"/>
		<path class="st0" d="M273.7,104c-2,0-3.9-0.3-5.7-1c-1.8-0.7-3.3-1.6-4.7-2.8c-1.3-1.2-2.4-2.5-3.2-4.1c-0.8-1.5-1.1-3.2-1.1-5
			c0-1.8,0.4-3.4,1.1-5c0.8-1.5,1.8-2.9,3.2-4.1c1.3-1.2,2.9-2.1,4.7-2.7c1.8-0.7,3.7-1,5.7-1c2.4,0,4.6,0.5,6.7,1.4
			c2,0.9,3.7,2.1,5.1,3.7l-4.7,2.1c-0.8-0.9-1.9-1.5-3.1-2.1c-1.2-0.5-2.6-0.8-4-0.8c-1.3,0-2.5,0.2-3.7,0.7c-1.2,0.4-2.2,1-3,1.8
			c-0.9,0.8-1.5,1.7-2,2.7c-0.5,1-0.7,2.1-0.7,3.3c0,1.2,0.2,2.3,0.7,3.3c0.5,1,1.2,1.9,2,2.7c0.9,0.8,1.9,1.4,3,1.8
			c1.1,0.4,2.4,0.7,3.7,0.7c1.4,0,2.8-0.3,4-0.8c1.2-0.5,2.3-1.2,3.1-2.1l4.7,2.1c-1.3,1.5-3,2.8-5.1,3.7
			C278.4,103.5,276.1,104,273.7,104z"/>
		<path class="st0" d="M289.5,103.5V78.9h5.2v20.3h12.5v4.3H289.5z"/>
		<path class="st0" d="M312.5,103.5V78.9h5.2v24.6H312.5z"/>
		<path class="st0" d="M323.5,103.5V78.9h10.7c1.6,0,3.1,0.3,4.4,1c1.3,0.7,2.4,1.6,3.1,2.7c0.8,1.1,1.2,2.4,1.2,3.7
			c0,1.4-0.4,2.6-1.2,3.8c-0.8,1.1-1.8,2-3.2,2.7c-1.3,0.7-2.8,1-4.3,1h-5.5v9.8H323.5z M328.7,89.4h4.9c0.7,0,1.4-0.2,2-0.5
			c0.6-0.3,1.1-0.7,1.5-1.2c0.4-0.5,0.5-1.1,0.5-1.7c0-0.6-0.2-1.2-0.5-1.7c-0.4-0.5-0.9-0.9-1.5-1.2c-0.6-0.3-1.3-0.5-2-0.5h-4.9
			V89.4z"/>
		<path class="st0" d="M357.9,104c-1.7,0-3.2-0.2-4.8-0.6c-1.5-0.4-2.8-1-4-1.8c-1.1-0.8-2-1.8-2.5-2.9l4.9-1.5
			c0.2,0.5,0.6,0.9,1.2,1.3c0.6,0.4,1.4,0.7,2.2,0.9c0.9,0.2,1.8,0.4,2.8,0.4c1,0,2-0.1,2.9-0.4c0.9-0.3,1.6-0.6,2.2-1.1
			c0.6-0.5,0.8-1,0.8-1.7c0-0.6-0.3-1.2-0.9-1.6c-0.6-0.4-1.3-0.7-2.2-1c-0.9-0.2-1.9-0.4-2.8-0.6c-2.1-0.3-4-0.7-5.7-1.2
			c-1.7-0.6-3-1.3-4-2.3c-1-1-1.5-2.3-1.5-3.9c0-1.5,0.5-2.8,1.6-3.9c1-1.1,2.4-2,4.1-2.6s3.5-0.9,5.5-0.9c1.6,0,3.2,0.2,4.7,0.6
			c1.5,0.4,2.9,1,4,1.8c1.1,0.8,2,1.8,2.5,2.9l-4.9,1.5c-0.2-0.5-0.6-0.9-1.2-1.3c-0.6-0.4-1.4-0.7-2.2-0.9
			c-0.9-0.2-1.8-0.3-2.8-0.3c-1,0-2,0.1-2.9,0.4c-0.9,0.3-1.6,0.6-2.2,1.1c-0.6,0.5-0.9,1-0.9,1.6c0,0.8,0.3,1.4,0.8,1.8
			c0.5,0.4,1.2,0.7,2.1,0.9c0.9,0.2,1.9,0.3,3,0.5c2,0.3,3.8,0.7,5.5,1.3c1.7,0.6,3.1,1.4,4.1,2.4c1,1,1.5,2.3,1.5,3.7
			c0,1.5-0.5,2.8-1.5,3.9c-1,1.1-2.4,2-4.1,2.6C361.7,103.6,359.9,104,357.9,104z"/>
		<path class="st0" d="M373.9,103.5V78.9h18.8v4.3h-13.5v5h10.7v4.3h-10.7v6.8h13.5v4.3H373.9z"/>
	</g>
	<g>
		<path class="st0" d="M236.6,150v-35.8h20.7c10.1,0,17.4,7.1,17.4,17.5c0,10.4-7.3,18.2-17.4,18.2H236.6z M257.3,143.7
			c6.4,0,11.2-5,11.2-11.7c0-6.7-4.7-11.6-11.2-11.6h-14.5v23.3H257.3z"/>
		<path class="st0" d="M312.3,150l-5.4-9H290l3-5.1h11l-8-13.4L279.7,150h-7.1l20.6-34.2c0.7-1.2,1.7-2,3-2c1.4,0,2.3,0.8,3,2
			l20.6,34.2H312.3z"/>
		<path class="st0" d="M328.8,150v-29.5h-13.6v-6.2h33.4v6.2H335V150H328.8z"/>
		<path class="st0" d="M383.3,150l-5.4-9H361l3-5.1h11l-8-13.4L350.7,150h-7.1l20.6-34.2c0.7-1.2,1.7-2,3-2c1.4,0,2.3,0.8,3,2
			l20.6,34.2H383.3z"/>
		<path class="st0" d="M394.7,150v-6.2h26.8c3.3,0,5.2-1.9,5.2-4.7c0-3-1.9-4.6-5.2-4.6H405c-6.7,0-10.9-4.3-10.9-10.2
			c0-5.8,3.9-10,11-10h25.7v6.2h-25.7c-2.9,0-4.5,1.7-4.5,4.4c0,2.7,1.7,4.3,4.5,4.3h16.4c7.2,0,11.1,3.4,11.1,10.3
			c0,6-3.6,10.5-11.1,10.5H394.7z"/>
		<path class="st0" d="M448.7,140v-6h14.4c4.4,0,7-2.8,7-6.8c0-4.1-2.6-6.7-7-6.7h-18.9V150H438v-35.8h25.1c8.3,0,13.1,5,13.1,12.8
			c0,7.7-4.8,13-13.1,13H448.7z"/>
		<path class="st0" d="M512.7,150l-5.4-9h-16.9l3-5.1h11l-8-13.4L480.2,150H473l20.6-34.2c0.7-1.2,1.7-2,3-2c1.4,0,2.3,0.8,3,2
			l20.6,34.2H512.7z"/>
		<path class="st0" d="M535.6,150c-10,0-17.4-7.9-17.4-18.2c0-10.5,7.4-17.5,17.4-17.5H555v6.2h-19.4c-6.4,0-11.1,4.8-11.1,11.6
			c0,6.7,4.7,11.7,11.1,11.7H555v6.2H535.6z"/>
		<path class="st0" d="M560.1,150v-35.8H592v6.2h-25.7v23.3h25.8v6.2H560.1z M570.9,134.4v-5.3h19.8v5.3H570.9z"/>
	</g>
</g>
</svg>
