<?xml version="1.0" encoding="utf-8"?>
<!-- Generator: Adobe Illustrator 28.2.0, SVG Export Plug-In . SVG Version: 6.00 Build 0)  -->
<svg version="1.1" id="Layer_1" xmlns="http://www.w3.org/2000/svg" xmlns:xlink="http://www.w3.org/1999/xlink" x="0px" y="0px"
	 viewBox="0 0 409.4 317.5" style="enable-background:new 0 0 409.4 317.5;" xml:space="preserve">
<style type="text/css">
	.st0{fill:#FFFFFF;}
</style>
<g>
	<path class="st0" d="M170.4,23.3c-1.9-0.6-3.7-1.3-5.6-1.9c-2.4-0.7-4.8-1.4-7.2-2c-1.9-0.5-3.8-0.9-5.8-1.2
		c-2.6-0.5-5.3-0.9-8-1.2c-2-0.3-3.9-0.4-5.9-0.5c-1.7-0.1-3.5-0.1-5.2-0.2c-1.2,0-2.3-0.1-3.5-0.1c-1.7,0.1-3.5,0.2-5.2,0.3
		c-0.8,0-1.6,0.1-2.4,0.2c-1.2,0.1-2.4,0.1-3.6,0.3c-1.2,0.1-2.3,0.3-3.5,0.5c-1.4,0.2-2.8,0.4-4.2,0.7c-1.2,0.2-2.3,0.5-3.4,0.7
		c-1.4,0.3-2.8,0.6-4.1,0.9c-1.4,0.3-2.7,0.8-4.1,1.2c-1.5,0.5-3,0.9-4.5,1.4c-2.3,0.8-4.6,1.7-6.9,2.6c-1,0.4-2,0.8-3,1.3
		c-2.5,1.2-5,2.3-7.4,3.7c-2.7,1.5-5.3,3.1-7.9,4.7c-1.7,1.1-3.3,2.2-4.9,3.4c-1.8,1.3-3.5,2.7-5.1,4.1c-2.1,1.8-4.2,3.7-6.2,5.7
		c-1.9,1.9-3.8,3.8-5.5,5.8c-2,2.3-3.9,4.6-5.7,7c-1.4,1.8-2.7,3.7-3.9,5.6c-1.1,1.6-2,3.4-3,5.1c-0.7,1.3-1.5,2.5-2.2,3.8
		c-0.9,1.8-1.8,3.6-2.6,5.4c-0.3,0.7-0.7,1.4-1,2.2c-0.8,2-1.6,3.9-2.4,6c-0.6,1.6-1.2,3.3-1.7,5c-0.7,2.7-1.4,5.4-2.1,8.1
		c-0.4,1.6-0.7,3.2-1,4.8c-0.3,1.7-0.5,3.4-0.7,5.1c-0.2,1.7-0.5,3.5-0.6,5.2c-0.1,1.1-0.2,2.3-0.2,3.4c-0.1,3.2-0.2,6.4-0.1,9.6
		c0.1,3,0.4,6,0.7,9c0.3,2.7,0.7,5.3,1.2,8c0.4,2.3,1,4.6,1.6,6.9c0.6,2.3,1.2,4.5,1.9,6.8c0.7,2.1,1.4,4.1,2.2,6.2
		c0.8,2.1,1.7,4.2,2.7,6.3c1.2,2.5,2.4,5,3.8,7.4c1.4,2.5,2.9,5,4.5,7.4c1.5,2.2,3.1,4.4,4.7,6.5c0.8,1.1,1.6,2.1,2.4,3.2
		c1.5,1.7,3,3.4,4.5,5.1c0.9,1,1.8,2,2.8,2.9c1.6,1.5,3.2,3,4.8,4.5c0.9,0.9,1.9,1.7,2.9,2.5c0.7,0.6,1.5,1.2,2.2,1.9
		c-26.3-14.3-44.5-35.5-53.6-64.1c-9-28.5-6.9-56.4,6.8-83c14.5-28.2,37.3-46.8,67.8-55.5c30.4-8.6,59.3-4.3,86.6,11.4
		C170.5,23.2,170.5,23.3,170.4,23.3z"/>
	<g>
		<path class="st0" d="M117,174.8l-8.3,8.3c-4.8,4.8-12.7,4.8-17.5,0l-18.6-18.6c-4.8-4.8-4.8-12.7,0-17.5l10.4-10.4l24.2,24.2h23.9
			l0,0l-48.1-48.1l-22.4,22.4c-11.4,11.4-11.4,30.1,0,41.5L79.2,195c11.4,11.4,30.1,11.4,41.5,0l8.3-8.3L117,174.8z"/>
		<path class="st0" d="M120.7,54c-11.4-11.4-30.1-11.4-41.5,0L60.6,72.6c-11.4,11.4-11.4,30.1,0,41.5l8.3,8.3l12-12l-8.3-8.3
			c-4.8-4.8-4.8-12.7,0-17.5l18.6-18.6c4.8-4.8,12.7-4.8,17.5,0l10.4,10.4l-24.2,24.2v24l48.1-48.1L120.7,54z"/>
		<path class="st0" d="M201.6,72.6L183,54c-11.4-11.4-30.1-11.4-41.5,0l-8.3,8.3l12,12l8.3-8.3c4.8-4.8,12.7-4.8,17.5,0l18.6,18.6
			c4.8,4.8,4.8,12.7,0,17.5l-10.4,10.4L155,88.3h-24l48.1,48.1l22.4-22.4C213,102.7,213,84,201.6,72.6z"/>
		<path class="st0" d="M201.6,134.9l-8.3-8.3l-12,12l8.3,8.3c4.8,4.8,4.8,12.7,0,17.5L171,183c-4.8,4.8-12.7,4.8-17.5,0l-10.4-10.4
			l24.2-24.2v-24l-48.1,48.1l22.4,22.4c11.4,11.4,30.1,11.4,41.5,0l18.6-18.6C213,164.9,213,146.3,201.6,134.9z"/>
	</g>
</g>
<g>
	<path class="st0" d="M217.4,203.1v-24.6h18.8v4.3h-13.5v5h10.7v4.3h-10.7v6.8h13.5v4.3H217.4z"/>
	<path class="st0" d="M254.6,203.6c-2,0-3.9-0.3-5.7-1c-1.8-0.7-3.3-1.6-4.7-2.8c-1.3-1.2-2.4-2.5-3.2-4.1c-0.8-1.5-1.1-3.2-1.1-5
		c0-1.8,0.4-3.4,1.1-5c0.8-1.5,1.8-2.9,3.2-4.1c1.3-1.2,2.9-2.1,4.7-2.7c1.8-0.7,3.7-1,5.7-1c2.4,0,4.6,0.5,6.7,1.4
		c2,0.9,3.7,2.1,5.1,3.7l-4.7,2.1c-0.8-0.9-1.9-1.5-3.1-2.1c-1.2-0.5-2.6-0.8-4-0.8c-1.3,0-2.5,0.2-3.7,0.7c-1.2,0.4-2.2,1-3,1.8
		c-0.9,0.8-1.5,1.7-2,2.7c-0.5,1-0.7,2.1-0.7,3.3c0,1.2,0.2,2.3,0.7,3.3c0.5,1,1.2,1.9,2,2.7c0.9,0.8,1.9,1.4,3,1.8
		c1.1,0.4,2.4,0.7,3.7,0.7c1.4,0,2.8-0.3,4-0.8c1.2-0.5,2.3-1.2,3.1-2.1l4.7,2.1c-1.3,1.5-3,2.8-5.1,3.7
		C259.2,203.1,257,203.6,254.6,203.6z"/>
	<path class="st0" d="M270.4,203.1v-24.6h5.2v20.3H288v4.3H270.4z"/>
	<path class="st0" d="M293.4,203.1v-24.6h5.2v24.6H293.4z"/>
	<path class="st0" d="M304.3,203.1v-24.6H315c1.6,0,3.1,0.3,4.4,1c1.3,0.7,2.4,1.6,3.1,2.7c0.8,1.1,1.2,2.4,1.2,3.7
		c0,1.4-0.4,2.6-1.2,3.8c-0.8,1.1-1.8,2-3.2,2.7c-1.3,0.7-2.8,1-4.3,1h-5.5v9.8H304.3z M309.6,189h4.9c0.7,0,1.4-0.2,2-0.5
		c0.6-0.3,1.1-0.7,1.5-1.2c0.4-0.5,0.5-1.1,0.5-1.7c0-0.6-0.2-1.2-0.5-1.7c-0.4-0.5-0.9-0.9-1.5-1.2c-0.6-0.3-1.3-0.5-2-0.5h-4.9
		V189z"/>
	<path class="st0" d="M338.8,203.6c-1.7,0-3.2-0.2-4.8-0.6c-1.5-0.4-2.8-1-4-1.8c-1.1-0.8-2-1.8-2.5-2.9l4.9-1.5
		c0.2,0.5,0.6,0.9,1.2,1.3c0.6,0.4,1.4,0.7,2.2,0.9c0.9,0.2,1.8,0.4,2.8,0.4c1,0,2-0.1,2.9-0.4c0.9-0.3,1.6-0.6,2.2-1.1
		c0.6-0.5,0.8-1,0.8-1.7c0-0.6-0.3-1.2-0.9-1.6c-0.6-0.4-1.3-0.7-2.2-1c-0.9-0.2-1.9-0.4-2.8-0.6c-2.1-0.3-4-0.7-5.7-1.2
		c-1.7-0.6-3-1.3-4-2.3c-1-1-1.5-2.3-1.5-3.9c0-1.5,0.5-2.8,1.6-3.9c1-1.1,2.4-2,4.1-2.6c1.7-0.6,3.5-0.9,5.5-0.9
		c1.6,0,3.2,0.2,4.7,0.6c1.5,0.4,2.9,1,4,1.8c1.1,0.8,2,1.8,2.5,2.9l-4.9,1.5c-0.2-0.5-0.6-0.9-1.2-1.3c-0.6-0.4-1.4-0.7-2.2-0.9
		c-0.9-0.2-1.8-0.3-2.8-0.3c-1,0-2,0.1-2.9,0.4c-0.9,0.3-1.6,0.6-2.2,1.1c-0.6,0.5-0.9,1-0.9,1.6c0,0.8,0.3,1.4,0.8,1.8
		c0.5,0.4,1.2,0.7,2.1,0.9c0.9,0.2,1.9,0.3,3,0.5c2,0.3,3.8,0.7,5.5,1.3c1.7,0.6,3.1,1.4,4.1,2.4c1,1,1.5,2.3,1.5,3.7
		c0,1.5-0.5,2.8-1.5,3.9c-1,1.1-2.4,2-4.1,2.6C342.6,203.3,340.8,203.6,338.8,203.6z"/>
	<path class="st0" d="M354.8,203.1v-24.6h18.8v4.3H360v5h10.7v4.3H360v6.8h13.5v4.3H354.8z"/>
</g>
<g>
	<path class="st0" d="M3.8,259.4v-37h21.5c10.4,0,18,7.4,18,18.1c0,10.8-7.6,18.9-18,18.9H3.8z M25.3,252.9
		c6.7,0,11.6-5.1,11.6-12.1c0-7-4.9-12-11.6-12h-15v24.1H25.3z"/>
	<path class="st0" d="M82.3,259.4l-5.6-9.3H59.2l3.1-5.2h11.4L65.4,231l-16.8,28.4h-7.4l21.3-35.5c0.8-1.3,1.7-2.1,3.2-2.1
		c1.4,0,2.3,0.8,3.1,2.1l21.4,35.5H82.3z"/>
	<path class="st0" d="M99.4,259.4v-30.6H85.3v-6.5h34.6v6.5h-14.1v30.6H99.4z"/>
	<path class="st0" d="M155.8,259.4l-5.6-9.3h-17.5l3.1-5.2h11.4l-8.3-13.9l-16.8,28.4h-7.4l21.3-35.5c0.8-1.3,1.7-2.1,3.2-2.1
		c1.4,0,2.3,0.8,3.1,2.1l21.4,35.5H155.8z"/>
	<path class="st0" d="M167.6,259.4v-6.5h27.8c3.5,0,5.4-1.9,5.4-4.8c0-3.2-1.9-4.8-5.4-4.8h-17c-7,0-11.3-4.4-11.3-10.5
		c0-6,4-10.4,11.4-10.4h26.6v6.5h-26.6c-3,0-4.7,1.7-4.7,4.5c0,2.8,1.8,4.5,4.6,4.5h17c7.5,0,11.5,3.5,11.5,10.7
		c0,6.2-3.8,10.9-11.5,10.9H167.6z"/>
	<path class="st0" d="M223.6,249.1v-6.3h14.9c4.5,0,7.2-2.9,7.2-7c0-4.3-2.7-7-7.2-7h-19.6v30.6h-6.4v-37h26
		c8.6,0,13.6,5.1,13.6,13.2c0,8-5,13.5-13.6,13.5H223.6z"/>
	<path class="st0" d="M289.9,259.4l-5.6-9.3h-17.5l3.1-5.2h11.4L273,231l-16.8,28.4h-7.4l21.3-35.5c0.8-1.3,1.7-2.1,3.2-2.1
		c1.4,0,2.3,0.8,3.1,2.1l21.4,35.5H289.9z"/>
	<path class="st0" d="M313.7,259.4c-10.3,0-18-8.2-18-18.9c0-10.9,7.6-18.1,18-18.1h20.1v6.5h-20.1c-6.6,0-11.5,4.9-11.5,12
		c0,7,4.8,12.1,11.5,12.1h20.1v6.5H313.7z"/>
	<path class="st0" d="M339,259.4v-37h33.1v6.5h-26.7v24.1h26.7v6.5H339z M350.2,243.3v-5.5h20.5v5.5H350.2z"/>
</g>
</svg>
