<?xml version="1.0" encoding="UTF-8" standalone="no"?><svg xmlns="http://www.w3.org/2000/svg" xmlns:xlink="http://www.w3.org/1999/xlink" contentScriptType="application/ecmascript" contentStyleType="text/css" height="672px" preserveAspectRatio="none" style="width:1519px;height:672px;background:#FFFFFF;" version="1.1" viewBox="0 0 1519 672" width="1519px" zoomAndPan="magnify"><defs/><g><!--MD5=[74eb1aba1ad5002905388bf4422200d2]
cluster **IRSApplication**--><rect fill="#FFFFFF" height="277.5" style="stroke:#000000;stroke-width:1.5;" width="178" x="779" y="7"/><rect fill="#FFFFFF" height="10" style="stroke:#000000;stroke-width:1.5;" width="15" x="937" y="12"/><rect fill="#FFFFFF" height="2" style="stroke:#000000;stroke-width:1.5;" width="4" x="935" y="14"/><rect fill="#FFFFFF" height="2" style="stroke:#000000;stroke-width:1.5;" width="4" x="935" y="18"/><text fill="#000000" font-family="sans-serif" font-size="14" font-style="italic" lengthAdjust="spacing" textLength="62" x="837" y="34.5332">«System»</text><text fill="#000000" font-family="sans-serif" font-size="14" font-weight="bold" lengthAdjust="spacing" textLength="101" x="817.5" y="52.1426">IRSApplication</text><!--MD5=[d0a4d6bb337f475e3297f418dce161d4]
cluster **CatenaX-Network**--><rect fill="#FFFFFF" height="135" style="stroke:#000000;stroke-width:1.5;" width="305" x="450" y="149.5"/><rect fill="#FFFFFF" height="10" style="stroke:#000000;stroke-width:1.5;" width="15" x="735" y="154.5"/><rect fill="#FFFFFF" height="2" style="stroke:#000000;stroke-width:1.5;" width="4" x="733" y="156.5"/><rect fill="#FFFFFF" height="2" style="stroke:#000000;stroke-width:1.5;" width="4" x="733" y="160.5"/><text fill="#000000" font-family="sans-serif" font-size="14" font-style="italic" lengthAdjust="spacing" textLength="118" x="543.5" y="177.0332">«CX-Environment»</text><text fill="#000000" font-family="sans-serif" font-size="14" font-weight="bold" lengthAdjust="spacing" textLength="121" x="542" y="194.6426">CatenaX-Network</text><!--MD5=[1c7de4464016bafe70c0248108e8166b]
cluster **Tier/OEM**--><rect fill="#FFFFFF" height="260" style="stroke:#000000;stroke-width:1.5;" width="1506" x="7" y="406.5"/><rect fill="#FFFFFF" height="10" style="stroke:#000000;stroke-width:1.5;" width="15" x="1493" y="411.5"/><rect fill="#FFFFFF" height="2" style="stroke:#000000;stroke-width:1.5;" width="4" x="1491" y="413.5"/><rect fill="#FFFFFF" height="2" style="stroke:#000000;stroke-width:1.5;" width="4" x="1491" y="417.5"/><text fill="#000000" font-family="sans-serif" font-size="14" font-style="italic" lengthAdjust="spacing" textLength="160" x="680" y="434.0332">«Tier/OEM-Environment»</text><text fill="#000000" font-family="sans-serif" font-size="14" font-weight="bold" lengthAdjust="spacing" textLength="64" x="728" y="451.6426">Tier/OEM</text><!--MD5=[e93cfa9b0245dab51f101fe4285e78a0]
entity IRS--><rect fill="#F8F8F8" height="65.2188" style="stroke:#383838;stroke-width:1.5;" width="102" x="795" y="61"/><rect fill="#F8F8F8" height="10" style="stroke:#383838;stroke-width:1.5;" width="15" x="877" y="66"/><rect fill="#F8F8F8" height="2" style="stroke:#383838;stroke-width:1.5;" width="4" x="875" y="68"/><rect fill="#F8F8F8" height="2" style="stroke:#383838;stroke-width:1.5;" width="4" x="875" y="72"/><text fill="#000000" font-family="sans-serif" font-size="14" font-style="italic" lengthAdjust="spacing" textLength="62" x="810" y="95.5332">«System»</text><text fill="#000000" font-family="sans-serif" font-size="14" font-weight="bold" lengthAdjust="spacing" textLength="23" x="829.5" y="113.1426">IRS</text><!--MD5=[5f08483ab9028101afdbe073256070ac]
entity EDC--><rect fill="#F8F8F8" height="65.2188" style="stroke:#383838;stroke-width:1.5;" width="145" x="795.5" y="203.5"/><rect fill="#F8F8F8" height="10" style="stroke:#383838;stroke-width:1.5;" width="15" x="920.5" y="208.5"/><rect fill="#F8F8F8" height="2" style="stroke:#383838;stroke-width:1.5;" width="4" x="918.5" y="210.5"/><rect fill="#F8F8F8" height="2" style="stroke:#383838;stroke-width:1.5;" width="4" x="918.5" y="214.5"/><text fill="#000000" font-family="sans-serif" font-size="14" font-style="italic" lengthAdjust="spacing" textLength="62" x="832" y="238.0332">«System»</text><text fill="#000000" font-family="sans-serif" font-size="14" font-weight="bold" lengthAdjust="spacing" textLength="105" x="810.5" y="255.6426">EDC Consumer</text><!--MD5=[da62b26bdc98399bb9d3254e41de99ee]
entity IAM_IRS--><rect fill="#F8F8F8" height="65.2188" style="stroke:#383838;stroke-width:1.5;" width="135" x="603.5" y="203.5"/><rect fill="#F8F8F8" height="10" style="stroke:#383838;stroke-width:1.5;" width="15" x="718.5" y="208.5"/><rect fill="#F8F8F8" height="2" style="stroke:#383838;stroke-width:1.5;" width="4" x="716.5" y="210.5"/><rect fill="#F8F8F8" height="2" style="stroke:#383838;stroke-width:1.5;" width="4" x="716.5" y="214.5"/><text fill="#000000" font-family="sans-serif" font-size="14" font-style="italic" lengthAdjust="spacing" textLength="62" x="635" y="238.0332">«System»</text><text fill="#000000" font-family="sans-serif" font-size="14" font-weight="bold" lengthAdjust="spacing" textLength="95" x="618.5" y="255.6426">IAM/Keycloak</text><!--MD5=[ead0bd14eb5ee4e680c110f8c56eba63]
entity identity_wallet--><rect fill="#F8F8F8" height="65.2188" style="stroke:#383838;stroke-width:1.5;" width="102" x="466" y="203.5"/><rect fill="#F8F8F8" height="10" style="stroke:#383838;stroke-width:1.5;" width="15" x="548" y="208.5"/><rect fill="#F8F8F8" height="2" style="stroke:#383838;stroke-width:1.5;" width="4" x="546" y="210.5"/><rect fill="#F8F8F8" height="2" style="stroke:#383838;stroke-width:1.5;" width="4" x="546" y="214.5"/><text fill="#000000" font-family="sans-serif" font-size="14" font-style="italic" lengthAdjust="spacing" textLength="62" x="481" y="238.0332">«System»</text><text fill="#000000" font-family="sans-serif" font-size="14" font-weight="bold" lengthAdjust="spacing" textLength="30" x="497" y="255.6426">MIW</text><!--MD5=[438dac47eabf1df4079316ffe09cf042]
entity EDCProviderOEM--><rect fill="#F8F8F8" height="65.2188" style="stroke:#383838;stroke-width:1.5;" width="179" x="295.5" y="460.5"/><rect fill="#F8F8F8" height="10" style="stroke:#383838;stroke-width:1.5;" width="15" x="454.5" y="465.5"/><rect fill="#F8F8F8" height="2" style="stroke:#383838;stroke-width:1.5;" width="4" x="452.5" y="467.5"/><rect fill="#F8F8F8" height="2" style="stroke:#383838;stroke-width:1.5;" width="4" x="452.5" y="471.5"/><text fill="#000000" font-family="sans-serif" font-size="14" font-style="italic" lengthAdjust="spacing" textLength="62" x="349" y="495.0332">«System»</text><text fill="#000000" font-family="sans-serif" font-size="14" font-weight="bold" lengthAdjust="spacing" textLength="139" x="310.5" y="512.6426">EDC_Provider_OEM</text><!--MD5=[aba0b24141a7458030335c60ddaa8ce6]
entity EDCProviderTier1--><rect fill="#F8F8F8" height="65.2188" style="stroke:#383838;stroke-width:1.5;" width="181" x="595.5" y="460.5"/><rect fill="#F8F8F8" height="10" style="stroke:#383838;stroke-width:1.5;" width="15" x="756.5" y="465.5"/><rect fill="#F8F8F8" height="2" style="stroke:#383838;stroke-width:1.5;" width="4" x="754.5" y="467.5"/><rect fill="#F8F8F8" height="2" style="stroke:#383838;stroke-width:1.5;" width="4" x="754.5" y="471.5"/><text fill="#000000" font-family="sans-serif" font-size="14" font-style="italic" lengthAdjust="spacing" textLength="62" x="650" y="495.0332">«System»</text><text fill="#000000" font-family="sans-serif" font-size="14" font-weight="bold" lengthAdjust="spacing" textLength="141" x="610.5" y="512.6426">EDC_Provider_Tier1</text><!--MD5=[9a046a69128518732970549a0eb969aa]
entity EDCProviderTier11--><rect fill="#F8F8F8" height="65.2188" style="stroke:#383838;stroke-width:1.5;" width="193" x="951.5" y="460.5"/><rect fill="#F8F8F8" height="10" style="stroke:#383838;stroke-width:1.5;" width="15" x="1124.5" y="465.5"/><rect fill="#F8F8F8" height="2" style="stroke:#383838;stroke-width:1.5;" width="4" x="1122.5" y="467.5"/><rect fill="#F8F8F8" height="2" style="stroke:#383838;stroke-width:1.5;" width="4" x="1122.5" y="471.5"/><text fill="#000000" font-family="sans-serif" font-size="14" font-style="italic" lengthAdjust="spacing" textLength="62" x="1012" y="495.0332">«System»</text><text fill="#000000" font-family="sans-serif" font-size="14" font-weight="bold" lengthAdjust="spacing" textLength="153" x="966.5" y="512.6426">EDC_Provider_Tier1.1</text><!--MD5=[934d407b788e0f94763e30bad466e67e]
entity SubmodelServerOEM--><rect fill="#F8F8F8" height="65.2188" style="stroke:#383838;stroke-width:1.5;" width="199" x="23.5" y="585.5"/><rect fill="#F8F8F8" height="10" style="stroke:#383838;stroke-width:1.5;" width="15" x="202.5" y="590.5"/><rect fill="#F8F8F8" height="2" style="stroke:#383838;stroke-width:1.5;" width="4" x="200.5" y="592.5"/><rect fill="#F8F8F8" height="2" style="stroke:#383838;stroke-width:1.5;" width="4" x="200.5" y="596.5"/><text fill="#000000" font-family="sans-serif" font-size="14" font-style="italic" lengthAdjust="spacing" textLength="62" x="87" y="620.0332">«System»</text><text fill="#000000" font-family="sans-serif" font-size="14" font-weight="bold" lengthAdjust="spacing" textLength="159" x="38.5" y="637.6426">SubmodelServer_OEM</text><!--MD5=[342dc1bd7f41cc04fcb83396460b442d]
entity SubmodelServerTier1--><rect fill="#F8F8F8" height="65.2188" style="stroke:#383838;stroke-width:1.5;" width="201" x="515.5" y="585.5"/><rect fill="#F8F8F8" height="10" style="stroke:#383838;stroke-width:1.5;" width="15" x="696.5" y="590.5"/><rect fill="#F8F8F8" height="2" style="stroke:#383838;stroke-width:1.5;" width="4" x="694.5" y="592.5"/><rect fill="#F8F8F8" height="2" style="stroke:#383838;stroke-width:1.5;" width="4" x="694.5" y="596.5"/><text fill="#000000" font-family="sans-serif" font-size="14" font-style="italic" lengthAdjust="spacing" textLength="62" x="580" y="620.0332">«System»</text><text fill="#000000" font-family="sans-serif" font-size="14" font-weight="bold" lengthAdjust="spacing" textLength="161" x="530.5" y="637.6426">SubmodelServer_Tier1</text><!--MD5=[82c295ef221c76e06af5008cbe2d753b]
entity SubmodelServerTier11--><rect fill="#F8F8F8" height="65.2188" style="stroke:#383838;stroke-width:1.5;" width="213" x="1011.5" y="585.5"/><rect fill="#F8F8F8" height="10" style="stroke:#383838;stroke-width:1.5;" width="15" x="1204.5" y="590.5"/><rect fill="#F8F8F8" height="2" style="stroke:#383838;stroke-width:1.5;" width="4" x="1202.5" y="592.5"/><rect fill="#F8F8F8" height="2" style="stroke:#383838;stroke-width:1.5;" width="4" x="1202.5" y="596.5"/><text fill="#000000" font-family="sans-serif" font-size="14" font-style="italic" lengthAdjust="spacing" textLength="62" x="1082" y="620.0332">«System»</text><text fill="#000000" font-family="sans-serif" font-size="14" font-weight="bold" lengthAdjust="spacing" textLength="173" x="1026.5" y="637.6426">SubmodelServer_Tier1.1</text><!--MD5=[1c3cc4920543c94da99fba864b265225]
entity DT_REGOEM--><rect fill="#F8F8F8" height="65.2188" style="stroke:#383838;stroke-width:1.5;" width="223" x="257.5" y="585.5"/><rect fill="#F8F8F8" height="10" style="stroke:#383838;stroke-width:1.5;" width="15" x="460.5" y="590.5"/><rect fill="#F8F8F8" height="2" style="stroke:#383838;stroke-width:1.5;" width="4" x="458.5" y="592.5"/><rect fill="#F8F8F8" height="2" style="stroke:#383838;stroke-width:1.5;" width="4" x="458.5" y="596.5"/><text fill="#000000" font-family="sans-serif" font-size="14" font-style="italic" lengthAdjust="spacing" textLength="62" x="333" y="620.0332">«System»</text><text fill="#000000" font-family="sans-serif" font-size="14" font-weight="bold" lengthAdjust="spacing" textLength="183" x="272.5" y="637.6426">Digital Twin Registry_OEM</text><!--MD5=[8bfd88767a309a97b4c39ec4bdce1b44]
entity DT_REG1--><rect fill="#F8F8F8" height="65.2188" style="stroke:#383838;stroke-width:1.5;" width="225" x="751.5" y="585.5"/><rect fill="#F8F8F8" height="10" style="stroke:#383838;stroke-width:1.5;" width="15" x="956.5" y="590.5"/><rect fill="#F8F8F8" height="2" style="stroke:#383838;stroke-width:1.5;" width="4" x="954.5" y="592.5"/><rect fill="#F8F8F8" height="2" style="stroke:#383838;stroke-width:1.5;" width="4" x="954.5" y="596.5"/><text fill="#000000" font-family="sans-serif" font-size="14" font-style="italic" lengthAdjust="spacing" textLength="62" x="828" y="620.0332">«System»</text><text fill="#000000" font-family="sans-serif" font-size="14" font-weight="bold" lengthAdjust="spacing" textLength="185" x="766.5" y="637.6426">Digital Twin Registry_Tier1</text><!--MD5=[b86c92d0234c9cac091be63763eba67d]
entity DT_REG11--><rect fill="#F8F8F8" height="65.2188" style="stroke:#383838;stroke-width:1.5;" width="237" x="1259.5" y="585.5"/><rect fill="#F8F8F8" height="10" style="stroke:#383838;stroke-width:1.5;" width="15" x="1476.5" y="590.5"/><rect fill="#F8F8F8" height="2" style="stroke:#383838;stroke-width:1.5;" width="4" x="1474.5" y="592.5"/><rect fill="#F8F8F8" height="2" style="stroke:#383838;stroke-width:1.5;" width="4" x="1474.5" y="596.5"/><text fill="#000000" font-family="sans-serif" font-size="14" font-style="italic" lengthAdjust="spacing" textLength="62" x="1342" y="620.0332">«System»</text><text fill="#000000" font-family="sans-serif" font-size="14" font-weight="bold" lengthAdjust="spacing" textLength="197" x="1274.5" y="637.6426">Digital Twin Registry_Tier1.1</text><!--MD5=[5c5be6d8cb48121ee90613cabb3b4d9f]
entity IrsApiConsumer--><ellipse cx="690" cy="63" fill="#F8F8F8" rx="8" ry="8" style="stroke:#383838;stroke-width:1.5;"/><path d="M690,71 L690,98 M677,79 L703,79 M690,98 L677,113 M690,98 L703,113 " fill="none" style="stroke:#383838;stroke-width:1.5;"/><text fill="#000000" font-family="sans-serif" font-size="14" lengthAdjust="spacing" textLength="100" x="640" y="130.0332">IrsApiConsumer</text><!--MD5=[0c26ffb2ecb90ce3dfab438ecb4ad2cb]
link IrsApiConsumer to IRS--><path d="M740.27,93.5 C758.45,93.5 776.62,93.5 794.79,93.5 " fill="none" id="IrsApiConsumer-IRS" style="stroke:#383838;stroke-width:1.0;"/><path d="M760.4627,86.4289 A10,10 0 0 0 760.4627 100.5711" fill="none" style="stroke:#383838;stroke-width:1.5;"/><ellipse cx="767.5338" cy="93.5" fill="#FFFFFF" rx="6" ry="6" style="stroke:#383838;stroke-width:1.5;"/><!--MD5=[c026155e2c7dcaf3945871155ceba4d9]
link IrsApiConsumer to IAM_IRS--><path d="M684.04,138.6 C681.45,157.73 678.45,179.89 675.99,198.13 " fill="none" id="IrsApiConsumer-IAM_IRS" style="stroke:#383838;stroke-width:1.0;stroke-dasharray:7.0,7.0;"/><polygon fill="#383838" points="675.31,203.17,680.458,194.7737,675.9671,198.2134,672.5274,193.7224,675.31,203.17" style="stroke:#383838;stroke-width:1.0;"/><polygon fill="#383838" points="684.71,133.64,679.5382,142.0217,684.0389,138.5948,687.4658,143.0954,684.71,133.64" style="stroke:#383838;stroke-width:1.0;"/><!--MD5=[f30d28faf60cdc3ab1ae2c84e1be0d4f]
link IRS to EDC--><path d="M851.71,130.99 C854.94,151.59 858.96,177.26 862.2,197.94 " fill="none" id="IRS-EDC" style="stroke:#383838;stroke-width:1.0;stroke-dasharray:7.0,7.0;"/><polygon fill="#383838" points="863,203.09,865.5643,193.5808,862.229,198.1498,857.66,194.8145,863,203.09" style="stroke:#383838;stroke-width:1.0;"/><polygon fill="#383838" points="850.94,126.03,848.3757,135.5392,851.711,130.9702,856.28,134.3055,850.94,126.03" style="stroke:#383838;stroke-width:1.0;"/><!--MD5=[79acf9528833e7ddc927e25fa1a0f469]
link IAM_IRS to IRS--><path d="M709.72,199.79 C729.95,181.84 755.35,159.95 779,141.5 C784.18,137.46 789.67,133.35 795.19,129.32 " fill="none" id="IAM_IRS-IRS" style="stroke:#383838;stroke-width:1.0;stroke-dasharray:7.0,7.0;"/><polygon fill="#383838" points="799.42,126.26,789.7861,128.3065,795.3726,129.1958,794.4833,134.7823,799.42,126.26" style="stroke:#383838;stroke-width:1.0;"/><polygon fill="#383838" points="705.75,203.33,715.1341,200.3404,709.487,200.0082,709.8192,194.3611,705.75,203.33" style="stroke:#383838;stroke-width:1.0;"/><!--MD5=[96e1823499967d8d8f6e9b968e4eea92]
link EDC to identity_wallet--><path d="M839.15,199.55 C815.25,173.46 778.63,142.14 737.5,137.5 C707.91,134.16 633.09,134.16 603.5,137.5 C595.57,138.39 592.66,137.11 586,141.5 C564.55,155.63 547.46,178.85 535.65,198.74 " fill="none" id="EDC-identity_wallet" style="stroke:#383838;stroke-width:1.0;stroke-dasharray:7.0,7.0;"/><polygon fill="#383838" points="533.06,203.19,541.0393,197.4167,535.5714,198.8665,534.1216,193.3985,533.06,203.19" style="stroke:#383838;stroke-width:1.0;"/><polygon fill="#383838" points="842.58,203.36,839.5126,194.001,839.2273,199.6506,833.5776,199.3653,842.58,203.36" style="stroke:#383838;stroke-width:1.0;"/><!--MD5=[e5f52fdfc70848859a3e407e695dc118]
link EDC to EDCProviderOEM--><path d="M803.6,271 C711.22,319.77 542.05,409.09 449.57,457.91 " fill="none" id="EDC-EDCProviderOEM" style="stroke:#383838;stroke-width:1.0;stroke-dasharray:7.0,7.0;"/><polygon fill="#383838" points="444.95,460.35,454.7766,459.6888,449.3724,458.0171,451.0441,452.6129,444.95,460.35" style="stroke:#383838;stroke-width:1.0;"/><polygon fill="#383838" points="808.29,268.52,798.4642,269.1929,803.8704,270.8581,802.2052,276.2643,808.29,268.52" style="stroke:#383838;stroke-width:1.0;"/><!--MD5=[1ddb8f230ac9d1fd9711bc1fad96d0b6]
link EDC to EDCProviderTier1--><path d="M842.57,272.63 C808.01,321.05 746.56,407.16 711.81,455.84 " fill="none" id="EDC-EDCProviderTier1" style="stroke:#383838;stroke-width:1.0;stroke-dasharray:7.0,7.0;"/><polygon fill="#383838" points="708.73,460.15,717.2094,455.1401,711.6308,456.0775,710.6934,450.4988,708.73,460.15" style="stroke:#383838;stroke-width:1.0;"/><polygon fill="#383838" points="845.5,268.52,837.0206,273.5299,842.5992,272.5925,843.5366,278.1712,845.5,268.52" style="stroke:#383838;stroke-width:1.0;"/><!--MD5=[934c9688ea6bb6c7ef0fe5ff5d1eba1e]
link EDC to EDCProviderTier11--><path d="M893.15,272.63 C927.33,321.05 988.11,407.16 1022.48,455.84 " fill="none" id="EDC-EDCProviderTier11" style="stroke:#383838;stroke-width:1.0;stroke-dasharray:7.0,7.0;"/><polygon fill="#383838" points="1025.52,460.15,1023.5951,450.4911,1022.6355,456.066,1017.0606,455.1063,1025.52,460.15" style="stroke:#383838;stroke-width:1.0;"/><polygon fill="#383838" points="890.25,268.52,892.1749,278.1789,893.1345,272.604,898.7094,273.5637,890.25,268.52" style="stroke:#383838;stroke-width:1.0;"/><!--MD5=[e2a97d98a1dbddbfdc9f35aa89778bda]
link identity_wallet to EDCProviderOEM--><path d="M498.24,273.24 C473.17,321.67 428.98,407.03 403.86,455.57 " fill="none" id="identity_wallet-EDCProviderOEM" style="stroke:#383838;stroke-width:1.0;stroke-dasharray:7.0,7.0;"/><polygon fill="#383838" points="401.49,460.15,409.1798,453.9964,403.7887,455.7097,402.0754,450.3186,401.49,460.15" style="stroke:#383838;stroke-width:1.0;"/><polygon fill="#383838" points="500.68,268.52,492.9902,274.6736,498.3813,272.9603,500.0946,278.3514,500.68,268.52" style="stroke:#383838;stroke-width:1.0;"/><!--MD5=[fe04a85d6bfe5c78dd984ee7c803f168]
link identity_wallet to EDCProviderTier1--><path d="M540.82,272.93 C572.94,321.41 629.84,407.27 662.04,455.85 " fill="none" id="identity_wallet-EDCProviderTier1" style="stroke:#383838;stroke-width:1.0;stroke-dasharray:7.0,7.0;"/><polygon fill="#383838" points="664.89,460.15,663.2413,450.4401,662.1231,455.9854,656.5778,454.8672,664.89,460.15" style="stroke:#383838;stroke-width:1.0;"/><polygon fill="#383838" points="537.89,268.52,539.5541,278.2273,540.6635,272.6803,546.2105,273.7897,537.89,268.52" style="stroke:#383838;stroke-width:1.0;"/><!--MD5=[d9c0fb78003b85c77d5d39906b4f74aa]
link identity_wallet to EDCProviderTier11--><path d="M556.48,271.75 C565.81,279.1 575.98,286.46 586,292.5 C705.02,364.25 854.5,423.86 950.64,458.71 " fill="none" id="identity_wallet-EDCProviderTier11" style="stroke:#383838;stroke-width:1.0;stroke-dasharray:7.0,7.0;"/><polygon fill="#383838" points="955.46,460.46,948.3572,453.6373,950.7581,458.7593,945.6361,461.1603,955.46,460.46" style="stroke:#383838;stroke-width:1.0;"/><polygon fill="#383838" points="552.53,268.6,557.0669,277.3417,556.4371,271.72,562.0588,271.0903,552.53,268.6" style="stroke:#383838;stroke-width:1.0;"/><!--MD5=[b1ca3ae275af908582c7131f6491dcf1]
link EDCProviderOEM to SubmodelServerOEM--><path d="M313.24,527.69 C276.57,544.9 232.06,565.8 195.31,583.05 " fill="none" id="EDCProviderOEM-SubmodelServerOEM" style="stroke:#383838;stroke-width:1.0;stroke-dasharray:7.0,7.0;"/><polygon fill="#383838" points="190.41,585.35,200.2567,585.1416,194.9351,583.2231,196.8536,577.9015,190.41,585.35" style="stroke:#383838;stroke-width:1.0;"/><polygon fill="#383838" points="317.87,525.52,308.0236,525.7404,313.3475,527.6524,311.4355,532.9764,317.87,525.52" style="stroke:#383838;stroke-width:1.0;"/><!--MD5=[0b74f217ca12368128b28036e6f00ba2]
link EDCProviderTier1 to SubmodelServerTier1--><path d="M665.48,530.06 C656.35,546.1 645.62,564.95 636.49,580.99 " fill="none" id="EDCProviderTier1-SubmodelServerTier1" style="stroke:#383838;stroke-width:1.0;stroke-dasharray:7.0,7.0;"/><polygon fill="#383838" points="633.97,585.43,641.8979,579.5863,636.443,581.0844,634.9449,575.6295,633.97,585.43" style="stroke:#383838;stroke-width:1.0;"/><polygon fill="#383838" points="667.97,525.68,660.0421,531.5237,665.497,530.0256,666.9951,535.4805,667.97,525.68" style="stroke:#383838;stroke-width:1.0;"/><!--MD5=[cfe652247dca1252085464e154dfd34a]
link EDCProviderTier11 to SubmodelServerTier11--><path d="M1068.52,530.06 C1077.65,546.1 1088.38,564.95 1097.51,580.99 " fill="none" id="EDCProviderTier11-SubmodelServerTier11" style="stroke:#383838;stroke-width:1.0;stroke-dasharray:7.0,7.0;"/><polygon fill="#383838" points="1100.03,585.43,1099.0551,575.6295,1097.557,581.0844,1092.1021,579.5863,1100.03,585.43" style="stroke:#383838;stroke-width:1.0;"/><polygon fill="#383838" points="1066.03,525.68,1067.0049,535.4805,1068.503,530.0256,1073.9579,531.5237,1066.03,525.68" style="stroke:#383838;stroke-width:1.0;"/><!--MD5=[65e3813b66bd3aede108ed9db506d00b]
link EDCProviderOEM to DT_REGOEM--><path d="M380.19,530.96 C378.16,546.56 375.81,564.68 373.78,580.25 " fill="none" id="EDCProviderOEM-DT_REGOEM" style="stroke:#383838;stroke-width:1.0;stroke-dasharray:7.0,7.0;"/><polygon fill="#383838" points="373.11,585.43,378.2342,577.0192,373.753,580.4715,370.3007,575.9903,373.11,585.43" style="stroke:#383838;stroke-width:1.0;"/><polygon fill="#383838" points="380.88,525.68,375.7558,534.0908,380.237,530.6385,383.6893,535.1197,380.88,525.68" style="stroke:#383838;stroke-width:1.0;"/><!--MD5=[d9b7598797ac2d572a33480b873157e4]
link EDCProviderTier1 to DT_REG1--><path d="M736.26,528.73 C760.63,545.57 789.82,565.74 814.15,582.55 " fill="none" id="EDCProviderTier1-DT_REG1" style="stroke:#383838;stroke-width:1.0;stroke-dasharray:7.0,7.0;"/><polygon fill="#383838" points="818.32,585.43,813.1895,577.023,814.2065,582.5877,808.6418,583.6046,818.32,585.43" style="stroke:#383838;stroke-width:1.0;"/><polygon fill="#383838" points="731.84,525.68,736.9705,534.087,735.9535,528.5223,741.5182,527.5054,731.84,525.68" style="stroke:#383838;stroke-width:1.0;"/><!--MD5=[8e57f68b62079755988ef57bcfb7fc15]
link EDCProviderTier11 to DT_REG11--><path d="M1137.51,527.36 C1184.42,544.85 1241.7,566.2 1288.59,583.67 " fill="none" id="EDCProviderTier11-DT_REG11" style="stroke:#383838;stroke-width:1.0;stroke-dasharray:7.0,7.0;"/><polygon fill="#383838" points="1293.38,585.46,1286.3391,578.5734,1288.6937,583.7169,1283.5501,586.0715,1293.38,585.46" style="stroke:#383838;stroke-width:1.0;"/><polygon fill="#383838" points="1132.55,525.52,1139.5909,532.4066,1137.2363,527.2631,1142.3799,524.9085,1132.55,525.52" style="stroke:#383838;stroke-width:1.0;"/><!--MD5=[2ccd6516dbba68d5fcd5bb96bbb0f018]
@startuml
skinparam monochrome true
skinparam shadowing false
skinparam spacing 50


component [**IRSApplication**] <<System>> {
	component [**IRS**] <<System>> as IRS
	component [**EDC Consumer**] <<System>> as EDC

}

component [**CatenaX-Network**] <<CX-Environment>> {
    component [**IAM/Keycloak**] <<System>> as IAM_IRS
    component [**MIW**] <<System>> as identity_wallet
}

component [**Tier/OEM**] <<Tier/OEM-Environment>> {

    component [**EDC_Provider_OEM**] <<System>> as EDCProviderOEM
    component [**EDC_Provider_Tier1**] <<System>> as EDCProviderTier1
    component [**EDC_Provider_Tier1.1**] <<System>> as EDCProviderTier11
    component [**SubmodelServer_OEM**] <<System>> as SubmodelServerOEM
    component [**SubmodelServer_Tier1**] <<System>> as SubmodelServerTier1
    component [**SubmodelServer_Tier1.1**] <<System>> as SubmodelServerTier11
    component [**Digital Twin Registry_OEM**] <<System>> as DT_REGOEM
    component [**Digital Twin Registry_Tier1**] <<System>> as DT_REG1
    component [**Digital Twin Registry_Tier1.1**] <<System>> as DT_REG11
}


actor IrsApiConsumer

IrsApiConsumer -right(0- IRS
IrsApiConsumer <.r.> IAM_IRS
IRS <.d.> EDC
IRS <.l.> IAM_IRS
EDC <..> identity_wallet
EDC <..> EDCProviderOEM
EDC <...> EDCProviderTier1
EDC <....> EDCProviderTier11
identity_wallet <..> EDCProviderOEM
identity_wallet <...> EDCProviderTier1
identity_wallet <....> EDCProviderTier11
EDCProviderOEM <..> SubmodelServerOEM
EDCProviderTier1 <..> SubmodelServerTier1
EDCProviderTier11 <..> SubmodelServerTier11
EDCProviderOEM <..> DT_REGOEM
EDCProviderTier1 <..> DT_REG1
EDCProviderTier11 <..> DT_REG11

@enduml

PlantUML version 1.2022.1(Tue Feb 01 19:19:58 CET 2022)
(GPL source distribution)
Java Runtime: OpenJDK Runtime Environment
JVM: OpenJDK 64-Bit Server VM
Default Encoding: Cp1252
Language: de
Country: DE
--></g></svg>
