<svg width="493" height="349" viewBox="0 0 493 349" fill="none" xmlns="http://www.w3.org/2000/svg">
<g filter="url(#filter0_ddddd_575_11645)">
<path d="M176.677 101.098C188.474 94.287 207.602 94.287 219.399 101.098L322.019 160.34C333.816 167.151 333.816 178.193 322.019 185.004L219.399 244.246C207.602 251.056 188.474 251.056 176.677 244.246L74.0575 185.004C62.26 178.193 62.26 167.151 74.0575 160.34L176.677 101.098Z" fill="#84A8CA" fill-opacity="0.9"/>
</g>
<g filter="url(#filter1_ddddd_575_11645)">
<path fill-rule="evenodd" clip-rule="evenodd" d="M320.951 174.461L218.331 115.218C207.124 108.748 188.952 108.748 177.745 115.218L75.1255 174.461C63.9179 180.931 63.9179 191.421 75.1256 197.891L177.745 257.133C188.953 263.603 207.124 263.603 218.331 257.133L320.951 197.891C332.158 191.421 332.158 180.931 320.951 174.461ZM219.399 114.602C207.602 107.791 188.474 107.791 176.677 114.602L74.0575 173.844C62.26 180.655 62.26 191.697 74.0575 198.508L176.677 257.75C188.474 264.561 207.602 264.561 219.399 257.75L322.019 198.508C333.816 191.697 333.816 180.655 322.019 173.844L219.399 114.602Z" fill="#84A8CA"/>
</g>
<g filter="url(#filter2_ddddd_575_11645)">
<path d="M177.359 71.054C189.157 64.2433 208.284 64.2433 220.082 71.054L322.701 130.296C334.499 137.107 334.499 148.149 322.701 154.96L220.082 214.202C208.284 221.013 189.157 221.013 177.359 214.202L74.7401 154.96C62.9426 148.149 62.9426 137.107 74.7401 130.296L177.359 71.054Z" fill="#4E6D8C" fill-opacity="0.9"/>
</g>
<g filter="url(#filter3_ddddd_575_11645)">
<path fill-rule="evenodd" clip-rule="evenodd" d="M321.633 144.417L219.014 85.175C207.806 78.7049 189.635 78.7049 178.427 85.175L75.8082 144.417C64.6005 150.887 64.6005 161.378 75.8082 167.848L178.427 227.09C189.635 233.56 207.806 233.56 219.014 227.09L321.633 167.848C332.841 161.378 332.841 150.887 321.633 144.417ZM220.082 84.5584C208.284 77.7477 189.157 77.7477 177.359 84.5584L74.7401 143.801C62.9426 150.611 62.9426 161.654 74.7401 168.464L177.359 227.706C189.157 234.517 208.284 234.517 220.082 227.706L322.701 168.464C334.499 161.654 334.499 150.611 322.701 143.801L220.082 84.5584Z" fill="#4E6D8C"/>
</g>
<g filter="url(#filter4_ddddd_575_11645)">
<path d="M177.359 42.3758C189.157 35.5651 208.284 35.5651 220.082 42.3758L322.701 101.618C334.499 108.429 334.499 119.471 322.701 126.282L220.082 185.524C208.284 192.335 189.157 192.335 177.359 185.524L74.7401 126.282C62.9426 119.471 62.9426 108.429 74.7401 101.618L177.359 42.3758Z" fill="#5D768F" fill-opacity="0.9"/>
</g>
<g filter="url(#filter5_ddddd_575_11645)">
<path fill-rule="evenodd" clip-rule="evenodd" d="M321.634 115.738L219.014 56.4963C207.807 50.0261 189.636 50.0261 178.428 56.4963L75.8087 115.738C64.601 122.209 64.601 132.699 75.8087 139.169L178.428 198.411C189.636 204.881 207.807 204.881 219.014 198.411L321.634 139.169C332.841 132.699 332.841 122.209 321.634 115.738ZM220.082 55.8797C208.285 49.069 189.157 49.069 177.36 55.8797L74.7406 115.122C62.9431 121.933 62.9431 132.975 74.7406 139.786L177.36 199.028C189.157 205.838 208.285 205.838 220.082 199.028L322.702 139.786C334.499 132.975 334.499 121.933 322.702 115.122L220.082 55.8797Z" fill="#5D768F"/>
</g>
<g filter="url(#filter6_ddddd_575_11645)">
<path fill-rule="evenodd" clip-rule="evenodd" d="M321.633 85.695L219.014 26.4528C207.806 19.9827 189.635 19.9827 178.427 26.4529L75.8082 85.695C64.6005 92.1652 64.6005 102.655 75.8082 109.126L178.427 168.368C189.635 174.838 207.806 174.838 219.014 168.368L321.633 109.126C332.841 102.655 332.841 92.1652 321.633 85.695ZM220.082 25.8363C208.284 19.0256 189.157 19.0256 177.359 25.8363L74.7401 85.0784C62.9426 91.8891 62.9426 102.931 74.7401 109.742L177.359 168.984C189.157 175.795 208.284 175.795 220.082 168.984L322.701 109.742C334.499 102.931 334.499 91.8891 322.701 85.0784L220.082 25.8363Z" fill="#6F879E"/>
</g>
<path d="M177.359 12.3319C189.157 5.52117 208.284 5.52116 220.082 12.3319L322.701 71.574C334.499 78.3847 334.499 89.427 322.701 96.2377L220.082 155.48C208.284 162.291 189.157 162.291 177.359 155.48L74.7401 96.2377C62.9426 89.427 62.9426 78.3847 74.7401 71.574L177.359 12.3319Z" fill="url(#paint0_linear_575_11645)"/>
<path fill-rule="evenodd" clip-rule="evenodd" d="M240.661 95.7047C236.223 98.2671 228.997 98.2717 224.551 95.7047C220.104 93.1377 220.105 88.9615 224.551 86.4041C228.989 83.8418 236.215 83.8371 240.661 86.4041C245.1 88.9665 245.108 93.1377 240.661 95.7047ZM238.29 94.3345C241.423 92.5259 241.423 89.582 238.29 87.7732C235.157 85.9645 230.057 85.9644 226.924 87.7732C223.791 89.5819 223.791 92.5259 226.924 94.3345C230.057 96.1432 235.157 96.1433 238.29 94.3345ZM218.702 83.8495C213.541 86.8287 205.14 86.8287 199.979 83.8495C194.818 80.8703 194.818 76.0202 199.979 73.041C205.14 70.0618 213.541 70.0618 218.702 73.041C223.862 76.0202 223.862 80.8703 218.702 83.8495ZM216.336 82.4754C220.191 80.2498 220.191 76.6323 216.336 74.4067C212.489 72.1858 206.207 72.1858 202.359 74.4067C198.504 76.6323 198.504 80.2498 202.359 82.4754C206.214 84.7009 212.481 84.7009 216.336 82.4754ZM226.656 110.299C226.668 110.292 226.675 110.286 226.683 110.279C226.691 110.272 226.699 110.266 226.71 110.259L234.051 104.389C235.941 102.873 235.656 100.821 233.368 99.4996L232.846 99.1981C232.539 99.0209 232.116 98.9185 231.678 98.9145C228.322 98.8833 225.166 98.1077 222.793 96.7377C220.413 95.3635 219.077 93.5458 219.03 91.6128C219.022 91.3601 218.846 91.1161 218.539 90.9389L217.587 90.3891C215.859 89.3915 213.364 89.0681 211.121 89.4407C210.813 89.1482 210.445 88.8733 210.015 88.6249L209.401 88.2702C209.094 88.093 208.671 87.9907 208.234 87.9867C204.164 87.9514 200.331 87.0157 197.444 85.3489C194.557 83.6821 192.936 81.4698 192.867 79.1158C192.859 78.8632 192.691 78.6235 192.376 78.442L191.24 77.7858C190.832 77.5508 190.364 77.3424 189.881 77.1695C190.534 75.8704 189.973 74.4477 188.237 73.4457L187.715 73.1442C187.408 72.967 186.985 72.8646 186.548 72.8606C183.192 72.8293 180.036 72.0537 177.663 70.6838C175.282 69.3096 173.946 67.4918 173.9 65.5588C173.891 65.3062 173.715 65.0622 173.408 64.885L172.456 64.3352C170.16 63.0098 166.596 62.8412 163.978 63.9359L153.818 68.1787C153.807 68.1853 153.795 68.1898 153.784 68.1943C153.772 68.1988 153.761 68.2033 153.749 68.2099C152.444 68.8126 151.653 69.7128 151.561 70.6792C151.469 71.6458 152.099 72.5853 153.282 73.2681L169.255 82.4892C167.873 83.172 167.027 84.156 166.92 85.2111C166.82 86.3061 167.527 87.3788 168.871 88.1547L192.062 101.543C193.406 102.319 195.272 102.731 197.169 102.674C198.989 102.616 200.694 102.128 201.876 101.33L217.888 110.574C219.07 111.256 220.706 111.615 222.38 111.562C224.053 111.508 225.603 111.047 226.655 110.298L226.656 110.299ZM154.909 70.7852C154.947 70.373 155.27 70.0004 155.823 69.7344L165.951 65.5093C167.226 64.9775 168.962 65.0572 170.083 65.7045L170.575 65.9884C170.805 68.2761 172.463 70.4216 175.297 72.0575C178.131 73.6933 181.84 74.6554 185.81 74.7837L185.864 74.8147C186.67 75.2801 186.97 75.9319 186.716 76.5393C186.677 76.5349 186.631 76.5349 186.585 76.5349L186.585 76.5349C186.543 76.5328 186.503 76.5316 186.462 76.5305L186.462 76.5305C186.422 76.5293 186.382 76.5281 186.339 76.526C186.155 76.5173 185.971 76.5173 185.779 76.5217C185.737 76.5238 185.696 76.5238 185.654 76.5239C185.611 76.5239 185.568 76.5239 185.526 76.5263C185.318 76.5309 185.111 76.5442 184.911 76.5618C184.884 76.564 184.856 76.5652 184.827 76.5663C184.798 76.5675 184.769 76.5687 184.742 76.5708C184.481 76.5974 184.228 76.6283 183.975 76.6682C183.944 76.6727 183.914 76.6792 183.883 76.6857C183.852 76.6924 183.821 76.6991 183.791 76.7035C183.599 76.7344 183.406 76.7743 183.222 76.8188C183.184 76.8276 183.144 76.8376 183.103 76.8476C183.063 76.8576 183.023 76.8675 182.984 76.8763C182.816 76.9206 182.639 76.9694 182.478 77.018C182.449 77.027 182.419 77.0354 182.389 77.0439C182.345 77.0562 182.3 77.0688 182.255 77.0845C182.017 77.1599 181.795 77.244 181.58 77.3328L171.987 81.3275L155.654 71.8982C155.139 71.6013 154.871 71.2067 154.909 70.7855L154.909 70.7852ZM196.983 100.731C196.023 100.762 195.117 100.559 194.441 100.168L171.25 86.78C170.574 86.3898 170.229 85.8712 170.275 85.3127C170.329 84.7675 170.751 84.2752 171.48 83.9338L172.793 83.3887C172.797 83.3867 172.799 83.3857 172.8 83.3855C172.801 83.3853 172.802 83.3855 172.803 83.3858C172.804 83.3863 172.806 83.3873 172.808 83.3887L183.537 78.9066C184.604 78.4588 185.94 78.3348 187.2 78.5742C187.829 78.6895 188.405 78.889 188.874 79.1596L189.542 79.5452C189.788 82.2581 191.738 84.7942 195.079 86.7227C198.419 88.651 202.811 89.7773 207.504 89.9146L207.65 89.9987C208.141 90.2826 208.487 90.615 208.686 90.996C209.062 91.7097 208.847 92.4633 208.08 93.0753L200.331 99.2777L199.379 100.04C198.773 100.453 197.928 100.701 196.983 100.732L196.983 100.731ZM222.202 109.624C221.472 109.647 220.781 109.496 220.267 109.199L203.88 99.7391L210.798 94.2105C210.952 94.0865 211.098 93.9578 211.221 93.8249L211.233 93.8125L211.233 93.8124C211.267 93.7765 211.302 93.74 211.336 93.6965C211.42 93.6034 211.497 93.5057 211.574 93.4083C211.584 93.3957 211.593 93.3834 211.602 93.3712C211.611 93.3599 211.619 93.3486 211.628 93.3373C211.645 93.3141 211.662 93.2908 211.682 93.2664C211.751 93.1646 211.812 93.0579 211.866 92.9559L211.935 92.8362C211.997 92.6943 212.058 92.5526 212.104 92.4107C212.107 92.3966 212.11 92.3825 212.112 92.3685L212.116 92.3509C212.12 92.331 212.123 92.311 212.127 92.291C212.158 92.1847 212.181 92.0739 212.189 91.9629L212.19 91.9576L212.19 91.9576C212.197 91.9018 212.204 91.8458 212.197 91.7901C212.205 91.697 212.197 91.6039 212.189 91.5108C212.185 91.4821 212.183 91.4521 212.181 91.4222C212.179 91.3923 212.177 91.3624 212.173 91.3336C212.17 91.3227 212.17 91.3117 212.17 91.3008C212.169 91.2896 212.169 91.2783 212.165 91.2671C213.225 91.1162 214.385 91.2891 215.199 91.7591L215.69 92.043C215.921 94.3307 217.579 96.4762 220.413 98.1121C223.247 99.748 226.956 100.71 230.926 100.838L230.979 100.869C232.093 101.512 232.231 102.514 231.309 103.25L223.999 109.093C223.561 109.417 222.917 109.603 222.202 109.625L222.202 109.624ZM195.531 69.6512C191.093 72.2136 183.867 72.2182 179.42 69.6512C174.974 67.0846 174.983 62.9127 179.42 60.3506C183.859 57.7883 191.093 57.7883 195.531 60.3506C199.969 62.913 199.978 67.0843 195.531 69.6512ZM193.159 68.2811C196.292 66.4724 196.293 63.5285 193.159 61.7197C190.026 59.911 184.928 59.9113 181.794 61.7197C178.661 63.5284 178.661 66.4724 181.794 68.2811C184.927 70.0897 190.026 70.0898 193.159 68.2811Z" fill="white"/>
<defs>
<filter id="filter0_ddddd_575_11645" x="0.209473" y="81.9897" width="417.657" height="433.364" filterUnits="userSpaceOnUse" color-interpolation-filters="sRGB">
<feFlood flood-opacity="0" result="BackgroundImageFix"/>
<feColorMatrix in="SourceAlpha" type="matrix" values="0 0 0 0 0 0 0 0 0 0 0 0 0 0 0 0 0 0 127 0" result="hardAlpha"/>
<feOffset/>
<feColorMatrix type="matrix" values="0 0 0 0 0 0 0 0 0 0 0 0 0 0 0 0 0 0 0.1 0"/>
<feBlend mode="normal" in2="BackgroundImageFix" result="effect1_dropShadow_575_11645"/>
<feColorMatrix in="SourceAlpha" type="matrix" values="0 0 0 0 0 0 0 0 0 0 0 0 0 0 0 0 0 0 127 0" result="hardAlpha"/>
<feOffset dx="1" dy="12"/>
<feGaussianBlur stdDeviation="13"/>
<feColorMatrix type="matrix" values="0 0 0 0 0 0 0 0 0 0 0 0 0 0 0 0 0 0 0.1 0"/>
<feBlend mode="normal" in2="effect1_dropShadow_575_11645" result="effect2_dropShadow_575_11645"/>
<feColorMatrix in="SourceAlpha" type="matrix" values="0 0 0 0 0 0 0 0 0 0 0 0 0 0 0 0 0 0 127 0" result="hardAlpha"/>
<feOffset dx="3" dy="47"/>
<feGaussianBlur stdDeviation="24"/>
<feColorMatrix type="matrix" values="0 0 0 0 0 0 0 0 0 0 0 0 0 0 0 0 0 0 0.09 0"/>
<feBlend mode="normal" in2="effect2_dropShadow_575_11645" result="effect3_dropShadow_575_11645"/>
<feColorMatrix in="SourceAlpha" type="matrix" values="0 0 0 0 0 0 0 0 0 0 0 0 0 0 0 0 0 0 127 0" result="hardAlpha"/>
<feOffset dx="6" dy="107"/>
<feGaussianBlur stdDeviation="32"/>
<feColorMatrix type="matrix" values="0 0 0 0 0 0 0 0 0 0 0 0 0 0 0 0 0 0 0.05 0"/>
<feBlend mode="normal" in2="effect3_dropShadow_575_11645" result="effect4_dropShadow_575_11645"/>
<feColorMatrix in="SourceAlpha" type="matrix" values="0 0 0 0 0 0 0 0 0 0 0 0 0 0 0 0 0 0 127 0" result="hardAlpha"/>
<feOffset dx="11" dy="190"/>
<feGaussianBlur stdDeviation="38"/>
<feColorMatrix type="matrix" values="0 0 0 0 0 0 0 0 0 0 0 0 0 0 0 0 0 0 0.01 0"/>
<feBlend mode="normal" in2="effect4_dropShadow_575_11645" result="effect5_dropShadow_575_11645"/>
<feBlend mode="normal" in="SourceGraphic" in2="effect5_dropShadow_575_11645" result="shape"/>
</filter>
<filter id="filter1_ddddd_575_11645" x="0.209473" y="95.4939" width="417.657" height="433.364" filterUnits="userSpaceOnUse" color-interpolation-filters="sRGB">
<feFlood flood-opacity="0" result="BackgroundImageFix"/>
<feColorMatrix in="SourceAlpha" type="matrix" values="0 0 0 0 0 0 0 0 0 0 0 0 0 0 0 0 0 0 127 0" result="hardAlpha"/>
<feOffset/>
<feColorMatrix type="matrix" values="0 0 0 0 0 0 0 0 0 0 0 0 0 0 0 0 0 0 0.1 0"/>
<feBlend mode="normal" in2="BackgroundImageFix" result="effect1_dropShadow_575_11645"/>
<feColorMatrix in="SourceAlpha" type="matrix" values="0 0 0 0 0 0 0 0 0 0 0 0 0 0 0 0 0 0 127 0" result="hardAlpha"/>
<feOffset dx="1" dy="12"/>
<feGaussianBlur stdDeviation="13"/>
<feColorMatrix type="matrix" values="0 0 0 0 0 0 0 0 0 0 0 0 0 0 0 0 0 0 0.1 0"/>
<feBlend mode="normal" in2="effect1_dropShadow_575_11645" result="effect2_dropShadow_575_11645"/>
<feColorMatrix in="SourceAlpha" type="matrix" values="0 0 0 0 0 0 0 0 0 0 0 0 0 0 0 0 0 0 127 0" result="hardAlpha"/>
<feOffset dx="3" dy="47"/>
<feGaussianBlur stdDeviation="24"/>
<feColorMatrix type="matrix" values="0 0 0 0 0 0 0 0 0 0 0 0 0 0 0 0 0 0 0.09 0"/>
<feBlend mode="normal" in2="effect2_dropShadow_575_11645" result="effect3_dropShadow_575_11645"/>
<feColorMatrix in="SourceAlpha" type="matrix" values="0 0 0 0 0 0 0 0 0 0 0 0 0 0 0 0 0 0 127 0" result="hardAlpha"/>
<feOffset dx="6" dy="107"/>
<feGaussianBlur stdDeviation="32"/>
<feColorMatrix type="matrix" values="0 0 0 0 0 0 0 0 0 0 0 0 0 0 0 0 0 0 0.05 0"/>
<feBlend mode="normal" in2="effect3_dropShadow_575_11645" result="effect4_dropShadow_575_11645"/>
<feColorMatrix in="SourceAlpha" type="matrix" values="0 0 0 0 0 0 0 0 0 0 0 0 0 0 0 0 0 0 127 0" result="hardAlpha"/>
<feOffset dx="11" dy="190"/>
<feGaussianBlur stdDeviation="38"/>
<feColorMatrix type="matrix" values="0 0 0 0 0 0 0 0 0 0 0 0 0 0 0 0 0 0 0.01 0"/>
<feBlend mode="normal" in2="effect4_dropShadow_575_11645" result="effect5_dropShadow_575_11645"/>
<feBlend mode="normal" in="SourceGraphic" in2="effect5_dropShadow_575_11645" result="shape"/>
</filter>
<filter id="filter2_ddddd_575_11645" x="0.89209" y="51.946" width="417.657" height="433.364" filterUnits="userSpaceOnUse" color-interpolation-filters="sRGB">
<feFlood flood-opacity="0" result="BackgroundImageFix"/>
<feColorMatrix in="SourceAlpha" type="matrix" values="0 0 0 0 0 0 0 0 0 0 0 0 0 0 0 0 0 0 127 0" result="hardAlpha"/>
<feOffset/>
<feColorMatrix type="matrix" values="0 0 0 0 0 0 0 0 0 0 0 0 0 0 0 0 0 0 0.1 0"/>
<feBlend mode="normal" in2="BackgroundImageFix" result="effect1_dropShadow_575_11645"/>
<feColorMatrix in="SourceAlpha" type="matrix" values="0 0 0 0 0 0 0 0 0 0 0 0 0 0 0 0 0 0 127 0" result="hardAlpha"/>
<feOffset dx="1" dy="12"/>
<feGaussianBlur stdDeviation="13"/>
<feColorMatrix type="matrix" values="0 0 0 0 0 0 0 0 0 0 0 0 0 0 0 0 0 0 0.1 0"/>
<feBlend mode="normal" in2="effect1_dropShadow_575_11645" result="effect2_dropShadow_575_11645"/>
<feColorMatrix in="SourceAlpha" type="matrix" values="0 0 0 0 0 0 0 0 0 0 0 0 0 0 0 0 0 0 127 0" result="hardAlpha"/>
<feOffset dx="3" dy="47"/>
<feGaussianBlur stdDeviation="24"/>
<feColorMatrix type="matrix" values="0 0 0 0 0 0 0 0 0 0 0 0 0 0 0 0 0 0 0.09 0"/>
<feBlend mode="normal" in2="effect2_dropShadow_575_11645" result="effect3_dropShadow_575_11645"/>
<feColorMatrix in="SourceAlpha" type="matrix" values="0 0 0 0 0 0 0 0 0 0 0 0 0 0 0 0 0 0 127 0" result="hardAlpha"/>
<feOffset dx="6" dy="107"/>
<feGaussianBlur stdDeviation="32"/>
<feColorMatrix type="matrix" values="0 0 0 0 0 0 0 0 0 0 0 0 0 0 0 0 0 0 0.05 0"/>
<feBlend mode="normal" in2="effect3_dropShadow_575_11645" result="effect4_dropShadow_575_11645"/>
<feColorMatrix in="SourceAlpha" type="matrix" values="0 0 0 0 0 0 0 0 0 0 0 0 0 0 0 0 0 0 127 0" result="hardAlpha"/>
<feOffset dx="11" dy="190"/>
<feGaussianBlur stdDeviation="38"/>
<feColorMatrix type="matrix" values="0 0 0 0 0 0 0 0 0 0 0 0 0 0 0 0 0 0 0.01 0"/>
<feBlend mode="normal" in2="effect4_dropShadow_575_11645" result="effect5_dropShadow_575_11645"/>
<feBlend mode="normal" in="SourceGraphic" in2="effect5_dropShadow_575_11645" result="shape"/>
</filter>
<filter id="filter3_ddddd_575_11645" x="0.89209" y="65.4504" width="417.657" height="433.364" filterUnits="userSpaceOnUse" color-interpolation-filters="sRGB">
<feFlood flood-opacity="0" result="BackgroundImageFix"/>
<feColorMatrix in="SourceAlpha" type="matrix" values="0 0 0 0 0 0 0 0 0 0 0 0 0 0 0 0 0 0 127 0" result="hardAlpha"/>
<feOffset/>
<feColorMatrix type="matrix" values="0 0 0 0 0 0 0 0 0 0 0 0 0 0 0 0 0 0 0.1 0"/>
<feBlend mode="normal" in2="BackgroundImageFix" result="effect1_dropShadow_575_11645"/>
<feColorMatrix in="SourceAlpha" type="matrix" values="0 0 0 0 0 0 0 0 0 0 0 0 0 0 0 0 0 0 127 0" result="hardAlpha"/>
<feOffset dx="1" dy="12"/>
<feGaussianBlur stdDeviation="13"/>
<feColorMatrix type="matrix" values="0 0 0 0 0 0 0 0 0 0 0 0 0 0 0 0 0 0 0.1 0"/>
<feBlend mode="normal" in2="effect1_dropShadow_575_11645" result="effect2_dropShadow_575_11645"/>
<feColorMatrix in="SourceAlpha" type="matrix" values="0 0 0 0 0 0 0 0 0 0 0 0 0 0 0 0 0 0 127 0" result="hardAlpha"/>
<feOffset dx="3" dy="47"/>
<feGaussianBlur stdDeviation="24"/>
<feColorMatrix type="matrix" values="0 0 0 0 0 0 0 0 0 0 0 0 0 0 0 0 0 0 0.09 0"/>
<feBlend mode="normal" in2="effect2_dropShadow_575_11645" result="effect3_dropShadow_575_11645"/>
<feColorMatrix in="SourceAlpha" type="matrix" values="0 0 0 0 0 0 0 0 0 0 0 0 0 0 0 0 0 0 127 0" result="hardAlpha"/>
<feOffset dx="6" dy="107"/>
<feGaussianBlur stdDeviation="32"/>
<feColorMatrix type="matrix" values="0 0 0 0 0 0 0 0 0 0 0 0 0 0 0 0 0 0 0.05 0"/>
<feBlend mode="normal" in2="effect3_dropShadow_575_11645" result="effect4_dropShadow_575_11645"/>
<feColorMatrix in="SourceAlpha" type="matrix" values="0 0 0 0 0 0 0 0 0 0 0 0 0 0 0 0 0 0 127 0" result="hardAlpha"/>
<feOffset dx="11" dy="190"/>
<feGaussianBlur stdDeviation="38"/>
<feColorMatrix type="matrix" values="0 0 0 0 0 0 0 0 0 0 0 0 0 0 0 0 0 0 0.01 0"/>
<feBlend mode="normal" in2="effect4_dropShadow_575_11645" result="effect5_dropShadow_575_11645"/>
<feBlend mode="normal" in="SourceGraphic" in2="effect5_dropShadow_575_11645" result="shape"/>
</filter>
<filter id="filter4_ddddd_575_11645" x="0.89209" y="23.2678" width="417.657" height="433.364" filterUnits="userSpaceOnUse" color-interpolation-filters="sRGB">
<feFlood flood-opacity="0" result="BackgroundImageFix"/>
<feColorMatrix in="SourceAlpha" type="matrix" values="0 0 0 0 0 0 0 0 0 0 0 0 0 0 0 0 0 0 127 0" result="hardAlpha"/>
<feOffset/>
<feColorMatrix type="matrix" values="0 0 0 0 0 0 0 0 0 0 0 0 0 0 0 0 0 0 0.1 0"/>
<feBlend mode="normal" in2="BackgroundImageFix" result="effect1_dropShadow_575_11645"/>
<feColorMatrix in="SourceAlpha" type="matrix" values="0 0 0 0 0 0 0 0 0 0 0 0 0 0 0 0 0 0 127 0" result="hardAlpha"/>
<feOffset dx="1" dy="12"/>
<feGaussianBlur stdDeviation="13"/>
<feColorMatrix type="matrix" values="0 0 0 0 0 0 0 0 0 0 0 0 0 0 0 0 0 0 0.1 0"/>
<feBlend mode="normal" in2="effect1_dropShadow_575_11645" result="effect2_dropShadow_575_11645"/>
<feColorMatrix in="SourceAlpha" type="matrix" values="0 0 0 0 0 0 0 0 0 0 0 0 0 0 0 0 0 0 127 0" result="hardAlpha"/>
<feOffset dx="3" dy="47"/>
<feGaussianBlur stdDeviation="24"/>
<feColorMatrix type="matrix" values="0 0 0 0 0 0 0 0 0 0 0 0 0 0 0 0 0 0 0.09 0"/>
<feBlend mode="normal" in2="effect2_dropShadow_575_11645" result="effect3_dropShadow_575_11645"/>
<feColorMatrix in="SourceAlpha" type="matrix" values="0 0 0 0 0 0 0 0 0 0 0 0 0 0 0 0 0 0 127 0" result="hardAlpha"/>
<feOffset dx="6" dy="107"/>
<feGaussianBlur stdDeviation="32"/>
<feColorMatrix type="matrix" values="0 0 0 0 0 0 0 0 0 0 0 0 0 0 0 0 0 0 0.05 0"/>
<feBlend mode="normal" in2="effect3_dropShadow_575_11645" result="effect4_dropShadow_575_11645"/>
<feColorMatrix in="SourceAlpha" type="matrix" values="0 0 0 0 0 0 0 0 0 0 0 0 0 0 0 0 0 0 127 0" result="hardAlpha"/>
<feOffset dx="11" dy="190"/>
<feGaussianBlur stdDeviation="38"/>
<feColorMatrix type="matrix" values="0 0 0 0 0 0 0 0 0 0 0 0 0 0 0 0 0 0 0.01 0"/>
<feBlend mode="normal" in2="effect4_dropShadow_575_11645" result="effect5_dropShadow_575_11645"/>
<feBlend mode="normal" in="SourceGraphic" in2="effect5_dropShadow_575_11645" result="shape"/>
</filter>
<filter id="filter5_ddddd_575_11645" x="0.892578" y="36.7717" width="417.657" height="433.364" filterUnits="userSpaceOnUse" color-interpolation-filters="sRGB">
<feFlood flood-opacity="0" result="BackgroundImageFix"/>
<feColorMatrix in="SourceAlpha" type="matrix" values="0 0 0 0 0 0 0 0 0 0 0 0 0 0 0 0 0 0 127 0" result="hardAlpha"/>
<feOffset/>
<feColorMatrix type="matrix" values="0 0 0 0 0 0 0 0 0 0 0 0 0 0 0 0 0 0 0.1 0"/>
<feBlend mode="normal" in2="BackgroundImageFix" result="effect1_dropShadow_575_11645"/>
<feColorMatrix in="SourceAlpha" type="matrix" values="0 0 0 0 0 0 0 0 0 0 0 0 0 0 0 0 0 0 127 0" result="hardAlpha"/>
<feOffset dx="1" dy="12"/>
<feGaussianBlur stdDeviation="13"/>
<feColorMatrix type="matrix" values="0 0 0 0 0 0 0 0 0 0 0 0 0 0 0 0 0 0 0.1 0"/>
<feBlend mode="normal" in2="effect1_dropShadow_575_11645" result="effect2_dropShadow_575_11645"/>
<feColorMatrix in="SourceAlpha" type="matrix" values="0 0 0 0 0 0 0 0 0 0 0 0 0 0 0 0 0 0 127 0" result="hardAlpha"/>
<feOffset dx="3" dy="47"/>
<feGaussianBlur stdDeviation="24"/>
<feColorMatrix type="matrix" values="0 0 0 0 0 0 0 0 0 0 0 0 0 0 0 0 0 0 0.09 0"/>
<feBlend mode="normal" in2="effect2_dropShadow_575_11645" result="effect3_dropShadow_575_11645"/>
<feColorMatrix in="SourceAlpha" type="matrix" values="0 0 0 0 0 0 0 0 0 0 0 0 0 0 0 0 0 0 127 0" result="hardAlpha"/>
<feOffset dx="6" dy="107"/>
<feGaussianBlur stdDeviation="32"/>
<feColorMatrix type="matrix" values="0 0 0 0 0 0 0 0 0 0 0 0 0 0 0 0 0 0 0.05 0"/>
<feBlend mode="normal" in2="effect3_dropShadow_575_11645" result="effect4_dropShadow_575_11645"/>
<feColorMatrix in="SourceAlpha" type="matrix" values="0 0 0 0 0 0 0 0 0 0 0 0 0 0 0 0 0 0 127 0" result="hardAlpha"/>
<feOffset dx="11" dy="190"/>
<feGaussianBlur stdDeviation="38"/>
<feColorMatrix type="matrix" values="0 0 0 0 0 0 0 0 0 0 0 0 0 0 0 0 0 0 0.01 0"/>
<feBlend mode="normal" in2="effect4_dropShadow_575_11645" result="effect5_dropShadow_575_11645"/>
<feBlend mode="normal" in="SourceGraphic" in2="effect5_dropShadow_575_11645" result="shape"/>
</filter>
<filter id="filter6_ddddd_575_11645" x="0.89209" y="6.72827" width="417.657" height="433.364" filterUnits="userSpaceOnUse" color-interpolation-filters="sRGB">
<feFlood flood-opacity="0" result="BackgroundImageFix"/>
<feColorMatrix in="SourceAlpha" type="matrix" values="0 0 0 0 0 0 0 0 0 0 0 0 0 0 0 0 0 0 127 0" result="hardAlpha"/>
<feOffset/>
<feColorMatrix type="matrix" values="0 0 0 0 0 0 0 0 0 0 0 0 0 0 0 0 0 0 0.1 0"/>
<feBlend mode="normal" in2="BackgroundImageFix" result="effect1_dropShadow_575_11645"/>
<feColorMatrix in="SourceAlpha" type="matrix" values="0 0 0 0 0 0 0 0 0 0 0 0 0 0 0 0 0 0 127 0" result="hardAlpha"/>
<feOffset dx="1" dy="12"/>
<feGaussianBlur stdDeviation="13"/>
<feColorMatrix type="matrix" values="0 0 0 0 0 0 0 0 0 0 0 0 0 0 0 0 0 0 0.1 0"/>
<feBlend mode="normal" in2="effect1_dropShadow_575_11645" result="effect2_dropShadow_575_11645"/>
<feColorMatrix in="SourceAlpha" type="matrix" values="0 0 0 0 0 0 0 0 0 0 0 0 0 0 0 0 0 0 127 0" result="hardAlpha"/>
<feOffset dx="3" dy="47"/>
<feGaussianBlur stdDeviation="24"/>
<feColorMatrix type="matrix" values="0 0 0 0 0 0 0 0 0 0 0 0 0 0 0 0 0 0 0.09 0"/>
<feBlend mode="normal" in2="effect2_dropShadow_575_11645" result="effect3_dropShadow_575_11645"/>
<feColorMatrix in="SourceAlpha" type="matrix" values="0 0 0 0 0 0 0 0 0 0 0 0 0 0 0 0 0 0 127 0" result="hardAlpha"/>
<feOffset dx="6" dy="107"/>
<feGaussianBlur stdDeviation="32"/>
<feColorMatrix type="matrix" values="0 0 0 0 0 0 0 0 0 0 0 0 0 0 0 0 0 0 0.05 0"/>
<feBlend mode="normal" in2="effect3_dropShadow_575_11645" result="effect4_dropShadow_575_11645"/>
<feColorMatrix in="SourceAlpha" type="matrix" values="0 0 0 0 0 0 0 0 0 0 0 0 0 0 0 0 0 0 127 0" result="hardAlpha"/>
<feOffset dx="11" dy="190"/>
<feGaussianBlur stdDeviation="38"/>
<feColorMatrix type="matrix" values="0 0 0 0 0 0 0 0 0 0 0 0 0 0 0 0 0 0 0.01 0"/>
<feBlend mode="normal" in2="effect4_dropShadow_575_11645" result="effect5_dropShadow_575_11645"/>
<feBlend mode="normal" in="SourceGraphic" in2="effect5_dropShadow_575_11645" result="shape"/>
</filter>
<linearGradient id="paint0_linear_575_11645" x1="198.721" y1="0" x2="172.069" y2="163.466" gradientUnits="userSpaceOnUse">
<stop stop-color="#6F879E"/>
<stop offset="1" stop-color="#153351"/>
</linearGradient>
</defs>
</svg>
