<svg width="285" height="245" viewBox="0 0 285 245" fill="none" xmlns="http://www.w3.org/2000/svg">
<g clip-path="url(#clip0_863_972)">
<path d="M123.048 91.8369C133.705 85.6844 150.984 85.6844 161.642 91.8369L254.344 145.354C265.002 151.507 265.002 161.482 254.344 167.635L161.642 221.152C150.984 227.304 133.705 227.304 123.048 221.152L30.3451 167.635C19.6876 161.482 19.6876 151.507 30.345 145.354L123.048 91.8369Z" fill="#E3DEE6" fill-opacity="0.9"/>
<path fill-rule="evenodd" clip-rule="evenodd" d="M253.38 158.11L160.677 104.593C150.552 98.7483 134.137 98.7483 124.013 104.593L31.3099 158.11C21.1853 163.955 21.1853 173.432 31.3099 179.277L124.013 232.794C134.137 238.639 150.552 238.639 160.677 232.794L253.38 179.277C263.504 173.432 263.504 163.955 253.38 158.11ZM161.642 104.036C150.984 97.8836 133.705 97.8836 123.048 104.036L30.345 157.553C19.6876 163.706 19.6876 173.681 30.3451 179.834L123.048 233.351C133.705 239.504 150.984 239.504 161.642 233.351L254.344 179.834C265.002 173.681 265.002 163.706 254.344 157.553L161.642 104.036Z" fill="#E5E0E7"/>
<path d="M123.664 64.6968C134.321 58.5443 151.601 58.5443 162.258 64.6968L254.961 118.214C265.618 124.367 265.618 134.342 254.961 140.494L162.258 194.012C151.601 200.164 134.321 200.164 123.664 194.012L30.9613 140.494C20.3038 134.342 20.3038 124.367 30.9613 118.214L123.664 64.6968Z" fill="#D7C9DE"/>
<g filter="url(#filter0_ddddd_863_972)">
<path fill-rule="evenodd" clip-rule="evenodd" d="M253.996 130.97L161.293 77.453C151.169 71.6081 134.753 71.6081 124.629 77.453L31.9261 130.97C21.8015 136.815 21.8015 146.292 31.9261 152.137L124.629 205.654C134.753 211.499 151.169 211.499 161.293 205.654L253.996 152.137C264.12 146.292 264.12 136.815 253.996 130.97ZM162.258 76.896C151.601 70.7435 134.321 70.7435 123.664 76.896L30.9613 130.413C20.3038 136.566 20.3038 146.541 30.9613 152.694L123.664 206.211C134.321 212.363 151.601 212.363 162.258 206.211L254.961 152.694C265.618 146.541 265.618 136.566 254.961 130.413L162.258 76.896Z" fill="#D7C9DE"/>
</g>
<path d="M123.664 38.7896C134.321 32.637 151.601 32.637 162.258 38.7896L254.961 92.3068C265.618 98.4594 265.618 108.435 254.961 114.587L162.258 168.104C151.601 174.257 134.321 174.257 123.664 168.104L30.9613 114.587C20.3038 108.435 20.3038 98.4594 30.9613 92.3068L123.664 38.7896Z" fill="#C4B0CF"/>
<path fill-rule="evenodd" clip-rule="evenodd" d="M253.996 105.063L161.293 51.5458C151.169 45.7009 134.753 45.7009 124.629 51.5458L31.9261 105.063C21.8015 110.908 21.8015 120.384 31.9261 126.229L124.629 179.747C134.753 185.592 151.169 185.592 161.293 179.747L253.996 126.229C264.12 120.384 264.12 110.908 253.996 105.063ZM162.258 50.9888C151.601 44.8363 134.321 44.8363 123.664 50.9888L30.9613 104.506C20.3038 110.659 20.3038 120.634 30.9613 126.786L123.664 180.304C134.321 186.456 151.601 186.456 162.258 180.304L254.961 126.786C265.618 120.634 265.618 110.659 254.961 104.506L162.258 50.9888Z" fill="#C4B0CF"/>
<path d="M123.664 11.649C134.322 5.49642 151.601 5.49641 162.258 11.649L254.961 65.1662C265.619 71.3187 265.619 81.294 254.961 87.4465L162.258 140.964C151.601 147.116 134.322 147.116 123.664 140.964L30.9618 87.4465C20.3043 81.294 20.3043 71.3188 30.9617 65.1662L123.664 11.649Z" fill="#B698C5"/>
<path fill-rule="evenodd" clip-rule="evenodd" d="M253.996 77.9224L161.294 24.4052C151.169 18.5603 134.754 18.5603 124.629 24.4052L31.9266 77.9224C21.802 83.7673 21.802 93.2438 31.9266 99.0888L124.629 152.606C134.754 158.451 151.169 158.451 161.294 152.606L253.996 99.0888C264.121 93.2438 264.121 83.7673 253.996 77.9224ZM162.258 23.8482C151.601 17.6956 134.322 17.6956 123.664 23.8482L30.9617 77.3654C20.3043 83.518 20.3043 93.4932 30.9618 99.6458L123.664 153.163C134.322 159.316 151.601 159.316 162.258 153.163L254.961 99.6458C265.619 93.4932 265.619 83.518 254.961 77.3654L162.258 23.8482Z" fill="#B698C5"/>
<path fill-rule="evenodd" clip-rule="evenodd" d="M82.775 66.2967C85.6021 65.9446 88.5455 66.4452 90.5906 67.6258L155.063 104.846C157.108 106.026 157.975 107.726 157.365 109.358L156.496 111.685C155.074 115.49 146.92 116.876 142.152 114.124L74.5187 75.079C69.7511 72.3267 72.1532 67.6193 78.7441 66.7986L82.775 66.2967ZM87.8119 69.23C86.7107 68.5943 85.1258 68.3247 83.6035 68.5143L79.5726 69.0162C76.0237 69.4581 74.7302 71.9929 77.2974 73.4749L144.931 112.52C147.498 114.002 151.889 113.255 152.655 111.206L153.524 108.879C153.852 108.001 153.385 107.086 152.284 106.45L87.8119 69.23Z" fill="white"/>
<path fill-rule="evenodd" clip-rule="evenodd" d="M133.748 45.1447C131.957 44.1111 129.054 44.1111 127.264 45.1447L92.699 65.0991C90.9086 66.1327 90.9086 67.8085 92.699 68.8421L152.956 103.628C154.746 104.662 157.649 104.662 159.44 103.628L194.005 83.6741C195.795 82.6405 195.795 80.9647 194.005 79.9311L189.123 77.1131L191.902 75.5089L196.783 78.3269C200.108 80.2465 200.108 83.3587 196.783 85.2782L162.218 105.233C158.893 107.152 153.502 107.152 150.177 105.233L89.9203 70.4463C86.5953 68.5267 86.5953 65.4145 89.9203 63.495L124.485 43.5406C127.81 41.621 133.201 41.621 136.526 43.5406L140.463 45.8133L137.684 47.4174L133.748 45.1447Z" fill="white"/>
<path fill-rule="evenodd" clip-rule="evenodd" d="M186.314 48.9301C185.307 48.3492 183.676 48.3492 182.67 48.9301C181.663 49.5111 181.663 50.453 182.67 51.034C183.676 51.6149 185.307 51.6149 186.314 51.034C187.32 50.453 187.32 49.5111 186.314 48.9301ZM179.891 47.326C182.432 45.8591 186.552 45.8591 189.093 47.326C191.634 48.7929 191.634 51.1712 189.093 52.6381C186.552 54.105 182.432 54.105 179.891 52.6381C177.35 51.1712 177.35 48.7929 179.891 47.326Z" fill="white"/>
<path fill-rule="evenodd" clip-rule="evenodd" d="M174.265 55.8857C173.259 55.3047 171.628 55.3047 170.621 55.8857C169.615 56.4667 169.615 57.4086 170.621 57.9895C171.628 58.5705 173.259 58.5705 174.265 57.9895C175.272 57.4086 175.272 56.4667 174.265 55.8857ZM167.843 54.2816C170.383 52.8146 174.503 52.8146 177.044 54.2816C179.585 55.7485 179.585 58.1268 177.044 59.5937C174.503 61.0606 170.383 61.0606 167.843 59.5937C165.302 58.1268 165.302 55.7485 167.843 54.2816Z" fill="white"/>
<path fill-rule="evenodd" clip-rule="evenodd" d="M150.841 69.4091C149.835 68.8282 148.203 68.8282 147.197 69.4091C146.191 69.9901 146.191 70.932 147.197 71.513C148.203 72.0939 149.835 72.0939 150.841 71.513C151.848 70.932 151.848 69.9901 150.841 69.4091ZM144.418 67.805C146.959 66.3381 151.079 66.3381 153.62 67.805C156.161 69.2719 156.161 71.6502 153.62 73.1171C151.079 74.584 146.959 74.584 144.418 73.1171C141.877 71.6502 141.877 69.2719 144.418 67.805Z" fill="white"/>
<path fill-rule="evenodd" clip-rule="evenodd" d="M200.714 64.6098C199.707 64.0289 198.076 64.0289 197.069 64.6098C196.063 65.1908 196.063 66.1327 197.069 66.7137C198.076 67.2946 199.707 67.2946 200.714 66.7137C201.72 66.1327 201.72 65.1908 200.714 64.6098ZM194.291 63.0057C196.832 61.5388 200.951 61.5388 203.492 63.0057C206.033 64.4726 206.033 66.8509 203.492 68.3178C200.951 69.7847 196.832 69.7847 194.291 68.3178C191.75 66.8509 191.75 64.4726 194.291 63.0057Z" fill="white"/>
<path fill-rule="evenodd" clip-rule="evenodd" d="M195.862 63.7083L176.951 57.2612C176.831 57.8206 176.399 58.3618 175.655 58.7912C175.399 58.9392 175.12 59.0657 174.824 59.1709L194.359 65.8306C194.278 65.1045 194.719 64.3628 195.68 63.8079C195.739 63.7736 195.8 63.7404 195.862 63.7083ZM195.265 67.2415L178.958 76.6557C179.124 76.728 179.283 76.8078 179.433 76.8949C180.353 77.4256 180.796 78.1273 180.762 78.8227L199.019 68.2828C197.815 68.3023 196.599 68.0467 195.68 67.5159C195.529 67.4288 195.391 67.3371 195.265 67.2415ZM169.232 58.7912C169.806 59.1224 170.495 59.3465 171.224 59.4634L153.395 69.7566C153.192 69.3353 152.804 68.9376 152.23 68.6065C151.806 68.3615 151.318 68.1751 150.798 68.0473L168.264 57.9644C168.485 58.2648 168.808 58.5462 169.232 58.7912ZM152.139 72.3656L171.708 79.0369C171.562 78.2734 171.997 77.4802 173.011 76.8949C173.028 76.8847 173.046 76.8746 173.064 76.8646L153.54 70.2084C153.665 70.9608 153.228 71.7383 152.23 72.3145C152.2 72.3318 152.17 72.3489 152.139 72.3656Z" fill="white"/>
<path fill-rule="evenodd" clip-rule="evenodd" d="M178.044 77.6972C177.037 77.1163 175.406 77.1163 174.4 77.6972C173.393 78.2782 173.393 79.2201 174.4 79.8011C175.406 80.382 177.037 80.382 178.044 79.8011C179.05 79.2201 179.05 78.2782 178.044 77.6972ZM171.621 76.0931C174.162 74.6262 178.282 74.6262 180.823 76.0931C183.363 77.56 183.363 79.9383 180.823 81.4052C178.282 82.8721 174.162 82.8721 171.621 81.4052C169.08 79.9383 169.08 77.56 171.621 76.0931Z" fill="white"/>
<path fill-rule="evenodd" clip-rule="evenodd" d="M158.019 39.9624C157.013 39.3814 155.381 39.3814 154.375 39.9624C153.369 40.5433 153.369 41.4852 154.375 42.0662C155.381 42.6472 157.013 42.6472 158.019 42.0662C159.026 41.4852 159.026 40.5433 158.019 39.9624ZM151.596 38.3582C154.137 36.8913 158.257 36.8913 160.798 38.3582C163.339 39.8251 163.339 42.2034 160.798 43.6703C158.257 45.1372 154.137 45.1372 151.596 43.6703C149.055 42.2034 149.055 39.8251 151.596 38.3582Z" fill="white"/>
<path fill-rule="evenodd" clip-rule="evenodd" d="M156.39 43.635C157.487 43.6083 158.571 43.3531 159.409 42.8694C159.575 42.7734 159.726 42.6718 159.861 42.5657L172.008 54.328C170.995 54.3841 170.008 54.6361 169.232 55.084C169.007 55.2136 168.811 55.3534 168.644 55.5008L156.39 43.635ZM154.978 43.5416C154.248 43.4247 153.559 43.2006 152.986 42.8694C152.561 42.6244 152.238 42.343 152.017 42.0426L135.307 51.6892C135.827 51.817 136.315 52.0034 136.739 52.2484C137.313 52.5796 137.701 52.9773 137.904 53.3985L154.978 43.5416ZM150.798 68.048L168.263 57.9651C168.485 58.2655 168.808 58.5469 169.232 58.7919C169.806 59.1231 170.495 59.3472 171.224 59.4641L153.394 69.7573C153.192 69.336 152.804 68.9383 152.23 68.6072C151.806 68.3622 151.318 68.1758 150.798 68.048ZM145.801 68.6106L145.807 68.6072C146.843 68.0094 148.254 67.7606 149.602 67.8608L137.081 55.736C136.975 55.8122 136.862 55.8858 136.739 55.9564C135.852 56.4686 134.689 56.7245 133.526 56.7243L145.801 68.6106Z" fill="white"/>
<path fill-rule="evenodd" clip-rule="evenodd" d="M183.651 52.5656C185.012 52.7112 186.466 52.496 187.552 51.9202L198.881 63.0457C197.719 63.0459 196.557 63.3019 195.671 63.8136C194.786 64.3241 194.343 64.9928 194.341 65.662L175.041 59.0907C175.254 59.0046 175.456 58.9067 175.646 58.7972C176.458 58.3283 176.898 57.726 176.967 57.1125L194.285 63.0094L183.651 52.5656ZM172.189 54.325L161.96 44.3479L180.028 50.5013C179.757 49.7138 180.116 48.8683 181.106 48.2343L160.706 41.287C160.604 41.8667 160.169 42.4305 159.399 42.8747C158.632 43.3178 157.658 43.5691 156.656 43.6287L168.742 55.4161C168.884 55.3016 169.044 55.1922 169.223 55.0892C170.047 54.6132 171.11 54.3585 172.189 54.325Z" fill="white"/>
<path fill-rule="evenodd" clip-rule="evenodd" d="M135.35 53.0502C134.344 52.4693 132.712 52.4693 131.706 53.0502C130.699 53.6312 130.699 54.5731 131.706 55.1541C132.712 55.735 134.344 55.735 135.35 55.1541C136.356 54.5731 136.356 53.6312 135.35 53.0502ZM128.927 51.4461C131.468 49.9792 135.588 49.9792 138.129 51.4461C140.67 52.913 140.67 55.2913 138.129 56.7582C135.588 58.2251 131.468 58.2251 128.927 56.7582C126.386 55.2913 126.386 52.913 128.927 51.4461Z" fill="white"/>
<path fill-rule="evenodd" clip-rule="evenodd" d="M124.411 62.9325L127.549 61.1207L124.771 59.5166L119.975 62.2853L124.32 70.6827L114.191 76.5297L116.97 78.1339L128.756 71.33L124.411 62.9325Z" fill="white"/>
<path fill-rule="evenodd" clip-rule="evenodd" d="M162.815 85.1028L166.143 83.182L168.921 84.7861L163.937 87.6638L149.39 85.1555L139.262 91.0025L136.484 89.3983L148.269 82.5945L162.815 85.1028Z" fill="white"/>
<path fill-rule="evenodd" clip-rule="evenodd" d="M142.096 76.2797L127.928 84.4591L125.149 82.855L139.317 74.6756L142.096 76.2797Z" fill="white"/>
</g>
<defs>
<filter id="filter0_ddddd_863_972" x="-42.0317" y="58.2817" width="391.985" height="418.543" filterUnits="userSpaceOnUse" color-interpolation-filters="sRGB">
<feFlood flood-opacity="0" result="BackgroundImageFix"/>
<feColorMatrix in="SourceAlpha" type="matrix" values="0 0 0 0 0 0 0 0 0 0 0 0 0 0 0 0 0 0 127 0" result="hardAlpha"/>
<feOffset/>
<feColorMatrix type="matrix" values="0 0 0 0 0 0 0 0 0 0 0 0 0 0 0 0 0 0 0.1 0"/>
<feBlend mode="normal" in2="BackgroundImageFix" result="effect1_dropShadow_863_972"/>
<feColorMatrix in="SourceAlpha" type="matrix" values="0 0 0 0 0 0 0 0 0 0 0 0 0 0 0 0 0 0 127 0" result="hardAlpha"/>
<feOffset dx="1" dy="12"/>
<feGaussianBlur stdDeviation="13"/>
<feColorMatrix type="matrix" values="0 0 0 0 0 0 0 0 0 0 0 0 0 0 0 0 0 0 0.1 0"/>
<feBlend mode="normal" in2="effect1_dropShadow_863_972" result="effect2_dropShadow_863_972"/>
<feColorMatrix in="SourceAlpha" type="matrix" values="0 0 0 0 0 0 0 0 0 0 0 0 0 0 0 0 0 0 127 0" result="hardAlpha"/>
<feOffset dx="3" dy="47"/>
<feGaussianBlur stdDeviation="24"/>
<feColorMatrix type="matrix" values="0 0 0 0 0 0 0 0 0 0 0 0 0 0 0 0 0 0 0.09 0"/>
<feBlend mode="normal" in2="effect2_dropShadow_863_972" result="effect3_dropShadow_863_972"/>
<feColorMatrix in="SourceAlpha" type="matrix" values="0 0 0 0 0 0 0 0 0 0 0 0 0 0 0 0 0 0 127 0" result="hardAlpha"/>
<feOffset dx="6" dy="107"/>
<feGaussianBlur stdDeviation="32"/>
<feColorMatrix type="matrix" values="0 0 0 0 0 0 0 0 0 0 0 0 0 0 0 0 0 0 0.05 0"/>
<feBlend mode="normal" in2="effect3_dropShadow_863_972" result="effect4_dropShadow_863_972"/>
<feColorMatrix in="SourceAlpha" type="matrix" values="0 0 0 0 0 0 0 0 0 0 0 0 0 0 0 0 0 0 127 0" result="hardAlpha"/>
<feOffset dx="11" dy="190"/>
<feGaussianBlur stdDeviation="38"/>
<feColorMatrix type="matrix" values="0 0 0 0 0 0 0 0 0 0 0 0 0 0 0 0 0 0 0.01 0"/>
<feBlend mode="normal" in2="effect4_dropShadow_863_972" result="effect5_dropShadow_863_972"/>
<feBlend mode="normal" in="SourceGraphic" in2="effect5_dropShadow_863_972" result="shape"/>
</filter>
<clipPath id="clip0_863_972">
<rect width="284.342" height="243.983" fill="white" transform="translate(-0.000488281 0.508789)"/>
</clipPath>
</defs>
</svg>
