<svg width="375" height="465" viewBox="0 0 375 465" fill="none" xmlns="http://www.w3.org/2000/svg">
<path d="M102.498 120.503V150" stroke="white" stroke-width="6.01985"/>
<path d="M73.0006 97.0254V150" stroke="white" stroke-width="6.01985"/>
<path fill-rule="evenodd" clip-rule="evenodd" d="M135.005 131.996L135.005 103.647L128.985 103.647L128.985 141.397C130.439 137.988 132.459 134.802 135.005 131.996Z" fill="white"/>
<path fill-rule="evenodd" clip-rule="evenodd" d="M193.385 150C192.804 145.817 191.423 141.673 189.181 137.79C188.799 137.129 188.399 136.486 187.98 135.861L187.98 109.667L194 109.667L194 150L193.385 150Z" fill="white"/>
<path fill-rule="evenodd" clip-rule="evenodd" d="M158.483 120.961C160.501 120.873 162.516 120.967 164.502 121.237L164.502 87.3937L158.483 87.3937L158.483 120.961Z" fill="white"/>
<circle cx="159.987" cy="154.218" r="24.6814" transform="rotate(-30 159.987 154.218)" stroke="white" stroke-width="6.01985"/>
<path d="M170.823 172.986L187.377 201.659" stroke="white" stroke-width="6.01985"/>
<path d="M0 18C0 8.05886 8.05888 0 18 0H356.797C366.738 0 374.797 8.05888 374.797 18V251.03H0V18Z" fill="url(#paint0_linear_1_1364)"/>
<path d="M0.000854492 251.03H374.798V447C374.798 456.941 366.739 465 356.798 465H18.0009C8.05974 465 0.000854492 456.941 0.000854492 447V251.03Z" fill="url(#paint1_linear_1_1364)"/>
<path d="M30.0308 405V392.04H32.1998V405H30.0308ZM41.6187 405V400.32C41.6187 400.014 41.5977 399.675 41.5557 399.303C41.5137 398.931 41.4147 398.574 41.2587 398.232C41.1087 397.884 40.8807 397.599 40.5747 397.377C40.2747 397.155 39.8667 397.044 39.3507 397.044C39.0747 397.044 38.8017 397.089 38.5317 397.179C38.2617 397.269 38.0157 397.425 37.7937 397.647C37.5777 397.863 37.4037 398.163 37.2717 398.547C37.1397 398.925 37.0737 399.411 37.0737 400.005L35.7867 399.456C35.7867 398.628 35.9457 397.878 36.2637 397.206C36.5877 396.534 37.0617 396 37.6857 395.604C38.3097 395.202 39.0777 395.001 39.9897 395.001C40.7097 395.001 41.3037 395.121 41.7717 395.361C42.2397 395.601 42.6117 395.907 42.8877 396.279C43.1637 396.651 43.3677 397.047 43.4997 397.467C43.6317 397.887 43.7157 398.286 43.7517 398.664C43.7937 399.036 43.8147 399.339 43.8147 399.573V405H41.6187ZM34.8777 405V395.28H36.8127V398.295H37.0737V405H34.8777ZM47.0093 405V395.127C47.0093 394.881 47.0183 394.611 47.0363 394.317C47.0543 394.017 47.1053 393.72 47.1893 393.426C47.2733 393.132 47.4263 392.865 47.6483 392.625C47.9243 392.319 48.2213 392.109 48.5393 391.995C48.8633 391.875 49.1813 391.809 49.4933 391.797C49.8053 391.779 50.0783 391.77 50.3123 391.77H51.5273V393.534H50.4023C49.9883 393.534 49.6793 393.639 49.4753 393.849C49.2773 394.053 49.1783 394.323 49.1783 394.659V405H47.0093ZM45.4433 396.981V395.28H51.5273V396.981H45.4433ZM56.9075 405.27C55.9355 405.27 55.0865 405.051 54.3605 404.613C53.6345 404.175 53.0705 403.572 52.6685 402.804C52.2725 402.03 52.0745 401.142 52.0745 400.14C52.0745 399.12 52.2785 398.226 52.6865 397.458C53.0945 396.69 53.6615 396.09 54.3875 395.658C55.1135 395.226 55.9535 395.01 56.9075 395.01C57.8855 395.01 58.7375 395.229 59.4635 395.667C60.1895 396.105 60.7535 396.711 61.1555 397.485C61.5575 398.253 61.7585 399.138 61.7585 400.14C61.7585 401.148 61.5545 402.039 61.1465 402.813C60.7445 403.581 60.1805 404.184 59.4545 404.622C58.7285 405.054 57.8795 405.27 56.9075 405.27ZM56.9075 403.236C57.7715 403.236 58.4135 402.948 58.8335 402.372C59.2535 401.796 59.4635 401.052 59.4635 400.14C59.4635 399.198 59.2505 398.448 58.8245 397.89C58.3985 397.326 57.7595 397.044 56.9075 397.044C56.3255 397.044 55.8455 397.176 55.4675 397.44C55.0955 397.698 54.8195 398.061 54.6395 398.529C54.4595 398.991 54.3695 399.528 54.3695 400.14C54.3695 401.082 54.5825 401.835 55.0085 402.399C55.4405 402.957 56.0735 403.236 56.9075 403.236ZM63.7414 405V395.28H65.6584V397.647L65.4244 397.341C65.5444 397.017 65.7034 396.723 65.9014 396.459C66.1054 396.189 66.3484 395.967 66.6304 395.793C66.8704 395.631 67.1344 395.505 67.4224 395.415C67.7164 395.319 68.0164 395.262 68.3224 395.244C68.6284 395.22 68.9254 395.232 69.2134 395.28V397.305C68.9254 397.221 68.5924 397.194 68.2144 397.224C67.8424 397.254 67.5064 397.359 67.2064 397.539C66.9064 397.701 66.6604 397.908 66.4684 398.16C66.2824 398.412 66.1444 398.7 66.0544 399.024C65.9644 399.342 65.9194 399.687 65.9194 400.059V405H63.7414ZM82.6039 405V399.096C82.6039 398.43 82.4389 397.911 82.1089 397.539C81.7789 397.161 81.3319 396.972 80.7679 396.972C80.4199 396.972 80.1079 397.053 79.8319 397.215C79.5559 397.371 79.3369 397.605 79.1749 397.917C79.0129 398.223 78.9319 398.589 78.9319 399.015L77.9689 398.448C77.9629 397.776 78.1129 397.185 78.4189 396.675C78.7309 396.159 79.1509 395.757 79.6789 395.469C80.2069 395.181 80.7949 395.037 81.4429 395.037C82.5169 395.037 83.3389 395.361 83.9089 396.009C84.4849 396.651 84.7729 397.497 84.7729 398.547V405H82.6039ZM70.9129 405V395.28H72.8299V398.295H73.0999V405H70.9129ZM76.7719 405V399.123C76.7719 398.445 76.6069 397.917 76.2769 397.539C75.9469 397.161 75.4969 396.972 74.9269 396.972C74.3749 396.972 73.9309 397.161 73.5949 397.539C73.2649 397.917 73.0999 398.409 73.0999 399.015L72.1279 398.367C72.1279 397.737 72.2839 397.17 72.5959 396.666C72.9079 396.162 73.3279 395.766 73.8559 395.478C74.3899 395.184 74.9869 395.037 75.6469 395.037C76.3729 395.037 76.9789 395.193 77.4649 395.505C77.9569 395.811 78.3229 396.231 78.5629 396.765C78.8089 397.293 78.9319 397.89 78.9319 398.556V405H76.7719ZM95.3949 405.27C94.4469 405.27 93.6519 405.045 93.0099 404.595C92.3679 404.145 91.8849 403.533 91.5609 402.759C91.2369 401.979 91.0749 401.106 91.0749 400.14C91.0749 399.162 91.2369 398.286 91.5609 397.512C91.8849 396.738 92.3589 396.129 92.9829 395.685C93.6129 395.235 94.3899 395.01 95.3139 395.01C96.2319 395.01 97.0269 395.235 97.6989 395.685C98.3769 396.129 98.9019 396.738 99.2739 397.512C99.6459 398.28 99.8319 399.156 99.8319 400.14C99.8319 401.112 99.6489 401.985 99.2829 402.759C98.9169 403.533 98.4009 404.145 97.7349 404.595C97.0689 405.045 96.2889 405.27 95.3949 405.27ZM90.7059 409.32V395.28H92.6229V402.102H92.8929V409.32H90.7059ZM95.0619 403.326C95.6259 403.326 96.0909 403.185 96.4569 402.903C96.8229 402.621 97.0929 402.24 97.2669 401.76C97.4469 401.274 97.5369 400.734 97.5369 400.14C97.5369 399.552 97.4469 399.018 97.2669 398.538C97.0869 398.052 96.8079 397.668 96.4299 397.386C96.0519 397.098 95.5719 396.954 94.9899 396.954C94.4379 396.954 93.9879 397.089 93.6399 397.359C93.2919 397.623 93.0339 397.995 92.8659 398.475C92.7039 398.949 92.6229 399.504 92.6229 400.14C92.6229 400.77 92.7039 401.325 92.8659 401.805C93.0339 402.285 93.2949 402.66 93.6489 402.93C94.0089 403.194 94.4799 403.326 95.0619 403.326ZM104.534 405.27C103.832 405.27 103.238 405.138 102.752 404.874C102.266 404.604 101.897 404.247 101.645 403.803C101.399 403.359 101.276 402.87 101.276 402.336C101.276 401.868 101.354 401.448 101.51 401.076C101.666 400.698 101.906 400.374 102.23 400.104C102.554 399.828 102.974 399.603 103.49 399.429C103.88 399.303 104.336 399.189 104.858 399.087C105.386 398.985 105.956 398.892 106.568 398.808C107.186 398.718 107.831 398.622 108.503 398.52L107.729 398.961C107.735 398.289 107.585 397.794 107.279 397.476C106.973 397.158 106.457 396.999 105.731 396.999C105.293 396.999 104.87 397.101 104.462 397.305C104.054 397.509 103.769 397.86 103.607 398.358L101.627 397.737C101.867 396.915 102.323 396.255 102.995 395.757C103.673 395.259 104.585 395.01 105.731 395.01C106.595 395.01 107.354 395.151 108.008 395.433C108.668 395.715 109.157 396.177 109.475 396.819C109.649 397.161 109.754 397.512 109.79 397.872C109.826 398.226 109.844 398.613 109.844 399.033V405H107.945V402.894L108.26 403.236C107.822 403.938 107.309 404.454 106.721 404.784C106.139 405.108 105.41 405.27 104.534 405.27ZM104.966 403.542C105.458 403.542 105.878 403.455 106.226 403.281C106.574 403.107 106.85 402.894 107.054 402.642C107.264 402.39 107.405 402.153 107.477 401.931C107.591 401.655 107.654 401.34 107.666 400.986C107.684 400.626 107.693 400.335 107.693 400.113L108.359 400.311C107.705 400.413 107.144 400.503 106.676 400.581C106.208 400.659 105.806 400.734 105.47 400.806C105.134 400.872 104.837 400.947 104.579 401.031C104.327 401.121 104.114 401.226 103.94 401.346C103.766 401.466 103.631 401.604 103.535 401.76C103.445 401.916 103.4 402.099 103.4 402.309C103.4 402.549 103.46 402.762 103.58 402.948C103.7 403.128 103.874 403.272 104.102 403.38C104.336 403.488 104.624 403.542 104.966 403.542ZM112.187 405V395.28H114.104V397.647L113.87 397.341C113.99 397.017 114.149 396.723 114.347 396.459C114.551 396.189 114.794 395.967 115.076 395.793C115.316 395.631 115.58 395.505 115.868 395.415C116.162 395.319 116.462 395.262 116.768 395.244C117.074 395.22 117.371 395.232 117.659 395.28V397.305C117.371 397.221 117.038 397.194 116.66 397.224C116.288 397.254 115.952 397.359 115.652 397.539C115.352 397.701 115.106 397.908 114.914 398.16C114.728 398.412 114.59 398.7 114.5 399.024C114.41 399.342 114.365 399.687 114.365 400.059V405H112.187ZM125.073 405C124.431 405.12 123.801 405.171 123.183 405.153C122.571 405.141 122.022 405.03 121.536 404.82C121.05 404.604 120.681 404.265 120.429 403.803C120.207 403.383 120.09 402.954 120.078 402.516C120.066 402.078 120.06 401.583 120.06 401.031V392.58H122.22V400.905C122.22 401.295 122.223 401.637 122.229 401.931C122.241 402.225 122.304 402.465 122.418 402.651C122.634 403.011 122.979 403.212 123.453 403.254C123.927 403.296 124.467 403.272 125.073 403.182V405ZM118.296 396.981V395.28H125.073V396.981H118.296ZM133.886 405V400.32C133.886 400.014 133.865 399.675 133.823 399.303C133.781 398.931 133.682 398.574 133.526 398.232C133.376 397.884 133.148 397.599 132.842 397.377C132.542 397.155 132.134 397.044 131.618 397.044C131.342 397.044 131.069 397.089 130.799 397.179C130.529 397.269 130.283 397.425 130.061 397.647C129.845 397.863 129.671 398.163 129.539 398.547C129.407 398.925 129.341 399.411 129.341 400.005L128.054 399.456C128.054 398.628 128.213 397.878 128.531 397.206C128.855 396.534 129.329 396 129.953 395.604C130.577 395.202 131.345 395.001 132.257 395.001C132.977 395.001 133.571 395.121 134.039 395.361C134.507 395.601 134.879 395.907 135.155 396.279C135.431 396.651 135.635 397.047 135.767 397.467C135.899 397.887 135.983 398.286 136.019 398.664C136.061 399.036 136.082 399.339 136.082 399.573V405H133.886ZM127.145 405V395.28H129.08V398.295H129.341V405H127.145ZM142.692 405.27C141.708 405.27 140.844 405.057 140.1 404.631C139.356 404.205 138.774 403.614 138.354 402.858C137.94 402.102 137.733 401.232 137.733 400.248C137.733 399.186 137.937 398.265 138.345 397.485C138.753 396.699 139.32 396.09 140.046 395.658C140.772 395.226 141.612 395.01 142.566 395.01C143.574 395.01 144.429 395.247 145.131 395.721C145.839 396.189 146.364 396.852 146.706 397.71C147.048 398.568 147.177 399.579 147.093 400.743H144.942V399.951C144.936 398.895 144.75 398.124 144.384 397.638C144.018 397.152 143.442 396.909 142.656 396.909C141.768 396.909 141.108 397.185 140.676 397.737C140.244 398.283 140.028 399.084 140.028 400.14C140.028 401.124 140.244 401.886 140.676 402.426C141.108 402.966 141.738 403.236 142.566 403.236C143.1 403.236 143.559 403.119 143.943 402.885C144.333 402.645 144.633 402.3 144.843 401.85L146.985 402.498C146.613 403.374 146.037 404.055 145.257 404.541C144.483 405.027 143.628 405.27 142.692 405.27ZM139.344 400.743V399.105H146.031V400.743H139.344ZM149.101 405V395.28H151.018V397.647L150.784 397.341C150.904 397.017 151.063 396.723 151.261 396.459C151.465 396.189 151.708 395.967 151.99 395.793C152.23 395.631 152.494 395.505 152.782 395.415C153.076 395.319 153.376 395.262 153.682 395.244C153.988 395.22 154.285 395.232 154.573 395.28V397.305C154.285 397.221 153.952 397.194 153.574 397.224C153.202 397.254 152.866 397.359 152.566 397.539C152.266 397.701 152.02 397.908 151.828 398.16C151.642 398.412 151.504 398.7 151.414 399.024C151.324 399.342 151.279 399.687 151.279 400.059V405H149.101ZM159.692 405.27C158.492 405.27 157.517 405 156.767 404.46C156.017 403.92 155.561 403.161 155.399 402.183L157.613 401.841C157.727 402.321 157.979 402.699 158.369 402.975C158.759 403.251 159.251 403.389 159.845 403.389C160.367 403.389 160.769 403.287 161.051 403.083C161.339 402.873 161.483 402.588 161.483 402.228C161.483 402.006 161.429 401.829 161.321 401.697C161.219 401.559 160.991 401.427 160.637 401.301C160.283 401.175 159.74 401.016 159.008 400.824C158.192 400.608 157.544 400.377 157.064 400.131C156.584 399.879 156.239 399.582 156.029 399.24C155.819 398.898 155.714 398.484 155.714 397.998C155.714 397.392 155.873 396.864 156.191 396.414C156.509 395.964 156.953 395.619 157.523 395.379C158.093 395.133 158.765 395.01 159.539 395.01C160.295 395.01 160.964 395.127 161.546 395.361C162.134 395.595 162.608 395.928 162.968 396.36C163.328 396.792 163.55 397.299 163.634 397.881L161.42 398.277C161.366 397.863 161.177 397.536 160.853 397.296C160.535 397.056 160.109 396.921 159.575 396.891C159.065 396.861 158.654 396.939 158.342 397.125C158.03 397.305 157.874 397.56 157.874 397.89C157.874 398.076 157.937 398.235 158.063 398.367C158.189 398.499 158.441 398.631 158.819 398.763C159.203 398.895 159.773 399.057 160.529 399.249C161.303 399.447 161.921 399.675 162.383 399.933C162.851 400.185 163.187 400.488 163.391 400.842C163.601 401.196 163.706 401.625 163.706 402.129C163.706 403.107 163.349 403.875 162.635 404.433C161.927 404.991 160.946 405.27 159.692 405.27ZM171.999 405.27C171.297 405.27 170.703 405.138 170.217 404.874C169.731 404.604 169.362 404.247 169.11 403.803C168.864 403.359 168.741 402.87 168.741 402.336C168.741 401.868 168.819 401.448 168.975 401.076C169.131 400.698 169.371 400.374 169.695 400.104C170.019 399.828 170.439 399.603 170.955 399.429C171.345 399.303 171.801 399.189 172.323 399.087C172.851 398.985 173.421 398.892 174.033 398.808C174.651 398.718 175.296 398.622 175.968 398.52L175.194 398.961C175.2 398.289 175.05 397.794 174.744 397.476C174.438 397.158 173.922 396.999 173.196 396.999C172.758 396.999 172.335 397.101 171.927 397.305C171.519 397.509 171.234 397.86 171.072 398.358L169.092 397.737C169.332 396.915 169.788 396.255 170.46 395.757C171.138 395.259 172.05 395.01 173.196 395.01C174.06 395.01 174.819 395.151 175.473 395.433C176.133 395.715 176.622 396.177 176.94 396.819C177.114 397.161 177.219 397.512 177.255 397.872C177.291 398.226 177.309 398.613 177.309 399.033V405H175.41V402.894L175.725 403.236C175.287 403.938 174.774 404.454 174.186 404.784C173.604 405.108 172.875 405.27 171.999 405.27ZM172.431 403.542C172.923 403.542 173.343 403.455 173.691 403.281C174.039 403.107 174.315 402.894 174.519 402.642C174.729 402.39 174.87 402.153 174.942 401.931C175.056 401.655 175.119 401.34 175.131 400.986C175.149 400.626 175.158 400.335 175.158 400.113L175.824 400.311C175.17 400.413 174.609 400.503 174.141 400.581C173.673 400.659 173.271 400.734 172.935 400.806C172.599 400.872 172.302 400.947 172.044 401.031C171.792 401.121 171.579 401.226 171.405 401.346C171.231 401.466 171.096 401.604 171 401.76C170.91 401.916 170.865 402.099 170.865 402.309C170.865 402.549 170.925 402.762 171.045 402.948C171.165 403.128 171.339 403.272 171.567 403.38C171.801 403.488 172.089 403.542 172.431 403.542ZM184.323 405.27C183.375 405.27 182.58 405.045 181.938 404.595C181.296 404.145 180.813 403.533 180.489 402.759C180.165 401.979 180.003 401.106 180.003 400.14C180.003 399.162 180.165 398.286 180.489 397.512C180.813 396.738 181.287 396.129 181.911 395.685C182.541 395.235 183.318 395.01 184.242 395.01C185.16 395.01 185.955 395.235 186.627 395.685C187.305 396.129 187.83 396.738 188.202 397.512C188.574 398.28 188.76 399.156 188.76 400.14C188.76 401.112 188.577 401.985 188.211 402.759C187.845 403.533 187.329 404.145 186.663 404.595C185.997 405.045 185.217 405.27 184.323 405.27ZM179.634 405V392.04H181.821V398.178H181.551V405H179.634ZM183.99 403.326C184.554 403.326 185.019 403.185 185.385 402.903C185.751 402.621 186.021 402.24 186.195 401.76C186.375 401.274 186.465 400.734 186.465 400.14C186.465 399.552 186.375 399.018 186.195 398.538C186.015 398.052 185.736 397.668 185.358 397.386C184.98 397.098 184.5 396.954 183.918 396.954C183.366 396.954 182.916 397.089 182.568 397.359C182.22 397.623 181.962 397.995 181.794 398.475C181.632 398.949 181.551 399.504 181.551 400.14C181.551 400.77 181.632 401.325 181.794 401.805C181.962 402.285 182.223 402.66 182.577 402.93C182.937 403.194 183.408 403.326 183.99 403.326ZM195.036 405.27C194.064 405.27 193.215 405.051 192.489 404.613C191.763 404.175 191.199 403.572 190.797 402.804C190.401 402.03 190.203 401.142 190.203 400.14C190.203 399.12 190.407 398.226 190.815 397.458C191.223 396.69 191.79 396.09 192.516 395.658C193.242 395.226 194.082 395.01 195.036 395.01C196.014 395.01 196.866 395.229 197.592 395.667C198.318 396.105 198.882 396.711 199.284 397.485C199.686 398.253 199.887 399.138 199.887 400.14C199.887 401.148 199.683 402.039 199.275 402.813C198.873 403.581 198.309 404.184 197.583 404.622C196.857 405.054 196.008 405.27 195.036 405.27ZM195.036 403.236C195.9 403.236 196.542 402.948 196.962 402.372C197.382 401.796 197.592 401.052 197.592 400.14C197.592 399.198 197.379 398.448 196.953 397.89C196.527 397.326 195.888 397.044 195.036 397.044C194.454 397.044 193.974 397.176 193.596 397.44C193.224 397.698 192.948 398.061 192.768 398.529C192.588 398.991 192.498 399.528 192.498 400.14C192.498 401.082 192.711 401.835 193.137 402.399C193.569 402.957 194.202 403.236 195.036 403.236ZM205.515 405.279C204.795 405.279 204.201 405.159 203.733 404.919C203.265 404.679 202.893 404.373 202.617 404.001C202.341 403.629 202.137 403.233 202.005 402.813C201.873 402.393 201.786 401.997 201.744 401.625C201.708 401.247 201.69 400.941 201.69 400.707V395.28H203.886V399.96C203.886 400.26 203.907 400.599 203.949 400.977C203.991 401.349 204.087 401.709 204.237 402.057C204.393 402.399 204.621 402.681 204.921 402.903C205.227 403.125 205.638 403.236 206.154 403.236C206.43 403.236 206.703 403.191 206.973 403.101C207.243 403.011 207.486 402.858 207.702 402.642C207.924 402.42 208.101 402.117 208.233 401.733C208.365 401.349 208.431 400.863 208.431 400.275L209.718 400.824C209.718 401.652 209.556 402.402 209.232 403.074C208.914 403.746 208.443 404.283 207.819 404.685C207.195 405.081 206.427 405.279 205.515 405.279ZM208.692 405V401.985H208.431V395.28H210.609V405H208.692ZM218.835 405C218.193 405.12 217.563 405.171 216.945 405.153C216.333 405.141 215.784 405.03 215.298 404.82C214.812 404.604 214.443 404.265 214.191 403.803C213.969 403.383 213.852 402.954 213.84 402.516C213.828 402.078 213.822 401.583 213.822 401.031V392.58H215.982V400.905C215.982 401.295 215.985 401.637 215.991 401.931C216.003 402.225 216.066 402.465 216.18 402.651C216.396 403.011 216.741 403.212 217.215 403.254C217.689 403.296 218.229 403.272 218.835 403.182V405ZM212.058 396.981V395.28H218.835V396.981H212.058ZM228.426 405.27C227.532 405.27 226.752 405.045 226.086 404.595C225.42 404.145 224.904 403.533 224.538 402.759C224.172 401.985 223.989 401.112 223.989 400.14C223.989 399.156 224.172 398.28 224.538 397.512C224.91 396.738 225.435 396.129 226.113 395.685C226.791 395.235 227.589 395.01 228.507 395.01C229.431 395.01 230.205 395.235 230.829 395.685C231.459 396.129 231.936 396.738 232.26 397.512C232.584 398.286 232.746 399.162 232.746 400.14C232.746 401.106 232.584 401.979 232.26 402.759C231.936 403.533 231.453 404.145 230.811 404.595C230.169 405.045 229.374 405.27 228.426 405.27ZM228.759 403.326C229.341 403.326 229.809 403.194 230.163 402.93C230.523 402.66 230.784 402.285 230.946 401.805C231.114 401.325 231.198 400.77 231.198 400.14C231.198 399.504 231.114 398.949 230.946 398.475C230.784 397.995 230.529 397.623 230.181 397.359C229.833 397.089 229.383 396.954 228.831 396.954C228.249 396.954 227.769 397.098 227.391 397.386C227.013 397.668 226.734 398.052 226.554 398.538C226.374 399.018 226.284 399.552 226.284 400.14C226.284 400.734 226.371 401.274 226.545 401.76C226.725 402.24 226.998 402.621 227.364 402.903C227.73 403.185 228.195 403.326 228.759 403.326ZM231.198 405V398.178H230.928V392.04H233.115V405H231.198ZM235.818 393.804V391.815H237.987V393.804H235.818ZM235.818 405V395.28H237.987V405H235.818ZM244.436 405.27C243.236 405.27 242.261 405 241.511 404.46C240.761 403.92 240.305 403.161 240.143 402.183L242.357 401.841C242.471 402.321 242.723 402.699 243.113 402.975C243.503 403.251 243.995 403.389 244.589 403.389C245.111 403.389 245.513 403.287 245.795 403.083C246.083 402.873 246.227 402.588 246.227 402.228C246.227 402.006 246.173 401.829 246.065 401.697C245.963 401.559 245.735 401.427 245.381 401.301C245.027 401.175 244.484 401.016 243.752 400.824C242.936 400.608 242.288 400.377 241.808 400.131C241.328 399.879 240.983 399.582 240.773 399.24C240.563 398.898 240.458 398.484 240.458 397.998C240.458 397.392 240.617 396.864 240.935 396.414C241.253 395.964 241.697 395.619 242.267 395.379C242.837 395.133 243.509 395.01 244.283 395.01C245.039 395.01 245.708 395.127 246.29 395.361C246.878 395.595 247.352 395.928 247.712 396.36C248.072 396.792 248.294 397.299 248.378 397.881L246.164 398.277C246.11 397.863 245.921 397.536 245.597 397.296C245.279 397.056 244.853 396.921 244.319 396.891C243.809 396.861 243.398 396.939 243.086 397.125C242.774 397.305 242.618 397.56 242.618 397.89C242.618 398.076 242.681 398.235 242.807 398.367C242.933 398.499 243.185 398.631 243.563 398.763C243.947 398.895 244.517 399.057 245.273 399.249C246.047 399.447 246.665 399.675 247.127 399.933C247.595 400.185 247.931 400.488 248.135 400.842C248.345 401.196 248.45 401.625 248.45 402.129C248.45 403.107 248.093 403.875 247.379 404.433C246.671 404.991 245.69 405.27 244.436 405.27ZM250.421 405V395.28H252.338V397.647L252.104 397.341C252.224 397.017 252.383 396.723 252.581 396.459C252.785 396.189 253.028 395.967 253.31 395.793C253.55 395.631 253.814 395.505 254.102 395.415C254.396 395.319 254.696 395.262 255.002 395.244C255.308 395.22 255.605 395.232 255.893 395.28V397.305C255.605 397.221 255.272 397.194 254.894 397.224C254.522 397.254 254.186 397.359 253.886 397.539C253.586 397.701 253.34 397.908 253.148 398.16C252.962 398.412 252.824 398.7 252.734 399.024C252.644 399.342 252.599 399.687 252.599 400.059V405H250.421ZM261.256 405.279C260.536 405.279 259.942 405.159 259.474 404.919C259.006 404.679 258.634 404.373 258.358 404.001C258.082 403.629 257.878 403.233 257.746 402.813C257.614 402.393 257.527 401.997 257.485 401.625C257.449 401.247 257.431 400.941 257.431 400.707V395.28H259.627V399.96C259.627 400.26 259.648 400.599 259.69 400.977C259.732 401.349 259.828 401.709 259.978 402.057C260.134 402.399 260.362 402.681 260.662 402.903C260.968 403.125 261.379 403.236 261.895 403.236C262.171 403.236 262.444 403.191 262.714 403.101C262.984 403.011 263.227 402.858 263.443 402.642C263.665 402.42 263.842 402.117 263.974 401.733C264.106 401.349 264.172 400.863 264.172 400.275L265.459 400.824C265.459 401.652 265.297 402.402 264.973 403.074C264.655 403.746 264.184 404.283 263.56 404.685C262.936 405.081 262.168 405.279 261.256 405.279ZM264.433 405V401.985H264.172V395.28H266.35V405H264.433ZM273.549 405.27C272.601 405.27 271.806 405.045 271.164 404.595C270.522 404.145 270.039 403.533 269.715 402.759C269.391 401.979 269.229 401.106 269.229 400.14C269.229 399.162 269.391 398.286 269.715 397.512C270.039 396.738 270.513 396.129 271.137 395.685C271.767 395.235 272.544 395.01 273.468 395.01C274.386 395.01 275.181 395.235 275.853 395.685C276.531 396.129 277.056 396.738 277.428 397.512C277.8 398.28 277.986 399.156 277.986 400.14C277.986 401.112 277.803 401.985 277.437 402.759C277.071 403.533 276.555 404.145 275.889 404.595C275.223 405.045 274.443 405.27 273.549 405.27ZM268.86 409.32V395.28H270.777V402.102H271.047V409.32H268.86ZM273.216 403.326C273.78 403.326 274.245 403.185 274.611 402.903C274.977 402.621 275.247 402.24 275.421 401.76C275.601 401.274 275.691 400.734 275.691 400.14C275.691 399.552 275.601 399.018 275.421 398.538C275.241 398.052 274.962 397.668 274.584 397.386C274.206 397.098 273.726 396.954 273.144 396.954C272.592 396.954 272.142 397.089 271.794 397.359C271.446 397.623 271.188 397.995 271.02 398.475C270.858 398.949 270.777 399.504 270.777 400.14C270.777 400.77 270.858 401.325 271.02 401.805C271.188 402.285 271.449 402.66 271.803 402.93C272.163 403.194 272.634 403.326 273.216 403.326ZM285.667 405C285.025 405.12 284.395 405.171 283.777 405.153C283.165 405.141 282.616 405.03 282.13 404.82C281.644 404.604 281.275 404.265 281.023 403.803C280.801 403.383 280.684 402.954 280.672 402.516C280.66 402.078 280.654 401.583 280.654 401.031V392.58H282.814V400.905C282.814 401.295 282.817 401.637 282.823 401.931C282.835 402.225 282.898 402.465 283.012 402.651C283.228 403.011 283.573 403.212 284.047 403.254C284.521 403.296 285.061 403.272 285.667 403.182V405ZM278.89 396.981V395.28H285.667V396.981H278.89ZM287.937 393.804V391.815H290.106V393.804H287.937ZM287.937 405V395.28H290.106V405H287.937ZM297.095 405.27C296.123 405.27 295.274 405.051 294.548 404.613C293.822 404.175 293.258 403.572 292.856 402.804C292.46 402.03 292.262 401.142 292.262 400.14C292.262 399.12 292.466 398.226 292.874 397.458C293.282 396.69 293.849 396.09 294.575 395.658C295.301 395.226 296.141 395.01 297.095 395.01C298.073 395.01 298.925 395.229 299.651 395.667C300.377 396.105 300.941 396.711 301.343 397.485C301.745 398.253 301.946 399.138 301.946 400.14C301.946 401.148 301.742 402.039 301.334 402.813C300.932 403.581 300.368 404.184 299.642 404.622C298.916 405.054 298.067 405.27 297.095 405.27ZM297.095 403.236C297.959 403.236 298.601 402.948 299.021 402.372C299.441 401.796 299.651 401.052 299.651 400.14C299.651 399.198 299.438 398.448 299.012 397.89C298.586 397.326 297.947 397.044 297.095 397.044C296.513 397.044 296.033 397.176 295.655 397.44C295.283 397.698 295.007 398.061 294.827 398.529C294.647 398.991 294.557 399.528 294.557 400.14C294.557 401.082 294.77 401.835 295.196 402.399C295.628 402.957 296.261 403.236 297.095 403.236ZM310.652 405V400.32C310.652 400.014 310.631 399.675 310.589 399.303C310.547 398.931 310.448 398.574 310.292 398.232C310.142 397.884 309.914 397.599 309.608 397.377C309.308 397.155 308.9 397.044 308.384 397.044C308.108 397.044 307.835 397.089 307.565 397.179C307.295 397.269 307.049 397.425 306.827 397.647C306.611 397.863 306.437 398.163 306.305 398.547C306.173 398.925 306.107 399.411 306.107 400.005L304.82 399.456C304.82 398.628 304.979 397.878 305.297 397.206C305.621 396.534 306.095 396 306.719 395.604C307.343 395.202 308.111 395.001 309.023 395.001C309.743 395.001 310.337 395.121 310.805 395.361C311.273 395.601 311.645 395.907 311.921 396.279C312.197 396.651 312.401 397.047 312.533 397.467C312.665 397.887 312.749 398.286 312.785 398.664C312.827 399.036 312.848 399.339 312.848 399.573V405H310.652ZM303.911 405V395.28H305.846V398.295H306.107V405H303.911ZM318.95 405.27C317.75 405.27 316.775 405 316.025 404.46C315.275 403.92 314.819 403.161 314.657 402.183L316.871 401.841C316.985 402.321 317.237 402.699 317.627 402.975C318.017 403.251 318.509 403.389 319.103 403.389C319.625 403.389 320.027 403.287 320.309 403.083C320.597 402.873 320.741 402.588 320.741 402.228C320.741 402.006 320.687 401.829 320.579 401.697C320.477 401.559 320.249 401.427 319.895 401.301C319.541 401.175 318.998 401.016 318.266 400.824C317.45 400.608 316.802 400.377 316.322 400.131C315.842 399.879 315.497 399.582 315.287 399.24C315.077 398.898 314.972 398.484 314.972 397.998C314.972 397.392 315.131 396.864 315.449 396.414C315.767 395.964 316.211 395.619 316.781 395.379C317.351 395.133 318.023 395.01 318.797 395.01C319.553 395.01 320.222 395.127 320.804 395.361C321.392 395.595 321.866 395.928 322.226 396.36C322.586 396.792 322.808 397.299 322.892 397.881L320.678 398.277C320.624 397.863 320.435 397.536 320.111 397.296C319.793 397.056 319.367 396.921 318.833 396.891C318.323 396.861 317.912 396.939 317.6 397.125C317.288 397.305 317.132 397.56 317.132 397.89C317.132 398.076 317.195 398.235 317.321 398.367C317.447 398.499 317.699 398.631 318.077 398.763C318.461 398.895 319.031 399.057 319.787 399.249C320.561 399.447 321.179 399.675 321.641 399.933C322.109 400.185 322.445 400.488 322.649 400.842C322.859 401.196 322.964 401.625 322.964 402.129C322.964 403.107 322.607 403.875 321.893 404.433C321.185 404.991 320.204 405.27 318.95 405.27ZM328.718 393.804V391.815H330.887V393.804H328.718ZM328.718 405V395.28H330.887V405H328.718ZM340.306 405V400.32C340.306 400.014 340.285 399.675 340.243 399.303C340.201 398.931 340.102 398.574 339.946 398.232C339.796 397.884 339.568 397.599 339.262 397.377C338.962 397.155 338.554 397.044 338.038 397.044C337.762 397.044 337.489 397.089 337.219 397.179C336.949 397.269 336.703 397.425 336.481 397.647C336.265 397.863 336.091 398.163 335.959 398.547C335.827 398.925 335.761 399.411 335.761 400.005L334.474 399.456C334.474 398.628 334.633 397.878 334.951 397.206C335.275 396.534 335.749 396 336.373 395.604C336.997 395.202 337.765 395.001 338.677 395.001C339.397 395.001 339.991 395.121 340.459 395.361C340.927 395.601 341.299 395.907 341.575 396.279C341.851 396.651 342.055 397.047 342.187 397.467C342.319 397.887 342.403 398.286 342.439 398.664C342.481 399.036 342.502 399.339 342.502 399.573V405H340.306ZM333.565 405V395.28H335.5V398.295H335.761V405H333.565ZM35.5478 430C34.9058 430.12 34.2758 430.171 33.6578 430.153C33.0458 430.141 32.4968 430.03 32.0108 429.82C31.5248 429.604 31.1558 429.265 30.9038 428.803C30.6818 428.383 30.5648 427.954 30.5528 427.516C30.5408 427.078 30.5348 426.583 30.5348 426.031V417.58H32.6948V425.905C32.6948 426.295 32.6978 426.637 32.7038 426.931C32.7158 427.225 32.7788 427.465 32.8928 427.651C33.1088 428.011 33.4538 428.212 33.9278 428.254C34.4018 428.296 34.9418 428.272 35.5478 428.182V430ZM28.7708 421.981V420.28H35.5478V421.981H28.7708ZM44.3609 430V425.32C44.3609 425.014 44.3399 424.675 44.2979 424.303C44.2559 423.931 44.1569 423.574 44.0009 423.232C43.8509 422.884 43.6229 422.599 43.3169 422.377C43.0169 422.155 42.6089 422.044 42.0929 422.044C41.8169 422.044 41.5439 422.089 41.2739 422.179C41.0039 422.269 40.7579 422.425 40.5359 422.647C40.3199 422.863 40.1459 423.163 40.0139 423.547C39.8819 423.925 39.8159 424.411 39.8159 425.005L38.5289 424.456C38.5289 423.628 38.6879 422.878 39.0059 422.206C39.3299 421.534 39.8039 421 40.4279 420.604C41.0519 420.202 41.8199 420.001 42.7319 420.001C43.4519 420.001 44.0459 420.121 44.5139 420.361C44.9819 420.601 45.3539 420.907 45.6299 421.279C45.9059 421.651 46.1099 422.047 46.2419 422.467C46.3739 422.887 46.4579 423.286 46.4939 423.664C46.5359 424.036 46.5569 424.339 46.5569 424.573V430H44.3609ZM37.6199 430V417.04H39.5549V423.862H39.8159V430H37.6199ZM53.3245 430.27C52.3405 430.27 51.4765 430.057 50.7325 429.631C49.9885 429.205 49.4065 428.614 48.9865 427.858C48.5725 427.102 48.3655 426.232 48.3655 425.248C48.3655 424.186 48.5695 423.265 48.9775 422.485C49.3855 421.699 49.9525 421.09 50.6785 420.658C51.4045 420.226 52.2445 420.01 53.1985 420.01C54.2065 420.01 55.0615 420.247 55.7635 420.721C56.4715 421.189 56.9965 421.852 57.3385 422.71C57.6805 423.568 57.8095 424.579 57.7255 425.743H55.5745V424.951C55.5685 423.895 55.3825 423.124 55.0165 422.638C54.6505 422.152 54.0745 421.909 53.2885 421.909C52.4005 421.909 51.7405 422.185 51.3085 422.737C50.8765 423.283 50.6605 424.084 50.6605 425.14C50.6605 426.124 50.8765 426.886 51.3085 427.426C51.7405 427.966 52.3705 428.236 53.1985 428.236C53.7325 428.236 54.1915 428.119 54.5755 427.885C54.9655 427.645 55.2655 427.3 55.4755 426.85L57.6175 427.498C57.2455 428.374 56.6695 429.055 55.8895 429.541C55.1155 430.027 54.2605 430.27 53.3245 430.27ZM49.9765 425.743V424.105H56.6635V425.743H49.9765ZM67.0901 430.27C65.8901 430.27 64.9151 430 64.1651 429.46C63.4151 428.92 62.9591 428.161 62.7971 427.183L65.0111 426.841C65.1251 427.321 65.3771 427.699 65.7671 427.975C66.1571 428.251 66.6491 428.389 67.2431 428.389C67.7651 428.389 68.1671 428.287 68.4491 428.083C68.7371 427.873 68.8811 427.588 68.8811 427.228C68.8811 427.006 68.8271 426.829 68.7191 426.697C68.6171 426.559 68.3891 426.427 68.0351 426.301C67.6811 426.175 67.1381 426.016 66.4061 425.824C65.5901 425.608 64.9421 425.377 64.4621 425.131C63.9821 424.879 63.6371 424.582 63.4271 424.24C63.2171 423.898 63.1121 423.484 63.1121 422.998C63.1121 422.392 63.2711 421.864 63.5891 421.414C63.9071 420.964 64.3511 420.619 64.9211 420.379C65.4911 420.133 66.1631 420.01 66.9371 420.01C67.6931 420.01 68.3621 420.127 68.9441 420.361C69.5321 420.595 70.0061 420.928 70.3661 421.36C70.7261 421.792 70.9481 422.299 71.0321 422.881L68.8181 423.277C68.7641 422.863 68.5751 422.536 68.2511 422.296C67.9331 422.056 67.5071 421.921 66.9731 421.891C66.4631 421.861 66.0521 421.939 65.7401 422.125C65.4281 422.305 65.2721 422.56 65.2721 422.89C65.2721 423.076 65.3351 423.235 65.4611 423.367C65.5871 423.499 65.8391 423.631 66.2171 423.763C66.6011 423.895 67.1711 424.057 67.9271 424.249C68.7011 424.447 69.3191 424.675 69.7811 424.933C70.2491 425.185 70.5851 425.488 70.7891 425.842C70.9991 426.196 71.1041 426.625 71.1041 427.129C71.1041 428.107 70.7471 428.875 70.0331 429.433C69.3251 429.991 68.3441 430.27 67.0901 430.27ZM76.7204 430.279C76.0004 430.279 75.4064 430.159 74.9384 429.919C74.4704 429.679 74.0984 429.373 73.8224 429.001C73.5464 428.629 73.3424 428.233 73.2104 427.813C73.0784 427.393 72.9914 426.997 72.9494 426.625C72.9134 426.247 72.8954 425.941 72.8954 425.707V420.28H75.0914V424.96C75.0914 425.26 75.1124 425.599 75.1544 425.977C75.1964 426.349 75.2924 426.709 75.4424 427.057C75.5984 427.399 75.8264 427.681 76.1264 427.903C76.4324 428.125 76.8434 428.236 77.3594 428.236C77.6354 428.236 77.9084 428.191 78.1784 428.101C78.4484 428.011 78.6914 427.858 78.9074 427.642C79.1294 427.42 79.3064 427.117 79.4384 426.733C79.5704 426.349 79.6364 425.863 79.6364 425.275L80.9234 425.824C80.9234 426.652 80.7614 427.402 80.4374 428.074C80.1194 428.746 79.6484 429.283 79.0244 429.685C78.4004 430.081 77.6324 430.279 76.7204 430.279ZM79.8974 430V426.985H79.6364V420.28H81.8144V430H79.8974ZM89.014 430.27C88.066 430.27 87.271 430.045 86.629 429.595C85.987 429.145 85.504 428.533 85.18 427.759C84.856 426.979 84.694 426.106 84.694 425.14C84.694 424.162 84.856 423.286 85.18 422.512C85.504 421.738 85.978 421.129 86.602 420.685C87.232 420.235 88.009 420.01 88.933 420.01C89.851 420.01 90.646 420.235 91.318 420.685C91.996 421.129 92.521 421.738 92.893 422.512C93.265 423.28 93.451 424.156 93.451 425.14C93.451 426.112 93.268 426.985 92.902 427.759C92.536 428.533 92.02 429.145 91.354 429.595C90.688 430.045 89.908 430.27 89.014 430.27ZM84.325 434.32V420.28H86.242V427.102H86.512V434.32H84.325ZM88.681 428.326C89.245 428.326 89.71 428.185 90.076 427.903C90.442 427.621 90.712 427.24 90.886 426.76C91.066 426.274 91.156 425.734 91.156 425.14C91.156 424.552 91.066 424.018 90.886 423.538C90.706 423.052 90.427 422.668 90.049 422.386C89.671 422.098 89.191 421.954 88.609 421.954C88.057 421.954 87.607 422.089 87.259 422.359C86.911 422.623 86.653 422.995 86.485 423.475C86.323 423.949 86.242 424.504 86.242 425.14C86.242 425.77 86.323 426.325 86.485 426.805C86.653 427.285 86.914 427.66 87.268 427.93C87.628 428.194 88.099 428.326 88.681 428.326ZM100.106 430.27C99.1578 430.27 98.3628 430.045 97.7208 429.595C97.0788 429.145 96.5958 428.533 96.2718 427.759C95.9478 426.979 95.7858 426.106 95.7858 425.14C95.7858 424.162 95.9478 423.286 96.2718 422.512C96.5958 421.738 97.0698 421.129 97.6938 420.685C98.3238 420.235 99.1008 420.01 100.025 420.01C100.943 420.01 101.738 420.235 102.41 420.685C103.088 421.129 103.613 421.738 103.985 422.512C104.357 423.28 104.543 424.156 104.543 425.14C104.543 426.112 104.36 426.985 103.994 427.759C103.628 428.533 103.112 429.145 102.446 429.595C101.78 430.045 101 430.27 100.106 430.27ZM95.4168 434.32V420.28H97.3338V427.102H97.6038V434.32H95.4168ZM99.7728 428.326C100.337 428.326 100.802 428.185 101.168 427.903C101.534 427.621 101.804 427.24 101.978 426.76C102.158 426.274 102.248 425.734 102.248 425.14C102.248 424.552 102.158 424.018 101.978 423.538C101.798 423.052 101.519 422.668 101.141 422.386C100.763 422.098 100.283 421.954 99.7008 421.954C99.1488 421.954 98.6988 422.089 98.3508 422.359C98.0028 422.623 97.7448 422.995 97.5768 423.475C97.4148 423.949 97.3338 424.504 97.3338 425.14C97.3338 425.77 97.4148 426.325 97.5768 426.805C97.7448 427.285 98.0058 427.66 98.3598 427.93C98.7198 428.194 99.1908 428.326 99.7728 428.326ZM106.707 430V416.77H108.876V430H106.707ZM112.85 434.32L114.722 429.181L114.758 430.693L110.519 420.28H112.778L115.784 427.984H115.208L118.133 420.28H120.302L114.884 434.32H112.85ZM129.468 430.27C128.466 430.27 127.611 430.048 126.903 429.604C126.195 429.154 125.652 428.542 125.274 427.768C124.902 426.994 124.713 426.118 124.707 425.14C124.713 424.144 124.908 423.262 125.292 422.494C125.682 421.72 126.234 421.114 126.948 420.676C127.662 420.232 128.511 420.01 129.495 420.01C130.599 420.01 131.532 420.289 132.294 420.847C133.062 421.399 133.563 422.155 133.797 423.115L131.637 423.7C131.469 423.178 131.19 422.773 130.8 422.485C130.41 422.191 129.966 422.044 129.468 422.044C128.904 422.044 128.439 422.179 128.073 422.449C127.707 422.713 127.437 423.079 127.263 423.547C127.089 424.015 127.002 424.546 127.002 425.14C127.002 426.064 127.209 426.811 127.623 427.381C128.037 427.951 128.652 428.236 129.468 428.236C130.044 428.236 130.497 428.104 130.827 427.84C131.163 427.576 131.415 427.195 131.583 426.697L133.797 427.192C133.497 428.182 132.972 428.944 132.222 429.478C131.472 430.006 130.554 430.27 129.468 430.27ZM142.324 430V425.32C142.324 425.014 142.303 424.675 142.261 424.303C142.219 423.931 142.12 423.574 141.964 423.232C141.814 422.884 141.586 422.599 141.28 422.377C140.98 422.155 140.572 422.044 140.056 422.044C139.78 422.044 139.507 422.089 139.237 422.179C138.967 422.269 138.721 422.425 138.499 422.647C138.283 422.863 138.109 423.163 137.977 423.547C137.845 423.925 137.779 424.411 137.779 425.005L136.492 424.456C136.492 423.628 136.651 422.878 136.969 422.206C137.293 421.534 137.767 421 138.391 420.604C139.015 420.202 139.783 420.001 140.695 420.001C141.415 420.001 142.009 420.121 142.477 420.361C142.945 420.601 143.317 420.907 143.593 421.279C143.869 421.651 144.073 422.047 144.205 422.467C144.337 422.887 144.421 423.286 144.457 423.664C144.499 424.036 144.52 424.339 144.52 424.573V430H142.324ZM135.583 430V417.04H137.518V423.862H137.779V430H135.583ZM149.586 430.27C148.884 430.27 148.29 430.138 147.804 429.874C147.318 429.604 146.949 429.247 146.697 428.803C146.451 428.359 146.328 427.87 146.328 427.336C146.328 426.868 146.406 426.448 146.562 426.076C146.718 425.698 146.958 425.374 147.282 425.104C147.606 424.828 148.026 424.603 148.542 424.429C148.932 424.303 149.388 424.189 149.91 424.087C150.438 423.985 151.008 423.892 151.62 423.808C152.238 423.718 152.883 423.622 153.555 423.52L152.781 423.961C152.787 423.289 152.637 422.794 152.331 422.476C152.025 422.158 151.509 421.999 150.783 421.999C150.345 421.999 149.922 422.101 149.514 422.305C149.106 422.509 148.821 422.86 148.659 423.358L146.679 422.737C146.919 421.915 147.375 421.255 148.047 420.757C148.725 420.259 149.637 420.01 150.783 420.01C151.647 420.01 152.406 420.151 153.06 420.433C153.72 420.715 154.209 421.177 154.527 421.819C154.701 422.161 154.806 422.512 154.842 422.872C154.878 423.226 154.896 423.613 154.896 424.033V430H152.997V427.894L153.312 428.236C152.874 428.938 152.361 429.454 151.773 429.784C151.191 430.108 150.462 430.27 149.586 430.27ZM150.018 428.542C150.51 428.542 150.93 428.455 151.278 428.281C151.626 428.107 151.902 427.894 152.106 427.642C152.316 427.39 152.457 427.153 152.529 426.931C152.643 426.655 152.706 426.34 152.718 425.986C152.736 425.626 152.745 425.335 152.745 425.113L153.411 425.311C152.757 425.413 152.196 425.503 151.728 425.581C151.26 425.659 150.858 425.734 150.522 425.806C150.186 425.872 149.889 425.947 149.631 426.031C149.379 426.121 149.166 426.226 148.992 426.346C148.818 426.466 148.683 426.604 148.587 426.76C148.497 426.916 148.452 427.099 148.452 427.309C148.452 427.549 148.512 427.762 148.632 427.948C148.752 428.128 148.926 428.272 149.154 428.38C149.388 428.488 149.676 428.542 150.018 428.542ZM157.419 418.804V416.815H159.588V418.804H157.419ZM157.419 430V420.28H159.588V430H157.419ZM169.007 430V425.32C169.007 425.014 168.986 424.675 168.944 424.303C168.902 423.931 168.803 423.574 168.647 423.232C168.497 422.884 168.269 422.599 167.963 422.377C167.663 422.155 167.255 422.044 166.739 422.044C166.463 422.044 166.19 422.089 165.92 422.179C165.65 422.269 165.404 422.425 165.182 422.647C164.966 422.863 164.792 423.163 164.66 423.547C164.528 423.925 164.462 424.411 164.462 425.005L163.175 424.456C163.175 423.628 163.334 422.878 163.652 422.206C163.976 421.534 164.45 421 165.074 420.604C165.698 420.202 166.466 420.001 167.378 420.001C168.098 420.001 168.692 420.121 169.16 420.361C169.628 420.601 170 420.907 170.276 421.279C170.552 421.651 170.756 422.047 170.888 422.467C171.02 422.887 171.104 423.286 171.14 423.664C171.182 424.036 171.203 424.339 171.203 424.573V430H169.007ZM162.266 430V420.28H164.201V423.295H164.462V430H162.266ZM173.912 430V427.777H176.135V430H173.912Z" fill="white"/>
<path d="M37.5459 315.179C36.1765 315.179 34.9415 314.941 33.8409 314.464C32.7489 313.987 31.8475 313.307 31.1369 312.423C30.4349 311.53 29.9885 310.473 29.7979 309.251L33.0479 308.757C33.3252 309.866 33.8929 310.724 34.7509 311.331C35.6175 311.938 36.6142 312.241 37.7409 312.241C38.4082 312.241 39.0365 312.137 39.6259 311.929C40.2152 311.721 40.6919 311.418 41.0559 311.019C41.4285 310.62 41.6149 310.131 41.6149 309.55C41.6149 309.29 41.5715 309.052 41.4849 308.835C41.3982 308.61 41.2682 308.41 41.0949 308.237C40.9302 308.064 40.7135 307.908 40.4449 307.769C40.1849 307.622 39.8815 307.496 39.5349 307.392L34.6989 305.962C34.2829 305.841 33.8322 305.68 33.3469 305.481C32.8702 305.273 32.4152 304.991 31.9819 304.636C31.5572 304.272 31.2062 303.813 30.9289 303.258C30.6602 302.695 30.5259 302.001 30.5259 301.178C30.5259 299.973 30.8292 298.964 31.4359 298.149C32.0512 297.326 32.8745 296.71 33.9059 296.303C34.9459 295.896 36.0985 295.696 37.3639 295.705C38.6465 295.714 39.7905 295.935 40.7959 296.368C41.8012 296.793 42.6419 297.412 43.3179 298.227C43.9939 299.042 44.4705 300.025 44.7479 301.178L41.3809 301.763C41.2422 301.104 40.9735 300.545 40.5749 300.086C40.1849 299.618 39.7039 299.263 39.1319 299.02C38.5685 298.777 37.9662 298.647 37.3249 298.63C36.7009 298.621 36.1202 298.717 35.5829 298.916C35.0542 299.107 34.6252 299.384 34.2959 299.748C33.9752 300.112 33.8149 300.537 33.8149 301.022C33.8149 301.481 33.9535 301.858 34.2309 302.153C34.5082 302.439 34.8505 302.669 35.2579 302.842C35.6739 303.007 36.0942 303.145 36.5189 303.258L39.8729 304.194C40.3322 304.315 40.8479 304.48 41.4199 304.688C41.9919 304.896 42.5422 305.186 43.0709 305.559C43.5995 305.932 44.0329 306.421 44.3709 307.028C44.7175 307.635 44.8909 308.406 44.8909 309.342C44.8909 310.313 44.6872 311.166 44.2799 311.903C43.8812 312.631 43.3395 313.238 42.6549 313.723C41.9702 314.208 41.1859 314.572 40.3019 314.815C39.4265 315.058 38.5079 315.179 37.5459 315.179ZM53.6198 315.192C52.5798 315.192 51.7218 315.019 51.0458 314.672C50.3698 314.325 49.8324 313.883 49.4338 313.346C49.0351 312.809 48.7404 312.237 48.5498 311.63C48.3591 311.023 48.2334 310.451 48.1728 309.914C48.1208 309.368 48.0948 308.926 48.0948 308.588V300.749H51.2668V307.509C51.2668 307.942 51.2971 308.432 51.3578 308.978C51.4184 309.515 51.5571 310.035 51.7738 310.538C51.9991 311.032 52.3284 311.439 52.7618 311.76C53.2038 312.081 53.7974 312.241 54.5428 312.241C54.9414 312.241 55.3358 312.176 55.7258 312.046C56.1158 311.916 56.4668 311.695 56.7788 311.383C57.0994 311.062 57.3551 310.625 57.5458 310.07C57.7364 309.515 57.8318 308.813 57.8318 307.964L59.6908 308.757C59.6908 309.953 59.4568 311.036 58.9888 312.007C58.5294 312.978 57.8491 313.753 56.9478 314.334C56.0464 314.906 54.9371 315.192 53.6198 315.192ZM58.2088 314.789V310.434H57.8318V300.749H60.9778V314.789H58.2088ZM72.0272 315.179C70.6578 315.179 69.5095 314.854 68.5822 314.204C67.6548 313.554 66.9572 312.67 66.4892 311.552C66.0212 310.425 65.7872 309.164 65.7872 307.769C65.7872 306.356 66.0212 305.091 66.4892 303.973C66.9572 302.855 67.6418 301.975 68.5432 301.334C69.4532 300.684 70.5755 300.359 71.9102 300.359C73.2362 300.359 74.3845 300.684 75.3552 301.334C76.3345 301.975 77.0928 302.855 77.6302 303.973C78.1675 305.082 78.4362 306.348 78.4362 307.769C78.4362 309.173 78.1718 310.434 77.6432 311.552C77.1145 312.67 76.3692 313.554 75.4072 314.204C74.4452 314.854 73.3185 315.179 72.0272 315.179ZM65.2542 321.029V300.749H68.0232V310.603H68.4132V321.029H65.2542ZM71.5462 312.371C72.3608 312.371 73.0325 312.167 73.5612 311.76C74.0898 311.353 74.4798 310.802 74.7312 310.109C74.9912 309.407 75.1212 308.627 75.1212 307.769C75.1212 306.92 74.9912 306.148 74.7312 305.455C74.4712 304.753 74.0682 304.198 73.5222 303.791C72.9762 303.375 72.2828 303.167 71.4422 303.167C70.6448 303.167 69.9948 303.362 69.4922 303.752C68.9895 304.133 68.6168 304.671 68.3742 305.364C68.1402 306.049 68.0232 306.85 68.0232 307.769C68.0232 308.679 68.1402 309.481 68.3742 310.174C68.6168 310.867 68.9938 311.409 69.5052 311.799C70.0252 312.18 70.7055 312.371 71.5462 312.371ZM88.6986 315.179C87.3293 315.179 86.181 314.854 85.2536 314.204C84.3263 313.554 83.6286 312.67 83.1606 311.552C82.6926 310.425 82.4586 309.164 82.4586 307.769C82.4586 306.356 82.6926 305.091 83.1606 303.973C83.6286 302.855 84.3133 301.975 85.2146 301.334C86.1246 300.684 87.247 300.359 88.5816 300.359C89.9076 300.359 91.056 300.684 92.0266 301.334C93.006 301.975 93.7643 302.855 94.3016 303.973C94.839 305.082 95.1076 306.348 95.1076 307.769C95.1076 309.173 94.8433 310.434 94.3146 311.552C93.786 312.67 93.0406 313.554 92.0786 314.204C91.1166 314.854 89.99 315.179 88.6986 315.179ZM81.9256 321.029V300.749H84.6946V310.603H85.0846V321.029H81.9256ZM88.2176 312.371C89.0323 312.371 89.704 312.167 90.2326 311.76C90.7613 311.353 91.1513 310.802 91.4026 310.109C91.6626 309.407 91.7926 308.627 91.7926 307.769C91.7926 306.92 91.6626 306.148 91.4026 305.455C91.1426 304.753 90.7396 304.198 90.1936 303.791C89.6476 303.375 88.9543 303.167 88.1136 303.167C87.3163 303.167 86.6663 303.362 86.1636 303.752C85.661 304.133 85.2883 304.671 85.0456 305.364C84.8116 306.049 84.6946 306.85 84.6946 307.769C84.6946 308.679 84.8116 309.481 85.0456 310.174C85.2883 310.867 85.6653 311.409 86.1766 311.799C86.6966 312.18 87.377 312.371 88.2176 312.371ZM98.8831 314.789V295.679H102.016V314.789H98.8831ZM108.406 321.029L111.11 313.606L111.162 315.79L105.039 300.749H108.302L112.644 311.877H111.812L116.037 300.749H119.17L111.344 321.029H108.406ZM135.531 315.179C133.659 315.179 132.056 314.772 130.721 313.957C129.386 313.134 128.359 311.99 127.64 310.525C126.929 309.06 126.574 307.362 126.574 305.429C126.574 303.496 126.929 301.798 127.64 300.333C128.359 298.868 129.386 297.729 130.721 296.914C132.056 296.091 133.659 295.679 135.531 295.679C137.689 295.679 139.487 296.221 140.926 297.304C142.365 298.379 143.374 299.83 143.955 301.659L140.796 302.53C140.432 301.308 139.812 300.355 138.937 299.67C138.062 298.977 136.926 298.63 135.531 298.63C134.274 298.63 133.226 298.912 132.385 299.475C131.553 300.038 130.925 300.831 130.5 301.854C130.084 302.868 129.872 304.06 129.863 305.429C129.863 306.798 130.071 307.994 130.487 309.017C130.912 310.031 131.544 310.82 132.385 311.383C133.226 311.946 134.274 312.228 135.531 312.228C136.926 312.228 138.062 311.881 138.937 311.188C139.812 310.495 140.432 309.541 140.796 308.328L143.955 309.199C143.374 311.028 142.365 312.484 140.926 313.567C139.487 314.642 137.689 315.179 135.531 315.179ZM157.17 314.789V308.029C157.17 307.587 157.14 307.097 157.079 306.56C157.019 306.023 156.876 305.507 156.65 305.013C156.434 304.51 156.104 304.099 155.662 303.778C155.229 303.457 154.64 303.297 153.894 303.297C153.496 303.297 153.101 303.362 152.711 303.492C152.321 303.622 151.966 303.847 151.645 304.168C151.333 304.48 151.082 304.913 150.891 305.468C150.701 306.014 150.605 306.716 150.605 307.574L148.746 306.781C148.746 305.585 148.976 304.502 149.435 303.531C149.903 302.56 150.588 301.789 151.489 301.217C152.391 300.636 153.5 300.346 154.817 300.346C155.857 300.346 156.715 300.519 157.391 300.866C158.067 301.213 158.605 301.655 159.003 302.192C159.402 302.729 159.697 303.301 159.887 303.908C160.078 304.515 160.199 305.091 160.251 305.637C160.312 306.174 160.342 306.612 160.342 306.95V314.789H157.17ZM147.433 314.789V296.069H150.228V305.923H150.605V314.789H147.433ZM168.311 315.179C167.297 315.179 166.439 314.988 165.737 314.607C165.035 314.217 164.502 313.701 164.138 313.06C163.783 312.419 163.605 311.712 163.605 310.941C163.605 310.265 163.718 309.658 163.943 309.121C164.168 308.575 164.515 308.107 164.983 307.717C165.451 307.318 166.058 306.993 166.803 306.742C167.366 306.56 168.025 306.395 168.779 306.248C169.542 306.101 170.365 305.966 171.249 305.845C172.142 305.715 173.073 305.576 174.044 305.429L172.926 306.066C172.935 305.095 172.718 304.38 172.276 303.921C171.834 303.462 171.089 303.232 170.04 303.232C169.407 303.232 168.796 303.379 168.207 303.674C167.618 303.969 167.206 304.476 166.972 305.195L164.112 304.298C164.459 303.111 165.117 302.157 166.088 301.438C167.067 300.719 168.385 300.359 170.04 300.359C171.288 300.359 172.384 300.563 173.329 300.97C174.282 301.377 174.989 302.045 175.448 302.972C175.699 303.466 175.851 303.973 175.903 304.493C175.955 305.004 175.981 305.563 175.981 306.17V314.789H173.238V311.747L173.693 312.241C173.06 313.255 172.319 314 171.47 314.477C170.629 314.945 169.576 315.179 168.311 315.179ZM168.935 312.683C169.646 312.683 170.252 312.557 170.755 312.306C171.258 312.055 171.656 311.747 171.951 311.383C172.254 311.019 172.458 310.677 172.562 310.356C172.727 309.957 172.818 309.502 172.835 308.991C172.861 308.471 172.874 308.051 172.874 307.73L173.836 308.016C172.891 308.163 172.081 308.293 171.405 308.406C170.729 308.519 170.148 308.627 169.663 308.731C169.178 308.826 168.749 308.935 168.376 309.056C168.012 309.186 167.704 309.338 167.453 309.511C167.202 309.684 167.007 309.884 166.868 310.109C166.738 310.334 166.673 310.599 166.673 310.902C166.673 311.249 166.76 311.556 166.933 311.825C167.106 312.085 167.358 312.293 167.687 312.449C168.025 312.605 168.441 312.683 168.935 312.683ZM180.275 298.617V295.744H183.408V298.617H180.275ZM180.275 314.789V300.749H183.408V314.789H180.275ZM197.663 314.789V308.029C197.663 307.587 197.633 307.097 197.572 306.56C197.512 306.023 197.369 305.507 197.143 305.013C196.927 304.51 196.597 304.099 196.155 303.778C195.722 303.457 195.133 303.297 194.387 303.297C193.989 303.297 193.594 303.362 193.204 303.492C192.814 303.622 192.459 303.847 192.138 304.168C191.826 304.48 191.575 304.913 191.384 305.468C191.194 306.014 191.098 306.716 191.098 307.574L189.239 306.781C189.239 305.585 189.469 304.502 189.928 303.531C190.396 302.56 191.081 301.789 191.982 301.217C192.884 300.636 193.993 300.346 195.31 300.346C196.35 300.346 197.208 300.519 197.884 300.866C198.56 301.213 199.098 301.655 199.496 302.192C199.895 302.729 200.19 303.301 200.38 303.908C200.571 304.515 200.692 305.091 200.744 305.637C200.805 306.174 200.835 306.612 200.835 306.95V314.789H197.663ZM187.926 314.789V300.749H190.721V305.104H191.098V314.789H187.926ZM210.733 314.789V296.069H216.7C216.856 296.069 217.164 296.073 217.623 296.082C218.091 296.091 218.542 296.121 218.975 296.173C220.457 296.364 221.709 296.892 222.732 297.759C223.763 298.617 224.543 299.713 225.072 301.048C225.601 302.383 225.865 303.843 225.865 305.429C225.865 307.015 225.601 308.475 225.072 309.81C224.543 311.145 223.763 312.245 222.732 313.112C221.709 313.97 220.457 314.494 218.975 314.685C218.55 314.737 218.104 314.767 217.636 314.776C217.168 314.785 216.856 314.789 216.7 314.789H210.733ZM213.918 311.838H216.7C216.96 311.838 217.289 311.829 217.688 311.812C218.095 311.795 218.455 311.756 218.767 311.695C219.651 311.53 220.37 311.136 220.925 310.512C221.48 309.888 221.887 309.13 222.147 308.237C222.416 307.344 222.55 306.408 222.55 305.429C222.55 304.415 222.416 303.462 222.147 302.569C221.878 301.676 221.462 300.927 220.899 300.32C220.344 299.713 219.634 299.328 218.767 299.163C218.455 299.094 218.095 299.055 217.688 299.046C217.289 299.029 216.96 299.02 216.7 299.02H213.918V311.838ZM229.848 298.617V295.744H232.981V298.617H229.848ZM229.848 314.789V300.749H232.981V314.789H229.848ZM242.946 315.179C241.213 315.179 239.804 314.789 238.721 314.009C237.638 313.229 236.979 312.133 236.745 310.72L239.943 310.226C240.108 310.919 240.472 311.465 241.035 311.864C241.598 312.263 242.309 312.462 243.167 312.462C243.921 312.462 244.502 312.315 244.909 312.02C245.325 311.717 245.533 311.305 245.533 310.785C245.533 310.464 245.455 310.209 245.299 310.018C245.152 309.819 244.822 309.628 244.311 309.446C243.8 309.264 243.015 309.034 241.958 308.757C240.779 308.445 239.843 308.111 239.15 307.756C238.457 307.392 237.958 306.963 237.655 306.469C237.352 305.975 237.2 305.377 237.2 304.675C237.2 303.8 237.43 303.037 237.889 302.387C238.348 301.737 238.99 301.239 239.813 300.892C240.636 300.537 241.607 300.359 242.725 300.359C243.817 300.359 244.783 300.528 245.624 300.866C246.473 301.204 247.158 301.685 247.678 302.309C248.198 302.933 248.519 303.665 248.64 304.506L245.442 305.078C245.364 304.48 245.091 304.008 244.623 303.661C244.164 303.314 243.548 303.119 242.777 303.076C242.04 303.033 241.447 303.145 240.996 303.414C240.545 303.674 240.32 304.042 240.32 304.519C240.32 304.788 240.411 305.017 240.593 305.208C240.775 305.399 241.139 305.589 241.685 305.78C242.24 305.971 243.063 306.205 244.155 306.482C245.273 306.768 246.166 307.097 246.833 307.47C247.509 307.834 247.994 308.272 248.289 308.783C248.592 309.294 248.744 309.914 248.744 310.642C248.744 312.055 248.228 313.164 247.197 313.97C246.174 314.776 244.757 315.179 242.946 315.179ZM252.241 314.789V300.749H255.01V304.168L254.672 303.726C254.846 303.258 255.075 302.833 255.361 302.452C255.656 302.062 256.007 301.741 256.414 301.49C256.761 301.256 257.142 301.074 257.558 300.944C257.983 300.805 258.416 300.723 258.858 300.697C259.3 300.662 259.729 300.68 260.145 300.749V303.674C259.729 303.553 259.248 303.514 258.702 303.557C258.165 303.6 257.68 303.752 257.246 304.012C256.813 304.246 256.458 304.545 256.18 304.909C255.912 305.273 255.712 305.689 255.582 306.157C255.452 306.616 255.387 307.115 255.387 307.652V314.789H252.241ZM268.541 315.192C267.501 315.192 266.643 315.019 265.967 314.672C265.291 314.325 264.754 313.883 264.355 313.346C263.957 312.809 263.662 312.237 263.471 311.63C263.281 311.023 263.155 310.451 263.094 309.914C263.042 309.368 263.016 308.926 263.016 308.588V300.749H266.188V307.509C266.188 307.942 266.219 308.432 266.279 308.978C266.34 309.515 266.479 310.035 266.695 310.538C266.921 311.032 267.25 311.439 267.683 311.76C268.125 312.081 268.719 312.241 269.464 312.241C269.863 312.241 270.257 312.176 270.647 312.046C271.037 311.916 271.388 311.695 271.7 311.383C272.021 311.062 272.277 310.625 272.467 310.07C272.658 309.515 272.753 308.813 272.753 307.964L274.612 308.757C274.612 309.953 274.378 311.036 273.91 312.007C273.451 312.978 272.771 313.753 271.869 314.334C270.968 314.906 269.859 315.192 268.541 315.192ZM273.13 314.789V310.434H272.753V300.749H275.899V314.789H273.13ZM286.949 315.179C285.579 315.179 284.431 314.854 283.504 314.204C282.576 313.554 281.879 312.67 281.411 311.552C280.943 310.425 280.709 309.164 280.709 307.769C280.709 306.356 280.943 305.091 281.411 303.973C281.879 302.855 282.563 301.975 283.465 301.334C284.375 300.684 285.497 300.359 286.832 300.359C288.158 300.359 289.306 300.684 290.277 301.334C291.256 301.975 292.014 302.855 292.552 303.973C293.089 305.082 293.358 306.348 293.358 307.769C293.358 309.173 293.093 310.434 292.565 311.552C292.036 312.67 291.291 313.554 290.329 314.204C289.367 314.854 288.24 315.179 286.949 315.179ZM280.176 321.029V300.749H282.945V310.603H283.335V321.029H280.176ZM286.468 312.371C287.282 312.371 287.954 312.167 288.483 311.76C289.011 311.353 289.401 310.802 289.653 310.109C289.913 309.407 290.043 308.627 290.043 307.769C290.043 306.92 289.913 306.148 289.653 305.455C289.393 304.753 288.99 304.198 288.444 303.791C287.898 303.375 287.204 303.167 286.364 303.167C285.566 303.167 284.916 303.362 284.414 303.752C283.911 304.133 283.538 304.671 283.296 305.364C283.062 306.049 282.945 306.85 282.945 307.769C282.945 308.679 283.062 309.481 283.296 310.174C283.538 310.867 283.915 311.409 284.427 311.799C284.947 312.18 285.627 312.371 286.468 312.371ZM305.102 314.789C304.175 314.962 303.265 315.036 302.372 315.01C301.488 314.993 300.695 314.832 299.993 314.529C299.291 314.217 298.758 313.727 298.394 313.06C298.073 312.453 297.904 311.834 297.887 311.201C297.87 310.568 297.861 309.853 297.861 309.056V296.849H300.981V308.874C300.981 309.437 300.985 309.931 300.994 310.356C301.011 310.781 301.102 311.127 301.267 311.396C301.579 311.916 302.077 312.206 302.762 312.267C303.447 312.328 304.227 312.293 305.102 312.163V314.789ZM295.313 303.206V300.749H305.102V303.206H295.313ZM309.031 298.617V295.744H312.164V298.617H309.031ZM309.031 314.789V300.749H312.164V314.789H309.031ZM322.909 315.179C321.505 315.179 320.279 314.863 319.23 314.23C318.182 313.597 317.367 312.726 316.786 311.617C316.214 310.499 315.928 309.216 315.928 307.769C315.928 306.296 316.223 305.004 316.812 303.895C317.402 302.786 318.221 301.919 319.269 301.295C320.318 300.671 321.531 300.359 322.909 300.359C324.322 300.359 325.553 300.675 326.601 301.308C327.65 301.941 328.465 302.816 329.045 303.934C329.626 305.043 329.916 306.322 329.916 307.769C329.916 309.225 329.622 310.512 329.032 311.63C328.452 312.739 327.637 313.61 326.588 314.243C325.54 314.867 324.313 315.179 322.909 315.179ZM322.909 312.241C324.157 312.241 325.085 311.825 325.691 310.993C326.298 310.161 326.601 309.086 326.601 307.769C326.601 306.408 326.294 305.325 325.678 304.519C325.063 303.704 324.14 303.297 322.909 303.297C322.069 303.297 321.375 303.488 320.829 303.869C320.292 304.242 319.893 304.766 319.633 305.442C319.373 306.109 319.243 306.885 319.243 307.769C319.243 309.13 319.551 310.217 320.166 311.032C320.79 311.838 321.705 312.241 322.909 312.241ZM343.142 314.789V308.029C343.142 307.587 343.111 307.097 343.051 306.56C342.99 306.023 342.847 305.507 342.622 305.013C342.405 304.51 342.076 304.099 341.634 303.778C341.2 303.457 340.611 303.297 339.866 303.297C339.467 303.297 339.073 303.362 338.683 303.492C338.293 303.622 337.937 303.847 337.617 304.168C337.305 304.48 337.053 304.913 336.863 305.468C336.672 306.014 336.577 306.716 336.577 307.574L334.718 306.781C334.718 305.585 334.947 304.502 335.407 303.531C335.875 302.56 336.559 301.789 337.461 301.217C338.362 300.636 339.471 300.346 340.789 300.346C341.829 300.346 342.687 300.519 343.363 300.866C344.039 301.213 344.576 301.655 344.975 302.192C345.373 302.729 345.668 303.301 345.859 303.908C346.049 304.515 346.171 305.091 346.223 305.637C346.283 306.174 346.314 306.612 346.314 306.95V314.789H343.142ZM333.405 314.789V300.749H336.2V305.104H336.577V314.789H333.405ZM30.6169 346.789V328.069H33.7889L42.4729 341.264V328.069H45.6449V346.789H42.4729L33.7889 333.594V346.789H30.6169ZM56.13 347.179C54.726 347.179 53.4997 346.863 52.451 346.23C51.4023 345.597 50.5877 344.726 50.007 343.617C49.435 342.499 49.149 341.216 49.149 339.769C49.149 338.296 49.4437 337.004 50.033 335.895C50.6223 334.786 51.4413 333.919 52.49 333.295C53.5387 332.671 54.752 332.359 56.13 332.359C57.5427 332.359 58.7733 332.675 59.822 333.308C60.8707 333.941 61.6853 334.816 62.266 335.934C62.8467 337.043 63.137 338.322 63.137 339.769C63.137 341.225 62.8423 342.512 62.253 343.63C61.6723 344.739 60.8577 345.61 59.809 346.243C58.7603 346.867 57.534 347.179 56.13 347.179ZM56.13 344.241C57.378 344.241 58.3053 343.825 58.912 342.993C59.5187 342.161 59.822 341.086 59.822 339.769C59.822 338.408 59.5143 337.325 58.899 336.519C58.2837 335.704 57.3607 335.297 56.13 335.297C55.2893 335.297 54.596 335.488 54.05 335.869C53.5127 336.242 53.114 336.766 52.854 337.442C52.594 338.109 52.464 338.885 52.464 339.769C52.464 341.13 52.7717 342.217 53.387 343.032C54.011 343.838 54.9253 344.241 56.13 344.241ZM74.8803 346.789C73.9529 346.962 73.0429 347.036 72.1502 347.01C71.2662 346.993 70.4732 346.832 69.7712 346.529C69.0692 346.217 68.5362 345.727 68.1722 345.06C67.8516 344.453 67.6826 343.834 67.6652 343.201C67.6479 342.568 67.6392 341.853 67.6392 341.056V328.849H70.7592V340.874C70.7592 341.437 70.7636 341.931 70.7722 342.356C70.7896 342.781 70.8806 343.127 71.0452 343.396C71.3572 343.916 71.8556 344.206 72.5402 344.267C73.2249 344.328 74.0049 344.293 74.8803 344.163V346.789ZM65.0912 335.206V332.749H74.8803V335.206H65.0912ZM78.8093 330.617V327.744H81.9423V330.617H78.8093ZM78.8093 346.789V332.749H81.9423V346.789H78.8093ZM87.7084 346.789V332.528C87.7084 332.173 87.7214 331.783 87.7474 331.358C87.7734 330.925 87.8471 330.496 87.9684 330.071C88.0897 329.646 88.3107 329.261 88.6314 328.914C89.0301 328.472 89.4591 328.169 89.9184 328.004C90.3864 327.831 90.8457 327.735 91.2964 327.718C91.7471 327.692 92.1414 327.679 92.4794 327.679H94.2344V330.227H92.6094C92.0114 330.227 91.5651 330.379 91.2704 330.682C90.9844 330.977 90.8414 331.367 90.8414 331.852V346.789H87.7084ZM85.4464 335.206V332.749H94.2344V335.206H85.4464ZM96.9644 330.617V327.744H100.097V330.617H96.9644ZM96.9644 346.789V332.749H100.097V346.789H96.9644ZM110.753 347.179C109.306 347.179 108.071 346.858 107.048 346.217C106.025 345.567 105.241 344.683 104.695 343.565C104.158 342.447 103.885 341.182 103.876 339.769C103.885 338.33 104.166 337.056 104.721 335.947C105.284 334.829 106.082 333.954 107.113 333.321C108.144 332.68 109.371 332.359 110.792 332.359C112.387 332.359 113.734 332.762 114.835 333.568C115.944 334.365 116.668 335.457 117.006 336.844L113.886 337.689C113.643 336.935 113.24 336.35 112.677 335.934C112.114 335.509 111.472 335.297 110.753 335.297C109.938 335.297 109.267 335.492 108.738 335.882C108.209 336.263 107.819 336.792 107.568 337.468C107.317 338.144 107.191 338.911 107.191 339.769C107.191 341.104 107.49 342.183 108.088 343.006C108.686 343.829 109.574 344.241 110.753 344.241C111.585 344.241 112.239 344.05 112.716 343.669C113.201 343.288 113.565 342.737 113.808 342.018L117.006 342.733C116.573 344.163 115.814 345.264 114.731 346.035C113.648 346.798 112.322 347.179 110.753 347.179ZM123.959 347.179C122.945 347.179 122.087 346.988 121.385 346.607C120.683 346.217 120.15 345.701 119.786 345.06C119.43 344.419 119.253 343.712 119.253 342.941C119.253 342.265 119.365 341.658 119.591 341.121C119.816 340.575 120.163 340.107 120.631 339.717C121.099 339.318 121.705 338.993 122.451 338.742C123.014 338.56 123.673 338.395 124.427 338.248C125.189 338.101 126.013 337.966 126.897 337.845C127.789 337.715 128.721 337.576 129.692 337.429L128.574 338.066C128.582 337.095 128.366 336.38 127.924 335.921C127.482 335.462 126.736 335.232 125.688 335.232C125.055 335.232 124.444 335.379 123.855 335.674C123.265 335.969 122.854 336.476 122.62 337.195L119.76 336.298C120.106 335.111 120.765 334.157 121.736 333.438C122.715 332.719 124.032 332.359 125.688 332.359C126.936 332.359 128.032 332.563 128.977 332.97C129.93 333.377 130.636 334.045 131.096 334.972C131.347 335.466 131.499 335.973 131.551 336.493C131.603 337.004 131.629 337.563 131.629 338.17V346.789H128.886V343.747L129.341 344.241C128.708 345.255 127.967 346 127.118 346.477C126.277 346.945 125.224 347.179 123.959 347.179ZM124.583 344.683C125.293 344.683 125.9 344.557 126.403 344.306C126.905 344.055 127.304 343.747 127.599 343.383C127.902 343.019 128.106 342.677 128.21 342.356C128.374 341.957 128.465 341.502 128.483 340.991C128.509 340.471 128.522 340.051 128.522 339.73L129.484 340.016C128.539 340.163 127.729 340.293 127.053 340.406C126.377 340.519 125.796 340.627 125.311 340.731C124.825 340.826 124.396 340.935 124.024 341.056C123.66 341.186 123.352 341.338 123.101 341.511C122.849 341.684 122.654 341.884 122.516 342.109C122.386 342.334 122.321 342.599 122.321 342.902C122.321 343.249 122.407 343.556 122.581 343.825C122.754 344.085 123.005 344.293 123.335 344.449C123.673 344.605 124.089 344.683 124.583 344.683ZM143.892 346.789C142.965 346.962 142.055 347.036 141.162 347.01C140.278 346.993 139.485 346.832 138.783 346.529C138.081 346.217 137.548 345.727 137.184 345.06C136.863 344.453 136.694 343.834 136.677 343.201C136.66 342.568 136.651 341.853 136.651 341.056V328.849H139.771V340.874C139.771 341.437 139.775 341.931 139.784 342.356C139.801 342.781 139.892 343.127 140.057 343.396C140.369 343.916 140.867 344.206 141.552 344.267C142.237 344.328 143.017 344.293 143.892 344.163V346.789ZM134.103 335.206V332.749H143.892V335.206H134.103ZM147.821 330.617V327.744H150.954V330.617H147.821ZM147.821 346.789V332.749H150.954V346.789H147.821ZM161.699 347.179C160.295 347.179 159.069 346.863 158.02 346.23C156.971 345.597 156.157 344.726 155.576 343.617C155.004 342.499 154.718 341.216 154.718 339.769C154.718 338.296 155.013 337.004 155.602 335.895C156.191 334.786 157.01 333.919 158.059 333.295C159.108 332.671 160.321 332.359 161.699 332.359C163.112 332.359 164.342 332.675 165.391 333.308C166.44 333.941 167.254 334.816 167.835 335.934C168.416 337.043 168.706 338.322 168.706 339.769C168.706 341.225 168.411 342.512 167.822 343.63C167.241 344.739 166.427 345.61 165.378 346.243C164.329 346.867 163.103 347.179 161.699 347.179ZM161.699 344.241C162.947 344.241 163.874 343.825 164.481 342.993C165.088 342.161 165.391 341.086 165.391 339.769C165.391 338.408 165.083 337.325 164.468 336.519C163.853 335.704 162.93 335.297 161.699 335.297C160.858 335.297 160.165 335.488 159.619 335.869C159.082 336.242 158.683 336.766 158.423 337.442C158.163 338.109 158.033 338.885 158.033 339.769C158.033 341.13 158.341 342.217 158.956 343.032C159.58 343.838 160.494 344.241 161.699 344.241ZM181.931 346.789V340.029C181.931 339.587 181.901 339.097 181.84 338.56C181.78 338.023 181.637 337.507 181.411 337.013C181.195 336.51 180.865 336.099 180.423 335.778C179.99 335.457 179.401 335.297 178.655 335.297C178.257 335.297 177.862 335.362 177.472 335.492C177.082 335.622 176.727 335.847 176.406 336.168C176.094 336.48 175.843 336.913 175.652 337.468C175.462 338.014 175.366 338.716 175.366 339.574L173.507 338.781C173.507 337.585 173.737 336.502 174.196 335.531C174.664 334.56 175.349 333.789 176.25 333.217C177.152 332.636 178.261 332.346 179.578 332.346C180.618 332.346 181.476 332.519 182.152 332.866C182.828 333.213 183.366 333.655 183.764 334.192C184.163 334.729 184.458 335.301 184.648 335.908C184.839 336.515 184.96 337.091 185.012 337.637C185.073 338.174 185.103 338.612 185.103 338.95V346.789H181.931ZM172.194 346.789V332.749H174.989V337.104H175.366V346.789H172.194ZM194.567 347.179C192.833 347.179 191.425 346.789 190.342 346.009C189.258 345.229 188.6 344.133 188.366 342.72L191.564 342.226C191.728 342.919 192.092 343.465 192.656 343.864C193.219 344.263 193.93 344.462 194.788 344.462C195.542 344.462 196.122 344.315 196.53 344.02C196.946 343.717 197.154 343.305 197.154 342.785C197.154 342.464 197.076 342.209 196.92 342.018C196.772 341.819 196.443 341.628 195.932 341.446C195.42 341.264 194.636 341.034 193.579 340.757C192.4 340.445 191.464 340.111 190.771 339.756C190.077 339.392 189.579 338.963 189.276 338.469C188.972 337.975 188.821 337.377 188.821 336.675C188.821 335.8 189.05 335.037 189.51 334.387C189.969 333.737 190.61 333.239 191.434 332.892C192.257 332.537 193.228 332.359 194.346 332.359C195.438 332.359 196.404 332.528 197.245 332.866C198.094 333.204 198.779 333.685 199.299 334.309C199.819 334.933 200.139 335.665 200.261 336.506L197.063 337.078C196.985 336.48 196.712 336.008 196.244 335.661C195.784 335.314 195.169 335.119 194.398 335.076C193.661 335.033 193.067 335.145 192.617 335.414C192.166 335.674 191.941 336.042 191.941 336.519C191.941 336.788 192.032 337.017 192.214 337.208C192.396 337.399 192.76 337.589 193.306 337.78C193.86 337.971 194.684 338.205 195.776 338.482C196.894 338.768 197.786 339.097 198.454 339.47C199.13 339.834 199.615 340.272 199.91 340.783C200.213 341.294 200.365 341.914 200.365 342.642C200.365 344.055 199.849 345.164 198.818 345.97C197.795 346.776 196.378 347.179 194.567 347.179Z" fill="white"/>
<rect x="97.5" y="87.5" width="176" height="97" rx="13.5" stroke="white" stroke-width="5"/>
<path d="M113.858 184.25L185 117.738L256.142 184.25H113.858Z" stroke="white" stroke-width="4"/>
<path d="M110.735 87.75L185 151.367L259.265 87.75H110.735Z" fill="#EA81B0" stroke="white" stroke-width="4"/>
<rect x="227" y="62" width="71" height="50" rx="14" fill="#E77EB5" stroke="white" stroke-width="4"/>
<path d="M260.32 101V97.022H264.658V101H260.32ZM260.32 94.52V75.08H264.658V94.52H260.32Z" fill="white"/>
<path d="M241.614 112.2L254 124.214L266.386 112.2H241.614Z" fill="#EA81B0" stroke="white" stroke-width="4"/>
<path d="M254 121L271.321 104.2H236.679L254 121Z" fill="#E77EB5"/>
<defs>
<linearGradient id="paint0_linear_1_1364" x1="0" y1="0" x2="374.797" y2="251.03" gradientUnits="userSpaceOnUse">
<stop stop-color="#F48C9D"/>
<stop offset="1" stop-color="#D86ECC"/>
</linearGradient>
<linearGradient id="paint1_linear_1_1364" x1="0.000854492" y1="251.03" x2="374.798" y2="465" gradientUnits="userSpaceOnUse">
<stop stop-color="#F48C9D"/>
<stop offset="0.980339" stop-color="#D86ECC"/>
</linearGradient>
</defs>
</svg>
