<?xml version="1.0" encoding="UTF-8"?>
<?xml-stylesheet href="https://cdnjs.cloudflare.com/ajax/libs/font-awesome/6.6.0/css/all.min.css" type="text/css"?>
<svg aria-roledescription="xychart" role="graphics-document document" viewBox="0 0 1200 400" style="max-width: 100%;" xmlns="http://www.w3.org/2000/svg" width="100%" id="graph-div" height="100%" xmlns:xlink="http://www.w3.org/1999/xlink"><style>#graph-div{font-family:"trebuchet ms",verdana,arial,sans-serif;font-size:16px;fill:#ccc;}#graph-div .error-icon{fill:#a44141;}#graph-div .error-text{fill:#ddd;stroke:#ddd;}#graph-div .edge-thickness-normal{stroke-width:1px;}#graph-div .edge-thickness-thick{stroke-width:3.5px;}#graph-div .edge-pattern-solid{stroke-dasharray:0;}#graph-div .edge-thickness-invisible{stroke-width:0;fill:none;}#graph-div .edge-pattern-dashed{stroke-dasharray:3;}#graph-div .edge-pattern-dotted{stroke-dasharray:2;}#graph-div .marker{fill:lightgrey;stroke:lightgrey;}#graph-div .marker.cross{stroke:lightgrey;}#graph-div svg{font-family:"trebuchet ms",verdana,arial,sans-serif;font-size:16px;}#graph-div p{margin:0;}#graph-div :root{--mermaid-font-family:"trebuchet ms",verdana,arial,sans-serif;}</style><g></g><g class="main"><rect fill="#000000" class="background" height="400" width="1200"></rect><g class="chart-title"><text transform="translate(600, 21.600000381469727) rotate(0)" text-anchor="middle" dominant-baseline="middle" font-size="20" fill="#F4F2F3" y="0" x="0">Example 1</text></g><g class="plot"><g class="bar-plot-0"><rect stroke-width="0" stroke="#FFA600" fill="#FFA600" height="8" width="70.3" y="359" x="77.27539024353027"></rect><rect stroke-width="0" stroke="#FFA600" fill="#FFA600" height="8" width="70.3" y="359" x="194.00590243869357"></rect><rect stroke-width="0" stroke="#FFA600" fill="#FFA600" height="8" width="70.3" y="359" x="310.7364146338569"></rect><rect stroke-width="0" stroke="#FFA600" fill="#FFA600" height="8" width="70.3" y="359" x="427.46692682902017"></rect><rect stroke-width="0" stroke="#FFA600" fill="#FFA600" height="8" width="70.3" y="359" x="544.1974390241835"></rect><rect stroke-width="0" stroke="#FFA600" fill="#FFA600" height="8" width="70.3" y="359" x="660.9279512193468"></rect><rect stroke-width="0" stroke="#FFA600" fill="#FFA600" height="8" width="70.3" y="359" x="777.65846341451"></rect><rect stroke-width="0" stroke="#FFA600" fill="#FFA600" height="8" width="70.3" y="359" x="894.3889756096734"></rect><rect stroke-width="0" stroke="#FFA600" fill="#FFA600" height="8" width="70.3" y="359" x="1011.1194878048367"></rect><rect stroke-width="0" stroke="#FFA600" fill="#FFA600" height="8" width="70.3" y="359" x="1127.85"></rect></g><g class="bar-plot-1"><rect stroke-width="0" stroke="#d91e18" fill="#d91e18" height="8" width="70.3" y="359" x="77.27539024353027"></rect><rect stroke-width="0" stroke="#d91e18" fill="#d91e18" height="8" width="70.3" y="359" x="194.00590243869357"></rect><rect stroke-width="0" stroke="#d91e18" fill="#d91e18" height="8" width="70.3" y="359" x="310.7364146338569"></rect><rect stroke-width="0" stroke="#d91e18" fill="#d91e18" height="8" width="70.3" y="359" x="427.46692682902017"></rect><rect stroke-width="0" stroke="#d91e18" fill="#d91e18" height="8" width="70.3" y="359" x="544.1974390241835"></rect><rect stroke-width="0" stroke="#d91e18" fill="#d91e18" height="8" width="70.3" y="359" x="660.9279512193468"></rect><rect stroke-width="0" stroke="#d91e18" fill="#d91e18" height="8" width="70.3" y="359" x="777.65846341451"></rect><rect stroke-width="0" stroke="#d91e18" fill="#d91e18" height="8" width="70.3" y="359" x="894.3889756096734"></rect><rect stroke-width="0" stroke="#d91e18" fill="#d91e18" height="8" width="70.3" y="359" x="1011.1194878048367"></rect><rect stroke-width="0" stroke="#d91e18" fill="#d91e18" height="8" width="70.3" y="359" x="1127.85"></rect></g><g class="bar-plot-2"><rect stroke-width="0" stroke="#809500" fill="#809500" height="141.89299966812135" width="70.3" y="225.10700033187865" x="77.27539024353027"></rect><rect stroke-width="0" stroke="#809500" fill="#809500" height="146.50999965667722" width="70.3" y="220.49000034332278" x="194.00590243869357"></rect><rect stroke-width="0" stroke="#809500" fill="#809500" height="158.82199962615965" width="70.3" y="208.17800037384035" x="310.7364146338569"></rect><rect stroke-width="0" stroke="#809500" fill="#809500" height="147.2794996547699" width="70.3" y="219.7205003452301" x="427.46692682902017"></rect><rect stroke-width="0" stroke="#809500" fill="#809500" height="154.20499963760378" width="70.3" y="212.79500036239622" x="544.1974390241835"></rect><rect stroke-width="0" stroke="#809500" fill="#809500" height="148.3567996520996" width="70.3" y="218.6432003479004" x="660.9279512193468"></rect><rect stroke-width="0" stroke="#809500" fill="#809500" height="152.66599964141844" width="70.3" y="214.33400035858156" x="777.65846341451"></rect><rect stroke-width="0" stroke="#809500" fill="#809500" height="184.9849995613098" width="70.3" y="182.0150004386902" x="894.3889756096734"></rect><rect stroke-width="0" stroke="#809500" fill="#809500" height="221.92099946975708" width="70.3" y="145.07900053024292" x="1011.1194878048367"></rect><rect stroke-width="0" stroke="#809500" fill="#809500" height="235.46419943618776" width="70.3" y="131.53580056381224" x="1127.85"></rect></g><g class="line-plot-3"><path stroke-width="2" stroke="#ffffff" fill="none" d="M112.425,205.1L229.156,205.1L345.886,205.1L462.617,205.1L579.347,205.1L696.078,205.1L812.808,205.1L929.539,166.625L1046.269,128.15L1163,128.15"></path></g><g class="line-plot-4"><path stroke-width="2" stroke="#00ffff" fill="none" d="M112.425,81.98L229.156,81.98L345.886,81.98L462.617,81.98L579.347,81.98L696.078,81.98L812.808,81.98L929.539,81.98L1046.269,81.98L1163,81.98"></path></g></g><g class="bottom-axis"><g class="axis-line"><path stroke-width="2" stroke="#F4F2F3" fill="none" d="M 75.42539024353027,368 L 1200,368"></path></g><g class="label"><text transform="translate(112.42539024353027, 379) rotate(0)" text-anchor="middle" dominant-baseline="text-before-edge" font-size="14" fill="#F4F2F3" y="0" x="0">Week14</text><text transform="translate(229.15590243869357, 379) rotate(0)" text-anchor="middle" dominant-baseline="text-before-edge" font-size="14" fill="#F4F2F3" y="0" x="0">Week15</text><text transform="translate(345.8864146338569, 379) rotate(0)" text-anchor="middle" dominant-baseline="text-before-edge" font-size="14" fill="#F4F2F3" y="0" x="0">Week16</text><text transform="translate(462.61692682902014, 379) rotate(0)" text-anchor="middle" dominant-baseline="text-before-edge" font-size="14" fill="#F4F2F3" y="0" x="0">Week17</text><text transform="translate(579.3474390241835, 379) rotate(0)" text-anchor="middle" dominant-baseline="text-before-edge" font-size="14" fill="#F4F2F3" y="0" x="0">Week18</text><text transform="translate(696.0779512193468, 379) rotate(0)" text-anchor="middle" dominant-baseline="text-before-edge" font-size="14" fill="#F4F2F3" y="0" x="0">Week19</text><text transform="translate(812.80846341451, 379) rotate(0)" text-anchor="middle" dominant-baseline="text-before-edge" font-size="14" fill="#F4F2F3" y="0" x="0">Week20</text><text transform="translate(929.5389756096733, 379) rotate(0)" text-anchor="middle" dominant-baseline="text-before-edge" font-size="14" fill="#F4F2F3" y="0" x="0">Week21</text><text transform="translate(1046.2694878048367, 379) rotate(0)" text-anchor="middle" dominant-baseline="text-before-edge" font-size="14" fill="#F4F2F3" y="0" x="0">Week22</text><text transform="translate(1163, 379) rotate(0)" text-anchor="middle" dominant-baseline="text-before-edge" font-size="14" fill="#F4F2F3" y="0" x="0">Week23</text></g><g class="ticks"><path stroke-width="2" stroke="#F4F2F3" fill="none" d="M 112.42539024353027,369 L 112.42539024353027,374"></path><path stroke-width="2" stroke="#F4F2F3" fill="none" d="M 229.15590243869357,369 L 229.15590243869357,374"></path><path stroke-width="2" stroke="#F4F2F3" fill="none" d="M 345.8864146338569,369 L 345.8864146338569,374"></path><path stroke-width="2" stroke="#F4F2F3" fill="none" d="M 462.61692682902014,369 L 462.61692682902014,374"></path><path stroke-width="2" stroke="#F4F2F3" fill="none" d="M 579.3474390241835,369 L 579.3474390241835,374"></path><path stroke-width="2" stroke="#F4F2F3" fill="none" d="M 696.0779512193468,369 L 696.0779512193468,374"></path><path stroke-width="2" stroke="#F4F2F3" fill="none" d="M 812.80846341451,369 L 812.80846341451,374"></path><path stroke-width="2" stroke="#F4F2F3" fill="none" d="M 929.5389756096733,369 L 929.5389756096733,374"></path><path stroke-width="2" stroke="#F4F2F3" fill="none" d="M 1046.2694878048367,369 L 1046.2694878048367,374"></path><path stroke-width="2" stroke="#F4F2F3" fill="none" d="M 1163,369 L 1163,374"></path></g></g><g class="left-axis"><g class="axisl-line"><path stroke-width="2" stroke="#F4F2F3" fill="none" d="M 74.42539024353027,43.20000076293945 L 74.42539024353027,367"></path></g><g class="label"><text transform="translate(63.42539024353027, 51.20000076293945) rotate(0)" text-anchor="end" dominant-baseline="middle" font-size="14" fill="#F4F2F3" y="0" x="0">2000</text><text transform="translate(63.42539024353027, 81.9800006866455) rotate(0)" text-anchor="end" dominant-baseline="middle" font-size="14" fill="#F4F2F3" y="0" x="0">1800</text><text transform="translate(63.42539024353027, 112.76000061035154) rotate(0)" text-anchor="end" dominant-baseline="middle" font-size="14" fill="#F4F2F3" y="0" x="0">1600</text><text transform="translate(63.42539024353027, 143.54000053405764) rotate(0)" text-anchor="end" dominant-baseline="middle" font-size="14" fill="#F4F2F3" y="0" x="0">1400</text><text transform="translate(63.42539024353027, 174.32000045776365) rotate(0)" text-anchor="end" dominant-baseline="middle" font-size="14" fill="#F4F2F3" y="0" x="0">1200</text><text transform="translate(63.42539024353027, 205.10000038146973) rotate(0)" text-anchor="end" dominant-baseline="middle" font-size="14" fill="#F4F2F3" y="0" x="0">1000</text><text transform="translate(63.42539024353027, 235.8800003051758) rotate(0)" text-anchor="end" dominant-baseline="middle" font-size="14" fill="#F4F2F3" y="0" x="0">800</text><text transform="translate(63.42539024353027, 266.6600002288818) rotate(0)" text-anchor="end" dominant-baseline="middle" font-size="14" fill="#F4F2F3" y="0" x="0">600</text><text transform="translate(63.42539024353027, 297.44000015258786) rotate(0)" text-anchor="end" dominant-baseline="middle" font-size="14" fill="#F4F2F3" y="0" x="0">400</text><text transform="translate(63.42539024353027, 328.22000007629396) rotate(0)" text-anchor="end" dominant-baseline="middle" font-size="14" fill="#F4F2F3" y="0" x="0">200</text><text transform="translate(63.42539024353027, 359) rotate(0)" text-anchor="end" dominant-baseline="middle" font-size="14" fill="#F4F2F3" y="0" x="0">0</text></g><g class="ticks"><path stroke-width="2" stroke="#F4F2F3" fill="none" d="M 73.42539024353027,51.20000076293945 L 68.42539024353027,51.20000076293945"></path><path stroke-width="2" stroke="#F4F2F3" fill="none" d="M 73.42539024353027,81.9800006866455 L 68.42539024353027,81.9800006866455"></path><path stroke-width="2" stroke="#F4F2F3" fill="none" d="M 73.42539024353027,112.76000061035154 L 68.42539024353027,112.76000061035154"></path><path stroke-width="2" stroke="#F4F2F3" fill="none" d="M 73.42539024353027,143.54000053405764 L 68.42539024353027,143.54000053405764"></path><path stroke-width="2" stroke="#F4F2F3" fill="none" d="M 73.42539024353027,174.32000045776365 L 68.42539024353027,174.32000045776365"></path><path stroke-width="2" stroke="#F4F2F3" fill="none" d="M 73.42539024353027,205.10000038146973 L 68.42539024353027,205.10000038146973"></path><path stroke-width="2" stroke="#F4F2F3" fill="none" d="M 73.42539024353027,235.8800003051758 L 68.42539024353027,235.8800003051758"></path><path stroke-width="2" stroke="#F4F2F3" fill="none" d="M 73.42539024353027,266.6600002288818 L 68.42539024353027,266.6600002288818"></path><path stroke-width="2" stroke="#F4F2F3" fill="none" d="M 73.42539024353027,297.44000015258786 L 68.42539024353027,297.44000015258786"></path><path stroke-width="2" stroke="#F4F2F3" fill="none" d="M 73.42539024353027,328.22000007629396 L 68.42539024353027,328.22000007629396"></path><path stroke-width="2" stroke="#F4F2F3" fill="none" d="M 73.42539024353027,359 L 68.42539024353027,359"></path></g><g class="title"><text transform="translate(5, 205.10000038146973) rotate(270)" text-anchor="middle" dominant-baseline="text-before-edge" font-size="16" fill="#F4F2F3" y="0" x="0">.</text></g></g></g><g class="mermaid-tmp-group"></g></svg>