<svg id="mermaid-svg" width="100%" xmlns="http://www.w3.org/2000/svg" style="max-width: 1200px;" viewBox="0 0 1200 400" role="graphics-document document" aria-roledescription="xychart" xmlns:xlink="http://www.w3.org/1999/xlink"><style xmlns="http://www.w3.org/1999/xhtml">@import url("https://cdnjs.cloudflare.com/ajax/libs/font-awesome/6.6.0/css/all.min.css");</style><style>#mermaid-svg{font-family:"trebuchet ms",verdana,arial,sans-serif;font-size:16px;fill:#ccc;}#mermaid-svg .error-icon{fill:#a44141;}#mermaid-svg .error-text{fill:#ddd;stroke:#ddd;}#mermaid-svg .edge-thickness-normal{stroke-width:1px;}#mermaid-svg .edge-thickness-thick{stroke-width:3.5px;}#mermaid-svg .edge-pattern-solid{stroke-dasharray:0;}#mermaid-svg .edge-thickness-invisible{stroke-width:0;fill:none;}#mermaid-svg .edge-pattern-dashed{stroke-dasharray:3;}#mermaid-svg .edge-pattern-dotted{stroke-dasharray:2;}#mermaid-svg .marker{fill:lightgrey;stroke:lightgrey;}#mermaid-svg .marker.cross{stroke:lightgrey;}#mermaid-svg svg{font-family:"trebuchet ms",verdana,arial,sans-serif;font-size:16px;}#mermaid-svg p{margin:0;}#mermaid-svg :root{--mermaid-font-family:"trebuchet ms",verdana,arial,sans-serif;}</style><g/><g class="main"><rect width="1200" height="400" class="background" fill="#000000"/><g class="chart-title"><text x="0" y="0" fill="#F4F2F3" font-size="20" dominant-baseline="middle" text-anchor="middle" transform="translate(600, 21.5) rotate(0)">Example 3</text></g><g class="plot"><g class="bar-plot-0"><rect x="77.22500190734863" y="359" width="70.3" height="8" fill="#FFA600" stroke="#FFA600" stroke-width="0"/><rect x="193.9611128065321" y="359" width="70.3" height="8" fill="#FFA600" stroke="#FFA600" stroke-width="0"/><rect x="310.6972237057156" y="359" width="70.3" height="8" fill="#FFA600" stroke="#FFA600" stroke-width="0"/><rect x="427.43333460489913" y="359" width="70.3" height="8" fill="#FFA600" stroke="#FFA600" stroke-width="0"/><rect x="544.1694455040825" y="359" width="70.3" height="8" fill="#FFA600" stroke="#FFA600" stroke-width="0"/><rect x="660.9055564032661" y="359" width="70.3" height="8" fill="#FFA600" stroke="#FFA600" stroke-width="0"/><rect x="777.6416673024496" y="359" width="70.3" height="8" fill="#FFA600" stroke="#FFA600" stroke-width="0"/><rect x="894.3777782016331" y="359" width="70.3" height="8" fill="#FFA600" stroke="#FFA600" stroke-width="0"/><rect x="1011.1138891008164" y="359" width="70.3" height="8" fill="#FFA600" stroke="#FFA600" stroke-width="0"/><rect x="1127.85" y="359" width="70.3" height="8" fill="#FFA600" stroke="#FFA600" stroke-width="0"/></g><g class="bar-plot-1"><rect x="77.22500190734863" y="359" width="70.3" height="8" fill="#d91e18" stroke="#d91e18" stroke-width="0"/><rect x="193.9611128065321" y="359" width="70.3" height="8" fill="#d91e18" stroke="#d91e18" stroke-width="0"/><rect x="310.6972237057156" y="359" width="70.3" height="8" fill="#d91e18" stroke="#d91e18" stroke-width="0"/><rect x="427.43333460489913" y="359" width="70.3" height="8" fill="#d91e18" stroke="#d91e18" stroke-width="0"/><rect x="544.1694455040825" y="359" width="70.3" height="8" fill="#d91e18" stroke="#d91e18" stroke-width="0"/><rect x="660.9055564032661" y="359" width="70.3" height="8" fill="#d91e18" stroke="#d91e18" stroke-width="0"/><rect x="777.6416673024496" y="359" width="70.3" height="8" fill="#d91e18" stroke="#d91e18" stroke-width="0"/><rect x="894.3777782016331" y="359" width="70.3" height="8" fill="#d91e18" stroke="#d91e18" stroke-width="0"/><rect x="1011.1138891008164" y="359" width="70.3" height="8" fill="#d91e18" stroke="#d91e18" stroke-width="0"/><rect x="1127.85" y="359" width="70.3" height="8" fill="#d91e18" stroke="#d91e18" stroke-width="0"/></g><g class="bar-plot-2"><rect x="77.22500190734863" y="83.648" width="70.3" height="283.352" fill="#809500" stroke="#809500" stroke-width="0"/><rect x="193.9611128065321" y="83.95599999999999" width="70.3" height="283.044" fill="#809500" stroke="#809500" stroke-width="0"/><rect x="310.6972237057156" y="86.41999999999999" width="70.3" height="280.58000000000004" fill="#809500" stroke="#809500" stroke-width="0"/><rect x="427.43333460489913" y="86.882" width="70.3" height="280.118" fill="#809500" stroke="#809500" stroke-width="0"/><rect x="544.1694455040825" y="83.648" width="70.3" height="283.352" fill="#809500" stroke="#809500" stroke-width="0"/><rect x="660.9055564032661" y="84.88" width="70.3" height="282.12" fill="#809500" stroke="#809500" stroke-width="0"/><rect x="777.6416673024496" y="86.41999999999999" width="70.3" height="280.58000000000004" fill="#809500" stroke="#809500" stroke-width="0"/><rect x="894.3777782016331" y="87.96000000000001" width="70.3" height="279.03999999999996" fill="#809500" stroke="#809500" stroke-width="0"/><rect x="1011.1138891008164" y="89.5" width="70.3" height="277.5" fill="#809500" stroke="#809500" stroke-width="0"/><rect x="1127.85" y="83.494" width="70.3" height="283.506" fill="#809500" stroke="#809500" stroke-width="0"/></g><g class="line-plot-3"><path d="M112.375,84.88L229.111,84.88L345.847,84.88L462.583,84.88L579.319,84.88L696.056,84.88L812.792,84.88L929.528,84.88L1046.264,84.88L1163,84.88" fill="none" stroke="#ffffff" stroke-width="2"/></g><g class="line-plot-4"><path d="M112.375,81.8L229.111,81.8L345.847,81.8L462.583,81.8L579.319,81.8L696.056,81.8L812.792,81.8L929.528,81.8L1046.264,81.8L1163,81.8" fill="none" stroke="#00FFFF" stroke-width="2"/></g></g><g class="bottom-axis"><g class="axis-line"><path d="M 75.37500190734863,368 L 1200,368" fill="none" stroke="#F4F2F3" stroke-width="2"/></g><g class="label"><text x="0" y="0" fill="#F4F2F3" font-size="14" dominant-baseline="text-before-edge" text-anchor="middle" transform="translate(112.37500190734863, 379) rotate(0)">Week14</text><text x="0" y="0" fill="#F4F2F3" font-size="14" dominant-baseline="text-before-edge" text-anchor="middle" transform="translate(229.1111128065321, 379) rotate(0)">Week15</text><text x="0" y="0" fill="#F4F2F3" font-size="14" dominant-baseline="text-before-edge" text-anchor="middle" transform="translate(345.8472237057156, 379) rotate(0)">Week16</text><text x="0" y="0" fill="#F4F2F3" font-size="14" dominant-baseline="text-before-edge" text-anchor="middle" transform="translate(462.5833346048991, 379) rotate(0)">Week17</text><text x="0" y="0" fill="#F4F2F3" font-size="14" dominant-baseline="text-before-edge" text-anchor="middle" transform="translate(579.3194455040825, 379) rotate(0)">Week18</text><text x="0" y="0" fill="#F4F2F3" font-size="14" dominant-baseline="text-before-edge" text-anchor="middle" transform="translate(696.0555564032661, 379) rotate(0)">Week19</text><text x="0" y="0" fill="#F4F2F3" font-size="14" dominant-baseline="text-before-edge" text-anchor="middle" transform="translate(812.7916673024496, 379) rotate(0)">Week20</text><text x="0" y="0" fill="#F4F2F3" font-size="14" dominant-baseline="text-before-edge" text-anchor="middle" transform="translate(929.527778201633, 379) rotate(0)">Week21</text><text x="0" y="0" fill="#F4F2F3" font-size="14" dominant-baseline="text-before-edge" text-anchor="middle" transform="translate(1046.2638891008164, 379) rotate(0)">Week22</text><text x="0" y="0" fill="#F4F2F3" font-size="14" dominant-baseline="text-before-edge" text-anchor="middle" transform="translate(1163, 379) rotate(0)">Week23</text></g><g class="ticks"><path d="M 112.37500190734863,369 L 112.37500190734863,374" fill="none" stroke="#F4F2F3" stroke-width="2"/><path d="M 229.1111128065321,369 L 229.1111128065321,374" fill="none" stroke="#F4F2F3" stroke-width="2"/><path d="M 345.8472237057156,369 L 345.8472237057156,374" fill="none" stroke="#F4F2F3" stroke-width="2"/><path d="M 462.5833346048991,369 L 462.5833346048991,374" fill="none" stroke="#F4F2F3" stroke-width="2"/><path d="M 579.3194455040825,369 L 579.3194455040825,374" fill="none" stroke="#F4F2F3" stroke-width="2"/><path d="M 696.0555564032661,369 L 696.0555564032661,374" fill="none" stroke="#F4F2F3" stroke-width="2"/><path d="M 812.7916673024496,369 L 812.7916673024496,374" fill="none" stroke="#F4F2F3" stroke-width="2"/><path d="M 929.527778201633,369 L 929.527778201633,374" fill="none" stroke="#F4F2F3" stroke-width="2"/><path d="M 1046.2638891008164,369 L 1046.2638891008164,374" fill="none" stroke="#F4F2F3" stroke-width="2"/><path d="M 1163,369 L 1163,374" fill="none" stroke="#F4F2F3" stroke-width="2"/></g></g><g class="left-axis"><g class="axisl-line"><path d="M 74.37500190734863,43 L 74.37500190734863,367 " fill="none" stroke="#F4F2F3" stroke-width="2"/></g><g class="label"><text x="0" y="0" fill="#F4F2F3" font-size="14" dominant-baseline="middle" text-anchor="end" transform="translate(63.37500190734863, 51) rotate(0)">2000</text><text x="0" y="0" fill="#F4F2F3" font-size="14" dominant-baseline="middle" text-anchor="end" transform="translate(63.37500190734863, 81.79999999999998) rotate(0)">1800</text><text x="0" y="0" fill="#F4F2F3" font-size="14" dominant-baseline="middle" text-anchor="end" transform="translate(63.37500190734863, 112.6) rotate(0)">1600</text><text x="0" y="0" fill="#F4F2F3" font-size="14" dominant-baseline="middle" text-anchor="end" transform="translate(63.37500190734863, 143.4) rotate(0)">1400</text><text x="0" y="0" fill="#F4F2F3" font-size="14" dominant-baseline="middle" text-anchor="end" transform="translate(63.37500190734863, 174.2) rotate(0)">1200</text><text x="0" y="0" fill="#F4F2F3" font-size="14" dominant-baseline="middle" text-anchor="end" transform="translate(63.37500190734863, 205) rotate(0)">1000</text><text x="0" y="0" fill="#F4F2F3" font-size="14" dominant-baseline="middle" text-anchor="end" transform="translate(63.37500190734863, 235.8) rotate(0)">800</text><text x="0" y="0" fill="#F4F2F3" font-size="14" dominant-baseline="middle" text-anchor="end" transform="translate(63.37500190734863, 266.59999999999997) rotate(0)">600</text><text x="0" y="0" fill="#F4F2F3" font-size="14" dominant-baseline="middle" text-anchor="end" transform="translate(63.37500190734863, 297.4) rotate(0)">400</text><text x="0" y="0" fill="#F4F2F3" font-size="14" dominant-baseline="middle" text-anchor="end" transform="translate(63.37500190734863, 328.20000000000005) rotate(0)">200</text><text x="0" y="0" fill="#F4F2F3" font-size="14" dominant-baseline="middle" text-anchor="end" transform="translate(63.37500190734863, 359) rotate(0)">0</text></g><g class="ticks"><path d="M 73.37500190734863,51 L 68.37500190734863,51" fill="none" stroke="#F4F2F3" stroke-width="2"/><path d="M 73.37500190734863,81.79999999999998 L 68.37500190734863,81.79999999999998" fill="none" stroke="#F4F2F3" stroke-width="2"/><path d="M 73.37500190734863,112.6 L 68.37500190734863,112.6" fill="none" stroke="#F4F2F3" stroke-width="2"/><path d="M 73.37500190734863,143.4 L 68.37500190734863,143.4" fill="none" stroke="#F4F2F3" stroke-width="2"/><path d="M 73.37500190734863,174.2 L 68.37500190734863,174.2" fill="none" stroke="#F4F2F3" stroke-width="2"/><path d="M 73.37500190734863,205 L 68.37500190734863,205" fill="none" stroke="#F4F2F3" stroke-width="2"/><path d="M 73.37500190734863,235.8 L 68.37500190734863,235.8" fill="none" stroke="#F4F2F3" stroke-width="2"/><path d="M 73.37500190734863,266.59999999999997 L 68.37500190734863,266.59999999999997" fill="none" stroke="#F4F2F3" stroke-width="2"/><path d="M 73.37500190734863,297.4 L 68.37500190734863,297.4" fill="none" stroke="#F4F2F3" stroke-width="2"/><path d="M 73.37500190734863,328.20000000000005 L 68.37500190734863,328.20000000000005" fill="none" stroke="#F4F2F3" stroke-width="2"/><path d="M 73.37500190734863,359 L 68.37500190734863,359" fill="none" stroke="#F4F2F3" stroke-width="2"/></g><g class="title"><text x="0" y="0" fill="#F4F2F3" font-size="16" dominant-baseline="text-before-edge" text-anchor="middle" transform="translate(5, 205) rotate(270)">.</text></g></g></g><g class="mermaid-tmp-group"/></svg>