<svg width="102" height="94" viewBox="0 0 102 94" fill="none" xmlns="http://www.w3.org/2000/svg">
<path d="M25.4627 80.0458C23.8987 81.4258 21.9025 82.1065 19.8142 81.9777C17.7351 81.8489 15.8308 80.9106 14.4601 79.3467C11.6175 76.1177 11.9302 71.1868 15.1593 68.3441L30.8811 54.4989L39.6482 46.7806L51.4419 36.3944L42.6749 28.676L30.8811 39.0622L22.114 46.7806L7.4961 59.6506C-0.525838 66.7158 -1.29859 78.9787 5.7574 87.0006C9.1796 90.8828 13.9081 93.2011 19.069 93.5323C19.4922 93.5599 19.9062 93.5691 20.3202 93.5691C25.0303 93.5691 29.5288 91.8764 33.0982 88.7301L51.4235 72.5943L42.6565 64.8759L25.4443 80.0366L25.4627 80.0458Z" fill="#FAA023"/>
<path d="M96.546 6.57031C89.4808 -1.45162 77.2179 -2.22437 69.1959 4.83162L50.8706 20.9675L59.6377 28.6858L76.8499 13.5251C78.285 12.2648 80.0973 11.584 81.9924 11.584C82.158 11.584 82.3236 11.584 82.4984 11.6024C84.5774 11.7312 86.4817 12.6696 87.8525 14.2335C90.6951 17.4625 90.3823 22.3934 87.1533 25.236L71.4314 39.0812L62.6643 46.7996L50.8706 57.1858L59.6377 64.9041L71.4314 54.5179L80.1985 46.7996L94.8165 33.9295C102.838 26.8643 103.611 14.6014 96.5552 6.57951L96.546 6.57031Z" fill="#FAA023"/>
<path d="M94.7527 59.6051L80.1347 46.7351L71.3677 54.4534L87.0895 68.2986C90.3186 71.1413 90.6313 76.0722 87.7887 79.3012C84.9461 82.521 80.0152 82.843 76.7861 80.0004L59.5739 64.8396L50.8069 57.1213L30.5864 39.3203L21.8193 47.0387L42.049 64.8396L50.8161 72.558L69.1414 88.6939C72.8212 91.9321 77.3841 93.5236 81.9378 93.5236C87.3103 93.5236 92.6644 91.3065 96.4914 86.9644C103.557 78.9424 102.775 66.6795 94.7527 59.6143V59.6051Z" fill="#AFC72D"/>
<path d="M59.6475 28.6857L50.8804 20.9674L32.5551 4.84069C28.6729 1.41849 23.696 -0.283409 18.5259 0.0385724C13.365 0.369753 8.63648 2.68802 5.21428 6.57019C1.71848 10.5352 0.0165775 15.6501 0.439753 20.9306C0.84453 26.0547 3.37438 30.774 7.22896 34.1686L21.8285 47.0386L30.5956 39.3203L14.7817 25.3831C11.4975 22.4945 11.0559 17.3336 14.009 14.1138C15.3797 12.6234 17.238 11.7311 19.2619 11.6023C21.3409 11.4735 23.3464 12.1543 24.9103 13.5342L42.1225 28.6949L50.8896 36.4133L62.6833 46.7995L71.4504 39.0811L59.6567 28.6949L59.6475 28.6857Z" fill="#AFC72D"/>
</svg>
