<?xml version="1.0" encoding="us-ascii" standalone="no"?><svg xmlns="http://www.w3.org/2000/svg" xmlns:xlink="http://www.w3.org/1999/xlink" contentStyleType="text/css" height="1583px" preserveAspectRatio="none" style="width:1329px;height:1583px;background:#FFFFFF;" version="1.1" viewBox="0 0 1329 1583" width="1329px" zoomAndPan="magnify"><defs/><g><rect fill="#DDDDDD" height="1571.7032" style="stroke:#181818;stroke-width:0.5;" width="712" x="1" y="6"/><text fill="#000000" font-family="sans-serif" font-size="13" font-weight="bold" lengthAdjust="spacing" textLength="52" x="331" y="18.0669">Sender</text><rect fill="#DDDDDD" height="1571.7032" style="stroke:#181818;stroke-width:0.5;" width="457" x="866" y="6"/><text fill="#000000" font-family="sans-serif" font-size="13" font-weight="bold" lengthAdjust="spacing" textLength="64" x="1062.5" y="18.0669">Receiver</text><rect fill="#FFFFFF" height="28" style="stroke:#181818;stroke-width:1.0;" width="10" x="94" y="323.6235"/><rect fill="#FFFFFF" height="28" style="stroke:#181818;stroke-width:1.0;" width="10" x="94" y="395.7563"/><rect fill="#FFFFFF" height="28" style="stroke:#181818;stroke-width:1.0;" width="10" x="94" y="483.0219"/><rect fill="#FFFFFF" height="28" style="stroke:#181818;stroke-width:1.0;" width="10" x="94" y="661.686"/><rect fill="#FFFFFF" height="14" style="stroke:#181818;stroke-width:1.0;" width="10" x="94" y="1520.4063"/><rect fill="#FFFFFF" height="742.3219" style="stroke:#181818;stroke-width:1.0;" width="10" x="428" y="725.8188"/><rect fill="#FFFFFF" height="28" style="stroke:#181818;stroke-width:1.0;" width="10" x="433" y="854.35"/><rect fill="#FFFFFF" height="29.1328" style="stroke:#181818;stroke-width:1.0;" width="10" x="682" y="788.0844"/><rect fill="#FFFFFF" height="29.1328" style="stroke:#181818;stroke-width:1.0;" width="10" x="682" y="1012.1469"/><rect fill="#FFFFFF" height="29.1328" style="stroke:#181818;stroke-width:1.0;" width="10" x="682" y="1070.4125"/><rect fill="#FFFFFF" height="309.8625" style="stroke:#181818;stroke-width:1.0;" width="10" x="682" y="1128.6781"/><rect fill="#FFFFFF" height="62.2656" style="stroke:#181818;stroke-width:1.0;" width="10" x="784.5" y="547.1547"/><rect fill="#FFFFFF" height="29.1328" style="stroke:#181818;stroke-width:1.0;" width="10" x="887" y="257.3578"/><rect fill="#FFFFFF" height="217.9969" style="stroke:#181818;stroke-width:1.0;" width="10" x="887" y="1190.9438"/><rect fill="#FFFFFF" height="126.1313" style="stroke:#181818;stroke-width:1.0;" width="10" x="1220" y="1253.2094"/><line style="stroke:#181818;stroke-width:0.5;stroke-dasharray:5.0,5.0;" x1="99" x2="99" y1="56.4297" y2="1543.4063"/><line style="stroke:#181818;stroke-width:0.5;stroke-dasharray:5.0,5.0;" x1="433" x2="433" y1="56.4297" y2="1543.4063"/><line style="stroke:#181818;stroke-width:0.5;stroke-dasharray:5.0,5.0;" x1="687" x2="687" y1="56.4297" y2="1543.4063"/><line style="stroke:#181818;stroke-width:0.5;stroke-dasharray:5.0,5.0;" x1="789" x2="789" y1="56.4297" y2="1543.4063"/><line style="stroke:#181818;stroke-width:0.5;stroke-dasharray:5.0,5.0;" x1="892" x2="892" y1="56.4297" y2="1543.4063"/><line style="stroke:#181818;stroke-width:0.5;stroke-dasharray:5.0,5.0;" x1="1225" x2="1225" y1="56.4297" y2="1543.4063"/><rect fill="#E2E2F0" height="30.2969" rx="2.5" ry="2.5" style="stroke:#181818;stroke-width:0.5;" width="188" x="5" y="25.1328"/><text fill="#000000" font-family="sans-serif" font-size="14" lengthAdjust="spacing" textLength="174" x="12" y="45.1279">Some (Traceability) App</text><rect fill="#E2E2F0" height="30.2969" rx="2.5" ry="2.5" style="stroke:#181818;stroke-width:0.5;" width="188" x="5" y="1542.4063"/><text fill="#000000" font-family="sans-serif" font-size="14" lengthAdjust="spacing" textLength="174" x="12" y="1562.4014">Some (Traceability) App</text><rect fill="#E2E2F0" height="30.2969" rx="2.5" ry="2.5" style="stroke:#181818;stroke-width:0.5;" width="196" x="335" y="25.1328"/><text fill="#000000" font-family="sans-serif" font-size="14" lengthAdjust="spacing" textLength="182" x="342" y="45.1279">Notification EDC Adapter</text><rect fill="#E2E2F0" height="30.2969" rx="2.5" ry="2.5" style="stroke:#181818;stroke-width:0.5;" width="196" x="335" y="1542.4063"/><text fill="#000000" font-family="sans-serif" font-size="14" lengthAdjust="spacing" textLength="182" x="342" y="1562.4014">Notification EDC Adapter</text><rect fill="#E2E2F0" height="30.2969" rx="2.5" ry="2.5" style="stroke:#181818;stroke-width:0.5;" width="44" x="665" y="25.1328"/><text fill="#000000" font-family="sans-serif" font-size="14" lengthAdjust="spacing" textLength="30" x="672" y="45.1279">EDC</text><rect fill="#E2E2F0" height="30.2969" rx="2.5" ry="2.5" style="stroke:#181818;stroke-width:0.5;" width="44" x="665" y="1542.4063"/><text fill="#000000" font-family="sans-serif" font-size="14" lengthAdjust="spacing" textLength="30" x="672" y="1562.4014">EDC</text><rect fill="#E2E2F0" height="30.2969" rx="2.5" ry="2.5" style="stroke:#181818;stroke-width:0.5;" width="141" x="719" y="25.1328"/><text fill="#000000" font-family="sans-serif" font-size="14" lengthAdjust="spacing" textLength="127" x="726" y="45.1279">Discovery Service</text><rect fill="#E2E2F0" height="30.2969" rx="2.5" ry="2.5" style="stroke:#181818;stroke-width:0.5;" width="141" x="719" y="1542.4063"/><text fill="#000000" font-family="sans-serif" font-size="14" lengthAdjust="spacing" textLength="127" x="726" y="1562.4014">Discovery Service</text><rect fill="#E2E2F0" height="30.2969" rx="2.5" ry="2.5" style="stroke:#181818;stroke-width:0.5;" width="44" x="870" y="25.1328"/><text fill="#000000" font-family="sans-serif" font-size="14" lengthAdjust="spacing" textLength="30" x="877" y="45.1279">EDC</text><rect fill="#E2E2F0" height="30.2969" rx="2.5" ry="2.5" style="stroke:#181818;stroke-width:0.5;" width="44" x="870" y="1542.4063"/><text fill="#000000" font-family="sans-serif" font-size="14" lengthAdjust="spacing" textLength="30" x="877" y="1562.4014">EDC</text><rect fill="#E2E2F0" height="30.2969" rx="2.5" ry="2.5" style="stroke:#181818;stroke-width:0.5;" width="188" x="1131" y="25.1328"/><text fill="#000000" font-family="sans-serif" font-size="14" lengthAdjust="spacing" textLength="174" x="1138" y="45.1279">Some (Traceability) App</text><rect fill="#E2E2F0" height="30.2969" rx="2.5" ry="2.5" style="stroke:#181818;stroke-width:0.5;" width="188" x="1131" y="1542.4063"/><text fill="#000000" font-family="sans-serif" font-size="14" lengthAdjust="spacing" textLength="174" x="1138" y="1562.4014">Some (Traceability) App</text><rect fill="#FFFFFF" height="28" style="stroke:#181818;stroke-width:1.0;" width="10" x="94" y="323.6235"/><rect fill="#FFFFFF" height="28" style="stroke:#181818;stroke-width:1.0;" width="10" x="94" y="395.7563"/><rect fill="#FFFFFF" height="28" style="stroke:#181818;stroke-width:1.0;" width="10" x="94" y="483.0219"/><rect fill="#FFFFFF" height="28" style="stroke:#181818;stroke-width:1.0;" width="10" x="94" y="661.686"/><rect fill="#FFFFFF" height="14" style="stroke:#181818;stroke-width:1.0;" width="10" x="94" y="1520.4063"/><rect fill="#FFFFFF" height="742.3219" style="stroke:#181818;stroke-width:1.0;" width="10" x="428" y="725.8188"/><rect fill="#FFFFFF" height="28" style="stroke:#181818;stroke-width:1.0;" width="10" x="433" y="854.35"/><rect fill="#FFFFFF" height="29.1328" style="stroke:#181818;stroke-width:1.0;" width="10" x="682" y="788.0844"/><rect fill="#FFFFFF" height="29.1328" style="stroke:#181818;stroke-width:1.0;" width="10" x="682" y="1012.1469"/><rect fill="#FFFFFF" height="29.1328" style="stroke:#181818;stroke-width:1.0;" width="10" x="682" y="1070.4125"/><rect fill="#FFFFFF" height="309.8625" style="stroke:#181818;stroke-width:1.0;" width="10" x="682" y="1128.6781"/><rect fill="#FFFFFF" height="62.2656" style="stroke:#181818;stroke-width:1.0;" width="10" x="784.5" y="547.1547"/><rect fill="#FFFFFF" height="29.1328" style="stroke:#181818;stroke-width:1.0;" width="10" x="887" y="257.3578"/><rect fill="#FFFFFF" height="217.9969" style="stroke:#181818;stroke-width:1.0;" width="10" x="887" y="1190.9438"/><rect fill="#FFFFFF" height="126.1313" style="stroke:#181818;stroke-width:1.0;" width="10" x="1220" y="1253.2094"/><rect fill="#FEFFDD" height="129" style="stroke:#181818;stroke-width:0.5;" width="227" x="438" y="71.4297"/><text fill="#000000" font-family="sans-serif" font-size="13" lengthAdjust="spacing" textLength="213" x="442" y="87.4966">Not mandatory as the interaction</text><text fill="#000000" font-family="sans-serif" font-size="13" lengthAdjust="spacing" textLength="219" x="442" y="102.6294">with the EDC can be implemented</text><text fill="#000000" font-family="sans-serif" font-size="13" lengthAdjust="spacing" textLength="187" x="442" y="117.7622">also in the (Traceability) App.</text><text fill="#000000" font-family="sans-serif" font-size="13" lengthAdjust="spacing" textLength="4" x="442" y="132.895">&#160;</text><text fill="#000000" font-family="sans-serif" font-size="13" lengthAdjust="spacing" textLength="202" x="442" y="148.0278">However, a similar functionality</text><text fill="#000000" font-family="sans-serif" font-size="13" lengthAdjust="spacing" textLength="126" x="442" y="163.1606">(e.g., fetch catalog)</text><text fill="#000000" font-family="sans-serif" font-size="13" lengthAdjust="spacing" textLength="178" x="442" y="178.2935">- as shown below - must be</text><text fill="#000000" font-family="sans-serif" font-size="13" lengthAdjust="spacing" textLength="60" x="442" y="193.4263">provided.</text><polygon fill="#181818" points="908,253.3578,898,257.3578,908,261.3578,904,257.3578" style="stroke:#181818;stroke-width:1.0;"/><line style="stroke:#181818;stroke-width:1.0;" x1="902" x2="1224" y1="257.3578" y2="257.3578"/><text fill="#000000" font-family="sans-serif" font-size="13" font-weight="bold" lengthAdjust="spacing" textLength="31" x="914" y="236.9255">[01]</text><text fill="#000000" font-family="sans-serif" font-size="13" lengthAdjust="spacing" textLength="136" x="949" y="221.5591">Create EDC Asset for</text><text fill="#000000" font-family="sans-serif" font-size="13" lengthAdjust="spacing" textLength="141" x="949" y="236.6919">"Quality Alert Receipt"</text><text fill="#000000" font-family="sans-serif" font-size="13" lengthAdjust="spacing" textLength="27" x="949" y="252.2919">with</text><text fill="#000000" font-family="monospace" font-size="13" lengthAdjust="spacing" textLength="88" x="980" y="251.7958">DataAddress</text><text fill="#000000" font-family="sans-serif" font-size="13" lengthAdjust="spacing" textLength="15" x="1072" y="252.2919">as</text><text fill="#000000" font-family="monospace" font-size="13" lengthAdjust="spacing" textLength="72" x="1091" y="251.7958">HTTP&#160;POST</text><text fill="#000000" font-family="sans-serif" font-size="13" lengthAdjust="spacing" textLength="56" x="1167" y="252.2919">endpoint</text><polygon fill="#181818" points="1213,282.4906,1223,286.4906,1213,290.4906,1217,286.4906" style="stroke:#181818;stroke-width:1.0;"/><line style="stroke:#181818;stroke-width:1.0;stroke-dasharray:2.0,2.0;" x1="892" x2="1219" y1="286.4906" y2="286.4906"/><text fill="#000000" font-family="sans-serif" font-size="13" font-weight="bold" lengthAdjust="spacing" textLength="31" x="899" y="281.4247">[02]</text><text fill="#000000" font-family="sans-serif" font-size="13" lengthAdjust="spacing" textLength="18" x="934" y="281.4247">OK</text><line style="stroke:#181818;stroke-width:1.0;" x1="104" x2="146" y1="315.6235" y2="315.6235"/><line style="stroke:#181818;stroke-width:1.0;" x1="146" x2="146" y1="315.6235" y2="328.6235"/><line style="stroke:#181818;stroke-width:1.0;" x1="105" x2="146" y1="328.6235" y2="328.6235"/><polygon fill="#181818" points="115,324.6235,105,328.6235,115,332.6235,111,328.6235" style="stroke:#181818;stroke-width:1.0;"/><text fill="#000000" font-family="sans-serif" font-size="13" font-weight="bold" lengthAdjust="spacing" textLength="30" x="111" y="310.5575">[03]</text><text fill="#000000" font-family="sans-serif" font-size="13" lengthAdjust="spacing" textLength="234" x="145" y="310.5575">Identify Defective Part(s) / Batch(es)</text><line style="stroke:#181818;stroke-width:1.0;" x1="104" x2="146" y1="387.7563" y2="387.7563"/><line style="stroke:#181818;stroke-width:1.0;" x1="146" x2="146" y1="387.7563" y2="400.7563"/><line style="stroke:#181818;stroke-width:1.0;" x1="105" x2="146" y1="400.7563" y2="400.7563"/><polygon fill="#181818" points="115,396.7563,105,400.7563,115,404.7563,111,400.7563" style="stroke:#181818;stroke-width:1.0;"/><text fill="#000000" font-family="sans-serif" font-size="13" font-weight="bold" lengthAdjust="spacing" textLength="31" x="111" y="382.6903">[04]</text><text fill="#000000" font-family="sans-serif" font-size="13" lengthAdjust="spacing" textLength="285" x="146" y="382.6903">Identify BPN for Defective Part(s) / Batch(es)</text><line style="stroke:#181818;stroke-width:1.0;" x1="104" x2="146" y1="475.0219" y2="475.0219"/><line style="stroke:#181818;stroke-width:1.0;" x1="146" x2="146" y1="475.0219" y2="488.0219"/><line style="stroke:#181818;stroke-width:1.0;" x1="105" x2="146" y1="488.0219" y2="488.0219"/><polygon fill="#181818" points="115,484.0219,105,488.0219,115,492.0219,111,488.0219" style="stroke:#181818;stroke-width:1.0;"/><text fill="#000000" font-family="sans-serif" font-size="13" font-weight="bold" lengthAdjust="spacing" textLength="31" x="111" y="462.3896">[05]</text><text fill="#000000" font-family="sans-serif" font-size="13" lengthAdjust="spacing" textLength="119" x="146" y="454.8232">Create Notification</text><text fill="#000000" font-family="sans-serif" font-size="13" lengthAdjust="spacing" textLength="125" x="146" y="469.956">Status := CREATED</text><polygon fill="#181818" points="772.5,543.1547,782.5,547.1547,772.5,551.1547,776.5,547.1547" style="stroke:#181818;stroke-width:1.0;"/><line style="stroke:#181818;stroke-width:1.0;" x1="99" x2="778.5" y1="547.1547" y2="547.1547"/><text fill="#000000" font-family="sans-serif" font-size="13" font-weight="bold" lengthAdjust="spacing" textLength="31" x="106" y="542.0888">[06]</text><text fill="#000000" font-family="sans-serif" font-size="13" lengthAdjust="spacing" textLength="142" x="141" y="542.0888">Resolve EDC Endpoint</text><rect fill="#FEFFDD" height="23" style="stroke:#181818;stroke-width:0.5;" width="234" x="104" y="560.1547"/><text fill="#000000" font-family="sans-serif" font-size="13" lengthAdjust="spacing" textLength="226" x="108" y="576.2216">BPN of defective part(s) / batch(es)</text><polygon fill="#181818" points="110,605.4203,100,609.4203,110,613.4203,106,609.4203" style="stroke:#181818;stroke-width:1.0;"/><line style="stroke:#181818;stroke-width:1.0;stroke-dasharray:2.0,2.0;" x1="104" x2="788.5" y1="609.4203" y2="609.4203"/><text fill="#000000" font-family="sans-serif" font-size="13" font-weight="bold" lengthAdjust="spacing" textLength="31" x="116" y="604.3544">[07]</text><text fill="#000000" font-family="sans-serif" font-size="13" lengthAdjust="spacing" textLength="18" x="151" y="604.3544">OK</text><line style="stroke:#181818;stroke-width:1.0;" x1="104" x2="146" y1="653.686" y2="653.686"/><line style="stroke:#181818;stroke-width:1.0;" x1="146" x2="146" y1="653.686" y2="666.686"/><line style="stroke:#181818;stroke-width:1.0;" x1="105" x2="146" y1="666.686" y2="666.686"/><polygon fill="#181818" points="115,662.686,105,666.686,115,670.686,111,666.686" style="stroke:#181818;stroke-width:1.0;"/><text fill="#000000" font-family="sans-serif" font-size="13" font-weight="bold" lengthAdjust="spacing" textLength="31" x="111" y="641.0536">[08]</text><text fill="#000000" font-family="sans-serif" font-size="13" lengthAdjust="spacing" textLength="167" x="146" y="633.4872">Update Notification Status</text><text fill="#000000" font-family="sans-serif" font-size="13" lengthAdjust="spacing" textLength="97" x="146" y="648.62">Status := SENT</text><polygon fill="#181818" points="416,721.8188,426,725.8188,416,729.8188,420,725.8188" style="stroke:#181818;stroke-width:1.0;"/><line style="stroke:#181818;stroke-width:1.0;" x1="99" x2="422" y1="725.8188" y2="725.8188"/><text fill="#000000" font-family="sans-serif" font-size="13" font-weight="bold" lengthAdjust="spacing" textLength="31" x="106" y="720.7528">[09]</text><text fill="#000000" font-family="sans-serif" font-size="13" lengthAdjust="spacing" textLength="108" x="141" y="720.7528">Send Notification</text><text fill="#000000" font-family="sans-serif" font-size="13" font-weight="bold" lengthAdjust="spacing" textLength="57" x="253" y="720.7528">Receipt</text><rect fill="#FEFFDD" height="23" style="stroke:#181818;stroke-width:0.5;" width="192" x="104" y="738.8188"/><text fill="#000000" font-family="sans-serif" font-size="13" lengthAdjust="spacing" textLength="184" x="108" y="754.8857">Payload as described above.</text><polygon fill="#181818" points="670,784.0844,680,788.0844,670,792.0844,674,788.0844" style="stroke:#181818;stroke-width:1.0;"/><line style="stroke:#181818;stroke-width:1.0;" x1="438" x2="676" y1="788.0844" y2="788.0844"/><text fill="#000000" font-family="sans-serif" font-size="13" font-weight="bold" lengthAdjust="spacing" textLength="31" x="445" y="783.0185">[10]</text><text fill="#000000" font-family="sans-serif" font-size="13" lengthAdjust="spacing" textLength="88" x="480" y="783.0185">Fetch Catalog</text><polygon fill="#181818" points="698,813.2172,688,817.2172,698,821.2172,694,817.2172" style="stroke:#181818;stroke-width:1.0;"/><polygon fill="#181818" points="880,813.2172,890,817.2172,880,821.2172,884,817.2172" style="stroke:#181818;stroke-width:1.0;"/><line style="stroke:#181818;stroke-width:1.0;stroke-dasharray:2.0,2.0;" x1="692" x2="886" y1="817.2172" y2="817.2172"/><text fill="#000000" font-family="sans-serif" font-size="13" font-weight="bold" lengthAdjust="spacing" textLength="30" x="704" y="812.1513">[11]</text><text fill="#000000" font-family="sans-serif" font-size="13" lengthAdjust="spacing" textLength="88" x="738" y="812.1513">Fetch Catalog</text><line style="stroke:#181818;stroke-width:1.0;" x1="443" x2="485" y1="846.35" y2="846.35"/><line style="stroke:#181818;stroke-width:1.0;" x1="485" x2="485" y1="846.35" y2="859.35"/><line style="stroke:#181818;stroke-width:1.0;" x1="444" x2="485" y1="859.35" y2="859.35"/><polygon fill="#181818" points="454,855.35,444,859.35,454,863.35,450,859.35" style="stroke:#181818;stroke-width:1.0;"/><text fill="#000000" font-family="sans-serif" font-size="13" font-weight="bold" lengthAdjust="spacing" textLength="30" x="450" y="841.2841">[12]</text><text fill="#000000" font-family="sans-serif" font-size="13" lengthAdjust="spacing" textLength="156" x="484" y="841.2841">Find and Select Contract</text><rect fill="#FEFFDD" height="83" style="stroke:#181818;stroke-width:0.5;" width="337" x="443" y="902.35"/><text fill="#000000" font-family="sans-serif" font-size="13" lengthAdjust="spacing" textLength="228" x="447" y="918.4169">Find the correct contract offer with:</text><text fill="#000000" font-family="sans-serif" font-size="13" lengthAdjust="spacing" textLength="4" x="447" y="933.5497">&#160;</text><text fill="#000000" font-family="sans-serif" font-size="13" lengthAdjust="spacing" textLength="82" x="447" y="948.6825">"dct:type": {</text><text fill="#000000" font-family="sans-serif" font-size="13" lengthAdjust="spacing" textLength="305" x="471" y="963.8153">"@id": "cx-taxo:ReceiveQualityAlertNotification"</text><text fill="#000000" font-family="sans-serif" font-size="13" lengthAdjust="spacing" textLength="14" x="463" y="978.9482">}"</text><polygon fill="#181818" points="670,1008.1469,680,1012.1469,670,1016.1469,674,1012.1469" style="stroke:#181818;stroke-width:1.0;"/><line style="stroke:#181818;stroke-width:1.0;" x1="438" x2="676" y1="1012.1469" y2="1012.1469"/><text fill="#000000" font-family="sans-serif" font-size="13" font-weight="bold" lengthAdjust="spacing" textLength="29" x="445" y="1007.081">[13]</text><text fill="#000000" font-family="sans-serif" font-size="13" lengthAdjust="spacing" textLength="192" x="478" y="1007.081">Intiatiate Contract Negotiation</text><polygon fill="#181818" points="698,1037.2797,688,1041.2797,698,1045.2797,694,1041.2797" style="stroke:#181818;stroke-width:1.0;"/><polygon fill="#181818" points="880,1037.2797,890,1041.2797,880,1045.2797,884,1041.2797" style="stroke:#181818;stroke-width:1.0;"/><line style="stroke:#181818;stroke-width:1.0;stroke-dasharray:2.0,2.0;" x1="692" x2="886" y1="1041.2797" y2="1041.2797"/><text fill="#000000" font-family="sans-serif" font-size="13" font-weight="bold" lengthAdjust="spacing" textLength="30" x="704" y="1036.2138">[14]</text><text fill="#000000" font-family="sans-serif" font-size="13" lengthAdjust="spacing" textLength="132" x="738" y="1036.2138">Contract Negotiation</text><polygon fill="#181818" points="670,1066.4125,680,1070.4125,670,1074.4125,674,1070.4125" style="stroke:#181818;stroke-width:1.0;"/><line style="stroke:#181818;stroke-width:1.0;" x1="438" x2="676" y1="1070.4125" y2="1070.4125"/><text fill="#000000" font-family="sans-serif" font-size="13" font-weight="bold" lengthAdjust="spacing" textLength="30" x="445" y="1065.3466">[15]</text><text fill="#000000" font-family="sans-serif" font-size="13" lengthAdjust="spacing" textLength="141" x="479" y="1065.3466">Inititate Data Transfer</text><polygon fill="#181818" points="698,1095.5453,688,1099.5453,698,1103.5453,694,1099.5453" style="stroke:#181818;stroke-width:1.0;"/><polygon fill="#181818" points="880,1095.5453,890,1099.5453,880,1103.5453,884,1099.5453" style="stroke:#181818;stroke-width:1.0;"/><line style="stroke:#181818;stroke-width:1.0;stroke-dasharray:2.0,2.0;" x1="692" x2="886" y1="1099.5453" y2="1099.5453"/><text fill="#000000" font-family="sans-serif" font-size="13" font-weight="bold" lengthAdjust="spacing" textLength="30" x="704" y="1094.4794">[16]</text><text fill="#000000" font-family="sans-serif" font-size="13" lengthAdjust="spacing" textLength="113" x="738" y="1094.4794">Establish Channel</text><polygon fill="#181818" points="670,1124.6781,680,1128.6781,670,1132.6781,674,1128.6781" style="stroke:#181818;stroke-width:1.0;"/><line style="stroke:#181818;stroke-width:1.0;" x1="438" x2="676" y1="1128.6781" y2="1128.6781"/><text fill="#000000" font-family="sans-serif" font-size="13" font-weight="bold" lengthAdjust="spacing" textLength="30" x="445" y="1123.6122">[17]</text><text fill="#000000" font-family="sans-serif" font-size="13" lengthAdjust="spacing" textLength="95" x="479" y="1123.6122">POST /public/...</text><rect fill="#FEFFDD" height="23" style="stroke:#181818;stroke-width:0.5;" width="192" x="443" y="1141.6781"/><text fill="#000000" font-family="sans-serif" font-size="13" lengthAdjust="spacing" textLength="184" x="447" y="1157.745">Payload as described above.</text><polygon fill="#181818" points="875,1186.9438,885,1190.9438,875,1194.9438,879,1190.9438" style="stroke:#181818;stroke-width:1.0;"/><line style="stroke:#181818;stroke-width:1.0;" x1="692" x2="881" y1="1190.9438" y2="1190.9438"/><text fill="#000000" font-family="sans-serif" font-size="13" font-weight="bold" lengthAdjust="spacing" textLength="30" x="699" y="1185.8778">[18]</text><text fill="#000000" font-family="sans-serif" font-size="13" lengthAdjust="spacing" textLength="95" x="733" y="1185.8778">POST /public/...</text><rect fill="#FEFFDD" height="23" style="stroke:#181818;stroke-width:0.5;" width="192" x="697" y="1203.9438"/><text fill="#000000" font-family="sans-serif" font-size="13" lengthAdjust="spacing" textLength="184" x="701" y="1220.0107">Payload as described above.</text><polygon fill="#181818" points="1208,1249.2094,1218,1253.2094,1208,1257.2094,1212,1253.2094" style="stroke:#181818;stroke-width:1.0;"/><line style="stroke:#181818;stroke-width:1.0;" x1="897" x2="1214" y1="1253.2094" y2="1253.2094"/><text fill="#000000" font-family="sans-serif" font-size="13" font-weight="bold" lengthAdjust="spacing" textLength="30" x="904" y="1248.1435">[19]</text><text fill="#000000" font-family="sans-serif" font-size="13" lengthAdjust="spacing" textLength="254" x="938" y="1248.1435">POST /notifications/qualityalerts/receive</text><rect fill="#FEFFDD" height="23" style="stroke:#181818;stroke-width:0.5;" width="192" x="902" y="1266.2094"/><text fill="#000000" font-family="sans-serif" font-size="13" lengthAdjust="spacing" textLength="184" x="906" y="1282.2763">Payload as described above.</text><rect fill="#FEFFDD" height="53" style="stroke:#181818;stroke-width:0.5;" width="309" x="902" y="1299.3422"/><text fill="#000000" font-family="sans-serif" font-size="13" lengthAdjust="spacing" textLength="278" x="906" y="1315.4091">The http path depends on the DataAddress</text><text fill="#000000" font-family="sans-serif" font-size="13" lengthAdjust="spacing" textLength="301" x="906" y="1330.5419">in the EDC Data Asset. Thus, it depends on the</text><text fill="#000000" font-family="sans-serif" font-size="13" lengthAdjust="spacing" textLength="78" x="906" y="1345.6747">(Trace) app.</text><polygon fill="#181818" points="908,1375.3407,898,1379.3407,908,1383.3407,904,1379.3407" style="stroke:#181818;stroke-width:1.0;"/><line style="stroke:#181818;stroke-width:1.0;stroke-dasharray:2.0,2.0;" x1="902" x2="1224" y1="1379.3407" y2="1379.3407"/><text fill="#000000" font-family="sans-serif" font-size="13" font-weight="bold" lengthAdjust="spacing" textLength="31" x="914" y="1374.0411">[20]</text><text fill="#000000" font-family="monospace" font-size="13" lengthAdjust="spacing" textLength="24" x="949" y="1373.7786">201</text><text fill="#000000" font-family="sans-serif" font-size="13" lengthAdjust="spacing" textLength="18" x="977" y="1374.2747">OK</text><polygon fill="#181818" points="703,1404.9407,693,1408.9407,703,1412.9407,699,1408.9407" style="stroke:#181818;stroke-width:1.0;"/><line style="stroke:#181818;stroke-width:1.0;stroke-dasharray:2.0,2.0;" x1="697" x2="891" y1="1408.9407" y2="1408.9407"/><text fill="#000000" font-family="sans-serif" font-size="13" font-weight="bold" lengthAdjust="spacing" textLength="30" x="709" y="1403.6411">[21]</text><text fill="#000000" font-family="monospace" font-size="13" lengthAdjust="spacing" textLength="24" x="743" y="1403.3787">201</text><text fill="#000000" font-family="sans-serif" font-size="13" lengthAdjust="spacing" textLength="18" x="771" y="1403.8747">OK</text><polygon fill="#181818" points="449,1434.5407,439,1438.5407,449,1442.5407,445,1438.5407" style="stroke:#181818;stroke-width:1.0;"/><line style="stroke:#181818;stroke-width:1.0;stroke-dasharray:2.0,2.0;" x1="443" x2="686" y1="1438.5407" y2="1438.5407"/><text fill="#000000" font-family="sans-serif" font-size="13" font-weight="bold" lengthAdjust="spacing" textLength="30" x="455" y="1433.2412">[22]</text><text fill="#000000" font-family="monospace" font-size="13" lengthAdjust="spacing" textLength="24" x="489" y="1432.9787">201</text><text fill="#000000" font-family="sans-serif" font-size="13" lengthAdjust="spacing" textLength="18" x="517" y="1433.4748">OK</text><polygon fill="#181818" points="110,1464.1407,100,1468.1407,110,1472.1407,106,1468.1407" style="stroke:#181818;stroke-width:1.0;"/><line style="stroke:#181818;stroke-width:1.0;stroke-dasharray:2.0,2.0;" x1="104" x2="432" y1="1468.1407" y2="1468.1407"/><text fill="#000000" font-family="sans-serif" font-size="13" font-weight="bold" lengthAdjust="spacing" textLength="29" x="116" y="1462.8412">[23]</text><text fill="#000000" font-family="monospace" font-size="13" lengthAdjust="spacing" textLength="24" x="149" y="1462.5787">201</text><text fill="#000000" font-family="sans-serif" font-size="13" lengthAdjust="spacing" textLength="18" x="177" y="1463.0748">OK</text><line style="stroke:#181818;stroke-width:1.0;" x1="99" x2="146" y1="1507.4063" y2="1507.4063"/><line style="stroke:#181818;stroke-width:1.0;" x1="146" x2="146" y1="1507.4063" y2="1520.4063"/><line style="stroke:#181818;stroke-width:1.0;" x1="105" x2="146" y1="1520.4063" y2="1520.4063"/><polygon fill="#181818" points="115,1516.4063,105,1520.4063,115,1524.4063,111,1520.4063" style="stroke:#181818;stroke-width:1.0;"/><text fill="#000000" font-family="sans-serif" font-size="13" font-weight="bold" lengthAdjust="spacing" textLength="30" x="111" y="1494.774">[24]</text><text fill="#000000" font-family="sans-serif" font-size="13" lengthAdjust="spacing" textLength="167" x="145" y="1487.2076">Update Notification Status</text><text fill="#000000" font-family="sans-serif" font-size="13" lengthAdjust="spacing" textLength="128" x="145" y="1502.3404">Status := RECEIVED</text><!--SRC=[hLPDRziu4BtpLmnuYeFOJhBRYz0jrh5LD5Z0zLfkBqqFj3YE2SYabgIT64N_-mufHP8JP-kY6-H2QZxVctcqs7gZjvibMk1lRzvzkRpyofcWIv5xjHCUmMZ6bkOHU8PQekMi5DQhN9L2Uxeq6uIpXHKvYgKgbD_tO5IM78I3U4k7Ap2MFE7oq7Lgl5gfN7XbDAIJCOoaA3rb2BxJ-b2xNZ6h3HLZrVtQDnyPXO2Dq59uO_V1pQyHbAPFeNog_47vTRmCyNEXOKdVDsM16oGhoKJX33b4avTT31ZxO1vmX_O213YrKOMmiDhg65m4EtQ6W_l11QpGvslAu4LXxdki7ufnQ_CGCXRc0VgmsJfF1rPQirCIvO0HdX3REiI5IeqGPA7cglthQ4ii75fEbCiDLRU73ErEvLZvJMgltohUvfYZshrWxYdDl4tp-yzpUrsxlcagPEsd_hiOFO6nnJ1AaMJdqCFAMBZJ_Ezj11561LeFiT3IypiTQUDyGd2EfBJe78zPEV-mMCnWzZ5Rq0LbB0snpIpwhTNmyI_MZXpbRWu9t4hYMwtsCC4LXib6c56hPwu7GxWHnDqPkXwJs8nzu_pZc3UpQMpeVunT0zPTaJkTUU6t3f8_O3nFHujqSaBCR98GhiuKkmh-jC6iiq-jRsZ5h40sdPHD9ykcatPkVmpyfr8-RmIgFhhzPEbqSK8pJtkVGD2Ymw3dv_Nud9-_qjjCx0iZP9WZYIwtQebqMD82TLUn4Pu0NXpUzt6rnzLgixYLR_jVfF4a85-R4J-qwaPfgtwlA0t95PLV4BumDje7fJekRj4w25Dkh0tcUMrE3AqeT5YIX34kSv_uVOayWMyCuX__KqawylonxyMZIMe9gDSjRbiNF1xTllCE31qoMhLz0SqjBO08_zZq0bEyD_6MvFSri8uQ7mkllF8XUb22GALsrFchOLFdnR9GZdXO2wsnE18pQ0SCootPvSF1O70S-zDc9TRHPF_FoC7qnAZpEcgZeq-XTOSoD_od8bC4CjtGLWmVv9oVdlE5suBcRkrzIG90KYon95j7lmNYG7PqcTMFPwWvaXJrVG2BzTPTWFBFN5drdFH0XDUrpTzvCrfMArWvlxwy8hKdaQcGwT2UFRV8dbkqozUnQgUYOzaHhOxfh-dQF1sdjv_JoRy0]--></g></svg>