<svg width="1440" height="642" xmlns="http://www.w3.org/2000/svg" xmlns:xlink="http://www.w3.org/1999/xlink" xml:space="preserve" overflow="hidden"><g transform="translate(-2290 -153)"><path d="M2305.5 165.167C2305.5 159.276 2310.28 154.5 2316.17 154.5L3705.83 154.5C3711.72 154.5 3716.5 159.276 3716.5 165.167L3716.5 207.833C3716.5 213.724 3711.72 218.5 3705.83 218.5L2316.17 218.5C2310.28 218.5 2305.5 213.724 2305.5 207.833Z" stroke="#FFFFFF" stroke-width="3.4375" stroke-miterlimit="8" fill="#B3CB2D" fill-rule="evenodd"/><text font-family="Calibri,Calibri_MSFontService,sans-serif" font-weight="400" font-size="28" transform="matrix(1 0 0 1 2898.17 197)">Capacity Group 3</text><path d="M2305.5 243.167C2305.5 237.276 2310.28 232.5 2316.17 232.5L2833.83 232.5C2839.72 232.5 2844.5 237.276 2844.5 243.167L2844.5 285.833C2844.5 291.724 2839.72 296.5 2833.83 296.5L2316.17 296.5C2310.28 296.5 2305.5 291.724 2305.5 285.833Z" stroke="#FFFFFF" stroke-width="3.4375" stroke-miterlimit="8" stroke-dasharray="13.75 10.3125" fill="#617000" fill-rule="evenodd"/><text fill="#FFFFFF" font-family="Calibri,Calibri_MSFontService,sans-serif" font-weight="400" font-size="28" transform="matrix(1 0 0 1 2462.07 275)">Capacity Group 1</text><path d="M2305.5 321.167C2305.5 315.276 2310.28 310.5 2316.17 310.5L2557.83 310.5C2563.72 310.5 2568.5 315.276 2568.5 321.167L2568.5 363.833C2568.5 369.724 2563.72 374.5 2557.83 374.5L2316.17 374.5C2310.28 374.5 2305.5 369.724 2305.5 363.833Z" stroke="#FFFFFF" stroke-width="3.4375" stroke-miterlimit="8" stroke-dasharray="13.75 10.3125" fill="#BF7100" fill-rule="evenodd"/><text fill="#FFFFFF" font-family="Calibri,Calibri_MSFontService,sans-serif" font-weight="400" font-size="28" transform="matrix(1 0 0 1 2309.99 353)">Material Demand 1</text><path d="M2580.5 320.167C2580.5 314.276 2585.28 309.5 2591.17 309.5L2833.83 309.5C2839.72 309.5 2844.5 314.276 2844.5 320.167L2844.5 362.833C2844.5 368.724 2839.72 373.5 2833.83 373.5L2591.17 373.5C2585.28 373.5 2580.5 368.724 2580.5 362.833Z" stroke="#FFFFFF" stroke-width="3.4375" stroke-miterlimit="8" stroke-dasharray="13.75 10.3125" fill="#BF7100" fill-rule="evenodd"/><text fill="#FFFFFF" font-family="Calibri,Calibri_MSFontService,sans-serif" font-weight="400" font-size="28" transform="matrix(1 0 0 1 2585.51 351)">Material Demand 2</text><path d="M3177.5 243.167C3177.5 237.276 3182.28 232.5 3188.17 232.5L3705.83 232.5C3711.72 232.5 3716.5 237.276 3716.5 243.167L3716.5 285.833C3716.5 291.724 3711.72 296.5 3705.83 296.5L3188.17 296.5C3182.28 296.5 3177.5 291.724 3177.5 285.833Z" stroke="#FFFFFF" stroke-width="3.4375" stroke-miterlimit="8" stroke-dasharray="13.75 10.3125" fill="#617000" fill-rule="evenodd"/><text fill="#FFFFFF" font-family="Calibri,Calibri_MSFontService,sans-serif" font-weight="400" font-size="28" transform="matrix(1 0 0 1 3334.26 275)">Capacity Group 2</text><path d="M3177.5 321.167C3177.5 315.276 3182.28 310.5 3188.17 310.5L3429.83 310.5C3435.72 310.5 3440.5 315.276 3440.5 321.167L3440.5 363.833C3440.5 369.724 3435.72 374.5 3429.83 374.5L3188.17 374.5C3182.28 374.5 3177.5 369.724 3177.5 363.833Z" stroke="#FFFFFF" stroke-width="3.4375" stroke-miterlimit="8" stroke-dasharray="13.75 10.3125" fill="#BF7100" fill-rule="evenodd"/><text fill="#FFFFFF" font-family="Calibri,Calibri_MSFontService,sans-serif" font-weight="400" font-size="28" transform="matrix(1 0 0 1 3182.18 353)">Material Demand 3</text><path d="M3452.5 320.167C3452.5 314.276 3457.28 309.5 3463.17 309.5L3705.83 309.5C3711.72 309.5 3716.5 314.276 3716.5 320.167L3716.5 362.833C3716.5 368.724 3711.72 373.5 3705.83 373.5L3463.17 373.5C3457.28 373.5 3452.5 368.724 3452.5 362.833Z" stroke="#FFFFFF" stroke-width="3.4375" stroke-miterlimit="8" stroke-dasharray="13.75 10.3125" fill="#BF7100" fill-rule="evenodd"/><text fill="#FFFFFF" font-family="Calibri,Calibri_MSFontService,sans-serif" font-weight="400" font-size="28" transform="matrix(1 0 0 1 3457.7 351)">Material Demand 4</text><path d="M2523.5 485.86 2574.5 468.5 2625.5 485.86 2600 485.86 2600 552.5 2549 552.5 2549 485.86Z" stroke="#FFFFFF" stroke-width="3.4375" stroke-miterlimit="8" fill-rule="evenodd"/><path d="M3395.5 485.86 3446.5 468.5 3497.5 485.86 3472 485.86 3472 552.5 3421 552.5 3421 485.86Z" stroke="#FFFFFF" stroke-width="3.4375" stroke-miterlimit="8" fill-rule="evenodd"/><path d="M2305.5 657C2305.5 651.201 2310.2 646.5 2316 646.5L2834 646.5C2839.8 646.5 2844.5 651.201 2844.5 657L2844.5 699C2844.5 704.799 2839.8 709.5 2834 709.5L2316 709.5C2310.2 709.5 2305.5 704.799 2305.5 699Z" stroke="#FFFFFF" stroke-width="3.4375" stroke-miterlimit="8" fill="#B3CB2D" fill-rule="evenodd"/><text font-family="Calibri,Calibri_MSFontService,sans-serif" font-weight="400" font-size="28" transform="matrix(1 0 0 1 2462.07 688)">Capacity Group 1</text><path d="M2305.5 735.167C2305.5 729.276 2310.28 724.5 2316.17 724.5L2557.83 724.5C2563.72 724.5 2568.5 729.276 2568.5 735.167L2568.5 777.833C2568.5 783.724 2563.72 788.5 2557.83 788.5L2316.17 788.5C2310.28 788.5 2305.5 783.724 2305.5 777.833Z" stroke="#FFFFFF" stroke-width="3.4375" stroke-miterlimit="8" fill="#FFA600" fill-rule="evenodd"/><text font-family="Calibri,Calibri_MSFontService,sans-serif" font-weight="400" font-size="28" transform="matrix(1 0 0 1 2309.99 767)">Material Demand 1</text><path d="M2580.5 734C2580.5 728.201 2585.2 723.5 2591 723.5L2834 723.5C2839.8 723.5 2844.5 728.201 2844.5 734L2844.5 776C2844.5 781.799 2839.8 786.5 2834 786.5L2591 786.5C2585.2 786.5 2580.5 781.799 2580.5 776Z" stroke="#FFFFFF" stroke-width="3.4375" stroke-miterlimit="8" fill="#FFA600" fill-rule="evenodd"/><text font-family="Calibri,Calibri_MSFontService,sans-serif" font-weight="400" font-size="28" transform="matrix(1 0 0 1 2585.51 765)">Material Demand 2</text><path d="M3177.5 657C3177.5 651.201 3182.2 646.5 3188 646.5L3706 646.5C3711.8 646.5 3716.5 651.201 3716.5 657L3716.5 699C3716.5 704.799 3711.8 709.5 3706 709.5L3188 709.5C3182.2 709.5 3177.5 704.799 3177.5 699Z" stroke="#FFFFFF" stroke-width="3.4375" stroke-miterlimit="8" fill="#B3CB2D" fill-rule="evenodd"/><text font-family="Calibri,Calibri_MSFontService,sans-serif" font-weight="400" font-size="28" transform="matrix(1 0 0 1 3334.26 688)">Capacity Group 2</text><path d="M3177.5 735.167C3177.5 729.276 3182.28 724.5 3188.17 724.5L3429.83 724.5C3435.72 724.5 3440.5 729.276 3440.5 735.167L3440.5 777.833C3440.5 783.724 3435.72 788.5 3429.83 788.5L3188.17 788.5C3182.28 788.5 3177.5 783.724 3177.5 777.833Z" stroke="#FFFFFF" stroke-width="3.4375" stroke-miterlimit="8" fill="#FFA600" fill-rule="evenodd"/><text font-family="Calibri,Calibri_MSFontService,sans-serif" font-weight="400" font-size="28" transform="matrix(1 0 0 1 3182.18 767)">Material Demand 3</text><path d="M3452.5 734C3452.5 728.201 3457.2 723.5 3463 723.5L3706 723.5C3711.8 723.5 3716.5 728.201 3716.5 734L3716.5 776C3716.5 781.799 3711.8 786.5 3706 786.5L3463 786.5C3457.2 786.5 3452.5 781.799 3452.5 776Z" stroke="#FFFFFF" stroke-width="3.4375" stroke-miterlimit="8" fill="#FFA600" fill-rule="evenodd"/><text font-family="Calibri,Calibri_MSFontService,sans-serif" font-weight="400" font-size="28" transform="matrix(1 0 0 1 3457.7 765)">Material Demand 4</text></g></svg>