<svg width="1280" height="586" xmlns="http://www.w3.org/2000/svg" xmlns:xlink="http://www.w3.org/1999/xlink" overflow="hidden"><defs><clipPath id="clip0"><rect x="0" y="0" width="1280" height="586"/></clipPath></defs><g clip-path="url(#clip0)"><rect x="0" y="0" width="1280" height="586.167" fill="#FFFFFF"/><rect x="0" y="0" width="1280" height="586.167"/><g><path d="M55.5001 436.624 1265.5 436.624M55.5001 361.603 1265.5 361.603M55.5001 285.581 1265.5 285.581M55.5001 209.56 1265.5 209.56M55.5001 134.538 1265.5 134.538M55.5001 58.5167 1265.5 58.5167" stroke="#D9D9D9" stroke-linejoin="round" stroke-miterlimit="10" fill="none"/></g><g><path d="M55.5001 512.646 1265.5 512.646" stroke="#D9D9D9" stroke-linejoin="round" stroke-miterlimit="10" fill="none" fill-rule="evenodd"/></g><g><path d="M131.5 285.581 282.5 285.581 433.5 209.56 584.5 209.56 736.5 285.581 887.5 285.581 1038.5 285.581 1189.5 285.581" stroke="#B3CB2D" stroke-width="3" stroke-linecap="round" stroke-linejoin="round" stroke-miterlimit="10" fill="none"/></g><g><path d="M131.5 285.581 282.5 209.56 433.5 209.56 584.5 134.538 736.5 285.581 887.5 209.56 1038.5 134.538 1189.5 209.56" stroke="#809500" stroke-width="3" stroke-linecap="round" stroke-linejoin="round" stroke-miterlimit="10" stroke-dasharray="0 6" fill="none"/></g><g><path d="M131.5 134.538 282.5 134.538 433.5 134.538 584.5 134.538 736.5 134.538 887.5 134.538 1038.5 134.538 1189.5 134.538" stroke="#617000" stroke-width="3" stroke-linecap="round" stroke-linejoin="round" stroke-miterlimit="10" stroke-dasharray="9 12" fill="none"/></g><g><text fill="#F4F2F3" font-family="Calibri,Calibri_MSFontService,sans-serif" font-weight="400" font-size="16" transform="matrix(1 0 0 1.00028 32.9269 517)">0</text></g><g><text fill="#F4F2F3" font-family="Calibri,Calibri_MSFontService,sans-serif" font-weight="400" font-size="16" transform="matrix(1 0 0 1.00028 8.66677 441)">1000</text></g><g><text fill="#F4F2F3" font-family="Calibri,Calibri_MSFontService,sans-serif" font-weight="400" font-size="16" transform="matrix(1 0 0 1.00028 8.66677 366)">2000</text></g><g><text fill="#F4F2F3" font-family="Calibri,Calibri_MSFontService,sans-serif" font-weight="400" font-size="16" transform="matrix(1 0 0 1.00028 8.66677 290)">3000</text></g><g><text fill="#F4F2F3" font-family="Calibri,Calibri_MSFontService,sans-serif" font-weight="400" font-size="16" transform="matrix(1 0 0 1.00028 8.66677 214)">4000</text></g><g><text fill="#F4F2F3" font-family="Calibri,Calibri_MSFontService,sans-serif" font-weight="400" font-size="16" transform="matrix(1 0 0 1.00028 8.66677 139)">5000</text></g><g><text fill="#F4F2F3" font-family="Calibri,Calibri_MSFontService,sans-serif" font-weight="400" font-size="16" transform="matrix(1 0 0 1.00028 8.66677 63)">6000</text></g><g><text fill="#F4F2F3" font-family="Calibri,Calibri_MSFontService,sans-serif" font-weight="400" font-size="16" transform="matrix(1 0 0 1.00028 106.9 538)">Week 1</text></g><g><text fill="#F4F2F3" font-family="Calibri,Calibri_MSFontService,sans-serif" font-weight="400" font-size="16" transform="matrix(1 0 0 1.00028 258.089 538)">Week 2</text></g><g><text fill="#F4F2F3" font-family="Calibri,Calibri_MSFontService,sans-serif" font-weight="400" font-size="16" transform="matrix(1 0 0 1.00028 409.278 538)">Week 3</text></g><g><text fill="#F4F2F3" font-family="Calibri,Calibri_MSFontService,sans-serif" font-weight="400" font-size="16" transform="matrix(1 0 0 1.00028 560.468 538)">Week 4</text></g><g><text fill="#F4F2F3" font-family="Calibri,Calibri_MSFontService,sans-serif" font-weight="400" font-size="16" transform="matrix(1 0 0 1.00028 711.657 538)">Week 5</text></g><g><text fill="#F4F2F3" font-family="Calibri,Calibri_MSFontService,sans-serif" font-weight="400" font-size="16" transform="matrix(1 0 0 1.00028 862.846 538)">Week 6</text></g><g><text fill="#F4F2F3" font-family="Calibri,Calibri_MSFontService,sans-serif" font-weight="400" font-size="16" transform="matrix(1 0 0 1.00028 1014.04 538)">Week 7</text></g><g><text fill="#F4F2F3" font-family="Calibri,Calibri_MSFontService,sans-serif" font-weight="400" font-size="16" transform="matrix(1 0 0 1.00028 1165.23 538)">Week 8</text></g><g><text fill="#F4F2F3" font-family="Calibri,Calibri_MSFontService,sans-serif" font-weight="400" font-size="25" transform="matrix(1 0 0 1.00028 522.107 34)">Example: Capacity Data</text></g><g><path d="M394.5 564.661 428.5 564.661" stroke="#B3CB2D" stroke-width="3" stroke-linecap="round" stroke-linejoin="round" stroke-miterlimit="10" fill="none" fill-rule="evenodd"/></g><g><text fill="#F4F2F3" font-family="Calibri,Calibri_MSFontService,sans-serif" font-weight="400" font-size="16" transform="matrix(1 0 0 1.00028 431.883 569)">Actual Capacity</text></g><g><path d="M559.5 564.661 592.5 564.661" stroke="#809500" stroke-width="3" stroke-linecap="round" stroke-linejoin="round" stroke-miterlimit="10" stroke-dasharray="0 6" fill="none" fill-rule="evenodd"/></g><g><text fill="#F4F2F3" font-family="Calibri,Calibri_MSFontService,sans-serif" font-weight="400" font-size="16" transform="matrix(1 0 0 1.00028 596.46 569)">Maximum Capacity</text></g><g><path d="M748.5 564.661 782.5 564.661" stroke="#617000" stroke-width="3" stroke-linecap="round" stroke-linejoin="round" stroke-miterlimit="10" stroke-dasharray="9 12" fill="none" fill-rule="evenodd"/></g><g><text fill="#F4F2F3" font-family="Calibri,Calibri_MSFontService,sans-serif" font-weight="400" font-size="16" transform="matrix(1 0 0 1.00028 785.763 569)">Agreed Capacity</text></g></g></svg>