<?xml version="1.0" encoding="utf-8"?>
<!-- Generator: Adobe Illustrator 27.2.0, SVG Export Plug-In . SVG Version: 6.00 Build 0)  -->
<svg version="1.1" id="Ebene_1" xmlns="http://www.w3.org/2000/svg" xmlns:xlink="http://www.w3.org/1999/xlink" x="0px" y="0px"
	 viewBox="0 0 150 150" style="enable-background:new 0 0 150 150;" xml:space="preserve">
<style type="text/css">
	.st0{fill:none;stroke:#FFFFFF;stroke-width:6;stroke-linejoin:round;stroke-miterlimit:10;}
	.st1{fill:none;stroke:#FFFFFF;stroke-width:6;stroke-miterlimit:10;}
	.st2{fill:none;stroke:#FFFFFF;stroke-width:6;stroke-linecap:round;stroke-linejoin:round;stroke-miterlimit:10;}
	.st3{fill:none;stroke:#FFFFFF;stroke-width:6;stroke-linecap:round;stroke-miterlimit:10;}
</style>
<circle class="st2" cx="111.5" cy="90.8" r="19.8"/>
<polyline class="st2" points="124.2,106.5 124.2,144.8 111.5,133.1 98.7,144.8 98.7,106.5 "/>
<path class="st0" d="M88.5,120.3H38.7c-8.2,0-14.9-6.7-14.9-14.9V20.2c0-8.2,6.7-14.9,14.9-14.9h24c1.9,0,3.7,0.7,5.1,2.1l42.2,40.3
	c1.5,1.4,2.3,3.3,2.3,5.4v8.1"/>
<path class="st2" d="M111.7,50.1H73.1c-4.1,0-7.4-3.3-7.4-7.4V5.9"/>
<line class="st2" x1="41.1" y1="72.8" x2="75.1" y2="72.8"/>
<line class="st2" x1="41.1" y1="87.1" x2="75.1" y2="87.1"/>
<line class="st2" x1="41.1" y1="101.4" x2="75.1" y2="101.4"/>
</svg>
