<?xml version="1.0" encoding="utf-8"?>
<!-- Generator: Adobe Illustrator 27.2.0, SVG Export Plug-In . SVG Version: 6.00 Build 0)  -->
<svg version="1.1" id="Ebene_1" xmlns="http://www.w3.org/2000/svg" xmlns:xlink="http://www.w3.org/1999/xlink" x="0px" y="0px"
	 viewBox="0 0 150 150" style="enable-background:new 0 0 150 150;" xml:space="preserve">
<style type="text/css">
	.st0{fill:none;stroke:#FFFFFF;stroke-width:6;stroke-linejoin:round;stroke-miterlimit:10;}
	.st1{fill:none;stroke:#FFFFFF;stroke-width:6;stroke-miterlimit:10;}
	.st2{fill:none;stroke:#FFFFFF;stroke-width:6;stroke-linecap:round;stroke-linejoin:round;stroke-miterlimit:10;}
	.st3{fill:none;stroke:#FFFFFF;stroke-width:6;stroke-linecap:round;stroke-miterlimit:10;}
</style>
<g>
	<path class="st0" d="M127.3,45.1v82c0,9.9-8.1,18-18,18H34.9c-9.9,0-18-8.1-18-18V16.4c0-6.2,5-11.3,11.3-11.3"/>
	<g>
		<path class="st1" d="M28,35.1C27.9,35.1,28,35.1,28,35.1C28,35.1,27.9,35.1,28,35.1z"/>
		<path class="st1" d="M125.3,5.1L28,5.1c8.3,0,15.1,6.7,15.1,15c0,8.3-6.9,15-15.1,15c4.3,0,97.6,0,97.8,0c8.5,0,15.4-7.1,15-15.7
			C140.4,11.3,133.4,5.1,125.3,5.1z"/>
		<path class="st1" d="M28,5.1C27.9,5.1,28,5.1,28,5.1S27.9,5.1,28,5.1z"/>
	</g>
</g>
<g>
	<circle class="st2" cx="98" cy="85.4" r="13.3"/>
	<polyline class="st2" points="108.7,93.5 108.7,126.1 98,116.3 87.4,126.1 87.4,93.5 	"/>
</g>
<line class="st2" x1="32.8" y1="54.1" x2="111" y2="54.1"/>
<line class="st2" x1="32.8" y1="78.3" x2="70.6" y2="78.3"/>
<line class="st2" x1="32.8" y1="102.4" x2="70.6" y2="102.4"/>
</svg>
