<?xml version="1.0" encoding="utf-8"?>
<!-- Generator: Adobe Illustrator 27.2.0, SVG Export Plug-In . SVG Version: 6.00 Build 0)  -->
<svg version="1.1" id="Ebene_1" xmlns="http://www.w3.org/2000/svg" xmlns:xlink="http://www.w3.org/1999/xlink" x="0px" y="0px"
	 viewBox="0 0 150 150" style="enable-background:new 0 0 150 150;" xml:space="preserve">
<style type="text/css">
	.st0{fill:none;stroke:#FFFFFF;stroke-width:6;stroke-linejoin:round;stroke-miterlimit:10;}
	.st1{fill:none;stroke:#FFFFFF;stroke-width:6;stroke-miterlimit:10;}
	.st2{fill:none;stroke:#FFFFFF;stroke-width:6;stroke-linecap:round;stroke-linejoin:round;stroke-miterlimit:10;}
	.st3{fill:none;stroke:#FFFFFF;stroke-width:6;stroke-linecap:round;stroke-miterlimit:10;}
</style>
<path class="st0" d="M112.3,33.7h7.8c5,0,9,4,9,9v59.8c0,5-4,9-9,9H29.2c-5,0-9-4-9-9V42.7c0-5,4-9,9-9h7.2"/>
<g>
	<line class="st2" x1="89.2" y1="111.4" x2="95.6" y2="134"/>
	<line class="st2" x1="53.7" y1="134" x2="60.1" y2="111.4"/>
</g>
<line class="st2" x1="25.2" y1="144.9" x2="124.1" y2="144.9"/>
<path class="st1" d="M33.2,142L33.2,142c0-2.7,1.7-8,3.8-8h75.3c2.1,0,3.8,5.3,3.8,8l0,0"/>
<line class="st1" x1="19.9" y1="94.2" x2="129.4" y2="94.2"/>
<g>
	<path class="st2" d="M93.9,80H55.4c-5.4,0-9.7-4.4-9.7-9.7V14.6c0-5.4,4.4-9.7,9.7-9.7h15.7c1.2,0,2.4,0.5,3.4,1.3l27.6,26.3
		c1,0.9,1.5,2.2,1.5,3.5v34.3C103.6,75.7,99.2,80,93.9,80z"/>
	<path class="st2" d="M102.5,34.1H77.9c-2.7,0-4.9-2.2-4.9-4.9v-24"/>
</g>
</svg>
