<svg width="2442" height="1995" xmlns="http://www.w3.org/2000/svg" xmlns:xlink="http://www.w3.org/1999/xlink" xml:space="preserve" overflow="hidden"><defs><clipPath id="clip0"><rect x="454" y="430" width="2442" height="1995"/></clipPath></defs><g clip-path="url(#clip0)" transform="translate(-454 -430)"><rect x="457" y="447" width="2413" height="1978" fill="#FFFFFF"/><path d="M493.232 1525.5 884.768 1525.5 920.5 1555.5 920.5 1705.5 787.185 1705.5 787.185 1592.81 589.014 1592.81 589.014 1705.5 457.5 1705.5 457.5 1555.5 493.232 1525.5Z" stroke="#00689B" stroke-width="6.875" stroke-linejoin="round" stroke-miterlimit="10" fill="#008FD3" fill-rule="evenodd"/><path d="M548.232 1580.5 939.768 1580.5 975.5 1610.5 975.5 1760.5 842.185 1760.5 842.185 1647.81 644.014 1647.81 644.014 1760.5 512.5 1760.5 512.5 1610.5 548.232 1580.5Z" stroke="#00689B" stroke-width="6.875" stroke-linejoin="round" stroke-miterlimit="10" fill="#008FD3" fill-rule="evenodd"/><path d="M603.232 1635.5 994.769 1635.5 1030.5 1665.5 1030.5 1815.5 897.185 1815.5 897.185 1702.81 699.014 1702.81 699.014 1815.5 567.5 1815.5 567.5 1665.5 603.232 1635.5Z" stroke="#00689B" stroke-width="6.875" stroke-linejoin="round" stroke-miterlimit="10" fill="#008FD3" fill-rule="evenodd"/><path d="M658.232 1690.5 1049.77 1690.5 1085.5 1720.5 1085.5 1870.5 952.185 1870.5 952.185 1757.81 754.014 1757.81 754.014 1870.5 622.5 1870.5 622.5 1720.5 658.232 1690.5Z" stroke="#00689B" stroke-width="6.875" stroke-linejoin="round" stroke-miterlimit="10" fill="#008FD3" fill-rule="evenodd"/><path d="M1163.5 1847.17C1163.5 1810.35 1240.28 1780.5 1335 1780.5 1429.72 1780.5 1506.5 1810.35 1506.5 1847.17L1506.5 2113.83C1506.5 2150.65 1429.72 2180.5 1335 2180.5 1240.28 2180.5 1163.5 2150.65 1163.5 2113.83Z" fill="#008FD3" fill-rule="evenodd"/><path d="M1506.5 1847.17C1506.5 1883.99 1429.72 1913.83 1335 1913.83 1240.28 1913.83 1163.5 1883.99 1163.5 1847.17" stroke="#00689B" stroke-width="6.875" stroke-linejoin="round" stroke-miterlimit="10" fill="none" fill-rule="evenodd"/><path d="M1163.5 1847.17C1163.5 1810.35 1240.28 1780.5 1335 1780.5 1429.72 1780.5 1506.5 1810.35 1506.5 1847.17L1506.5 2113.83C1506.5 2150.65 1429.72 2180.5 1335 2180.5 1240.28 2180.5 1163.5 2150.65 1163.5 2113.83Z" stroke="#00689B" stroke-width="6.875" stroke-linejoin="round" stroke-miterlimit="10" fill="none" fill-rule="evenodd"/><text fill="#FFFFFF" font-family="Arial,Arial_MSFontService,sans-serif" font-weight="400" font-size="55" transform="matrix(1 0 0 1 1279.42 1967)">AAS <tspan font-size="55" x="-71.6145" y="66">Registry &amp; </tspan><tspan font-size="55" x="-65.3125" y="132">Discovery</tspan><tspan font-size="55" x="-616.044" y="-217">AAS </tspan>Submodels</text><path d="M1324.12 1204.12 1357.36 1228.6 1305.81 1298.59C1297.33 1310.11 1299.79 1326.32 1311.31 1334.81 1322.83 1343.29 1339.04 1340.83 1347.53 1329.31L1399.08 1259.33 1420.03 1274.76 1368.48 1344.75C1360 1356.27 1362.46 1372.48 1373.98 1380.97 1385.49 1389.46 1401.71 1387 1410.2 1375.48L1461.75 1305.49 1497.28 1331.66C1502.01 1335.15 1503.02 1341.81 1499.53 1346.54L1345.71 1555.37C1342.22 1560.11 1335.56 1561.12 1330.83 1557.63L1157.67 1430.08C1152.94 1426.6 1151.93 1419.94 1155.42 1415.2L1309.24 1206.37C1312.73 1201.64 1319.39 1200.63 1324.12 1204.12Z" fill="#4FB81C" fill-rule="evenodd"/><text fill="#FFFFFF" font-family="Arial,Arial_MSFontService,sans-serif" font-weight="400" font-size="55" transform="matrix(1 0 0 1 1218.13 1428)">Provider<tspan font-size="55" x="44.1146" y="66">ED</tspan><tspan font-size="55" x="120.313" y="66">C</tspan></text><path d="M1485.17 1237.33C1473.51 1229.04 1470.78 1212.86 1479.07 1201.2L1529.44 1130.37 1508.24 1115.29 1457.86 1186.12C1449.57 1197.78 1433.39 1200.51 1421.73 1192.22 1410.07 1183.93 1407.34 1167.75 1415.64 1156.09L1466.01 1085.26 1430.05 1059.69C1425.26 1056.28 1424.14 1049.63 1427.55 1044.84L1577.86 833.475C1581.27 828.685 1587.91 827.563 1592.7 830.97L1767.96 955.607C1772.75 959.013 1773.88 965.658 1770.47 970.448L1620.15 1181.82C1616.75 1186.61 1610.1 1187.73 1605.31 1184.32L1571.67 1160.4 1521.29 1231.23C1513 1242.89 1496.82 1245.62 1485.17 1237.33Z" fill="#4FB81C" fill-rule="evenodd"/><text fill="#FFFFFF" font-family="Arial,Arial_MSFontService,sans-serif" font-weight="400" font-size="55" transform="matrix(1 0 0 1 1480.91 1009)">Consume<tspan font-size="55" x="234.323" y="0">r</tspan><tspan font-size="55" x="68.4522" y="66">ED</tspan><tspan font-size="55" x="144.65" y="66">C</tspan></text><path d="M512.5 700.5 1725.5 1417.12" stroke="#000000" stroke-width="9.16667" stroke-linejoin="round" stroke-miterlimit="10" stroke-dasharray="73.3333 27.5" fill="none" fill-rule="evenodd"/><path d="M0 0 726 736.617" stroke="#000000" stroke-width="9.16667" stroke-linejoin="round" stroke-miterlimit="10" stroke-dasharray="73.3333 27.5" fill="none" fill-rule="evenodd" transform="matrix(-1 0 0 1 2451.5 680.5)"/><path d="M1725.5 1407.5 1757.11 2180.33" stroke="#000000" stroke-width="9.16667" stroke-linejoin="round" stroke-miterlimit="10" stroke-dasharray="73.3333 27.5" fill="none" fill-rule="evenodd"/><rect x="1674.5" y="594.5" width="421" height="145" stroke="#666666" stroke-width="6.875" stroke-linejoin="round" stroke-miterlimit="10" fill="#FFFFFF"/><text font-family="Arial,Arial_MSFontService,sans-serif" font-weight="400" font-size="55" transform="matrix(1 0 0 1 1728.74 654)">Any Network <tspan font-size="55" x="106.86" y="66">App</tspan></text><path d="M0 0 212.884 152.757" stroke="#000000" stroke-width="9.16667" stroke-linejoin="round" stroke-miterlimit="10" fill="none" fill-rule="evenodd" transform="matrix(-1 0 0 1 1884.38 739.5)"/><path d="M0 0 188.942 216.485" stroke="#000000" stroke-width="9.16667" stroke-linejoin="round" stroke-miterlimit="10" fill="none" fill-rule="evenodd" transform="matrix(-1 0 0 1 1244.44 1493.5)"/><path d="M1250.5 1493.5 1335.31 1780.86" stroke="#000000" stroke-width="9.16667" stroke-linejoin="round" stroke-miterlimit="10" fill="none" fill-rule="evenodd"/><path d="M1049.5 1705.5 1334.9 1780.5" stroke="#000000" stroke-width="9.16667" stroke-linejoin="round" stroke-miterlimit="10" fill="none" fill-rule="evenodd"/><path d="M2247.5 1033.5C2247.5 1009.75 2324.28 990.5 2419 990.5 2513.72 990.5 2590.5 1009.75 2590.5 1033.5L2590.5 1205.5C2590.5 1229.25 2513.72 1248.5 2419 1248.5 2324.28 1248.5 2247.5 1229.25 2247.5 1205.5Z" fill="#F0AB00" fill-rule="evenodd"/><path d="M2590.5 1033.5C2590.5 1057.25 2513.72 1076.5 2419 1076.5 2324.28 1076.5 2247.5 1057.25 2247.5 1033.5" stroke="#B07D00" stroke-width="6.875" stroke-linejoin="round" stroke-miterlimit="10" fill="none" fill-rule="evenodd"/><path d="M2247.5 1033.5C2247.5 1009.75 2324.28 990.5 2419 990.5 2513.72 990.5 2590.5 1009.75 2590.5 1033.5L2590.5 1205.5C2590.5 1229.25 2513.72 1248.5 2419 1248.5 2324.28 1248.5 2247.5 1229.25 2247.5 1205.5Z" stroke="#B07D00" stroke-width="6.875" stroke-linejoin="round" stroke-miterlimit="10" fill="none" fill-rule="evenodd"/><text font-family="Arial,Arial_MSFontService,sans-serif" font-weight="400" font-size="55" transform="matrix(1 0 0 1 2298.31 1155)">Discovery <tspan font-size="55" x="42.6936" y="66">Finder</tspan></text><path d="M2280.5 1424.5C2280.5 1400.75 2357.28 1381.5 2452 1381.5 2546.72 1381.5 2623.5 1400.75 2623.5 1424.5L2623.5 1596.5C2623.5 1620.25 2546.72 1639.5 2452 1639.5 2357.28 1639.5 2280.5 1620.25 2280.5 1596.5Z" fill="#F0AB00" fill-rule="evenodd"/><path d="M2623.5 1424.5C2623.5 1448.25 2546.72 1467.5 2452 1467.5 2357.28 1467.5 2280.5 1448.25 2280.5 1424.5" stroke="#B07D00" stroke-width="6.875" stroke-linejoin="round" stroke-miterlimit="10" fill="none" fill-rule="evenodd"/><path d="M2280.5 1424.5C2280.5 1400.75 2357.28 1381.5 2452 1381.5 2546.72 1381.5 2623.5 1400.75 2623.5 1424.5L2623.5 1596.5C2623.5 1620.25 2546.72 1639.5 2452 1639.5 2357.28 1639.5 2280.5 1620.25 2280.5 1596.5Z" stroke="#B07D00" stroke-width="6.875" stroke-linejoin="round" stroke-miterlimit="10" fill="none" fill-rule="evenodd"/><text font-family="Arial,Arial_MSFontService,sans-serif" font-weight="400" font-size="55" transform="matrix(1 0 0 1 2394.88 1546)">BPN <tspan font-size="55" x="-63.8916" y="66">Discovery</tspan></text><path d="M2005.5 1765.5C2005.5 1741.75 2082.06 1722.5 2176.5 1722.5 2270.94 1722.5 2347.5 1741.75 2347.5 1765.5L2347.5 1937.5C2347.5 1961.25 2270.94 1980.5 2176.5 1980.5 2082.06 1980.5 2005.5 1961.25 2005.5 1937.5Z" fill="#F0AB00" fill-rule="evenodd"/><path d="M2347.5 1765.5C2347.5 1789.25 2270.94 1808.5 2176.5 1808.5 2082.06 1808.5 2005.5 1789.25 2005.5 1765.5" stroke="#B07D00" stroke-width="6.875" stroke-linejoin="round" stroke-miterlimit="10" fill="none" fill-rule="evenodd"/><path d="M2005.5 1765.5C2005.5 1741.75 2082.06 1722.5 2176.5 1722.5 2270.94 1722.5 2347.5 1741.75 2347.5 1765.5L2347.5 1937.5C2347.5 1961.25 2270.94 1980.5 2176.5 1980.5 2082.06 1980.5 2005.5 1961.25 2005.5 1937.5Z" stroke="#B07D00" stroke-width="6.875" stroke-linejoin="round" stroke-miterlimit="10" fill="none" fill-rule="evenodd"/><text font-family="Arial,Arial_MSFontService,sans-serif" font-weight="400" font-size="55" transform="matrix(1 0 0 1 2118.08 1887)">EDC <tspan font-size="55" x="-62.448" y="66">Discovery</tspan></text><path d="M1884.5 739.5 2247.42 1119.34" stroke="#000000" stroke-width="9.16667" stroke-linejoin="round" stroke-miterlimit="10" fill="none" fill-rule="evenodd"/><path d="M1884.5 739.5 2280.09 1510.21" stroke="#000000" stroke-width="9.16667" stroke-linejoin="round" stroke-miterlimit="10" fill="none" fill-rule="evenodd"/><path d="M1651.5 1124.5 2176.13 1722.53" stroke="#000000" stroke-width="9.16667" stroke-linejoin="round" stroke-miterlimit="10" fill="none" fill-rule="evenodd"/><path d="M1224.5 552C1224.5 537.365 1237.48 525.5 1253.5 525.5 1269.52 525.5 1282.5 537.365 1282.5 552 1282.5 566.636 1269.52 578.5 1253.5 578.5 1237.48 578.5 1224.5 566.636 1224.5 552Z" stroke="#000000" stroke-width="9.16667" stroke-miterlimit="8" fill="none" fill-rule="evenodd"/><path d="M1253.5 578.5 1253.5 653.18" stroke="#000000" stroke-width="9.16667" stroke-linejoin="round" stroke-miterlimit="10" fill="none" fill-rule="evenodd"/><path d="M0 0 57.7345 52.447" stroke="#000000" stroke-width="9.16667" stroke-linejoin="round" stroke-miterlimit="10" fill="none" fill-rule="evenodd" transform="matrix(-1 0 0 1 1253.23 646.5)"/><path d="M0 0 57.7345 52.447" stroke="#000000" stroke-width="9.16667" stroke-linejoin="round" stroke-miterlimit="10" fill="none" fill-rule="evenodd" transform="matrix(-1 0 0 1 1253.23 589.5)"/><path d="M1293.24 700.891 1253.5 648.5" stroke="#000000" stroke-width="9.16667" stroke-linejoin="round" stroke-miterlimit="10" fill="none" fill-rule="evenodd"/><path d="M1305.04 632.624 1253.5 590.5" stroke="#000000" stroke-width="9.16667" stroke-linejoin="round" stroke-miterlimit="10" fill="none" fill-rule="evenodd"/><text font-family="Arial,Arial_MSFontService,sans-serif" font-weight="400" font-size="55" transform="matrix(1 0 0 1 1049.98 500)">Data Consumer</text><path d="M726.5 1185C726.5 1170.36 739.484 1158.5 755.5 1158.5 771.516 1158.5 784.5 1170.36 784.5 1185 784.5 1199.64 771.516 1211.5 755.5 1211.5 739.484 1211.5 726.5 1199.64 726.5 1185Z" stroke="#000000" stroke-width="9.16667" stroke-miterlimit="8" fill="none" fill-rule="evenodd"/><path d="M755.5 1211.5 755.5 1286.18" stroke="#000000" stroke-width="9.16667" stroke-linejoin="round" stroke-miterlimit="10" fill="none" fill-rule="evenodd"/><path d="M0 0 57.7345 52.447" stroke="#000000" stroke-width="9.16667" stroke-linejoin="round" stroke-miterlimit="10" fill="none" fill-rule="evenodd" transform="matrix(-1 0 0 1 755.234 1280.5)"/><path d="M0 0 57.7345 52.447" stroke="#000000" stroke-width="9.16667" stroke-linejoin="round" stroke-miterlimit="10" fill="none" fill-rule="evenodd" transform="matrix(-1 0 0 1 755.234 1222.5)"/><path d="M795.244 1333.89 755.5 1281.5" stroke="#000000" stroke-width="9.16667" stroke-linejoin="round" stroke-miterlimit="10" fill="none" fill-rule="evenodd"/><path d="M807.041 1265.62 755.5 1223.5" stroke="#000000" stroke-width="9.16667" stroke-linejoin="round" stroke-miterlimit="10" fill="none" fill-rule="evenodd"/><text font-family="Arial,Arial_MSFontService,sans-serif" font-weight="400" font-size="55" transform="matrix(1 0 0 1 551.58 1133)">Data Provider</text><path d="M2510.5 1783.5C2510.5 1769.14 2523.26 1757.5 2539 1757.5 2554.74 1757.5 2567.5 1769.14 2567.5 1783.5 2567.5 1797.86 2554.74 1809.5 2539 1809.5 2523.26 1809.5 2510.5 1797.86 2510.5 1783.5Z" stroke="#000000" stroke-width="9.16667" stroke-miterlimit="8" fill="none" fill-rule="evenodd"/><path d="M2539.5 1809.5 2539.5 1884.18" stroke="#000000" stroke-width="9.16667" stroke-linejoin="round" stroke-miterlimit="10" fill="none" fill-rule="evenodd"/><path d="M0 0 57.7345 52.447" stroke="#000000" stroke-width="9.16667" stroke-linejoin="round" stroke-miterlimit="10" fill="none" fill-rule="evenodd" transform="matrix(-1 0 0 1 2539.23 1878.5)"/><path d="M0 0 57.7345 52.447" stroke="#000000" stroke-width="9.16667" stroke-linejoin="round" stroke-miterlimit="10" fill="none" fill-rule="evenodd" transform="matrix(-1 0 0 1 2539.23 1821.5)"/><path d="M2579.24 1931.89 2539.5 1879.5" stroke="#000000" stroke-width="9.16667" stroke-linejoin="round" stroke-miterlimit="10" fill="none" fill-rule="evenodd"/><path d="M2591.04 1864.62 2539.5 1822.5" stroke="#000000" stroke-width="9.16667" stroke-linejoin="round" stroke-miterlimit="10" fill="none" fill-rule="evenodd"/><text font-family="Arial,Arial_MSFontService,sans-serif" font-weight="400" font-size="55" transform="matrix(1 0 0 1 2471.26 1725)">OpCo</text><rect x="1793.5" y="2107.5" width="302" height="72.9998" stroke="#00689B" stroke-width="6.875" stroke-linejoin="round" stroke-miterlimit="10" fill="#008FD3"/><rect x="1793.5" y="2197.5" width="302" height="74" stroke="#B07D00" stroke-width="6.875" stroke-linejoin="round" stroke-miterlimit="10" fill="#F0AB00"/><rect x="1793" y="2288" width="302" height="72.9998" fill="#4FB81C"/><text font-family="Arial,Arial_MSFontService,sans-serif" font-weight="400" font-size="55" transform="matrix(1 0 0 1 2130.67 2166)">Standard adopted from IDTA<tspan font-size="55" x="0" y="90">Standard specified by CX </tspan><tspan font-size="55" x="634.219" y="90">e.V.</tspan><tspan font-size="55" x="0" y="184">Standard specified by IDSA</tspan></text></g></svg>