<svg aria-roledescription="sequence" role="graphics-document document" viewBox="-50 -10 2713.5 1908" style="max-width: 100%;" xmlns="http://www.w3.org/2000/svg" width="100%" id="graph-div" height="100%" xmlns:xlink="http://www.w3.org/1999/xlink"><style>@import url("https://cdnjs.cloudflare.com/ajax/libs/font-awesome/6.4.2/css/all.min.css");'</style><g><rect class="actor" ry="3" rx="3" height="65" width="150" stroke="#666" fill="#eaeaea" y="1822" x="2463.5"></rect><text style="text-anchor: middle; font-size: 16px; font-weight: 400;" class="actor" alignment-baseline="central" dominant-baseline="central" y="1854.5" x="2538.5"><tspan dy="0" x="2538.5">Data Consumer</tspan></text></g><g><rect class="actor" ry="3" rx="3" height="65" width="150" stroke="#666" fill="#eaeaea" y="1822" x="2108.5"></rect><text style="text-anchor: middle; font-size: 16px; font-weight: 400;" class="actor" alignment-baseline="central" dominant-baseline="central" y="1854.5" x="2183.5"><tspan dy="0" x="2183.5">Submodel Server</tspan></text></g><g><rect class="actor" ry="3" rx="3" height="65" width="163" stroke="#666" fill="#eaeaea" y="1822" x="1895.5"></rect><text style="text-anchor: middle; font-size: 16px; font-weight: 400;" class="actor" alignment-baseline="central" dominant-baseline="central" y="1854.5" x="1977"><tspan dy="0" x="1977">Digital Twin Registry</tspan></text></g><g><rect class="actor" ry="3" rx="3" height="65" width="225" stroke="#666" fill="#eaeaea" y="1822" x="1620.5"></rect><text style="text-anchor: middle; font-size: 16px; font-weight: 400;" class="actor" alignment-baseline="central" dominant-baseline="central" y="1854.5" x="1733"><tspan dy="0" x="1733">Consumer EDC Control Plane</tspan></text></g><g><rect class="actor" ry="3" rx="3" height="65" width="212" stroke="#666" fill="#eaeaea" y="1822" x="1358.5"></rect><text style="text-anchor: middle; font-size: 16px; font-weight: 400;" class="actor" alignment-baseline="central" dominant-baseline="central" y="1854.5" x="1464.5"><tspan dy="0" x="1464.5">Provider EDC Control Plane</tspan></text></g><g><rect class="actor" ry="3" rx="3" height="65" width="150" stroke="#666" fill="#eaeaea" y="1822" x="1158.5"></rect><text style="text-anchor: middle; font-size: 16px; font-weight: 400;" class="actor" alignment-baseline="central" dominant-baseline="central" y="1854.5" x="1233.5"><tspan dy="0" x="1233.5">EDC Discovery</tspan></text></g><g><rect class="actor" ry="3" rx="3" height="65" width="177" stroke="#666" fill="#eaeaea" y="1822" x="931.5"></rect><text style="text-anchor: middle; font-size: 16px; font-weight: 400;" class="actor" alignment-baseline="central" dominant-baseline="central" y="1854.5" x="1020"><tspan dy="0" x="1020">BPN Discovery Service</tspan></text></g><g><rect class="actor" ry="3" rx="3" height="65" width="150" stroke="#666" fill="#eaeaea" y="1822" x="731.5"></rect><text style="text-anchor: middle; font-size: 16px; font-weight: 400;" class="actor" alignment-baseline="central" dominant-baseline="central" y="1854.5" x="806.5"><tspan dy="0" x="806.5">Discovery Finder</tspan></text></g><g><rect class="actor" ry="3" rx="3" height="65" width="175" stroke="#666" fill="#eaeaea" y="1822" x="0"></rect><text style="text-anchor: middle; font-size: 16px; font-weight: 400;" class="actor" alignment-baseline="central" dominant-baseline="central" y="1854.5" x="87.5"><tspan dy="0" x="87.5">Provider Setup Admin</tspan></text></g><g><line stroke="#999" stroke-width="0.5px" class="200" y2="1822" x2="2538.5" y1="5" x1="2538.5" id="actor17"></line><g id="root-17"><rect class="actor" ry="3" rx="3" height="65" width="150" stroke="#666" fill="#eaeaea" y="0" x="2463.5"></rect><text style="text-anchor: middle; font-size: 16px; font-weight: 400;" class="actor" alignment-baseline="central" dominant-baseline="central" y="32.5" x="2538.5"><tspan dy="0" x="2538.5">Data Consumer</tspan></text></g></g><g><line stroke="#999" stroke-width="0.5px" class="200" y2="1822" x2="2183.5" y1="5" x1="2183.5" id="actor16"></line><g id="root-16"><rect class="actor" ry="3" rx="3" height="65" width="150" stroke="#666" fill="#eaeaea" y="0" x="2108.5"></rect><text style="text-anchor: middle; font-size: 16px; font-weight: 400;" class="actor" alignment-baseline="central" dominant-baseline="central" y="32.5" x="2183.5"><tspan dy="0" x="2183.5">Submodel Server</tspan></text></g></g><g><line stroke="#999" stroke-width="0.5px" class="200" y2="1822" x2="1977" y1="5" x1="1977" id="actor15"></line><g id="root-15"><rect class="actor" ry="3" rx="3" height="65" width="163" stroke="#666" fill="#eaeaea" y="0" x="1895.5"></rect><text style="text-anchor: middle; font-size: 16px; font-weight: 400;" class="actor" alignment-baseline="central" dominant-baseline="central" y="32.5" x="1977"><tspan dy="0" x="1977">Digital Twin Registry</tspan></text></g></g><g><line stroke="#999" stroke-width="0.5px" class="200" y2="1822" x2="1733" y1="5" x1="1733" id="actor14"></line><g id="root-14"><rect class="actor" ry="3" rx="3" height="65" width="225" stroke="#666" fill="#eaeaea" y="0" x="1620.5"></rect><text style="text-anchor: middle; font-size: 16px; font-weight: 400;" class="actor" alignment-baseline="central" dominant-baseline="central" y="32.5" x="1733"><tspan dy="0" x="1733">Consumer EDC Control Plane</tspan></text></g></g><g><line stroke="#999" stroke-width="0.5px" class="200" y2="1822" x2="1464.5" y1="5" x1="1464.5" id="actor13"></line><g id="root-13"><rect class="actor" ry="3" rx="3" height="65" width="212" stroke="#666" fill="#eaeaea" y="0" x="1358.5"></rect><text style="text-anchor: middle; font-size: 16px; font-weight: 400;" class="actor" alignment-baseline="central" dominant-baseline="central" y="32.5" x="1464.5"><tspan dy="0" x="1464.5">Provider EDC Control Plane</tspan></text></g></g><g><line stroke="#999" stroke-width="0.5px" class="200" y2="1822" x2="1233.5" y1="5" x1="1233.5" id="actor12"></line><g id="root-12"><rect class="actor" ry="3" rx="3" height="65" width="150" stroke="#666" fill="#eaeaea" y="0" x="1158.5"></rect><text style="text-anchor: middle; font-size: 16px; font-weight: 400;" class="actor" alignment-baseline="central" dominant-baseline="central" y="32.5" x="1233.5"><tspan dy="0" x="1233.5">EDC Discovery</tspan></text></g></g><g><line stroke="#999" stroke-width="0.5px" class="200" y2="1822" x2="1020" y1="5" x1="1020" id="actor11"></line><g id="root-11"><rect class="actor" ry="3" rx="3" height="65" width="177" stroke="#666" fill="#eaeaea" y="0" x="931.5"></rect><text style="text-anchor: middle; font-size: 16px; font-weight: 400;" class="actor" alignment-baseline="central" dominant-baseline="central" y="32.5" x="1020"><tspan dy="0" x="1020">BPN Discovery Service</tspan></text></g></g><g><line stroke="#999" stroke-width="0.5px" class="200" y2="1822" x2="806.5" y1="5" x1="806.5" id="actor10"></line><g id="root-10"><rect class="actor" ry="3" rx="3" height="65" width="150" stroke="#666" fill="#eaeaea" y="0" x="731.5"></rect><text style="text-anchor: middle; font-size: 16px; font-weight: 400;" class="actor" alignment-baseline="central" dominant-baseline="central" y="32.5" x="806.5"><tspan dy="0" x="806.5">Discovery Finder</tspan></text></g></g><g><line stroke="#999" stroke-width="0.5px" class="200" y2="1822" x2="87.5" y1="5" x1="87.5" id="actor9"></line><g id="root-9"><rect class="actor" ry="3" rx="3" height="65" width="175" stroke="#666" fill="#eaeaea" y="0" x="0"></rect><text style="text-anchor: middle; font-size: 16px; font-weight: 400;" class="actor" alignment-baseline="central" dominant-baseline="central" y="32.5" x="87.5"><tspan dy="0" x="87.5">Provider Setup Admin</tspan></text></g></g><style>#graph-div{font-family:"trebuchet ms",verdana,arial,sans-serif;font-size:16px;fill:#ccc;}#graph-div .error-icon{fill:#a44141;}#graph-div .error-text{fill:#ddd;stroke:#ddd;}#graph-div .edge-thickness-normal{stroke-width:2px;}#graph-div .edge-thickness-thick{stroke-width:3.5px;}#graph-div .edge-pattern-solid{stroke-dasharray:0;}#graph-div .edge-pattern-dashed{stroke-dasharray:3;}#graph-div .edge-pattern-dotted{stroke-dasharray:2;}#graph-div .marker{fill:lightgrey;stroke:lightgrey;}#graph-div .marker.cross{stroke:lightgrey;}#graph-div svg{font-family:"trebuchet ms",verdana,arial,sans-serif;font-size:16px;}#graph-div .actor{stroke:#81B1DB;fill:#1f2020;}#graph-div text.actor&gt;tspan{fill:lightgrey;stroke:none;}#graph-div .actor-line{stroke:lightgrey;}#graph-div .messageLine0{stroke-width:1.5;stroke-dasharray:none;stroke:lightgrey;}#graph-div .messageLine1{stroke-width:1.5;stroke-dasharray:2,2;stroke:lightgrey;}#graph-div #arrowhead path{fill:lightgrey;stroke:lightgrey;}#graph-div .sequenceNumber{fill:black;}#graph-div #sequencenumber{fill:lightgrey;}#graph-div #crosshead path{fill:lightgrey;stroke:lightgrey;}#graph-div .messageText{fill:lightgrey;stroke:none;}#graph-div .labelBox{stroke:#81B1DB;fill:#1f2020;}#graph-div .labelText,#graph-div .labelText&gt;tspan{fill:lightgrey;stroke:none;}#graph-div .loopText,#graph-div .loopText&gt;tspan{fill:lightgrey;stroke:none;}#graph-div .loopLine{stroke-width:2px;stroke-dasharray:2,2;stroke:#81B1DB;fill:#81B1DB;}#graph-div .note{stroke:hsl(180, 0%, 18.3529411765%);fill:hsl(180, 1.5873015873%, 28.3529411765%);}#graph-div .noteText,#graph-div .noteText&gt;tspan{fill:rgb(183.8476190475, 181.5523809523, 181.5523809523);stroke:none;}#graph-div .activation0{fill:hsl(180, 1.5873015873%, 28.3529411765%);stroke:#81B1DB;}#graph-div .activation1{fill:hsl(180, 1.5873015873%, 28.3529411765%);stroke:#81B1DB;}#graph-div .activation2{fill:hsl(180, 1.5873015873%, 28.3529411765%);stroke:#81B1DB;}#graph-div .actorPopupMenu{position:absolute;}#graph-div .actorPopupMenuPanel{position:absolute;fill:#1f2020;box-shadow:0px 8px 16px 0px rgba(0,0,0,0.2);filter:drop-shadow(3px 5px 2px rgb(0 0 0 / 0.4));}#graph-div .actor-man line{stroke:#81B1DB;fill:#1f2020;}#graph-div .actor-man circle,#graph-div line{stroke:#81B1DB;fill:#1f2020;stroke-width:2px;}#graph-div :root{--mermaid-font-family:"trebuchet ms",verdana,arial,sans-serif;}</style><g></g><defs><symbol height="24" width="24" id="computer"><path d="M2 2v13h20v-13h-20zm18 11h-16v-9h16v9zm-10.228 6l.466-1h3.524l.467 1h-4.457zm14.228 3h-24l2-6h2.104l-1.33 4h18.45l-1.297-4h2.073l2 6zm-5-10h-14v-7h14v7z" transform="scale(.5)"></path></symbol></defs><defs><symbol clip-rule="evenodd" fill-rule="evenodd" id="database"><path d="M12.258.001l.256.004.255.005.253.008.251.01.249.012.247.015.246.016.242.019.241.02.239.023.236.024.233.027.231.028.229.031.225.032.223.034.22.036.217.038.214.04.211.041.208.043.205.045.201.046.198.048.194.05.191.051.187.053.183.054.18.056.175.057.172.059.168.06.163.061.16.063.155.064.15.066.074.033.073.033.071.034.07.034.069.035.068.035.067.035.066.035.064.036.064.036.062.036.06.036.06.037.058.037.058.037.055.038.055.038.053.038.052.038.051.039.05.039.048.039.047.039.045.04.044.04.043.04.041.04.04.041.039.041.037.041.036.041.034.041.033.042.032.042.03.042.029.042.027.042.026.043.024.043.023.043.021.043.02.043.018.044.017.043.015.044.013.044.012.044.011.045.009.044.007.045.006.045.004.045.002.045.001.045v17l-.001.045-.002.045-.004.045-.006.045-.007.045-.009.044-.011.045-.012.044-.013.044-.015.044-.017.043-.018.044-.02.043-.021.043-.023.043-.024.043-.026.043-.027.042-.029.042-.03.042-.032.042-.033.042-.034.041-.036.041-.037.041-.039.041-.04.041-.041.04-.043.04-.044.04-.045.04-.047.039-.048.039-.05.039-.051.039-.052.038-.053.038-.055.038-.055.038-.058.037-.058.037-.06.037-.06.036-.062.036-.064.036-.064.036-.066.035-.067.035-.068.035-.069.035-.07.034-.071.034-.073.033-.074.033-.15.066-.155.064-.16.063-.163.061-.168.06-.172.059-.175.057-.18.056-.183.054-.187.053-.191.051-.194.05-.198.048-.201.046-.205.045-.208.043-.211.041-.214.04-.217.038-.22.036-.223.034-.225.032-.229.031-.231.028-.233.027-.236.024-.239.023-.241.02-.242.019-.246.016-.247.015-.249.012-.251.01-.253.008-.255.005-.256.004-.258.001-.258-.001-.256-.004-.255-.005-.253-.008-.251-.01-.249-.012-.247-.015-.245-.016-.243-.019-.241-.02-.238-.023-.236-.024-.234-.027-.231-.028-.228-.031-.226-.032-.223-.034-.22-.036-.217-.038-.214-.04-.211-.041-.208-.043-.204-.045-.201-.046-.198-.048-.195-.05-.19-.051-.187-.053-.184-.054-.179-.056-.176-.057-.172-.059-.167-.06-.164-.061-.159-.063-.155-.064-.151-.066-.074-.033-.072-.033-.072-.034-.07-.034-.069-.035-.068-.035-.067-.035-.066-.035-.064-.036-.063-.036-.062-.036-.061-.036-.06-.037-.058-.037-.057-.037-.056-.038-.055-.038-.053-.038-.052-.038-.051-.039-.049-.039-.049-.039-.046-.039-.046-.04-.044-.04-.043-.04-.041-.04-.04-.041-.039-.041-.037-.041-.036-.041-.034-.041-.033-.042-.032-.042-.03-.042-.029-.042-.027-.042-.026-.043-.024-.043-.023-.043-.021-.043-.02-.043-.018-.044-.017-.043-.015-.044-.013-.044-.012-.044-.011-.045-.009-.044-.007-.045-.006-.045-.004-.045-.002-.045-.001-.045v-17l.001-.045.002-.045.004-.045.006-.045.007-.045.009-.044.011-.045.012-.044.013-.044.015-.044.017-.043.018-.044.02-.043.021-.043.023-.043.024-.043.026-.043.027-.042.029-.042.03-.042.032-.042.033-.042.034-.041.036-.041.037-.041.039-.041.04-.041.041-.04.043-.04.044-.04.046-.04.046-.039.049-.039.049-.039.051-.039.052-.038.053-.038.055-.038.056-.038.057-.037.058-.037.06-.037.061-.036.062-.036.063-.036.064-.036.066-.035.067-.035.068-.035.069-.035.07-.034.072-.034.072-.033.074-.033.151-.066.155-.064.159-.063.164-.061.167-.06.172-.059.176-.057.179-.056.184-.054.187-.053.19-.051.195-.05.198-.048.201-.046.204-.045.208-.043.211-.041.214-.04.217-.038.22-.036.223-.034.226-.032.228-.031.231-.028.234-.027.236-.024.238-.023.241-.02.243-.019.245-.016.247-.015.249-.012.251-.01.253-.008.255-.005.256-.004.258-.001.258.001zm-9.258 20.499v.01l.001.021.003.021.004.022.005.021.006.022.007.022.009.023.01.022.011.023.012.023.013.023.015.023.016.024.017.023.018.024.019.024.021.024.022.025.023.024.024.025.052.049.056.05.061.051.066.051.07.051.075.051.079.052.084.052.088.052.092.052.097.052.102.051.105.052.11.052.114.051.119.051.123.051.127.05.131.05.135.05.139.048.144.049.147.047.152.047.155.047.16.045.163.045.167.043.171.043.176.041.178.041.183.039.187.039.19.037.194.035.197.035.202.033.204.031.209.03.212.029.216.027.219.025.222.024.226.021.23.02.233.018.236.016.24.015.243.012.246.01.249.008.253.005.256.004.259.001.26-.001.257-.004.254-.005.25-.008.247-.011.244-.012.241-.014.237-.016.233-.018.231-.021.226-.021.224-.024.22-.026.216-.027.212-.028.21-.031.205-.031.202-.034.198-.034.194-.036.191-.037.187-.039.183-.04.179-.04.175-.042.172-.043.168-.044.163-.045.16-.046.155-.046.152-.047.148-.048.143-.049.139-.049.136-.05.131-.05.126-.05.123-.051.118-.052.114-.051.11-.052.106-.052.101-.052.096-.052.092-.052.088-.053.083-.051.079-.052.074-.052.07-.051.065-.051.06-.051.056-.05.051-.05.023-.024.023-.025.021-.024.02-.024.019-.024.018-.024.017-.024.015-.023.014-.024.013-.023.012-.023.01-.023.01-.022.008-.022.006-.022.006-.022.004-.022.004-.021.001-.021.001-.021v-4.127l-.077.055-.08.053-.083.054-.085.053-.087.052-.09.052-.093.051-.095.05-.097.05-.1.049-.102.049-.105.048-.106.047-.109.047-.111.046-.114.045-.115.045-.118.044-.12.043-.122.042-.124.042-.126.041-.128.04-.13.04-.132.038-.134.038-.135.037-.138.037-.139.035-.142.035-.143.034-.144.033-.147.032-.148.031-.15.03-.151.03-.153.029-.154.027-.156.027-.158.026-.159.025-.161.024-.162.023-.163.022-.165.021-.166.02-.167.019-.169.018-.169.017-.171.016-.173.015-.173.014-.175.013-.175.012-.177.011-.178.01-.179.008-.179.008-.181.006-.182.005-.182.004-.184.003-.184.002h-.37l-.184-.002-.184-.003-.182-.004-.182-.005-.181-.006-.179-.008-.179-.008-.178-.01-.176-.011-.176-.012-.175-.013-.173-.014-.172-.015-.171-.016-.17-.017-.169-.018-.167-.019-.166-.02-.165-.021-.163-.022-.162-.023-.161-.024-.159-.025-.157-.026-.156-.027-.155-.027-.153-.029-.151-.03-.15-.03-.148-.031-.146-.032-.145-.033-.143-.034-.141-.035-.14-.035-.137-.037-.136-.037-.134-.038-.132-.038-.13-.04-.128-.04-.126-.041-.124-.042-.122-.042-.12-.044-.117-.043-.116-.045-.113-.045-.112-.046-.109-.047-.106-.047-.105-.048-.102-.049-.1-.049-.097-.05-.095-.05-.093-.052-.09-.051-.087-.052-.085-.053-.083-.054-.08-.054-.077-.054v4.127zm0-5.654v.011l.001.021.003.021.004.021.005.022.006.022.007.022.009.022.01.022.011.023.012.023.013.023.015.024.016.023.017.024.018.024.019.024.021.024.022.024.023.025.024.024.052.05.056.05.061.05.066.051.07.051.075.052.079.051.084.052.088.052.092.052.097.052.102.052.105.052.11.051.114.051.119.052.123.05.127.051.131.05.135.049.139.049.144.048.147.048.152.047.155.046.16.045.163.045.167.044.171.042.176.042.178.04.183.04.187.038.19.037.194.036.197.034.202.033.204.032.209.03.212.028.216.027.219.025.222.024.226.022.23.02.233.018.236.016.24.014.243.012.246.01.249.008.253.006.256.003.259.001.26-.001.257-.003.254-.006.25-.008.247-.01.244-.012.241-.015.237-.016.233-.018.231-.02.226-.022.224-.024.22-.025.216-.027.212-.029.21-.03.205-.032.202-.033.198-.035.194-.036.191-.037.187-.039.183-.039.179-.041.175-.042.172-.043.168-.044.163-.045.16-.045.155-.047.152-.047.148-.048.143-.048.139-.05.136-.049.131-.05.126-.051.123-.051.118-.051.114-.052.11-.052.106-.052.101-.052.096-.052.092-.052.088-.052.083-.052.079-.052.074-.051.07-.052.065-.051.06-.05.056-.051.051-.049.023-.025.023-.024.021-.025.02-.024.019-.024.018-.024.017-.024.015-.023.014-.023.013-.024.012-.022.01-.023.01-.023.008-.022.006-.022.006-.022.004-.021.004-.022.001-.021.001-.021v-4.139l-.077.054-.08.054-.083.054-.085.052-.087.053-.09.051-.093.051-.095.051-.097.05-.1.049-.102.049-.105.048-.106.047-.109.047-.111.046-.114.045-.115.044-.118.044-.12.044-.122.042-.124.042-.126.041-.128.04-.13.039-.132.039-.134.038-.135.037-.138.036-.139.036-.142.035-.143.033-.144.033-.147.033-.148.031-.15.03-.151.03-.153.028-.154.028-.156.027-.158.026-.159.025-.161.024-.162.023-.163.022-.165.021-.166.02-.167.019-.169.018-.169.017-.171.016-.173.015-.173.014-.175.013-.175.012-.177.011-.178.009-.179.009-.179.007-.181.007-.182.005-.182.004-.184.003-.184.002h-.37l-.184-.002-.184-.003-.182-.004-.182-.005-.181-.007-.179-.007-.179-.009-.178-.009-.176-.011-.176-.012-.175-.013-.173-.014-.172-.015-.171-.016-.17-.017-.169-.018-.167-.019-.166-.02-.165-.021-.163-.022-.162-.023-.161-.024-.159-.025-.157-.026-.156-.027-.155-.028-.153-.028-.151-.03-.15-.03-.148-.031-.146-.033-.145-.033-.143-.033-.141-.035-.14-.036-.137-.036-.136-.037-.134-.038-.132-.039-.13-.039-.128-.04-.126-.041-.124-.042-.122-.043-.12-.043-.117-.044-.116-.044-.113-.046-.112-.046-.109-.046-.106-.047-.105-.048-.102-.049-.1-.049-.097-.05-.095-.051-.093-.051-.09-.051-.087-.053-.085-.052-.083-.054-.08-.054-.077-.054v4.139zm0-5.666v.011l.001.02.003.022.004.021.005.022.006.021.007.022.009.023.01.022.011.023.012.023.013.023.015.023.016.024.017.024.018.023.019.024.021.025.022.024.023.024.024.025.052.05.056.05.061.05.066.051.07.051.075.052.079.051.084.052.088.052.092.052.097.052.102.052.105.051.11.052.114.051.119.051.123.051.127.05.131.05.135.05.139.049.144.048.147.048.152.047.155.046.16.045.163.045.167.043.171.043.176.042.178.04.183.04.187.038.19.037.194.036.197.034.202.033.204.032.209.03.212.028.216.027.219.025.222.024.226.021.23.02.233.018.236.017.24.014.243.012.246.01.249.008.253.006.256.003.259.001.26-.001.257-.003.254-.006.25-.008.247-.01.244-.013.241-.014.237-.016.233-.018.231-.02.226-.022.224-.024.22-.025.216-.027.212-.029.21-.03.205-.032.202-.033.198-.035.194-.036.191-.037.187-.039.183-.039.179-.041.175-.042.172-.043.168-.044.163-.045.16-.045.155-.047.152-.047.148-.048.143-.049.139-.049.136-.049.131-.051.126-.05.123-.051.118-.052.114-.051.11-.052.106-.052.101-.052.096-.052.092-.052.088-.052.083-.052.079-.052.074-.052.07-.051.065-.051.06-.051.056-.05.051-.049.023-.025.023-.025.021-.024.02-.024.019-.024.018-.024.017-.024.015-.023.014-.024.013-.023.012-.023.01-.022.01-.023.008-.022.006-.022.006-.022.004-.022.004-.021.001-.021.001-.021v-4.153l-.077.054-.08.054-.083.053-.085.053-.087.053-.09.051-.093.051-.095.051-.097.05-.1.049-.102.048-.105.048-.106.048-.109.046-.111.046-.114.046-.115.044-.118.044-.12.043-.122.043-.124.042-.126.041-.128.04-.13.039-.132.039-.134.038-.135.037-.138.036-.139.036-.142.034-.143.034-.144.033-.147.032-.148.032-.15.03-.151.03-.153.028-.154.028-.156.027-.158.026-.159.024-.161.024-.162.023-.163.023-.165.021-.166.02-.167.019-.169.018-.169.017-.171.016-.173.015-.173.014-.175.013-.175.012-.177.01-.178.01-.179.009-.179.007-.181.006-.182.006-.182.004-.184.003-.184.001-.185.001-.185-.001-.184-.001-.184-.003-.182-.004-.182-.006-.181-.006-.179-.007-.179-.009-.178-.01-.176-.01-.176-.012-.175-.013-.173-.014-.172-.015-.171-.016-.17-.017-.169-.018-.167-.019-.166-.02-.165-.021-.163-.023-.162-.023-.161-.024-.159-.024-.157-.026-.156-.027-.155-.028-.153-.028-.151-.03-.15-.03-.148-.032-.146-.032-.145-.033-.143-.034-.141-.034-.14-.036-.137-.036-.136-.037-.134-.038-.132-.039-.13-.039-.128-.041-.126-.041-.124-.041-.122-.043-.12-.043-.117-.044-.116-.044-.113-.046-.112-.046-.109-.046-.106-.048-.105-.048-.102-.048-.1-.05-.097-.049-.095-.051-.093-.051-.09-.052-.087-.052-.085-.053-.083-.053-.08-.054-.077-.054v4.153zm8.74-8.179l-.257.004-.254.005-.25.008-.247.011-.244.012-.241.014-.237.016-.233.018-.231.021-.226.022-.224.023-.22.026-.216.027-.212.028-.21.031-.205.032-.202.033-.198.034-.194.036-.191.038-.187.038-.183.04-.179.041-.175.042-.172.043-.168.043-.163.045-.16.046-.155.046-.152.048-.148.048-.143.048-.139.049-.136.05-.131.05-.126.051-.123.051-.118.051-.114.052-.11.052-.106.052-.101.052-.096.052-.092.052-.088.052-.083.052-.079.052-.074.051-.07.052-.065.051-.06.05-.056.05-.051.05-.023.025-.023.024-.021.024-.02.025-.019.024-.018.024-.017.023-.015.024-.014.023-.013.023-.012.023-.01.023-.01.022-.008.022-.006.023-.006.021-.004.022-.004.021-.001.021-.001.021.001.021.001.021.004.021.004.022.006.021.006.023.008.022.01.022.01.023.012.023.013.023.014.023.015.024.017.023.018.024.019.024.02.025.021.024.023.024.023.025.051.05.056.05.06.05.065.051.07.052.074.051.079.052.083.052.088.052.092.052.096.052.101.052.106.052.11.052.114.052.118.051.123.051.126.051.131.05.136.05.139.049.143.048.148.048.152.048.155.046.16.046.163.045.168.043.172.043.175.042.179.041.183.04.187.038.191.038.194.036.198.034.202.033.205.032.21.031.212.028.216.027.22.026.224.023.226.022.231.021.233.018.237.016.241.014.244.012.247.011.25.008.254.005.257.004.26.001.26-.001.257-.004.254-.005.25-.008.247-.011.244-.012.241-.014.237-.016.233-.018.231-.021.226-.022.224-.023.22-.026.216-.027.212-.028.21-.031.205-.032.202-.033.198-.034.194-.036.191-.038.187-.038.183-.04.179-.041.175-.042.172-.043.168-.043.163-.045.16-.046.155-.046.152-.048.148-.048.143-.048.139-.049.136-.05.131-.05.126-.051.123-.051.118-.051.114-.052.11-.052.106-.052.101-.052.096-.052.092-.052.088-.052.083-.052.079-.052.074-.051.07-.052.065-.051.06-.05.056-.05.051-.05.023-.025.023-.024.021-.024.02-.025.019-.024.018-.024.017-.023.015-.024.014-.023.013-.023.012-.023.01-.023.01-.022.008-.022.006-.023.006-.021.004-.022.004-.021.001-.021.001-.021-.001-.021-.001-.021-.004-.021-.004-.022-.006-.021-.006-.023-.008-.022-.01-.022-.01-.023-.012-.023-.013-.023-.014-.023-.015-.024-.017-.023-.018-.024-.019-.024-.02-.025-.021-.024-.023-.024-.023-.025-.051-.05-.056-.05-.06-.05-.065-.051-.07-.052-.074-.051-.079-.052-.083-.052-.088-.052-.092-.052-.096-.052-.101-.052-.106-.052-.11-.052-.114-.052-.118-.051-.123-.051-.126-.051-.131-.05-.136-.05-.139-.049-.143-.048-.148-.048-.152-.048-.155-.046-.16-.046-.163-.045-.168-.043-.172-.043-.175-.042-.179-.041-.183-.04-.187-.038-.191-.038-.194-.036-.198-.034-.202-.033-.205-.032-.21-.031-.212-.028-.216-.027-.22-.026-.224-.023-.226-.022-.231-.021-.233-.018-.237-.016-.241-.014-.244-.012-.247-.011-.25-.008-.254-.005-.257-.004-.26-.001-.26.001z" transform="scale(.5)"></path></symbol></defs><defs><symbol height="24" width="24" id="clock"><path d="M12 2c5.514 0 10 4.486 10 10s-4.486 10-10 10-10-4.486-10-10 4.486-10 10-10zm0-2c-6.627 0-12 5.373-12 12s5.373 12 12 12 12-5.373 12-12-5.373-12-12-12zm5.848 12.459c.202.038.202.333.001.372-1.907.361-6.045 1.111-6.547 1.111-.719 0-1.301-.582-1.301-1.301 0-.512.77-5.447 1.125-7.445.034-.192.312-.181.343.014l.985 6.238 5.394 1.011z" transform="scale(.5)"></path></symbol></defs><defs><marker orient="auto" markerHeight="12" markerWidth="12" markerUnits="userSpaceOnUse" refY="5" refX="7.9" id="arrowhead"><path d="M 0 0 L 10 5 L 0 10 z"></path></marker></defs><defs><marker refY="4.5" refX="4" orient="auto" markerHeight="8" markerWidth="15" id="crosshead"><path style="stroke-dasharray: 0, 0;" d="M 1,2 L 6,7 M 6,2 L 1,7" stroke-width="1pt" stroke="#000000" fill="none"></path></marker></defs><defs><marker orient="auto" markerHeight="28" markerWidth="20" refY="7" refX="15.5" id="filled-head"><path d="M 18,7 L9,13 L14,7 L9,1 Z"></path></marker></defs><defs><marker orient="auto" markerHeight="40" markerWidth="60" refY="15" refX="15" id="sequencenumber"><circle r="6" cy="15" cx="15"></circle></marker></defs><g><line class="loopLine" y2="75" x2="1988" y1="75" x1="76.5"></line><line class="loopLine" y2="392" x2="1988" y1="75" x1="1988"></line><line class="loopLine" y2="392" x2="1988" y1="392" x1="76.5"></line><line class="loopLine" y2="392" x2="76.5" y1="75" x1="76.5"></line><polygon class="labelBox" points="76.5,75 126.5,75 126.5,88 118.1,95 76.5,95"></polygon><text style="font-size: 16px; font-weight: 400;" class="labelText" alignment-baseline="middle" dominant-baseline="middle" text-anchor="middle" y="88" x="102">critical</text><text style="font-size: 16px; font-weight: 400;" class="loopText" text-anchor="middle" y="93" x="1057.25"><tspan x="1057.25">[: setup of registration]</tspan></text></g><g><line class="loopLine" y2="557" x2="2549.5" y1="557" x1="1009"></line><line class="loopLine" y2="712" x2="2549.5" y1="557" x1="2549.5"></line><line class="loopLine" y2="712" x2="2549.5" y1="712" x1="1009"></line><line class="loopLine" y2="712" x2="1009" y1="557" x1="1009"></line><polygon class="labelBox" points="1009,557 1059,557 1059,570 1050.6,577 1009,577"></polygon><text style="font-size: 16px; font-weight: 400;" class="labelText" alignment-baseline="middle" dominant-baseline="middle" text-anchor="middle" y="570" x="1034">loop</text><text style="font-size: 16px; font-weight: 400;" class="loopText" text-anchor="middle" y="575" x="1804.25"><tspan x="1804.25">[forEach BPN Discovery instance]</tspan></text></g><g><line class="loopLine" y2="402" x2="2559.5" y1="402" x1="795.5"></line><line class="loopLine" y2="1370" x2="2559.5" y1="402" x1="2559.5"></line><line class="loopLine" y2="1370" x2="2559.5" y1="1370" x1="795.5"></line><line class="loopLine" y2="1370" x2="795.5" y1="402" x1="795.5"></line><polygon class="labelBox" points="795.5,402 845.5,402 845.5,415 837.1,422 795.5,422"></polygon><text style="font-size: 16px; font-weight: 400;" class="labelText" alignment-baseline="middle" dominant-baseline="middle" text-anchor="middle" y="415" x="821">critical</text><text style="font-size: 16px; font-weight: 400;" class="loopText" text-anchor="middle" y="420" x="1702.5"><tspan x="1702.5">[: discovery from data consumer side]</tspan></text></g><text style="font-size: 16px; font-weight: 400;" dy="1em" class="messageText" alignment-baseline="middle" dominant-baseline="middle" text-anchor="middle" y="127" x="659">POST /api/administration/connectors with Link between BPN and EDC endpoint</text><line style="fill: none;" marker-start="url(#sequencenumber)" marker-end="url(#arrowhead)" stroke="none" stroke-width="2" class="messageLine0" y2="166" x2="1229.5" y1="166" x1="88.5"></line><text class="sequenceNumber" text-anchor="middle" font-size="12px" font-family="sans-serif" y="170" x="88.5">1</text><text style="font-size: 16px; font-weight: 400;" dy="1em" class="messageText" alignment-baseline="middle" dominant-baseline="middle" text-anchor="middle" y="181" x="446">POST /api/administration/connectors/discovery with IdType-to-BPN-Discover-URL-Mapping</text><line style="fill: none;" marker-start="url(#sequencenumber)" marker-end="url(#arrowhead)" stroke="none" stroke-width="2" class="messageLine0" y2="220" x2="802.5" y1="220" x1="88.5"></line><text class="sequenceNumber" text-anchor="middle" font-size="12px" font-family="sans-serif" y="224" x="88.5">2</text><text style="font-size: 16px; font-weight: 400;" dy="1em" class="messageText" alignment-baseline="middle" dominant-baseline="middle" text-anchor="middle" y="235" x="552">POST /api/administration/connectors/bpnDiscovery with assetId, idType ("van", "cxId" etcetc)</text><line style="fill: none;" marker-start="url(#sequencenumber)" marker-end="url(#arrowhead)" stroke="none" stroke-width="2" class="messageLine0" y2="274" x2="1016" y1="274" x1="88.5"></line><text class="sequenceNumber" text-anchor="middle" font-size="12px" font-family="sans-serif" y="278" x="88.5">3</text><text style="font-size: 16px; font-weight: 400;" dy="1em" class="messageText" alignment-baseline="middle" dominant-baseline="middle" text-anchor="middle" y="289" x="775">POST /api/management/v2/assets with baseUrl and typization for AAS Registry</text><line style="fill: none;" marker-start="url(#sequencenumber)" marker-end="url(#arrowhead)" stroke="none" stroke-width="2" class="messageLine0" y2="328" x2="1460.5" y1="328" x1="88.5"></line><text class="sequenceNumber" text-anchor="middle" font-size="12px" font-family="sans-serif" y="332" x="88.5">4</text><text style="font-size: 16px; font-weight: 400;" dy="1em" class="messageText" alignment-baseline="middle" dominant-baseline="middle" text-anchor="middle" y="343" x="1031">POST /shell-descriptors for all shell descriptors of a data provider</text><line style="fill: none;" marker-start="url(#sequencenumber)" marker-end="url(#arrowhead)" stroke="none" stroke-width="2" class="messageLine0" y2="382" x2="1973" y1="382" x1="88.5"></line><text class="sequenceNumber" text-anchor="middle" font-size="12px" font-family="sans-serif" y="386" x="88.5">5</text><text style="font-size: 16px; font-weight: 400;" dy="1em" class="messageText" alignment-baseline="middle" dominant-baseline="middle" text-anchor="middle" y="454" x="1674">POST /api/administration/connectors/discovery/search with body containing relevant idTypes</text><line style="fill: none;" marker-start="url(#sequencenumber)" marker-end="url(#arrowhead)" stroke="none" stroke-width="2" class="messageLine0" y2="493" x2="810.5" y1="493" x1="2537.5"></line><text class="sequenceNumber" text-anchor="middle" font-size="12px" font-family="sans-serif" y="497" x="2537.5">6</text><text style="font-size: 16px; font-weight: 400;" dy="1em" class="messageText" alignment-baseline="middle" dominant-baseline="middle" text-anchor="middle" y="508" x="1671">bpn-discovery-endpoints</text><line style="stroke-dasharray: 3, 3; fill: none;" marker-start="url(#sequencenumber)" marker-end="url(#arrowhead)" stroke="none" stroke-width="2" class="messageLine1" y2="547" x2="2534.5" y1="547" x1="807.5"></line><text class="sequenceNumber" text-anchor="middle" font-size="12px" font-family="sans-serif" y="551" x="807.5">7</text><text style="font-size: 16px; font-weight: 400;" dy="1em" class="messageText" alignment-baseline="middle" dominant-baseline="middle" text-anchor="middle" y="609" x="1781">POST /api/administration/connectors/bpnDiscovery/search with body containing assetId</text><line style="fill: none;" marker-start="url(#sequencenumber)" marker-end="url(#arrowhead)" stroke="none" stroke-width="2" class="messageLine0" y2="648" x2="1024" y1="648" x1="2537.5"></line><text class="sequenceNumber" text-anchor="middle" font-size="12px" font-family="sans-serif" y="652" x="2537.5">8</text><text style="font-size: 16px; font-weight: 400;" dy="1em" class="messageText" alignment-baseline="middle" dominant-baseline="middle" text-anchor="middle" y="663" x="1778">provider-bpn</text><line style="stroke-dasharray: 3, 3; fill: none;" marker-start="url(#sequencenumber)" marker-end="url(#arrowhead)" stroke="none" stroke-width="2" class="messageLine1" y2="702" x2="2534.5" y1="702" x1="1021"></line><text class="sequenceNumber" text-anchor="middle" font-size="12px" font-family="sans-serif" y="706" x="1021">9</text><text style="font-size: 16px; font-weight: 400;" dy="1em" class="messageText" alignment-baseline="middle" dominant-baseline="middle" text-anchor="middle" y="727" x="1888">POST /api/administration/connectors/discovery with provider-bpn</text><line style="fill: none;" marker-start="url(#sequencenumber)" marker-end="url(#arrowhead)" stroke="none" stroke-width="2" class="messageLine0" y2="766" x2="1237.5" y1="766" x1="2537.5"></line><text class="sequenceNumber" text-anchor="middle" font-size="12px" font-family="sans-serif" y="770" x="2537.5">10</text><text style="font-size: 16px; font-weight: 400;" dy="1em" class="messageText" alignment-baseline="middle" dominant-baseline="middle" text-anchor="middle" y="781" x="1885">EDC-endpoint</text><line style="stroke-dasharray: 3, 3; fill: none;" marker-start="url(#sequencenumber)" marker-end="url(#arrowhead)" stroke="none" stroke-width="2" class="messageLine1" y2="820" x2="2534.5" y1="820" x1="1234.5"></line><text class="sequenceNumber" text-anchor="middle" font-size="12px" font-family="sans-serif" y="824" x="1234.5">11</text><text style="font-size: 16px; font-weight: 400;" dy="1em" class="messageText" alignment-baseline="middle" dominant-baseline="middle" text-anchor="middle" y="835" x="2137">POST /catalog/request with filter looking for DTR</text><line style="fill: none;" marker-start="url(#sequencenumber)" marker-end="url(#arrowhead)" stroke="none" stroke-width="2" class="messageLine0" y2="874" x2="1737" y1="874" x1="2537.5"></line><text class="sequenceNumber" text-anchor="middle" font-size="12px" font-family="sans-serif" y="878" x="2537.5">12</text><text style="font-size: 16px; font-weight: 400;" dy="1em" class="messageText" alignment-baseline="middle" dominant-baseline="middle" text-anchor="middle" y="889" x="1600">forward</text><line style="stroke-dasharray: 3, 3; fill: none;" marker-start="url(#sequencenumber)" marker-end="url(#arrowhead)" stroke="none" stroke-width="2" class="messageLine1" y2="928" x2="1468.5" y1="928" x1="1732"></line><text class="sequenceNumber" text-anchor="middle" font-size="12px" font-family="sans-serif" y="932" x="1732">13</text><text style="font-size: 16px; font-weight: 400;" dy="1em" class="messageText" alignment-baseline="middle" dominant-baseline="middle" text-anchor="middle" y="943" x="1597">return</text><line style="stroke-dasharray: 3, 3; fill: none;" marker-start="url(#sequencenumber)" marker-end="url(#arrowhead)" stroke="none" stroke-width="2" class="messageLine1" y2="982" x2="1729" y1="982" x1="1465.5"></line><text class="sequenceNumber" text-anchor="middle" font-size="12px" font-family="sans-serif" y="986" x="1465.5">14</text><text style="font-size: 16px; font-weight: 400;" dy="1em" class="messageText" alignment-baseline="middle" dominant-baseline="middle" text-anchor="middle" y="997" x="2134">dcat: Dataset for DTR</text><line style="stroke-dasharray: 3, 3; fill: none;" marker-start="url(#sequencenumber)" marker-end="url(#arrowhead)" stroke="none" stroke-width="2" class="messageLine1" y2="1036" x2="2534.5" y1="1036" x1="1734"></line><text class="sequenceNumber" text-anchor="middle" font-size="12px" font-family="sans-serif" y="1040" x="1734">15</text><text style="font-size: 16px; font-weight: 400;" dy="1em" class="messageText" alignment-baseline="middle" dominant-baseline="middle" text-anchor="middle" y="1051" x="2003">negotiate for DTR and retrieve token</text><line style="fill: none;" marker-start="url(#sequencenumber)" marker-end="url(#arrowhead)" stroke="none" stroke-width="2" class="messageLine0" y2="1090" x2="1468.5" y1="1090" x1="2537.5"></line><text class="sequenceNumber" text-anchor="middle" font-size="12px" font-family="sans-serif" y="1094" x="2537.5">16</text><text style="font-size: 16px; font-weight: 400;" dy="1em" class="messageText" alignment-baseline="middle" dominant-baseline="middle" text-anchor="middle" y="1105" x="2000">access token</text><line style="stroke-dasharray: 3, 3; fill: none;" marker-start="url(#sequencenumber)" marker-end="url(#arrowhead)" stroke="none" stroke-width="2" class="messageLine1" y2="1144" x2="2534.5" y1="1144" x1="1465.5"></line><text class="sequenceNumber" text-anchor="middle" font-size="12px" font-family="sans-serif" y="1148" x="1465.5">17</text><text style="font-size: 16px; font-weight: 400;" dy="1em" class="messageText" alignment-baseline="middle" dominant-baseline="middle" text-anchor="middle" y="1159" x="2259">GET /lookup/shells?assetIds=xyz</text><line style="fill: none;" marker-start="url(#sequencenumber)" marker-end="url(#arrowhead)" stroke="none" stroke-width="2" class="messageLine0" y2="1198" x2="1981" y1="1198" x1="2537.5"></line><text class="sequenceNumber" text-anchor="middle" font-size="12px" font-family="sans-serif" y="1202" x="2537.5">18</text><text style="font-size: 16px; font-weight: 400;" dy="1em" class="messageText" alignment-baseline="middle" dominant-baseline="middle" text-anchor="middle" y="1213" x="2256">aas-id</text><line style="stroke-dasharray: 3, 3; fill: none;" marker-start="url(#sequencenumber)" marker-end="url(#arrowhead)" stroke="none" stroke-width="2" class="messageLine1" y2="1252" x2="2534.5" y1="1252" x1="1978"></line><text class="sequenceNumber" text-anchor="middle" font-size="12px" font-family="sans-serif" y="1256" x="1978">19</text><text style="font-size: 16px; font-weight: 400;" dy="1em" class="messageText" alignment-baseline="middle" dominant-baseline="middle" text-anchor="middle" y="1267" x="2259">GET /shell-descriptors/{{aas-id}} with aas-id encoded base64url</text><line style="fill: none;" marker-start="url(#sequencenumber)" marker-end="url(#arrowhead)" stroke="none" stroke-width="2" class="messageLine0" y2="1306" x2="1981" y1="1306" x1="2537.5"></line><text class="sequenceNumber" text-anchor="middle" font-size="12px" font-family="sans-serif" y="1310" x="2537.5">20</text><text style="font-size: 16px; font-weight: 400;" dy="1em" class="messageText" alignment-baseline="middle" dominant-baseline="middle" text-anchor="middle" y="1321" x="2256">shell-descriptor including the submodel's Dataset-ID (subprotocolBody)</text><line style="stroke-dasharray: 3, 3; fill: none;" marker-start="url(#sequencenumber)" marker-end="url(#arrowhead)" stroke="none" stroke-width="2" class="messageLine1" y2="1360" x2="2534.5" y1="1360" x1="1978"></line><text class="sequenceNumber" text-anchor="middle" font-size="12px" font-family="sans-serif" y="1364" x="1978">21</text><text style="font-size: 16px; font-weight: 400;" dy="1em" class="messageText" alignment-baseline="middle" dominant-baseline="middle" text-anchor="middle" y="1385" x="2137">POST /catalog/request with filter looking for Dataset-ID</text><line style="fill: none;" marker-start="url(#sequencenumber)" marker-end="url(#arrowhead)" stroke="none" stroke-width="2" class="messageLine0" y2="1424" x2="1737" y1="1424" x1="2537.5"></line><text class="sequenceNumber" text-anchor="middle" font-size="12px" font-family="sans-serif" y="1428" x="2537.5">22</text><text style="font-size: 16px; font-weight: 400;" dy="1em" class="messageText" alignment-baseline="middle" dominant-baseline="middle" text-anchor="middle" y="1439" x="1600">forward</text><line style="stroke-dasharray: 3, 3; fill: none;" marker-start="url(#sequencenumber)" marker-end="url(#arrowhead)" stroke="none" stroke-width="2" class="messageLine1" y2="1478" x2="1468.5" y1="1478" x1="1732"></line><text class="sequenceNumber" text-anchor="middle" font-size="12px" font-family="sans-serif" y="1482" x="1732">23</text><text style="font-size: 16px; font-weight: 400;" dy="1em" class="messageText" alignment-baseline="middle" dominant-baseline="middle" text-anchor="middle" y="1493" x="1597">return</text><line style="stroke-dasharray: 3, 3; fill: none;" marker-start="url(#sequencenumber)" marker-end="url(#arrowhead)" stroke="none" stroke-width="2" class="messageLine1" y2="1532" x2="1729" y1="1532" x1="1465.5"></line><text class="sequenceNumber" text-anchor="middle" font-size="12px" font-family="sans-serif" y="1536" x="1465.5">24</text><text style="font-size: 16px; font-weight: 400;" dy="1em" class="messageText" alignment-baseline="middle" dominant-baseline="middle" text-anchor="middle" y="1547" x="2134">Dataset for submodel(-bundle)</text><line style="stroke-dasharray: 3, 3; fill: none;" marker-start="url(#sequencenumber)" marker-end="url(#arrowhead)" stroke="none" stroke-width="2" class="messageLine1" y2="1586" x2="2534.5" y1="1586" x1="1734"></line><text class="sequenceNumber" text-anchor="middle" font-size="12px" font-family="sans-serif" y="1590" x="1734">25</text><text style="font-size: 16px; font-weight: 400;" dy="1em" class="messageText" alignment-baseline="middle" dominant-baseline="middle" text-anchor="middle" y="1601" x="2003">negotiate for Dataset and retrieve token</text><line style="fill: none;" marker-start="url(#sequencenumber)" marker-end="url(#arrowhead)" stroke="none" stroke-width="2" class="messageLine0" y2="1640" x2="1468.5" y1="1640" x1="2537.5"></line><text class="sequenceNumber" text-anchor="middle" font-size="12px" font-family="sans-serif" y="1644" x="2537.5">26</text><text style="font-size: 16px; font-weight: 400;" dy="1em" class="messageText" alignment-baseline="middle" dominant-baseline="middle" text-anchor="middle" y="1655" x="2000">access token</text><line style="stroke-dasharray: 3, 3; fill: none;" marker-start="url(#sequencenumber)" marker-end="url(#arrowhead)" stroke="none" stroke-width="2" class="messageLine1" y2="1694" x2="2534.5" y1="1694" x1="1465.5"></line><text class="sequenceNumber" text-anchor="middle" font-size="12px" font-family="sans-serif" y="1698" x="1465.5">27</text><text style="font-size: 16px; font-weight: 400;" dy="1em" class="messageText" alignment-baseline="middle" dominant-baseline="middle" text-anchor="middle" y="1709" x="2363">GET {{submodel-descriptor/href}}/$value</text><line style="fill: none;" marker-start="url(#sequencenumber)" marker-end="url(#arrowhead)" stroke="none" stroke-width="2" class="messageLine0" y2="1748" x2="2187.5" y1="1748" x1="2537.5"></line><text class="sequenceNumber" text-anchor="middle" font-size="12px" font-family="sans-serif" y="1752" x="2537.5">28</text><text style="font-size: 16px; font-weight: 400;" dy="1em" class="messageText" alignment-baseline="middle" dominant-baseline="middle" text-anchor="middle" y="1763" x="2360">data</text><line style="stroke-dasharray: 3, 3; fill: none;" marker-start="url(#sequencenumber)" marker-end="url(#arrowhead)" stroke="none" stroke-width="2" class="messageLine1" y2="1802" x2="2534.5" y1="1802" x1="2184.5"></line><text class="sequenceNumber" text-anchor="middle" font-size="12px" font-family="sans-serif" y="1806" x="2184.5">29</text></svg>