<?xml version="1.0" encoding="UTF-8"?>
<svg id="Logo" xmlns="http://www.w3.org/2000/svg" viewBox="0 0 302 320">
  <defs>
    <style>
      .cls-1 {
        fill: #b3cb2d;
      }

      .cls-1, .cls-2 {
        stroke-width: 0px;
      }

      .cls-2 {
        fill: #ffa600;
      }
    </style>
  </defs>
  <g id="cx_bildmarke">
    <path class="cls-2" d="m231,165.34v-34.53c.09-3.14-2.38-5.76-5.53-5.85-1.2-.04-2.39.31-3.38.99l-137.35,94.81c-10.77,7.43-25.53,4.74-32.98-6-2.74-3.95-4.2-8.63-4.21-13.43v-45.71c.06-15.54,7.75-30.06,20.59-38.86l40.84-28.17c6.4-4.39,10.2-11.67,10.12-19.43V5.88c.11-3.14-2.35-5.77-5.49-5.88-1.24-.04-2.45.32-3.47,1.02l-28.62,19.91c-6.38,4.42-10.16,11.68-10.12,19.43v16.61l-35.04,24.29C13.7,96.88.12,122.56,0,150.04v51.19c-.06,39.3,31.81,71.2,71.19,71.26,14.56.02,28.78-4.41,40.75-12.69l108.93-75.04c6.38-4.42,10.16-11.68,10.12-19.43"/>
    <path class="cls-1" d="m190.07,60.27l-108.91,75.15c-6.39,4.4-10.2,11.68-10.16,19.44v34.56c-.06,3.17,2.46,5.78,5.63,5.84,1.18.02,2.34-.32,3.32-.98l137.21-94.94c10.76-7.44,25.5-4.75,32.94,6.01,2.73,3.95,4.2,8.64,4.2,13.44v45.5c-.04,15.53-7.68,30.06-20.47,38.89l-36.47,25.18-4.18,2.87c-6.38,4.41-10.17,11.69-10.11,19.44v63.44c-.11,3.14,2.34,5.77,5.48,5.89,1.23.04,2.45-.32,3.46-1.02l28.64-19.74c6.38-4.41,10.16-11.69,10.11-19.44v-16.43l34.91-24.31c22.74-15.69,36.32-41.55,36.32-69.17v-51.04c.07-39.33-31.76-71.27-71.1-71.34-14.6-.03-28.85,4.43-40.82,12.77"/>
  </g>
</svg>