<svg xmlns="http://www.w3.org/2000/svg" viewBox="0 0 438.16 233.99"><defs><style> .cls-1 { mix-blend-mode: hard-light; } .cls-2 { isolation: isolate; } .cls-3 { fill: #88959b; } .cls-3, .cls-4, .cls-5, .cls-6, .cls-7 { stroke-width: 0px; } .cls-4 { fill: #36a9e1; } .cls-5 { fill: #1d71b8; } .cls-6 { fill: #c1d100; } .cls-7 { fill: #fff; } </style></defs><g class="cls-2"><g id="Ebene_2" data-name="Ebene 2"><g id="Calque_1" data-name="Calque 1"><path class="cls-5" d="m169.98,92.18c0-35.34,19.9-66.02,49.1-81.49-12.86-6.81-27.52-10.69-43.09-10.69h-83.81C41.27,0,0,41.27,0,92.18s41.27,92.18,92.18,92.18h83.81c15.57,0,30.23-3.88,43.09-10.69-29.2-15.47-49.1-46.15-49.1-81.49Z"/><path class="cls-6" d="m345.97,0h-83.81c-15.57,0-30.23,3.88-43.09,10.69,29.2,15.47,49.1,46.15,49.1,81.49s-19.9,66.02-49.1,81.49c12.86,6.81,27.52,10.69,43.09,10.69h83.81c50.91,0,92.18-41.27,92.18-92.18S396.89,0,345.97,0Z"/><g><path class="cls-3" d="m138.68,233.68v-18.26h12.52v3.09h-8.83v4.32h7.62v3.09h-7.62v7.76h-3.69Z"/><path class="cls-3" d="m172.26,233.68h-4.01l-1.59-4.15h-7.3l-1.51,4.15h-3.91l7.11-18.26h3.9l7.31,18.26Zm-6.79-7.22l-2.52-6.78-2.47,6.78h4.98Z"/><path class="cls-3" d="m188.86,226.97l3.57,1.13c-.55,1.99-1.46,3.47-2.73,4.44-1.27.97-2.89,1.45-4.85,1.45-2.42,0-4.42-.83-5.98-2.49-1.56-1.66-2.34-3.92-2.34-6.79,0-3.04.78-5.4,2.35-7.08,1.57-1.68,3.63-2.52,6.19-2.52,2.23,0,4.05.66,5.44,1.98.83.78,1.45,1.9,1.87,3.36l-3.65.87c-.22-.95-.67-1.69-1.35-2.24-.69-.55-1.52-.82-2.5-.82-1.35,0-2.45.49-3.29,1.46s-1.26,2.54-1.26,4.72c0,2.31.42,3.95,1.25,4.93.83.98,1.91,1.47,3.24,1.47.98,0,1.82-.31,2.53-.93.71-.62,1.21-1.6,1.52-2.94Z"/><path class="cls-3" d="m202.66,233.68v-15.17h-5.42v-3.09h14.51v3.09h-5.41v15.17h-3.69Z"/><path class="cls-3" d="m215.89,224.66c0-1.86.28-3.42.83-4.68.42-.93.98-1.76,1.7-2.5s1.51-1.29,2.36-1.64c1.14-.48,2.45-.72,3.94-.72,2.69,0,4.84.83,6.46,2.5,1.61,1.67,2.42,3.99,2.42,6.96s-.8,5.25-2.4,6.92c-1.6,1.66-3.75,2.5-6.43,2.5s-4.87-.83-6.48-2.49c-1.6-1.66-2.4-3.94-2.4-6.84Zm3.8-.12c0,2.07.48,3.63,1.43,4.7s2.17,1.6,3.64,1.6,2.68-.53,3.62-1.59,1.41-2.65,1.41-4.76-.46-3.65-1.38-4.68c-.92-1.03-2.14-1.54-3.66-1.54s-2.74.52-3.67,1.56c-.93,1.04-1.4,2.61-1.4,4.71Z"/><path class="cls-3" d="m239.45,233.68v-18.26h7.76c1.95,0,3.37.16,4.25.49.88.33,1.59.91,2.12,1.75.53.84.8,1.8.8,2.88,0,1.37-.4,2.5-1.21,3.39-.81.89-2.01,1.46-3.61,1.69.8.46,1.46.98,1.97,1.53.52.56,1.22,1.54,2.1,2.96l2.23,3.56h-4.41l-2.67-3.97c-.95-1.42-1.59-2.31-1.94-2.68-.35-.37-.72-.62-1.11-.76-.39-.14-1.01-.21-1.86-.21h-.75v7.62h-3.69Zm3.69-10.54h2.73c1.77,0,2.87-.08,3.31-.22s.78-.41,1.03-.77c.25-.37.37-.82.37-1.37,0-.61-.16-1.11-.49-1.49s-.79-.62-1.39-.72c-.3-.04-1.2-.06-2.69-.06h-2.88v4.63Z"/><path class="cls-3" d="m264.66,233.68v-7.69l-6.69-10.57h4.32l4.3,7.22,4.21-7.22h4.25l-6.71,10.6v7.66h-3.67Z"/><path class="cls-3" d="m278.01,228.81v-3.5h6.88v3.5h-6.88Z"/><path class="cls-3" d="m288.03,233.68l6.24-9.53-5.65-8.73h4.31l3.66,5.87,3.59-5.87h4.27l-5.68,8.87,6.24,9.39h-4.45l-4.05-6.32-4.06,6.32h-4.42Z"/></g><path class="cls-7" d="m345.97,0h-.21l-61.89,61.84-20.85-20.74c-3.31-3.29-7.78-5.13-12.44-5.13H118.42c-9.74,0-17.64,7.9-17.64,17.64v130.75h35.29v-45.94h43.32c9.74,0,17.64-7.9,17.64-17.64s-7.9-17.64-17.64-17.64h-43.32v-31.89h107.24l15.61,15.52-22.48,22.46c-6.89,6.89-6.9,18.06,0,24.95,3.45,3.45,7.96,5.17,12.48,5.17s9.03-1.72,12.47-5.16l22.56-22.54,22.69,22.57c6.91,6.87,18.08,6.84,24.95-.07,6.87-6.91,6.84-18.08-.07-24.95l-22.61-22.49L386.37,9.31C374.17,3.35,360.47,0,345.97,0Z"/><g class="cls-1"><path class="cls-4" d="m268.18,92.18c0-35.34-19.9-66.02-49.1-81.49-29.2,15.47-49.1,46.15-49.1,81.49s19.9,66.02,49.1,81.49c29.2-15.47,49.1-46.15,49.1-81.49Z"/><path class="cls-7" d="m219.08,15.2c27.9,15.63,45.14,44.94,45.14,76.99s-17.24,61.35-45.14,76.99c-27.9-15.63-45.14-44.94-45.14-76.99s17.24-61.35,45.14-76.99m0-4.51c-29.2,15.47-49.1,46.15-49.1,81.49s19.9,66.02,49.1,81.49c29.2-15.47,49.1-46.15,49.1-81.49s-19.9-66.02-49.1-81.49h0Z"/></g></g></g></g></svg>