<?xml version="1.0" encoding="UTF-8"?>
<!DOCTYPE svg PUBLIC "-//W3C//DTD SVG 1.1//EN" "http://www.w3.org/Graphics/SVG/1.1/DTD/svg11.dtd">
<svg xmlns="http://www.w3.org/2000/svg" style="background: #ffffff; background-color: light-dark(#ffffff, var(--ge-dark-color, #121212)); color-scheme: light dark;" xmlns:xlink="http://www.w3.org/1999/xlink" version="1.1" width="264px" height="245px" viewBox="-0.5 -0.5 264 245"><defs><linearGradient x1="100%" y1="0%" x2="0%" y2="0%" id="drawio-svg-_KAtn4QyRF0r___IN2LP-gradient-light-dark_e5ccff_442e5a_-1-light-dark_783ca1_cb97ee_-1-e-0"><stop offset="0%" stop-color="#783CA1" stop-opacity="1" style="stop-color: light-dark(rgb(120, 60, 161), rgb(203, 151, 238)); stop-opacity: 1;"/><stop offset="100%" stop-color="#E5CCFF" stop-opacity="1" style="stop-color: light-dark(rgb(229, 204, 255), rgb(68, 46, 90)); stop-opacity: 1;"/></linearGradient></defs><rect fill="#ffffff" width="100%" height="100%" x="0" y="0" style="fill: light-dark(#ffffff, var(--ge-dark-color, #121212));"/><g><g data-cell-id="0"><g data-cell-id="1"><g data-cell-id="gRNJM2XmGfCxwDQizrVN-11"><g/><g data-cell-id="gRNJM2XmGfCxwDQizrVN-12"><g><path d="M 66 130.75 L 109.84 105.48 Q 131.5 93 153.16 105.48 L 240.84 156.02 Q 262.5 168.5 240.84 180.98 L 153.16 231.52 Q 131.5 244 109.84 231.52 L 22.16 180.98 Q 0.5 168.5 22.16 156.02 Z" fill="none" stroke="#783ca1" stroke-opacity="0.4" stroke-miterlimit="10" pointer-events="all" style="stroke: light-dark(rgb(120, 60, 161), rgb(203, 151, 238));"/></g></g><g data-cell-id="gRNJM2XmGfCxwDQizrVN-13"><g><path d="M 66 119.75 L 109.84 94.48 Q 131.5 82 153.16 94.48 L 240.84 145.02 Q 262.5 157.5 240.84 169.98 L 153.16 220.52 Q 131.5 233 109.84 220.52 L 22.16 169.98 Q 0.5 157.5 22.16 145.02 Z" fill-opacity="0.4" fill="url(#drawio-svg-_KAtn4QyRF0r___IN2LP-gradient-light-dark_e5ccff_442e5a_-1-light-dark_783ca1_cb97ee_-1-e-0)" stroke="none" pointer-events="all" style="fill: url(&quot;#drawio-svg-_KAtn4QyRF0r___IN2LP-gradient-light-dark_e5ccff_442e5a_-1-light-dark_783ca1_cb97ee_-1-e-0&quot;);"/></g></g><g data-cell-id="gRNJM2XmGfCxwDQizrVN-14"><g><path d="M 66 102.75 L 109.84 77.48 Q 131.5 65 153.16 77.48 L 240.84 128.02 Q 262.5 140.5 240.84 152.98 L 153.16 203.52 Q 131.5 216 109.84 203.52 L 22.16 152.98 Q 0.5 140.5 22.16 128.02 Z" fill="none" stroke="#783ca1" stroke-opacity="0.6" stroke-miterlimit="10" pointer-events="all" style="stroke: light-dark(rgb(120, 60, 161), rgb(203, 151, 238));"/></g></g><g data-cell-id="gRNJM2XmGfCxwDQizrVN-15"><g><path d="M 66 90.75 L 109.84 65.48 Q 131.5 53 153.16 65.48 L 240.84 116.02 Q 262.5 128.5 240.84 140.98 L 153.16 191.52 Q 131.5 204 109.84 191.52 L 22.16 140.98 Q 0.5 128.5 22.16 116.02 Z" fill-opacity="0.48" fill="url(#drawio-svg-_KAtn4QyRF0r___IN2LP-gradient-light-dark_e5ccff_442e5a_-1-light-dark_783ca1_cb97ee_-1-e-0)" stroke="none" pointer-events="all" style="fill: url(&quot;#drawio-svg-_KAtn4QyRF0r___IN2LP-gradient-light-dark_e5ccff_442e5a_-1-light-dark_783ca1_cb97ee_-1-e-0&quot;);"/></g></g><g data-cell-id="gRNJM2XmGfCxwDQizrVN-16"><g><path d="M 65.5 76.75 L 109.34 51.48 Q 131 39 152.66 51.48 L 240.34 102.02 Q 262 114.5 240.34 126.98 L 152.66 177.52 Q 131 190 109.34 177.52 L 21.66 126.98 Q 0 114.5 21.66 102.02 Z" fill="none" stroke="#783ca1" stroke-opacity="0.8" stroke-miterlimit="10" pointer-events="all" style="stroke: light-dark(rgb(120, 60, 161), rgb(203, 151, 238));"/></g></g><g data-cell-id="gRNJM2XmGfCxwDQizrVN-17"><g><path d="M 65.5 64.75 L 109.34 39.48 Q 131 27 152.66 39.48 L 240.34 90.02 Q 262 102.5 240.34 114.98 L 152.66 165.52 Q 131 178 109.34 165.52 L 21.66 114.98 Q 0 102.5 21.66 90.02 Z" fill-opacity="0.6400000000000001" fill="url(#drawio-svg-_KAtn4QyRF0r___IN2LP-gradient-light-dark_e5ccff_442e5a_-1-light-dark_783ca1_cb97ee_-1-e-0)" stroke="none" pointer-events="all" style="fill: url(&quot;#drawio-svg-_KAtn4QyRF0r___IN2LP-gradient-light-dark_e5ccff_442e5a_-1-light-dark_783ca1_cb97ee_-1-e-0&quot;);"/></g></g><g data-cell-id="gRNJM2XmGfCxwDQizrVN-18"><g><path d="M 66 48.75 L 109.84 23.48 Q 131.5 11 153.16 23.48 L 240.84 74.02 Q 262.5 86.5 240.84 98.98 L 153.16 149.52 Q 131.5 162 109.84 149.52 L 22.16 98.98 Q 0.5 86.5 22.16 74.02 Z" fill="none" stroke="#783ca1" stroke-miterlimit="10" pointer-events="all" style="stroke: light-dark(rgb(120, 60, 161), rgb(203, 151, 238));"/></g></g><g data-cell-id="gRNJM2XmGfCxwDQizrVN-19"><g><path d="M 66 37.75 L 109.84 12.48 Q 131.5 0 153.16 12.48 L 240.84 63.02 Q 262.5 75.5 240.84 87.98 L 153.16 138.52 Q 131.5 151 109.84 138.52 L 22.16 87.98 Q 0.5 75.5 22.16 63.02 Z" fill="url(#drawio-svg-_KAtn4QyRF0r___IN2LP-gradient-light-dark_e5ccff_442e5a_-1-light-dark_783ca1_cb97ee_-1-e-0)" stroke="none" pointer-events="all" style="fill: url(&quot;#drawio-svg-_KAtn4QyRF0r___IN2LP-gradient-light-dark_e5ccff_442e5a_-1-light-dark_783ca1_cb97ee_-1-e-0&quot;);"/></g></g><g data-cell-id="gRNJM2XmGfCxwDQizrVN-20"><g><g><svg width="106" height="68" viewBox="0 0 106 68" fill="none" xmlns="http://www.w3.org/2000/svg" x="71.5" y="48" style="font-family: initial;">&#xa;<path d="M77.3371 25.8293L61.0675 16.4368C58.8243 15.1418 58.8243 13.0356 61.0675 11.7406L77.3371 2.34812C79.5803 1.05312 83.2288 1.05312 85.472 2.34812L101.742 11.7406C103.985 13.0356 103.985 15.1418 101.742 16.4368L85.472 25.8293C83.2288 27.1243 79.5803 27.1243 77.3371 25.8293ZM82.7603 3.91353C82.0128 3.482 80.7962 3.482 80.0487 3.91353L63.7791 13.306C63.0316 13.7375 63.0316 14.4399 63.7791 14.8714L80.0487 24.2639C80.7962 24.6954 82.0128 24.6954 82.7603 24.2639L99.03 14.8714C99.7775 14.4399 99.7775 13.7375 99.03 13.306L82.7603 3.91353Z" fill="white"/>&#xa;<path d="M64.3371 51.8293L48.0675 42.4368C45.8243 41.1418 45.8243 39.0356 48.0675 37.7406L64.3371 28.3481C66.5803 27.0531 70.2288 27.0531 72.472 28.3481L88.7416 37.7406C90.9848 39.0356 90.9848 41.1418 88.7416 42.4368L72.472 51.8293C70.2288 53.1243 66.5803 53.1243 64.3371 51.8293ZM69.7603 29.9135C69.0128 29.482 67.7962 29.482 67.0487 29.9135L50.7791 39.306C50.0316 39.7375 50.0316 40.4399 50.7791 40.8714L67.0487 50.2639C67.7962 50.6954 69.0128 50.6954 69.7603 50.2639L86.03 40.8714C86.7775 40.4399 86.7775 39.7375 86.03 39.306L69.7603 29.9135Z" fill="white"/>&#xa;<path d="M34.3371 34.8293L18.0675 25.4368C15.8243 24.1418 15.8243 22.0356 18.0675 20.7406L34.3371 11.3481C36.5803 10.0531 40.2288 10.0531 42.472 11.3481L58.7416 20.7406C60.9848 22.0356 60.9848 24.1418 58.7416 25.4368L42.472 34.8293C40.2288 36.1243 36.5803 36.1243 34.3371 34.8293ZM39.7603 12.9135C39.0128 12.482 37.7962 12.482 37.0487 12.9135L20.7791 22.306C20.0316 22.7375 20.0316 23.4399 20.7791 23.8714L37.0487 33.2639C37.7962 33.6954 39.0128 33.6954 39.7603 33.2639L56.03 23.8714C56.7775 23.4399 56.7775 22.7375 56.03 22.306L39.7603 12.9135Z" fill="white"/>&#xa;<path fill-rule="evenodd" clip-rule="evenodd" d="M3.1945 26.979L64.6307 62.4461L62.2031 63.8475L0.766931 28.3804L3.1945 26.979Z" fill="white"/>&#xa;<path fill-rule="evenodd" clip-rule="evenodd" d="M65.9906 63.2126C66.1655 64.035 64.9556 64.7335 63.531 64.6325L54.2704 63.976C53.3295 63.9093 52.6604 63.4148 52.7759 62.8716C52.8915 62.3284 53.748 61.9421 54.6889 62.0088L62.3918 62.5549L61.4458 58.108C61.3303 57.5648 61.9994 57.0704 62.9403 57.0037C63.8813 56.937 64.7378 57.3233 64.8533 57.8665L65.9906 63.2126L64.2868 63.3334L65.9906 63.2126Z" fill="white"/>&#xa;</svg></g></g></g></g></g></g></g></svg>