<?xml version="1.0" encoding="us-ascii" standalone="no"?><svg xmlns="http://www.w3.org/2000/svg" xmlns:xlink="http://www.w3.org/1999/xlink" contentStyleType="text/css" height="1568px" preserveAspectRatio="none" style="width:1329px;height:1568px;background:#FFFFFF;" version="1.1" viewBox="0 0 1329 1568" width="1329px" zoomAndPan="magnify"><defs/><g><rect fill="#DDDDDD" height="1556.5704" style="stroke:#181818;stroke-width:0.5;" width="712" x="1" y="6"/><text fill="#000000" font-family="sans-serif" font-size="13" font-weight="bold" lengthAdjust="spacing" textLength="52" x="331" y="18.0669">Sender</text><rect fill="#DDDDDD" height="1556.5704" style="stroke:#181818;stroke-width:0.5;" width="457" x="866" y="6"/><text fill="#000000" font-family="sans-serif" font-size="13" font-weight="bold" lengthAdjust="spacing" textLength="64" x="1062.5" y="18.0669">Receiver</text><rect fill="#FFFFFF" height="28" style="stroke:#181818;stroke-width:1.0;" width="10" x="94" y="323.6235"/><rect fill="#FFFFFF" height="28" style="stroke:#181818;stroke-width:1.0;" width="10" x="94" y="395.7563"/><rect fill="#FFFFFF" height="28" style="stroke:#181818;stroke-width:1.0;" width="10" x="94" y="483.0219"/><rect fill="#FFFFFF" height="28" style="stroke:#181818;stroke-width:1.0;" width="10" x="94" y="661.686"/><rect fill="#FFFFFF" height="14" style="stroke:#181818;stroke-width:1.0;" width="10" x="94" y="1505.2735"/><rect fill="#FFFFFF" height="727.1891" style="stroke:#181818;stroke-width:1.0;" width="10" x="428" y="725.8188"/><rect fill="#FFFFFF" height="28" style="stroke:#181818;stroke-width:1.0;" width="10" x="433" y="854.35"/><rect fill="#FFFFFF" height="29.1328" style="stroke:#181818;stroke-width:1.0;" width="10" x="682" y="788.0844"/><rect fill="#FFFFFF" height="29.1328" style="stroke:#181818;stroke-width:1.0;" width="10" x="682" y="997.0141"/><rect fill="#FFFFFF" height="29.1328" style="stroke:#181818;stroke-width:1.0;" width="10" x="682" y="1055.2797"/><rect fill="#FFFFFF" height="309.8625" style="stroke:#181818;stroke-width:1.0;" width="10" x="682" y="1113.5453"/><rect fill="#FFFFFF" height="62.2656" style="stroke:#181818;stroke-width:1.0;" width="10" x="784.5" y="547.1547"/><rect fill="#FFFFFF" height="29.1328" style="stroke:#181818;stroke-width:1.0;" width="10" x="887" y="257.3578"/><rect fill="#FFFFFF" height="217.9969" style="stroke:#181818;stroke-width:1.0;" width="10" x="887" y="1175.811"/><rect fill="#FFFFFF" height="126.1313" style="stroke:#181818;stroke-width:1.0;" width="10" x="1220" y="1238.0766"/><line style="stroke:#181818;stroke-width:0.5;stroke-dasharray:5.0,5.0;" x1="99" x2="99" y1="56.4297" y2="1528.2735"/><line style="stroke:#181818;stroke-width:0.5;stroke-dasharray:5.0,5.0;" x1="433" x2="433" y1="56.4297" y2="1528.2735"/><line style="stroke:#181818;stroke-width:0.5;stroke-dasharray:5.0,5.0;" x1="687" x2="687" y1="56.4297" y2="1528.2735"/><line style="stroke:#181818;stroke-width:0.5;stroke-dasharray:5.0,5.0;" x1="789" x2="789" y1="56.4297" y2="1528.2735"/><line style="stroke:#181818;stroke-width:0.5;stroke-dasharray:5.0,5.0;" x1="892" x2="892" y1="56.4297" y2="1528.2735"/><line style="stroke:#181818;stroke-width:0.5;stroke-dasharray:5.0,5.0;" x1="1225" x2="1225" y1="56.4297" y2="1528.2735"/><rect fill="#E2E2F0" height="30.2969" rx="2.5" ry="2.5" style="stroke:#181818;stroke-width:0.5;" width="188" x="5" y="25.1328"/><text fill="#000000" font-family="sans-serif" font-size="14" lengthAdjust="spacing" textLength="174" x="12" y="45.1279">Some (Traceability) App</text><rect fill="#E2E2F0" height="30.2969" rx="2.5" ry="2.5" style="stroke:#181818;stroke-width:0.5;" width="188" x="5" y="1527.2735"/><text fill="#000000" font-family="sans-serif" font-size="14" lengthAdjust="spacing" textLength="174" x="12" y="1547.2686">Some (Traceability) App</text><rect fill="#E2E2F0" height="30.2969" rx="2.5" ry="2.5" style="stroke:#181818;stroke-width:0.5;" width="196" x="335" y="25.1328"/><text fill="#000000" font-family="sans-serif" font-size="14" lengthAdjust="spacing" textLength="182" x="342" y="45.1279">Notification EDC Adapter</text><rect fill="#E2E2F0" height="30.2969" rx="2.5" ry="2.5" style="stroke:#181818;stroke-width:0.5;" width="196" x="335" y="1527.2735"/><text fill="#000000" font-family="sans-serif" font-size="14" lengthAdjust="spacing" textLength="182" x="342" y="1547.2686">Notification EDC Adapter</text><rect fill="#E2E2F0" height="30.2969" rx="2.5" ry="2.5" style="stroke:#181818;stroke-width:0.5;" width="44" x="665" y="25.1328"/><text fill="#000000" font-family="sans-serif" font-size="14" lengthAdjust="spacing" textLength="30" x="672" y="45.1279">EDC</text><rect fill="#E2E2F0" height="30.2969" rx="2.5" ry="2.5" style="stroke:#181818;stroke-width:0.5;" width="44" x="665" y="1527.2735"/><text fill="#000000" font-family="sans-serif" font-size="14" lengthAdjust="spacing" textLength="30" x="672" y="1547.2686">EDC</text><rect fill="#E2E2F0" height="30.2969" rx="2.5" ry="2.5" style="stroke:#181818;stroke-width:0.5;" width="141" x="719" y="25.1328"/><text fill="#000000" font-family="sans-serif" font-size="14" lengthAdjust="spacing" textLength="127" x="726" y="45.1279">Discovery Service</text><rect fill="#E2E2F0" height="30.2969" rx="2.5" ry="2.5" style="stroke:#181818;stroke-width:0.5;" width="141" x="719" y="1527.2735"/><text fill="#000000" font-family="sans-serif" font-size="14" lengthAdjust="spacing" textLength="127" x="726" y="1547.2686">Discovery Service</text><rect fill="#E2E2F0" height="30.2969" rx="2.5" ry="2.5" style="stroke:#181818;stroke-width:0.5;" width="44" x="870" y="25.1328"/><text fill="#000000" font-family="sans-serif" font-size="14" lengthAdjust="spacing" textLength="30" x="877" y="45.1279">EDC</text><rect fill="#E2E2F0" height="30.2969" rx="2.5" ry="2.5" style="stroke:#181818;stroke-width:0.5;" width="44" x="870" y="1527.2735"/><text fill="#000000" font-family="sans-serif" font-size="14" lengthAdjust="spacing" textLength="30" x="877" y="1547.2686">EDC</text><rect fill="#E2E2F0" height="30.2969" rx="2.5" ry="2.5" style="stroke:#181818;stroke-width:0.5;" width="188" x="1131" y="25.1328"/><text fill="#000000" font-family="sans-serif" font-size="14" lengthAdjust="spacing" textLength="174" x="1138" y="45.1279">Some (Traceability) App</text><rect fill="#E2E2F0" height="30.2969" rx="2.5" ry="2.5" style="stroke:#181818;stroke-width:0.5;" width="188" x="1131" y="1527.2735"/><text fill="#000000" font-family="sans-serif" font-size="14" lengthAdjust="spacing" textLength="174" x="1138" y="1547.2686">Some (Traceability) App</text><rect fill="#FFFFFF" height="28" style="stroke:#181818;stroke-width:1.0;" width="10" x="94" y="323.6235"/><rect fill="#FFFFFF" height="28" style="stroke:#181818;stroke-width:1.0;" width="10" x="94" y="395.7563"/><rect fill="#FFFFFF" height="28" style="stroke:#181818;stroke-width:1.0;" width="10" x="94" y="483.0219"/><rect fill="#FFFFFF" height="28" style="stroke:#181818;stroke-width:1.0;" width="10" x="94" y="661.686"/><rect fill="#FFFFFF" height="14" style="stroke:#181818;stroke-width:1.0;" width="10" x="94" y="1505.2735"/><rect fill="#FFFFFF" height="727.1891" style="stroke:#181818;stroke-width:1.0;" width="10" x="428" y="725.8188"/><rect fill="#FFFFFF" height="28" style="stroke:#181818;stroke-width:1.0;" width="10" x="433" y="854.35"/><rect fill="#FFFFFF" height="29.1328" style="stroke:#181818;stroke-width:1.0;" width="10" x="682" y="788.0844"/><rect fill="#FFFFFF" height="29.1328" style="stroke:#181818;stroke-width:1.0;" width="10" x="682" y="997.0141"/><rect fill="#FFFFFF" height="29.1328" style="stroke:#181818;stroke-width:1.0;" width="10" x="682" y="1055.2797"/><rect fill="#FFFFFF" height="309.8625" style="stroke:#181818;stroke-width:1.0;" width="10" x="682" y="1113.5453"/><rect fill="#FFFFFF" height="62.2656" style="stroke:#181818;stroke-width:1.0;" width="10" x="784.5" y="547.1547"/><rect fill="#FFFFFF" height="29.1328" style="stroke:#181818;stroke-width:1.0;" width="10" x="887" y="257.3578"/><rect fill="#FFFFFF" height="217.9969" style="stroke:#181818;stroke-width:1.0;" width="10" x="887" y="1175.811"/><rect fill="#FFFFFF" height="126.1313" style="stroke:#181818;stroke-width:1.0;" width="10" x="1220" y="1238.0766"/><rect fill="#FEFFDD" height="129" style="stroke:#181818;stroke-width:0.5;" width="227" x="438" y="71.4297"/><text fill="#000000" font-family="sans-serif" font-size="13" lengthAdjust="spacing" textLength="213" x="442" y="87.4966">Not mandatory as the interaction</text><text fill="#000000" font-family="sans-serif" font-size="13" lengthAdjust="spacing" textLength="219" x="442" y="102.6294">with the EDC can be implemented</text><text fill="#000000" font-family="sans-serif" font-size="13" lengthAdjust="spacing" textLength="187" x="442" y="117.7622">also in the (Traceability) App.</text><text fill="#000000" font-family="sans-serif" font-size="13" lengthAdjust="spacing" textLength="4" x="442" y="132.895">&#160;</text><text fill="#000000" font-family="sans-serif" font-size="13" lengthAdjust="spacing" textLength="202" x="442" y="148.0278">However, a similar functionality</text><text fill="#000000" font-family="sans-serif" font-size="13" lengthAdjust="spacing" textLength="126" x="442" y="163.1606">(e.g., fetch catalog)</text><text fill="#000000" font-family="sans-serif" font-size="13" lengthAdjust="spacing" textLength="178" x="442" y="178.2935">- as shown below - must be</text><text fill="#000000" font-family="sans-serif" font-size="13" lengthAdjust="spacing" textLength="60" x="442" y="193.4263">provided.</text><polygon fill="#181818" points="908,253.3578,898,257.3578,908,261.3578,904,257.3578" style="stroke:#181818;stroke-width:1.0;"/><line style="stroke:#181818;stroke-width:1.0;" x1="902" x2="1224" y1="257.3578" y2="257.3578"/><text fill="#000000" font-family="sans-serif" font-size="13" font-weight="bold" lengthAdjust="spacing" textLength="31" x="914" y="236.9255">[01]</text><text fill="#000000" font-family="sans-serif" font-size="13" lengthAdjust="spacing" textLength="136" x="949" y="221.5591">Create EDC Asset for</text><text fill="#000000" font-family="sans-serif" font-size="13" lengthAdjust="spacing" textLength="141" x="949" y="236.6919">"Quality Alert Receipt"</text><text fill="#000000" font-family="sans-serif" font-size="13" lengthAdjust="spacing" textLength="27" x="949" y="252.2919">with</text><text fill="#000000" font-family="monospace" font-size="13" lengthAdjust="spacing" textLength="88" x="980" y="251.7958">DataAddress</text><text fill="#000000" font-family="sans-serif" font-size="13" lengthAdjust="spacing" textLength="15" x="1072" y="252.2919">as</text><text fill="#000000" font-family="monospace" font-size="13" lengthAdjust="spacing" textLength="72" x="1091" y="251.7958">HTTP&#160;POST</text><text fill="#000000" font-family="sans-serif" font-size="13" lengthAdjust="spacing" textLength="56" x="1167" y="252.2919">endpoint</text><polygon fill="#181818" points="1213,282.4906,1223,286.4906,1213,290.4906,1217,286.4906" style="stroke:#181818;stroke-width:1.0;"/><line style="stroke:#181818;stroke-width:1.0;stroke-dasharray:2.0,2.0;" x1="892" x2="1219" y1="286.4906" y2="286.4906"/><text fill="#000000" font-family="sans-serif" font-size="13" font-weight="bold" lengthAdjust="spacing" textLength="31" x="899" y="281.4247">[02]</text><text fill="#000000" font-family="sans-serif" font-size="13" lengthAdjust="spacing" textLength="18" x="934" y="281.4247">OK</text><line style="stroke:#181818;stroke-width:1.0;" x1="104" x2="146" y1="315.6235" y2="315.6235"/><line style="stroke:#181818;stroke-width:1.0;" x1="146" x2="146" y1="315.6235" y2="328.6235"/><line style="stroke:#181818;stroke-width:1.0;" x1="105" x2="146" y1="328.6235" y2="328.6235"/><polygon fill="#181818" points="115,324.6235,105,328.6235,115,332.6235,111,328.6235" style="stroke:#181818;stroke-width:1.0;"/><text fill="#000000" font-family="sans-serif" font-size="13" font-weight="bold" lengthAdjust="spacing" textLength="30" x="111" y="310.5575">[03]</text><text fill="#000000" font-family="sans-serif" font-size="13" lengthAdjust="spacing" textLength="234" x="145" y="310.5575">Identify Defective Part(s) / Batch(es)</text><line style="stroke:#181818;stroke-width:1.0;" x1="104" x2="146" y1="387.7563" y2="387.7563"/><line style="stroke:#181818;stroke-width:1.0;" x1="146" x2="146" y1="387.7563" y2="400.7563"/><line style="stroke:#181818;stroke-width:1.0;" x1="105" x2="146" y1="400.7563" y2="400.7563"/><polygon fill="#181818" points="115,396.7563,105,400.7563,115,404.7563,111,400.7563" style="stroke:#181818;stroke-width:1.0;"/><text fill="#000000" font-family="sans-serif" font-size="13" font-weight="bold" lengthAdjust="spacing" textLength="31" x="111" y="382.6903">[04]</text><text fill="#000000" font-family="sans-serif" font-size="13" lengthAdjust="spacing" textLength="285" x="146" y="382.6903">Identify BPN for Defective Part(s) / Batch(es)</text><line style="stroke:#181818;stroke-width:1.0;" x1="104" x2="146" y1="475.0219" y2="475.0219"/><line style="stroke:#181818;stroke-width:1.0;" x1="146" x2="146" y1="475.0219" y2="488.0219"/><line style="stroke:#181818;stroke-width:1.0;" x1="105" x2="146" y1="488.0219" y2="488.0219"/><polygon fill="#181818" points="115,484.0219,105,488.0219,115,492.0219,111,488.0219" style="stroke:#181818;stroke-width:1.0;"/><text fill="#000000" font-family="sans-serif" font-size="13" font-weight="bold" lengthAdjust="spacing" textLength="31" x="111" y="462.3896">[05]</text><text fill="#000000" font-family="sans-serif" font-size="13" lengthAdjust="spacing" textLength="119" x="146" y="454.8232">Create Notification</text><text fill="#000000" font-family="sans-serif" font-size="13" lengthAdjust="spacing" textLength="125" x="146" y="469.956">Status := CREATED</text><polygon fill="#181818" points="772.5,543.1547,782.5,547.1547,772.5,551.1547,776.5,547.1547" style="stroke:#181818;stroke-width:1.0;"/><line style="stroke:#181818;stroke-width:1.0;" x1="99" x2="778.5" y1="547.1547" y2="547.1547"/><text fill="#000000" font-family="sans-serif" font-size="13" font-weight="bold" lengthAdjust="spacing" textLength="31" x="106" y="542.0888">[06]</text><text fill="#000000" font-family="sans-serif" font-size="13" lengthAdjust="spacing" textLength="142" x="141" y="542.0888">Resolve EDC Endpoint</text><rect fill="#FEFFDD" height="23" style="stroke:#181818;stroke-width:0.5;" width="234" x="104" y="560.1547"/><text fill="#000000" font-family="sans-serif" font-size="13" lengthAdjust="spacing" textLength="226" x="108" y="576.2216">BPN of defective part(s) / batch(es)</text><polygon fill="#181818" points="110,605.4203,100,609.4203,110,613.4203,106,609.4203" style="stroke:#181818;stroke-width:1.0;"/><line style="stroke:#181818;stroke-width:1.0;stroke-dasharray:2.0,2.0;" x1="104" x2="788.5" y1="609.4203" y2="609.4203"/><text fill="#000000" font-family="sans-serif" font-size="13" font-weight="bold" lengthAdjust="spacing" textLength="31" x="116" y="604.3544">[07]</text><text fill="#000000" font-family="sans-serif" font-size="13" lengthAdjust="spacing" textLength="18" x="151" y="604.3544">OK</text><line style="stroke:#181818;stroke-width:1.0;" x1="104" x2="146" y1="653.686" y2="653.686"/><line style="stroke:#181818;stroke-width:1.0;" x1="146" x2="146" y1="653.686" y2="666.686"/><line style="stroke:#181818;stroke-width:1.0;" x1="105" x2="146" y1="666.686" y2="666.686"/><polygon fill="#181818" points="115,662.686,105,666.686,115,670.686,111,666.686" style="stroke:#181818;stroke-width:1.0;"/><text fill="#000000" font-family="sans-serif" font-size="13" font-weight="bold" lengthAdjust="spacing" textLength="31" x="111" y="641.0536">[08]</text><text fill="#000000" font-family="sans-serif" font-size="13" lengthAdjust="spacing" textLength="167" x="146" y="633.4872">Update Notification Status</text><text fill="#000000" font-family="sans-serif" font-size="13" lengthAdjust="spacing" textLength="97" x="146" y="648.62">Status := SENT</text><polygon fill="#181818" points="416,721.8188,426,725.8188,416,729.8188,420,725.8188" style="stroke:#181818;stroke-width:1.0;"/><line style="stroke:#181818;stroke-width:1.0;" x1="99" x2="422" y1="725.8188" y2="725.8188"/><text fill="#000000" font-family="sans-serif" font-size="13" font-weight="bold" lengthAdjust="spacing" textLength="31" x="106" y="720.7528">[09]</text><text fill="#000000" font-family="sans-serif" font-size="13" lengthAdjust="spacing" textLength="108" x="141" y="720.7528">Send Notification</text><text fill="#000000" font-family="sans-serif" font-size="13" font-weight="bold" lengthAdjust="spacing" textLength="57" x="253" y="720.7528">Receipt</text><rect fill="#FEFFDD" height="23" style="stroke:#181818;stroke-width:0.5;" width="192" x="104" y="738.8188"/><text fill="#000000" font-family="sans-serif" font-size="13" lengthAdjust="spacing" textLength="184" x="108" y="754.8857">Payload as described above.</text><polygon fill="#181818" points="670,784.0844,680,788.0844,670,792.0844,674,788.0844" style="stroke:#181818;stroke-width:1.0;"/><line style="stroke:#181818;stroke-width:1.0;" x1="438" x2="676" y1="788.0844" y2="788.0844"/><text fill="#000000" font-family="sans-serif" font-size="13" font-weight="bold" lengthAdjust="spacing" textLength="31" x="445" y="783.0185">[10]</text><text fill="#000000" font-family="sans-serif" font-size="13" lengthAdjust="spacing" textLength="88" x="480" y="783.0185">Fetch Catalog</text><polygon fill="#181818" points="698,813.2172,688,817.2172,698,821.2172,694,817.2172" style="stroke:#181818;stroke-width:1.0;"/><polygon fill="#181818" points="880,813.2172,890,817.2172,880,821.2172,884,817.2172" style="stroke:#181818;stroke-width:1.0;"/><line style="stroke:#181818;stroke-width:1.0;stroke-dasharray:2.0,2.0;" x1="692" x2="886" y1="817.2172" y2="817.2172"/><text fill="#000000" font-family="sans-serif" font-size="13" font-weight="bold" lengthAdjust="spacing" textLength="30" x="704" y="812.1513">[11]</text><text fill="#000000" font-family="sans-serif" font-size="13" lengthAdjust="spacing" textLength="88" x="738" y="812.1513">Fetch Catalog</text><line style="stroke:#181818;stroke-width:1.0;" x1="443" x2="485" y1="846.35" y2="846.35"/><line style="stroke:#181818;stroke-width:1.0;" x1="485" x2="485" y1="846.35" y2="859.35"/><line style="stroke:#181818;stroke-width:1.0;" x1="444" x2="485" y1="859.35" y2="859.35"/><polygon fill="#181818" points="454,855.35,444,859.35,454,863.35,450,859.35" style="stroke:#181818;stroke-width:1.0;"/><text fill="#000000" font-family="sans-serif" font-size="13" font-weight="bold" lengthAdjust="spacing" textLength="30" x="450" y="841.2841">[12]</text><text fill="#000000" font-family="sans-serif" font-size="13" lengthAdjust="spacing" textLength="156" x="484" y="841.2841">Find and Select Contract</text><rect fill="#FEFFDD" height="68" style="stroke:#181818;stroke-width:0.5;" width="287" x="443" y="902.35"/><text fill="#000000" font-family="sans-serif" font-size="13" lengthAdjust="spacing" textLength="228" x="447" y="918.4169">Find the correct contract offer with:</text><text fill="#000000" font-family="sans-serif" font-size="13" lengthAdjust="spacing" textLength="4" x="447" y="933.5497">&#160;</text><text fill="#000000" font-family="sans-serif" font-size="13" lengthAdjust="spacing" textLength="279" x="447" y="948.6825">"asset:prop:notificationtype": "qualityalert",</text><text fill="#000000" font-family="sans-serif" font-size="13" lengthAdjust="spacing" textLength="271" x="447" y="963.8153">"asset:prop:notificationmethod": "receive"</text><polygon fill="#181818" points="670,993.0141,680,997.0141,670,1001.0141,674,997.0141" style="stroke:#181818;stroke-width:1.0;"/><line style="stroke:#181818;stroke-width:1.0;" x1="438" x2="676" y1="997.0141" y2="997.0141"/><text fill="#000000" font-family="sans-serif" font-size="13" font-weight="bold" lengthAdjust="spacing" textLength="29" x="445" y="991.9482">[13]</text><text fill="#000000" font-family="sans-serif" font-size="13" lengthAdjust="spacing" textLength="192" x="478" y="991.9482">Intiatiate Contract Negotiation</text><polygon fill="#181818" points="698,1022.1469,688,1026.1469,698,1030.1469,694,1026.1469" style="stroke:#181818;stroke-width:1.0;"/><polygon fill="#181818" points="880,1022.1469,890,1026.1469,880,1030.1469,884,1026.1469" style="stroke:#181818;stroke-width:1.0;"/><line style="stroke:#181818;stroke-width:1.0;stroke-dasharray:2.0,2.0;" x1="692" x2="886" y1="1026.1469" y2="1026.1469"/><text fill="#000000" font-family="sans-serif" font-size="13" font-weight="bold" lengthAdjust="spacing" textLength="30" x="704" y="1021.081">[14]</text><text fill="#000000" font-family="sans-serif" font-size="13" lengthAdjust="spacing" textLength="132" x="738" y="1021.081">Contract Negotiation</text><polygon fill="#181818" points="670,1051.2797,680,1055.2797,670,1059.2797,674,1055.2797" style="stroke:#181818;stroke-width:1.0;"/><line style="stroke:#181818;stroke-width:1.0;" x1="438" x2="676" y1="1055.2797" y2="1055.2797"/><text fill="#000000" font-family="sans-serif" font-size="13" font-weight="bold" lengthAdjust="spacing" textLength="30" x="445" y="1050.2138">[15]</text><text fill="#000000" font-family="sans-serif" font-size="13" lengthAdjust="spacing" textLength="141" x="479" y="1050.2138">Inititate Data Transfer</text><polygon fill="#181818" points="698,1080.4125,688,1084.4125,698,1088.4125,694,1084.4125" style="stroke:#181818;stroke-width:1.0;"/><polygon fill="#181818" points="880,1080.4125,890,1084.4125,880,1088.4125,884,1084.4125" style="stroke:#181818;stroke-width:1.0;"/><line style="stroke:#181818;stroke-width:1.0;stroke-dasharray:2.0,2.0;" x1="692" x2="886" y1="1084.4125" y2="1084.4125"/><text fill="#000000" font-family="sans-serif" font-size="13" font-weight="bold" lengthAdjust="spacing" textLength="30" x="704" y="1079.3466">[16]</text><text fill="#000000" font-family="sans-serif" font-size="13" lengthAdjust="spacing" textLength="113" x="738" y="1079.3466">Establish Channel</text><polygon fill="#181818" points="670,1109.5453,680,1113.5453,670,1117.5453,674,1113.5453" style="stroke:#181818;stroke-width:1.0;"/><line style="stroke:#181818;stroke-width:1.0;" x1="438" x2="676" y1="1113.5453" y2="1113.5453"/><text fill="#000000" font-family="sans-serif" font-size="13" font-weight="bold" lengthAdjust="spacing" textLength="30" x="445" y="1108.4794">[17]</text><text fill="#000000" font-family="sans-serif" font-size="13" lengthAdjust="spacing" textLength="95" x="479" y="1108.4794">POST /public/...</text><rect fill="#FEFFDD" height="23" style="stroke:#181818;stroke-width:0.5;" width="192" x="443" y="1126.5453"/><text fill="#000000" font-family="sans-serif" font-size="13" lengthAdjust="spacing" textLength="184" x="447" y="1142.6122">Payload as described above.</text><polygon fill="#181818" points="875,1171.811,885,1175.811,875,1179.811,879,1175.811" style="stroke:#181818;stroke-width:1.0;"/><line style="stroke:#181818;stroke-width:1.0;" x1="692" x2="881" y1="1175.811" y2="1175.811"/><text fill="#000000" font-family="sans-serif" font-size="13" font-weight="bold" lengthAdjust="spacing" textLength="30" x="699" y="1170.745">[18]</text><text fill="#000000" font-family="sans-serif" font-size="13" lengthAdjust="spacing" textLength="95" x="733" y="1170.745">POST /public/...</text><rect fill="#FEFFDD" height="23" style="stroke:#181818;stroke-width:0.5;" width="192" x="697" y="1188.811"/><text fill="#000000" font-family="sans-serif" font-size="13" lengthAdjust="spacing" textLength="184" x="701" y="1204.8778">Payload as described above.</text><polygon fill="#181818" points="1208,1234.0766,1218,1238.0766,1208,1242.0766,1212,1238.0766" style="stroke:#181818;stroke-width:1.0;"/><line style="stroke:#181818;stroke-width:1.0;" x1="897" x2="1214" y1="1238.0766" y2="1238.0766"/><text fill="#000000" font-family="sans-serif" font-size="13" font-weight="bold" lengthAdjust="spacing" textLength="30" x="904" y="1233.0107">[19]</text><text fill="#000000" font-family="sans-serif" font-size="13" lengthAdjust="spacing" textLength="254" x="938" y="1233.0107">POST /notifications/qualityalerts/receive</text><rect fill="#FEFFDD" height="23" style="stroke:#181818;stroke-width:0.5;" width="192" x="902" y="1251.0766"/><text fill="#000000" font-family="sans-serif" font-size="13" lengthAdjust="spacing" textLength="184" x="906" y="1267.1435">Payload as described above.</text><rect fill="#FEFFDD" height="53" style="stroke:#181818;stroke-width:0.5;" width="309" x="902" y="1284.2094"/><text fill="#000000" font-family="sans-serif" font-size="13" lengthAdjust="spacing" textLength="278" x="906" y="1300.2763">The http path depends on the DataAddress</text><text fill="#000000" font-family="sans-serif" font-size="13" lengthAdjust="spacing" textLength="301" x="906" y="1315.4091">in the EDC Data Asset. Thus, it depends on the</text><text fill="#000000" font-family="sans-serif" font-size="13" lengthAdjust="spacing" textLength="78" x="906" y="1330.5419">(Trace) app.</text><polygon fill="#181818" points="908,1360.2078,898,1364.2078,908,1368.2078,904,1364.2078" style="stroke:#181818;stroke-width:1.0;"/><line style="stroke:#181818;stroke-width:1.0;stroke-dasharray:2.0,2.0;" x1="902" x2="1224" y1="1364.2078" y2="1364.2078"/><text fill="#000000" font-family="sans-serif" font-size="13" font-weight="bold" lengthAdjust="spacing" textLength="31" x="914" y="1358.9083">[20]</text><text fill="#000000" font-family="monospace" font-size="13" lengthAdjust="spacing" textLength="24" x="949" y="1358.6458">201</text><text fill="#000000" font-family="sans-serif" font-size="13" lengthAdjust="spacing" textLength="18" x="977" y="1359.1419">OK</text><polygon fill="#181818" points="703,1389.8079,693,1393.8079,703,1397.8079,699,1393.8079" style="stroke:#181818;stroke-width:1.0;"/><line style="stroke:#181818;stroke-width:1.0;stroke-dasharray:2.0,2.0;" x1="697" x2="891" y1="1393.8079" y2="1393.8079"/><text fill="#000000" font-family="sans-serif" font-size="13" font-weight="bold" lengthAdjust="spacing" textLength="30" x="709" y="1388.5083">[21]</text><text fill="#000000" font-family="monospace" font-size="13" lengthAdjust="spacing" textLength="24" x="743" y="1388.2459">201</text><text fill="#000000" font-family="sans-serif" font-size="13" lengthAdjust="spacing" textLength="18" x="771" y="1388.7419">OK</text><polygon fill="#181818" points="449,1419.4079,439,1423.4079,449,1427.4079,445,1423.4079" style="stroke:#181818;stroke-width:1.0;"/><line style="stroke:#181818;stroke-width:1.0;stroke-dasharray:2.0,2.0;" x1="443" x2="686" y1="1423.4079" y2="1423.4079"/><text fill="#000000" font-family="sans-serif" font-size="13" font-weight="bold" lengthAdjust="spacing" textLength="30" x="455" y="1418.1083">[22]</text><text fill="#000000" font-family="monospace" font-size="13" lengthAdjust="spacing" textLength="24" x="489" y="1417.8459">201</text><text fill="#000000" font-family="sans-serif" font-size="13" lengthAdjust="spacing" textLength="18" x="517" y="1418.3419">OK</text><polygon fill="#181818" points="110,1449.0079,100,1453.0079,110,1457.0079,106,1453.0079" style="stroke:#181818;stroke-width:1.0;"/><line style="stroke:#181818;stroke-width:1.0;stroke-dasharray:2.0,2.0;" x1="104" x2="432" y1="1453.0079" y2="1453.0079"/><text fill="#000000" font-family="sans-serif" font-size="13" font-weight="bold" lengthAdjust="spacing" textLength="29" x="116" y="1447.7084">[23]</text><text fill="#000000" font-family="monospace" font-size="13" lengthAdjust="spacing" textLength="24" x="149" y="1447.4459">201</text><text fill="#000000" font-family="sans-serif" font-size="13" lengthAdjust="spacing" textLength="18" x="177" y="1447.942">OK</text><line style="stroke:#181818;stroke-width:1.0;" x1="99" x2="146" y1="1492.2735" y2="1492.2735"/><line style="stroke:#181818;stroke-width:1.0;" x1="146" x2="146" y1="1492.2735" y2="1505.2735"/><line style="stroke:#181818;stroke-width:1.0;" x1="105" x2="146" y1="1505.2735" y2="1505.2735"/><polygon fill="#181818" points="115,1501.2735,105,1505.2735,115,1509.2735,111,1505.2735" style="stroke:#181818;stroke-width:1.0;"/><text fill="#000000" font-family="sans-serif" font-size="13" font-weight="bold" lengthAdjust="spacing" textLength="30" x="111" y="1479.6412">[24]</text><text fill="#000000" font-family="sans-serif" font-size="13" lengthAdjust="spacing" textLength="167" x="145" y="1472.0748">Update Notification Status</text><text fill="#000000" font-family="sans-serif" font-size="13" lengthAdjust="spacing" textLength="128" x="145" y="1487.2076">Status := RECEIVED</text><!--SRC=[hLPDR-Cs4BtpLmnuYeF4JjBs8cmNS6mjDYZWTIstbyqUQ6aS4P19bQIS-j_la58aEd6wBbh05r9lFj_CeqNZj6fs6pJ0Fzn__7fpyuqpGPSYTt8l789MZ6tqty0pL0KQpcfXdCnbBPIZIxr3k5WRaQFOo4gwmmYcTSr1M0YtTBW5RSWIRevD5zh9hSo5arf1Ef_1j12remZUTj4TEjDRPfIcP8nyAbt_aP4Bs0bL2AVDmPkv4a4g-kJJfyoVfIl3fVUV2mKR-hwhAzmXeGecAgl9843ULZ5cxBD-nZsQAn1WvKvMmi2sKS6vy3XsWUEdyHLiqUKbHN2YqayZTksJiQL-zX4h_GpNi6kiemEhZTxB0einetv2AEkuBvHgQ47cSsxBlmjOOk4OEPSsrvJT0J8qUvbZQpVlh7vgULjXZdB_XhcNCAiXpC__djkxplINFaCsVBh-6BmdC3FeHocGR2qws6e3Zuh_teGcmhH2uo0aMZl-g09jdC-fdTEYC6Wj3r4v_xnUBs7v9LlJ1KMiDR7D3Bh6AFZo6nj6ZcBtXmGU2k9RRWymnotwoKPOKgaNTWGJk1V4tGNQ4Ikm7_lU-CS-xvUBKD3_wBjhMBmYZofpmZKMabzXjagdwtH-Xizidb1VhQxsRVlJlcVHFWsslXIzXQAlfEuhsVIL37FxuyR_KHUl2u6sZhYUB5sipoZcPUyJy5fqxFJoiXkVoyjtQbkAGwL5uUUeG9iRkK4wR6Y1ubNiXSStBmplfx3QitQrMTZA3zTV2-r8GBxr8twCYhqCMN-I58RaYjAlgBymqyfvfJejRW7jXIdNndXuti69eIsvzakICCQ5twY4PALELDGHTwYH9y3_QdTC-1NZL-_2T-XANNW3q-e5ZveIKJDexvj6FT0w2F_3lZ9Ou9CEjoJ6xxNk9FYKU-cayzwzBdXYbQK-lEisjKviAcc9bL8eXTK9drv9O58tXCidu_7uD1FdJKx8eu_-Zvuzz4olgyvhhwelhcFox2HcsKuw2ezYhiwF-SPiJLDOEbUJ790m5rWJrj8_Wp2UaKgpxYdrEGUIWjgFOLqszWgaUsNAsiTb1CA_jKFyw0KPM6tRoldTpIrfFqbEsvc8zkmr8dkD65OnGWrJ4I4Z2OkW_qtbLkaiVVWpdNy7]--></g></svg>