<?xml version="1.0" encoding="us-ascii" standalone="no"?><svg xmlns="http://www.w3.org/2000/svg" xmlns:xlink="http://www.w3.org/1999/xlink" contentStyleType="text/css" height="1279px" preserveAspectRatio="none" style="width:1315px;height:1279px;background:#FFFFFF;" version="1.1" viewBox="0 0 1315 1279" width="1315px" zoomAndPan="magnify"><defs/><g><rect fill="#DDDDDD" height="1267.7735" style="stroke:#181818;stroke-width:0.5;" width="663" x="1" y="6"/><text fill="#000000" font-family="sans-serif" font-size="13" font-weight="bold" lengthAdjust="spacing" textLength="52" x="306.5" y="18.0669">Sender</text><rect fill="#DDDDDD" height="1267.7735" style="stroke:#181818;stroke-width:0.5;" width="492" x="817" y="6"/><text fill="#000000" font-family="sans-serif" font-size="13" font-weight="bold" lengthAdjust="spacing" textLength="64" x="1031" y="18.0669">Receiver</text><rect fill="#FFFFFF" height="28" style="stroke:#181818;stroke-width:1.0;" width="10" x="94" y="338.7563"/><rect fill="#FFFFFF" height="727.1891" style="stroke:#181818;stroke-width:1.0;" width="10" x="377" y="494.2875"/><rect fill="#FFFFFF" height="28" style="stroke:#181818;stroke-width:1.0;" width="10" x="382" y="622.8188"/><rect fill="#FFFFFF" height="29.1328" style="stroke:#181818;stroke-width:1.0;" width="10" x="633" y="556.5531"/><rect fill="#FFFFFF" height="29.1328" style="stroke:#181818;stroke-width:1.0;" width="10" x="633" y="765.4828"/><rect fill="#FFFFFF" height="29.1328" style="stroke:#181818;stroke-width:1.0;" width="10" x="633" y="823.7485"/><rect fill="#FFFFFF" height="309.8625" style="stroke:#181818;stroke-width:1.0;" width="10" x="633" y="882.0141"/><rect fill="#FFFFFF" height="62.2656" style="stroke:#181818;stroke-width:1.0;" width="10" x="735.5" y="402.8891"/><rect fill="#FFFFFF" height="29.1328" style="stroke:#181818;stroke-width:1.0;" width="10" x="838" y="257.3578"/><rect fill="#FFFFFF" height="217.9969" style="stroke:#181818;stroke-width:1.0;" width="10" x="838" y="944.2797"/><rect fill="#FFFFFF" height="126.1313" style="stroke:#181818;stroke-width:1.0;" width="10" x="1206" y="1006.5453"/><line style="stroke:#181818;stroke-width:0.5;stroke-dasharray:5.0,5.0;" x1="99" x2="99" y1="56.4297" y2="1239.4766"/><line style="stroke:#181818;stroke-width:0.5;stroke-dasharray:5.0,5.0;" x1="382" x2="382" y1="56.4297" y2="1239.4766"/><line style="stroke:#181818;stroke-width:0.5;stroke-dasharray:5.0,5.0;" x1="638" x2="638" y1="56.4297" y2="1239.4766"/><line style="stroke:#181818;stroke-width:0.5;stroke-dasharray:5.0,5.0;" x1="740" x2="740" y1="56.4297" y2="1239.4766"/><line style="stroke:#181818;stroke-width:0.5;stroke-dasharray:5.0,5.0;" x1="843" x2="843" y1="56.4297" y2="1239.4766"/><line style="stroke:#181818;stroke-width:0.5;stroke-dasharray:5.0,5.0;" x1="1211" x2="1211" y1="56.4297" y2="1239.4766"/><rect fill="#E2E2F0" height="30.2969" rx="2.5" ry="2.5" style="stroke:#181818;stroke-width:0.5;" width="188" x="5" y="25.1328"/><text fill="#000000" font-family="sans-serif" font-size="14" lengthAdjust="spacing" textLength="174" x="12" y="45.1279">Some (Traceability) App</text><rect fill="#E2E2F0" height="30.2969" rx="2.5" ry="2.5" style="stroke:#181818;stroke-width:0.5;" width="188" x="5" y="1238.4766"/><text fill="#000000" font-family="sans-serif" font-size="14" lengthAdjust="spacing" textLength="174" x="12" y="1258.4717">Some (Traceability) App</text><rect fill="#E2E2F0" height="30.2969" rx="2.5" ry="2.5" style="stroke:#181818;stroke-width:0.5;" width="196" x="284" y="25.1328"/><text fill="#000000" font-family="sans-serif" font-size="14" lengthAdjust="spacing" textLength="182" x="291" y="45.1279">Notification EDC Adapter</text><rect fill="#E2E2F0" height="30.2969" rx="2.5" ry="2.5" style="stroke:#181818;stroke-width:0.5;" width="196" x="284" y="1238.4766"/><text fill="#000000" font-family="sans-serif" font-size="14" lengthAdjust="spacing" textLength="182" x="291" y="1258.4717">Notification EDC Adapter</text><rect fill="#E2E2F0" height="30.2969" rx="2.5" ry="2.5" style="stroke:#181818;stroke-width:0.5;" width="44" x="616" y="25.1328"/><text fill="#000000" font-family="sans-serif" font-size="14" lengthAdjust="spacing" textLength="30" x="623" y="45.1279">EDC</text><rect fill="#E2E2F0" height="30.2969" rx="2.5" ry="2.5" style="stroke:#181818;stroke-width:0.5;" width="44" x="616" y="1238.4766"/><text fill="#000000" font-family="sans-serif" font-size="14" lengthAdjust="spacing" textLength="30" x="623" y="1258.4717">EDC</text><rect fill="#E2E2F0" height="30.2969" rx="2.5" ry="2.5" style="stroke:#181818;stroke-width:0.5;" width="141" x="670" y="25.1328"/><text fill="#000000" font-family="sans-serif" font-size="14" lengthAdjust="spacing" textLength="127" x="677" y="45.1279">Discovery Service</text><rect fill="#E2E2F0" height="30.2969" rx="2.5" ry="2.5" style="stroke:#181818;stroke-width:0.5;" width="141" x="670" y="1238.4766"/><text fill="#000000" font-family="sans-serif" font-size="14" lengthAdjust="spacing" textLength="127" x="677" y="1258.4717">Discovery Service</text><rect fill="#E2E2F0" height="30.2969" rx="2.5" ry="2.5" style="stroke:#181818;stroke-width:0.5;" width="44" x="821" y="25.1328"/><text fill="#000000" font-family="sans-serif" font-size="14" lengthAdjust="spacing" textLength="30" x="828" y="45.1279">EDC</text><rect fill="#E2E2F0" height="30.2969" rx="2.5" ry="2.5" style="stroke:#181818;stroke-width:0.5;" width="44" x="821" y="1238.4766"/><text fill="#000000" font-family="sans-serif" font-size="14" lengthAdjust="spacing" textLength="30" x="828" y="1258.4717">EDC</text><rect fill="#E2E2F0" height="30.2969" rx="2.5" ry="2.5" style="stroke:#181818;stroke-width:0.5;" width="188" x="1117" y="25.1328"/><text fill="#000000" font-family="sans-serif" font-size="14" lengthAdjust="spacing" textLength="174" x="1124" y="45.1279">Some (Traceability) App</text><rect fill="#E2E2F0" height="30.2969" rx="2.5" ry="2.5" style="stroke:#181818;stroke-width:0.5;" width="188" x="1117" y="1238.4766"/><text fill="#000000" font-family="sans-serif" font-size="14" lengthAdjust="spacing" textLength="174" x="1124" y="1258.4717">Some (Traceability) App</text><rect fill="#FFFFFF" height="28" style="stroke:#181818;stroke-width:1.0;" width="10" x="94" y="338.7563"/><rect fill="#FFFFFF" height="727.1891" style="stroke:#181818;stroke-width:1.0;" width="10" x="377" y="494.2875"/><rect fill="#FFFFFF" height="28" style="stroke:#181818;stroke-width:1.0;" width="10" x="382" y="622.8188"/><rect fill="#FFFFFF" height="29.1328" style="stroke:#181818;stroke-width:1.0;" width="10" x="633" y="556.5531"/><rect fill="#FFFFFF" height="29.1328" style="stroke:#181818;stroke-width:1.0;" width="10" x="633" y="765.4828"/><rect fill="#FFFFFF" height="29.1328" style="stroke:#181818;stroke-width:1.0;" width="10" x="633" y="823.7485"/><rect fill="#FFFFFF" height="309.8625" style="stroke:#181818;stroke-width:1.0;" width="10" x="633" y="882.0141"/><rect fill="#FFFFFF" height="62.2656" style="stroke:#181818;stroke-width:1.0;" width="10" x="735.5" y="402.8891"/><rect fill="#FFFFFF" height="29.1328" style="stroke:#181818;stroke-width:1.0;" width="10" x="838" y="257.3578"/><rect fill="#FFFFFF" height="217.9969" style="stroke:#181818;stroke-width:1.0;" width="10" x="838" y="944.2797"/><rect fill="#FFFFFF" height="126.1313" style="stroke:#181818;stroke-width:1.0;" width="10" x="1206" y="1006.5453"/><rect fill="#FEFFDD" height="129" style="stroke:#181818;stroke-width:0.5;" width="227" x="387" y="71.4297"/><text fill="#000000" font-family="sans-serif" font-size="13" lengthAdjust="spacing" textLength="213" x="391" y="87.4966">Not mandatory as the interaction</text><text fill="#000000" font-family="sans-serif" font-size="13" lengthAdjust="spacing" textLength="219" x="391" y="102.6294">with the EDC can be implemented</text><text fill="#000000" font-family="sans-serif" font-size="13" lengthAdjust="spacing" textLength="187" x="391" y="117.7622">also in the (Traceability) App.</text><text fill="#000000" font-family="sans-serif" font-size="13" lengthAdjust="spacing" textLength="4" x="391" y="132.895">&#160;</text><text fill="#000000" font-family="sans-serif" font-size="13" lengthAdjust="spacing" textLength="202" x="391" y="148.0278">However, a similar functionality</text><text fill="#000000" font-family="sans-serif" font-size="13" lengthAdjust="spacing" textLength="126" x="391" y="163.1606">(e.g., fetch catalog)</text><text fill="#000000" font-family="sans-serif" font-size="13" lengthAdjust="spacing" textLength="178" x="391" y="178.2935">- as shown below - must be</text><text fill="#000000" font-family="sans-serif" font-size="13" lengthAdjust="spacing" textLength="60" x="391" y="193.4263">provided.</text><polygon fill="#181818" points="859,253.3578,849,257.3578,859,261.3578,855,257.3578" style="stroke:#181818;stroke-width:1.0;"/><line style="stroke:#181818;stroke-width:1.0;" x1="853" x2="1210" y1="257.3578" y2="257.3578"/><text fill="#000000" font-family="sans-serif" font-size="13" font-weight="bold" lengthAdjust="spacing" textLength="31" x="865" y="236.9255">[01]</text><text fill="#000000" font-family="sans-serif" font-size="13" lengthAdjust="spacing" textLength="136" x="900" y="221.5591">Create EDC Asset for</text><text fill="#000000" font-family="sans-serif" font-size="13" lengthAdjust="spacing" textLength="191" x="900" y="236.6919">"Quality Investigation Update"</text><text fill="#000000" font-family="sans-serif" font-size="13" lengthAdjust="spacing" textLength="27" x="900" y="252.2919">with</text><text fill="#000000" font-family="monospace" font-size="13" lengthAdjust="spacing" textLength="88" x="931" y="251.7958">DataAddress</text><text fill="#000000" font-family="sans-serif" font-size="13" lengthAdjust="spacing" textLength="15" x="1023" y="252.2919">as</text><text fill="#000000" font-family="monospace" font-size="13" lengthAdjust="spacing" textLength="72" x="1042" y="251.7958">HTTP&#160;POST</text><text fill="#000000" font-family="sans-serif" font-size="13" lengthAdjust="spacing" textLength="56" x="1118" y="252.2919">endpoint</text><polygon fill="#181818" points="1199,282.4906,1209,286.4906,1199,290.4906,1203,286.4906" style="stroke:#181818;stroke-width:1.0;"/><line style="stroke:#181818;stroke-width:1.0;stroke-dasharray:2.0,2.0;" x1="843" x2="1205" y1="286.4906" y2="286.4906"/><text fill="#000000" font-family="sans-serif" font-size="13" font-weight="bold" lengthAdjust="spacing" textLength="31" x="850" y="281.4247">[02]</text><text fill="#000000" font-family="sans-serif" font-size="13" lengthAdjust="spacing" textLength="18" x="885" y="281.4247">OK</text><line style="stroke:#181818;stroke-width:1.0;" x1="104" x2="146" y1="330.7563" y2="330.7563"/><line style="stroke:#181818;stroke-width:1.0;" x1="146" x2="146" y1="330.7563" y2="343.7563"/><line style="stroke:#181818;stroke-width:1.0;" x1="105" x2="146" y1="343.7563" y2="343.7563"/><polygon fill="#181818" points="115,339.7563,105,343.7563,115,347.7563,111,343.7563" style="stroke:#181818;stroke-width:1.0;"/><text fill="#000000" font-family="sans-serif" font-size="13" font-weight="bold" lengthAdjust="spacing" textLength="30" x="111" y="318.1239">[03]</text><text fill="#000000" font-family="sans-serif" font-size="13" lengthAdjust="spacing" textLength="125" x="145" y="310.5575">Change Notification</text><text fill="#000000" font-family="sans-serif" font-size="13" lengthAdjust="spacing" textLength="235" x="145" y="325.6903">(e.g., Status according Status Model)</text><polygon fill="#181818" points="723.5,398.8891,733.5,402.8891,723.5,406.8891,727.5,402.8891" style="stroke:#181818;stroke-width:1.0;"/><line style="stroke:#181818;stroke-width:1.0;" x1="99" x2="729.5" y1="402.8891" y2="402.8891"/><text fill="#000000" font-family="sans-serif" font-size="13" font-weight="bold" lengthAdjust="spacing" textLength="31" x="106" y="397.8232">[04]</text><text fill="#000000" font-family="sans-serif" font-size="13" lengthAdjust="spacing" textLength="142" x="141" y="397.8232">Resolve EDC Endpoint</text><rect fill="#FEFFDD" height="23" style="stroke:#181818;stroke-width:0.5;" width="397" x="104" y="415.8891"/><text fill="#000000" font-family="sans-serif" font-size="13" lengthAdjust="spacing" textLength="389" x="108" y="431.956">BPN of supply chain partner (as given in existing notification)</text><polygon fill="#181818" points="110,461.1547,100,465.1547,110,469.1547,106,465.1547" style="stroke:#181818;stroke-width:1.0;"/><line style="stroke:#181818;stroke-width:1.0;stroke-dasharray:2.0,2.0;" x1="104" x2="739.5" y1="465.1547" y2="465.1547"/><text fill="#000000" font-family="sans-serif" font-size="13" font-weight="bold" lengthAdjust="spacing" textLength="31" x="116" y="460.0888">[05]</text><text fill="#000000" font-family="sans-serif" font-size="13" lengthAdjust="spacing" textLength="18" x="151" y="460.0888">OK</text><polygon fill="#181818" points="365,490.2875,375,494.2875,365,498.2875,369,494.2875" style="stroke:#181818;stroke-width:1.0;"/><line style="stroke:#181818;stroke-width:1.0;" x1="99" x2="371" y1="494.2875" y2="494.2875"/><text fill="#000000" font-family="sans-serif" font-size="13" font-weight="bold" lengthAdjust="spacing" textLength="31" x="106" y="489.2216">[06]</text><text fill="#000000" font-family="sans-serif" font-size="13" lengthAdjust="spacing" textLength="108" x="141" y="489.2216">Send Notification</text><text fill="#000000" font-family="sans-serif" font-size="13" font-weight="bold" lengthAdjust="spacing" textLength="54" x="253" y="489.2216">Update</text><rect fill="#FEFFDD" height="23" style="stroke:#181818;stroke-width:0.5;" width="192" x="104" y="507.2875"/><text fill="#000000" font-family="sans-serif" font-size="13" lengthAdjust="spacing" textLength="184" x="108" y="523.3544">Payload as described above.</text><polygon fill="#181818" points="621,552.5531,631,556.5531,621,560.5531,625,556.5531" style="stroke:#181818;stroke-width:1.0;"/><line style="stroke:#181818;stroke-width:1.0;" x1="387" x2="627" y1="556.5531" y2="556.5531"/><text fill="#000000" font-family="sans-serif" font-size="13" font-weight="bold" lengthAdjust="spacing" textLength="31" x="394" y="551.4872">[07]</text><text fill="#000000" font-family="sans-serif" font-size="13" lengthAdjust="spacing" textLength="88" x="429" y="551.4872">Fetch Catalog</text><polygon fill="#181818" points="649,581.686,639,585.686,649,589.686,645,585.686" style="stroke:#181818;stroke-width:1.0;"/><polygon fill="#181818" points="831,581.686,841,585.686,831,589.686,835,585.686" style="stroke:#181818;stroke-width:1.0;"/><line style="stroke:#181818;stroke-width:1.0;stroke-dasharray:2.0,2.0;" x1="643" x2="837" y1="585.686" y2="585.686"/><text fill="#000000" font-family="sans-serif" font-size="13" font-weight="bold" lengthAdjust="spacing" textLength="31" x="655" y="580.62">[08]</text><text fill="#000000" font-family="sans-serif" font-size="13" lengthAdjust="spacing" textLength="88" x="690" y="580.62">Fetch Catalog</text><line style="stroke:#181818;stroke-width:1.0;" x1="392" x2="434" y1="614.8188" y2="614.8188"/><line style="stroke:#181818;stroke-width:1.0;" x1="434" x2="434" y1="614.8188" y2="627.8188"/><line style="stroke:#181818;stroke-width:1.0;" x1="393" x2="434" y1="627.8188" y2="627.8188"/><polygon fill="#181818" points="403,623.8188,393,627.8188,403,631.8188,399,627.8188" style="stroke:#181818;stroke-width:1.0;"/><text fill="#000000" font-family="sans-serif" font-size="13" font-weight="bold" lengthAdjust="spacing" textLength="31" x="399" y="609.7528">[09]</text><text fill="#000000" font-family="sans-serif" font-size="13" lengthAdjust="spacing" textLength="156" x="434" y="609.7528">Find and Select Contract</text><rect fill="#FEFFDD" height="68" style="stroke:#181818;stroke-width:0.5;" width="340" x="392" y="670.8188"/><text fill="#000000" font-family="sans-serif" font-size="13" lengthAdjust="spacing" textLength="228" x="396" y="686.8857">Find the correct contract offer with:</text><text fill="#000000" font-family="sans-serif" font-size="13" lengthAdjust="spacing" textLength="4" x="396" y="702.0185">&#160;</text><text fill="#000000" font-family="sans-serif" font-size="13" lengthAdjust="spacing" textLength="332" x="396" y="717.1513">"asset:prop:notificationtype": "qualityinvestigation",</text><text fill="#000000" font-family="sans-serif" font-size="13" lengthAdjust="spacing" textLength="269" x="396" y="732.2841">"asset:prop:notificationmethod": "update"</text><polygon fill="#181818" points="621,761.4828,631,765.4828,621,769.4828,625,765.4828" style="stroke:#181818;stroke-width:1.0;"/><line style="stroke:#181818;stroke-width:1.0;" x1="387" x2="627" y1="765.4828" y2="765.4828"/><text fill="#000000" font-family="sans-serif" font-size="13" font-weight="bold" lengthAdjust="spacing" textLength="31" x="394" y="760.4169">[10]</text><text fill="#000000" font-family="sans-serif" font-size="13" lengthAdjust="spacing" textLength="192" x="429" y="760.4169">Intiatiate Contract Negotiation</text><polygon fill="#181818" points="649,790.6156,639,794.6156,649,798.6156,645,794.6156" style="stroke:#181818;stroke-width:1.0;"/><polygon fill="#181818" points="831,790.6156,841,794.6156,831,798.6156,835,794.6156" style="stroke:#181818;stroke-width:1.0;"/><line style="stroke:#181818;stroke-width:1.0;stroke-dasharray:2.0,2.0;" x1="643" x2="837" y1="794.6156" y2="794.6156"/><text fill="#000000" font-family="sans-serif" font-size="13" font-weight="bold" lengthAdjust="spacing" textLength="30" x="655" y="789.5497">[11]</text><text fill="#000000" font-family="sans-serif" font-size="13" lengthAdjust="spacing" textLength="132" x="689" y="789.5497">Contract Negotiation</text><polygon fill="#181818" points="621,819.7485,631,823.7485,621,827.7485,625,823.7485" style="stroke:#181818;stroke-width:1.0;"/><line style="stroke:#181818;stroke-width:1.0;" x1="387" x2="627" y1="823.7485" y2="823.7485"/><text fill="#000000" font-family="sans-serif" font-size="13" font-weight="bold" lengthAdjust="spacing" textLength="30" x="394" y="818.6825">[12]</text><text fill="#000000" font-family="sans-serif" font-size="13" lengthAdjust="spacing" textLength="141" x="428" y="818.6825">Inititate Data Transfer</text><polygon fill="#181818" points="649,848.8813,639,852.8813,649,856.8813,645,852.8813" style="stroke:#181818;stroke-width:1.0;"/><polygon fill="#181818" points="831,848.8813,841,852.8813,831,856.8813,835,852.8813" style="stroke:#181818;stroke-width:1.0;"/><line style="stroke:#181818;stroke-width:1.0;stroke-dasharray:2.0,2.0;" x1="643" x2="837" y1="852.8813" y2="852.8813"/><text fill="#000000" font-family="sans-serif" font-size="13" font-weight="bold" lengthAdjust="spacing" textLength="29" x="655" y="847.8153">[13]</text><text fill="#000000" font-family="sans-serif" font-size="13" lengthAdjust="spacing" textLength="113" x="688" y="847.8153">Establish Channel</text><polygon fill="#181818" points="621,878.0141,631,882.0141,621,886.0141,625,882.0141" style="stroke:#181818;stroke-width:1.0;"/><line style="stroke:#181818;stroke-width:1.0;" x1="387" x2="627" y1="882.0141" y2="882.0141"/><text fill="#000000" font-family="sans-serif" font-size="13" font-weight="bold" lengthAdjust="spacing" textLength="30" x="394" y="876.9482">[14]</text><text fill="#000000" font-family="sans-serif" font-size="13" lengthAdjust="spacing" textLength="95" x="428" y="876.9482">POST /public/...</text><rect fill="#FEFFDD" height="23" style="stroke:#181818;stroke-width:0.5;" width="192" x="392" y="895.0141"/><text fill="#000000" font-family="sans-serif" font-size="13" lengthAdjust="spacing" textLength="184" x="396" y="911.081">Payload as described above.</text><polygon fill="#181818" points="826,940.2797,836,944.2797,826,948.2797,830,944.2797" style="stroke:#181818;stroke-width:1.0;"/><line style="stroke:#181818;stroke-width:1.0;" x1="643" x2="832" y1="944.2797" y2="944.2797"/><text fill="#000000" font-family="sans-serif" font-size="13" font-weight="bold" lengthAdjust="spacing" textLength="30" x="650" y="939.2138">[15]</text><text fill="#000000" font-family="sans-serif" font-size="13" lengthAdjust="spacing" textLength="95" x="684" y="939.2138">POST /public/...</text><rect fill="#FEFFDD" height="23" style="stroke:#181818;stroke-width:0.5;" width="192" x="648" y="957.2797"/><text fill="#000000" font-family="sans-serif" font-size="13" lengthAdjust="spacing" textLength="184" x="652" y="973.3466">Payload as described above.</text><polygon fill="#181818" points="1194,1002.5453,1204,1006.5453,1194,1010.5453,1198,1006.5453" style="stroke:#181818;stroke-width:1.0;"/><line style="stroke:#181818;stroke-width:1.0;" x1="848" x2="1200" y1="1006.5453" y2="1006.5453"/><text fill="#000000" font-family="sans-serif" font-size="13" font-weight="bold" lengthAdjust="spacing" textLength="30" x="855" y="1001.4794">[16]</text><text fill="#000000" font-family="sans-serif" font-size="13" lengthAdjust="spacing" textLength="305" x="889" y="1001.4794">POST /notifications/qualityinvestigations/update</text><rect fill="#FEFFDD" height="23" style="stroke:#181818;stroke-width:0.5;" width="192" x="853" y="1019.5453"/><text fill="#000000" font-family="sans-serif" font-size="13" lengthAdjust="spacing" textLength="184" x="857" y="1035.6122">Payload as described above.</text><rect fill="#FEFFDD" height="53" style="stroke:#181818;stroke-width:0.5;" width="309" x="853" y="1052.6781"/><text fill="#000000" font-family="sans-serif" font-size="13" lengthAdjust="spacing" textLength="278" x="857" y="1068.745">The http path depends on the DataAddress</text><text fill="#000000" font-family="sans-serif" font-size="13" lengthAdjust="spacing" textLength="301" x="857" y="1083.8778">in the EDC Data Asset. Thus, it depends on the</text><text fill="#000000" font-family="sans-serif" font-size="13" lengthAdjust="spacing" textLength="78" x="857" y="1099.0107">(Trace) app.</text><polygon fill="#181818" points="859,1128.6766,849,1132.6766,859,1136.6766,855,1132.6766" style="stroke:#181818;stroke-width:1.0;"/><line style="stroke:#181818;stroke-width:1.0;stroke-dasharray:2.0,2.0;" x1="853" x2="1210" y1="1132.6766" y2="1132.6766"/><text fill="#000000" font-family="sans-serif" font-size="13" font-weight="bold" lengthAdjust="spacing" textLength="30" x="865" y="1127.3771">[17]</text><text fill="#000000" font-family="monospace" font-size="13" lengthAdjust="spacing" textLength="24" x="899" y="1127.1146">200</text><text fill="#000000" font-family="sans-serif" font-size="13" lengthAdjust="spacing" textLength="18" x="927" y="1127.6107">OK</text><polygon fill="#181818" points="654,1158.2766,644,1162.2766,654,1166.2766,650,1162.2766" style="stroke:#181818;stroke-width:1.0;"/><line style="stroke:#181818;stroke-width:1.0;stroke-dasharray:2.0,2.0;" x1="648" x2="842" y1="1162.2766" y2="1162.2766"/><text fill="#000000" font-family="sans-serif" font-size="13" font-weight="bold" lengthAdjust="spacing" textLength="30" x="660" y="1156.9771">[18]</text><text fill="#000000" font-family="monospace" font-size="13" lengthAdjust="spacing" textLength="24" x="694" y="1156.7146">200</text><text fill="#000000" font-family="sans-serif" font-size="13" lengthAdjust="spacing" textLength="18" x="722" y="1157.2107">OK</text><polygon fill="#181818" points="398,1187.8766,388,1191.8766,398,1195.8766,394,1191.8766" style="stroke:#181818;stroke-width:1.0;"/><line style="stroke:#181818;stroke-width:1.0;stroke-dasharray:2.0,2.0;" x1="392" x2="637" y1="1191.8766" y2="1191.8766"/><text fill="#000000" font-family="sans-serif" font-size="13" font-weight="bold" lengthAdjust="spacing" textLength="30" x="404" y="1186.5771">[19]</text><text fill="#000000" font-family="monospace" font-size="13" lengthAdjust="spacing" textLength="24" x="438" y="1186.3146">200</text><text fill="#000000" font-family="sans-serif" font-size="13" lengthAdjust="spacing" textLength="18" x="466" y="1186.8107">OK</text><polygon fill="#181818" points="110,1217.4766,100,1221.4766,110,1225.4766,106,1221.4766" style="stroke:#181818;stroke-width:1.0;"/><line style="stroke:#181818;stroke-width:1.0;stroke-dasharray:2.0,2.0;" x1="104" x2="381" y1="1221.4766" y2="1221.4766"/><text fill="#000000" font-family="sans-serif" font-size="13" font-weight="bold" lengthAdjust="spacing" textLength="31" x="116" y="1216.1771">[20]</text><text fill="#000000" font-family="monospace" font-size="13" lengthAdjust="spacing" textLength="24" x="151" y="1215.9146">200</text><text fill="#000000" font-family="sans-serif" font-size="13" lengthAdjust="spacing" textLength="18" x="179" y="1216.4107">OK</text><!--SRC=[bLLDRnen4BtxLuny2YW1ahONL5LAGwfKLLCAzDJqO7O7rj9YR-rPKlvznrwoQnAeKcaljkVZpRmtiwecQ-hD4Xt8zny__1oDVacX-59bfBUA4AmHOcd_W9oZoT59KIb7EjELCiINTeDmjd0gGxNKfQPT3wwhIeBo46_vS0dMiIUC3btlBUcLpXHfQ-1sSWFNkQg8CmJV-_rXxtefdB4CnkbrGUsZu12mKIPNPDqkk561e0q_1VYC_55J4Iz3_4mPMFBxfYfnWsoL2rLwomxHv6KL0o7kx2DkqPs30gytkbGELhM9mLMm4sSuM0_EOOMK5Po1L6dNFN4HmFZ2FeQCfNs42zZKdlWWAcUtEiTy8BYV4Ciwx0j3ZIsO1ynD-LVHbbauj9nedrb6juCvkgtEiF6RxBtUDBpDC4EzVS7SKvfPb-Rj_tDxjNTzroBiNYu-nE1Zk74Ob1GvzXu9LjR1Wv7VwzX3-6osw4cl6odyg9XFb0ycaYVbX9jwdUSElPSnjvHtYyKKfj_c2xxWl9LbpeL3gfs1Rrz49po6q1uOHw7C6Y4LteFP4pWdHRK7bMLSa3RhfuklDiUo9t9i1w8DU9XdFXd33BqjjqsbjoskHBcTxyVfFTWL-BggoXraXM8LXkuRRkOP5xbcoaoG9lxHt1i6P1BOlKGy9-f-6f8nXC4zA1hw_QR9_Vu9T5ErAwtAGxTpz9dJI-J3aiMMohOTqb1-PFfJ78ERPWn4LF3xYv-v9HwsNwqU3gtIA1teJvhJy6Wp-X8pWXjhA4pryKKGhSCGCtikc6TxS-xnYaC7AOs5a2h8RymZM8tJTjAkGZa6-RiHf4xrACzFkcsG2fi7nxhHRDARH33TkdhHhy-6j0eVjWN2FQvjlENzTQg3HusFXTUaAKGFGnJuDPxRSJBihIUrBBKlugWOB8_436C7mwfcksmu60oE4_8w0KKSRVP_HWwchumwsqTjDz5Jw9GxFpn6jXysJ1wadhq-zGkt1Mko8AfujdcPvLYnhUT_QXHhijd4_YSKe4Ukug8SmAAe_JbeUkOgchNS0nN-Kbt-PFbsv3RTbV9gDE9zoNkYQL32_lovnVovHJUOYLKdZiGosRUTwLy0]--></g></svg>