<?xml version="1.0" encoding="us-ascii" standalone="no"?><svg xmlns="http://www.w3.org/2000/svg" xmlns:xlink="http://www.w3.org/1999/xlink" contentStyleType="text/css" height="1568px" preserveAspectRatio="none" style="width:1355px;height:1568px;background:#FFFFFF;" version="1.1" viewBox="0 0 1355 1568" width="1355px" zoomAndPan="magnify"><defs/><g><rect fill="#DDDDDD" height="1556.5704" style="stroke:#181818;stroke-width:0.5;" width="701" x="1" y="6"/><text fill="#000000" font-family="sans-serif" font-size="13" font-weight="bold" lengthAdjust="spacing" textLength="52" x="325.5" y="18.0669">Sender</text><rect fill="#DDDDDD" height="1556.5704" style="stroke:#181818;stroke-width:0.5;" width="494" x="855" y="6"/><text fill="#000000" font-family="sans-serif" font-size="13" font-weight="bold" lengthAdjust="spacing" textLength="64" x="1070" y="18.0669">Receiver</text><rect fill="#FFFFFF" height="28" style="stroke:#181818;stroke-width:1.0;" width="10" x="94" y="323.6235"/><rect fill="#FFFFFF" height="28" style="stroke:#181818;stroke-width:1.0;" width="10" x="94" y="395.7563"/><rect fill="#FFFFFF" height="28" style="stroke:#181818;stroke-width:1.0;" width="10" x="94" y="483.0219"/><rect fill="#FFFFFF" height="28" style="stroke:#181818;stroke-width:1.0;" width="10" x="94" y="661.686"/><rect fill="#FFFFFF" height="14" style="stroke:#181818;stroke-width:1.0;" width="10" x="94" y="1505.2735"/><rect fill="#FFFFFF" height="727.1891" style="stroke:#181818;stroke-width:1.0;" width="10" x="417" y="725.8188"/><rect fill="#FFFFFF" height="28" style="stroke:#181818;stroke-width:1.0;" width="10" x="422" y="854.35"/><rect fill="#FFFFFF" height="29.1328" style="stroke:#181818;stroke-width:1.0;" width="10" x="671" y="788.0844"/><rect fill="#FFFFFF" height="29.1328" style="stroke:#181818;stroke-width:1.0;" width="10" x="671" y="997.0141"/><rect fill="#FFFFFF" height="29.1328" style="stroke:#181818;stroke-width:1.0;" width="10" x="671" y="1055.2797"/><rect fill="#FFFFFF" height="309.8625" style="stroke:#181818;stroke-width:1.0;" width="10" x="671" y="1113.5453"/><rect fill="#FFFFFF" height="62.2656" style="stroke:#181818;stroke-width:1.0;" width="10" x="773.5" y="547.1547"/><rect fill="#FFFFFF" height="29.1328" style="stroke:#181818;stroke-width:1.0;" width="10" x="876" y="257.3578"/><rect fill="#FFFFFF" height="217.9969" style="stroke:#181818;stroke-width:1.0;" width="10" x="876" y="1175.811"/><rect fill="#FFFFFF" height="126.1313" style="stroke:#181818;stroke-width:1.0;" width="10" x="1246" y="1238.0766"/><line style="stroke:#181818;stroke-width:0.5;stroke-dasharray:5.0,5.0;" x1="99" x2="99" y1="56.4297" y2="1528.2735"/><line style="stroke:#181818;stroke-width:0.5;stroke-dasharray:5.0,5.0;" x1="422" x2="422" y1="56.4297" y2="1528.2735"/><line style="stroke:#181818;stroke-width:0.5;stroke-dasharray:5.0,5.0;" x1="676" x2="676" y1="56.4297" y2="1528.2735"/><line style="stroke:#181818;stroke-width:0.5;stroke-dasharray:5.0,5.0;" x1="778" x2="778" y1="56.4297" y2="1528.2735"/><line style="stroke:#181818;stroke-width:0.5;stroke-dasharray:5.0,5.0;" x1="881" x2="881" y1="56.4297" y2="1528.2735"/><line style="stroke:#181818;stroke-width:0.5;stroke-dasharray:5.0,5.0;" x1="1251" x2="1251" y1="56.4297" y2="1528.2735"/><rect fill="#E2E2F0" height="30.2969" rx="2.5" ry="2.5" style="stroke:#181818;stroke-width:0.5;" width="188" x="5" y="25.1328"/><text fill="#000000" font-family="sans-serif" font-size="14" lengthAdjust="spacing" textLength="174" x="12" y="45.1279">Some (Traceability) App</text><rect fill="#E2E2F0" height="30.2969" rx="2.5" ry="2.5" style="stroke:#181818;stroke-width:0.5;" width="188" x="5" y="1527.2735"/><text fill="#000000" font-family="sans-serif" font-size="14" lengthAdjust="spacing" textLength="174" x="12" y="1547.2686">Some (Traceability) App</text><rect fill="#E2E2F0" height="30.2969" rx="2.5" ry="2.5" style="stroke:#181818;stroke-width:0.5;" width="196" x="324" y="25.1328"/><text fill="#000000" font-family="sans-serif" font-size="14" lengthAdjust="spacing" textLength="182" x="331" y="45.1279">Notification EDC Adapter</text><rect fill="#E2E2F0" height="30.2969" rx="2.5" ry="2.5" style="stroke:#181818;stroke-width:0.5;" width="196" x="324" y="1527.2735"/><text fill="#000000" font-family="sans-serif" font-size="14" lengthAdjust="spacing" textLength="182" x="331" y="1547.2686">Notification EDC Adapter</text><rect fill="#E2E2F0" height="30.2969" rx="2.5" ry="2.5" style="stroke:#181818;stroke-width:0.5;" width="44" x="654" y="25.1328"/><text fill="#000000" font-family="sans-serif" font-size="14" lengthAdjust="spacing" textLength="30" x="661" y="45.1279">EDC</text><rect fill="#E2E2F0" height="30.2969" rx="2.5" ry="2.5" style="stroke:#181818;stroke-width:0.5;" width="44" x="654" y="1527.2735"/><text fill="#000000" font-family="sans-serif" font-size="14" lengthAdjust="spacing" textLength="30" x="661" y="1547.2686">EDC</text><rect fill="#E2E2F0" height="30.2969" rx="2.5" ry="2.5" style="stroke:#181818;stroke-width:0.5;" width="141" x="708" y="25.1328"/><text fill="#000000" font-family="sans-serif" font-size="14" lengthAdjust="spacing" textLength="127" x="715" y="45.1279">Discovery Service</text><rect fill="#E2E2F0" height="30.2969" rx="2.5" ry="2.5" style="stroke:#181818;stroke-width:0.5;" width="141" x="708" y="1527.2735"/><text fill="#000000" font-family="sans-serif" font-size="14" lengthAdjust="spacing" textLength="127" x="715" y="1547.2686">Discovery Service</text><rect fill="#E2E2F0" height="30.2969" rx="2.5" ry="2.5" style="stroke:#181818;stroke-width:0.5;" width="44" x="859" y="25.1328"/><text fill="#000000" font-family="sans-serif" font-size="14" lengthAdjust="spacing" textLength="30" x="866" y="45.1279">EDC</text><rect fill="#E2E2F0" height="30.2969" rx="2.5" ry="2.5" style="stroke:#181818;stroke-width:0.5;" width="44" x="859" y="1527.2735"/><text fill="#000000" font-family="sans-serif" font-size="14" lengthAdjust="spacing" textLength="30" x="866" y="1547.2686">EDC</text><rect fill="#E2E2F0" height="30.2969" rx="2.5" ry="2.5" style="stroke:#181818;stroke-width:0.5;" width="188" x="1157" y="25.1328"/><text fill="#000000" font-family="sans-serif" font-size="14" lengthAdjust="spacing" textLength="174" x="1164" y="45.1279">Some (Traceability) App</text><rect fill="#E2E2F0" height="30.2969" rx="2.5" ry="2.5" style="stroke:#181818;stroke-width:0.5;" width="188" x="1157" y="1527.2735"/><text fill="#000000" font-family="sans-serif" font-size="14" lengthAdjust="spacing" textLength="174" x="1164" y="1547.2686">Some (Traceability) App</text><rect fill="#FFFFFF" height="28" style="stroke:#181818;stroke-width:1.0;" width="10" x="94" y="323.6235"/><rect fill="#FFFFFF" height="28" style="stroke:#181818;stroke-width:1.0;" width="10" x="94" y="395.7563"/><rect fill="#FFFFFF" height="28" style="stroke:#181818;stroke-width:1.0;" width="10" x="94" y="483.0219"/><rect fill="#FFFFFF" height="28" style="stroke:#181818;stroke-width:1.0;" width="10" x="94" y="661.686"/><rect fill="#FFFFFF" height="14" style="stroke:#181818;stroke-width:1.0;" width="10" x="94" y="1505.2735"/><rect fill="#FFFFFF" height="727.1891" style="stroke:#181818;stroke-width:1.0;" width="10" x="417" y="725.8188"/><rect fill="#FFFFFF" height="28" style="stroke:#181818;stroke-width:1.0;" width="10" x="422" y="854.35"/><rect fill="#FFFFFF" height="29.1328" style="stroke:#181818;stroke-width:1.0;" width="10" x="671" y="788.0844"/><rect fill="#FFFFFF" height="29.1328" style="stroke:#181818;stroke-width:1.0;" width="10" x="671" y="997.0141"/><rect fill="#FFFFFF" height="29.1328" style="stroke:#181818;stroke-width:1.0;" width="10" x="671" y="1055.2797"/><rect fill="#FFFFFF" height="309.8625" style="stroke:#181818;stroke-width:1.0;" width="10" x="671" y="1113.5453"/><rect fill="#FFFFFF" height="62.2656" style="stroke:#181818;stroke-width:1.0;" width="10" x="773.5" y="547.1547"/><rect fill="#FFFFFF" height="29.1328" style="stroke:#181818;stroke-width:1.0;" width="10" x="876" y="257.3578"/><rect fill="#FFFFFF" height="217.9969" style="stroke:#181818;stroke-width:1.0;" width="10" x="876" y="1175.811"/><rect fill="#FFFFFF" height="126.1313" style="stroke:#181818;stroke-width:1.0;" width="10" x="1246" y="1238.0766"/><rect fill="#FEFFDD" height="129" style="stroke:#181818;stroke-width:0.5;" width="227" x="427" y="71.4297"/><text fill="#000000" font-family="sans-serif" font-size="13" lengthAdjust="spacing" textLength="213" x="431" y="87.4966">Not mandatory as the interaction</text><text fill="#000000" font-family="sans-serif" font-size="13" lengthAdjust="spacing" textLength="219" x="431" y="102.6294">with the EDC can be implemented</text><text fill="#000000" font-family="sans-serif" font-size="13" lengthAdjust="spacing" textLength="187" x="431" y="117.7622">also in the (Traceability) App.</text><text fill="#000000" font-family="sans-serif" font-size="13" lengthAdjust="spacing" textLength="4" x="431" y="132.895">&#160;</text><text fill="#000000" font-family="sans-serif" font-size="13" lengthAdjust="spacing" textLength="202" x="431" y="148.0278">However, a similar functionality</text><text fill="#000000" font-family="sans-serif" font-size="13" lengthAdjust="spacing" textLength="126" x="431" y="163.1606">(e.g., fetch catalog)</text><text fill="#000000" font-family="sans-serif" font-size="13" lengthAdjust="spacing" textLength="178" x="431" y="178.2935">- as shown below - must be</text><text fill="#000000" font-family="sans-serif" font-size="13" lengthAdjust="spacing" textLength="60" x="431" y="193.4263">provided.</text><polygon fill="#181818" points="897,253.3578,887,257.3578,897,261.3578,893,257.3578" style="stroke:#181818;stroke-width:1.0;"/><line style="stroke:#181818;stroke-width:1.0;" x1="891" x2="1250" y1="257.3578" y2="257.3578"/><text fill="#000000" font-family="sans-serif" font-size="13" font-weight="bold" lengthAdjust="spacing" textLength="31" x="903" y="236.9255">[01]</text><text fill="#000000" font-family="sans-serif" font-size="13" lengthAdjust="spacing" textLength="136" x="938" y="221.5591">Create EDC Asset for</text><text fill="#000000" font-family="sans-serif" font-size="13" lengthAdjust="spacing" textLength="193" x="938" y="236.6919">"Quality Investigation Receipt"</text><text fill="#000000" font-family="sans-serif" font-size="13" lengthAdjust="spacing" textLength="27" x="938" y="252.2919">with</text><text fill="#000000" font-family="monospace" font-size="13" lengthAdjust="spacing" textLength="88" x="969" y="251.7958">DataAddress</text><text fill="#000000" font-family="sans-serif" font-size="13" lengthAdjust="spacing" textLength="15" x="1061" y="252.2919">as</text><text fill="#000000" font-family="monospace" font-size="13" lengthAdjust="spacing" textLength="72" x="1080" y="251.7958">HTTP&#160;POST</text><text fill="#000000" font-family="sans-serif" font-size="13" lengthAdjust="spacing" textLength="56" x="1156" y="252.2919">endpoint</text><polygon fill="#181818" points="1239,282.4906,1249,286.4906,1239,290.4906,1243,286.4906" style="stroke:#181818;stroke-width:1.0;"/><line style="stroke:#181818;stroke-width:1.0;stroke-dasharray:2.0,2.0;" x1="881" x2="1245" y1="286.4906" y2="286.4906"/><text fill="#000000" font-family="sans-serif" font-size="13" font-weight="bold" lengthAdjust="spacing" textLength="31" x="888" y="281.4247">[02]</text><text fill="#000000" font-family="sans-serif" font-size="13" lengthAdjust="spacing" textLength="18" x="923" y="281.4247">OK</text><line style="stroke:#181818;stroke-width:1.0;" x1="104" x2="146" y1="315.6235" y2="315.6235"/><line style="stroke:#181818;stroke-width:1.0;" x1="146" x2="146" y1="315.6235" y2="328.6235"/><line style="stroke:#181818;stroke-width:1.0;" x1="105" x2="146" y1="328.6235" y2="328.6235"/><polygon fill="#181818" points="115,324.6235,105,328.6235,115,332.6235,111,328.6235" style="stroke:#181818;stroke-width:1.0;"/><text fill="#000000" font-family="sans-serif" font-size="13" font-weight="bold" lengthAdjust="spacing" textLength="30" x="111" y="310.5575">[03]</text><text fill="#000000" font-family="sans-serif" font-size="13" lengthAdjust="spacing" textLength="223" x="145" y="310.5575">Identify Suspect Part(s) / Batch(es)</text><line style="stroke:#181818;stroke-width:1.0;" x1="104" x2="146" y1="387.7563" y2="387.7563"/><line style="stroke:#181818;stroke-width:1.0;" x1="146" x2="146" y1="387.7563" y2="400.7563"/><line style="stroke:#181818;stroke-width:1.0;" x1="105" x2="146" y1="400.7563" y2="400.7563"/><polygon fill="#181818" points="115,396.7563,105,400.7563,115,404.7563,111,400.7563" style="stroke:#181818;stroke-width:1.0;"/><text fill="#000000" font-family="sans-serif" font-size="13" font-weight="bold" lengthAdjust="spacing" textLength="31" x="111" y="382.6903">[04]</text><text fill="#000000" font-family="sans-serif" font-size="13" lengthAdjust="spacing" textLength="274" x="146" y="382.6903">Identify BPN for Suspect Part(s) / Batch(es)</text><line style="stroke:#181818;stroke-width:1.0;" x1="104" x2="146" y1="475.0219" y2="475.0219"/><line style="stroke:#181818;stroke-width:1.0;" x1="146" x2="146" y1="475.0219" y2="488.0219"/><line style="stroke:#181818;stroke-width:1.0;" x1="105" x2="146" y1="488.0219" y2="488.0219"/><polygon fill="#181818" points="115,484.0219,105,488.0219,115,492.0219,111,488.0219" style="stroke:#181818;stroke-width:1.0;"/><text fill="#000000" font-family="sans-serif" font-size="13" font-weight="bold" lengthAdjust="spacing" textLength="31" x="111" y="462.3896">[05]</text><text fill="#000000" font-family="sans-serif" font-size="13" lengthAdjust="spacing" textLength="119" x="146" y="454.8232">Create Notification</text><text fill="#000000" font-family="sans-serif" font-size="13" lengthAdjust="spacing" textLength="125" x="146" y="469.956">Status := CREATED</text><polygon fill="#181818" points="761.5,543.1547,771.5,547.1547,761.5,551.1547,765.5,547.1547" style="stroke:#181818;stroke-width:1.0;"/><line style="stroke:#181818;stroke-width:1.0;" x1="99" x2="767.5" y1="547.1547" y2="547.1547"/><text fill="#000000" font-family="sans-serif" font-size="13" font-weight="bold" lengthAdjust="spacing" textLength="31" x="106" y="542.0888">[06]</text><text fill="#000000" font-family="sans-serif" font-size="13" lengthAdjust="spacing" textLength="142" x="141" y="542.0888">Resolve EDC Endpoint</text><rect fill="#FEFFDD" height="23" style="stroke:#181818;stroke-width:0.5;" width="217" x="104" y="560.1547"/><text fill="#000000" font-family="sans-serif" font-size="13" lengthAdjust="spacing" textLength="209" x="108" y="576.2216">BPN of supect part(s) / batch(es)</text><polygon fill="#181818" points="110,605.4203,100,609.4203,110,613.4203,106,609.4203" style="stroke:#181818;stroke-width:1.0;"/><line style="stroke:#181818;stroke-width:1.0;stroke-dasharray:2.0,2.0;" x1="104" x2="777.5" y1="609.4203" y2="609.4203"/><text fill="#000000" font-family="sans-serif" font-size="13" font-weight="bold" lengthAdjust="spacing" textLength="31" x="116" y="604.3544">[07]</text><text fill="#000000" font-family="sans-serif" font-size="13" lengthAdjust="spacing" textLength="18" x="151" y="604.3544">OK</text><line style="stroke:#181818;stroke-width:1.0;" x1="104" x2="146" y1="653.686" y2="653.686"/><line style="stroke:#181818;stroke-width:1.0;" x1="146" x2="146" y1="653.686" y2="666.686"/><line style="stroke:#181818;stroke-width:1.0;" x1="105" x2="146" y1="666.686" y2="666.686"/><polygon fill="#181818" points="115,662.686,105,666.686,115,670.686,111,666.686" style="stroke:#181818;stroke-width:1.0;"/><text fill="#000000" font-family="sans-serif" font-size="13" font-weight="bold" lengthAdjust="spacing" textLength="31" x="111" y="641.0536">[08]</text><text fill="#000000" font-family="sans-serif" font-size="13" lengthAdjust="spacing" textLength="167" x="146" y="633.4872">Update Notification Status</text><text fill="#000000" font-family="sans-serif" font-size="13" lengthAdjust="spacing" textLength="97" x="146" y="648.62">Status := SENT</text><polygon fill="#181818" points="405,721.8188,415,725.8188,405,729.8188,409,725.8188" style="stroke:#181818;stroke-width:1.0;"/><line style="stroke:#181818;stroke-width:1.0;" x1="99" x2="411" y1="725.8188" y2="725.8188"/><text fill="#000000" font-family="sans-serif" font-size="13" font-weight="bold" lengthAdjust="spacing" textLength="31" x="106" y="720.7528">[09]</text><text fill="#000000" font-family="sans-serif" font-size="13" lengthAdjust="spacing" textLength="108" x="141" y="720.7528">Send Notification</text><text fill="#000000" font-family="sans-serif" font-size="13" font-weight="bold" lengthAdjust="spacing" textLength="57" x="253" y="720.7528">Receipt</text><rect fill="#FEFFDD" height="23" style="stroke:#181818;stroke-width:0.5;" width="192" x="104" y="738.8188"/><text fill="#000000" font-family="sans-serif" font-size="13" lengthAdjust="spacing" textLength="184" x="108" y="754.8857">Payload as described above.</text><polygon fill="#181818" points="659,784.0844,669,788.0844,659,792.0844,663,788.0844" style="stroke:#181818;stroke-width:1.0;"/><line style="stroke:#181818;stroke-width:1.0;" x1="427" x2="665" y1="788.0844" y2="788.0844"/><text fill="#000000" font-family="sans-serif" font-size="13" font-weight="bold" lengthAdjust="spacing" textLength="31" x="434" y="783.0185">[10]</text><text fill="#000000" font-family="sans-serif" font-size="13" lengthAdjust="spacing" textLength="88" x="469" y="783.0185">Fetch Catalog</text><polygon fill="#181818" points="687,813.2172,677,817.2172,687,821.2172,683,817.2172" style="stroke:#181818;stroke-width:1.0;"/><polygon fill="#181818" points="869,813.2172,879,817.2172,869,821.2172,873,817.2172" style="stroke:#181818;stroke-width:1.0;"/><line style="stroke:#181818;stroke-width:1.0;stroke-dasharray:2.0,2.0;" x1="681" x2="875" y1="817.2172" y2="817.2172"/><text fill="#000000" font-family="sans-serif" font-size="13" font-weight="bold" lengthAdjust="spacing" textLength="30" x="693" y="812.1513">[11]</text><text fill="#000000" font-family="sans-serif" font-size="13" lengthAdjust="spacing" textLength="88" x="727" y="812.1513">Fetch Catalog</text><line style="stroke:#181818;stroke-width:1.0;" x1="432" x2="474" y1="846.35" y2="846.35"/><line style="stroke:#181818;stroke-width:1.0;" x1="474" x2="474" y1="846.35" y2="859.35"/><line style="stroke:#181818;stroke-width:1.0;" x1="433" x2="474" y1="859.35" y2="859.35"/><polygon fill="#181818" points="443,855.35,433,859.35,443,863.35,439,859.35" style="stroke:#181818;stroke-width:1.0;"/><text fill="#000000" font-family="sans-serif" font-size="13" font-weight="bold" lengthAdjust="spacing" textLength="30" x="439" y="841.2841">[12]</text><text fill="#000000" font-family="sans-serif" font-size="13" lengthAdjust="spacing" textLength="156" x="473" y="841.2841">Find and Select Contract</text><rect fill="#FEFFDD" height="68" style="stroke:#181818;stroke-width:0.5;" width="340" x="432" y="902.35"/><text fill="#000000" font-family="sans-serif" font-size="13" lengthAdjust="spacing" textLength="228" x="436" y="918.4169">Find the correct contract offer with:</text><text fill="#000000" font-family="sans-serif" font-size="13" lengthAdjust="spacing" textLength="4" x="436" y="933.5497">&#160;</text><text fill="#000000" font-family="sans-serif" font-size="13" lengthAdjust="spacing" textLength="332" x="436" y="948.6825">"asset:prop:notificationtype": "qualityinvestigation",</text><text fill="#000000" font-family="sans-serif" font-size="13" lengthAdjust="spacing" textLength="271" x="436" y="963.8153">"asset:prop:notificationmethod": "receive"</text><polygon fill="#181818" points="659,993.0141,669,997.0141,659,1001.0141,663,997.0141" style="stroke:#181818;stroke-width:1.0;"/><line style="stroke:#181818;stroke-width:1.0;" x1="427" x2="665" y1="997.0141" y2="997.0141"/><text fill="#000000" font-family="sans-serif" font-size="13" font-weight="bold" lengthAdjust="spacing" textLength="29" x="434" y="991.9482">[13]</text><text fill="#000000" font-family="sans-serif" font-size="13" lengthAdjust="spacing" textLength="192" x="467" y="991.9482">Intiatiate Contract Negotiation</text><polygon fill="#181818" points="687,1022.1469,677,1026.1469,687,1030.1469,683,1026.1469" style="stroke:#181818;stroke-width:1.0;"/><polygon fill="#181818" points="869,1022.1469,879,1026.1469,869,1030.1469,873,1026.1469" style="stroke:#181818;stroke-width:1.0;"/><line style="stroke:#181818;stroke-width:1.0;stroke-dasharray:2.0,2.0;" x1="681" x2="875" y1="1026.1469" y2="1026.1469"/><text fill="#000000" font-family="sans-serif" font-size="13" font-weight="bold" lengthAdjust="spacing" textLength="30" x="693" y="1021.081">[14]</text><text fill="#000000" font-family="sans-serif" font-size="13" lengthAdjust="spacing" textLength="132" x="727" y="1021.081">Contract Negotiation</text><polygon fill="#181818" points="659,1051.2797,669,1055.2797,659,1059.2797,663,1055.2797" style="stroke:#181818;stroke-width:1.0;"/><line style="stroke:#181818;stroke-width:1.0;" x1="427" x2="665" y1="1055.2797" y2="1055.2797"/><text fill="#000000" font-family="sans-serif" font-size="13" font-weight="bold" lengthAdjust="spacing" textLength="30" x="434" y="1050.2138">[15]</text><text fill="#000000" font-family="sans-serif" font-size="13" lengthAdjust="spacing" textLength="141" x="468" y="1050.2138">Inititate Data Transfer</text><polygon fill="#181818" points="687,1080.4125,677,1084.4125,687,1088.4125,683,1084.4125" style="stroke:#181818;stroke-width:1.0;"/><polygon fill="#181818" points="869,1080.4125,879,1084.4125,869,1088.4125,873,1084.4125" style="stroke:#181818;stroke-width:1.0;"/><line style="stroke:#181818;stroke-width:1.0;stroke-dasharray:2.0,2.0;" x1="681" x2="875" y1="1084.4125" y2="1084.4125"/><text fill="#000000" font-family="sans-serif" font-size="13" font-weight="bold" lengthAdjust="spacing" textLength="30" x="693" y="1079.3466">[16]</text><text fill="#000000" font-family="sans-serif" font-size="13" lengthAdjust="spacing" textLength="113" x="727" y="1079.3466">Establish Channel</text><polygon fill="#181818" points="659,1109.5453,669,1113.5453,659,1117.5453,663,1113.5453" style="stroke:#181818;stroke-width:1.0;"/><line style="stroke:#181818;stroke-width:1.0;" x1="427" x2="665" y1="1113.5453" y2="1113.5453"/><text fill="#000000" font-family="sans-serif" font-size="13" font-weight="bold" lengthAdjust="spacing" textLength="30" x="434" y="1108.4794">[17]</text><text fill="#000000" font-family="sans-serif" font-size="13" lengthAdjust="spacing" textLength="95" x="468" y="1108.4794">POST /public/...</text><rect fill="#FEFFDD" height="23" style="stroke:#181818;stroke-width:0.5;" width="192" x="432" y="1126.5453"/><text fill="#000000" font-family="sans-serif" font-size="13" lengthAdjust="spacing" textLength="184" x="436" y="1142.6122">Payload as described above.</text><polygon fill="#181818" points="864,1171.811,874,1175.811,864,1179.811,868,1175.811" style="stroke:#181818;stroke-width:1.0;"/><line style="stroke:#181818;stroke-width:1.0;" x1="681" x2="870" y1="1175.811" y2="1175.811"/><text fill="#000000" font-family="sans-serif" font-size="13" font-weight="bold" lengthAdjust="spacing" textLength="30" x="688" y="1170.745">[18]</text><text fill="#000000" font-family="sans-serif" font-size="13" lengthAdjust="spacing" textLength="95" x="722" y="1170.745">POST /public/...</text><rect fill="#FEFFDD" height="23" style="stroke:#181818;stroke-width:0.5;" width="192" x="686" y="1188.811"/><text fill="#000000" font-family="sans-serif" font-size="13" lengthAdjust="spacing" textLength="184" x="690" y="1204.8778">Payload as described above.</text><polygon fill="#181818" points="1234,1234.0766,1244,1238.0766,1234,1242.0766,1238,1238.0766" style="stroke:#181818;stroke-width:1.0;"/><line style="stroke:#181818;stroke-width:1.0;" x1="886" x2="1240" y1="1238.0766" y2="1238.0766"/><text fill="#000000" font-family="sans-serif" font-size="13" font-weight="bold" lengthAdjust="spacing" textLength="30" x="893" y="1233.0107">[19]</text><text fill="#000000" font-family="sans-serif" font-size="13" lengthAdjust="spacing" textLength="307" x="927" y="1233.0107">POST /notifications/qualityinvestigations/receive</text><rect fill="#FEFFDD" height="23" style="stroke:#181818;stroke-width:0.5;" width="192" x="891" y="1251.0766"/><text fill="#000000" font-family="sans-serif" font-size="13" lengthAdjust="spacing" textLength="184" x="895" y="1267.1435">Payload as described above.</text><rect fill="#FEFFDD" height="53" style="stroke:#181818;stroke-width:0.5;" width="309" x="891" y="1284.2094"/><text fill="#000000" font-family="sans-serif" font-size="13" lengthAdjust="spacing" textLength="278" x="895" y="1300.2763">The http path depends on the DataAddress</text><text fill="#000000" font-family="sans-serif" font-size="13" lengthAdjust="spacing" textLength="301" x="895" y="1315.4091">in the EDC Data Asset. Thus, it depends on the</text><text fill="#000000" font-family="sans-serif" font-size="13" lengthAdjust="spacing" textLength="78" x="895" y="1330.5419">(Trace) app.</text><polygon fill="#181818" points="897,1360.2078,887,1364.2078,897,1368.2078,893,1364.2078" style="stroke:#181818;stroke-width:1.0;"/><line style="stroke:#181818;stroke-width:1.0;stroke-dasharray:2.0,2.0;" x1="891" x2="1250" y1="1364.2078" y2="1364.2078"/><text fill="#000000" font-family="sans-serif" font-size="13" font-weight="bold" lengthAdjust="spacing" textLength="31" x="903" y="1358.9083">[20]</text><text fill="#000000" font-family="monospace" font-size="13" lengthAdjust="spacing" textLength="24" x="938" y="1358.6458">201</text><text fill="#000000" font-family="sans-serif" font-size="13" lengthAdjust="spacing" textLength="18" x="966" y="1359.1419">OK</text><polygon fill="#181818" points="692,1389.8079,682,1393.8079,692,1397.8079,688,1393.8079" style="stroke:#181818;stroke-width:1.0;"/><line style="stroke:#181818;stroke-width:1.0;stroke-dasharray:2.0,2.0;" x1="686" x2="880" y1="1393.8079" y2="1393.8079"/><text fill="#000000" font-family="sans-serif" font-size="13" font-weight="bold" lengthAdjust="spacing" textLength="30" x="698" y="1388.5083">[21]</text><text fill="#000000" font-family="monospace" font-size="13" lengthAdjust="spacing" textLength="24" x="732" y="1388.2459">201</text><text fill="#000000" font-family="sans-serif" font-size="13" lengthAdjust="spacing" textLength="18" x="760" y="1388.7419">OK</text><polygon fill="#181818" points="438,1419.4079,428,1423.4079,438,1427.4079,434,1423.4079" style="stroke:#181818;stroke-width:1.0;"/><line style="stroke:#181818;stroke-width:1.0;stroke-dasharray:2.0,2.0;" x1="432" x2="675" y1="1423.4079" y2="1423.4079"/><text fill="#000000" font-family="sans-serif" font-size="13" font-weight="bold" lengthAdjust="spacing" textLength="30" x="444" y="1418.1083">[22]</text><text fill="#000000" font-family="monospace" font-size="13" lengthAdjust="spacing" textLength="24" x="478" y="1417.8459">201</text><text fill="#000000" font-family="sans-serif" font-size="13" lengthAdjust="spacing" textLength="18" x="506" y="1418.3419">OK</text><polygon fill="#181818" points="110,1449.0079,100,1453.0079,110,1457.0079,106,1453.0079" style="stroke:#181818;stroke-width:1.0;"/><line style="stroke:#181818;stroke-width:1.0;stroke-dasharray:2.0,2.0;" x1="104" x2="421" y1="1453.0079" y2="1453.0079"/><text fill="#000000" font-family="sans-serif" font-size="13" font-weight="bold" lengthAdjust="spacing" textLength="29" x="116" y="1447.7084">[23]</text><text fill="#000000" font-family="monospace" font-size="13" lengthAdjust="spacing" textLength="24" x="149" y="1447.4459">201</text><text fill="#000000" font-family="sans-serif" font-size="13" lengthAdjust="spacing" textLength="18" x="177" y="1447.942">OK</text><line style="stroke:#181818;stroke-width:1.0;" x1="99" x2="146" y1="1492.2735" y2="1492.2735"/><line style="stroke:#181818;stroke-width:1.0;" x1="146" x2="146" y1="1492.2735" y2="1505.2735"/><line style="stroke:#181818;stroke-width:1.0;" x1="105" x2="146" y1="1505.2735" y2="1505.2735"/><polygon fill="#181818" points="115,1501.2735,105,1505.2735,115,1509.2735,111,1505.2735" style="stroke:#181818;stroke-width:1.0;"/><text fill="#000000" font-family="sans-serif" font-size="13" font-weight="bold" lengthAdjust="spacing" textLength="30" x="111" y="1479.6412">[24]</text><text fill="#000000" font-family="sans-serif" font-size="13" lengthAdjust="spacing" textLength="167" x="145" y="1472.0748">Update Notification Status</text><text fill="#000000" font-family="sans-serif" font-size="13" lengthAdjust="spacing" textLength="128" x="145" y="1487.2076">Status := RECEIVED</text><!--SRC=[hLPDR-Cs4BtpLmnuYeF4JjBs8cmNI6mjDYZWTIstbyqUQ6bi4P19bgIS-j_la58aEN6wBbh05rBp-TxCeqNjjQftQxJ0Fpny_7fpyuqpGPSYzt8lF89MZAtrty0pL0LQpeomNkRI2ENfKkyGBbPMv2ZMifB-C89xOpW81_6M3hUWBNd2pR7hN7kvaRdmKYj8PrEuBuJnb27upjj3wthBhD9KZ9NRqdSV6OM0dL25yDeUWfil4QIYJw5yglnP-Z9UXlYvKB2cxpjJuGx9gc2YSfeSeidRBiQCVTRFk4Tx1GAStCbAMDZKAWONmOvTu7Wxle8D-hoa35vKUZjYrw4OL-hdaB7Ipt0DkzfvEZ1ZzLuMM8mPuGcnhMDSgDG8GHPgRjg_YxR4mh7bJBfSKtK7oD3kPOwDtwpr-gdXROavolqRvbxIBFiqF_zxRkzQrr-w2bd_wVfZZ9x0r68OfKYoS-XXeoqyAVvx7K64HxL7v-MscOLOiF7yIKNwE9yHhFT5OT4v7hDp_dcrMi3YIxQY2yfiDB7EBFhQAlZo6-j7Zshe3Way5iIxt11WjJEOUrXGmnTk11Du4CJW1ReHAx0R_ixrnn4V5lFOrlyMkGLjk2PFAlF2rmwINs6wJEzNwUoCcDai8KoThlOD1Mc7rs2dUj_GYDw0gsCRfcjZtRNH3-wF4V_35A-xWAQ9OJDPEb-TqSdBuYSGnEWuwELbEpUNb-yqjX27IeiY3521BhToZNHOqmODTx5Jde1SdDvFSRUdpMwpk9OVhhyMsfE2VEjc_DXg6AMl-fEaDAHNL7uLm9rgvODKdLQtQ1sKATVM1lEyDITwDXGwR4V261TXfHBI5PEe0IB-O90dmFzgbamETunVlUksGr_g8ZZQHZZu09m1HRq8lm7iaJP2X1zs7S8SjphUaYg_1-59urFXfPS-H0_240XMZl1uDspgl5XNqX4xfL0AgnCnWvJ0nDHabq_6u_5fHiwRe5X7b_qV8mVJCwCkswYTlBw47fBd9gVOTfEMogFSo_Dplt5RqLIMtXkI1rBe0WtPElgh4CTr8DUiVLj3xP6iAFzZM9MrkmBfNxcovhKPWGYFRvz_yAJqx3RmSdvtSqkF04bGWz20_korHVRQeb_DWLK_7GFBWQGDJF-RwYtJQVhuPphx3W00]--></g></svg>