<!DOCTYPE svg PUBLIC "-//W3C//DTD SVG 1.1//EN" "http://www.w3.org/Graphics/SVG/1.1/DTD/svg11.dtd">
<!-- Uploaded to: SVG Repo, www.svgrepo.com, Transformed by: SVG Repo Mixer Tools -->
<svg fill="#ffffff" height="800px" width="800px" version="1.1" id="Icons" xmlns="http://www.w3.org/2000/svg" xmlns:xlink="http://www.w3.org/1999/xlink" viewBox="0 0 32 32" xml:space="preserve" stroke="#ffffff">
<g id="SVGRepo_bgCarrier" stroke-width="0"/>
<g id="SVGRepo_tracerCarrier" stroke-linecap="round" stroke-linejoin="round"/>
<g id="SVGRepo_iconCarrier"> <path d="M29.9,17.5C29.7,17.2,29.4,17,29,17c-2.2,0-4.3,1-5.6,2.8L22.5,21c-1.1,1.3-2.8,2-4.5,2h-3c-0.6,0-1-0.4-1-1s0.4-1,1-1h1.9 c1.6,0,3.1-1.3,3.1-2.9c0,0,0-0.1,0-0.1c0-0.5-0.5-1-1-1l-6.1,0c-3.6,0-6.5,1.6-8.1,4.2l-2.7,4.2c-0.2,0.3-0.2,0.7,0,1l3,5 c0.1,0.2,0.4,0.4,0.6,0.5c0.1,0,0.1,0,0.2,0c0.2,0,0.4-0.1,0.6-0.2c3.8-2.5,8.2-3.8,12.7-3.8c3.3,0,6.3-1.8,7.9-4.7l2.7-4.8 C30,18.2,30,17.8,29.9,17.5z"/> <path d="M4.5,18c0.1,0,0.3,0,0.4,0c1.2-1.1,2.7-1.9,4.3-2.4C9.1,15.1,9,14.5,9,14c0-4.4,3.6-8,8-8s8,3.6,8,8c0,0.7-0.1,1.4-0.3,2.1 C26,15.4,27.5,15,29,15c0.7,0,1.4,0.3,1.9,0.7C31,15.1,31,14.6,31,14c0-1.1-0.1-2.2-0.4-3.3c-0.1-0.5-0.6-0.8-1.1-0.8 c-1.2,0.2-2.4-0.4-3-1.5c-0.6-1-0.5-2.4,0.2-3.3c0.3-0.4,0.3-1-0.1-1.3C25,2.3,23.1,1.2,21,0.6c-0.5-0.1-1,0.1-1.2,0.6 C19.3,2.3,18.2,3,17,3s-2.3-0.7-2.8-1.8C14,0.7,13.5,0.4,13,0.6C10.9,1.2,9,2.3,7.4,3.9C7,4.2,7,4.8,7.3,5.2c0.7,1,0.8,2.3,0.2,3.3 c-0.6,1-1.8,1.6-3,1.5c-0.5-0.1-1,0.3-1.1,0.8C3.1,11.8,3,12.9,3,14s0.1,2.2,0.4,3.3C3.5,17.8,4,18.1,4.5,18z"/> </g>
</svg>