<svg width="2952" height="2008" xmlns="http://www.w3.org/2000/svg" xmlns:xlink="http://www.w3.org/1999/xlink" xml:space="preserve" overflow="hidden"><g transform="translate(-719 -123)"><g><rect x="724" y="124" width="2947" height="2007" fill="#000000" fill-opacity="1"/><path d="M1884.5 1963.33C1884.5 1949.07 1896.07 1937.5 1910.33 1937.5L2574.67 1937.5C2588.93 1937.5 2600.5 1949.07 2600.5 1963.33L2600.5 2066.67C2600.5 2080.93 2588.93 2092.5 2574.67 2092.5L1910.33 2092.5C1896.07 2092.5 1884.5 2080.93 1884.5 2066.67Z" stroke="#FFA600" stroke-width="6.875" stroke-linecap="butt" stroke-linejoin="round" stroke-miterlimit="10" stroke-opacity="1" fill="#FFA600" fill-rule="evenodd" fill-opacity="1"/><text fill="#000000" fill-opacity="1" font-family="Calibri,Calibri_MSFontService,sans-serif" font-style="normal" font-variant="normal" font-weight="700" font-stretch="normal" font-size="83" text-anchor="start" direction="ltr" writing-mode="lr-tb" unicode-bidi="normal" text-decoration="none" transform="matrix(1 0 0 1 1999.44 2042)">Internal Efforts</text><path d="M1692.5 1597.5C1692.5 1583.14 1704.14 1571.5 1718.5 1571.5L2728.5 1571.5C2742.86 1571.5 2754.5 1583.14 2754.5 1597.5L2754.5 1701.5C2754.5 1715.86 2742.86 1727.5 2728.5 1727.5L1718.5 1727.5C1704.14 1727.5 1692.5 1715.86 1692.5 1701.5Z" stroke="#B3CB2D" stroke-width="6.875" stroke-linecap="butt" stroke-linejoin="round" stroke-miterlimit="10" stroke-opacity="1" fill="#B3CB2D" fill-rule="evenodd" fill-opacity="1"/><text fill="#000000" fill-opacity="1" font-family="Calibri,Calibri_MSFontService,sans-serif" font-style="normal" font-variant="normal" font-weight="700" font-stretch="normal" font-size="83" text-anchor="start" direction="ltr" writing-mode="lr-tb" unicode-bidi="normal" text-decoration="none" transform="matrix(1 0 0 1 1984.39 1677)">Business Value</text><path d="M2173 1841 2242 1773 2311 1841 2276.5 1841 2276.5 1909 2207.5 1909 2207.5 1841Z" fill="#FFFFFF" fill-rule="evenodd" fill-opacity="1"/><g><g><g><path d="M170.8 117.4 170.8 103.2C170.8 93.5999 155.4 87.1999 136.8 84.5999L136.8 73.1999C136.8 69.9999 135 65.5999 126.8 61.3999L126.8 47.2C126.8 34.2 98.9999 27.2 72.7999 27.2 46.6 27.2 18.8 34.2 18.8 47.2L18.8 63.1999C18.8 67.9999 22.6 71.9999 28.8 75.1999L28.8 89.1999C28.8 89.1999 28.8 89.1999 28.8 89.3999 20.6 93.5999 18.8 98.1999 18.8 101.2L18.8 117.2C18.8 130.2 46.6 137.2 72.7999 137.2L72.7999 145.2C72.7999 158.2 100.6 165.2 126.8 165.2 153 165.2 180.8 158.2 180.8 145.2L180.8 129.2C180.8 126.2 179 121.6 170.8 117.4ZM176.8 129.4C176.8 137 156.2 145.4 126.8 145.4 103.4 145.4 85.5999 140 79.1999 134 79.1999 134 79.1999 134 79.1999 134 91.3999 137.8 104 139.6 116.6 139.4 141 139.4 167 133.2 170.2 122 174.6 124.2 176.8 126.8 176.8 129.4ZM142.8 148.4 142.8 160.4C140.2 160.6 137.6 161 134.8 161L134.8 149C137.6 149 140.2 148.8 142.8 148.4ZM146.8 148C149.6 147.6 152.2 147.2 154.8 146.6L154.8 158.4C152.4 159 149.6 159.4 146.8 159.8L146.8 148ZM158.8 145.6C161.6 145 164.2 144 166.8 143L166.8 154.6C164.2 155.8 161.6 156.6 158.8 157.4L158.8 145.6ZM94.7999 157.4C91.9999 156.6 89.3999 155.8 86.7999 154.6L86.7999 143C89.3999 144 91.9999 144.8 94.7999 145.6L94.7999 157.4ZM98.7999 146.6C101.4 147.2 104 147.6 106.8 148L106.8 160C104 159.6 101.2 159 98.7999 158.6L98.7999 146.6ZM110.8 148.4C113.4 148.6 116.2 149 118.8 149L118.8 161C116 160.8 113.4 160.6 110.8 160.4L110.8 148.4ZM62.7999 103.4 62.7999 104C59.9999 103.6 57.1999 103 54.7999 102.6L54.7999 90.7999C57.3999 91.3999 59.9999 91.7999 62.7999 92.1999L62.7999 103.4ZM66.7999 119.4 66.7999 111.4C68.5999 113 70.5999 114.4 72.7999 115.4L72.7999 126.8C68.9999 124.2 66.7999 121.8 66.7999 119.4ZM166.8 119.4C166.8 121.8 164.6 124.4 160.8 126.6L160.8 115.2C163 114.2 165 112.8 166.8 111.2L166.8 119.4ZM156.8 128.6C154.2 129.8 151.6 130.6 148.8 131.4L148.8 119.6C151.6 119 154.2 118 156.8 117L156.8 128.6ZM144.8 132.4C142.4 133 139.6 133.4 136.8 133.8L136.8 121.8C139.6 121.4 142.2 121 144.8 120.4L144.8 132.4ZM132.8 134.4C130.2 134.6 127.6 135 124.8 135L124.8 123C127.4 122.8 130.2 122.6 132.8 122.4L132.8 134.4ZM120.8 135.2C119.4 135.2 118.2 135.2 116.8 135.2 115.4 135.2 114.2 135.2 112.8 135.2L112.8 123.2C114.2 123.2 115.4 123.2 116.8 123.2 118.2 123.2 119.4 123.2 120.8 123.2L120.8 135.2ZM108.8 135.2C106 135 103.4 134.8 100.8 134.6L100.8 122.6C103.4 122.8 106.2 123.2 108.8 123.2L108.8 135.2ZM96.7999 134C93.9999 133.6 91.1999 133 88.7999 132.6L88.7999 120.8C91.3999 121.4 93.9999 121.8 96.7999 122.2L96.7999 134ZM84.7999 131.4C81.9999 130.6 79.3999 129.8 76.7999 128.6L76.7999 117C79.3999 118 81.9999 118.8 84.7999 119.6L84.7999 131.4ZM166.8 103.4C166.8 111 146.2 119.4 116.8 119.4 87.3999 119.4 66.7999 111 66.7999 103.4 66.7999 95.7999 87.3999 87.3999 116.8 87.3999 146.2 87.3999 166.8 95.7999 166.8 103.4ZM66.7999 95.3999 66.7999 92.3999C67.9999 92.5999 69.1999 92.5999 70.3999 92.7999 69.1999 93.5999 67.9999 94.3999 66.7999 95.3999ZM129.4 83.7999C130.6 82.9999 131.8 82.1999 133 81.1999L133 84.1999C131.6 83.9999 130.6 83.9999 129.4 83.7999ZM126.4 65.7999C130.6 68.1999 132.8 70.7999 132.8 73.1999 132.8 76.5999 128.4 80.3999 121 83.1999 119.6 83.1999 118.2 83.1999 116.8 83.1999 102.8 83.1999 88.1999 85.1999 77.7999 89.1999 56.7999 88.5999 41.2 83.5999 35.4 77.9999 35.4 77.9999 35.4 77.9999 35.4 77.9999 47.5999 81.7999 60.1999 83.5999 72.7999 83.3999 97.1999 83.3999 123.2 77.1999 126.4 65.7999ZM50.7999 89.5999 50.7999 101.4C48 100.6 45.4 99.7999 42.8 98.5999L42.8 86.9999C45.4 87.9999 48.2 88.9999 50.7999 89.5999ZM38.8 85.1999 38.8 96.5999C35 94.1999 32.8 91.7999 32.8 89.3999L32.8 81.3999C34.6 82.7999 36.6 84.1999 38.8 85.1999ZM32.8 72.5999 32.8 60.9999C35.4 61.9999 38 62.7999 40.8 63.5999L40.8 75.3999C38.2 74.5999 35.4 73.7999 32.8 72.5999ZM44.8 76.3999 44.8 64.5999C47.4 65.1999 50 65.5999 52.7999 65.9999L52.7999 77.9999C50 77.5999 47.4 76.9999 44.8 76.3999ZM56.7999 78.3999 56.7999 66.3999C59.3999 66.5999 62.1999 66.9999 64.7999 66.9999L64.7999 78.9999C61.9999 78.9999 59.3999 78.7999 56.7999 78.3999ZM68.7999 79.1999 68.7999 67.1999C70.1999 67.1999 71.3999 67.1999 72.7999 67.1999 74.1999 67.1999 75.3999 67.1999 76.7999 67.1999L76.7999 79.1999C75.3999 79.1999 74.1999 79.1999 72.7999 79.1999 71.3999 79.1999 70.1999 79.3999 68.7999 79.1999ZM80.7999 79.1999 80.7999 67.1999C83.3999 66.9999 86.1999 66.7999 88.7999 66.5999L88.7999 78.5999C86.1999 78.7999 83.5999 78.9999 80.7999 79.1999ZM92.7999 77.9999 92.7999 65.9999C95.5999 65.5999 98.1999 65.1999 100.8 64.5999L100.8 76.3999C98.3999 76.9999 95.5999 77.5999 92.7999 77.9999ZM104.8 75.3999 104.8 63.5999C107.6 62.9999 110.2 61.9999 112.8 60.9999L112.8 72.5999C110.2 73.7999 107.6 74.5999 104.8 75.3999ZM116.8 70.5999 116.8 59.1999C119 58.1999 121 56.7999 122.8 55.1999L122.8 63.1999C122.8 65.7999 120.8 68.1999 116.8 70.5999ZM28.8 70.5999C25 68.1999 22.8 65.7999 22.8 63.3999L22.8 55.3999C24.6 56.9999 26.6 58.3999 28.8 59.3999L28.8 70.5999ZM22.8 47.4C22.8 39.8 43.4 31.4 72.7999 31.4 102.2 31.4 122.8 39.8 122.8 47.4 122.8 54.9999 102.2 63.3999 72.7999 63.3999 43.4 63.3999 22.8 54.7999 22.8 47.4ZM29.8 93.3999C33.4 100.8 47 105.6 62.7999 107.8L62.7999 116.8C38.8 115.2 22.8 107.8 22.8 101.2 22.8 98.5999 25.4 95.9999 29.8 93.3999ZM28.8 124.6C25 122.2 22.8 119.8 22.8 117.4L22.8 109.4C24.6 111 26.6 112.4 28.8 113.4L28.8 124.6ZM40.8 129.4C38 128.6 35.4 127.8 32.8 126.6L32.8 115C35.4 116 38 116.8 40.8 117.6L40.8 129.4ZM52.7999 132C50 131.6 47.2 131 44.8 130.6L44.8 118.8C47.4 119.4 50 119.8 52.7999 120.2L52.7999 132ZM56.7999 120.4C58.7999 120.6 60.7999 120.8 62.9999 121 63.1999 122.4 63.9999 123.8 64.7999 125.2L64.7999 133.2C61.9999 133 59.3999 132.8 56.7999 132.6L56.7999 120.4ZM68.7999 128.8C69.9999 129.6 71.3999 130.4 72.7999 131.2L72.7999 133.2C71.3999 133.2 70.1999 133.2 68.7999 133.2L68.7999 128.8ZM76.7999 145.4 76.7999 137.4C78.5999 139 80.5999 140.4 82.7999 141.4L82.7999 152.8C78.9999 150.2 76.7999 147.8 76.7999 145.4ZM122.8 149.2C124.2 149.2 125.4 149.2 126.8 149.2 128.2 149.2 129.4 149.2 130.8 149.2L130.8 161.2C129.4 161.2 128.2 161.2 126.8 161.2 125.4 161.2 124.2 161.2 122.8 161.2L122.8 149.2ZM170.8 141.2C173 140.2 175 138.8 176.8 137.2L176.8 145.2C176.8 147.6 174.6 150.2 170.8 152.4L170.8 141.2Z" fill="#000000" fill-rule="nonzero" fill-opacity="1" transform="matrix(1 0 0 1 1692 1553)"/></g></g></g><g><g><g><path d="M121.804 105.746C118.046 101.987 111.896 102.158 107.283 105.746L100.108 98.5708C118.729 78.4125 117.533 47.15 97.375 28.5292 77.2167 9.90833 46.125 11.275 27.5042 31.4333 8.88333 51.5917 10.25 82.8541 30.2375 101.475 49.3708 119.242 78.925 119.071 97.8875 101.133L105.062 108.308C103.525 110.187 102.671 112.579 102.329 114.971 101.987 117.875 103.012 120.779 105.062 122.829L129.15 146.917C131.029 148.625 133.421 149.65 135.983 149.65 139.4 149.65 142.475 148.283 144.867 145.892 147.087 143.842 148.454 140.937 148.625 137.862 148.967 134.958 147.942 132.054 145.892 130.004L121.804 105.746ZM31.4333 97.5458C13.4958 79.6083 13.4958 50.3958 31.4333 32.2875 49.3708 14.1792 78.5833 14.35 96.6916 32.2875 114.8 50.225 114.629 79.4375 96.6916 97.5458 87.9791 106.258 76.3625 111.042 64.0625 111.042 51.9333 111.042 40.1458 106.258 31.4333 97.5458ZM142.304 143.158C139.058 146.404 134.104 146.917 131.371 144.183L107.454 120.267C106.087 118.9 105.575 117.021 105.746 115.142 105.917 112.921 106.942 110.871 108.65 109.333 110.358 107.625 112.75 106.6 115.142 106.429 116.85 106.429 118.387 106.942 119.583 108.137L143.5 132.225C144.867 133.592 145.379 135.471 145.208 137.35 144.867 139.571 144.012 141.621 142.304 143.158 142.304 143.158 142.304 143.158 142.304 143.158Z" stroke="#000000" stroke-width="1.70833" stroke-linecap="butt" stroke-linejoin="miter" stroke-miterlimit="4" stroke-opacity="1" fill="#000000" fill-rule="nonzero" fill-opacity="1" transform="matrix(-1 0 0 1 2745 1563)"/></g></g></g><path d="M1685.5 353.501C1685.5 317.05 1715.05 287.5 1751.5 287.5L2645.5 287.5C2681.95 287.5 2711.5 317.05 2711.5 353.501L2711.5 617.499C2711.5 653.95 2681.95 683.5 2645.5 683.5L1751.5 683.5C1715.05 683.5 1685.5 653.95 1685.5 617.499Z" stroke="#FFA600" stroke-width="6.875" stroke-linecap="butt" stroke-linejoin="round" stroke-miterlimit="10" stroke-opacity="1" fill="none" fill-rule="evenodd"/><text fill="#FFA600" fill-opacity="1" font-family="Calibri,Calibri_MSFontService,sans-serif" font-style="normal" font-variant="normal" font-weight="700" font-stretch="normal" font-size="83" text-anchor="start" direction="ltr" writing-mode="lr-tb" unicode-bidi="normal" text-decoration="none" transform="matrix(1 0 0 1 1768.9 384)">Supply Chain </text><text fill="#FFA600" fill-opacity="1" font-family="Calibri,Calibri_MSFontService,sans-serif" font-style="normal" font-variant="normal" font-weight="700" font-stretch="normal" font-size="83" text-anchor="start" direction="ltr" writing-mode="lr-tb" unicode-bidi="normal" text-decoration="none" transform="matrix(1 0 0 1 2229.53 384)">Condition</text><text fill="#FFFFFF" fill-opacity="1" font-family="Arial,Arial_MSFontService,sans-serif" font-style="normal" font-variant="normal" font-weight="400" font-stretch="normal" font-size="64" text-anchor="start" direction="ltr" writing-mode="lr-tb" unicode-bidi="normal" text-decoration="none" transform="matrix(1 0 0 1 1768.9 466)">•</text><text fill="#FFFFFF" fill-opacity="1" font-family="Calibri,Calibri_MSFontService,sans-serif" font-style="normal" font-variant="normal" font-weight="400" font-stretch="normal" font-size="64" text-anchor="start" direction="ltr" writing-mode="lr-tb" unicode-bidi="normal" text-decoration="none" transform="matrix(1 0 0 1 1872.03 466)">Normal Operation</text><text fill="#FFFFFF" fill-opacity="1" font-family="Arial,Arial_MSFontService,sans-serif" font-style="normal" font-variant="normal" font-weight="400" font-stretch="normal" font-size="64" text-anchor="start" direction="ltr" writing-mode="lr-tb" unicode-bidi="normal" text-decoration="none" transform="matrix(1 0 0 1 1768.9 543)">•</text><text fill="#FFFFFF" fill-opacity="1" font-family="Calibri,Calibri_MSFontService,sans-serif" font-style="normal" font-variant="normal" font-weight="400" font-stretch="normal" font-size="64" text-anchor="start" direction="ltr" writing-mode="lr-tb" unicode-bidi="normal" text-decoration="none" transform="matrix(1 0 0 1 1872.03 543)">Isolated</text><text fill="#FFFFFF" fill-opacity="1" font-family="Calibri,Calibri_MSFontService,sans-serif" font-style="normal" font-variant="normal" font-weight="400" font-stretch="normal" font-size="64" text-anchor="start" direction="ltr" writing-mode="lr-tb" unicode-bidi="normal" text-decoration="none" transform="matrix(1 0 0 1 2093.61 543)">Bottleneck</text><text fill="#FFFFFF" fill-opacity="1" font-family="Arial,Arial_MSFontService,sans-serif" font-style="normal" font-variant="normal" font-weight="400" font-stretch="normal" font-size="64" text-anchor="start" direction="ltr" writing-mode="lr-tb" unicode-bidi="normal" text-decoration="none" transform="matrix(1 0 0 1 1768.9 620)">•</text><text fill="#FFFFFF" fill-opacity="1" font-family="Calibri,Calibri_MSFontService,sans-serif" font-style="normal" font-variant="normal" font-weight="400" font-stretch="normal" font-size="64" text-anchor="start" direction="ltr" writing-mode="lr-tb" unicode-bidi="normal" text-decoration="none" transform="matrix(1 0 0 1 1872.03 620)">Widespread</text><text fill="#FFFFFF" fill-opacity="1" font-family="Calibri,Calibri_MSFontService,sans-serif" font-style="normal" font-variant="normal" font-weight="400" font-stretch="normal" font-size="64" text-anchor="start" direction="ltr" writing-mode="lr-tb" unicode-bidi="normal" text-decoration="none" transform="matrix(1 0 0 1 2201.75 620)">Bottleneck</text><path d="M2583.5 857.502C2583.5 821.05 2613.05 791.5 2649.5 791.5L3483.5 791.5C3519.95 791.5 3549.5 821.05 3549.5 857.502L3549.5 1121.5C3549.5 1157.95 3519.95 1187.5 3483.5 1187.5L2649.5 1187.5C2613.05 1187.5 2583.5 1157.95 2583.5 1121.5Z" stroke="#FFA600" stroke-width="6.875" stroke-linecap="butt" stroke-linejoin="round" stroke-miterlimit="10" stroke-opacity="1" fill="none" fill-rule="evenodd"/><text fill="#FFA600" fill-opacity="1" font-family="Calibri,Calibri_MSFontService,sans-serif" font-style="normal" font-variant="normal" font-weight="700" font-stretch="normal" font-size="83" text-anchor="start" direction="ltr" writing-mode="lr-tb" unicode-bidi="normal" text-decoration="none" transform="matrix(1 0 0 1 2667.69 887)">PURIS </text><text fill="#FFA600" fill-opacity="1" font-family="Calibri,Calibri_MSFontService,sans-serif" font-style="normal" font-variant="normal" font-weight="700" font-stretch="normal" font-size="83" text-anchor="start" direction="ltr" writing-mode="lr-tb" unicode-bidi="normal" text-decoration="none" transform="matrix(1 0 0 1 2891.7 887)">Usage</text><text fill="#FFA600" fill-opacity="1" font-family="Calibri,Calibri_MSFontService,sans-serif" font-style="normal" font-variant="normal" font-weight="700" font-stretch="normal" font-size="83" text-anchor="start" direction="ltr" writing-mode="lr-tb" unicode-bidi="normal" text-decoration="none" transform="matrix(1 0 0 1 3117.11 887)">Scenario</text><text fill="#FFFFFF" fill-opacity="1" font-family="Arial,Arial_MSFontService,sans-serif" font-style="normal" font-variant="normal" font-weight="400" font-stretch="normal" font-size="64" text-anchor="start" direction="ltr" writing-mode="lr-tb" unicode-bidi="normal" text-decoration="none" transform="matrix(1 0 0 1 2667.69 969)">•</text><text fill="#FFFFFF" fill-opacity="1" font-family="Calibri,Calibri_MSFontService,sans-serif" font-style="normal" font-variant="normal" font-weight="400" font-stretch="normal" font-size="64" text-anchor="start" direction="ltr" writing-mode="lr-tb" unicode-bidi="normal" text-decoration="none" transform="matrix(1 0 0 1 2770.81 969)">Bottleneck Management</text><text fill="#FFFFFF" fill-opacity="1" font-family="Arial,Arial_MSFontService,sans-serif" font-style="normal" font-variant="normal" font-weight="400" font-stretch="normal" font-size="64" text-anchor="start" direction="ltr" writing-mode="lr-tb" unicode-bidi="normal" text-decoration="none" transform="matrix(1 0 0 1 2667.69 1046)">•</text><text fill="#FFFFFF" fill-opacity="1" font-family="Calibri,Calibri_MSFontService,sans-serif" font-style="normal" font-variant="normal" font-weight="400" font-stretch="normal" font-size="64" text-anchor="start" direction="ltr" writing-mode="lr-tb" unicode-bidi="normal" text-decoration="none" transform="matrix(1 0 0 1 2770.81 1046)">Monitoring</text><path d="M851.5 857.502C851.5 821.05 881.05 791.5 917.501 791.5L1751.5 791.5C1787.95 791.5 1817.5 821.05 1817.5 857.502L1817.5 1121.5C1817.5 1157.95 1787.95 1187.5 1751.5 1187.5L917.501 1187.5C881.05 1187.5 851.5 1157.95 851.5 1121.5Z" stroke="#FFA600" stroke-width="6.875" stroke-linecap="butt" stroke-linejoin="round" stroke-miterlimit="10" stroke-opacity="1" fill="none" fill-rule="evenodd"/><text fill="#FFA600" fill-opacity="1" font-family="Calibri,Calibri_MSFontService,sans-serif" font-style="normal" font-variant="normal" font-weight="700" font-stretch="normal" font-size="83" text-anchor="start" direction="ltr" writing-mode="lr-tb" unicode-bidi="normal" text-decoration="none" transform="matrix(1 0 0 1 935.646 887)">Potential</text><text fill="#FFFFFF" fill-opacity="1" font-family="Arial,Arial_MSFontService,sans-serif" font-style="normal" font-variant="normal" font-weight="400" font-stretch="normal" font-size="64" text-anchor="start" direction="ltr" writing-mode="lr-tb" unicode-bidi="normal" text-decoration="none" transform="matrix(1 0 0 1 935.646 969)">•</text><text fill="#FFFFFF" fill-opacity="1" font-family="Calibri,Calibri_MSFontService,sans-serif" font-style="normal" font-variant="normal" font-weight="400" font-stretch="normal" font-size="64" text-anchor="start" direction="ltr" writing-mode="lr-tb" unicode-bidi="normal" text-decoration="none" transform="matrix(1 0 0 1 1038.77 969)">Costs</text><text fill="#FFFFFF" fill-opacity="1" font-family="Arial,Arial_MSFontService,sans-serif" font-style="normal" font-variant="normal" font-weight="400" font-stretch="normal" font-size="64" text-anchor="start" direction="ltr" writing-mode="lr-tb" unicode-bidi="normal" text-decoration="none" transform="matrix(1 0 0 1 935.646 1046)">•</text><text fill="#FFFFFF" fill-opacity="1" font-family="Calibri,Calibri_MSFontService,sans-serif" font-style="normal" font-variant="normal" font-weight="400" font-stretch="normal" font-size="64" text-anchor="start" direction="ltr" writing-mode="lr-tb" unicode-bidi="normal" text-decoration="none" transform="matrix(1 0 0 1 1038.77 1046)">Optimizations</text><path d="M20.7378 10.3417 43.2547 26.129 39.3079 31.7583 16.791 15.9709ZM60.1424 37.9695 82.6593 53.7568 78.7125 59.386 56.1956 43.5987ZM99.547 65.5973 122.064 81.3846 118.117 87.0138 95.6002 71.2265ZM138.952 93.2251 161.469 109.012 157.522 114.642 135.005 98.8543ZM178.356 120.853 200.873 136.64 196.926 142.269 174.409 126.482ZM217.761 148.481 240.278 164.268 236.331 169.897 213.814 154.11ZM257.165 176.108 279.682 191.896 275.735 197.525 253.219 181.738ZM296.57 203.736 319.087 219.523 315.14 225.153 292.623 209.365ZM14.6232 27.0458 0 0 30.4106 4.52886ZM322.022 208.987 336.645 236.033 306.235 231.504Z" fill="#FFA600" fill-rule="nonzero" fill-opacity="1" transform="matrix(1 0 0 -1 1334.5 721.533)"/><path d="M2750.24 495.841 2772.75 511.629 2768.81 517.258 2746.29 501.471ZM2789.64 523.469 2812.16 539.257 2808.21 544.886 2785.7 529.098ZM2829.05 551.097 2851.56 566.884 2847.62 572.513 2825.1 556.726ZM2868.45 578.725 2890.97 594.512 2887.02 600.141 2864.5 584.354ZM2907.86 606.353 2930.37 622.14 2926.43 627.769 2903.91 611.982ZM2947.26 633.98 2969.78 649.768 2965.83 655.397 2943.31 639.609ZM2986.67 661.608 3009.18 677.395 3005.24 683.025 2982.72 667.237ZM3026.07 689.236 3048.59 705.023 3044.64 710.652 3022.12 694.865ZM2744.12 512.546 2729.5 485.5 2759.91 490.029ZM3051.52 694.487 3066.15 721.533 3035.74 717.004Z" fill="#FFA600" fill-rule="nonzero" fill-opacity="1"/><path d="M1907.42 986.063 1934.92 986.063 1934.92 992.938 1907.42 992.938ZM1955.54 986.063 1983.04 986.063 1983.04 992.938 1955.54 992.938ZM2003.67 986.063 2031.17 986.063 2031.17 992.938 2003.67 992.938ZM2051.79 986.063 2079.29 986.063 2079.29 992.938 2051.79 992.938ZM2099.92 986.063 2127.42 986.063 2127.42 992.938 2099.92 992.938ZM2148.04 986.063 2175.54 986.063 2175.54 992.938 2148.04 992.938ZM2196.17 986.063 2223.67 986.063 2223.67 992.938 2196.17 992.938ZM2244.29 986.063 2271.79 986.063 2271.79 992.938 2244.29 992.938ZM2292.42 986.063 2319.92 986.063 2319.92 992.938 2292.42 992.938ZM2340.54 986.063 2368.04 986.063 2368.04 992.938 2340.54 992.938ZM2388.67 986.063 2416.17 986.063 2416.17 992.938 2388.67 992.938ZM2436.79 986.063 2464.29 986.063 2464.29 992.938 2436.79 992.938ZM1912 1003.25 1884.5 989.5 1912 975.75ZM2480.33 975.751 2507.83 989.501 2480.33 1003.25Z" fill="#FFA600" fill-rule="nonzero" fill-opacity="1"/><path d="M768.5 350.339C768.5 247.703 851.703 164.5 954.338 164.5L3435.66 164.5C3538.3 164.5 3621.5 247.703 3621.5 350.339L3621.5 1093.66C3621.5 1196.3 3538.3 1279.5 3435.66 1279.5L954.338 1279.5C851.703 1279.5 768.5 1196.3 768.5 1093.66Z" stroke="#FFFFFF" stroke-width="6.875" stroke-linecap="butt" stroke-linejoin="round" stroke-miterlimit="10" stroke-opacity="1" fill="none" fill-rule="evenodd"/><path d="M1865.5 1232.33C1865.5 1218.07 1877.07 1206.5 1891.33 1206.5L2555.67 1206.5C2569.93 1206.5 2581.5 1218.07 2581.5 1232.33L2581.5 1335.67C2581.5 1349.93 2569.93 1361.5 2555.67 1361.5L1891.33 1361.5C1877.07 1361.5 1865.5 1349.93 1865.5 1335.67Z" stroke="#FFA600" stroke-width="6.875" stroke-linecap="butt" stroke-linejoin="round" stroke-miterlimit="10" stroke-opacity="1" fill="#FFA600" fill-rule="evenodd" fill-opacity="1"/><text fill="#000000" fill-opacity="1" font-family="Calibri,Calibri_MSFontService,sans-serif" font-style="normal" font-variant="normal" font-weight="700" font-stretch="normal" font-size="83" text-anchor="start" direction="ltr" writing-mode="lr-tb" unicode-bidi="normal" text-decoration="none" transform="matrix(1 0 0 1 2095.84 1311)">Benefits</text><g><g><g><path d="M111.023 8.57455C111.743 8.57232 112.463 8.61003 113.179 8.68749L102.609 19.2573 106.229 32.7678 119.75 36.3876 130.152 25.8685C131.246 36.4379 123.564 45.893 112.995 46.9869 112.354 47.0532 111.711 47.0874 111.067 47.0891 109.413 47.0892 107.766 46.8696 106.17 46.4361L104.548 45.993 45.9699 104.571 46.4491 106.218C48.4016 113.15 46.2561 120.589 40.9123 125.417 37.3742 128.638 32.7615 130.424 27.9766 130.425 27.2564 130.427 26.5367 130.39 25.8207 130.312L36.3905 119.743 32.7779 106.238 19.4136 102.618 8.85111 113.166C7.73873 102.598 15.4044 93.1288 25.9726 92.0165 26.624 91.9478 27.2783 91.9127 27.9332 91.9108 29.5871 91.9105 31.2339 92.1301 32.83 92.5638L34.4517 93.0068 93.03 34.4285 92.5507 32.7823C90.5982 25.8504 92.7438 18.4107 98.0876 13.5829 101.626 10.3615 106.238 8.57567 111.023 8.57455M111.023 5.67872C98.8605 5.66105 88.9861 15.5066 88.9685 27.6695 88.9656 29.6708 89.2355 31.6632 89.7708 33.5916L33.5916 89.7708C31.7474 89.2685 29.8446 89.0142 27.9332 89.0149 15.7071 89.0443 5.81987 98.9792 5.84923 111.205 5.85553 113.824 6.32626 116.42 7.23958 118.874L20.2708 105.843 30.4062 108.594 33.1573 118.874 20.126 131.905C22.6382 132.839 25.2964 133.319 27.9766 133.321 40.1394 133.339 50.0137 123.493 50.0314 111.33 50.0343 109.329 49.7644 107.337 49.2291 105.408L105.408 49.2291C107.252 49.7314 109.155 49.9857 111.067 49.9849 123.293 49.9555 133.18 40.0207 133.151 27.7946 133.144 25.1764 132.674 22.58 131.76 20.126L118.874 33.1573 108.594 30.4062 105.843 20.126 118.874 7.09479C116.362 6.16045 113.703 5.68094 111.023 5.67872Z" fill="#FFFFFF" fill-rule="nonzero" fill-opacity="1" transform="matrix(1 0 0 1 3406 1024)"/></g></g></g><g><g><g><path d="M1707.98 1102.74C1707.1 1103.08 1706.67 1104.06 1707 1104.94 1707.34 1105.81 1708.32 1106.25 1709.2 1105.91 1709.22 1105.9 1709.24 1105.9 1709.26 1105.89L1714.01 1103.95 1714.01 1148.42 1698.73 1148.42 1698.73 1151.81 1717.41 1151.81 1717.41 1102.57 1759.83 1085.31 1759.85 1085.33 1759.85 1129.74 1744.57 1129.74 1744.57 1133.14 1763.25 1133.14 1763.25 1085.8 1755.34 1083.47Z" fill="#FFFFFF" fill-rule="nonzero" fill-opacity="1"/><path d="M1742.75 1030.04C1748.57 1030.04 1753.28 1025.33 1753.28 1019.52 1753.28 1013.7 1748.57 1008.99 1742.75 1008.99 1736.94 1008.99 1732.22 1013.7 1732.22 1019.52 1732.22 1025.33 1736.94 1030.04 1742.75 1030.04ZM1742.75 1012.39C1746.69 1012.39 1749.88 1015.58 1749.88 1019.52 1749.88 1023.46 1746.69 1026.65 1742.75 1026.65 1738.81 1026.65 1735.62 1023.46 1735.62 1019.52 1735.62 1015.58 1738.81 1012.39 1742.75 1012.38Z" fill="#FFFFFF" fill-rule="nonzero" fill-opacity="1"/><path d="M1782.76 1073.33C1781.72 1071.41 1779.95 1069.99 1777.85 1069.38L1745.93 1060C1744.69 1059.64 1743.38 1059.57 1742.11 1059.81L1732.9 1061.52 1740.73 1051.86 1741.68 1052.16 1766.32 1060.38C1770.64 1061.8 1775.3 1059.45 1776.72 1055.13 1776.72 1055.13 1776.72 1055.13 1776.72 1055.13 1778.12 1050.83 1775.8 1046.21 1771.53 1044.75L1732.33 1031.68C1732.33 1031.68 1731.46 1031.42 1730.98 1031.34 1730.56 1031.29 1730.13 1031.26 1729.7 1031.26L1703.75 1031.26C1701.42 1031.26 1699.2 1032.25 1697.64 1033.98L1684.47 1048.56C1681.35 1051.87 1681.5 1057.08 1684.81 1060.2 1686.24 1061.55 1688.11 1062.35 1690.07 1062.44 1692.54 1062.56 1694.93 1061.57 1696.59 1059.73L1707.41 1047.73 1709.21 1047.73 1711.87 1044.33 1705.9 1044.33 1694.06 1057.45C1692.27 1059.44 1689.2 1059.59 1687.22 1057.8 1686.96 1057.57 1686.73 1057.31 1686.53 1057.04 1685.2 1055.12 1685.39 1052.53 1686.99 1050.83L1700.16 1036.25C1701.08 1035.23 1702.38 1034.66 1703.75 1034.66L1729.71 1034.66C1730.02 1034.66 1730.31 1034.67 1730.48 1034.68 1730.72 1034.73 1731.29 1034.91 1731.29 1034.91L1770.44 1047.98C1772.98 1048.84 1774.33 1051.58 1773.48 1054.12 1773.07 1055.32 1772.21 1056.31 1771.07 1056.89 1769.93 1057.47 1768.6 1057.57 1767.39 1057.17L1739.58 1047.88 1737.75 1047.37C1736.86 1047.06 1735.9 1047.53 1735.59 1048.42 1735.28 1049.3 1735.75 1050.27 1736.64 1050.58 1736.67 1050.59 1736.7 1050.6 1736.73 1050.61L1737.24 1050.78 1728.87 1061.1 1724.44 1066.22C1723.84 1066.93 1723.92 1068 1724.64 1068.61 1725.34 1069.21 1726.4 1069.13 1727.01 1068.44L1729.45 1065.63 1742.72 1063.16C1743.47 1063.03 1744.24 1063.07 1744.97 1063.28L1776.89 1072.65C1779.46 1073.4 1780.93 1076.09 1780.17 1078.66 1779.42 1081.23 1776.73 1082.69 1774.16 1081.94L1743.36 1072.88 1709.17 1079.22C1709.11 1079.23 1709.06 1079.27 1709.01 1079.29 1708.23 1079.23 1707.53 1079.71 1707.29 1080.45L1702.76 1095.02C1702.21 1096.84 1700.65 1098.18 1698.76 1098.43L1667.51 1102.53C1667.3 1102.56 1667.09 1102.57 1666.88 1102.57 1664.21 1102.57 1662.04 1100.41 1662.04 1097.73 1662.04 1095.3 1663.84 1093.25 1666.25 1092.93L1694.34 1089.24 1700.14 1071.9C1702.65 1068.2 1712.84 1054.43 1716.77 1049.15L1721.12 1043.6C1721.7 1042.87 1721.57 1041.8 1720.83 1041.22 1720.09 1040.64 1719.02 1040.77 1718.45 1041.51L1716.22 1044.33 1716.18 1044.33 1713.52 1047.73 1713.58 1047.73C1709.28 1053.53 1699.47 1066.78 1697.19 1070.19L1696.99 1070.6 1691.79 1086.14 1665.82 1089.56C1661.3 1090.13 1658.11 1094.26 1658.69 1098.77 1659.21 1102.9 1662.73 1105.98 1666.88 1105.97 1667.24 1105.97 1667.61 1105.95 1667.96 1105.9L1699.2 1101.8C1702.41 1101.37 1705.08 1099.11 1706.02 1096.01L1710.22 1082.48 1743.19 1076.37 1763.04 1082.2 1763.25 1082.26 1773.2 1085.18C1777.57 1086.46 1782.15 1083.96 1783.43 1079.6 1784.05 1077.5 1783.8 1075.25 1782.76 1073.33Z" fill="#FFFFFF" fill-rule="nonzero" fill-opacity="1"/></g></g></g><g><g><g><path d="M40.7917 107.56C32.5994 107.56 25.9583 114.201 25.9583 122.394 25.9583 130.586 32.5994 137.227 40.7917 137.227 48.984 137.227 55.625 130.586 55.625 122.394 55.6148 114.206 48.9797 107.57 40.7917 107.56ZM40.7917 133.519C34.6475 133.519 29.6667 128.538 29.6667 122.394 29.6667 116.249 34.6475 111.269 40.7917 111.269 46.9358 111.269 51.9167 116.249 51.9167 122.394 51.9126 128.537 46.9353 133.518 40.7917 133.526Z" fill="#FFFFFF" fill-rule="nonzero" fill-opacity="1" transform="matrix(1 0 0 1.00562 2497 515)"/><path d="M167.617 90.4963 157.79 83.0797C156.501 82.1203 155.584 80.7445 155.194 79.1859L151.485 66.3922C149.598 60.0639 143.812 55.7003 137.208 55.625L118.667 55.625 118.667 44.5 7.41667 44.5 7.41667 122.397 22.25 122.397C22.2495 121.152 22.3737 119.91 22.6208 118.689L11.125 118.689 11.125 94.4643 114.958 94.4643 114.958 118.689 58.9625 118.689C59.2106 119.909 59.3348 121.152 59.3334 122.397L120.521 122.397C120.52 121.152 120.645 119.91 120.892 118.689L118.667 118.689 118.667 59.3334 126.083 59.3334 126.083 85.1934 154.6 85.1934C154.913 85.5049 155.246 85.7955 155.596 86.063L165.344 93.4222C166.299 94.1288 166.866 95.2434 166.875 96.4315L166.875 114.973C166.875 117.021 165.215 118.682 163.167 118.682L157.233 118.682C157.481 119.902 157.606 121.144 157.604 122.39L163.167 122.39C167.257 122.377 170.57 119.064 170.583 114.973L170.583 96.4315C170.576 94.0984 169.479 91.9027 167.617 90.4963ZM114.958 90.7559 11.125 90.7559 11.125 48.2084 114.958 48.2084ZM129.792 59.3334 137.208 59.3334C142.154 59.4207 146.481 62.6829 147.925 67.4138L151.617 80.1519C151.743 80.6049 151.899 81.0492 152.084 81.4814L129.792 81.4814Z" fill="#FFFFFF" fill-rule="nonzero" fill-opacity="1" transform="matrix(1 0 0 1.00562 2497 515)"/><path d="M139.063 107.56C130.87 107.56 124.229 114.201 124.229 122.394 124.229 130.586 130.87 137.227 139.063 137.227 147.255 137.227 153.896 130.586 153.896 122.394 153.886 114.206 147.251 107.57 139.063 107.56ZM139.063 133.519C132.918 133.519 127.938 128.538 127.938 122.394 127.938 116.249 132.918 111.269 139.063 111.269 145.207 111.269 150.188 116.249 150.188 122.394 150.183 128.537 145.206 133.518 139.063 133.526Z" fill="#FFFFFF" fill-rule="nonzero" fill-opacity="1" transform="matrix(1 0 0 1.00562 2497 515)"/></g></g></g><path d="M0 68 69.0001 0 138 68 103.5 68 103.5 136 34.5 136 34.5 68Z" fill="#FFFFFF" fill-rule="evenodd" fill-opacity="1" transform="matrix(1 0 0 -1 2173 1525)"/><path d="M1616.5 294C1616.5 255.616 1647.39 224.5 1685.5 224.5 1723.61 224.5 1754.5 255.616 1754.5 294 1754.5 332.384 1723.61 363.5 1685.5 363.5 1647.39 363.5 1616.5 332.384 1616.5 294Z" stroke="#FFFFFF" stroke-width="6.875" stroke-linecap="butt" stroke-linejoin="round" stroke-miterlimit="10" stroke-opacity="1" fill="#FFA600" fill-rule="evenodd" fill-opacity="1"/><text fill="#000000" fill-opacity="1" font-family="Calibri,Calibri_MSFontService,sans-serif" font-style="normal" font-variant="normal" font-weight="400" font-stretch="normal" font-size="83" text-anchor="start" direction="ltr" writing-mode="lr-tb" unicode-bidi="normal" text-decoration="none" transform="matrix(1 0 0 1 1664.16 316)">1</text><path d="M2531.5 799C2531.5 760.616 2562.39 729.5 2600.5 729.5 2638.61 729.5 2669.5 760.616 2669.5 799 2669.5 837.384 2638.61 868.5 2600.5 868.5 2562.39 868.5 2531.5 837.384 2531.5 799Z" stroke="#FFFFFF" stroke-width="6.875" stroke-linecap="butt" stroke-linejoin="round" stroke-miterlimit="10" stroke-opacity="1" fill="#FFA600" fill-rule="evenodd" fill-opacity="1"/><text fill="#000000" fill-opacity="1" font-family="Calibri,Calibri_MSFontService,sans-serif" font-style="normal" font-variant="normal" font-weight="400" font-stretch="normal" font-size="83" text-anchor="start" direction="ltr" writing-mode="lr-tb" unicode-bidi="normal" text-decoration="none" transform="matrix(1 0 0 1 2579.21 821)">2</text><path d="M784.5 799C784.5 760.616 815.616 729.5 854 729.5 892.384 729.5 923.5 760.616 923.5 799 923.5 837.384 892.384 868.5 854 868.5 815.616 868.5 784.5 837.384 784.5 799Z" stroke="#FFFFFF" stroke-width="6.875" stroke-linecap="butt" stroke-linejoin="round" stroke-miterlimit="10" stroke-opacity="1" fill="#FFA600" fill-rule="evenodd" fill-opacity="1"/><text fill="#000000" fill-opacity="1" font-family="Calibri,Calibri_MSFontService,sans-serif" font-style="normal" font-variant="normal" font-weight="400" font-stretch="normal" font-size="83" text-anchor="start" direction="ltr" writing-mode="lr-tb" unicode-bidi="normal" text-decoration="none" transform="matrix(1 0 0 1 832.62 821)">3</text><path d="M1824.5 1223.5C1824.5 1185.39 1855.39 1154.5 1893.5 1154.5 1931.61 1154.5 1962.5 1185.39 1962.5 1223.5 1962.5 1261.61 1931.61 1292.5 1893.5 1292.5 1855.39 1292.5 1824.5 1261.61 1824.5 1223.5Z" stroke="#FFFFFF" stroke-width="6.875" stroke-linecap="butt" stroke-linejoin="round" stroke-miterlimit="10" stroke-opacity="1" fill="#FFA600" fill-rule="evenodd" fill-opacity="1"/><text fill="#000000" fill-opacity="1" font-family="Calibri,Calibri_MSFontService,sans-serif" font-style="normal" font-variant="normal" font-weight="400" font-stretch="normal" font-size="83" text-anchor="start" direction="ltr" writing-mode="lr-tb" unicode-bidi="normal" text-decoration="none" transform="matrix(1 0 0 1 1872.01 1245)">4</text><path d="M1824.5 1946C1824.5 1907.62 1855.39 1876.5 1893.5 1876.5 1931.61 1876.5 1962.5 1907.62 1962.5 1946 1962.5 1984.38 1931.61 2015.5 1893.5 2015.5 1855.39 2015.5 1824.5 1984.38 1824.5 1946Z" stroke="#FFFFFF" stroke-width="6.875" stroke-linecap="butt" stroke-linejoin="round" stroke-miterlimit="10" stroke-opacity="1" fill="#FFA600" fill-rule="evenodd" fill-opacity="1"/><text fill="#000000" fill-opacity="1" font-family="Calibri,Calibri_MSFontService,sans-serif" font-style="normal" font-variant="normal" font-weight="400" font-stretch="normal" font-size="83" text-anchor="start" direction="ltr" writing-mode="lr-tb" unicode-bidi="normal" text-decoration="none" transform="matrix(1 0 0 1 1872.01 1968)">5</text></g></g></svg>