<svg width="6292" height="3529" xmlns="http://www.w3.org/2000/svg" xmlns:xlink="http://www.w3.org/1999/xlink" xml:space="preserve" overflow="hidden"><g transform="translate(866 990)"><g><rect x="-863" y="-987" width="6286" height="3525" fill="#000000" fill-opacity="1"/><rect x="253.5" y="311.5" width="2079" height="1758" stroke="#FFFFFF" stroke-width="4.58333" stroke-linecap="butt" stroke-linejoin="miter" stroke-miterlimit="8" stroke-opacity="1" fill="none"/><path d="M360 267.167C360 254.372 370.372 244 383.167 244L1434.83 244C1447.63 244 1458 254.372 1458 267.167L1458 359.833C1458 372.628 1447.63 383 1434.83 383L383.167 383C370.372 383 360 372.628 360 359.833Z" fill="#FFA600" fill-rule="evenodd" fill-opacity="1"/><text fill="#000000" fill-opacity="1" font-family="Calibri,Calibri_MSFontService,sans-serif" font-style="normal" font-variant="normal" font-weight="400" font-stretch="normal" font-size="83" text-anchor="start" direction="ltr" writing-mode="lr-tb" unicode-bidi="normal" text-decoration="none" transform="matrix(1 0 0 1 494.979 341)">Bottleneck Management</text><rect x="2361.5" y="311.5" width="2078" height="1758" stroke="#FFFFFF" stroke-width="4.58333" stroke-linecap="butt" stroke-linejoin="miter" stroke-miterlimit="8" stroke-opacity="1" fill="none"/><path d="M3224 265.167C3224 252.372 3234.37 242 3247.17 242L4297.83 242C4310.63 242 4321 252.372 4321 265.167L4321 357.832C4321 370.627 4310.63 381 4297.83 381L3247.17 381C3234.37 381 3224 370.627 3224 357.832Z" fill="#FFA600" fill-rule="evenodd" fill-opacity="1"/><text fill="#000000" fill-opacity="1" font-family="Calibri,Calibri_MSFontService,sans-serif" font-style="normal" font-variant="normal" font-weight="400" font-stretch="normal" font-size="83" text-anchor="start" direction="ltr" writing-mode="lr-tb" unicode-bidi="normal" text-decoration="none" transform="matrix(1 0 0 1 3584.11 339)">Monitoring</text><path d="M1512 496.834C1512 485.88 1520.88 477 1531.83 477L2110.17 477C2121.12 477 2130 485.88 2130 496.834L2130 576.166C2130 587.12 2121.12 596 2110.17 596L1531.83 596C1520.88 596 1512 587.12 1512 576.166Z" fill="#B3CB2D" fill-rule="evenodd" fill-opacity="1"/><text fill="#000000" fill-opacity="1" font-family="Calibri,Calibri_MSFontService,sans-serif" font-style="normal" font-variant="normal" font-weight="400" font-stretch="normal" font-size="55" text-anchor="start" direction="ltr" writing-mode="lr-tb" unicode-bidi="normal" text-decoration="none" transform="matrix(1 0 0 1 1562.67 554)">Supply Chain </text><text fill="#000000" fill-opacity="1" font-family="Calibri,Calibri_MSFontService,sans-serif" font-style="normal" font-variant="normal" font-weight="400" font-stretch="normal" font-size="55" text-anchor="start" direction="ltr" writing-mode="lr-tb" unicode-bidi="normal" text-decoration="none" transform="matrix(1 0 0 1 1861.73 554)">Condition</text><path d="M1608 1233.83C1608 1222.88 1616.88 1214 1627.83 1214L2019.17 1214C2030.12 1214 2039 1222.88 2039 1233.83L2039 1313.17C2039 1324.12 2030.12 1333 2019.17 1333L1627.83 1333C1616.88 1333 1608 1324.12 1608 1313.17Z" fill="#9B9B9B" fill-rule="evenodd" fill-opacity="1"/><text fill="#000000" fill-opacity="1" font-family="Calibri,Calibri_MSFontService,sans-serif" font-style="normal" font-variant="normal" font-weight="400" font-stretch="normal" font-size="55" text-anchor="start" direction="ltr" writing-mode="lr-tb" unicode-bidi="normal" text-decoration="none" transform="matrix(1 0 0 1 1621.15 1291)">Normal Operation </text><path d="M804 865C804 853.954 812.955 845 824.001 845L1318 845C1329.05 845 1338 853.954 1338 865L1338 944.999C1338 956.045 1329.05 965 1318 965L824.001 965C812.955 965 804 956.045 804 944.999Z" fill="#B3CB2D" fill-rule="evenodd" fill-opacity="1"/><text fill="#000000" fill-opacity="1" font-family="Calibri,Calibri_MSFontService,sans-serif" font-style="normal" font-variant="normal" font-weight="400" font-stretch="normal" font-size="55" text-anchor="start" direction="ltr" writing-mode="lr-tb" unicode-bidi="normal" text-decoration="none" transform="matrix(1 0 0 1 951.384 923)">Bottleneck</text><path d="M1116 1233.83C1116 1222.88 1124.88 1214 1135.83 1214L1526.17 1214C1537.12 1214 1546 1222.88 1546 1233.83L1546 1313.17C1546 1324.12 1537.12 1333 1526.17 1333L1135.83 1333C1124.88 1333 1116 1324.12 1116 1313.17Z" fill="#B3CB2D" fill-rule="evenodd" fill-opacity="1"/><text fill="#000000" fill-opacity="1" font-family="Calibri,Calibri_MSFontService,sans-serif" font-style="normal" font-variant="normal" font-weight="400" font-stretch="normal" font-size="55" text-anchor="start" direction="ltr" writing-mode="lr-tb" unicode-bidi="normal" text-decoration="none" transform="matrix(1 0 0 1 1243.17 1292)">isolated</text><path d="M623 1232.83C623 1221.88 631.88 1213 642.834 1213L1033.17 1213C1044.12 1213 1053 1221.88 1053 1232.83L1053 1312.17C1053 1323.12 1044.12 1332 1033.17 1332L642.834 1332C631.88 1332 623 1323.12 623 1312.17Z" fill="#9B9B9B" fill-rule="evenodd" fill-opacity="1"/><text fill="#000000" fill-opacity="1" font-family="Calibri,Calibri_MSFontService,sans-serif" font-style="normal" font-variant="normal" font-weight="400" font-stretch="normal" font-size="55" text-anchor="start" direction="ltr" writing-mode="lr-tb" unicode-bidi="normal" text-decoration="none" transform="matrix(1 0 0 1 708.236 1291)">widespread</text><path d="M1876.79 908.782 1361.41 907.834 1361.42 903.25 1876.8 904.199ZM1365.97 919.301 1338.5 905.5 1366.03 891.801Z" fill="#FFFFFF" fill-rule="nonzero" fill-opacity="1"/><path d="M1017 1091 1071 1037 1125 1091 1071 1145Z" fill="#B3CB2D" fill-rule="evenodd" fill-opacity="1"/><path d="M1823.79 596.484 1825.45 829.6 1820.86 829.632 1819.21 596.516ZM1836.87 824.935 1823.32 852.532 1809.37 825.13Z" fill="#FFFFFF" fill-rule="nonzero" fill-opacity="1"/><path d="M1825.79 960.492 1826.57 1191.28 1821.99 1191.29 1821.21 960.508ZM1838.01 1186.66 1824.36 1214.2 1810.51 1186.75Z" fill="#FFFFFF" fill-rule="nonzero" fill-opacity="1"/><path d="M1073.79 965.5 1073.79 1015.11 1069.21 1015.11 1069.21 965.5ZM1085.25 1010.53 1071.5 1038.03 1057.75 1010.53Z" fill="#FFFFFF" fill-rule="nonzero" fill-opacity="1"/><path d="M1125.5 1089.21 1333.8 1089.21 1333.8 1191.42 1329.21 1191.42 1329.21 1091.5 1331.5 1093.79 1125.5 1093.79ZM1345.25 1186.83 1331.5 1214.33 1317.75 1186.83Z" fill="#FFFFFF" fill-rule="nonzero" fill-opacity="1"/><path d="M0-2.29167 181.848-2.29167 181.848 98.9426 177.264 98.9426 177.264 0 179.556 2.29167 0 2.29167ZM193.306 94.3593 179.556 121.859 165.806 94.3593Z" fill="#FFFFFF" fill-rule="nonzero" fill-opacity="1" transform="matrix(-1 1.22465e-16 1.22465e-16 1 1018.06 1091.5)"/><text fill="#FFFFFF" fill-opacity="1" font-family="Calibri,Calibri_MSFontService,sans-serif" font-style="normal" font-variant="normal" font-weight="400" font-stretch="normal" font-size="48" text-anchor="start" direction="ltr" writing-mode="lr-tb" unicode-bidi="normal" text-decoration="none" transform="matrix(1 0 0 1 1406.86 871)">P(</text><text fill="#FFFFFF" fill-opacity="1" font-family="Calibri,Calibri_MSFontService,sans-serif" font-style="normal" font-variant="normal" font-weight="400" font-stretch="normal" font-size="48" text-anchor="start" direction="ltr" writing-mode="lr-tb" unicode-bidi="normal" text-decoration="none" transform="matrix(1 0 0 1 1445.81 871)">bottleneck</text><text fill="#FFFFFF" fill-opacity="1" font-family="Calibri,Calibri_MSFontService,sans-serif" font-style="normal" font-variant="normal" font-weight="400" font-stretch="normal" font-size="48" text-anchor="start" direction="ltr" writing-mode="lr-tb" unicode-bidi="normal" text-decoration="none" transform="matrix(1 0 0 1 1654.93 871)">)= a</text><text fill="#FFFFFF" fill-opacity="1" font-family="Calibri,Calibri_MSFontService,sans-serif" font-style="normal" font-variant="normal" font-weight="400" font-stretch="normal" font-size="46" text-anchor="start" direction="ltr" writing-mode="lr-tb" unicode-bidi="normal" text-decoration="none" transform="matrix(1 0 0 1 427.047 1146)">P(</text><text fill="#FFFFFF" fill-opacity="1" font-family="Calibri,Calibri_MSFontService,sans-serif" font-style="normal" font-variant="normal" font-weight="400" font-stretch="normal" font-size="46" text-anchor="start" direction="ltr" writing-mode="lr-tb" unicode-bidi="normal" text-decoration="none" transform="matrix(1 0 0 1 464.286 1146)">widespread</text><text fill="#FFFFFF" fill-opacity="1" font-family="Calibri,Calibri_MSFontService,sans-serif" font-style="normal" font-variant="normal" font-weight="400" font-stretch="normal" font-size="46" text-anchor="start" direction="ltr" writing-mode="lr-tb" unicode-bidi="normal" text-decoration="none" transform="matrix(1 0 0 1 680.849 1146)">)= a x b</text><path d="M2543 496.001C2543 484.955 2551.95 476 2563 476L3140 476C3151.05 476 3160 484.955 3160 496.001L3160 576C3160 587.045 3151.05 596 3140 596L2563 596C2551.95 596 2543 587.045 2543 576Z" fill="#B3CB2D" fill-rule="evenodd" fill-opacity="1"/><text fill="#000000" fill-opacity="1" font-family="Calibri,Calibri_MSFontService,sans-serif" font-style="normal" font-variant="normal" font-weight="400" font-stretch="normal" font-size="55" text-anchor="start" direction="ltr" writing-mode="lr-tb" unicode-bidi="normal" text-decoration="none" transform="matrix(1 0 0 1 2593.48 554)">Supply Chain </text><text fill="#000000" fill-opacity="1" font-family="Calibri,Calibri_MSFontService,sans-serif" font-style="normal" font-variant="normal" font-weight="400" font-stretch="normal" font-size="55" text-anchor="start" direction="ltr" writing-mode="lr-tb" unicode-bidi="normal" text-decoration="none" transform="matrix(1 0 0 1 2892.55 554)">Condition</text><path d="M2638 1233.83C2638 1222.88 2646.88 1214 2657.83 1214L3048.17 1214C3059.12 1214 3068 1222.88 3068 1233.83L3068 1313.17C3068 1324.12 3059.12 1333 3048.17 1333L2657.83 1333C2646.88 1333 2638 1324.12 2638 1313.17Z" fill="#9B9B9B" fill-rule="evenodd" fill-opacity="1"/><text fill="#000000" fill-opacity="1" font-family="Calibri,Calibri_MSFontService,sans-serif" font-style="normal" font-variant="normal" font-weight="400" font-stretch="normal" font-size="55" text-anchor="start" direction="ltr" writing-mode="lr-tb" unicode-bidi="normal" text-decoration="none" transform="matrix(1 0 0 1 2650.79 1291)">Normal Operation </text><path d="M3335 864.833C3335 853.88 3343.88 845 3354.83 845L3849.17 845C3860.12 845 3869 853.88 3869 864.833L3869 944.166C3869 955.12 3860.12 964 3849.17 964L3354.83 964C3343.88 964 3335 955.12 3335 944.166Z" fill="#B3CB2D" fill-rule="evenodd" fill-opacity="1"/><text fill="#000000" fill-opacity="1" font-family="Calibri,Calibri_MSFontService,sans-serif" font-style="normal" font-variant="normal" font-weight="400" font-stretch="normal" font-size="55" text-anchor="start" direction="ltr" writing-mode="lr-tb" unicode-bidi="normal" text-decoration="none" transform="matrix(1 0 0 1 3482.04 923)">Bottleneck</text><path d="M3134 1235C3134 1223.95 3142.95 1215 3154 1215L3545 1215C3556.05 1215 3565 1223.95 3565 1235L3565 1315C3565 1326.05 3556.05 1335 3545 1335L3154 1335C3142.95 1335 3134 1326.05 3134 1315Z" fill="#B3CB2D" fill-rule="evenodd" fill-opacity="1"/><text fill="#000000" fill-opacity="1" font-family="Calibri,Calibri_MSFontService,sans-serif" font-style="normal" font-variant="normal" font-weight="400" font-stretch="normal" font-size="55" text-anchor="start" direction="ltr" writing-mode="lr-tb" unicode-bidi="normal" text-decoration="none" transform="matrix(1 0 0 1 3260.66 1293)">Isolated</text><path d="M3630 1235C3630 1223.95 3638.95 1215 3650 1215L4041 1215C4052.05 1215 4061 1223.95 4061 1235L4061 1315C4061 1326.05 4052.05 1335 4041 1335L3650 1335C3638.95 1335 3630 1326.05 3630 1315Z" fill="#9B9B9B" fill-rule="evenodd" fill-opacity="1"/><text fill="#000000" fill-opacity="1" font-family="Calibri,Calibri_MSFontService,sans-serif" font-style="normal" font-variant="normal" font-weight="400" font-stretch="normal" font-size="55" text-anchor="start" direction="ltr" writing-mode="lr-tb" unicode-bidi="normal" text-decoration="none" transform="matrix(1 0 0 1 3715.63 1293)">widespread</text><path d="M2799 905 2853 851 2907 905 2853 959Z" fill="#B3CB2D" fill-rule="evenodd" fill-opacity="1"/><path d="M3548 1089 3602 1035 3656 1089 3602 1143Z" fill="#B3CB2D" fill-rule="evenodd" fill-opacity="1"/><path d="M2854.79 596.487 2856.15 828.612 2851.56 828.639 2850.21 596.513ZM2867.58 823.962 2853.99 851.542 2840.08 824.123Z" fill="#FFFFFF" fill-rule="nonzero" fill-opacity="1"/><path d="M2855.79 959.5 2855.79 1191.63 2851.21 1191.63 2851.21 959.5ZM2867.25 1187.04 2853.5 1214.54 2839.75 1187.04Z" fill="#FFFFFF" fill-rule="nonzero" fill-opacity="1"/><path d="M2907.5 903.208 3312.83 903.209 3312.83 907.792 2907.5 907.792ZM3308.25 891.75 3335.75 905.5 3308.25 919.25Z" fill="#FFFFFF" fill-rule="nonzero" fill-opacity="1"/><path d="M3604.79 964.5 3604.79 1012.35 3600.21 1012.35 3600.21 964.5ZM3616.25 1007.77 3602.5 1035.27 3588.75 1007.77Z" fill="#FFFFFF" fill-rule="nonzero" fill-opacity="1"/><path d="M3656.5 1087.21 3848.32 1087.21 3848.32 1192.93 3843.74 1192.93 3843.74 1089.5 3846.03 1091.79 3656.5 1091.79ZM3859.78 1188.35 3846.03 1215.85 3832.28 1188.35Z" fill="#FFFFFF" fill-rule="nonzero" fill-opacity="1"/><path d="M0-2.29167 201.229-2.29167 201.229 103.434 196.645 103.434 196.645 0 198.937 2.29167 0 2.29167ZM212.687 98.851 198.937 126.351 185.187 98.851Z" fill="#FFFFFF" fill-rule="nonzero" fill-opacity="1" transform="matrix(-1 1.22465e-16 1.22465e-16 1 3548.44 1089.5)"/><text fill="#FFFFFF" fill-opacity="1" font-family="Calibri,Calibri_MSFontService,sans-serif" font-style="normal" font-variant="normal" font-weight="400" font-stretch="normal" font-size="48" text-anchor="start" direction="ltr" writing-mode="lr-tb" unicode-bidi="normal" text-decoration="none" transform="matrix(1 0 0 1 2904.16 878)">P(</text><text fill="#FFFFFF" fill-opacity="1" font-family="Calibri,Calibri_MSFontService,sans-serif" font-style="normal" font-variant="normal" font-weight="400" font-stretch="normal" font-size="48" text-anchor="start" direction="ltr" writing-mode="lr-tb" unicode-bidi="normal" text-decoration="none" transform="matrix(1 0 0 1 2943.12 878)">bottleneck</text><text fill="#FFFFFF" fill-opacity="1" font-family="Calibri,Calibri_MSFontService,sans-serif" font-style="normal" font-variant="normal" font-weight="400" font-stretch="normal" font-size="48" text-anchor="start" direction="ltr" writing-mode="lr-tb" unicode-bidi="normal" text-decoration="none" transform="matrix(1 0 0 1 3152.23 878)">)= a </text><text fill="#FFFFFF" fill-opacity="1" font-family="Calibri,Calibri_MSFontService,sans-serif" font-style="normal" font-variant="normal" font-weight="400" font-stretch="normal" font-size="48" text-anchor="start" direction="ltr" writing-mode="lr-tb" unicode-bidi="normal" text-decoration="none" transform="matrix(1 0 0 1 3235.31 878)">-</text><text fill="#FFFFFF" fill-opacity="1" font-family="Calibri,Calibri_MSFontService,sans-serif" font-style="normal" font-variant="normal" font-weight="700" font-stretch="normal" font-size="48" text-anchor="start" direction="ltr" writing-mode="lr-tb" unicode-bidi="normal" text-decoration="none" transform="matrix(1 0 0 1 3261.09 878)">m</text><text fill="#FFFFFF" fill-opacity="1" font-family="Calibri,Calibri_MSFontService,sans-serif" font-style="normal" font-variant="normal" font-weight="400" font-stretch="normal" font-size="46" text-anchor="start" direction="ltr" writing-mode="lr-tb" unicode-bidi="normal" text-decoration="none" transform="matrix(1 0 0 1 3882.98 1158)">P(</text><text fill="#FFFFFF" fill-opacity="1" font-family="Calibri,Calibri_MSFontService,sans-serif" font-style="normal" font-variant="normal" font-weight="400" font-stretch="normal" font-size="46" text-anchor="start" direction="ltr" writing-mode="lr-tb" unicode-bidi="normal" text-decoration="none" transform="matrix(1 0 0 1 3920.22 1158)">widespread</text><text fill="#FFFFFF" fill-opacity="1" font-family="Calibri,Calibri_MSFontService,sans-serif" font-style="normal" font-variant="normal" font-weight="400" font-stretch="normal" font-size="46" text-anchor="start" direction="ltr" writing-mode="lr-tb" unicode-bidi="normal" text-decoration="none" transform="matrix(1 0 0 1 4136.78 1158)">)= (a</text><text fill="#FFFFFF" fill-opacity="1" font-family="Calibri,Calibri_MSFontService,sans-serif" font-style="normal" font-variant="normal" font-weight="400" font-stretch="normal" font-size="46" text-anchor="start" direction="ltr" writing-mode="lr-tb" unicode-bidi="normal" text-decoration="none" transform="matrix(1 0 0 1 4219.28 1158)">-</text><text fill="#FFFFFF" fill-opacity="1" font-family="Calibri,Calibri_MSFontService,sans-serif" font-style="normal" font-variant="normal" font-weight="700" font-stretch="normal" font-size="46" text-anchor="start" direction="ltr" writing-mode="lr-tb" unicode-bidi="normal" text-decoration="none" transform="matrix(1 0 0 1 4233.03 1158)">m</text><text fill="#FFFFFF" fill-opacity="1" font-family="Calibri,Calibri_MSFontService,sans-serif" font-style="normal" font-variant="normal" font-weight="400" font-stretch="normal" font-size="46" text-anchor="start" direction="ltr" writing-mode="lr-tb" unicode-bidi="normal" text-decoration="none" transform="matrix(1 0 0 1 4270.27 1158)">) x (b</text><text fill="#FFFFFF" fill-opacity="1" font-family="Calibri,Calibri_MSFontService,sans-serif" font-style="normal" font-variant="normal" font-weight="400" font-stretch="normal" font-size="46" text-anchor="start" direction="ltr" writing-mode="lr-tb" unicode-bidi="normal" text-decoration="none" transform="matrix(1 0 0 1 4362.51 1158)">-</text><text fill="#FFFFFF" fill-opacity="1" font-family="Calibri,Calibri_MSFontService,sans-serif" font-style="normal" font-variant="normal" font-weight="700" font-stretch="normal" font-size="46" text-anchor="start" direction="ltr" writing-mode="lr-tb" unicode-bidi="normal" text-decoration="none" transform="matrix(1 0 0 1 4376.26 1158)">n</text><text fill="#FFFFFF" fill-opacity="1" font-family="Calibri,Calibri_MSFontService,sans-serif" font-style="normal" font-variant="normal" font-weight="400" font-stretch="normal" font-size="46" text-anchor="start" direction="ltr" writing-mode="lr-tb" unicode-bidi="normal" text-decoration="none" transform="matrix(1 0 0 1 4400.89 1158)">)</text><path d="M614.797 1544.19 1078.94 1544.19 1078.94 1698.19 614.797 1698.19Z" fill="#9B9B9B" fill-rule="evenodd" fill-opacity="1"/><path d="M1078.94 1544.19 1575.11 1544.19 1575.11 1698.19 1078.94 1698.19Z" fill="#CBD4DE" fill-rule="evenodd" fill-opacity="1"/><path d="M1575.11 1544.19 2050.21 1544.19 2050.21 1698.19 1575.11 1698.19Z" fill="#9B9B9B" fill-rule="evenodd" fill-opacity="1"/><path d="M2050.21 1544.19 2632.98 1544.19 2632.98 1698.19 2050.21 1698.19Z" fill="#046B99" fill-rule="evenodd" fill-opacity="1"/><path d="M2632.98 1544.19 3103.4 1544.19 3103.4 1698.19 2632.98 1698.19Z" fill="#9B9B9B" fill-rule="evenodd" fill-opacity="1"/><path d="M3103.4 1544.19 3601.92 1544.19 3601.92 1698.19 3103.4 1698.19Z" fill="#CBD4DE" fill-rule="evenodd" fill-opacity="1"/><path d="M3601.92 1544.19 4060.64 1544.19 4060.64 1698.19 3601.92 1698.19Z" fill="#9B9B9B" fill-rule="evenodd" fill-opacity="1"/><path d="M614.797 1698.19 1078.94 1698.19 1078.94 1852.19 614.797 1852.19Z" fill="#9B9B9B" fill-rule="evenodd" fill-opacity="1"/><path d="M1078.94 1698.19 1575.11 1698.19 1575.11 1852.19 1078.94 1852.19Z" fill="#E7EBEF" fill-rule="evenodd" fill-opacity="1"/><path d="M1575.11 1698.19 2050.21 1698.19 2050.21 1852.19 1575.11 1852.19Z" fill="#9B9B9B" fill-rule="evenodd" fill-opacity="1"/><path d="M2050.21 1698.19 2632.98 1698.19 2632.98 1852.19 2050.21 1852.19Z" fill="#046B99" fill-rule="evenodd" fill-opacity="1"/><path d="M2632.98 1698.19 3103.4 1698.19 3103.4 1852.19 2632.98 1852.19Z" fill="#9B9B9B" fill-rule="evenodd" fill-opacity="1"/><path d="M3103.4 1698.19 3601.92 1698.19 3601.92 1852.19 3103.4 1852.19Z" fill="#E7EBEF" fill-rule="evenodd" fill-opacity="1"/><path d="M3601.92 1698.19 4060.64 1698.19 4060.64 1852.19 3601.92 1852.19Z" fill="#9B9B9B" fill-rule="evenodd" fill-opacity="1"/><path d="M614.797 1852.19 1078.94 1852.19 1078.94 2006.19 614.797 2006.19Z" fill="#9B9B9B" fill-rule="evenodd" fill-opacity="1"/><path d="M1078.94 1852.19 1575.11 1852.19 1575.11 2006.19 1078.94 2006.19Z" fill="#CBD4DE" fill-rule="evenodd" fill-opacity="1"/><path d="M1575.11 1852.19 2050.21 1852.19 2050.21 2006.19 1575.11 2006.19Z" fill="#9B9B9B" fill-rule="evenodd" fill-opacity="1"/><path d="M2050.21 1852.19 2632.98 1852.19 2632.98 2006.19 2050.21 2006.19Z" fill="#046B99" fill-rule="evenodd" fill-opacity="1"/><path d="M2632.98 1852.19 3103.4 1852.19 3103.4 2006.19 2632.98 2006.19Z" fill="#9B9B9B" fill-rule="evenodd" fill-opacity="1"/><path d="M3103.4 1852.19 3601.92 1852.19 3601.92 2006.19 3103.4 2006.19Z" fill="#CBD4DE" fill-rule="evenodd" fill-opacity="1"/><path d="M3601.92 1852.19 4060.64 1852.19 4060.64 2006.19 3601.92 2006.19Z" fill="#9B9B9B" fill-rule="evenodd" fill-opacity="1"/><path d="M1078.94 1541.9 1078.94 2008.48" stroke="#FFFFFF" stroke-width="4.58333" stroke-linecap="butt" stroke-linejoin="round" stroke-miterlimit="10" stroke-opacity="1" fill="none" fill-rule="evenodd"/><path d="M1575.11 1541.9 1575.11 2008.48" stroke="#FFFFFF" stroke-width="4.58333" stroke-linecap="butt" stroke-linejoin="round" stroke-miterlimit="10" stroke-opacity="1" fill="none" fill-rule="evenodd"/><path d="M2050.21 1541.9 2050.21 2008.48" stroke="#FFFFFF" stroke-width="4.58333" stroke-linecap="butt" stroke-linejoin="round" stroke-miterlimit="10" stroke-opacity="1" fill="none" fill-rule="evenodd"/><path d="M2632.98 1541.9 2632.98 2008.48" stroke="#FFFFFF" stroke-width="4.58333" stroke-linecap="butt" stroke-linejoin="round" stroke-miterlimit="10" stroke-opacity="1" fill="none" fill-rule="evenodd"/><path d="M3103.4 1541.9 3103.4 2008.48" stroke="#FFFFFF" stroke-width="4.58333" stroke-linecap="butt" stroke-linejoin="round" stroke-miterlimit="10" stroke-opacity="1" fill="none" fill-rule="evenodd"/><path d="M3601.92 1541.9 3601.92 2008.48" stroke="#FFFFFF" stroke-width="4.58333" stroke-linecap="butt" stroke-linejoin="round" stroke-miterlimit="10" stroke-opacity="1" fill="none" fill-rule="evenodd"/><path d="M612.505 1698.19 4062.93 1698.19" stroke="#FFFFFF" stroke-width="4.58333" stroke-linecap="butt" stroke-linejoin="round" stroke-miterlimit="10" stroke-opacity="1" fill="none" fill-rule="evenodd"/><path d="M612.505 1852.19 4062.93 1852.19" stroke="#FFFFFF" stroke-width="4.58333" stroke-linecap="butt" stroke-linejoin="round" stroke-miterlimit="10" stroke-opacity="1" fill="none" fill-rule="evenodd"/><path d="M614.797 1541.9 614.797 2008.48" stroke="#FFFFFF" stroke-width="4.58333" stroke-linecap="butt" stroke-linejoin="round" stroke-miterlimit="10" stroke-opacity="1" fill="none" fill-rule="evenodd"/><path d="M4060.64 1541.9 4060.64 2008.48" stroke="#FFFFFF" stroke-width="4.58333" stroke-linecap="butt" stroke-linejoin="round" stroke-miterlimit="10" stroke-opacity="1" fill="none" fill-rule="evenodd"/><path d="M612.505 1544.19 4062.93 1544.19" stroke="#FFFFFF" stroke-width="4.58333" stroke-linecap="butt" stroke-linejoin="round" stroke-miterlimit="10" stroke-opacity="1" fill="none" fill-rule="evenodd"/><path d="M612.505 2006.19 4062.93 2006.19" stroke="#FFFFFF" stroke-width="4.58333" stroke-linecap="butt" stroke-linejoin="round" stroke-miterlimit="10" stroke-opacity="1" fill="none" fill-rule="evenodd"/><text fill="#FFFFFF" fill-opacity="1" font-family="Calibri,Calibri_MSFontService,sans-serif" font-style="normal" font-variant="normal" font-weight="700" font-stretch="normal" font-size="50" text-anchor="start" direction="ltr" writing-mode="lr-tb" unicode-bidi="normal" text-decoration="none" transform="matrix(1 0 0 1 2124.75 1638)">Administrative Costs</text><text fill="#FFFFFF" fill-opacity="1" font-family="Calibri,Calibri_MSFontService,sans-serif" font-style="normal" font-variant="normal" font-weight="700" font-stretch="normal" font-size="50" text-anchor="start" direction="ltr" writing-mode="lr-tb" unicode-bidi="normal" text-decoration="none" transform="matrix(1 0 0 1 2097.82 1762)">Operational Bottleneck </text><text fill="#FFFFFF" fill-opacity="1" font-family="Calibri,Calibri_MSFontService,sans-serif" font-style="normal" font-variant="normal" font-weight="700" font-stretch="normal" font-size="50" text-anchor="start" direction="ltr" writing-mode="lr-tb" unicode-bidi="normal" text-decoration="none" transform="matrix(1 0 0 1 2285.74 1823)">Costs</text><text fill="#FFFFFF" fill-opacity="1" font-family="Calibri,Calibri_MSFontService,sans-serif" font-style="normal" font-variant="normal" font-weight="700" font-stretch="normal" font-size="50" text-anchor="start" direction="ltr" writing-mode="lr-tb" unicode-bidi="normal" text-decoration="none" transform="matrix(1 0 0 1 2102.98 1946)">Optimization</text><text fill="#FFFFFF" fill-opacity="1" font-family="Calibri,Calibri_MSFontService,sans-serif" font-style="normal" font-variant="normal" font-weight="700" font-stretch="normal" font-size="50" text-anchor="start" direction="ltr" writing-mode="lr-tb" unicode-bidi="normal" text-decoration="none" transform="matrix(1 0 0 1 2388.86 1946)">Potential </text><path d="M882 1425 882 1450.5 837.5 1476 793 1450.5 793 1425 837.5 1450.5Z" fill="#FFFFFF" fill-rule="evenodd" fill-opacity="1"/><path d="M863 1408 863 1425.5 837.5 1443 812 1425.5 812 1408 837.5 1425.5Z" fill="#FFFFFF" fill-rule="evenodd" fill-opacity="1"/><path d="M1376 1431 1376 1456.5 1331.5 1482 1287 1456.5 1287 1431 1331.5 1456.5Z" fill="#FFFFFF" fill-rule="evenodd" fill-opacity="1"/><path d="M1357 1413 1357 1431 1331.5 1449 1306 1431 1306 1413 1331.5 1431Z" fill="#FFFFFF" fill-rule="evenodd" fill-opacity="1"/><path d="M1867 1426 1867 1451 1822.5 1476 1778 1451 1778 1426 1822.5 1451Z" fill="#FFFFFF" fill-rule="evenodd" fill-opacity="1"/><path d="M1848 1408 1848 1425.5 1822.5 1443 1797 1425.5 1797 1408 1822.5 1425.5Z" fill="#FFFFFF" fill-rule="evenodd" fill-opacity="1"/><path d="M2898 1422 2898 1447.5 2853.5 1473 2809 1447.5 2809 1422 2853.5 1447.5Z" fill="#FFFFFF" fill-rule="evenodd" fill-opacity="1"/><path d="M2879 1405 2879 1422.5 2853.5 1440 2828 1422.5 2828 1405 2853.5 1422.5Z" fill="#FFFFFF" fill-rule="evenodd" fill-opacity="1"/><path d="M3391 1428 3391 1453.5 3346.5 1479 3302 1453.5 3302 1428 3346.5 1453.5Z" fill="#FFFFFF" fill-rule="evenodd" fill-opacity="1"/><path d="M3372 1410 3372 1428 3346.5 1446 3321 1428 3321 1410 3346.5 1428Z" fill="#FFFFFF" fill-rule="evenodd" fill-opacity="1"/><path d="M3883 1423 3883 1448 3838.5 1473 3794 1448 3794 1423 3838.5 1448Z" fill="#FFFFFF" fill-rule="evenodd" fill-opacity="1"/><path d="M3864 1405 3864 1422.5 3838.5 1440 3813 1422.5 3813 1405 3838.5 1422.5Z" fill="#FFFFFF" fill-rule="evenodd" fill-opacity="1"/><text fill="#FFFFFF" fill-opacity="1" font-family="Calibri,Calibri_MSFontService,sans-serif" font-style="normal" font-variant="normal" font-weight="400" font-stretch="normal" font-size="83" text-anchor="start" direction="ltr" writing-mode="lr-tb" unicode-bidi="normal" text-decoration="none" transform="matrix(1 0 0 1 630.074 1524)">1.3</text><text fill="#FFFFFF" fill-opacity="1" font-family="Calibri,Calibri_MSFontService,sans-serif" font-style="normal" font-variant="normal" font-weight="700" font-stretch="normal" font-size="83" text-anchor="start" direction="ltr" writing-mode="lr-tb" unicode-bidi="normal" text-decoration="none" transform="matrix(1 0 0 1 1103.51 1522)">1.2</text><text fill="#FFFFFF" fill-opacity="1" font-family="Calibri,Calibri_MSFontService,sans-serif" font-style="normal" font-variant="normal" font-weight="400" font-stretch="normal" font-size="83" text-anchor="start" direction="ltr" writing-mode="lr-tb" unicode-bidi="normal" text-decoration="none" transform="matrix(1 0 0 1 1603.56 1522)">1.1</text><text fill="#FFFFFF" fill-opacity="1" font-family="Calibri,Calibri_MSFontService,sans-serif" font-style="normal" font-variant="normal" font-weight="400" font-stretch="normal" font-size="83" text-anchor="start" direction="ltr" writing-mode="lr-tb" unicode-bidi="normal" text-decoration="none" transform="matrix(1 0 0 1 2645.75 1519)">2.1</text><text fill="#FFFFFF" fill-opacity="1" font-family="Calibri,Calibri_MSFontService,sans-serif" font-style="normal" font-variant="normal" font-weight="700" font-stretch="normal" font-size="83" text-anchor="start" direction="ltr" writing-mode="lr-tb" unicode-bidi="normal" text-decoration="none" transform="matrix(1 0 0 1 3112.95 1524)">2.2</text><text fill="#FFFFFF" fill-opacity="1" font-family="Calibri,Calibri_MSFontService,sans-serif" font-style="normal" font-variant="normal" font-weight="400" font-stretch="normal" font-size="83" text-anchor="start" direction="ltr" writing-mode="lr-tb" unicode-bidi="normal" text-decoration="none" transform="matrix(1 0 0 1 3599.35 1534)">2.3</text><path d="M1769 906 1822.5 852 1876 906 1822.5 960Z" fill="#B3CB2D" fill-rule="evenodd" fill-opacity="1"/><path d="M650.124 1582 650.124 1631.5 665 1631.5 642.5 1654 620 1631.5 634.876 1631.5 634.876 1582Z" fill="#00B050" fill-rule="evenodd" fill-opacity="1"/><path d="M2647 1929.69 2677.69 1929.69 2677.69 1899 2689.31 1899 2689.31 1929.69 2720 1929.69 2720 1940.31 2689.31 1940.31 2689.31 1971 2677.69 1971 2677.69 1940.31 2647 1940.31Z" fill="#00B050" fill-rule="evenodd" fill-opacity="1"/><text fill="#262626" fill-opacity="1" font-family="Calibri,Calibri_MSFontService,sans-serif" font-style="italic" font-variant="normal" font-weight="400" font-stretch="normal" font-size="50" text-anchor="start" direction="ltr" writing-mode="lr-tb" unicode-bidi="normal" text-decoration="none" transform="matrix(1 0 0 1 719.448 1625)">Reduced</text><text fill="#262626" fill-opacity="1" font-family="Calibri,Calibri_MSFontService,sans-serif" font-style="italic" font-variant="normal" font-weight="400" font-stretch="normal" font-size="50" text-anchor="start" direction="ltr" writing-mode="lr-tb" unicode-bidi="normal" text-decoration="none" transform="matrix(1 0 0 1 717.367 1797)">Reduced</text><text fill="#262626" fill-opacity="1" font-family="Calibri,Calibri_MSFontService,sans-serif" font-style="italic" font-variant="normal" font-weight="400" font-stretch="normal" font-size="50" text-anchor="start" direction="ltr" writing-mode="lr-tb" unicode-bidi="normal" text-decoration="none" transform="matrix(1 0 0 1 1199.49 1790)">Reduced</text><text fill="#262626" fill-opacity="1" font-family="Calibri,Calibri_MSFontService,sans-serif" font-style="italic" font-variant="normal" font-weight="400" font-stretch="normal" font-size="50" text-anchor="start" direction="ltr" writing-mode="lr-tb" unicode-bidi="normal" text-decoration="none" transform="matrix(1 0 0 1 1195.67 1632)">Reduced</text><text fill="#262626" fill-opacity="1" font-family="Calibri,Calibri_MSFontService,sans-serif" font-style="italic" font-variant="normal" font-weight="400" font-stretch="normal" font-size="50" text-anchor="start" direction="ltr" writing-mode="lr-tb" unicode-bidi="normal" text-decoration="none" transform="matrix(1 0 0 1 2750.06 1627)">Reduced</text><text fill="#262626" fill-opacity="1" font-family="Calibri,Calibri_MSFontService,sans-serif" font-style="italic" font-variant="normal" font-weight="400" font-stretch="normal" font-size="50" text-anchor="start" direction="ltr" writing-mode="lr-tb" unicode-bidi="normal" text-decoration="none" transform="matrix(1 0 0 1 3259.39 1622)">Reduced</text><path d="M651.793 1749 651.793 1798 667 1798 644 1821 621 1798 636.207 1798 636.207 1749Z" fill="#00B050" fill-rule="evenodd" fill-opacity="1"/><path d="M1122.12 1584 1122.12 1633.5 1137 1633.5 1114.5 1656 1092 1633.5 1106.88 1633.5 1106.88 1584Z" fill="#00B050" fill-rule="evenodd" fill-opacity="1"/><path d="M1121.12 1744 1121.12 1793.5 1136 1793.5 1113.5 1816 1091 1793.5 1105.88 1793.5 1105.88 1744Z" fill="#00B050" fill-rule="evenodd" fill-opacity="1"/><path d="M2677.79 1581 2677.79 1630 2693 1630 2670 1653 2647 1630 2662.21 1630 2662.21 1581Z" fill="#00B050" fill-rule="evenodd" fill-opacity="1"/><path d="M3147.79 1583 3147.79 1632 3163 1632 3140 1655 3117 1632 3132.21 1632 3132.21 1583Z" fill="#00B050" fill-rule="evenodd" fill-opacity="1"/><path d="M3147.79 1752 3147.79 1800 3163 1800 3140 1823 3117 1800 3132.21 1800 3132.21 1752Z" fill="#00B050" fill-rule="evenodd" fill-opacity="1"/><path d="M3197.12 1752 3197.12 1801.5 3212 1801.5 3189.5 1824 3167 1801.5 3181.88 1801.5 3181.88 1752Z" fill="#00B050" fill-rule="evenodd" fill-opacity="1"/><path d="M3647.12 1588 3647.12 1637.5 3662 1637.5 3639.5 1660 3617 1637.5 3631.88 1637.5 3631.88 1588Z" fill="#00B050" fill-rule="evenodd" fill-opacity="1"/><path d="M3695.12 1588 3695.12 1637.5 3710 1637.5 3687.5 1660 3665 1637.5 3679.88 1637.5 3679.88 1588Z" fill="#00B050" fill-rule="evenodd" fill-opacity="1"/><path d="M3641.79 1752 3641.79 1800 3657 1800 3634 1823 3611 1800 3626.21 1800 3626.21 1752Z" fill="#00B050" fill-rule="evenodd" fill-opacity="1"/><path d="M3691.12 1752 3691.12 1800.5 3706 1800.5 3683.5 1823 3661 1800.5 3675.88 1800.5 3675.88 1752Z" fill="#00B050" fill-rule="evenodd" fill-opacity="1"/><path d="M3740.79 1752 3740.79 1800 3756 1800 3733 1823 3710 1800 3725.21 1800 3725.21 1752Z" fill="#00B050" fill-rule="evenodd" fill-opacity="1"/><text fill="#262626" fill-opacity="1" font-family="Calibri,Calibri_MSFontService,sans-serif" font-style="italic" font-variant="normal" font-weight="400" font-stretch="normal" font-size="50" text-anchor="start" direction="ltr" writing-mode="lr-tb" unicode-bidi="normal" text-decoration="none" transform="matrix(1 0 0 1 3785.66 1762)">Significantly</text><text fill="#262626" fill-opacity="1" font-family="Calibri,Calibri_MSFontService,sans-serif" font-style="italic" font-variant="normal" font-weight="400" font-stretch="normal" font-size="50" text-anchor="start" direction="ltr" writing-mode="lr-tb" unicode-bidi="normal" text-decoration="none" transform="matrix(1 0 0 1 3822.32 1817)">Reduced</text><text fill="#262626" fill-opacity="1" font-family="Calibri,Calibri_MSFontService,sans-serif" font-style="italic" font-variant="normal" font-weight="400" font-stretch="normal" font-size="50" text-anchor="start" direction="ltr" writing-mode="lr-tb" unicode-bidi="normal" text-decoration="none" transform="matrix(1 0 0 1 3787.53 1602)">Noticeably</text><text fill="#262626" fill-opacity="1" font-family="Calibri,Calibri_MSFontService,sans-serif" font-style="italic" font-variant="normal" font-weight="400" font-stretch="normal" font-size="50" text-anchor="start" direction="ltr" writing-mode="lr-tb" unicode-bidi="normal" text-decoration="none" transform="matrix(1 0 0 1 3809.02 1657)">Reduced</text><text fill="#262626" fill-opacity="1" font-family="Calibri,Calibri_MSFontService,sans-serif" font-style="italic" font-variant="normal" font-weight="400" font-stretch="normal" font-size="50" text-anchor="start" direction="ltr" writing-mode="lr-tb" unicode-bidi="normal" text-decoration="none" transform="matrix(1 0 0 1 3270.04 1768)">Noticeably</text><text fill="#262626" fill-opacity="1" font-family="Calibri,Calibri_MSFontService,sans-serif" font-style="italic" font-variant="normal" font-weight="400" font-stretch="normal" font-size="50" text-anchor="start" direction="ltr" writing-mode="lr-tb" unicode-bidi="normal" text-decoration="none" transform="matrix(1 0 0 1 3291.53 1823)">Reduced</text><text fill="#262626" fill-opacity="1" font-family="Calibri,Calibri_MSFontService,sans-serif" font-style="italic" font-variant="normal" font-weight="400" font-stretch="normal" font-size="50" text-anchor="start" direction="ltr" writing-mode="lr-tb" unicode-bidi="normal" text-decoration="none" transform="matrix(1 0 0 1 2748.56 1948)">Increased</text><text fill="#FFFFFF" fill-opacity="1" font-family="Calibri,Calibri_MSFontService,sans-serif" font-style="normal" font-variant="normal" font-weight="400" font-stretch="normal" font-size="50" text-anchor="start" direction="ltr" writing-mode="lr-tb" unicode-bidi="normal" text-decoration="none" transform="matrix(1 0 0 1 291.868 2150)">a = </text><text fill="#FFFFFF" fill-opacity="1" font-family="Calibri,Calibri_MSFontService,sans-serif" font-style="normal" font-variant="normal" font-weight="400" font-stretch="normal" font-size="50" text-anchor="start" direction="ltr" writing-mode="lr-tb" unicode-bidi="normal" text-decoration="none" transform="matrix(1 0 0 1 364.055 2150)">Probability of a general bottleneck occurring</text><text fill="#FFFFFF" fill-opacity="1" font-family="Calibri,Calibri_MSFontService,sans-serif" font-style="normal" font-variant="normal" font-weight="400" font-stretch="normal" font-size="50" text-anchor="start" direction="ltr" writing-mode="lr-tb" unicode-bidi="normal" text-decoration="none" transform="matrix(1 0 0 1 291.868 2249)">b = </text><text fill="#FFFFFF" fill-opacity="1" font-family="Calibri,Calibri_MSFontService,sans-serif" font-style="normal" font-variant="normal" font-weight="400" font-stretch="normal" font-size="50" text-anchor="start" direction="ltr" writing-mode="lr-tb" unicode-bidi="normal" text-decoration="none" transform="matrix(1 0 0 1 366.347 2249)">Conditional</text><text fill="#FFFFFF" fill-opacity="1" font-family="Calibri,Calibri_MSFontService,sans-serif" font-style="normal" font-variant="normal" font-weight="400" font-stretch="normal" font-size="50" text-anchor="start" direction="ltr" writing-mode="lr-tb" unicode-bidi="normal" text-decoration="none" transform="matrix(1 0 0 1 611.555 2249)">probability</text><text fill="#FFFFFF" fill-opacity="1" font-family="Calibri,Calibri_MSFontService,sans-serif" font-style="normal" font-variant="normal" font-weight="400" font-stretch="normal" font-size="50" text-anchor="start" direction="ltr" writing-mode="lr-tb" unicode-bidi="normal" text-decoration="none" transform="matrix(1 0 0 1 844.159 2249)">of</text><text fill="#FFFFFF" fill-opacity="1" font-family="Calibri,Calibri_MSFontService,sans-serif" font-style="normal" font-variant="normal" font-weight="400" font-stretch="normal" font-size="50" text-anchor="start" direction="ltr" writing-mode="lr-tb" unicode-bidi="normal" text-decoration="none" transform="matrix(1 0 0 1 897.441 2249)">a </text><text fill="#FFFFFF" fill-opacity="1" font-family="Calibri,Calibri_MSFontService,sans-serif" font-style="normal" font-variant="normal" font-weight="400" font-stretch="normal" font-size="50" text-anchor="start" direction="ltr" writing-mode="lr-tb" unicode-bidi="normal" text-decoration="none" transform="matrix(1 0 0 1 932.961 2249)">widespread</text><text fill="#FFFFFF" fill-opacity="1" font-family="Calibri,Calibri_MSFontService,sans-serif" font-style="normal" font-variant="normal" font-weight="400" font-stretch="normal" font-size="50" text-anchor="start" direction="ltr" writing-mode="lr-tb" unicode-bidi="normal" text-decoration="none" transform="matrix(1 0 0 1 1182.75 2249)">bottleneck</text><text fill="#FFFFFF" fill-opacity="1" font-family="Calibri,Calibri_MSFontService,sans-serif" font-style="normal" font-variant="normal" font-weight="400" font-stretch="normal" font-size="50" text-anchor="start" direction="ltr" writing-mode="lr-tb" unicode-bidi="normal" text-decoration="none" transform="matrix(1 0 0 1 1412.49 2249)">given</text><text fill="#FFFFFF" fill-opacity="1" font-family="Calibri,Calibri_MSFontService,sans-serif" font-style="normal" font-variant="normal" font-weight="400" font-stretch="normal" font-size="50" text-anchor="start" direction="ltr" writing-mode="lr-tb" unicode-bidi="normal" text-decoration="none" transform="matrix(1 0 0 1 1533.38 2249)">Bottleneck</text><text fill="#FFFFFF" fill-opacity="1" font-family="Calibri,Calibri_MSFontService,sans-serif" font-style="normal" font-variant="normal" font-weight="400" font-stretch="normal" font-size="50" text-anchor="start" direction="ltr" writing-mode="lr-tb" unicode-bidi="normal" text-decoration="none" transform="matrix(1 0 0 1 2379.62 2150)">m = </text><text fill="#FFFFFF" fill-opacity="1" font-family="Calibri,Calibri_MSFontService,sans-serif" font-style="normal" font-variant="normal" font-weight="400" font-stretch="normal" font-size="50" text-anchor="start" direction="ltr" writing-mode="lr-tb" unicode-bidi="normal" text-decoration="none" transform="matrix(1 0 0 1 2467.85 2150)">Reduction</text><text fill="#FFFFFF" fill-opacity="1" font-family="Calibri,Calibri_MSFontService,sans-serif" font-style="normal" font-variant="normal" font-weight="400" font-stretch="normal" font-size="50" text-anchor="start" direction="ltr" writing-mode="lr-tb" unicode-bidi="normal" text-decoration="none" transform="matrix(1 0 0 1 2686.71 2150)">Parameter </text><text fill="#FFFFFF" fill-opacity="1" font-family="Calibri,Calibri_MSFontService,sans-serif" font-style="normal" font-variant="normal" font-weight="400" font-stretch="normal" font-size="50" text-anchor="start" direction="ltr" writing-mode="lr-tb" unicode-bidi="normal" text-decoration="none" transform="matrix(1 0 0 1 2914.73 2150)">of a general bottleneck occurring</text><text fill="#FFFFFF" fill-opacity="1" font-family="Calibri,Calibri_MSFontService,sans-serif" font-style="normal" font-variant="normal" font-weight="400" font-stretch="normal" font-size="50" text-anchor="start" direction="ltr" writing-mode="lr-tb" unicode-bidi="normal" text-decoration="none" transform="matrix(1 0 0 1 2379.62 2249)">n = </text><text fill="#FFFFFF" fill-opacity="1" font-family="Calibri,Calibri_MSFontService,sans-serif" font-style="normal" font-variant="normal" font-weight="400" font-stretch="normal" font-size="50" text-anchor="start" direction="ltr" writing-mode="lr-tb" unicode-bidi="normal" text-decoration="none" transform="matrix(1 0 0 1 2454.1 2249)">Reduction</text><text fill="#FFFFFF" fill-opacity="1" font-family="Calibri,Calibri_MSFontService,sans-serif" font-style="normal" font-variant="normal" font-weight="400" font-stretch="normal" font-size="50" text-anchor="start" direction="ltr" writing-mode="lr-tb" unicode-bidi="normal" text-decoration="none" transform="matrix(1 0 0 1 2672.96 2249)">Parameter </text><text fill="#FFFFFF" fill-opacity="1" font-family="Calibri,Calibri_MSFontService,sans-serif" font-style="normal" font-variant="normal" font-weight="400" font-stretch="normal" font-size="50" text-anchor="start" direction="ltr" writing-mode="lr-tb" unicode-bidi="normal" text-decoration="none" transform="matrix(1 0 0 1 2900.98 2249)">of a </text><text fill="#FFFFFF" fill-opacity="1" font-family="Calibri,Calibri_MSFontService,sans-serif" font-style="normal" font-variant="normal" font-weight="400" font-stretch="normal" font-size="50" text-anchor="start" direction="ltr" writing-mode="lr-tb" unicode-bidi="normal" text-decoration="none" transform="matrix(1 0 0 1 2989.78 2249)">a </text><text fill="#FFFFFF" fill-opacity="1" font-family="Calibri,Calibri_MSFontService,sans-serif" font-style="normal" font-variant="normal" font-weight="400" font-stretch="normal" font-size="50" text-anchor="start" direction="ltr" writing-mode="lr-tb" unicode-bidi="normal" text-decoration="none" transform="matrix(1 0 0 1 3025.3 2249)">widespread</text><text fill="#FFFFFF" fill-opacity="1" font-family="Calibri,Calibri_MSFontService,sans-serif" font-style="normal" font-variant="normal" font-weight="400" font-stretch="normal" font-size="50" text-anchor="start" direction="ltr" writing-mode="lr-tb" unicode-bidi="normal" text-decoration="none" transform="matrix(1 0 0 1 3275.09 2249)">bottleneck</text><text fill="#FFFFFF" fill-opacity="1" font-family="Calibri,Calibri_MSFontService,sans-serif" font-style="normal" font-variant="normal" font-weight="400" font-stretch="normal" font-size="50" text-anchor="start" direction="ltr" writing-mode="lr-tb" unicode-bidi="normal" text-decoration="none" transform="matrix(1 0 0 1 3504.83 2249)">given</text><text fill="#FFFFFF" fill-opacity="1" font-family="Calibri,Calibri_MSFontService,sans-serif" font-style="normal" font-variant="normal" font-weight="400" font-stretch="normal" font-size="50" text-anchor="start" direction="ltr" writing-mode="lr-tb" unicode-bidi="normal" text-decoration="none" transform="matrix(1 0 0 1 3625.72 2249)">Bottleneck</text></g></g></svg>