<svg width="4262" height="2081" xmlns="http://www.w3.org/2000/svg" xmlns:xlink="http://www.w3.org/1999/xlink" xml:space="preserve" overflow="hidden"><g transform="translate(-87 -100)"><g><rect x="89" y="103" width="4257" height="2077" fill="#000000" fill-opacity="1"/><rect x="125.5" y="199.5" width="2079" height="1758" stroke="#FFFFFF" stroke-width="4.58333" stroke-linecap="butt" stroke-linejoin="miter" stroke-miterlimit="8" stroke-opacity="1" fill="none"/><path d="M232 155.167C232 142.372 242.372 132 255.167 132L1306.83 132C1319.63 132 1330 142.372 1330 155.167L1330 247.833C1330 260.628 1319.63 271 1306.83 271L255.167 271C242.372 271 232 260.628 232 247.833Z" fill="#FFA600" fill-rule="evenodd" fill-opacity="1"/><text fill="#000000" fill-opacity="1" font-family="Calibri,Calibri_MSFontService,sans-serif" font-style="normal" font-variant="normal" font-weight="400" font-stretch="normal" font-size="83" text-anchor="start" direction="ltr" writing-mode="lr-tb" unicode-bidi="normal" text-decoration="none" transform="matrix(1 0 0 1 366.774 229)">Bottleneck Management</text><rect x="2233.5" y="199.5" width="2078" height="1758" stroke="#FFFFFF" stroke-width="4.58333" stroke-linecap="butt" stroke-linejoin="miter" stroke-miterlimit="8" stroke-opacity="1" fill="none"/><path d="M3095 153.167C3095 140.372 3105.37 130 3118.17 130L4169.83 130C4182.63 130 4193 140.372 4193 153.167L4193 245.833C4193 258.628 4182.63 269 4169.83 269L3118.17 269C3105.37 269 3095 258.628 3095 245.833Z" fill="#FFA600" fill-rule="evenodd" fill-opacity="1"/><text fill="#000000" fill-opacity="1" font-family="Calibri,Calibri_MSFontService,sans-serif" font-style="normal" font-variant="normal" font-weight="400" font-stretch="normal" font-size="83" text-anchor="start" direction="ltr" writing-mode="lr-tb" unicode-bidi="normal" text-decoration="none" transform="matrix(1 0 0 1 3455.91 227)">Monitoring</text><path d="M1384 384.834C1384 373.88 1392.88 365 1403.83 365L1981.17 365C1992.12 365 2001 373.88 2001 384.834L2001 464.166C2001 475.12 1992.12 484 1981.17 484L1403.83 484C1392.88 484 1384 475.12 1384 464.166Z" fill="#B3CB2D" fill-rule="evenodd" fill-opacity="1"/><text fill="#000000" fill-opacity="1" font-family="Calibri,Calibri_MSFontService,sans-serif" font-style="normal" font-variant="normal" font-weight="400" font-stretch="normal" font-size="55" text-anchor="start" direction="ltr" writing-mode="lr-tb" unicode-bidi="normal" text-decoration="none" transform="matrix(1 0 0 1 1434.46 443)">Supply Chain </text><text fill="#000000" fill-opacity="1" font-family="Calibri,Calibri_MSFontService,sans-serif" font-style="normal" font-variant="normal" font-weight="400" font-stretch="normal" font-size="55" text-anchor="start" direction="ltr" writing-mode="lr-tb" unicode-bidi="normal" text-decoration="none" transform="matrix(1 0 0 1 1733.52 443)">Condition</text><path d="M1480 1121.83C1480 1110.88 1488.88 1102 1499.83 1102L1891.17 1102C1902.12 1102 1911 1110.88 1911 1121.83L1911 1201.17C1911 1212.12 1902.12 1221 1891.17 1221L1499.83 1221C1488.88 1221 1480 1212.12 1480 1201.17Z" fill="#9B9B9B" fill-rule="evenodd" fill-opacity="1"/><text fill="#000000" fill-opacity="1" font-family="Calibri,Calibri_MSFontService,sans-serif" font-style="normal" font-variant="normal" font-weight="400" font-stretch="normal" font-size="55" text-anchor="start" direction="ltr" writing-mode="lr-tb" unicode-bidi="normal" text-decoration="none" transform="matrix(1 0 0 1 1492.95 1179)">Normal Operation </text><path d="M676 753C676 741.954 684.955 733 696.001 733L1190 733C1201.05 733 1210 741.954 1210 753L1210 832.999C1210 844.045 1201.05 853 1190 853L696.001 853C684.955 853 676 844.045 676 832.999Z" fill="#B3CB2D" fill-rule="evenodd" fill-opacity="1"/><text fill="#000000" fill-opacity="1" font-family="Calibri,Calibri_MSFontService,sans-serif" font-style="normal" font-variant="normal" font-weight="400" font-stretch="normal" font-size="55" text-anchor="start" direction="ltr" writing-mode="lr-tb" unicode-bidi="normal" text-decoration="none" transform="matrix(1 0 0 1 823.179 811)">Bottleneck</text><path d="M988 1121.83C988 1110.88 996.88 1102 1007.83 1102L1398.17 1102C1409.12 1102 1418 1110.88 1418 1121.83L1418 1201.17C1418 1212.12 1409.12 1221 1398.17 1221L1007.83 1221C996.88 1221 988 1212.12 988 1201.17Z" fill="#B3CB2D" fill-rule="evenodd" fill-opacity="1"/><text fill="#000000" fill-opacity="1" font-family="Calibri,Calibri_MSFontService,sans-serif" font-style="normal" font-variant="normal" font-weight="400" font-stretch="normal" font-size="55" text-anchor="start" direction="ltr" writing-mode="lr-tb" unicode-bidi="normal" text-decoration="none" transform="matrix(1 0 0 1 1114.97 1180)">isolated</text><path d="M494 1120.83C494 1109.88 502.88 1101 513.834 1101L905.166 1101C916.12 1101 925 1109.88 925 1120.83L925 1200.17C925 1211.12 916.12 1220 905.166 1220L513.834 1220C502.88 1220 494 1211.12 494 1200.17Z" fill="#9B9B9B" fill-rule="evenodd" fill-opacity="1"/><text fill="#000000" fill-opacity="1" font-family="Calibri,Calibri_MSFontService,sans-serif" font-style="normal" font-variant="normal" font-weight="400" font-stretch="normal" font-size="55" text-anchor="start" direction="ltr" writing-mode="lr-tb" unicode-bidi="normal" text-decoration="none" transform="matrix(1 0 0 1 580.031 1179)">widespread</text><path d="M1748.79 796.782 1233.41 795.834 1233.42 791.25 1748.8 792.199ZM1237.97 807.3 1210.5 793.5 1238.03 779.801Z" fill="#FFFFFF" fill-rule="nonzero" fill-opacity="1"/><path d="M889 979 943 925 997 979 943 1033Z" fill="#B3CB2D" fill-rule="evenodd" fill-opacity="1"/><path d="M1695.79 484.484 1697.45 717.6 1692.86 717.632 1691.21 484.516ZM1708.87 712.935 1695.32 740.532 1681.37 713.13Z" fill="#FFFFFF" fill-rule="nonzero" fill-opacity="1"/><path d="M1696.79 848.492 1697.57 1079.28 1692.99 1079.29 1692.21 848.508ZM1709.01 1074.66 1695.36 1102.2 1681.51 1074.75Z" fill="#FFFFFF" fill-rule="nonzero" fill-opacity="1"/><path d="M945.792 853.5 945.792 903.112 941.209 903.112 941.208 853.5ZM957.25 898.529 943.5 926.029 929.75 898.529Z" fill="#FFFFFF" fill-rule="nonzero" fill-opacity="1"/><path d="M997.5 977.208 1205.8 977.208 1205.8 1079.42 1201.21 1079.42 1201.21 979.5 1203.5 981.792 997.5 981.792ZM1217.25 1074.83 1203.5 1102.33 1189.75 1074.83Z" fill="#FFFFFF" fill-rule="nonzero" fill-opacity="1"/><path d="M0-2.29167 181.848-2.29167 181.848 98.9426 177.264 98.9426 177.264 0 179.556 2.29167 0 2.29167ZM193.306 94.3593 179.556 121.859 165.806 94.3593Z" fill="#FFFFFF" fill-rule="nonzero" fill-opacity="1" transform="matrix(-1 1.22465e-16 1.22465e-16 1 890.056 979.5)"/><text fill="#FFFFFF" fill-opacity="1" font-family="Calibri,Calibri_MSFontService,sans-serif" font-style="normal" font-variant="normal" font-weight="400" font-stretch="normal" font-size="48" text-anchor="start" direction="ltr" writing-mode="lr-tb" unicode-bidi="normal" text-decoration="none" transform="matrix(1 0 0 1 1278.65 759)">P(</text><text fill="#FFFFFF" fill-opacity="1" font-family="Calibri,Calibri_MSFontService,sans-serif" font-style="normal" font-variant="normal" font-weight="400" font-stretch="normal" font-size="48" text-anchor="start" direction="ltr" writing-mode="lr-tb" unicode-bidi="normal" text-decoration="none" transform="matrix(1 0 0 1 1317.61 759)">bottleneck</text><text fill="#FFFFFF" fill-opacity="1" font-family="Calibri,Calibri_MSFontService,sans-serif" font-style="normal" font-variant="normal" font-weight="400" font-stretch="normal" font-size="48" text-anchor="start" direction="ltr" writing-mode="lr-tb" unicode-bidi="normal" text-decoration="none" transform="matrix(1 0 0 1 1526.72 759)">)= a</text><text fill="#FFFFFF" fill-opacity="1" font-family="Calibri,Calibri_MSFontService,sans-serif" font-style="normal" font-variant="normal" font-weight="400" font-stretch="normal" font-size="46" text-anchor="start" direction="ltr" writing-mode="lr-tb" unicode-bidi="normal" text-decoration="none" transform="matrix(1 0 0 1 298.842 1034)">P(</text><text fill="#FFFFFF" fill-opacity="1" font-family="Calibri,Calibri_MSFontService,sans-serif" font-style="normal" font-variant="normal" font-weight="400" font-stretch="normal" font-size="46" text-anchor="start" direction="ltr" writing-mode="lr-tb" unicode-bidi="normal" text-decoration="none" transform="matrix(1 0 0 1 336.082 1034)">widespread</text><text fill="#FFFFFF" fill-opacity="1" font-family="Calibri,Calibri_MSFontService,sans-serif" font-style="normal" font-variant="normal" font-weight="400" font-stretch="normal" font-size="46" text-anchor="start" direction="ltr" writing-mode="lr-tb" unicode-bidi="normal" text-decoration="none" transform="matrix(1 0 0 1 552.644 1034)">)= a x b</text><path d="M2415 384.834C2415 373.88 2423.88 365 2434.83 365L3012.17 365C3023.12 365 3032 373.88 3032 384.834L3032 464.166C3032 475.12 3023.12 484 3012.17 484L2434.83 484C2423.88 484 2415 475.12 2415 464.166Z" fill="#B3CB2D" fill-rule="evenodd" fill-opacity="1"/><text fill="#000000" fill-opacity="1" font-family="Calibri,Calibri_MSFontService,sans-serif" font-style="normal" font-variant="normal" font-weight="400" font-stretch="normal" font-size="55" text-anchor="start" direction="ltr" writing-mode="lr-tb" unicode-bidi="normal" text-decoration="none" transform="matrix(1 0 0 1 2465.28 442)">Supply Chain </text><text fill="#000000" fill-opacity="1" font-family="Calibri,Calibri_MSFontService,sans-serif" font-style="normal" font-variant="normal" font-weight="400" font-stretch="normal" font-size="55" text-anchor="start" direction="ltr" writing-mode="lr-tb" unicode-bidi="normal" text-decoration="none" transform="matrix(1 0 0 1 2764.34 442)">Condition</text><path d="M2510 1121.83C2510 1110.88 2518.88 1102 2529.83 1102L2920.17 1102C2931.12 1102 2940 1110.88 2940 1121.83L2940 1201.17C2940 1212.12 2931.12 1221 2920.17 1221L2529.83 1221C2518.88 1221 2510 1212.12 2510 1201.17Z" fill="#9B9B9B" fill-rule="evenodd" fill-opacity="1"/><text fill="#000000" fill-opacity="1" font-family="Calibri,Calibri_MSFontService,sans-serif" font-style="normal" font-variant="normal" font-weight="400" font-stretch="normal" font-size="55" text-anchor="start" direction="ltr" writing-mode="lr-tb" unicode-bidi="normal" text-decoration="none" transform="matrix(1 0 0 1 2522.58 1179)">Normal Operation </text><path d="M3207 752.833C3207 741.88 3215.88 733 3226.83 733L3721.17 733C3732.12 733 3741 741.88 3741 752.833L3741 832.166C3741 843.12 3732.12 852 3721.17 852L3226.83 852C3215.88 852 3207 843.12 3207 832.166Z" fill="#B3CB2D" fill-rule="evenodd" fill-opacity="1"/><text fill="#000000" fill-opacity="1" font-family="Calibri,Calibri_MSFontService,sans-serif" font-style="normal" font-variant="normal" font-weight="400" font-stretch="normal" font-size="55" text-anchor="start" direction="ltr" writing-mode="lr-tb" unicode-bidi="normal" text-decoration="none" transform="matrix(1 0 0 1 3353.83 811)">Bottleneck</text><path d="M3006 1123C3006 1111.95 3014.95 1103 3026 1103L3416 1103C3427.05 1103 3436 1111.95 3436 1123L3436 1203C3436 1214.05 3427.05 1223 3416 1223L3026 1223C3014.95 1223 3006 1214.05 3006 1203Z" fill="#B3CB2D" fill-rule="evenodd" fill-opacity="1"/><text fill="#000000" fill-opacity="1" font-family="Calibri,Calibri_MSFontService,sans-serif" font-style="normal" font-variant="normal" font-weight="400" font-stretch="normal" font-size="55" text-anchor="start" direction="ltr" writing-mode="lr-tb" unicode-bidi="normal" text-decoration="none" transform="matrix(1 0 0 1 3132.45 1181)">Isolated</text><path d="M3502 1123C3502 1111.95 3510.95 1103 3522 1103L3912 1103C3923.05 1103 3932 1111.95 3932 1123L3932 1203C3932 1214.05 3923.05 1223 3912 1223L3522 1223C3510.95 1223 3502 1214.05 3502 1203Z" fill="#9B9B9B" fill-rule="evenodd" fill-opacity="1"/><text fill="#000000" fill-opacity="1" font-family="Calibri,Calibri_MSFontService,sans-serif" font-style="normal" font-variant="normal" font-weight="400" font-stretch="normal" font-size="55" text-anchor="start" direction="ltr" writing-mode="lr-tb" unicode-bidi="normal" text-decoration="none" transform="matrix(1 0 0 1 3587.43 1181)">widespread</text><path d="M2671 793 2725 739 2779 793 2725 847Z" fill="#B3CB2D" fill-rule="evenodd" fill-opacity="1"/><path d="M3420 977 3474 923 3528 977 3474 1031Z" fill="#B3CB2D" fill-rule="evenodd" fill-opacity="1"/><path d="M2725.79 484.486 2727.15 716.612 2722.56 716.639 2721.21 484.513ZM2738.58 711.962 2724.99 739.542 2711.08 712.122Z" fill="#FFFFFF" fill-rule="nonzero" fill-opacity="1"/><path d="M2727.79 847.5 2727.79 1079.63 2723.21 1079.63 2723.21 847.5ZM2739.25 1075.04 2725.5 1102.54 2711.75 1075.04Z" fill="#FFFFFF" fill-rule="nonzero" fill-opacity="1"/><path d="M2779.5 791.208 3184.83 791.209 3184.83 795.792 2779.5 795.792ZM3180.25 779.75 3207.75 793.5 3180.25 807.25Z" fill="#FFFFFF" fill-rule="nonzero" fill-opacity="1"/><path d="M3476.79 852.5 3476.79 900.349 3472.21 900.349 3472.21 852.5ZM3488.25 895.766 3474.5 923.266 3460.75 895.766Z" fill="#FFFFFF" fill-rule="nonzero" fill-opacity="1"/><path d="M3528.5 975.208 3720.32 975.208 3720.32 1080.93 3715.74 1080.93 3715.74 977.5 3718.03 979.792 3528.5 979.792ZM3731.78 1076.35 3718.03 1103.85 3704.28 1076.35Z" fill="#FFFFFF" fill-rule="nonzero" fill-opacity="1"/><path d="M0-2.29167 201.229-2.29167 201.229 103.434 196.645 103.434 196.645 0 198.937 2.29167 0 2.29167ZM212.687 98.851 198.937 126.351 185.187 98.851Z" fill="#FFFFFF" fill-rule="nonzero" fill-opacity="1" transform="matrix(-1 1.22465e-16 1.22465e-16 1 3420.44 977.5)"/><text fill="#FFFFFF" fill-opacity="1" font-family="Calibri,Calibri_MSFontService,sans-serif" font-style="normal" font-variant="normal" font-weight="400" font-stretch="normal" font-size="48" text-anchor="start" direction="ltr" writing-mode="lr-tb" unicode-bidi="normal" text-decoration="none" transform="matrix(1 0 0 1 2775.95 767)">P(</text><text fill="#FFFFFF" fill-opacity="1" font-family="Calibri,Calibri_MSFontService,sans-serif" font-style="normal" font-variant="normal" font-weight="400" font-stretch="normal" font-size="48" text-anchor="start" direction="ltr" writing-mode="lr-tb" unicode-bidi="normal" text-decoration="none" transform="matrix(1 0 0 1 2814.91 767)">bottleneck</text><text fill="#FFFFFF" fill-opacity="1" font-family="Calibri,Calibri_MSFontService,sans-serif" font-style="normal" font-variant="normal" font-weight="400" font-stretch="normal" font-size="48" text-anchor="start" direction="ltr" writing-mode="lr-tb" unicode-bidi="normal" text-decoration="none" transform="matrix(1 0 0 1 3024.03 767)">)= a </text><text fill="#FFFFFF" fill-opacity="1" font-family="Calibri,Calibri_MSFontService,sans-serif" font-style="normal" font-variant="normal" font-weight="400" font-stretch="normal" font-size="48" text-anchor="start" direction="ltr" writing-mode="lr-tb" unicode-bidi="normal" text-decoration="none" transform="matrix(1 0 0 1 3107.1 767)">-</text><text fill="#FFFFFF" fill-opacity="1" font-family="Calibri,Calibri_MSFontService,sans-serif" font-style="normal" font-variant="normal" font-weight="700" font-stretch="normal" font-size="48" text-anchor="start" direction="ltr" writing-mode="lr-tb" unicode-bidi="normal" text-decoration="none" transform="matrix(1 0 0 1 3132.88 767)">m</text><text fill="#FFFFFF" fill-opacity="1" font-family="Calibri,Calibri_MSFontService,sans-serif" font-style="normal" font-variant="normal" font-weight="400" font-stretch="normal" font-size="46" text-anchor="start" direction="ltr" writing-mode="lr-tb" unicode-bidi="normal" text-decoration="none" transform="matrix(1 0 0 1 3754.77 1046)">P(</text><text fill="#FFFFFF" fill-opacity="1" font-family="Calibri,Calibri_MSFontService,sans-serif" font-style="normal" font-variant="normal" font-weight="400" font-stretch="normal" font-size="46" text-anchor="start" direction="ltr" writing-mode="lr-tb" unicode-bidi="normal" text-decoration="none" transform="matrix(1 0 0 1 3792.01 1046)">widespread</text><text fill="#FFFFFF" fill-opacity="1" font-family="Calibri,Calibri_MSFontService,sans-serif" font-style="normal" font-variant="normal" font-weight="400" font-stretch="normal" font-size="46" text-anchor="start" direction="ltr" writing-mode="lr-tb" unicode-bidi="normal" text-decoration="none" transform="matrix(1 0 0 1 4008.57 1046)">)= (a</text><text fill="#FFFFFF" fill-opacity="1" font-family="Calibri,Calibri_MSFontService,sans-serif" font-style="normal" font-variant="normal" font-weight="400" font-stretch="normal" font-size="46" text-anchor="start" direction="ltr" writing-mode="lr-tb" unicode-bidi="normal" text-decoration="none" transform="matrix(1 0 0 1 4091.07 1046)">-</text><text fill="#FFFFFF" fill-opacity="1" font-family="Calibri,Calibri_MSFontService,sans-serif" font-style="normal" font-variant="normal" font-weight="700" font-stretch="normal" font-size="46" text-anchor="start" direction="ltr" writing-mode="lr-tb" unicode-bidi="normal" text-decoration="none" transform="matrix(1 0 0 1 4104.82 1046)">m</text><text fill="#FFFFFF" fill-opacity="1" font-family="Calibri,Calibri_MSFontService,sans-serif" font-style="normal" font-variant="normal" font-weight="400" font-stretch="normal" font-size="46" text-anchor="start" direction="ltr" writing-mode="lr-tb" unicode-bidi="normal" text-decoration="none" transform="matrix(1 0 0 1 4142.06 1046)">) x (b</text><text fill="#FFFFFF" fill-opacity="1" font-family="Calibri,Calibri_MSFontService,sans-serif" font-style="normal" font-variant="normal" font-weight="400" font-stretch="normal" font-size="46" text-anchor="start" direction="ltr" writing-mode="lr-tb" unicode-bidi="normal" text-decoration="none" transform="matrix(1 0 0 1 4234.3 1046)">-</text><text fill="#FFFFFF" fill-opacity="1" font-family="Calibri,Calibri_MSFontService,sans-serif" font-style="normal" font-variant="normal" font-weight="700" font-stretch="normal" font-size="46" text-anchor="start" direction="ltr" writing-mode="lr-tb" unicode-bidi="normal" text-decoration="none" transform="matrix(1 0 0 1 4248.05 1046)">n</text><text fill="#FFFFFF" fill-opacity="1" font-family="Calibri,Calibri_MSFontService,sans-serif" font-style="normal" font-variant="normal" font-weight="400" font-stretch="normal" font-size="46" text-anchor="start" direction="ltr" writing-mode="lr-tb" unicode-bidi="normal" text-decoration="none" transform="matrix(1 0 0 1 4272.69 1046)">)</text><path d="M486.592 1432.32 950.731 1432.32 950.731 1586.32 486.592 1586.32Z" fill="#9B9B9B" fill-rule="evenodd" fill-opacity="1"/><path d="M950.731 1432.32 1446.9 1432.32 1446.9 1586.32 950.731 1586.32Z" fill="#CBD4DE" fill-rule="evenodd" fill-opacity="1"/><path d="M1446.9 1432.32 1922.01 1432.32 1922.01 1586.32 1446.9 1586.32Z" fill="#9B9B9B" fill-rule="evenodd" fill-opacity="1"/><path d="M1922.01 1432.32 2504.77 1432.32 2504.77 1586.32 1922.01 1586.32Z" fill="#046B99" fill-rule="evenodd" fill-opacity="1"/><path d="M2504.77 1432.32 2975.2 1432.32 2975.2 1586.32 2504.77 1586.32Z" fill="#9B9B9B" fill-rule="evenodd" fill-opacity="1"/><path d="M2975.2 1432.32 3473.71 1432.32 3473.71 1586.32 2975.2 1586.32Z" fill="#CBD4DE" fill-rule="evenodd" fill-opacity="1"/><path d="M3473.71 1432.32 3932.43 1432.32 3932.43 1586.32 3473.71 1586.32Z" fill="#9B9B9B" fill-rule="evenodd" fill-opacity="1"/><path d="M486.592 1586.32 950.731 1586.32 950.731 1740.32 486.592 1740.32Z" fill="#9B9B9B" fill-rule="evenodd" fill-opacity="1"/><path d="M950.731 1586.32 1446.9 1586.32 1446.9 1740.32 950.731 1740.32Z" fill="#E7EBEF" fill-rule="evenodd" fill-opacity="1"/><path d="M1446.9 1586.32 1922.01 1586.32 1922.01 1740.32 1446.9 1740.32Z" fill="#9B9B9B" fill-rule="evenodd" fill-opacity="1"/><path d="M1922.01 1586.32 2504.77 1586.32 2504.77 1740.32 1922.01 1740.32Z" fill="#046B99" fill-rule="evenodd" fill-opacity="1"/><path d="M2504.77 1586.32 2975.2 1586.32 2975.2 1740.32 2504.77 1740.32Z" fill="#9B9B9B" fill-rule="evenodd" fill-opacity="1"/><path d="M2975.2 1586.32 3473.71 1586.32 3473.71 1740.32 2975.2 1740.32Z" fill="#E7EBEF" fill-rule="evenodd" fill-opacity="1"/><path d="M3473.71 1586.32 3932.43 1586.32 3932.43 1740.32 3473.71 1740.32Z" fill="#9B9B9B" fill-rule="evenodd" fill-opacity="1"/><path d="M486.592 1740.32 950.731 1740.32 950.731 1894.32 486.592 1894.32Z" fill="#9B9B9B" fill-rule="evenodd" fill-opacity="1"/><path d="M950.731 1740.32 1446.9 1740.32 1446.9 1894.32 950.731 1894.32Z" fill="#CBD4DE" fill-rule="evenodd" fill-opacity="1"/><path d="M1446.9 1740.32 1922.01 1740.32 1922.01 1894.32 1446.9 1894.32Z" fill="#9B9B9B" fill-rule="evenodd" fill-opacity="1"/><path d="M1922.01 1740.32 2504.77 1740.32 2504.77 1894.32 1922.01 1894.32Z" fill="#046B99" fill-rule="evenodd" fill-opacity="1"/><path d="M2504.77 1740.32 2975.2 1740.32 2975.2 1894.32 2504.77 1894.32Z" fill="#9B9B9B" fill-rule="evenodd" fill-opacity="1"/><path d="M2975.2 1740.32 3473.71 1740.32 3473.71 1894.32 2975.2 1894.32Z" fill="#CBD4DE" fill-rule="evenodd" fill-opacity="1"/><path d="M3473.71 1740.32 3932.43 1740.32 3932.43 1894.32 3473.71 1894.32Z" fill="#9B9B9B" fill-rule="evenodd" fill-opacity="1"/><path d="M950.731 1430.02 950.731 1896.61" stroke="#FFFFFF" stroke-width="4.58333" stroke-linecap="butt" stroke-linejoin="round" stroke-miterlimit="10" stroke-opacity="1" fill="none" fill-rule="evenodd"/><path d="M1446.9 1430.02 1446.9 1896.61" stroke="#FFFFFF" stroke-width="4.58333" stroke-linecap="butt" stroke-linejoin="round" stroke-miterlimit="10" stroke-opacity="1" fill="none" fill-rule="evenodd"/><path d="M1922.01 1430.02 1922.01 1896.61" stroke="#FFFFFF" stroke-width="4.58333" stroke-linecap="butt" stroke-linejoin="round" stroke-miterlimit="10" stroke-opacity="1" fill="none" fill-rule="evenodd"/><path d="M2504.77 1430.02 2504.77 1896.61" stroke="#FFFFFF" stroke-width="4.58333" stroke-linecap="butt" stroke-linejoin="round" stroke-miterlimit="10" stroke-opacity="1" fill="none" fill-rule="evenodd"/><path d="M2975.2 1430.02 2975.2 1896.61" stroke="#FFFFFF" stroke-width="4.58333" stroke-linecap="butt" stroke-linejoin="round" stroke-miterlimit="10" stroke-opacity="1" fill="none" fill-rule="evenodd"/><path d="M3473.71 1430.02 3473.71 1896.61" stroke="#FFFFFF" stroke-width="4.58333" stroke-linecap="butt" stroke-linejoin="round" stroke-miterlimit="10" stroke-opacity="1" fill="none" fill-rule="evenodd"/><path d="M484.301 1586.32 3934.72 1586.32" stroke="#FFFFFF" stroke-width="4.58333" stroke-linecap="butt" stroke-linejoin="round" stroke-miterlimit="10" stroke-opacity="1" fill="none" fill-rule="evenodd"/><path d="M484.301 1740.32 3934.72 1740.32" stroke="#FFFFFF" stroke-width="4.58333" stroke-linecap="butt" stroke-linejoin="round" stroke-miterlimit="10" stroke-opacity="1" fill="none" fill-rule="evenodd"/><path d="M486.592 1430.02 486.592 1896.61" stroke="#FFFFFF" stroke-width="4.58333" stroke-linecap="butt" stroke-linejoin="round" stroke-miterlimit="10" stroke-opacity="1" fill="none" fill-rule="evenodd"/><path d="M3932.43 1430.02 3932.43 1896.61" stroke="#FFFFFF" stroke-width="4.58333" stroke-linecap="butt" stroke-linejoin="round" stroke-miterlimit="10" stroke-opacity="1" fill="none" fill-rule="evenodd"/><path d="M484.301 1432.32 3934.72 1432.32" stroke="#FFFFFF" stroke-width="4.58333" stroke-linecap="butt" stroke-linejoin="round" stroke-miterlimit="10" stroke-opacity="1" fill="none" fill-rule="evenodd"/><path d="M484.301 1894.32 3934.72 1894.32" stroke="#FFFFFF" stroke-width="4.58333" stroke-linecap="butt" stroke-linejoin="round" stroke-miterlimit="10" stroke-opacity="1" fill="none" fill-rule="evenodd"/><text fill="#FFFFFF" fill-opacity="1" font-family="Calibri,Calibri_MSFontService,sans-serif" font-style="normal" font-variant="normal" font-weight="700" font-stretch="normal" font-size="50" text-anchor="start" direction="ltr" writing-mode="lr-tb" unicode-bidi="normal" text-decoration="none" transform="matrix(1 0 0 1 1996.54 1526)">Administrative Costs</text><text fill="#FFFFFF" fill-opacity="1" font-family="Calibri,Calibri_MSFontService,sans-serif" font-style="normal" font-variant="normal" font-weight="700" font-stretch="normal" font-size="50" text-anchor="start" direction="ltr" writing-mode="lr-tb" unicode-bidi="normal" text-decoration="none" transform="matrix(1 0 0 1 1969.61 1650)">Operational Bottleneck </text><text fill="#FFFFFF" fill-opacity="1" font-family="Calibri,Calibri_MSFontService,sans-serif" font-style="normal" font-variant="normal" font-weight="700" font-stretch="normal" font-size="50" text-anchor="start" direction="ltr" writing-mode="lr-tb" unicode-bidi="normal" text-decoration="none" transform="matrix(1 0 0 1 2157.53 1711)">Costs</text><text fill="#FFFFFF" fill-opacity="1" font-family="Calibri,Calibri_MSFontService,sans-serif" font-style="normal" font-variant="normal" font-weight="700" font-stretch="normal" font-size="50" text-anchor="start" direction="ltr" writing-mode="lr-tb" unicode-bidi="normal" text-decoration="none" transform="matrix(1 0 0 1 1974.77 1834)">Optimization</text><text fill="#FFFFFF" fill-opacity="1" font-family="Calibri,Calibri_MSFontService,sans-serif" font-style="normal" font-variant="normal" font-weight="700" font-stretch="normal" font-size="50" text-anchor="start" direction="ltr" writing-mode="lr-tb" unicode-bidi="normal" text-decoration="none" transform="matrix(1 0 0 1 2260.66 1834)">Potential </text><path d="M754 1314 754 1339.5 709.5 1365 665 1339.5 665 1314 709.5 1339.5Z" fill="#FFFFFF" fill-rule="evenodd" fill-opacity="1"/><path d="M735 1296 735 1313.5 709.5 1331 684 1313.5 684 1296 709.5 1313.5Z" fill="#FFFFFF" fill-rule="evenodd" fill-opacity="1"/><path d="M1247 1319 1247 1344.5 1202.5 1370 1158 1344.5 1158 1319 1202.5 1344.5Z" fill="#FFFFFF" fill-rule="evenodd" fill-opacity="1"/><path d="M1228 1301 1228 1319 1202.5 1337 1177 1319 1177 1301 1202.5 1319Z" fill="#FFFFFF" fill-rule="evenodd" fill-opacity="1"/><path d="M1739 1314 1739 1339.5 1694.5 1365 1650 1339.5 1650 1314 1694.5 1339.5Z" fill="#FFFFFF" fill-rule="evenodd" fill-opacity="1"/><path d="M1720 1296 1720 1313.5 1694.5 1331 1669 1313.5 1669 1296 1694.5 1313.5Z" fill="#FFFFFF" fill-rule="evenodd" fill-opacity="1"/><path d="M2769 1311 2769 1336 2724.5 1361 2680 1336 2680 1311 2724.5 1336Z" fill="#FFFFFF" fill-rule="evenodd" fill-opacity="1"/><path d="M2750 1293 2750 1310.5 2724.5 1328 2699 1310.5 2699 1293 2724.5 1310.5Z" fill="#FFFFFF" fill-rule="evenodd" fill-opacity="1"/><path d="M3263 1316 3263 1341.5 3218.5 1367 3174 1341.5 3174 1316 3218.5 1341.5Z" fill="#FFFFFF" fill-rule="evenodd" fill-opacity="1"/><path d="M3244 1298 3244 1316 3218.5 1334 3193 1316 3193 1298 3218.5 1316Z" fill="#FFFFFF" fill-rule="evenodd" fill-opacity="1"/><path d="M3755 1311 3755 1336.5 3710.5 1362 3666 1336.5 3666 1311 3710.5 1336.5Z" fill="#FFFFFF" fill-rule="evenodd" fill-opacity="1"/><path d="M3735 1293 3735 1310.5 3710 1328 3685 1310.5 3685 1293 3710 1310.5Z" fill="#FFFFFF" fill-rule="evenodd" fill-opacity="1"/><text fill="#FFFFFF" fill-opacity="1" font-family="Calibri,Calibri_MSFontService,sans-serif" font-style="normal" font-variant="normal" font-weight="400" font-stretch="normal" font-size="83" text-anchor="start" direction="ltr" writing-mode="lr-tb" unicode-bidi="normal" text-decoration="none" transform="matrix(1 0 0 1 501.869 1413)">1.3</text><text fill="#FFFFFF" fill-opacity="1" font-family="Calibri,Calibri_MSFontService,sans-serif" font-style="normal" font-variant="normal" font-weight="700" font-stretch="normal" font-size="83" text-anchor="start" direction="ltr" writing-mode="lr-tb" unicode-bidi="normal" text-decoration="none" transform="matrix(1 0 0 1 975.301 1410)">1.2</text><text fill="#FFFFFF" fill-opacity="1" font-family="Calibri,Calibri_MSFontService,sans-serif" font-style="normal" font-variant="normal" font-weight="400" font-stretch="normal" font-size="83" text-anchor="start" direction="ltr" writing-mode="lr-tb" unicode-bidi="normal" text-decoration="none" transform="matrix(1 0 0 1 1475.35 1410)">1.1</text><text fill="#FFFFFF" fill-opacity="1" font-family="Calibri,Calibri_MSFontService,sans-serif" font-style="normal" font-variant="normal" font-weight="400" font-stretch="normal" font-size="83" text-anchor="start" direction="ltr" writing-mode="lr-tb" unicode-bidi="normal" text-decoration="none" transform="matrix(1 0 0 1 2517.55 1407)">2.1</text><text fill="#FFFFFF" fill-opacity="1" font-family="Calibri,Calibri_MSFontService,sans-serif" font-style="normal" font-variant="normal" font-weight="700" font-stretch="normal" font-size="83" text-anchor="start" direction="ltr" writing-mode="lr-tb" unicode-bidi="normal" text-decoration="none" transform="matrix(1 0 0 1 2984.75 1413)">2.2</text><text fill="#FFFFFF" fill-opacity="1" font-family="Calibri,Calibri_MSFontService,sans-serif" font-style="normal" font-variant="normal" font-weight="400" font-stretch="normal" font-size="83" text-anchor="start" direction="ltr" writing-mode="lr-tb" unicode-bidi="normal" text-decoration="none" transform="matrix(1 0 0 1 3471.14 1422)">2.3</text><path d="M1641 794 1694.5 740 1748 794 1694.5 848Z" fill="#B3CB2D" fill-rule="evenodd" fill-opacity="1"/><path d="M522.124 1470 522.124 1519.5 537 1519.5 514.5 1542 492 1519.5 506.876 1519.5 506.876 1470Z" fill="#00B050" fill-rule="evenodd" fill-opacity="1"/><path d="M2519 1817.69 2549.69 1817.69 2549.69 1787 2561.31 1787 2561.31 1817.69 2592 1817.69 2592 1828.31 2561.31 1828.31 2561.31 1859 2549.69 1859 2549.69 1828.31 2519 1828.31Z" fill="#00B050" fill-rule="evenodd" fill-opacity="1"/><text fill="#262626" fill-opacity="1" font-family="Calibri,Calibri_MSFontService,sans-serif" font-style="italic" font-variant="normal" font-weight="400" font-stretch="normal" font-size="50" text-anchor="start" direction="ltr" writing-mode="lr-tb" unicode-bidi="normal" text-decoration="none" transform="matrix(1 0 0 1 591.243 1513)">Reduced</text><text fill="#262626" fill-opacity="1" font-family="Calibri,Calibri_MSFontService,sans-serif" font-style="italic" font-variant="normal" font-weight="400" font-stretch="normal" font-size="50" text-anchor="start" direction="ltr" writing-mode="lr-tb" unicode-bidi="normal" text-decoration="none" transform="matrix(1 0 0 1 589.162 1685)">Reduced</text><text fill="#262626" fill-opacity="1" font-family="Calibri,Calibri_MSFontService,sans-serif" font-style="italic" font-variant="normal" font-weight="400" font-stretch="normal" font-size="50" text-anchor="start" direction="ltr" writing-mode="lr-tb" unicode-bidi="normal" text-decoration="none" transform="matrix(1 0 0 1 1071.29 1678)">Reduced</text><text fill="#262626" fill-opacity="1" font-family="Calibri,Calibri_MSFontService,sans-serif" font-style="italic" font-variant="normal" font-weight="400" font-stretch="normal" font-size="50" text-anchor="start" direction="ltr" writing-mode="lr-tb" unicode-bidi="normal" text-decoration="none" transform="matrix(1 0 0 1 1067.47 1520)">Reduced</text><text fill="#262626" fill-opacity="1" font-family="Calibri,Calibri_MSFontService,sans-serif" font-style="italic" font-variant="normal" font-weight="400" font-stretch="normal" font-size="50" text-anchor="start" direction="ltr" writing-mode="lr-tb" unicode-bidi="normal" text-decoration="none" transform="matrix(1 0 0 1 2621.86 1515)">Reduced</text><text fill="#262626" fill-opacity="1" font-family="Calibri,Calibri_MSFontService,sans-serif" font-style="italic" font-variant="normal" font-weight="400" font-stretch="normal" font-size="50" text-anchor="start" direction="ltr" writing-mode="lr-tb" unicode-bidi="normal" text-decoration="none" transform="matrix(1 0 0 1 3131.18 1510)">Reduced</text><path d="M523.124 1637 523.124 1686.5 538 1686.5 515.5 1709 493 1686.5 507.876 1686.5 507.876 1637Z" fill="#00B050" fill-rule="evenodd" fill-opacity="1"/><path d="M994.124 1472 994.124 1521.5 1009 1521.5 986.5 1544 964 1521.5 978.876 1521.5 978.876 1472Z" fill="#00B050" fill-rule="evenodd" fill-opacity="1"/><path d="M992.793 1632 992.793 1681 1008 1681 985 1704 962 1681 977.207 1681 977.207 1632Z" fill="#00B050" fill-rule="evenodd" fill-opacity="1"/><path d="M2549.79 1469 2549.79 1518 2565 1518 2542 1541 2519 1518 2534.21 1518 2534.21 1469Z" fill="#00B050" fill-rule="evenodd" fill-opacity="1"/><path d="M3019.79 1471 3019.79 1520 3035 1520 3012 1543 2989 1520 3004.21 1520 3004.21 1471Z" fill="#00B050" fill-rule="evenodd" fill-opacity="1"/><path d="M3019.79 1640 3019.79 1689 3035 1689 3012 1712 2989 1689 3004.21 1689 3004.21 1640Z" fill="#00B050" fill-rule="evenodd" fill-opacity="1"/><path d="M3069.12 1640 3069.12 1689.5 3084 1689.5 3061.5 1712 3039 1689.5 3053.88 1689.5 3053.88 1640Z" fill="#00B050" fill-rule="evenodd" fill-opacity="1"/><path d="M3519.12 1477 3519.12 1525.5 3534 1525.5 3511.5 1548 3489 1525.5 3503.88 1525.5 3503.88 1477Z" fill="#00B050" fill-rule="evenodd" fill-opacity="1"/><path d="M3567.12 1477 3567.12 1525.5 3582 1525.5 3559.5 1548 3537 1525.5 3551.88 1525.5 3551.88 1477Z" fill="#00B050" fill-rule="evenodd" fill-opacity="1"/><path d="M3513.12 1640 3513.12 1689.5 3528 1689.5 3505.5 1712 3483 1689.5 3497.88 1689.5 3497.88 1640Z" fill="#00B050" fill-rule="evenodd" fill-opacity="1"/><path d="M3563.12 1640 3563.12 1689.5 3578 1689.5 3555.5 1712 3533 1689.5 3547.88 1689.5 3547.88 1640Z" fill="#00B050" fill-rule="evenodd" fill-opacity="1"/><path d="M3612.79 1640 3612.79 1689 3628 1689 3605 1712 3582 1689 3597.21 1689 3597.21 1640Z" fill="#00B050" fill-rule="evenodd" fill-opacity="1"/><text fill="#262626" fill-opacity="1" font-family="Calibri,Calibri_MSFontService,sans-serif" font-style="italic" font-variant="normal" font-weight="400" font-stretch="normal" font-size="50" text-anchor="start" direction="ltr" writing-mode="lr-tb" unicode-bidi="normal" text-decoration="none" transform="matrix(1 0 0 1 3657.45 1650)">Significantly</text><text fill="#262626" fill-opacity="1" font-family="Calibri,Calibri_MSFontService,sans-serif" font-style="italic" font-variant="normal" font-weight="400" font-stretch="normal" font-size="50" text-anchor="start" direction="ltr" writing-mode="lr-tb" unicode-bidi="normal" text-decoration="none" transform="matrix(1 0 0 1 3694.12 1705)">Reduced</text><text fill="#262626" fill-opacity="1" font-family="Calibri,Calibri_MSFontService,sans-serif" font-style="italic" font-variant="normal" font-weight="400" font-stretch="normal" font-size="50" text-anchor="start" direction="ltr" writing-mode="lr-tb" unicode-bidi="normal" text-decoration="none" transform="matrix(1 0 0 1 3659.32 1490)">Noticeably</text><text fill="#262626" fill-opacity="1" font-family="Calibri,Calibri_MSFontService,sans-serif" font-style="italic" font-variant="normal" font-weight="400" font-stretch="normal" font-size="50" text-anchor="start" direction="ltr" writing-mode="lr-tb" unicode-bidi="normal" text-decoration="none" transform="matrix(1 0 0 1 3680.82 1545)">Reduced</text><text fill="#262626" fill-opacity="1" font-family="Calibri,Calibri_MSFontService,sans-serif" font-style="italic" font-variant="normal" font-weight="400" font-stretch="normal" font-size="50" text-anchor="start" direction="ltr" writing-mode="lr-tb" unicode-bidi="normal" text-decoration="none" transform="matrix(1 0 0 1 3141.83 1656)">Noticeably</text><text fill="#262626" fill-opacity="1" font-family="Calibri,Calibri_MSFontService,sans-serif" font-style="italic" font-variant="normal" font-weight="400" font-stretch="normal" font-size="50" text-anchor="start" direction="ltr" writing-mode="lr-tb" unicode-bidi="normal" text-decoration="none" transform="matrix(1 0 0 1 3163.33 1711)">Reduced</text><text fill="#262626" fill-opacity="1" font-family="Calibri,Calibri_MSFontService,sans-serif" font-style="italic" font-variant="normal" font-weight="400" font-stretch="normal" font-size="50" text-anchor="start" direction="ltr" writing-mode="lr-tb" unicode-bidi="normal" text-decoration="none" transform="matrix(1 0 0 1 2620.35 1836)">Increased</text><text fill="#FFFFFF" fill-opacity="1" font-family="Calibri,Calibri_MSFontService,sans-serif" font-style="normal" font-variant="normal" font-weight="400" font-stretch="normal" font-size="50" text-anchor="start" direction="ltr" writing-mode="lr-tb" unicode-bidi="normal" text-decoration="none" transform="matrix(1 0 0 1 163.663 2038)">a = </text><text fill="#FFFFFF" fill-opacity="1" font-family="Calibri,Calibri_MSFontService,sans-serif" font-style="normal" font-variant="normal" font-weight="400" font-stretch="normal" font-size="50" text-anchor="start" direction="ltr" writing-mode="lr-tb" unicode-bidi="normal" text-decoration="none" transform="matrix(1 0 0 1 235.85 2038)">Probability of a general bottleneck occurring</text><text fill="#FFFFFF" fill-opacity="1" font-family="Calibri,Calibri_MSFontService,sans-serif" font-style="normal" font-variant="normal" font-weight="400" font-stretch="normal" font-size="50" text-anchor="start" direction="ltr" writing-mode="lr-tb" unicode-bidi="normal" text-decoration="none" transform="matrix(1 0 0 1 163.663 2137)">b = </text><text fill="#FFFFFF" fill-opacity="1" font-family="Calibri,Calibri_MSFontService,sans-serif" font-style="normal" font-variant="normal" font-weight="400" font-stretch="normal" font-size="50" text-anchor="start" direction="ltr" writing-mode="lr-tb" unicode-bidi="normal" text-decoration="none" transform="matrix(1 0 0 1 238.142 2137)">Conditional</text><text fill="#FFFFFF" fill-opacity="1" font-family="Calibri,Calibri_MSFontService,sans-serif" font-style="normal" font-variant="normal" font-weight="400" font-stretch="normal" font-size="50" text-anchor="start" direction="ltr" writing-mode="lr-tb" unicode-bidi="normal" text-decoration="none" transform="matrix(1 0 0 1 483.35 2137)">probability</text><text fill="#FFFFFF" fill-opacity="1" font-family="Calibri,Calibri_MSFontService,sans-serif" font-style="normal" font-variant="normal" font-weight="400" font-stretch="normal" font-size="50" text-anchor="start" direction="ltr" writing-mode="lr-tb" unicode-bidi="normal" text-decoration="none" transform="matrix(1 0 0 1 715.955 2137)">of</text><text fill="#FFFFFF" fill-opacity="1" font-family="Calibri,Calibri_MSFontService,sans-serif" font-style="normal" font-variant="normal" font-weight="400" font-stretch="normal" font-size="50" text-anchor="start" direction="ltr" writing-mode="lr-tb" unicode-bidi="normal" text-decoration="none" transform="matrix(1 0 0 1 769.236 2137)">a </text><text fill="#FFFFFF" fill-opacity="1" font-family="Calibri,Calibri_MSFontService,sans-serif" font-style="normal" font-variant="normal" font-weight="400" font-stretch="normal" font-size="50" text-anchor="start" direction="ltr" writing-mode="lr-tb" unicode-bidi="normal" text-decoration="none" transform="matrix(1 0 0 1 804.757 2137)">widespread</text><text fill="#FFFFFF" fill-opacity="1" font-family="Calibri,Calibri_MSFontService,sans-serif" font-style="normal" font-variant="normal" font-weight="400" font-stretch="normal" font-size="50" text-anchor="start" direction="ltr" writing-mode="lr-tb" unicode-bidi="normal" text-decoration="none" transform="matrix(1 0 0 1 1054.55 2137)">bottleneck</text><text fill="#FFFFFF" fill-opacity="1" font-family="Calibri,Calibri_MSFontService,sans-serif" font-style="normal" font-variant="normal" font-weight="400" font-stretch="normal" font-size="50" text-anchor="start" direction="ltr" writing-mode="lr-tb" unicode-bidi="normal" text-decoration="none" transform="matrix(1 0 0 1 1284.29 2137)">given</text><text fill="#FFFFFF" fill-opacity="1" font-family="Calibri,Calibri_MSFontService,sans-serif" font-style="normal" font-variant="normal" font-weight="400" font-stretch="normal" font-size="50" text-anchor="start" direction="ltr" writing-mode="lr-tb" unicode-bidi="normal" text-decoration="none" transform="matrix(1 0 0 1 1405.17 2137)">Bottleneck</text><text fill="#FFFFFF" fill-opacity="1" font-family="Calibri,Calibri_MSFontService,sans-serif" font-style="normal" font-variant="normal" font-weight="400" font-stretch="normal" font-size="50" text-anchor="start" direction="ltr" writing-mode="lr-tb" unicode-bidi="normal" text-decoration="none" transform="matrix(1 0 0 1 2251.42 2038)">m = </text><text fill="#FFFFFF" fill-opacity="1" font-family="Calibri,Calibri_MSFontService,sans-serif" font-style="normal" font-variant="normal" font-weight="400" font-stretch="normal" font-size="50" text-anchor="start" direction="ltr" writing-mode="lr-tb" unicode-bidi="normal" text-decoration="none" transform="matrix(1 0 0 1 2339.65 2038)">Reduction</text><text fill="#FFFFFF" fill-opacity="1" font-family="Calibri,Calibri_MSFontService,sans-serif" font-style="normal" font-variant="normal" font-weight="400" font-stretch="normal" font-size="50" text-anchor="start" direction="ltr" writing-mode="lr-tb" unicode-bidi="normal" text-decoration="none" transform="matrix(1 0 0 1 2558.5 2038)">Parameter </text><text fill="#FFFFFF" fill-opacity="1" font-family="Calibri,Calibri_MSFontService,sans-serif" font-style="normal" font-variant="normal" font-weight="400" font-stretch="normal" font-size="50" text-anchor="start" direction="ltr" writing-mode="lr-tb" unicode-bidi="normal" text-decoration="none" transform="matrix(1 0 0 1 2786.52 2038)">of a general bottleneck occurring</text><text fill="#FFFFFF" fill-opacity="1" font-family="Calibri,Calibri_MSFontService,sans-serif" font-style="normal" font-variant="normal" font-weight="400" font-stretch="normal" font-size="50" text-anchor="start" direction="ltr" writing-mode="lr-tb" unicode-bidi="normal" text-decoration="none" transform="matrix(1 0 0 1 2251.42 2137)">n = </text><text fill="#FFFFFF" fill-opacity="1" font-family="Calibri,Calibri_MSFontService,sans-serif" font-style="normal" font-variant="normal" font-weight="400" font-stretch="normal" font-size="50" text-anchor="start" direction="ltr" writing-mode="lr-tb" unicode-bidi="normal" text-decoration="none" transform="matrix(1 0 0 1 2325.9 2137)">Reduction</text><text fill="#FFFFFF" fill-opacity="1" font-family="Calibri,Calibri_MSFontService,sans-serif" font-style="normal" font-variant="normal" font-weight="400" font-stretch="normal" font-size="50" text-anchor="start" direction="ltr" writing-mode="lr-tb" unicode-bidi="normal" text-decoration="none" transform="matrix(1 0 0 1 2544.75 2137)">Parameter </text><text fill="#FFFFFF" fill-opacity="1" font-family="Calibri,Calibri_MSFontService,sans-serif" font-style="normal" font-variant="normal" font-weight="400" font-stretch="normal" font-size="50" text-anchor="start" direction="ltr" writing-mode="lr-tb" unicode-bidi="normal" text-decoration="none" transform="matrix(1 0 0 1 2772.77 2137)">of a </text><text fill="#FFFFFF" fill-opacity="1" font-family="Calibri,Calibri_MSFontService,sans-serif" font-style="normal" font-variant="normal" font-weight="400" font-stretch="normal" font-size="50" text-anchor="start" direction="ltr" writing-mode="lr-tb" unicode-bidi="normal" text-decoration="none" transform="matrix(1 0 0 1 2861.57 2137)">a </text><text fill="#FFFFFF" fill-opacity="1" font-family="Calibri,Calibri_MSFontService,sans-serif" font-style="normal" font-variant="normal" font-weight="400" font-stretch="normal" font-size="50" text-anchor="start" direction="ltr" writing-mode="lr-tb" unicode-bidi="normal" text-decoration="none" transform="matrix(1 0 0 1 2897.09 2137)">widespread</text><text fill="#FFFFFF" fill-opacity="1" font-family="Calibri,Calibri_MSFontService,sans-serif" font-style="normal" font-variant="normal" font-weight="400" font-stretch="normal" font-size="50" text-anchor="start" direction="ltr" writing-mode="lr-tb" unicode-bidi="normal" text-decoration="none" transform="matrix(1 0 0 1 3146.89 2137)">bottleneck</text><text fill="#FFFFFF" fill-opacity="1" font-family="Calibri,Calibri_MSFontService,sans-serif" font-style="normal" font-variant="normal" font-weight="400" font-stretch="normal" font-size="50" text-anchor="start" direction="ltr" writing-mode="lr-tb" unicode-bidi="normal" text-decoration="none" transform="matrix(1 0 0 1 3376.63 2137)">given</text><text fill="#FFFFFF" fill-opacity="1" font-family="Calibri,Calibri_MSFontService,sans-serif" font-style="normal" font-variant="normal" font-weight="400" font-stretch="normal" font-size="50" text-anchor="start" direction="ltr" writing-mode="lr-tb" unicode-bidi="normal" text-decoration="none" transform="matrix(1 0 0 1 3497.51 2137)">Bottleneck</text></g></g></svg>