<svg width="4355" height="2232" xmlns="http://www.w3.org/2000/svg" xmlns:xlink="http://www.w3.org/1999/xlink" xml:space="preserve" overflow="hidden"><g transform="translate(-22 -96)"><g><rect x="25.0001" y="96.9999" width="4350" height="2228" fill="#000000" fill-opacity="1"/><rect x="560.5" y="641.5" width="3349" height="1160" stroke="#FFFFFF" stroke-width="4.58333" stroke-linecap="butt" stroke-linejoin="miter" stroke-miterlimit="8" stroke-opacity="1" fill="none"/><path d="M605 597.167C605 584.372 615.372 574 628.167 574L2052.83 574C2065.63 574 2076 584.372 2076 597.167L2076 689.834C2076 702.629 2065.63 713.002 2052.83 713.002L628.167 713.002C615.372 713.002 605 702.629 605 689.834Z" fill="#FFA600" fill-rule="evenodd" fill-opacity="1"/><text fill="#000000" fill-opacity="1" font-family="Calibri,Calibri_MSFontService,sans-serif" font-style="normal" font-variant="normal" font-weight="400" font-stretch="normal" font-size="83" text-anchor="start" direction="ltr" writing-mode="lr-tb" unicode-bidi="normal" text-decoration="none" transform="matrix(1 0 0 1 1174.16 671)">Potentials</text><g><g><g><path d="M152.119 102.086C152.955 102.086 153.782 102.135 154.602 102.213L154.602 58.3363 236.269 58.3363 236.269 107.92 168.553 107.92C170.614 109.586 172.414 111.553 173.892 113.753L192.518 113.753 192.518 125.42 178.341 125.42 179.591 131.253 212.929 131.253 212.929 125.42 198.352 125.42 198.352 113.753 239.185 113.753C240.795 113.753 242.101 112.448 242.102 110.838 242.102 110.837 242.102 110.837 242.102 110.836L242.102 55.4196C242.102 53.8093 240.797 52.5032 239.187 52.5029 239.186 52.5029 239.185 52.5029 239.185 52.5029L151.685 52.5029C150.075 52.5027 148.769 53.8076 148.768 55.4182 148.768 55.4187 148.768 55.419 148.768 55.4196L148.768 102.086Z" fill="#FFFFFF" fill-rule="nonzero" fill-opacity="1" transform="matrix(1.00357 0 0 1 644 1231)"/><path d="M40.8503 113.753 81.6836 113.753 81.6836 125.42 67.0945 125.42 67.0945 131.253 100.443 131.253 101.693 125.42 87.517 125.42 87.517 113.753 106.141 113.753C107.619 111.553 109.419 109.586 111.48 107.92L43.7669 107.92 43.7669 58.3363 125.434 58.3363 125.434 102.213C126.253 102.134 127.079 102.086 127.914 102.086L131.267 102.086 131.267 55.4196C131.267 53.809 129.962 52.5032 128.352 52.5029 128.351 52.5029 128.351 52.5029 128.35 52.5029L40.8503 52.5029C39.2397 52.5024 37.9339 53.8076 37.9336 55.4179 37.9336 55.4185 37.9336 55.419 37.9336 55.4196L37.9336 110.836C37.933 112.447 39.2382 113.752 40.8485 113.753 40.8491 113.753 40.8497 113.753 40.8503 113.753Z" fill="#FFFFFF" fill-rule="nonzero" fill-opacity="1" transform="matrix(1.00357 0 0 1 644 1231)"/><path d="M99.1933 137.086 29.1836 137.086C27.5727 137.086 26.2669 138.392 26.2669 140.003 26.2669 141.614 27.5727 142.92 29.1836 142.92L52.0264 142.92 38.094 232.087 43.9968 232.087 57.9291 142.92 97.9435 142.92Z" fill="#FFFFFF" fill-rule="nonzero" fill-opacity="1" transform="matrix(1.00357 0 0 1 644 1231)"/><path d="M250.85 137.086 180.841 137.086 182.091 142.92 222.105 142.92 236.037 232.087 241.94 232.087 228.007 142.92 250.85 142.92C252.461 142.92 253.767 141.614 253.767 140.003 253.767 138.392 252.461 137.086 250.85 137.086Z" fill="#FFFFFF" fill-rule="nonzero" fill-opacity="1" transform="matrix(1.00357 0 0 1 644 1231)"/><path d="M117.555 195.4 112.785 232.087 118.667 232.087 123.435 195.42 156.598 195.42 161.366 232.087 167.248 232.087 162.478 195.4C173.74 195.216 182.72 185.938 182.536 174.676 182.514 173.348 182.362 172.024 182.083 170.725L172.083 124.058C170.029 114.667 161.732 107.96 152.119 107.919L127.914 107.919C118.301 107.96 110.004 114.667 107.95 124.058L97.9499 170.725C95.5836 181.736 102.592 192.581 113.604 194.947 114.903 195.226 116.226 195.378 117.555 195.4ZM103.655 171.95 113.656 125.283C115.12 118.574 121.047 113.781 127.914 113.753L152.119 113.753C158.986 113.782 164.913 118.574 166.379 125.283L176.378 171.95C178.066 179.824 173.05 187.575 165.176 189.263 164.171 189.478 163.147 189.586 162.12 189.586L117.914 189.586C109.861 189.587 103.332 183.059 103.331 175.006 103.331 173.978 103.44 172.954 103.655 171.95Z" fill="#FFFFFF" fill-rule="nonzero" fill-opacity="1" transform="matrix(1.00357 0 0 1 644 1231)"/></g></g></g><g><g><g><path d="M120 27.5 25 66.5 25 215.06 42.5 215.06 42.5 90.025 197.5 90.025 197.5 215.06 215 215.06 215 66.5ZM210 210.06 202.5 210.06 202.5 85.025 37.5 85.025 37.5 210.06 30 210.06 30 69.8475 120 32.9125 210 69.8475Z" fill="#FFFFFF" fill-rule="nonzero" fill-opacity="1" transform="matrix(1 0 0 1 1764 1250)"/><path d="M50 97.5 190 97.5 190 102.5 50 102.5Z" fill="#FFFFFF" fill-rule="nonzero" fill-opacity="1" transform="matrix(1 0 0 1 1764 1250)"/><path d="M50 110 190 110 190 115 50 115Z" fill="#FFFFFF" fill-rule="nonzero" fill-opacity="1" transform="matrix(1 0 0 1 1764 1250)"/><path d="M50 122.5 190 122.5 190 127.5 50 127.5Z" fill="#FFFFFF" fill-rule="nonzero" fill-opacity="1" transform="matrix(1 0 0 1 1764 1250)"/><path d="M152.5 145 120 145 120 177.5 87.5 177.5 87.5 215 190 215 190 145 152.5 145ZM125 150 152.5 150 152.5 177.5 125 177.5ZM120 210 92.5 210 92.5 182.5 120 182.5ZM152.5 210 125 210 125 182.5 152.5 182.5ZM185 210 157.5 210 157.5 182.5 185 182.5ZM185 150 185 177.5 157.5 177.5 157.5 150Z" fill="#FFFFFF" fill-rule="nonzero" fill-opacity="1" transform="matrix(1 0 0 1 1764 1250)"/><path d="M130 155 137.5 155 137.5 160 130 160Z" fill="#FFFFFF" fill-rule="nonzero" fill-opacity="1" transform="matrix(1 0 0 1 1764 1250)"/><path d="M162.5 155 170 155 170 160 162.5 160Z" fill="#FFFFFF" fill-rule="nonzero" fill-opacity="1" transform="matrix(1 0 0 1 1764 1250)"/><path d="M130 187.5 137.5 187.5 137.5 192.5 130 192.5Z" fill="#FFFFFF" fill-rule="nonzero" fill-opacity="1" transform="matrix(1 0 0 1 1764 1250)"/><path d="M97.5 187.5 105 187.5 105 192.5 97.5 192.5Z" fill="#FFFFFF" fill-rule="nonzero" fill-opacity="1" transform="matrix(1 0 0 1 1764 1250)"/><path d="M162.5 187.5 170 187.5 170 192.5 162.5 192.5Z" fill="#FFFFFF" fill-rule="nonzero" fill-opacity="1" transform="matrix(1 0 0 1 1764 1250)"/></g></g></g><g><g><g><path d="M2032.58 1445.1C2025.04 1445.1 2018.92 1451.22 2018.92 1458.77 2018.92 1466.32 2025.04 1472.43 2032.58 1472.43 2040.13 1472.43 2046.25 1466.32 2046.25 1458.77 2046.24 1451.22 2040.13 1445.11 2032.58 1445.1ZM2032.58 1469.02C2026.92 1469.02 2022.33 1464.43 2022.33 1458.77 2022.33 1453.11 2026.92 1448.52 2032.58 1448.52 2038.24 1448.52 2042.83 1453.11 2042.83 1458.77 2042.83 1464.43 2038.24 1469.02 2032.58 1469.02Z" fill="#FFFFFF" fill-rule="nonzero" fill-opacity="1"/><path d="M2149.43 1429.38 2140.38 1422.55C2139.19 1421.66 2138.35 1420.39 2137.99 1418.96L2134.57 1407.17C2132.83 1401.34 2127.5 1397.32 2121.42 1397.25L2104.33 1397.25 2104.33 1387 2001.83 1387 2001.83 1458.77 2015.5 1458.77C2015.5 1457.62 2015.61 1456.48 2015.84 1455.35L2005.25 1455.35 2005.25 1433.03 2100.92 1433.03 2100.92 1455.35 2049.33 1455.35C2049.55 1456.48 2049.67 1457.62 2049.67 1458.77L2106.04 1458.77C2106.04 1457.62 2106.16 1456.48 2106.38 1455.35L2104.33 1455.35 2104.33 1400.67 2111.17 1400.67 2111.17 1424.49 2137.44 1424.49C2137.73 1424.78 2138.04 1425.05 2138.36 1425.29L2147.34 1432.07C2148.22 1432.73 2148.74 1433.75 2148.75 1434.85L2148.75 1451.93C2148.75 1453.82 2147.22 1455.35 2145.33 1455.35L2139.87 1455.35C2140.1 1456.47 2140.21 1457.62 2140.21 1458.76L2145.33 1458.76C2149.1 1458.75 2152.15 1455.7 2152.17 1451.93L2152.17 1434.85C2152.16 1432.7 2151.15 1430.67 2149.43 1429.38ZM2100.92 1429.62 2005.25 1429.62 2005.25 1390.42 2100.92 1390.42ZM2114.58 1400.67 2121.42 1400.67C2125.97 1400.75 2129.96 1403.75 2131.29 1408.11L2134.69 1419.85C2134.81 1420.27 2134.95 1420.67 2135.12 1421.07L2114.58 1421.07Z" fill="#FFFFFF" fill-rule="nonzero" fill-opacity="1"/><path d="M2123.12 1445.1C2115.58 1445.1 2109.46 1451.22 2109.46 1458.77 2109.46 1466.32 2115.58 1472.43 2123.12 1472.43 2130.67 1472.43 2136.79 1466.32 2136.79 1458.77 2136.78 1451.22 2130.67 1445.11 2123.12 1445.1ZM2123.12 1469.02C2117.46 1469.02 2112.88 1464.43 2112.88 1458.77 2112.88 1453.11 2117.46 1448.52 2123.12 1448.52 2128.79 1448.52 2133.38 1453.11 2133.38 1458.77 2133.37 1464.43 2128.79 1469.02 2123.12 1469.02Z" fill="#FFFFFF" fill-rule="nonzero" fill-opacity="1"/></g></g></g><g><g><g><path d="M2983.32 1406.09 2980.96 1408.44 3024.89 1452.28C3027.18 1455.92 3026.74 1460.65 3023.81 1463.81 3022.13 1465.48 3019.86 1466.42 3017.49 1466.42 3015.68 1466.43 3013.92 1465.86 3012.45 1464.8 3012.45 1464.8 3011.9 1464.42 3011.55 1464.14 3011.45 1464.05 3011.19 1463.8 3011.19 1463.8L2968.34 1421.06 2965.98 1423.42 3008.91 1466.15 3010.5 1467.5C3012.54 1468.97 3014.99 1469.76 3017.5 1469.76 3020.75 1469.75 3023.87 1468.46 3026.17 1466.17 3030.31 1461.81 3030.86 1455.15 3027.5 1450.17Z" fill="#FFFFFF" fill-rule="nonzero" fill-opacity="1"/><path d="M3006.94 1382.1C3019.47 1382.16 3029.67 1372.05 3029.72 1359.52 3029.74 1356.67 3029.21 1353.83 3028.17 1351.17L3014.67 1364.67 3004 1361.83 3001.33 1351.33 3014.83 1337.83C3012.31 1336.89 3009.64 1336.4 3006.94 1336.41 3001.24 1336.42 2995.74 1338.53 2991.5 1342.33 2985.2 1348.11 2982.63 1356.91 2984.83 1365.17L2958.54 1391.46 2922.03 1355 2917.82 1346.75 2902.04 1334.1 2894.1 1342.05 2906.76 1357.82 2915 1362.03 2951.5 1398.49 2899.83 1450.17C2896.85 1453.05 2895.64 1457.31 2896.67 1461.33 2897.68 1465.35 2900.82 1468.48 2904.83 1469.5 2908.85 1470.51 2913.11 1469.3 2916 1466.33L3001 1381.33C3002.94 1381.84 3004.94 1382.1 3006.94 1382.1ZM2917.18 1359.49 2908.91 1355.18 2898.57 1342.29 2902.29 1338.57 2915.19 1348.9 2919.3 1357 2956.17 1393.82 2953.86 1396.13ZM2998.64 1378.98 2913.64 1463.98C2912.07 1465.59 2909.92 1466.5 2907.67 1466.52 2906.98 1466.52 2906.3 1466.43 2905.64 1466.27 2902.83 1465.54 2900.63 1463.34 2899.9 1460.53 2899.18 1457.67 2900.03 1454.65 2902.12 1452.59L2902.16 1452.56 2902.19 1452.52 2987.19 1367.52 2988.54 1366.18 2988.06 1364.33C2986.14 1357.28 2988.33 1349.75 2993.73 1344.82 2997.66 1341.28 3002.85 1339.46 3008.14 1339.78L3008.15 1339.81 2997.64 1350.32 3001.25 1364.55 3015.67 1368.39 3026.28 1357.77C3026.3 1357.75 3026.31 1357.76 3026.31 1357.78 3026.73 1363.12 3024.95 1368.41 3021.38 1372.41 3017.68 1376.48 3012.44 1378.79 3006.94 1378.77 3005.22 1378.76 3003.5 1378.54 3001.84 1378.1L2999.99 1377.62Z" fill="#FFFFFF" fill-rule="nonzero" fill-opacity="1"/><path d="M2907.81 1454.5C2905.71 1454.5 2904 1456.21 2904 1458.31 2904 1460.42 2905.7 1462.13 2907.81 1462.13 2909.92 1462.13 2911.62 1460.42 2911.62 1458.31 2911.62 1458.31 2911.62 1458.31 2911.62 1458.31 2911.62 1456.21 2909.92 1454.5 2907.81 1454.5Z" fill="#FFFFFF" fill-rule="nonzero" fill-opacity="1"/></g></g></g><g><g><g><path d="M181.522 74.5623C181.461 73.6578 180.803 72.9061 179.914 72.7268L158.66 68.3963C157.999 68.256 157.313 68.4623 156.839 68.9432L154.169 71.613 115.07 32.9125C110.215 27.3768 101.901 26.5507 96.0516 31.0227L53.6439 64.3815C53.1875 64.3614 52.7332 64.3333 52.2708 64.3333 32.2947 64.3566 16.1066 80.5447 16.0833 100.521L16.0833 142.94C11.4062 143.902 8.04769 148.017 8.04166 152.792L8.04166 162.844 96.4999 162.844 96.4999 152.792C96.4862 147.981 93.0691 143.853 88.3457 142.94L88.4583 100.521C88.4508 92.4371 85.715 84.5926 80.694 78.2574L99.7648 55.4392C102.781 56.551 106.091 56.5759 109.123 55.5096L139.949 85.8326 137.022 88.7578C136.548 89.2311 136.34 89.9096 136.469 90.5672L140.58 112.044C140.753 112.942 141.509 113.611 142.422 113.671L163.744 115.092 163.881 115.092C164.991 115.128 165.921 114.258 165.957 113.147 165.993 112.037 165.122 111.108 164.012 111.071L144.237 109.755 140.618 90.8466 158.913 72.5519 177.61 76.3596 178.927 96.1521C179.015 97.253 179.963 98.0837 181.066 98.0258 182.174 97.9573 183.017 97.0033 182.948 95.8952 182.948 95.8916 182.948 95.8881 182.948 95.8847ZM92.4791 152.792 92.4791 158.823 12.0625 158.823 12.0625 152.792C12.0625 149.46 14.7628 146.76 18.0937 146.76L86.4478 146.76C89.7789 146.76 92.4791 149.46 92.4791 152.792ZM84.4374 100.521 84.3248 142.739 20.1041 142.739 20.1041 100.521C20.1297 84.3331 32.1735 70.683 48.2319 68.6416L40.1701 74.9885C33.0874 80.9208 32.1548 91.4719 38.0873 98.5546 41.2654 102.349 45.9603 104.541 50.9097 104.542 51.153 104.542 51.3983 104.542 51.6435 104.523 56.331 104.311 60.7151 102.144 63.7302 98.5485L78.0664 81.3957C82.1992 86.9157 84.4342 93.625 84.4374 100.521ZM60.6502 95.9672C58.3732 98.7166 55.0339 100.367 51.4666 100.507 47.8989 100.703 44.4199 99.3513 41.9212 96.7975 36.9567 91.8382 36.9522 83.7933 41.9115 78.8288 42.165 78.5749 42.4292 78.332 42.7032 78.1006L90.5511 40.4355C90.5732 40.4194 90.5873 40.4355 90.5833 40.4536 89.9082 45.4872 92.042 50.4865 96.1441 53.4811ZM94.5739 43.5295C93.8506 38.0252 97.7265 32.9768 103.231 32.2535 108.735 31.5303 113.783 35.406 114.507 40.9103 115.23 46.4146 111.354 51.463 105.85 52.1863 104.981 52.3005 104.1 52.3005 103.231 52.1863 98.72 51.5895 95.1708 48.0403 94.5739 43.5295ZM118.643 42.09 151.26 74.3853 142.727 82.9196 112.859 53.5454C116.416 50.9447 118.547 46.8258 118.614 42.4198 118.614 42.3594 118.614 42.2187 118.614 42.1101 118.614 42.074 118.614 42.0699 118.643 42.09Z" fill="#FFFFFF" fill-rule="nonzero" fill-opacity="1" transform="matrix(1 0 0 1.00518 3047 1306)"/><path d="M49.5286 80.7121C46.9261 82.7911 46.5017 86.5862 48.5807 89.1888 50.6596 91.7913 54.4547 92.2157 57.0574 90.1367 57.2317 89.9974 57.3983 89.8485 57.5562 89.6906L57.5562 89.6906C59.9168 87.3407 59.9254 83.5219 57.5755 81.1612 55.4014 78.9771 51.9302 78.7833 49.5266 80.7121ZM54.7134 86.8499C53.9191 87.6099 52.667 87.6099 51.8727 86.8499 51.0875 86.0649 51.0873 84.7921 51.8723 84.0068 52.6574 83.2215 53.9302 83.2213 54.7155 84.0064 55.5007 84.7913 55.5009 86.0643 54.7159 86.8495 54.7157 86.8497 54.7157 86.8497 54.7155 86.8499Z" fill="#FFFFFF" fill-rule="nonzero" fill-opacity="1" transform="matrix(1 0 0 1.00518 3047 1306)"/><path d="M105.527 37.2872C102.804 36.7446 100.158 38.5113 99.6151 41.2336 99.0724 43.9559 100.839 46.6026 103.561 47.1452 106.284 47.6878 108.931 45.9211 109.473 43.1988 109.602 42.5502 109.602 41.8824 109.473 41.2336 109.076 39.2415 107.519 37.6842 105.527 37.2872ZM104.542 43.2239C103.986 43.2239 103.536 42.7738 103.536 42.2187 103.536 41.6636 103.986 41.2135 104.542 41.2135 105.097 41.2135 105.547 41.6636 105.547 42.2187 105.547 42.7738 105.097 43.2239 104.542 43.2239Z" fill="#FFFFFF" fill-rule="nonzero" fill-opacity="1" transform="matrix(1 0 0 1.00518 3047 1306)"/></g></g></g><g><g><g><path d="M2268.5 977.408 2268.5 929.283 2175.3 977.611 2165.13 838.688 2131.24 838.688 2120.69 983.063 2120.69 1079.31 2361.31 1079.31 2361.31 929.283ZM2158.74 845.563 2160 862.75 2136.38 862.75 2137.63 845.563ZM2135.87 869.625 2160.5 869.625 2168.55 979.625 2127.82 979.625ZM2173.28 986.393 2261.62 940.592 2261.62 988.717 2354.44 940.592 2354.44 1072.44 2127.56 1072.44 2127.56 986.5 2169.05 986.5Z" stroke="#FFFFFF" stroke-width="3.4375" stroke-linecap="butt" stroke-linejoin="miter" stroke-miterlimit="4" stroke-opacity="1" fill="#FFFFFF" fill-rule="nonzero" fill-opacity="1"/><path d="M2144.75 1051.81 2199.75 1051.81 2199.75 1017.44 2144.75 1017.44ZM2192.88 1044.94 2175.69 1044.94 2175.69 1024.31 2192.88 1024.31ZM2151.62 1024.31 2168.81 1024.31 2168.81 1044.94 2151.62 1044.94Z" stroke="#FFFFFF" stroke-width="3.4375" stroke-linecap="butt" stroke-linejoin="miter" stroke-miterlimit="4" stroke-opacity="1" fill="#FFFFFF" fill-rule="nonzero" fill-opacity="1"/><path d="M2213.5 1051.81 2268.5 1051.81 2268.5 1017.44 2213.5 1017.44ZM2261.62 1044.94 2244.44 1044.94 2244.44 1024.31 2261.62 1024.31ZM2220.38 1024.31 2237.56 1024.31 2237.56 1044.94 2220.38 1044.94Z" stroke="#FFFFFF" stroke-width="3.4375" stroke-linecap="butt" stroke-linejoin="miter" stroke-miterlimit="4" stroke-opacity="1" fill="#FFFFFF" fill-rule="nonzero" fill-opacity="1"/><path d="M2337.25 1017.44 2282.25 1017.44 2282.25 1051.81 2337.25 1051.81ZM2289.12 1024.31 2306.31 1024.31 2306.31 1044.94 2289.12 1044.94ZM2330.38 1044.94 2313.19 1044.94 2313.19 1024.31 2330.38 1024.31Z" stroke="#FFFFFF" stroke-width="3.4375" stroke-linecap="butt" stroke-linejoin="miter" stroke-miterlimit="4" stroke-opacity="1" fill="#FFFFFF" fill-rule="nonzero" fill-opacity="1"/></g></g></g><g><g><g><path d="M2347.55 854.61 2347.55 842.925C2347.55 835.025 2334.88 829.758 2319.57 827.619L2319.57 818.237C2319.57 815.604 2318.09 811.983 2311.35 808.527L2311.35 796.842C2311.35 786.144 2288.47 780.383 2266.91 780.383 2245.35 780.383 2222.47 786.144 2222.47 796.842L2222.47 810.008C2222.47 813.958 2225.6 817.25 2230.7 819.883L2230.7 831.404C2230.7 831.404 2230.7 831.404 2230.7 831.569 2223.95 835.025 2222.47 838.81 2222.47 841.279L2222.47 854.446C2222.47 865.144 2245.35 870.904 2266.91 870.904L2266.91 877.488C2266.91 888.185 2289.79 893.946 2311.35 893.946 2332.91 893.946 2355.78 888.185 2355.78 877.488L2355.78 864.321C2355.78 861.852 2354.3 858.067 2347.55 854.61ZM2352.49 864.485C2352.49 870.74 2335.54 877.652 2311.35 877.652 2292.09 877.652 2277.44 873.208 2272.17 868.271 2272.17 868.271 2272.17 868.271 2272.17 868.271 2282.21 871.398 2292.58 872.879 2302.95 872.715 2323.03 872.715 2344.43 867.613 2347.06 858.396 2350.68 860.206 2352.49 862.346 2352.49 864.485ZM2324.51 880.121 2324.51 889.996C2322.37 890.16 2320.23 890.49 2317.93 890.49L2317.93 880.615C2320.23 880.615 2322.37 880.45 2324.51 880.121ZM2327.8 879.792C2330.11 879.463 2332.25 879.133 2334.39 878.64L2334.39 888.35C2332.41 888.844 2330.11 889.173 2327.8 889.502L2327.8 879.792ZM2337.68 877.817C2339.98 877.323 2342.12 876.5 2344.26 875.677L2344.26 885.223C2342.12 886.21 2339.98 886.869 2337.68 887.527L2337.68 877.817ZM2285.01 887.527C2282.71 886.869 2280.57 886.21 2278.43 885.223L2278.43 875.677C2280.57 876.5 2282.71 877.158 2285.01 877.817L2285.01 887.527ZM2288.3 878.64C2290.44 879.133 2292.58 879.463 2294.89 879.792L2294.89 889.667C2292.58 889.338 2290.28 888.844 2288.3 888.515L2288.3 878.64ZM2298.18 880.121C2300.32 880.285 2302.62 880.615 2304.76 880.615L2304.76 890.49C2302.46 890.325 2300.32 890.16 2298.18 889.996L2298.18 880.121ZM2258.68 843.09 2258.68 843.583C2256.37 843.254 2254.07 842.76 2252.1 842.431L2252.1 832.721C2254.24 833.215 2256.37 833.544 2258.68 833.873L2258.68 843.09ZM2261.97 856.256 2261.97 849.673C2263.45 850.99 2265.1 852.142 2266.91 852.965L2266.91 862.346C2263.78 860.206 2261.97 858.231 2261.97 856.256ZM2344.26 856.256C2344.26 858.231 2342.45 860.371 2339.32 862.181L2339.32 852.8C2341.14 851.977 2342.78 850.825 2344.26 849.508L2344.26 856.256ZM2336.03 863.827C2333.89 864.815 2331.75 865.473 2329.45 866.131L2329.45 856.421C2331.75 855.927 2333.89 855.104 2336.03 854.281L2336.03 863.827ZM2326.16 866.954C2324.18 867.448 2321.88 867.777 2319.57 868.106L2319.57 858.231C2321.88 857.902 2324.02 857.573 2326.16 857.079L2326.16 866.954ZM2316.28 868.6C2314.14 868.765 2312 869.094 2309.7 869.094L2309.7 859.219C2311.84 859.054 2314.14 858.89 2316.28 858.725L2316.28 868.6ZM2306.41 869.258C2305.26 869.258 2304.27 869.258 2303.12 869.258 2301.96 869.258 2300.98 869.258 2299.82 869.258L2299.82 859.383C2300.98 859.383 2301.96 859.383 2303.12 859.383 2304.27 859.383 2305.26 859.383 2306.41 859.383L2306.41 869.258ZM2296.53 869.258C2294.23 869.094 2292.09 868.929 2289.95 868.765L2289.95 858.89C2292.09 859.054 2294.39 859.383 2296.53 859.383L2296.53 869.258ZM2286.66 868.271C2284.35 867.942 2282.05 867.448 2280.07 867.119L2280.07 857.408C2282.21 857.902 2284.35 858.231 2286.66 858.56L2286.66 868.271ZM2276.78 866.131C2274.48 865.473 2272.34 864.815 2270.2 863.827L2270.2 854.281C2272.34 855.104 2274.48 855.763 2276.78 856.421L2276.78 866.131ZM2344.26 843.09C2344.26 849.344 2327.31 856.256 2303.12 856.256 2278.92 856.256 2261.97 849.344 2261.97 843.09 2261.97 836.835 2278.92 829.923 2303.12 829.923 2327.31 829.923 2344.26 836.835 2344.26 843.09ZM2261.97 836.506 2261.97 834.037C2262.96 834.202 2263.95 834.202 2264.93 834.367 2263.95 835.025 2262.96 835.683 2261.97 836.506ZM2313.49 826.96C2314.47 826.302 2315.46 825.644 2316.45 824.821L2316.45 827.29C2315.3 827.125 2314.47 827.125 2313.49 826.96ZM2311.02 812.148C2314.47 814.123 2316.28 816.263 2316.28 818.237 2316.28 821.035 2312.66 824.162 2306.57 826.467 2305.42 826.467 2304.27 826.467 2303.12 826.467 2291.6 826.467 2279.58 828.112 2271.02 831.404 2253.74 830.91 2240.9 826.796 2236.13 822.188 2236.13 822.188 2236.13 822.188 2236.13 822.188 2246.17 825.315 2256.54 826.796 2266.91 826.631 2286.99 826.631 2308.38 821.529 2311.02 812.148ZM2248.8 831.733 2248.8 841.444C2246.5 840.785 2244.36 840.127 2242.22 839.14L2242.22 829.594C2244.36 830.417 2246.66 831.24 2248.8 831.733ZM2238.93 828.112 2238.93 837.494C2235.8 835.519 2233.99 833.544 2233.99 831.569L2233.99 824.985C2235.47 826.138 2237.12 827.29 2238.93 828.112ZM2233.99 817.744 2233.99 808.198C2236.13 809.021 2238.27 809.679 2240.57 810.337L2240.57 820.048C2238.44 819.39 2236.13 818.731 2233.99 817.744ZM2243.87 820.871 2243.87 811.16C2246.01 811.654 2248.15 811.983 2250.45 812.312L2250.45 822.188C2248.15 821.858 2246.01 821.365 2243.87 820.871ZM2253.74 822.517 2253.74 812.642C2255.88 812.806 2258.19 813.135 2260.32 813.135L2260.32 823.01C2258.02 823.01 2255.88 822.846 2253.74 822.517ZM2263.62 823.175 2263.62 813.3C2264.77 813.3 2265.76 813.3 2266.91 813.3 2268.06 813.3 2269.05 813.3 2270.2 813.3L2270.2 823.175C2269.05 823.175 2268.06 823.175 2266.91 823.175 2265.76 823.175 2264.77 823.34 2263.62 823.175ZM2273.49 823.175 2273.49 813.3C2275.63 813.135 2277.94 812.971 2280.07 812.806L2280.07 822.681C2277.94 822.846 2275.8 823.01 2273.49 823.175ZM2283.37 822.188 2283.37 812.312C2285.67 811.983 2287.81 811.654 2289.95 811.16L2289.95 820.871C2287.97 821.365 2285.67 821.858 2283.37 822.188ZM2293.24 820.048 2293.24 810.337C2295.55 809.844 2297.69 809.021 2299.82 808.198L2299.82 817.744C2297.69 818.731 2295.55 819.39 2293.24 820.048ZM2303.12 816.098 2303.12 806.717C2304.93 805.894 2306.57 804.742 2308.05 803.425L2308.05 810.008C2308.05 812.148 2306.41 814.123 2303.12 816.098ZM2230.7 816.098C2227.57 814.123 2225.76 812.148 2225.76 810.173L2225.76 803.59C2227.24 804.906 2228.89 806.058 2230.7 806.881L2230.7 816.098ZM2225.76 797.006C2225.76 790.752 2242.71 783.84 2266.91 783.84 2291.1 783.84 2308.05 790.752 2308.05 797.006 2308.05 803.26 2291.1 810.173 2266.91 810.173 2242.71 810.173 2225.76 803.096 2225.76 797.006ZM2231.52 834.86C2234.49 840.95 2245.68 844.9 2258.68 846.71L2258.68 854.117C2238.93 852.8 2225.76 846.71 2225.76 841.279 2225.76 839.14 2227.9 837 2231.52 834.86ZM2230.7 860.535C2227.57 858.56 2225.76 856.585 2225.76 854.61L2225.76 848.027C2227.24 849.344 2228.89 850.496 2230.7 851.319L2230.7 860.535ZM2240.57 864.485C2238.27 863.827 2236.13 863.169 2233.99 862.181L2233.99 852.635C2236.13 853.458 2238.27 854.117 2240.57 854.775L2240.57 864.485ZM2250.45 866.625C2248.15 866.296 2245.84 865.802 2243.87 865.473L2243.87 855.763C2246.01 856.256 2248.15 856.585 2250.45 856.915L2250.45 866.625ZM2253.74 857.079C2255.39 857.244 2257.03 857.408 2258.84 857.573 2259.01 858.725 2259.67 859.877 2260.32 861.029L2260.32 867.613C2258.02 867.448 2255.88 867.283 2253.74 867.119L2253.74 857.079ZM2263.62 863.992C2264.6 864.65 2265.76 865.308 2266.91 865.967L2266.91 867.613C2265.76 867.613 2264.77 867.613 2263.62 867.613L2263.62 863.992ZM2270.2 877.652 2270.2 871.069C2271.68 872.385 2273.33 873.538 2275.14 874.36L2275.14 883.742C2272.01 881.602 2270.2 879.627 2270.2 877.652ZM2308.05 880.779C2309.21 880.779 2310.19 880.779 2311.35 880.779 2312.5 880.779 2313.49 880.779 2314.64 880.779L2314.64 890.654C2313.49 890.654 2312.5 890.654 2311.35 890.654 2310.19 890.654 2309.21 890.654 2308.05 890.654L2308.05 880.779ZM2347.55 874.196C2349.36 873.373 2351.01 872.221 2352.49 870.904L2352.49 877.488C2352.49 879.463 2350.68 881.602 2347.55 883.413L2347.55 874.196Z" fill="#FFFFFF" fill-rule="nonzero" fill-opacity="1"/></g></g></g><path d="M644 1512C644 1500.95 652.954 1492 664 1492L1579 1492C1590.05 1492 1599 1500.95 1599 1512L1599 1592C1599 1603.05 1590.05 1612 1579 1612L664 1612C652.954 1612 644 1603.05 644 1592Z" fill="#B3CB2D" fill-rule="evenodd" fill-opacity="1"/><text fill="#000000" fill-opacity="1" font-family="Calibri,Calibri_MSFontService,sans-serif" font-style="normal" font-variant="normal" font-weight="700" font-stretch="normal" font-size="55" text-anchor="start" direction="ltr" writing-mode="lr-tb" unicode-bidi="normal" text-decoration="none" transform="matrix(1 0 0 1 887.548 1570)">Administrative Costs</text><path d="M1764 1509.83C1764 1498.88 1772.88 1490 1783.83 1490L2698.17 1490C2709.12 1490 2718 1498.88 2718 1509.83L2718 1589.17C2718 1600.12 2709.12 1609 2698.17 1609L1783.83 1609C1772.88 1609 1764 1600.12 1764 1589.17Z" fill="#B3CB2D" fill-rule="evenodd" fill-opacity="1"/><text fill="#000000" fill-opacity="1" font-family="Calibri,Calibri_MSFontService,sans-serif" font-style="normal" font-variant="normal" font-weight="700" font-stretch="normal" font-size="55" text-anchor="start" direction="ltr" writing-mode="lr-tb" unicode-bidi="normal" text-decoration="none" transform="matrix(1 0 0 1 1834.28 1568)">Direct Operational Bottleneck Costs</text><path d="M2883 1512C2883 1500.95 2891.95 1492 2903 1492L3817 1492C3828.05 1492 3837 1500.95 3837 1512L3837 1592C3837 1603.05 3828.05 1612 3817 1612L2903 1612C2891.95 1612 2883 1603.05 2883 1592Z" fill="#B3CB2D" fill-rule="evenodd" fill-opacity="1"/><text fill="#000000" fill-opacity="1" font-family="Calibri,Calibri_MSFontService,sans-serif" font-style="normal" font-variant="normal" font-weight="700" font-stretch="normal" font-size="55" text-anchor="start" direction="ltr" writing-mode="lr-tb" unicode-bidi="normal" text-decoration="none" transform="matrix(1 0 0 1 2922.4 1570)">Optimization in Production &amp; Logistics</text><path d="M0-2.29167 68.2728-2.29167 68.2728 1119.39 65.9811 1117.1 345.546 1117.1 345.546 1121.68 63.6894 1121.68 63.6894 0 65.9811 2.29167 0 2.29167ZM340.962 1105.64 368.462 1119.39 340.962 1133.14Z" fill="#FFFFFF" fill-rule="nonzero" fill-opacity="1" transform="matrix(1.83697e-16 1 1 -1.83697e-16 2241.5 1124.5)"/><path d="M2243.45 1124.5 2243.45 1192.77 1122.5 1192.77 1124.79 1190.48 1124.79 1470.05 1120.21 1470.05 1120.21 1188.19 2241.16 1188.19 2238.87 1190.48 2238.87 1124.5ZM1136.25 1465.46 1122.5 1492.96 1108.75 1465.46Z" fill="#FFFFFF" fill-rule="nonzero" fill-opacity="1"/><path d="M2243.79 1124.5 2244.22 1467.55 2239.64 1467.55 2239.21 1124.5ZM2255.67 1462.95 2241.96 1490.46 2228.17 1462.98Z" fill="#FFFFFF" fill-rule="nonzero" fill-opacity="1"/></g></g></svg>