<svg width="3447" height="1339" xmlns="http://www.w3.org/2000/svg" xmlns:xlink="http://www.w3.org/1999/xlink" xml:space="preserve" overflow="hidden"><g transform="translate(-485 -453)"><g><rect x="490" y="458" width="3438" height="1330" fill="#000000" fill-opacity="1"/><rect x="525.5" y="562.5" width="3350" height="1160" stroke="#FFFFFF" stroke-width="4.58333" stroke-linecap="butt" stroke-linejoin="miter" stroke-miterlimit="8" stroke-opacity="1" fill="none"/><path d="M570 518.167C570 505.372 580.372 495 593.167 495L2017.83 495C2030.63 495 2041 505.372 2041 518.167L2041 610.833C2041 623.628 2030.63 634 2017.83 634L593.167 634C580.372 634 570 623.628 570 610.833Z" fill="#FFA600" fill-rule="evenodd" fill-opacity="1"/><text fill="#000000" fill-opacity="1" font-family="Calibri,Calibri_MSFontService,sans-serif" font-style="normal" font-variant="normal" font-weight="400" font-stretch="normal" font-size="83" text-anchor="start" direction="ltr" writing-mode="lr-tb" unicode-bidi="normal" text-decoration="none" transform="matrix(1 0 0 1 1139.85 592)">Potentials</text><g><g><g><path d="M152.119 102.086C152.955 102.086 153.782 102.135 154.602 102.213L154.602 58.3363 236.269 58.3363 236.269 107.92 168.553 107.92C170.614 109.586 172.414 111.553 173.892 113.753L192.518 113.753 192.518 125.42 178.341 125.42 179.591 131.253 212.929 131.253 212.929 125.42 198.352 125.42 198.352 113.753 239.185 113.753C240.795 113.753 242.101 112.448 242.102 110.838 242.102 110.837 242.102 110.837 242.102 110.836L242.102 55.4196C242.102 53.8093 240.797 52.5032 239.187 52.5029 239.186 52.5029 239.185 52.5029 239.185 52.5029L151.685 52.5029C150.075 52.5027 148.769 53.8076 148.768 55.4182 148.768 55.4187 148.768 55.419 148.768 55.4196L148.768 102.086Z" fill="#FFFFFF" fill-rule="nonzero" fill-opacity="1" transform="matrix(1.00357 0 0 1 610 1152)"/><path d="M40.8503 113.753 81.6836 113.753 81.6836 125.42 67.0945 125.42 67.0945 131.253 100.443 131.253 101.693 125.42 87.517 125.42 87.517 113.753 106.141 113.753C107.619 111.553 109.419 109.586 111.48 107.92L43.7669 107.92 43.7669 58.3363 125.434 58.3363 125.434 102.213C126.253 102.134 127.079 102.086 127.914 102.086L131.267 102.086 131.267 55.4196C131.267 53.809 129.962 52.5032 128.352 52.5029 128.351 52.5029 128.351 52.5029 128.35 52.5029L40.8503 52.5029C39.2397 52.5024 37.9339 53.8076 37.9336 55.4179 37.9336 55.4185 37.9336 55.419 37.9336 55.4196L37.9336 110.836C37.933 112.447 39.2382 113.752 40.8485 113.753 40.8491 113.753 40.8497 113.753 40.8503 113.753Z" fill="#FFFFFF" fill-rule="nonzero" fill-opacity="1" transform="matrix(1.00357 0 0 1 610 1152)"/><path d="M99.1933 137.086 29.1836 137.086C27.5727 137.086 26.2669 138.392 26.2669 140.003 26.2669 141.614 27.5727 142.92 29.1836 142.92L52.0264 142.92 38.094 232.087 43.9968 232.087 57.9291 142.92 97.9435 142.92Z" fill="#FFFFFF" fill-rule="nonzero" fill-opacity="1" transform="matrix(1.00357 0 0 1 610 1152)"/><path d="M250.85 137.086 180.841 137.086 182.091 142.92 222.105 142.92 236.037 232.087 241.94 232.087 228.007 142.92 250.85 142.92C252.461 142.92 253.767 141.614 253.767 140.003 253.767 138.392 252.461 137.086 250.85 137.086Z" fill="#FFFFFF" fill-rule="nonzero" fill-opacity="1" transform="matrix(1.00357 0 0 1 610 1152)"/><path d="M117.555 195.4 112.785 232.087 118.667 232.087 123.435 195.42 156.598 195.42 161.366 232.087 167.248 232.087 162.478 195.4C173.74 195.216 182.72 185.938 182.536 174.676 182.514 173.348 182.362 172.024 182.083 170.725L172.083 124.058C170.029 114.667 161.732 107.96 152.119 107.919L127.914 107.919C118.301 107.96 110.004 114.667 107.95 124.058L97.9499 170.725C95.5836 181.736 102.592 192.581 113.604 194.947 114.903 195.226 116.226 195.378 117.555 195.4ZM103.655 171.95 113.656 125.283C115.12 118.574 121.047 113.781 127.914 113.753L152.119 113.753C158.986 113.782 164.913 118.574 166.379 125.283L176.378 171.95C178.066 179.824 173.05 187.575 165.176 189.263 164.171 189.478 163.147 189.586 162.12 189.586L117.914 189.586C109.861 189.587 103.332 183.059 103.331 175.006 103.331 173.978 103.44 172.954 103.655 171.95Z" fill="#FFFFFF" fill-rule="nonzero" fill-opacity="1" transform="matrix(1.00357 0 0 1 610 1152)"/></g></g></g><g><g><g><path d="M1849 1198.5 1754 1237.5 1754 1386.06 1771.5 1386.06 1771.5 1261.03 1926.5 1261.03 1926.5 1386.06 1944 1386.06 1944 1237.5ZM1939 1381.06 1931.5 1381.06 1931.5 1256.03 1766.5 1256.03 1766.5 1381.06 1759 1381.06 1759 1240.85 1849 1203.91 1939 1240.85Z" fill="#FFFFFF" fill-rule="nonzero" fill-opacity="1"/><path d="M1779 1268.5 1919 1268.5 1919 1273.5 1779 1273.5Z" fill="#FFFFFF" fill-rule="nonzero" fill-opacity="1"/><path d="M1779 1281 1919 1281 1919 1286 1779 1286Z" fill="#FFFFFF" fill-rule="nonzero" fill-opacity="1"/><path d="M1779 1293.5 1919 1293.5 1919 1298.5 1779 1298.5Z" fill="#FFFFFF" fill-rule="nonzero" fill-opacity="1"/><path d="M1881.5 1316 1849 1316 1849 1348.5 1816.5 1348.5 1816.5 1386 1919 1386 1919 1316 1881.5 1316ZM1854 1321 1881.5 1321 1881.5 1348.5 1854 1348.5ZM1849 1381 1821.5 1381 1821.5 1353.5 1849 1353.5ZM1881.5 1381 1854 1381 1854 1353.5 1881.5 1353.5ZM1914 1381 1886.5 1381 1886.5 1353.5 1914 1353.5ZM1914 1321 1914 1348.5 1886.5 1348.5 1886.5 1321Z" fill="#FFFFFF" fill-rule="nonzero" fill-opacity="1"/><path d="M1859 1326 1866.5 1326 1866.5 1331 1859 1331Z" fill="#FFFFFF" fill-rule="nonzero" fill-opacity="1"/><path d="M1891.5 1326 1899 1326 1899 1331 1891.5 1331Z" fill="#FFFFFF" fill-rule="nonzero" fill-opacity="1"/><path d="M1859 1358.5 1866.5 1358.5 1866.5 1363.5 1859 1363.5Z" fill="#FFFFFF" fill-rule="nonzero" fill-opacity="1"/><path d="M1826.5 1358.5 1834 1358.5 1834 1363.5 1826.5 1363.5Z" fill="#FFFFFF" fill-rule="nonzero" fill-opacity="1"/><path d="M1891.5 1358.5 1899 1358.5 1899 1363.5 1891.5 1363.5Z" fill="#FFFFFF" fill-rule="nonzero" fill-opacity="1"/></g></g></g><g><g><g><path d="M1998.58 1366.1C1991.04 1366.1 1984.92 1372.22 1984.92 1379.77 1984.92 1387.32 1991.04 1393.43 1998.58 1393.43 2006.13 1393.43 2012.25 1387.32 2012.25 1379.77 2012.24 1372.22 2006.13 1366.11 1998.58 1366.1ZM1998.58 1390.02C1992.92 1390.02 1988.33 1385.43 1988.33 1379.77 1988.33 1374.11 1992.92 1369.52 1998.58 1369.52 2004.24 1369.52 2008.83 1374.11 2008.83 1379.77 2008.83 1385.43 2004.24 1390.02 1998.58 1390.02Z" fill="#FFFFFF" fill-rule="nonzero" fill-opacity="1"/><path d="M2115.43 1350.38 2106.38 1343.55C2105.19 1342.66 2104.35 1341.39 2103.99 1339.96L2100.57 1328.17C2098.83 1322.34 2093.5 1318.32 2087.42 1318.25L2070.33 1318.25 2070.33 1308 1967.83 1308 1967.83 1379.77 1981.5 1379.77C1981.5 1378.62 1981.61 1377.48 1981.84 1376.35L1971.25 1376.35 1971.25 1354.03 2066.92 1354.03 2066.92 1376.35 2015.33 1376.35C2015.55 1377.48 2015.67 1378.62 2015.67 1379.77L2072.04 1379.77C2072.04 1378.62 2072.16 1377.48 2072.38 1376.35L2070.33 1376.35 2070.33 1321.67 2077.17 1321.67 2077.17 1345.49 2103.44 1345.49C2103.73 1345.78 2104.04 1346.05 2104.36 1346.29L2113.34 1353.07C2114.22 1353.73 2114.74 1354.75 2114.75 1355.85L2114.75 1372.93C2114.75 1374.82 2113.22 1376.35 2111.33 1376.35L2105.87 1376.35C2106.1 1377.47 2106.21 1378.62 2106.21 1379.76L2111.33 1379.76C2115.1 1379.75 2118.15 1376.7 2118.17 1372.93L2118.17 1355.85C2118.16 1353.7 2117.15 1351.67 2115.43 1350.38ZM2066.92 1350.62 1971.25 1350.62 1971.25 1311.42 2066.92 1311.42ZM2080.58 1321.67 2087.42 1321.67C2091.97 1321.75 2095.96 1324.75 2097.29 1329.11L2100.69 1340.85C2100.81 1341.27 2100.95 1341.67 2101.12 1342.07L2080.58 1342.07Z" fill="#FFFFFF" fill-rule="nonzero" fill-opacity="1"/><path d="M2089.12 1366.1C2081.58 1366.1 2075.46 1372.22 2075.46 1379.77 2075.46 1387.32 2081.58 1393.43 2089.12 1393.43 2096.67 1393.43 2102.79 1387.32 2102.79 1379.77 2102.78 1372.22 2096.67 1366.11 2089.12 1366.1ZM2089.12 1390.02C2083.46 1390.02 2078.88 1385.43 2078.88 1379.77 2078.88 1374.11 2083.46 1369.52 2089.12 1369.52 2094.79 1369.52 2099.38 1374.11 2099.38 1379.77 2099.37 1385.43 2094.79 1390.02 2089.12 1390.02Z" fill="#FFFFFF" fill-rule="nonzero" fill-opacity="1"/></g></g></g><g><g><g><path d="M100.318 83.0849 97.9616 85.4432 141.893 129.277C144.182 132.924 143.738 137.654 140.81 140.812 139.13 142.48 136.861 143.418 134.493 143.425 132.684 143.431 130.92 142.863 129.455 141.802 129.455 141.802 128.902 141.425 128.553 141.135 128.455 141.055 128.188 140.802 128.188 140.802L85.3416 98.0616 82.9849 100.418 125.907 143.148 127.5 144.5C129.536 145.974 131.987 146.764 134.5 146.757 137.75 146.754 140.867 145.463 143.167 143.167 147.308 138.806 147.862 132.153 144.5 127.167Z" fill="#FFFFFF" fill-rule="nonzero" fill-opacity="1" transform="matrix(1 0 0 1 2848 1244)"/><path d="M123.943 59.0983C136.467 59.1549 146.666 49.0485 146.722 36.5245 146.735 33.6655 146.207 30.8296 145.167 28.1666L131.667 41.6666 121 38.8333 118.333 28.3333 131.833 14.8333C129.31 13.8872 126.637 13.4034 123.942 13.405 118.241 13.4176 112.744 15.5278 108.5 19.3333 102.199 25.1088 99.6296 33.908 101.833 42.1666L75.5366 68.4633 39.0316 32 34.8216 23.75 19.045 11.0983 11.0983 19.045 23.765 34.8233 32 39.0316 68.4999 75.4883 16.8333 127.167C13.8502 130.051 12.6416 134.312 13.6667 138.333 14.6821 142.349 17.8176 145.484 21.8333 146.5 25.8538 147.509 30.1076 146.303 33 143.333L118 58.3333C119.941 58.8394 121.938 59.0964 123.943 59.0983ZM34.1766 36.4883 25.9083 32.1783 15.575 19.2883 19.295 15.5683 32.185 25.9016 36.3016 34 73.1749 70.8166 70.8649 73.1266ZM115.643 55.9766 30.6433 140.977C29.07 142.587 26.918 143.501 24.6666 143.517 23.9845 143.517 23.3048 143.432 22.6433 143.265 19.8265 142.541 17.6265 140.342 16.9016 137.525 16.18 134.673 17.0258 131.652 19.1233 129.59L19.1583 129.557 19.1916 129.523 104.192 44.5233 105.542 43.175 105.06 41.3333C103.138 34.2818 105.326 26.7478 110.727 21.8233 114.663 18.2813 119.854 16.4648 125.14 16.78L125.152 16.81 114.637 27.3166 118.252 41.5516 132.667 45.385 143.282 34.7683C143.297 34.7533 143.31 34.7583 143.312 34.78 143.727 40.1248 141.947 45.408 138.382 49.4116 134.684 53.4769 129.438 55.7864 123.943 55.7683 122.22 55.7636 120.505 55.5396 118.838 55.1016L116.992 54.6216Z" fill="#FFFFFF" fill-rule="nonzero" fill-opacity="1" transform="matrix(1 0 0 1 2848 1244)"/><path d="M24.8133 131.5C22.7073 131.499 20.9993 133.206 20.9983 135.312 20.9973 137.418 22.704 139.126 24.81 139.127 26.916 139.128 28.624 137.421 28.625 135.315 28.625 135.314 28.625 135.314 28.625 135.313 28.625 133.208 26.9186 131.501 24.8133 131.5Z" fill="#FFFFFF" fill-rule="nonzero" fill-opacity="1" transform="matrix(1 0 0 1 2848 1244)"/></g></g></g><g><g><g><path d="M3194.46 1301.95C3194.4 1301.04 3193.74 1300.28 3192.85 1300.1L3171.48 1295.75C3170.82 1295.61 3170.13 1295.82 3169.65 1296.3L3166.97 1298.98 3127.67 1260.08C3122.79 1254.52 3114.43 1253.69 3108.55 1258.18L3065.92 1291.72C3065.46 1291.69 3065.01 1291.67 3064.54 1291.67 3044.46 1291.69 3028.19 1307.96 3028.17 1328.04L3028.17 1370.68C3023.47 1371.65 3020.09 1375.78 3020.08 1380.58L3020.08 1390.69 3109 1390.69 3109 1380.58C3108.99 1375.75 3105.55 1371.6 3100.8 1370.68L3100.92 1328.04C3100.91 1319.92 3098.16 1312.03 3093.11 1305.66L3112.28 1282.73C3115.31 1283.84 3118.64 1283.87 3121.69 1282.8L3152.67 1313.28 3149.73 1316.22C3149.26 1316.69 3149.05 1317.38 3149.18 1318.04L3153.31 1339.63C3153.48 1340.53 3154.24 1341.2 3155.16 1341.26L3176.59 1342.69 3176.73 1342.69C3177.85 1342.72 3178.78 1341.85 3178.82 1340.73 3178.85 1339.62 3177.98 1338.68 3176.86 1338.65L3156.98 1337.32 3153.35 1318.32 3171.74 1299.93 3190.53 1303.76 3191.85 1323.65C3191.94 1324.76 3192.9 1325.59 3194 1325.53 3195.12 1325.46 3195.97 1324.51 3195.9 1323.39 3195.9 1323.39 3195.9 1323.39 3195.9 1323.38ZM3104.96 1380.58 3104.96 1386.65 3024.12 1386.65 3024.12 1380.58C3024.12 1377.24 3026.84 1374.52 3030.19 1374.52L3098.9 1374.52C3102.24 1374.52 3104.96 1377.24 3104.96 1380.58ZM3096.88 1328.04 3096.76 1370.48 3032.21 1370.48 3032.21 1328.04C3032.23 1311.77 3044.34 1298.05 3060.48 1296L3052.38 1302.38C3045.26 1308.34 3044.32 1318.95 3050.28 1326.07 3053.48 1329.88 3058.2 1332.08 3063.17 1332.08 3063.42 1332.08 3063.66 1332.08 3063.91 1332.07 3068.62 1331.85 3073.03 1329.67 3076.06 1326.06L3090.47 1308.82C3094.63 1314.37 3096.87 1321.11 3096.88 1328.04ZM3072.96 1323.46C3070.68 1326.23 3067.32 1327.89 3063.73 1328.03 3060.15 1328.23 3056.65 1326.87 3054.14 1324.3 3049.15 1319.31 3049.14 1311.23 3054.13 1306.24 3054.38 1305.98 3054.65 1305.74 3054.92 1305.51L3103.02 1267.64C3103.04 1267.63 3103.06 1267.64 3103.05 1267.66 3102.37 1272.72 3104.52 1277.75 3108.64 1280.76ZM3107.06 1270.76C3106.34 1265.22 3110.23 1260.15 3115.77 1259.42 3121.3 1258.69 3126.37 1262.59 3127.1 1268.12 3127.83 1273.66 3123.93 1278.73 3118.4 1279.46 3117.52 1279.57 3116.64 1279.57 3115.77 1279.46 3111.23 1278.86 3107.66 1275.29 3107.06 1270.76ZM3131.26 1269.31 3164.04 1301.77 3155.47 1310.35 3125.44 1280.82C3129.02 1278.21 3131.16 1274.07 3131.23 1269.64 3131.23 1269.58 3131.23 1269.44 3131.23 1269.33 3131.23 1269.29 3131.23 1269.29 3131.26 1269.31Z" fill="#FFFFFF" fill-rule="nonzero" fill-opacity="1"/><path d="M3061.79 1308.13C3059.17 1310.22 3058.74 1314.03 3060.83 1316.65 3062.92 1319.27 3066.74 1319.69 3069.35 1317.6 3069.53 1317.46 3069.7 1317.31 3069.85 1317.16L3069.85 1317.16C3072.23 1314.79 3072.24 1310.95 3069.87 1308.58 3067.69 1306.39 3064.2 1306.19 3061.78 1308.13ZM3067 1314.3C3066.2 1315.06 3064.94 1315.06 3064.14 1314.3 3063.35 1313.51 3063.35 1312.23 3064.14 1311.44 3064.93 1310.65 3066.21 1310.65 3067 1311.44 3067.79 1312.23 3067.79 1313.51 3067 1314.3 3067 1314.3 3067 1314.3 3067 1314.3Z" fill="#FFFFFF" fill-rule="nonzero" fill-opacity="1"/><path d="M3118.07 1264.48C3115.34 1263.93 3112.68 1265.71 3112.13 1268.45 3111.59 1271.18 3113.36 1273.84 3116.1 1274.39 3118.83 1274.93 3121.5 1273.16 3122.04 1270.42 3122.17 1269.77 3122.17 1269.1 3122.04 1268.45 3121.64 1266.44 3120.08 1264.88 3118.07 1264.48ZM3117.08 1270.45C3116.53 1270.45 3116.07 1270 3116.07 1269.44 3116.07 1268.88 3116.53 1268.43 3117.08 1268.43 3117.64 1268.43 3118.09 1268.88 3118.09 1269.44 3118.09 1270 3117.64 1270.45 3117.08 1270.45Z" fill="#FFFFFF" fill-rule="nonzero" fill-opacity="1"/></g></g></g><g><g><g><path d="M2233.5 898.408 2233.5 850.283 2140.3 898.611 2130.13 759.688 2096.24 759.688 2085.69 904.062 2085.69 1000.31 2326.31 1000.31 2326.31 850.283ZM2123.74 766.562 2125 783.75 2101.38 783.75 2102.63 766.562ZM2100.87 790.625 2125.5 790.625 2133.55 900.625 2092.82 900.625ZM2138.28 907.393 2226.62 861.592 2226.62 909.717 2319.44 861.592 2319.44 993.438 2092.56 993.438 2092.56 907.5 2134.05 907.5Z" stroke="#FFFFFF" stroke-width="3.4375" stroke-linecap="butt" stroke-linejoin="miter" stroke-miterlimit="4" stroke-opacity="1" fill="#FFFFFF" fill-rule="nonzero" fill-opacity="1"/><path d="M2109.75 972.812 2164.75 972.812 2164.75 938.438 2109.75 938.438ZM2157.88 965.938 2140.69 965.938 2140.69 945.312 2157.88 945.312ZM2116.62 945.312 2133.81 945.312 2133.81 965.938 2116.62 965.938Z" stroke="#FFFFFF" stroke-width="3.4375" stroke-linecap="butt" stroke-linejoin="miter" stroke-miterlimit="4" stroke-opacity="1" fill="#FFFFFF" fill-rule="nonzero" fill-opacity="1"/><path d="M2178.5 972.812 2233.5 972.812 2233.5 938.438 2178.5 938.438ZM2226.62 965.938 2209.44 965.938 2209.44 945.312 2226.62 945.312ZM2185.38 945.312 2202.56 945.312 2202.56 965.938 2185.38 965.938Z" stroke="#FFFFFF" stroke-width="3.4375" stroke-linecap="butt" stroke-linejoin="miter" stroke-miterlimit="4" stroke-opacity="1" fill="#FFFFFF" fill-rule="nonzero" fill-opacity="1"/><path d="M2302.25 938.438 2247.25 938.438 2247.25 972.812 2302.25 972.812ZM2254.12 945.312 2271.31 945.312 2271.31 965.938 2254.12 965.938ZM2295.38 965.938 2278.19 965.938 2278.19 945.312 2295.38 945.312Z" stroke="#FFFFFF" stroke-width="3.4375" stroke-linecap="butt" stroke-linejoin="miter" stroke-miterlimit="4" stroke-opacity="1" fill="#FFFFFF" fill-rule="nonzero" fill-opacity="1"/></g></g></g><g><g><g><path d="M140.554 96.6103 140.554 84.9249C140.554 77.0249 127.881 71.7582 112.575 69.6187L112.575 60.2374C112.575 57.6041 111.094 53.9833 104.346 50.527L104.346 38.8416C104.346 28.1437 81.4686 22.3833 59.9082 22.3833 38.3479 22.3833 15.4708 28.1437 15.4708 38.8416L15.4708 52.0083C15.4708 55.9583 18.5979 59.2499 23.7 61.8832L23.7 73.4041C23.7 73.4041 23.7 73.4041 23.7 73.5686 16.9521 77.0249 15.4708 80.8103 15.4708 83.279L15.4708 96.4457C15.4708 107.144 38.3479 112.904 59.9082 112.904L59.9082 119.487C59.9082 130.185 82.7853 135.946 104.346 135.946 125.906 135.946 148.783 130.185 148.783 119.487L148.783 106.321C148.783 103.852 147.302 100.067 140.554 96.6103ZM145.491 106.485C145.491 112.739 128.539 119.652 104.346 119.652 85.0895 119.652 70.4416 115.208 65.1749 110.271 65.1749 110.271 65.1749 110.271 65.1749 110.271 75.2145 113.398 85.5832 114.879 95.9519 114.714 116.031 114.714 137.427 109.612 140.06 100.396 143.681 102.206 145.491 104.346 145.491 106.485ZM117.512 122.121 117.512 131.996C115.373 132.16 113.233 132.489 110.929 132.489L110.929 122.614C113.233 122.614 115.373 122.45 117.512 122.121ZM120.804 121.791C123.108 121.462 125.248 121.133 127.387 120.639L127.387 130.35C125.412 130.844 123.108 131.173 120.804 131.502L120.804 121.791ZM130.679 119.816C132.983 119.323 135.123 118.5 137.262 117.677L137.262 127.223C135.123 128.21 132.983 128.869 130.679 129.527L130.679 119.816ZM78.0124 129.527C75.7082 128.869 73.5686 128.21 71.4291 127.223L71.4291 117.677C73.5686 118.5 75.7082 119.158 78.0124 119.816L78.0124 129.527ZM81.3041 120.639C83.4436 121.133 85.5832 121.462 87.8874 121.791L87.8874 131.666C85.5832 131.337 83.279 130.844 81.3041 130.514L81.3041 120.639ZM91.179 122.121C93.3186 122.285 95.6228 122.614 97.7624 122.614L97.7624 132.489C95.4582 132.325 93.3186 132.16 91.179 131.996L91.179 122.121ZM51.6791 85.0895 51.6791 85.5832C49.3749 85.254 47.0708 84.7603 45.0958 84.4311L45.0958 74.7207C47.2354 75.2145 49.3749 75.5436 51.6791 75.8728L51.6791 85.0895ZM54.9708 98.2561 54.9708 91.6728C56.452 92.9894 58.0978 94.1415 59.9082 94.9644L59.9082 104.346C56.7812 102.206 54.9708 100.231 54.9708 98.2561ZM137.262 98.2561C137.262 100.231 135.452 102.371 132.325 104.181L132.325 94.7999C134.135 93.9769 135.781 92.8249 137.262 91.5082L137.262 98.2561ZM129.033 105.827C126.894 106.814 124.754 107.473 122.45 108.131L122.45 98.4207C124.754 97.9269 126.894 97.104 129.033 96.2811L129.033 105.827ZM119.158 108.954C117.183 109.448 114.879 109.777 112.575 110.106L112.575 100.231C114.879 99.9019 117.019 99.5728 119.158 99.079L119.158 108.954ZM109.283 110.6C107.144 110.764 105.004 111.094 102.7 111.094L102.7 101.219C104.839 101.054 107.144 100.889 109.283 100.725L109.283 110.6ZM99.4082 111.258C98.2561 111.258 97.2686 111.258 96.1165 111.258 94.9644 111.258 93.9769 111.258 92.8249 111.258L92.8249 101.383C93.9769 101.383 94.9644 101.383 96.1165 101.383 97.2686 101.383 98.2561 101.383 99.4082 101.383L99.4082 111.258ZM89.5332 111.258C87.229 111.094 85.0895 110.929 82.9499 110.764L82.9499 100.889C85.0895 101.054 87.3936 101.383 89.5332 101.383L89.5332 111.258ZM79.6582 110.271C77.3541 109.942 75.0499 109.448 73.0749 109.119L73.0749 99.4082C75.2145 99.9019 77.3541 100.231 79.6582 100.56L79.6582 110.271ZM69.7832 108.131C67.4791 107.473 65.3395 106.814 63.1999 105.827L63.1999 96.2811C65.3395 97.104 67.4791 97.7624 69.7832 98.4207L69.7832 108.131ZM137.262 85.0895C137.262 91.3436 120.31 98.2561 96.1165 98.2561 71.9228 98.2561 54.9708 91.3436 54.9708 85.0895 54.9708 78.8353 71.9228 71.9228 96.1165 71.9228 120.31 71.9228 137.262 78.8353 137.262 85.0895ZM54.9708 78.5061 54.9708 76.0374C55.9583 76.202 56.9458 76.202 57.9333 76.3666 56.9458 77.0249 55.9583 77.6832 54.9708 78.5061ZM106.485 68.9603C107.473 68.302 108.46 67.6437 109.448 66.8207L109.448 69.2895C108.296 69.1249 107.473 69.1249 106.485 68.9603ZM104.017 54.1478C107.473 56.1228 109.283 58.2624 109.283 60.2374 109.283 63.0353 105.662 66.1624 99.5728 68.4666 98.4207 68.4666 97.2686 68.4666 96.1165 68.4666 84.5957 68.4666 72.5811 70.1124 64.0228 73.4041 46.7416 72.9103 33.9041 68.7957 29.1312 64.1874 29.1312 64.1874 29.1312 64.1874 29.1312 64.1874 39.1708 67.3145 49.5395 68.7957 59.9082 68.6312 79.9874 68.6312 101.383 63.5291 104.017 54.1478ZM41.8041 73.7332 41.8041 83.4436C39.4999 82.7853 37.3604 82.127 35.2208 81.1395L35.2208 71.5937C37.3604 72.4166 39.6645 73.2395 41.8041 73.7332ZM31.9291 70.1124 31.9291 79.4936C28.802 77.5186 26.9916 75.5436 26.9916 73.5686L26.9916 66.9853C28.4729 68.1374 30.1187 69.2895 31.9291 70.1124ZM26.9916 59.7437 26.9916 50.1978C29.1312 51.0208 31.2708 51.6791 33.575 52.3374L33.575 62.0478C31.4354 61.3895 29.1312 60.7312 26.9916 59.7437ZM36.8666 62.8707 36.8666 53.1603C39.0062 53.6541 41.1458 53.9833 43.4499 54.3124L43.4499 64.1874C41.1458 63.8582 39.0062 63.3645 36.8666 62.8707ZM46.7416 64.5166 46.7416 54.6416C48.8812 54.8062 51.1853 55.1353 53.3249 55.1353L53.3249 65.0103C51.0208 65.0103 48.8812 64.8457 46.7416 64.5166ZM56.6166 65.1749 56.6166 55.2999C57.7687 55.2999 58.7562 55.2999 59.9082 55.2999 61.0603 55.2999 62.0478 55.2999 63.1999 55.2999L63.1999 65.1749C62.0478 65.1749 61.0603 65.1749 59.9082 65.1749 58.7562 65.1749 57.7687 65.3395 56.6166 65.1749ZM66.4916 65.1749 66.4916 55.2999C68.6312 55.1353 70.9353 54.9708 73.0749 54.8062L73.0749 64.6812C70.9353 64.8457 68.7957 65.0103 66.4916 65.1749ZM76.3666 64.1874 76.3666 54.3124C78.6707 53.9833 80.8103 53.6541 82.9499 53.1603L82.9499 62.8707C80.9749 63.3645 78.6707 63.8582 76.3666 64.1874ZM86.2415 62.0478 86.2415 52.3374C88.5457 51.8437 90.6853 51.0208 92.8249 50.1978L92.8249 59.7437C90.6853 60.7312 88.5457 61.3895 86.2415 62.0478ZM96.1165 58.0978 96.1165 48.7166C97.9269 47.8937 99.5728 46.7416 101.054 45.4249L101.054 52.0083C101.054 54.1478 99.4082 56.1228 96.1165 58.0978ZM23.7 58.0978C20.5729 56.1228 18.7625 54.1478 18.7625 52.1728L18.7625 45.5895C20.2437 46.9062 21.8896 48.0583 23.7 48.8812L23.7 58.0978ZM18.7625 39.0062C18.7625 32.752 35.7145 25.8395 59.9082 25.8395 84.102 25.8395 101.054 32.752 101.054 39.0062 101.054 45.2604 84.102 52.1728 59.9082 52.1728 35.7145 52.1728 18.7625 45.0958 18.7625 39.0062ZM24.5229 76.8603C27.4854 82.9499 38.677 86.8999 51.6791 88.7103L51.6791 96.1165C31.9291 94.7999 18.7625 88.7103 18.7625 83.279 18.7625 81.1395 20.9021 78.9999 24.5229 76.8603ZM23.7 102.535C20.5729 100.56 18.7625 98.5853 18.7625 96.6103L18.7625 90.027C20.2437 91.3436 21.8896 92.4957 23.7 93.3186L23.7 102.535ZM33.575 106.485C31.2708 105.827 29.1312 105.169 26.9916 104.181L26.9916 94.6353C29.1312 95.4582 31.2708 96.1165 33.575 96.7749L33.575 106.485ZM43.4499 108.625C41.1458 108.296 38.8416 107.802 36.8666 107.473L36.8666 97.7624C39.0062 98.2561 41.1458 98.5853 43.4499 98.9144L43.4499 108.625ZM46.7416 99.079C48.3874 99.2436 50.0333 99.4082 51.8437 99.5728 52.0083 100.725 52.6666 101.877 53.3249 103.029L53.3249 109.612C51.0208 109.448 48.8812 109.283 46.7416 109.119L46.7416 99.079ZM56.6166 105.992C57.6041 106.65 58.7562 107.308 59.9082 107.967L59.9082 109.612C58.7562 109.612 57.7687 109.612 56.6166 109.612L56.6166 105.992ZM63.1999 119.652 63.1999 113.069C64.6812 114.385 66.327 115.537 68.1374 116.36L68.1374 125.741C65.0103 123.602 63.1999 121.627 63.1999 119.652ZM101.054 122.779C102.206 122.779 103.194 122.779 104.346 122.779 105.498 122.779 106.485 122.779 107.637 122.779L107.637 132.654C106.485 132.654 105.498 132.654 104.346 132.654 103.194 132.654 102.206 132.654 101.054 132.654L101.054 122.779ZM140.554 116.196C142.364 115.373 144.01 114.221 145.491 112.904L145.491 119.487C145.491 121.462 143.681 123.602 140.554 125.412L140.554 116.196Z" fill="#FFFFFF" fill-rule="nonzero" fill-opacity="1" transform="matrix(1 0 0 1 2172 679)"/></g></g></g><path d="M610 1433C610 1421.95 618.955 1413 630 1413L1545 1413C1556.05 1413 1565 1421.95 1565 1433L1565 1513C1565 1524.05 1556.05 1533 1545 1533L630 1533C618.955 1533 610 1524.05 610 1513Z" fill="#B3CB2D" fill-rule="evenodd" fill-opacity="1"/><text fill="#000000" fill-opacity="1" font-family="Calibri,Calibri_MSFontService,sans-serif" font-style="normal" font-variant="normal" font-weight="700" font-stretch="normal" font-size="55" text-anchor="start" direction="ltr" writing-mode="lr-tb" unicode-bidi="normal" text-decoration="none" transform="matrix(1 0 0 1 853.236 1491)">Administrative Costs</text><path d="M1729 1430.83C1729 1419.88 1737.88 1411 1748.83 1411L2664.17 1411C2675.12 1411 2684 1419.88 2684 1430.83L2684 1510.17C2684 1521.12 2675.12 1530 2664.17 1530L1748.83 1530C1737.88 1530 1729 1521.12 1729 1510.17Z" fill="#B3CB2D" fill-rule="evenodd" fill-opacity="1"/><text fill="#000000" fill-opacity="1" font-family="Calibri,Calibri_MSFontService,sans-serif" font-style="normal" font-variant="normal" font-weight="700" font-stretch="normal" font-size="55" text-anchor="start" direction="ltr" writing-mode="lr-tb" unicode-bidi="normal" text-decoration="none" transform="matrix(1 0 0 1 1799.97 1489)">Direct Operational Bottleneck Costs</text><path d="M2848 1433C2848 1421.95 2856.95 1413 2868 1413L3783 1413C3794.05 1413 3803 1421.95 3803 1433L3803 1513C3803 1524.05 3794.05 1533 3783 1533L2868 1533C2856.95 1533 2848 1524.05 2848 1513Z" fill="#B3CB2D" fill-rule="evenodd" fill-opacity="1"/><text fill="#000000" fill-opacity="1" font-family="Calibri,Calibri_MSFontService,sans-serif" font-style="normal" font-variant="normal" font-weight="700" font-stretch="normal" font-size="55" text-anchor="start" direction="ltr" writing-mode="lr-tb" unicode-bidi="normal" text-decoration="none" transform="matrix(1 0 0 1 2888.08 1491)">Optimization in Production &amp; Logistics</text><path d="M0-2.29167 68.2728-2.29167 68.2728 1119.39 65.9811 1117.1 345.546 1117.1 345.546 1121.68 63.6894 1121.68 63.6894 0 65.9811 2.29167 0 2.29167ZM340.962 1105.64 368.462 1119.39 340.962 1133.14Z" fill="#FFFFFF" fill-rule="nonzero" fill-opacity="1" transform="matrix(1.83697e-16 1 1 -1.83697e-16 2206.5 1045.5)"/><path d="M2209.45 1045.5 2209.45 1113.77 1088.5 1113.77 1090.79 1111.48 1090.79 1391.05 1086.21 1391.05 1086.21 1109.19 2207.16 1109.19 2204.87 1111.48 2204.87 1045.5ZM1102.25 1386.46 1088.5 1413.96 1074.75 1386.46Z" fill="#FFFFFF" fill-rule="nonzero" fill-opacity="1"/><path d="M2208.79 1045.5 2209.22 1388.55 2204.64 1388.55 2204.21 1045.5ZM2220.67 1383.95 2206.96 1411.46 2193.17 1383.98Z" fill="#FFFFFF" fill-rule="nonzero" fill-opacity="1"/></g></g></svg>