<svg width="4353" height="2232" xmlns="http://www.w3.org/2000/svg" xmlns:xlink="http://www.w3.org/1999/xlink" xml:space="preserve" overflow="hidden"><g transform="translate(18 0)"><g><rect x="-17.9999" y="0" width="4350" height="2228" fill="#000000" fill-opacity="1"/><rect x="587.5" y="504.5" width="3349" height="1160" stroke="#FFFFFF" stroke-width="4.58333" stroke-linecap="butt" stroke-linejoin="miter" stroke-miterlimit="8" stroke-opacity="1" fill="none"/><path d="M632 460.167C632 447.372 642.373 437 655.167 437L2078.83 437C2091.63 437 2102 447.372 2102 460.167L2102 552.833C2102 565.628 2091.63 576 2078.83 576L655.167 576C642.373 576 632 565.628 632 552.833Z" fill="#FFA600" fill-rule="evenodd" fill-opacity="1"/><text fill="#000000" fill-opacity="1" font-family="Calibri,Calibri_MSFontService,sans-serif" font-style="normal" font-variant="normal" font-weight="400" font-stretch="normal" font-size="83" text-anchor="start" direction="ltr" writing-mode="lr-tb" unicode-bidi="normal" text-decoration="none" transform="matrix(1 0 0 1 961.436 534)">Supply Chain </text><text fill="#000000" fill-opacity="1" font-family="Calibri,Calibri_MSFontService,sans-serif" font-style="normal" font-variant="normal" font-weight="400" font-stretch="normal" font-size="83" text-anchor="start" direction="ltr" writing-mode="lr-tb" unicode-bidi="normal" text-decoration="none" transform="matrix(1 0 0 1 1413.47 534)">Conditions</text><path d="M2239 689.834C2239 678.88 2247.88 670 2258.83 670L2765.17 670C2776.12 670 2785 678.88 2785 689.834L2785 769.166C2785 780.12 2776.12 789 2765.17 789L2258.83 789C2247.88 789 2239 780.12 2239 769.166Z" fill="#B3CB2D" fill-rule="evenodd" fill-opacity="1"/><text fill="#000000" fill-opacity="1" font-family="Calibri,Calibri_MSFontService,sans-serif" font-style="normal" font-variant="normal" font-weight="400" font-stretch="normal" font-size="55" text-anchor="start" direction="ltr" writing-mode="lr-tb" unicode-bidi="normal" text-decoration="none" transform="matrix(1 0 0 1 2370.08 747)">SC </text><text fill="#000000" fill-opacity="1" font-family="Calibri,Calibri_MSFontService,sans-serif" font-style="normal" font-variant="normal" font-weight="400" font-stretch="normal" font-size="55" text-anchor="start" direction="ltr" writing-mode="lr-tb" unicode-bidi="normal" text-decoration="none" transform="matrix(1 0 0 1 2437.11 747)">Condition</text><path d="M2299 1426C2299 1414.95 2307.95 1406 2319 1406L2710 1406C2721.05 1406 2730 1414.95 2730 1426L2730 1506C2730 1517.05 2721.05 1526 2710 1526L2319 1526C2307.95 1526 2299 1517.05 2299 1506Z" fill="#B3CB2D" fill-rule="evenodd" fill-opacity="1"/><text fill="#000000" fill-opacity="1" font-family="Calibri,Calibri_MSFontService,sans-serif" font-style="normal" font-variant="normal" font-weight="400" font-stretch="normal" font-size="55" text-anchor="start" direction="ltr" writing-mode="lr-tb" unicode-bidi="normal" text-decoration="none" transform="matrix(1 0 0 1 2311.98 1484)">Normal Operation </text><path d="M1495 1057.83C1495 1046.88 1503.88 1038 1514.83 1038L2009.17 1038C2020.12 1038 2029 1046.88 2029 1057.83L2029 1137.17C2029 1148.12 2020.12 1157 2009.17 1157L1514.83 1157C1503.88 1157 1495 1148.12 1495 1137.17Z" fill="#B3CB2D" fill-rule="evenodd" fill-opacity="1"/><text fill="#000000" fill-opacity="1" font-family="Calibri,Calibri_MSFontService,sans-serif" font-style="normal" font-variant="normal" font-weight="400" font-stretch="normal" font-size="55" text-anchor="start" direction="ltr" writing-mode="lr-tb" unicode-bidi="normal" text-decoration="none" transform="matrix(1 0 0 1 1642.21 1116)">Bottleneck</text><path d="M1807 1426.83C1807 1415.88 1815.88 1407 1826.83 1407L2217.17 1407C2228.12 1407 2237 1415.88 2237 1426.83L2237 1506.17C2237 1517.12 2228.12 1526 2217.17 1526L1826.83 1526C1815.88 1526 1807 1517.12 1807 1506.17Z" fill="#B3CB2D" fill-rule="evenodd" fill-opacity="1"/><text fill="#000000" fill-opacity="1" font-family="Calibri,Calibri_MSFontService,sans-serif" font-style="normal" font-variant="normal" font-weight="400" font-stretch="normal" font-size="55" text-anchor="start" direction="ltr" writing-mode="lr-tb" unicode-bidi="normal" text-decoration="none" transform="matrix(1 0 0 1 1934 1484)">isolated</text><path d="M1313 1425.83C1313 1414.88 1321.88 1406 1332.83 1406L1724.17 1406C1735.12 1406 1744 1414.88 1744 1425.83L1744 1505.17C1744 1516.12 1735.12 1525 1724.17 1525L1332.83 1525C1321.88 1525 1313 1516.12 1313 1505.17Z" fill="#B3CB2D" fill-rule="evenodd" fill-opacity="1"/><text fill="#000000" fill-opacity="1" font-family="Calibri,Calibri_MSFontService,sans-serif" font-style="normal" font-variant="normal" font-weight="400" font-stretch="normal" font-size="55" text-anchor="start" direction="ltr" writing-mode="lr-tb" unicode-bidi="normal" text-decoration="none" transform="matrix(1 0 0 1 1399.06 1483)">widespread</text><path d="M2567.79 1101.78 2052.41 1100.83 2052.42 1096.25 2567.8 1097.2ZM2056.97 1112.3 2029.5 1098.5 2057.03 1084.8Z" fill="#FFFFFF" fill-rule="nonzero" fill-opacity="1"/><path d="M1708 1284 1762 1230 1816 1284 1762 1338Z" fill="#B3CB2D" fill-rule="evenodd" fill-opacity="1"/><path d="M2514.79 789.5 2514.79 1021.28 2510.21 1021.28 2510.21 789.5ZM2526.25 1016.69 2512.5 1044.19 2498.75 1016.69Z" fill="#FFFFFF" fill-rule="nonzero" fill-opacity="1"/><path d="M2515.79 1153.49 2516.57 1384.28 2511.99 1384.29 2511.21 1153.51ZM2528.01 1379.66 2514.36 1407.2 2500.51 1379.75Z" fill="#FFFFFF" fill-rule="nonzero" fill-opacity="1"/><path d="M1764.79 1157.5 1764.79 1207.11 1760.21 1207.11 1760.21 1157.5ZM1776.25 1202.53 1762.5 1230.03 1748.75 1202.53Z" fill="#FFFFFF" fill-rule="nonzero" fill-opacity="1"/><path d="M1816.5 1282.21 2024.8 1282.21 2024.8 1384.42 2020.21 1384.42 2020.21 1284.5 2022.5 1286.79 1816.5 1286.79ZM2036.25 1379.83 2022.5 1407.33 2008.75 1379.83Z" fill="#FFFFFF" fill-rule="nonzero" fill-opacity="1"/><path d="M0-2.29167 181.848-2.29167 181.848 98.9426 177.264 98.9426 177.264 0 179.556 2.29167 0 2.29167ZM193.306 94.3593 179.556 121.859 165.806 94.3593Z" fill="#FFFFFF" fill-rule="nonzero" fill-opacity="1" transform="matrix(-1 1.22465e-16 1.22465e-16 1 1709.06 1284.5)"/><path d="M2460 1099 2513.5 1045 2567 1099 2513.5 1153Z" fill="#B3CB2D" fill-rule="evenodd" fill-opacity="1"/></g></g></svg>