<svg width="3429" height="1316" xmlns="http://www.w3.org/2000/svg" xmlns:xlink="http://www.w3.org/1999/xlink" xml:space="preserve" overflow="hidden"><defs><clipPath id="clip0"><rect x="595" y="531" width="3429" height="1316"/></clipPath><clipPath id="clip1"><rect x="595" y="531" width="3429" height="1316"/></clipPath></defs><g clip-path="url(#clip0)" transform="translate(-595 -531)"><g clip-path="url(#clip1)"><rect x="596" y="536" width="3428" height="1307" fill="#000000" fill-opacity="1"/><rect x="638.5" y="644.5" width="3350" height="1159" stroke="#FFFFFF" stroke-width="4.58333" stroke-linecap="butt" stroke-linejoin="miter" stroke-miterlimit="8" stroke-opacity="1" fill="none"/><path d="M683 600C683 587.297 693.297 577 706 577L2131 577C2143.7 577 2154 587.297 2154 600L2154 692C2154 704.703 2143.7 715 2131 715L706 715C693.297 715 683 704.703 683 692Z" fill="#FFA600" fill-rule="evenodd" fill-opacity="1"/><text fill="#000000" fill-opacity="1" font-family="Calibri,Calibri_MSFontService,sans-serif" font-style="normal" font-variant="normal" font-weight="400" font-stretch="normal" font-size="83" text-anchor="start" direction="ltr" writing-mode="lr-tb" unicode-bidi="normal" text-decoration="none" transform="matrix(1 0 0 1 1013.11 674)">Supply Chain </text><text fill="#000000" fill-opacity="1" font-family="Calibri,Calibri_MSFontService,sans-serif" font-style="normal" font-variant="normal" font-weight="400" font-stretch="normal" font-size="83" text-anchor="start" direction="ltr" writing-mode="lr-tb" unicode-bidi="normal" text-decoration="none" transform="matrix(1 0 0 1 1465.14 674)">Conditions</text><path d="M2291 829C2291 817.954 2299.95 809 2311 809L2817 809C2828.05 809 2837 817.954 2837 829L2837 909C2837 920.046 2828.05 929 2817 929L2311 929C2299.95 929 2291 920.046 2291 909Z" fill="#B3CB2D" fill-rule="evenodd" fill-opacity="1"/><text fill="#000000" fill-opacity="1" font-family="Calibri,Calibri_MSFontService,sans-serif" font-style="normal" font-variant="normal" font-weight="400" font-stretch="normal" font-size="55" text-anchor="start" direction="ltr" writing-mode="lr-tb" unicode-bidi="normal" text-decoration="none" transform="matrix(1 0 0 1 2420.61 854)">Supply Chain </text><text fill="#000000" fill-opacity="1" font-family="Calibri,Calibri_MSFontService,sans-serif" font-style="normal" font-variant="normal" font-weight="400" font-stretch="normal" font-size="55" text-anchor="start" direction="ltr" writing-mode="lr-tb" unicode-bidi="normal" text-decoration="none" transform="matrix(1 0 0 1 2455.26 920)">Condition</text><path d="M2351 1565.83C2351 1554.88 2359.88 1546 2370.83 1546L2761.17 1546C2772.12 1546 2781 1554.88 2781 1565.83L2781 1645.17C2781 1656.12 2772.12 1665 2761.17 1665L2370.83 1665C2359.88 1665 2351 1656.12 2351 1645.17Z" fill="#B3CB2D" fill-rule="evenodd" fill-opacity="1"/><text fill="#000000" fill-opacity="1" font-family="Calibri,Calibri_MSFontService,sans-serif" font-style="normal" font-variant="normal" font-weight="400" font-stretch="normal" font-size="55" text-anchor="start" direction="ltr" writing-mode="lr-tb" unicode-bidi="normal" text-decoration="none" transform="matrix(1 0 0 1 2363.65 1624)">Normal Operation </text><path d="M1547 1197.83C1547 1186.88 1555.88 1178 1566.83 1178L2061.17 1178C2072.12 1178 2081 1186.88 2081 1197.83L2081 1277.17C2081 1288.12 2072.12 1297 2061.17 1297L1566.83 1297C1555.88 1297 1547 1288.12 1547 1277.17Z" fill="#B3CB2D" fill-rule="evenodd" fill-opacity="1"/><text fill="#000000" fill-opacity="1" font-family="Calibri,Calibri_MSFontService,sans-serif" font-style="normal" font-variant="normal" font-weight="400" font-stretch="normal" font-size="55" text-anchor="start" direction="ltr" writing-mode="lr-tb" unicode-bidi="normal" text-decoration="none" transform="matrix(1 0 0 1 1693.88 1255)">Bottleneck</text><path d="M1858 1566C1858 1554.95 1866.95 1546 1878 1546L2269 1546C2280.05 1546 2289 1554.95 2289 1566L2289 1646C2289 1657.05 2280.05 1666 2269 1666L1878 1666C1866.95 1666 1858 1657.05 1858 1646Z" fill="#B3CB2D" fill-rule="evenodd" fill-opacity="1"/><text fill="#000000" fill-opacity="1" font-family="Calibri,Calibri_MSFontService,sans-serif" font-style="normal" font-variant="normal" font-weight="400" font-stretch="normal" font-size="55" text-anchor="start" direction="ltr" writing-mode="lr-tb" unicode-bidi="normal" text-decoration="none" transform="matrix(1 0 0 1 1985.1 1624)">I</text><text fill="#000000" fill-opacity="1" font-family="Calibri,Calibri_MSFontService,sans-serif" font-style="normal" font-variant="normal" font-weight="400" font-stretch="normal" font-size="55" text-anchor="start" direction="ltr" writing-mode="lr-tb" unicode-bidi="normal" text-decoration="none" transform="matrix(1 0 0 1 1998.85 1624)">solated</text><path d="M1365 1565C1365 1553.95 1373.95 1545 1385 1545L1776 1545C1787.05 1545 1796 1553.95 1796 1565L1796 1645C1796 1656.05 1787.05 1665 1776 1665L1385 1665C1373.95 1665 1365 1656.05 1365 1645Z" fill="#B3CB2D" fill-rule="evenodd" fill-opacity="1"/><text fill="#000000" fill-opacity="1" font-family="Calibri,Calibri_MSFontService,sans-serif" font-style="normal" font-variant="normal" font-weight="400" font-stretch="normal" font-size="55" text-anchor="start" direction="ltr" writing-mode="lr-tb" unicode-bidi="normal" text-decoration="none" transform="matrix(1 0 0 1 1446.15 1623)">W</text><text fill="#000000" fill-opacity="1" font-family="Calibri,Calibri_MSFontService,sans-serif" font-style="normal" font-variant="normal" font-weight="400" font-stretch="normal" font-size="55" text-anchor="start" direction="ltr" writing-mode="lr-tb" unicode-bidi="normal" text-decoration="none" transform="matrix(1 0 0 1 1494.85 1623)">idespread</text><path d="M2619.79 1241.78 2104.41 1240.83 2104.42 1236.25 2619.8 1237.2ZM2108.97 1252.3 2081.5 1238.5 2109.03 1224.8Z" fill="#FFFFFF" fill-rule="nonzero" fill-opacity="1"/><path d="M1760 1423.5 1814 1370 1868 1423.5 1814 1477Z" fill="#B3CB2D" fill-rule="evenodd" fill-opacity="1"/><path d="M2566.79 929.5 2566.79 1161.28 2562.21 1161.28 2562.21 929.5ZM2578.25 1156.69 2564.5 1184.19 2550.75 1156.69Z" fill="#FFFFFF" fill-rule="nonzero" fill-opacity="1"/><path d="M2567.79 1292.49 2568.57 1523.28 2563.99 1523.29 2563.21 1292.51ZM2580.01 1518.66 2566.36 1546.2 2552.51 1518.75Z" fill="#FFFFFF" fill-rule="nonzero" fill-opacity="1"/><path d="M1816.79 1297.5 1816.79 1347.11 1812.21 1347.11 1812.21 1297.5ZM1828.25 1342.53 1814.5 1370.03 1800.75 1342.53Z" fill="#FFFFFF" fill-rule="nonzero" fill-opacity="1"/><path d="M1868.5 1422.21 2076.8 1422.21 2076.8 1524.42 2072.21 1524.42 2072.21 1424.5 2074.5 1426.79 1868.5 1426.79ZM2088.25 1519.83 2074.5 1547.33 2060.75 1519.83Z" fill="#FFFFFF" fill-rule="nonzero" fill-opacity="1"/><path d="M0-2.29167 181.848-2.29167 181.848 98.9426 177.264 98.9426 177.264 0 179.556 2.29167 0 2.29167ZM193.306 94.3593 179.556 121.859 165.806 94.3593Z" fill="#FFFFFF" fill-rule="nonzero" fill-opacity="1" transform="matrix(-1 1.22465e-16 1.22465e-16 1 1760.06 1424.5)"/><path d="M2511 1238.5 2565 1185 2619 1238.5 2565 1292Z" fill="#B3CB2D" fill-rule="evenodd" fill-opacity="1"/></g></g></svg>