<!DOCTYPE svg PUBLIC "-//W3C//DTD SVG 1.1//EN" "http://www.w3.org/Graphics/SVG/1.1/DTD/svg11.dtd">
<!-- Uploaded to: SVG Repo, www.svgrepo.com, Transformed by: SVG Repo Mixer Tools -->
<svg fill="#ffffff" height="137px" width="137px" version="1.1" id="Layer_1" xmlns="http://www.w3.org/2000/svg" xmlns:xlink="http://www.w3.org/1999/xlink" viewBox="0 0 508.062 508.062" xml:space="preserve">
<g id="SVGRepo_bgCarrier" stroke-width="0"/>
<g id="SVGRepo_tracerCarrier" stroke-linecap="round" stroke-linejoin="round"/>
<g id="SVGRepo_iconCarrier"> <g> <g> <path d="M452.562,73.943l-50.5-50.5c-18.3-18.3-48-18.3-66.3,0c-21.3,21.3-11.8,48.5-8.2,55.2l-140.8,140.8h-62.6 c-7.8,0-14.1,6.3-14.1,14.1v123.1h-65c-6.4,0-11.9,4.3-13.6,10.4l-31,113.5c-1.2,4.2-1.1,17.8,13.6,17.8h345.5 c11,0,14.1-6.3,14.1-14.1c0-2-31.6-117.2-31.6-117.2c-1.7-6.1-7.2-10.4-13.6-10.4h-65v-111l114.1-114.1l8.7,8.7 c2.8,31.1,29,55.5,60.8,55.5c7.8,0,14.1-6.3,14.1-14.1s-6.3-14.1-14.1-14.1c-18.1,0-32.8-14.7-32.8-32.8 c0-18.1,14.7-32.8,32.8-32.8c18.1,0,32.8,14.7,32.8,32.8c0,7.8,6.3,14.1,14.1,14.1c7.8,0,14.1-6.3,14.1-14.1 C508.062,102.943,483.562,76.743,452.562,73.943z M138.362,247.643h97v109h-97V247.643z M317.762,384.843l23.3,85.2h-308.5 l23.3-85.2H317.762z M249.862,219.443c-0.1,0-0.3,0-0.4,0h-22.7l119.3-119.4l11.6,11.6L249.862,219.443z M392.762,106.843 l-37.1-37.1c-4.3-4.3-9.3-17.1,0-26.4c7.3-7.3,19.1-7.3,26.4,0l37.1,37.1C407.862,86.343,398.562,95.543,392.762,106.843z"/> </g> </g> </g>
</svg>