<svg width="285" height="245" viewBox="0 0 285 245" fill="none" xmlns="http://www.w3.org/2000/svg">
<g clip-path="url(#clip0_1_1756)">
<path d="M123.048 91.8369C133.705 85.6844 150.985 85.6844 161.642 91.8369L254.345 145.354C265.002 151.507 265.002 161.482 254.345 167.635L161.642 221.152C150.985 227.304 133.705 227.304 123.048 221.152L30.3453 167.635C19.6879 161.482 19.6878 151.507 30.3453 145.354L123.048 91.8369Z" fill="#E3DEE6" fill-opacity="0.9"/>
<path fill-rule="evenodd" clip-rule="evenodd" d="M253.38 158.11L160.677 104.593C150.553 98.7483 134.137 98.7483 124.013 104.593L31.3103 158.11C21.1857 163.955 21.1857 173.432 31.3103 179.277L124.013 232.794C134.137 238.639 150.553 238.639 160.677 232.794L253.38 179.277C263.504 173.432 263.504 163.955 253.38 158.11ZM161.642 104.036C150.985 97.8836 133.706 97.8836 123.048 104.036L30.3454 157.553C19.688 163.706 19.688 173.681 30.3454 179.834L123.048 233.351C133.706 239.504 150.985 239.504 161.642 233.351L254.345 179.834C265.002 173.681 265.002 163.706 254.345 157.553L161.642 104.036Z" fill="#E5E0E7"/>
<path d="M123.664 64.6968C134.322 58.5443 151.601 58.5443 162.258 64.6968L254.961 118.214C265.619 124.367 265.619 134.342 254.961 140.494L162.258 194.012C151.601 200.164 134.322 200.164 123.664 194.012L30.9618 140.494C20.3043 134.342 20.3043 124.367 30.9617 118.214L123.664 64.6968Z" fill="#D6CEDA"/>
<g filter="url(#filter0_ddddd_1_1756)">
<path fill-rule="evenodd" clip-rule="evenodd" d="M253.996 130.97L161.294 77.453C151.169 71.6081 134.754 71.6081 124.629 77.453L31.9266 130.97C21.802 136.815 21.802 146.292 31.9266 152.137L124.629 205.654C134.754 211.499 151.169 211.499 161.294 205.654L253.996 152.137C264.121 146.292 264.121 136.815 253.996 130.97ZM162.258 76.896C151.601 70.7435 134.322 70.7435 123.664 76.896L30.9617 130.413C20.3043 136.566 20.3043 146.541 30.9618 152.694L123.664 206.211C134.322 212.363 151.601 212.363 162.258 206.211L254.961 152.694C265.619 146.541 265.619 136.566 254.961 130.413L162.258 76.896Z" fill="#D6CEDA"/>
</g>
<path d="M123.664 38.7896C134.322 32.637 151.601 32.637 162.258 38.7896L254.961 92.3068C265.619 98.4594 265.619 108.435 254.961 114.587L162.258 168.104C151.601 174.257 134.322 174.257 123.664 168.104L30.9618 114.587C20.3043 108.435 20.3043 98.4594 30.9617 92.3068L123.664 38.7896Z" fill="#B7ADBD"/>
<path fill-rule="evenodd" clip-rule="evenodd" d="M253.996 105.063L161.294 51.5458C151.169 45.7009 134.754 45.7009 124.629 51.5458L31.9266 105.063C21.802 110.908 21.802 120.384 31.9266 126.229L124.629 179.747C134.754 185.592 151.169 185.592 161.294 179.747L253.996 126.229C264.121 120.384 264.121 110.908 253.996 105.063ZM162.258 50.9888C151.601 44.8363 134.322 44.8363 123.664 50.9888L30.9617 104.506C20.3043 110.659 20.3043 120.634 30.9618 126.786L123.664 180.304C134.322 186.456 151.601 186.456 162.258 180.304L254.961 126.786C265.619 120.634 265.619 110.659 254.961 104.506L162.258 50.9888Z" fill="#B7ADBD"/>
<path d="M123.665 11.649C134.322 5.49642 151.601 5.49641 162.259 11.649L254.962 65.1662C265.619 71.3187 265.619 81.294 254.962 87.4465L162.259 140.964C151.601 147.116 134.322 147.116 123.665 140.964L30.9622 87.4465C20.3048 81.294 20.3048 71.3188 30.9622 65.1662L123.665 11.649Z" fill="#786C7D"/>
<path fill-rule="evenodd" clip-rule="evenodd" d="M253.997 77.9224L161.294 24.4052C151.17 18.5603 134.754 18.5603 124.63 24.4052L31.9271 77.9224C21.8025 83.7673 21.8025 93.2438 31.9271 99.0888L124.63 152.606C134.754 158.451 151.17 158.451 161.294 152.606L253.997 99.0888C264.121 93.2438 264.121 83.7673 253.997 77.9224ZM162.259 23.8482C151.601 17.6956 134.322 17.6956 123.665 23.8482L30.9622 77.3654C20.3048 83.518 20.3048 93.4932 30.9622 99.6458L123.665 153.163C134.322 159.316 151.601 159.316 162.259 153.163L254.962 99.6458C265.619 93.4932 265.619 83.518 254.962 77.3654L162.259 23.8482Z" fill="#786C7D"/>
<g style="mix-blend-mode:screen">
<path fill-rule="evenodd" clip-rule="evenodd" d="M161.637 61.3259L140.318 49.0188C139.178 48.3607 137.33 48.3607 136.19 49.0188L114.872 61.3259C113.732 61.9839 113.732 63.0508 114.872 63.7088L136.19 76.016C137.33 76.674 139.178 76.674 140.318 76.016L161.637 63.7088C162.776 63.0508 162.776 61.9839 161.637 61.3259ZM144.446 46.6359C141.026 44.6618 135.482 44.6618 132.063 46.6359L110.744 58.943C107.325 60.9171 107.325 64.1176 110.744 66.0917L132.063 78.3989C135.482 80.3729 141.026 80.3729 144.446 78.3988L165.764 66.0917C169.184 64.1176 169.184 60.9171 165.764 58.943L144.446 46.6359Z" fill="white"/>
<path d="M169.795 66.3367C162.585 67.4921 155.118 65.0546 153.117 60.8924C151.115 56.7301 155.338 52.4193 162.548 51.2639C169.757 50.1085 177.225 52.546 179.226 56.7083C181.227 60.8705 177.005 65.1813 169.795 66.3367Z" fill="black"/>
<path fill-rule="evenodd" clip-rule="evenodd" d="M169.529 58.262C169.015 57.1913 167.094 56.5643 165.239 56.8615C163.384 57.1588 162.298 58.2676 162.813 59.3383C163.328 60.409 165.249 61.036 167.103 60.7388C168.958 60.4416 170.044 59.3327 169.529 58.262ZM159.856 45.666C172.421 43.6524 185.434 47.9004 188.922 55.1542C192.41 62.408 185.052 69.9207 172.487 71.9343C159.922 73.948 146.908 69.6999 143.42 62.4461C139.932 55.1923 147.291 47.6796 159.856 45.666Z" fill="black"/>
<path fill-rule="evenodd" clip-rule="evenodd" d="M103.423 65.7592L103.425 65.7578L153.09 94.4292C156.511 96.4042 157.624 98.8278 156.223 101.253C155.222 102.987 153.305 104.127 153.09 104.251L149.678 102.292C149.691 102.284 151.069 101.462 151.7 100.299C152.463 98.8935 151.804 97.6161 149.687 96.3937L135.745 88.3447L135.742 88.3461L95.5002 65.1144C93.3826 63.8919 91.1699 63.5117 88.7355 63.9524C86.7212 64.3163 85.2962 65.1118 85.2917 65.1144L81.8888 63.1499C82.1037 63.0259 84.0786 61.9191 87.0835 61.3412C91.2838 60.5326 95.4819 61.1749 98.903 63.1499L103.423 65.7592Z" fill="white"/>
<path fill-rule="evenodd" clip-rule="evenodd" d="M162.309 66.23L162.644 66.9274L172.023 86.4334C173.082 88.6345 177.031 89.9235 180.844 89.3125C184.656 88.7015 186.889 86.4218 185.831 84.2207L176.451 64.7147L176.116 64.0171C175.561 65.1594 174.287 66.1635 172.512 66.8077L181.238 84.9566C181.593 85.6935 180.845 86.4567 179.569 86.6613C178.292 86.8659 176.97 86.4343 176.616 85.6974L167.889 67.5486C165.792 67.525 163.804 67.0437 162.309 66.23Z" fill="white"/>
<path fill-rule="evenodd" clip-rule="evenodd" d="M176.93 57.076C175.281 53.6459 169.127 51.6371 163.185 52.5893C157.243 53.5415 153.764 57.094 155.413 60.5242C157.063 63.9543 163.216 65.9631 169.158 65.0109C175.1 64.0587 178.579 60.5061 176.93 57.076ZM161.91 49.9381C170.388 48.5794 179.169 51.4457 181.522 56.34C183.876 61.2344 178.911 66.3034 170.433 67.6621C161.955 69.0207 153.174 66.1545 150.821 61.2601C148.467 56.3658 153.432 51.2967 161.91 49.9381Z" fill="white"/>
<path fill-rule="evenodd" clip-rule="evenodd" d="M176.93 57.076C175.281 53.6459 169.127 51.6371 163.185 52.5893C157.243 53.5415 153.764 57.094 155.413 60.5242C157.063 63.9543 163.216 65.9631 169.158 65.0109C175.1 64.0587 178.579 60.5061 176.93 57.076ZM161.91 49.9381C170.388 48.5794 179.169 51.4457 181.522 56.34C183.876 61.2344 178.911 66.3034 170.433 67.6621C161.955 69.0207 153.174 66.1545 150.821 61.2601C148.467 56.3658 153.432 51.2967 161.91 49.9381Z" fill="white"/>
<path d="M168.264 53.6899L168.796 54.7982C169.444 56.1448 168.078 57.5395 165.745 57.9133Lnan nanL165.745 57.9133C163.413 58.2871 160.997 57.4985 160.349 56.1519L159.816 55.0436L168.264 53.6899Z" fill="#D9D9D9"/>
<path fill-rule="evenodd" clip-rule="evenodd" d="M171.581 50.3037L173.389 54.0632C174.74 56.8741 171.889 59.7852 167.02 60.5655C162.151 61.3458 157.108 59.6997 155.757 56.8888L153.949 53.1293L171.581 50.3037ZM160.349 56.1529C160.631 56.7383 161.246 57.2182 162.044 57.5431C163.082 57.9654 164.427 58.1256 165.745 57.9143C167.064 57.703 168.074 57.1655 168.585 56.4948C168.979 55.9791 169.078 55.3846 168.796 54.7992L168.263 53.6909L159.816 55.0446L160.349 56.1529Z" fill="white"/>
<path d="M165.142 47.1978L168.797 54.7991C169.444 56.1457 168.078 57.5403 165.746 57.9141Lnan nanL165.746 57.9141C163.413 58.288 160.997 57.4993 160.35 56.1527L156.695 48.5514L165.142 47.1978Z" fill="black"/>
<path d="M171.31 63.4673L181.222 84.0816C181.634 84.9385 180.765 85.826 179.281 86.0639C177.796 86.3018 176.259 85.7999 175.847 84.943L165.935 64.3287L171.31 63.4673Z" fill="black"/>
</g>
</g>
<defs>
<filter id="filter0_ddddd_1_1756" x="-42.0314" y="58.2817" width="391.986" height="418.543" filterUnits="userSpaceOnUse" color-interpolation-filters="sRGB">
<feFlood flood-opacity="0" result="BackgroundImageFix"/>
<feColorMatrix in="SourceAlpha" type="matrix" values="0 0 0 0 0 0 0 0 0 0 0 0 0 0 0 0 0 0 127 0" result="hardAlpha"/>
<feOffset/>
<feColorMatrix type="matrix" values="0 0 0 0 0 0 0 0 0 0 0 0 0 0 0 0 0 0 0.1 0"/>
<feBlend mode="normal" in2="BackgroundImageFix" result="effect1_dropShadow_1_1756"/>
<feColorMatrix in="SourceAlpha" type="matrix" values="0 0 0 0 0 0 0 0 0 0 0 0 0 0 0 0 0 0 127 0" result="hardAlpha"/>
<feOffset dx="1" dy="12"/>
<feGaussianBlur stdDeviation="13"/>
<feColorMatrix type="matrix" values="0 0 0 0 0 0 0 0 0 0 0 0 0 0 0 0 0 0 0.1 0"/>
<feBlend mode="normal" in2="effect1_dropShadow_1_1756" result="effect2_dropShadow_1_1756"/>
<feColorMatrix in="SourceAlpha" type="matrix" values="0 0 0 0 0 0 0 0 0 0 0 0 0 0 0 0 0 0 127 0" result="hardAlpha"/>
<feOffset dx="3" dy="47"/>
<feGaussianBlur stdDeviation="24"/>
<feColorMatrix type="matrix" values="0 0 0 0 0 0 0 0 0 0 0 0 0 0 0 0 0 0 0.09 0"/>
<feBlend mode="normal" in2="effect2_dropShadow_1_1756" result="effect3_dropShadow_1_1756"/>
<feColorMatrix in="SourceAlpha" type="matrix" values="0 0 0 0 0 0 0 0 0 0 0 0 0 0 0 0 0 0 127 0" result="hardAlpha"/>
<feOffset dx="6" dy="107"/>
<feGaussianBlur stdDeviation="32"/>
<feColorMatrix type="matrix" values="0 0 0 0 0 0 0 0 0 0 0 0 0 0 0 0 0 0 0.05 0"/>
<feBlend mode="normal" in2="effect3_dropShadow_1_1756" result="effect4_dropShadow_1_1756"/>
<feColorMatrix in="SourceAlpha" type="matrix" values="0 0 0 0 0 0 0 0 0 0 0 0 0 0 0 0 0 0 127 0" result="hardAlpha"/>
<feOffset dx="11" dy="190"/>
<feGaussianBlur stdDeviation="38"/>
<feColorMatrix type="matrix" values="0 0 0 0 0 0 0 0 0 0 0 0 0 0 0 0 0 0 0.01 0"/>
<feBlend mode="normal" in2="effect4_dropShadow_1_1756" result="effect5_dropShadow_1_1756"/>
<feBlend mode="normal" in="SourceGraphic" in2="effect5_dropShadow_1_1756" result="shape"/>
</filter>
<clipPath id="clip0_1_1756">
<rect width="284.342" height="243.983" fill="white" transform="translate(0 0.508789)"/>
</clipPath>
</defs>
</svg>
