<svg width="1792" height="1008" xmlns="http://www.w3.org/2000/svg" xmlns:xlink="http://www.w3.org/1999/xlink" overflow="hidden"><g><rect x="0" y="0" width="1792" height="1008" fill="#FFFFFF"/><rect x="766" y="14" width="108" height="53" fill="#163E64"/><text fill="#FFFFFF" font-family="Aptos Narrow,Aptos Narrow_MSFontService,sans-serif" font-weight="400" font-stretch="semi-condensed" font-size="13.3333" transform="translate(809.038 44)">PCF</text><rect x="28" y="115" width="131" height="54" stroke="#FFFFFF" stroke-width="2" stroke-miterlimit="8" fill="#215F9A"/><text fill="#FFFFFF" font-family="Aptos Narrow,Aptos Narrow_MSFontService,sans-serif" font-weight="400" font-stretch="semi-condensed" font-size="13.3333" transform="translate(43.2612 146)">Scope of PCF Form</text><rect x="202" y="115" width="217" height="54" stroke="#FFFFFF" stroke-width="2" stroke-miterlimit="8" fill="#215F9A"/><text fill="#FFFFFF" font-family="Aptos Narrow,Aptos Narrow_MSFontService,sans-serif" font-weight="400" font-stretch="semi-condensed" font-size="13.3333" transform="translate(219.365 146)">Company and Product Information</text><rect x="103" y="264" width="157" height="54" stroke="#FFFFFF" stroke-width="2" stroke-miterlimit="8" fill="#4E95D9"/><text fill="#FFFFFF" font-family="Aptos Narrow,Aptos Narrow_MSFontService,sans-serif" font-weight="400" font-stretch="semi-condensed" font-size="13.3333" transform="translate(123.784 295)">Company Information</text><rect x="276" y="264" width="182" height="54" stroke="#FFFFFF" stroke-width="2" stroke-miterlimit="8" fill="#4E95D9"/><text fill="#FFFFFF" font-family="Aptos Narrow,Aptos Narrow_MSFontService,sans-serif" font-weight="400" font-stretch="semi-condensed" font-size="13.3333" transform="translate(313.883 295)">Product Information</text><rect x="456" y="115" width="207" height="54" stroke="#FFFFFF" stroke-width="2" stroke-miterlimit="8" fill="#215F9A"/><text fill="#FFFFFF" font-family="Aptos Narrow,Aptos Narrow_MSFontService,sans-serif" font-weight="400" font-stretch="semi-condensed" font-size="13.3333" transform="translate(468.281 146)">PCF Assessment and Methodology</text><rect x="466" y="496" width="186" height="54" stroke="#FFFFFF" stroke-width="2" stroke-miterlimit="8" fill="#4E95D9"/><text fill="#FFFFFF" font-family="Aptos Narrow,Aptos Narrow_MSFontService,sans-serif" font-weight="400" font-stretch="semi-condensed" font-size="13.3333" transform="translate(482.221 527)">PCF Assessment Information</text><rect x="24" y="786" width="167" height="53" stroke="#FFFFFF" stroke-width="2" stroke-miterlimit="8" fill="#A6CAEC"/><text fill="#FFFFFF" font-family="Aptos Narrow,Aptos Narrow_MSFontService,sans-serif" font-weight="400" font-stretch="semi-condensed" font-size="13.3333" transform="translate(68.7343 817)">ID and Version</text><rect x="134" y="619" width="181" height="53" stroke="#FFFFFF" stroke-width="2" stroke-miterlimit="8" fill="#A6CAEC"/><text fill="#FFFFFF" font-family="Aptos Narrow,Aptos Narrow_MSFontService,sans-serif" font-weight="400" font-stretch="semi-condensed" font-size="13.3333" transform="translate(159.921 649)">Boundary Specifications</text><rect x="220" y="786" width="238" height="53" stroke="#FFFFFF" stroke-width="2" stroke-miterlimit="8" fill="#A6CAEC"/><text fill="#FFFFFF" font-family="Aptos Narrow,Aptos Narrow_MSFontService,sans-serif" font-weight="400" font-stretch="semi-condensed" font-size="13.3333" transform="translate(308.829 817)">Technology</text><rect x="364" y="619" width="181" height="53" stroke="#FFFFFF" stroke-width="2" stroke-miterlimit="8" fill="#A6CAEC"/><text fill="#FFFFFF" font-family="Aptos Narrow,Aptos Narrow_MSFontService,sans-serif" font-weight="400" font-stretch="semi-condensed" font-size="13.3333" transform="translate(425.752 649)">Geography</text><rect x="577" y="619" width="132" height="53" stroke="#FFFFFF" stroke-width="2" stroke-miterlimit="8" fill="#A6CAEC"/><text fill="#FFFFFF" font-family="Aptos Narrow,Aptos Narrow_MSFontService,sans-serif" font-weight="400" font-stretch="semi-condensed" font-size="13.3333" transform="translate(630.406 649)">Time</text><rect x="736" y="750" width="187" height="54" stroke="#FFFFFF" stroke-width="2" stroke-miterlimit="8" fill="#4E95D9"/><text fill="#FFFFFF" font-family="Aptos Narrow,Aptos Narrow_MSFontService,sans-serif" font-weight="400" font-stretch="semi-condensed" font-size="13.3333" transform="translate(783.284 781)">PCF Methodology</text><rect x="734" y="848" width="191" height="53" stroke="#FFFFFF" stroke-width="2" stroke-miterlimit="8" fill="#A6CAEC"/><text fill="#FFFFFF" font-family="Aptos Narrow,Aptos Narrow_MSFontService,sans-serif" font-weight="400" font-stretch="semi-condensed" font-size="13.3333" transform="translate(801.824 878)">Standards</text><rect x="987" y="848" width="230" height="53" stroke="#FFFFFF" stroke-width="2" stroke-miterlimit="8" fill="#A6CAEC"/><text fill="#FFFFFF" font-family="Aptos Narrow,Aptos Narrow_MSFontService,sans-serif" font-weight="400" font-stretch="semi-condensed" font-size="13.3333" transform="translate(1004.79 878)">GWP Characterization Factor Details</text><rect x="1247" y="848" width="238" height="53" stroke="#FFFFFF" stroke-width="2" stroke-miterlimit="8" fill="#A6CAEC"/><text fill="#FFFFFF" font-family="Aptos Narrow,Aptos Narrow_MSFontService,sans-serif" font-weight="400" font-stretch="semi-condensed" font-size="13.3333" transform="translate(1254.93 878)">Allocation in Foreground (Own Processes)</text><rect x="1515" y="848" width="208" height="53" stroke="#FFFFFF" stroke-width="2" stroke-miterlimit="8" fill="#A6CAEC"/><text fill="#FFFFFF" font-family="Aptos Narrow,Aptos Narrow_MSFontService,sans-serif" font-weight="400" font-stretch="semi-condensed" font-size="13.3333" transform="translate(1545.18 878)">Mass balancing Information</text><rect x="597" y="264" width="206" height="54" stroke="#FFFFFF" stroke-width="2" stroke-miterlimit="8" fill="#4E95D9"/><text fill="#FFFFFF" font-family="Aptos Narrow,Aptos Narrow_MSFontService,sans-serif" font-weight="400" font-stretch="semi-condensed" font-size="13.3333" transform="translate(632.897 295)">Data Sources and Quality</text><rect x="816" y="264" width="214" height="54" stroke="#FFFFFF" stroke-width="2" stroke-miterlimit="8" fill="#4E95D9"/><text fill="#FFFFFF" font-family="Aptos Narrow,Aptos Narrow_MSFontService,sans-serif" font-weight="400" font-stretch="semi-condensed" font-size="13.3333" transform="translate(825.922 295)">Verification and Ceritification Shares</text><rect x="1230" y="115" width="112" height="52" stroke="#FFFFFF" stroke-width="2" stroke-miterlimit="8" fill="#215F9A"/><text fill="#FFFFFF" font-family="Aptos Narrow,Aptos Narrow_MSFontService,sans-serif" font-weight="400" font-stretch="semi-condensed" font-size="13.3333" transform="translate(1264.81 145)">General</text><rect x="1075" y="351" width="261" height="54" stroke="#FFFFFF" stroke-width="2" stroke-miterlimit="8" fill="#215F9A"/><text fill="#FFFFFF" font-family="Aptos Narrow,Aptos Narrow_MSFontService,sans-serif" font-weight="400" font-stretch="semi-condensed" font-size="13.3333" transform="translate(1098.6 382)">Product Life Cycle Stages and Emissions</text><rect x="907" y="496" width="232" height="49" stroke="#FFFFFF" stroke-width="2" stroke-miterlimit="8" fill="#4E95D9"/><text fill="#FFFFFF" font-family="Aptos Narrow,Aptos Narrow_MSFontService,sans-serif" font-weight="400" font-stretch="semi-condensed" font-size="13.3333" transform="translate(977.454 524)">Production Stage</text><rect x="1154" y="496" width="282" height="50" stroke="#FFFFFF" stroke-width="2" stroke-miterlimit="8" fill="#4E95D9"/><text fill="#FFFFFF" font-family="Aptos Narrow,Aptos Narrow_MSFontService,sans-serif" font-weight="400" font-stretch="semi-condensed" font-size="13.3333" transform="translate(1251.74 525)">Packaging Stage</text><rect x="1451" y="496" width="331" height="52" stroke="#FFFFFF" stroke-width="2" stroke-miterlimit="8" fill="#4E95D9"/><text fill="#FFFFFF" font-family="Aptos Narrow,Aptos Narrow_MSFontService,sans-serif" font-weight="400" font-stretch="semi-condensed" font-size="13.3333" transform="translate(1569.41 526)">Distribution Stage</text><rect x="1368" y="115" width="197" height="52" stroke="#FFFFFF" stroke-width="2" stroke-miterlimit="8" fill="#215F9A"/><text fill="#FFFFFF" font-family="Aptos Narrow,Aptos Narrow_MSFontService,sans-serif" font-weight="400" font-stretch="semi-condensed" font-size="13.3333" transform="translate(1423.61 145)">Carbon Content</text><rect x="1590" y="115" width="177" height="52" stroke="#FFFFFF" stroke-width="2" stroke-miterlimit="8" fill="#215F9A"/><text fill="#FFFFFF" font-family="Aptos Narrow,Aptos Narrow_MSFontService,sans-serif" font-weight="400" font-stretch="semi-condensed" font-size="13.3333" transform="translate(1605.04 145)">Attestation of Conformance</text><path d="M821.36 67.0001 821.36 91.8921 93.9999 91.8921 94.9999 90.8921 94.9999 108.117 92.9999 108.117 92.9999 89.8921 820.36 89.8921 819.36 90.8921 819.36 67.0001ZM97.9999 106.783 93.9999 114.783 89.9999 106.783Z" fill="#156082"/><path d="M821.173 67 821.173 91.8919 311 91.8919 312 90.8919 312 108.117 310 108.117 310 89.8919 820.173 89.8919 819.173 90.8919 819.173 67ZM315 106.783 311 114.783 307 106.783Z" fill="#156082"/><path d="M821.257 67.0001 821.257 91.8917 560 91.8917 561 90.8917 561 108.117 559 108.117 559 89.8917 820.257 89.8917 819.257 90.8917 819.257 67.0001ZM564 106.783 560 114.783 556 106.783Z" fill="#156082"/><path d="M0-1 24.8919-1 24.8919 466.02 23.8919 465.02 41.1166 465.02 41.1166 467.02 22.8919 467.02 22.8919 0 23.8919 1 0 1ZM39.7833 462.02 47.7833 466.02 39.7833 470.02Z" fill="#156082" transform="matrix(1.83697e-16 1 1 -1.83697e-16 820 67)"/><path d="M0-1 25.4561-1 25.4561 385.649 24.4561 384.649 276.914 384.649 276.914 386.649 23.4561 386.649 23.4561 0 24.4561 1 0 1ZM275.581 381.649 283.581 385.649 275.581 389.649Z" fill="#156082" transform="matrix(1.83697e-16 1 1 -1.83697e-16 820 67)"/><path d="M0-1 24.8917-1 24.8917 646.321 23.8917 645.321 41.1166 645.321 41.1166 647.321 22.8917 647.321 22.8917 0 23.8917 1 0 1ZM39.7833 642.321 47.7833 646.321 39.7833 650.321Z" fill="#156082" transform="matrix(1.83697e-16 1 1 -1.83697e-16 820 67.0001)"/><path d="M0-1 24.8921-1 24.8921 858.589 23.8921 857.589 41.1166 857.589 41.1166 859.589 22.8921 859.589 22.8921 0 23.8921 1 0 1ZM39.7833 854.589 47.7833 858.589 39.7833 862.589Z" fill="#156082" transform="matrix(1.83697e-16 1 1 -1.83697e-16 820 67.0001)"/><path d="M312.081 169 312.081 217.81 182 217.81 183 216.81 183 257.954 181 257.954 181 215.81 311.081 215.81 310.081 216.81 310.081 169ZM186 256.621 182 264.621 178 256.621Z" fill="#156082"/><path d="M0-1 48.8104-1 48.8104 56.2682 47.8104 55.2682 88.9541 55.2682 88.9541 57.2682 46.8104 57.2682 46.8104 0 47.8104 1 0 1ZM87.6208 52.2682 95.6208 56.2682 87.6208 60.2682Z" fill="#156082" transform="matrix(1.83697e-16 1 1 -1.83697e-16 311 169)"/><path d="M560.643 169 560.643 333.644 559 333.644 560 332.644 560 489.621 558 489.621 558 331.644 559.643 331.644 558.643 332.644 558.643 169ZM563 488.288 559 496.288 555 488.288Z" fill="#156082"/><path d="M0-1 291.737-1 291.737 270.004 290.737 269.004 574.807 269.004 574.807 271.004 289.737 271.004 289.737 0 290.737 1 0 1ZM573.473 266.004 581.473 270.004 573.473 274.004Z" fill="#156082" transform="matrix(1.83697e-16 1 1 -1.83697e-16 560 169)"/><path d="M0-1 48.8105-1 48.8105 140.283 47.8105 139.283 88.9541 139.283 88.9541 141.283 46.8105 141.283 46.8105 0 47.8105 1 0 1ZM87.6208 136.283 95.6208 140.283 87.6208 144.283Z" fill="#156082" transform="matrix(1.83697e-16 1 1 -1.83697e-16 560 169)"/><path d="M0-1 48.8104-1 48.8104 363.391 47.8104 362.391 88.9541 362.391 88.9541 364.391 46.8104 364.391 46.8104 0 47.8104 1 0 1ZM87.6208 359.391 95.6208 363.391 87.6208 367.391Z" fill="#156082" transform="matrix(1.83697e-16 1 1 -1.83697e-16 560 169)"/><path d="M1206.73 405 1206.73 451.745 1023 451.745 1024 450.745 1024 489.823 1022 489.823 1022 449.745 1205.73 449.745 1204.73 450.745 1204.73 405ZM1027 488.49 1023 496.49 1019 488.49Z" fill="#156082"/><path d="M0-1 46.745-1 46.745 89.466 45.745 88.466 84.8234 88.466 84.8234 90.466 44.745 90.466 44.745 0 45.745 1 0 1ZM83.4901 85.466 91.4901 89.466 83.4901 93.466Z" fill="#156082" transform="matrix(1.83697e-16 1 1 -1.83697e-16 1206 405)"/><path d="M0-1 46.745-1 46.745 411.303 45.745 410.303 84.8234 410.303 84.8234 412.303 44.745 412.303 44.745 0 45.745 1 0 1ZM83.4901 407.303 91.4901 411.303 83.4901 415.303Z" fill="#156082" transform="matrix(1.83697e-16 1 1 -1.83697e-16 1206 405)"/><path d="M559.987 550 559.987 585.203 107 585.203 108 584.203 108 779.734 106 779.734 106 583.203 558.987 583.203 557.987 584.203 557.987 550ZM111 778.401 107 786.401 103 778.401Z" fill="#156082"/><path d="M559.8 550 559.8 585.387 224 585.387 225 584.387 225 612.107 223 612.107 223 583.387 558.8 583.387 557.8 584.387 557.8 550ZM228 610.773 224 618.773 220 610.773Z" fill="#156082"/><path d="M560.058 550 560.058 585.2 339 585.2 340 584.2 340 779.734 338 779.734 338 583.2 559.058 583.2 558.058 584.2 558.058 550ZM343 778.4 339 786.4 335 778.4Z" fill="#156082"/><path d="M560.469 550 560.469 585.387 455 585.387 456 584.387 456 612.107 454 612.107 454 583.387 559.469 583.387 558.469 584.387 558.469 550ZM459 610.773 455 618.773 451 610.773Z" fill="#156082"/><path d="M0-1 35.3867-1 35.3867 84.2681 34.3867 83.2681 62.1066 83.2681 62.1066 85.2681 33.3867 85.2681 33.3867 0 34.3867 1 0 1ZM60.7732 80.2681 68.7732 84.2681 60.7732 88.2681Z" fill="#156082" transform="matrix(1.83697e-16 1 1 -1.83697e-16 559 550)"/><path d="M830.627 804 830.627 826.795 829 826.795 830 825.795 830 840.924 828 840.924 828 824.795 829.627 824.795 828.627 825.795 828.627 804ZM833 839.591 829 847.591 825 839.591Z" fill="#156082"/><path d="M0-1 22.7957-1 22.7957 272.171 21.7957 271.171 36.9242 271.171 36.9242 273.171 20.7957 273.171 20.7957 0 21.7957 1 0 1ZM35.5909 268.171 43.5909 272.171 35.5909 276.171Z" fill="#156082" transform="matrix(1.83697e-16 1 1 -1.83697e-16 830 804)"/><path d="M0-1 22.7954-1 22.7954 535.984 21.7954 534.984 36.9242 534.984 36.9242 536.984 20.7954 536.984 20.7954 0 21.7954 1 0 1ZM35.5909 531.984 43.5909 535.984 35.5909 539.984Z" fill="#156082" transform="matrix(1.83697e-16 1 1 -1.83697e-16 830 804)"/><path d="M0-1 22.7959-1 22.7959 788.893 21.7959 787.893 36.9242 787.893 36.9242 789.893 20.7959 789.893 20.7959 0 21.7959 1 0 1ZM35.5909 784.893 43.5909 788.893 35.5909 792.893Z" fill="#156082" transform="matrix(1.83697e-16 1 1 -1.83697e-16 830 804)"/><rect x="28" y="193" width="132" height="40" stroke="#215F9A" stroke-width="2" stroke-miterlimit="8" fill="#FFFFFF"/><text font-family="Aptos Narrow,Aptos Narrow_MSFontService,sans-serif" font-weight="700" font-stretch="semi-condensed" font-size="13.3333" transform="translate(31.905 209)">specVersion</text><text fill="#00B050" font-family="Aptos Narrow,Aptos Narrow_MSFontService,sans-serif" font-weight="700" font-stretch="semi-condensed" font-size="13.3333" transform="translate(31.905 225)">partialFullPcf</text><rect x="1230" y="193" width="110" height="40" stroke="#215F9A" stroke-width="2" stroke-miterlimit="8" fill="#FFFFFF"/><text font-family="Aptos Narrow,Aptos Narrow_MSFontService,sans-serif" font-weight="400" font-stretch="semi-condensed" font-size="13.3333" transform="translate(1233.96 209)">comment</text><text font-family="Aptos Narrow,Aptos Narrow_MSFontService,sans-serif" font-weight="400" font-stretch="semi-condensed" font-size="13.3333" transform="translate(1233.96 225)">pcfLegalStatement</text><rect x="1368" y="193" width="195" height="92" stroke="#215F9A" stroke-width="2" stroke-miterlimit="8" fill="#FFFFFF"/><text font-family="Aptos Narrow,Aptos Narrow_MSFontService,sans-serif" font-weight="400" font-stretch="semi-condensed" font-size="13.3333" transform="translate(1371.62 211)">carbonContentTotal</text><text font-family="Aptos Narrow,Aptos Narrow_MSFontService,sans-serif" font-weight="400" font-stretch="semi-condensed" font-size="13.3333" transform="translate(1371.62 227)">fossilCarbonContent</text><text font-family="Aptos Narrow,Aptos Narrow_MSFontService,sans-serif" font-weight="400" font-stretch="semi-condensed" font-size="13.3333" transform="translate(1371.62 243)">biogenicCarbonContent</text><text font-family="Aptos Narrow,Aptos Narrow_MSFontService,sans-serif" font-weight="400" font-stretch="semi-condensed" font-size="13.3333" transform="translate(1371.62 259)">packagingBiogenicCarbonContent</text><text font-family="Aptos Narrow,Aptos Narrow_MSFontService,sans-serif" font-weight="400" font-stretch="semi-condensed" font-size="13.3333" transform="translate(1371.62 275)">recycledCarbonContent</text><rect x="1590" y="193" width="177" height="152" stroke="#215F9A" stroke-width="2" stroke-miterlimit="8" fill="#FFFFFF"/><text fill="#4E95D9" font-family="Aptos Narrow,Aptos Narrow_MSFontService,sans-serif" font-weight="700" font-stretch="semi-condensed" font-size="13.3333" transform="translate(1593.63 213)">AttestationType</text><text fill="#4E95D9" font-family="Aptos Narrow,Aptos Narrow_MSFontService,sans-serif" font-weight="700" font-stretch="semi-condensed" font-size="13.3333" transform="translate(1593.63 230)">standardName</text><text fill="#4E95D9" font-family="Aptos Narrow,Aptos Narrow_MSFontService,sans-serif" font-weight="700" font-stretch="semi-condensed" font-size="13.3333" transform="translate(1593.63 248)">attestationStandard</text><text fill="#4E95D9" font-family="Aptos Narrow,Aptos Narrow_MSFontService,sans-serif" font-weight="700" font-stretch="semi-condensed" font-size="13.3333" transform="translate(1593.63 265)">attestationOfConformanceId</text><text fill="#4E95D9" font-family="Aptos Narrow,Aptos Narrow_MSFontService,sans-serif" font-weight="400" font-stretch="semi-condensed" font-size="13.3333" transform="translate(1593.63 282)">attestationOfConformanceLink</text><text fill="#4E95D9" font-family="Aptos Narrow,Aptos Narrow_MSFontService,sans-serif" font-weight="700" font-stretch="semi-condensed" font-size="13.3333" transform="translate(1593.63 300)">providerName</text><text fill="#4E95D9" font-family="Aptos Narrow,Aptos Narrow_MSFontService,sans-serif" font-weight="400" font-stretch="semi-condensed" font-size="13.3333" transform="translate(1593.63 317)">providerID</text><text fill="#4E95D9" font-family="Aptos Narrow,Aptos Narrow_MSFontService,sans-serif" font-weight="400" font-stretch="semi-condensed" font-size="13.3333" transform="translate(1593.63 334)">completedAt</text><rect x="104" y="343" width="155" height="41" stroke="#4E95D9" stroke-width="2" stroke-miterlimit="8" fill="#FFFFFF"/><text font-family="Aptos Narrow,Aptos Narrow_MSFontService,sans-serif" font-weight="700" font-stretch="semi-condensed" font-size="13.3333" transform="translate(108.045 360)">companyName</text><text font-family="Aptos Narrow,Aptos Narrow_MSFontService,sans-serif" font-weight="700" font-stretch="semi-condensed" font-size="13.3333" transform="translate(108.045 377)">companyIds</text><rect x="278" y="343" width="179" height="129" stroke="#4E95D9" stroke-width="2" stroke-miterlimit="8" fill="#FFFFFF"/><text font-family="Aptos Narrow,Aptos Narrow_MSFontService,sans-serif" font-weight="700" font-stretch="semi-condensed" font-size="13.3333" transform="translate(281.685 360)">productNameCompany</text><text font-family="Aptos Narrow,Aptos Narrow_MSFontService,sans-serif" font-weight="700" font-stretch="semi-condensed" font-size="13.3333" transform="translate(281.685 377)">productIds</text><text font-family="Aptos Narrow,Aptos Narrow_MSFontService,sans-serif" font-weight="400" font-stretch="semi-condensed" font-size="13.3333" transform="translate(281.685 395)">productDescription</text><text font-family="Aptos Narrow,Aptos Narrow_MSFontService,sans-serif" font-weight="400" font-stretch="semi-condensed" font-size="13.3333" transform="translate(281.685 412)">productClassifications</text><text font-family="Aptos Narrow,Aptos Narrow_MSFontService,sans-serif" font-weight="700" font-stretch="semi-condensed" font-size="13.3333" transform="translate(281.685 429)">declaredUnitOfMeasurement</text><text font-family="Aptos Narrow,Aptos Narrow_MSFontService,sans-serif" font-weight="700" font-stretch="semi-condensed" font-size="13.3333" transform="translate(281.685 447)">declaredUnitAmount</text><text font-family="Aptos Narrow,Aptos Narrow_MSFontService,sans-serif" font-weight="700" font-stretch="semi-condensed" font-size="13.3333" transform="translate(281.685 464)">productMassPerDeclaredUnit</text><rect x="597" y="343" width="206" height="94" stroke="#4E95D9" stroke-width="2" stroke-miterlimit="8" fill="#FFFFFF"/><text fill="#E97132" font-family="Aptos Narrow,Aptos Narrow_MSFontService,sans-serif" font-weight="700" font-stretch="semi-condensed" font-size="13.3333" transform="translate(601.09 360)">primaryDataShare</text><text font-family="Aptos Narrow,Aptos Narrow_MSFontService,sans-serif" font-weight="700" font-stretch="semi-condensed" font-size="13.3333" transform="translate(601.09 377)">secondaryEmissionFactorSources</text><text fill="#E97132" font-family="Aptos Narrow,Aptos Narrow_MSFontService,sans-serif" font-weight="700" font-stretch="semi-condensed" font-size="13.3333" transform="translate(601.09 395)">technologicalDQR</text><text fill="#E97132" font-family="Aptos Narrow,Aptos Narrow_MSFontService,sans-serif" font-weight="700" font-stretch="semi-condensed" font-size="13.3333" transform="translate(601.09 412)">temporalDQR</text><text fill="#E97132" font-family="Aptos Narrow,Aptos Narrow_MSFontService,sans-serif" font-weight="700" font-stretch="semi-condensed" font-size="13.3333" transform="translate(601.09 429)">geographicalDQR</text><rect x="818" y="343" width="211" height="77" stroke="#4E95D9" stroke-width="2" stroke-miterlimit="8" fill="#FFFFFF"/><text font-family="Aptos Narrow,Aptos Narrow_MSFontService,sans-serif" font-weight="400" font-stretch="semi-condensed" font-size="13.3333" transform="translate(822.007 360)">programCertificationShare</text><text font-family="Aptos Narrow,Aptos Narrow_MSFontService,sans-serif" font-weight="400" font-stretch="semi-condensed" font-size="13.3333" transform="translate(822.007 377)">productVerificationShare3rdParty</text><text font-family="Aptos Narrow,Aptos Narrow_MSFontService,sans-serif" font-weight="400" font-stretch="semi-condensed" font-size="13.3333" transform="translate(822.007 395)">productVerificationShare2ndParty</text><text font-family="Aptos Narrow,Aptos Narrow_MSFontService,sans-serif" font-weight="400" font-stretch="semi-condensed" font-size="13.3333" transform="translate(822.007 412)">productVerificationShare1stPartyv</text><rect x="906" y="569" width="232" height="164" stroke="#4E95D9" stroke-width="2" stroke-miterlimit="8" fill="#FFFFFF"/><text font-family="Aptos Narrow,Aptos Narrow_MSFontService,sans-serif" font-weight="700" font-stretch="semi-condensed" font-size="13.3333" transform="translate(910.014 587)">pcfIncludingBiogenicUptake</text><text font-family="Aptos Narrow,Aptos Narrow_MSFontService,sans-serif" font-weight="700" font-stretch="semi-condensed" font-size="13.3333" transform="translate(910.014 604)">pcfExcludingBiogenicUptake</text><text font-family="Aptos Narrow,Aptos Narrow_MSFontService,sans-serif" font-weight="400" font-stretch="semi-condensed" font-size="13.3333" transform="translate(910.014 622)">fossilGhgEmissions</text><text font-family="Aptos Narrow,Aptos Narrow_MSFontService,sans-serif" font-weight="400" font-stretch="semi-condensed" font-size="13.3333" transform="translate(910.014 639)">biogenicNonCO2Emissions</text><text font-family="Aptos Narrow,Aptos Narrow_MSFontService,sans-serif" font-weight="400" font-stretch="semi-condensed" font-size="13.3333" transform="translate(910.014 656)">biogenicCO2Uptake</text><text font-family="Aptos Narrow,Aptos Narrow_MSFontService,sans-serif" font-weight="400" font-stretch="semi-condensed" font-size="13.3333" transform="translate(910.014 674)">landUseChangeGhgEmissions</text><text font-family="Aptos Narrow,Aptos Narrow_MSFontService,sans-serif" font-weight="400" font-stretch="semi-condensed" font-size="13.3333" transform="translate(910.014 691)">landManagementBiogenicCO2Emissions</text><text font-family="Aptos Narrow,Aptos Narrow_MSFontService,sans-serif" font-weight="400" font-stretch="semi-condensed" font-size="13.3333" transform="translate(910.014 708)">landManagementBiogenicCO2Removals</text><text font-family="Aptos Narrow,Aptos Narrow_MSFontService,sans-serif" font-weight="400" font-stretch="semi-condensed" font-size="13.3333" transform="translate(910.014 726)">aircraftGhgEmissions</text><rect x="1154" y="571" width="283" height="181" stroke="#4E95D9" stroke-width="2" stroke-miterlimit="8" fill="#FFFFFF"/><text font-family="Aptos Narrow,Aptos Narrow_MSFontService,sans-serif" font-weight="700" font-stretch="semi-condensed" font-size="13.3333" transform="translate(1157.82 588)">packagingEmissionsIncluded</text><text font-family="Aptos Narrow,Aptos Narrow_MSFontService,sans-serif" font-weight="400" font-stretch="semi-condensed" font-size="13.3333" transform="translate(1157.82 605)">packagingPcfIncludingBiogenicUptake</text><text font-family="Aptos Narrow,Aptos Narrow_MSFontService,sans-serif" font-weight="400" font-stretch="semi-condensed" font-size="13.3333" transform="translate(1157.82 623)">packagingPcfExcludingBiogenicUptake</text><text font-family="Aptos Narrow,Aptos Narrow_MSFontService,sans-serif" font-weight="400" font-stretch="semi-condensed" font-size="13.3333" transform="translate(1157.82 640)">packagingFossilGhgEmissions</text><text font-family="Aptos Narrow,Aptos Narrow_MSFontService,sans-serif" font-weight="400" font-stretch="semi-condensed" font-size="13.3333" transform="translate(1157.82 657)">packagingBiogenicNonCO2Emissions</text><text font-family="Aptos Narrow,Aptos Narrow_MSFontService,sans-serif" font-weight="400" font-stretch="semi-condensed" font-size="13.3333" transform="translate(1157.82 675)">packagingBiogenicCO2Uptake</text><text font-family="Aptos Narrow,Aptos Narrow_MSFontService,sans-serif" font-weight="400" font-stretch="semi-condensed" font-size="13.3333" transform="translate(1157.82 692)">packagingLandUseChangeGhgEmissions</text><text font-family="Aptos Narrow,Aptos Narrow_MSFontService,sans-serif" font-weight="400" font-stretch="semi-condensed" font-size="13.3333" transform="translate(1157.82 709)">packagingLandManagementBiogenicCO2Emissions</text><text font-family="Aptos Narrow,Aptos Narrow_MSFontService,sans-serif" font-weight="400" font-stretch="semi-condensed" font-size="13.3333" transform="translate(1157.82 727)">packagingLandManagementBiogenicCO2Removals</text><text font-family="Aptos Narrow,Aptos Narrow_MSFontService,sans-serif" font-weight="400" font-stretch="semi-condensed" font-size="13.3333" transform="translate(1157.82 744)">packagingAircraftGhgEmissions</text><rect x="1452" y="571" width="331" height="181" stroke="#4E95D9" stroke-width="2" stroke-miterlimit="8" fill="#FFFFFF"/><text font-family="Aptos Narrow,Aptos Narrow_MSFontService,sans-serif" font-weight="700" font-stretch="semi-condensed" font-size="13.3333" transform="translate(1455.56 589)">distributionStageIncluded</text><text font-family="Aptos Narrow,Aptos Narrow_MSFontService,sans-serif" font-weight="400" font-stretch="semi-condensed" font-size="13.3333" transform="translate(1455.56 606)">distributionStagePcfIncludingBiogenicUptake</text><text font-family="Aptos Narrow,Aptos Narrow_MSFontService,sans-serif" font-weight="400" font-stretch="semi-condensed" font-size="13.3333" transform="translate(1455.56 624)">distributionStagePcfExcludingBiogenicUptake</text><text font-family="Aptos Narrow,Aptos Narrow_MSFontService,sans-serif" font-weight="400" font-stretch="semi-condensed" font-size="13.3333" transform="translate(1455.56 641)">distributionStageFossilGhgEmissions</text><text font-family="Aptos Narrow,Aptos Narrow_MSFontService,sans-serif" font-weight="400" font-stretch="semi-condensed" font-size="13.3333" transform="translate(1455.56 658)">distributionStageBiogenicNonCO2Emissions</text><text font-family="Aptos Narrow,Aptos Narrow_MSFontService,sans-serif" font-weight="400" font-stretch="semi-condensed" font-size="13.3333" transform="translate(1455.56 676)">distributionStageBiogenicCO2Uptake</text><text font-family="Aptos Narrow,Aptos Narrow_MSFontService,sans-serif" font-weight="400" font-stretch="semi-condensed" font-size="13.3333" transform="translate(1455.56 693)">distributionStageLandUseChangeGhgEmissions</text><text font-family="Aptos Narrow,Aptos Narrow_MSFontService,sans-serif" font-weight="400" font-stretch="semi-condensed" font-size="13.3333" transform="translate(1455.56 710)">distributionStageLandManagementBiogenicCO2Emissions</text><text font-family="Aptos Narrow,Aptos Narrow_MSFontService,sans-serif" font-weight="400" font-stretch="semi-condensed" font-size="13.3333" transform="translate(1455.56 728)">distributionStageLandManagementBiogenicCO2Removals</text><text font-family="Aptos Narrow,Aptos Narrow_MSFontService,sans-serif" font-weight="400" font-stretch="semi-condensed" font-size="13.3333" transform="translate(1455.56 745)">distributionStageAircraftGhgEmissions</text><path d="M94.9997 168.976 95.4252 186.626 93.4258 186.674 93.0003 169.024ZM98.3922 185.221 94.5861 193.315 90.3945 185.413Z" fill="#156082"/><path d="M0.999627-0.0272939 1.53336 19.5206-0.465891 19.5752-0.999627 0.0272939ZM4.49585 18.1059 0.715696 26.2121-3.50116 18.3242Z" fill="#156082" transform="matrix(-1 0 0 1 1285.72 167)"/><path d="M0.999713-0.0239688 1.46837 19.5234-0.531053 19.5713-0.999713 0.0239688ZM4.43555 18.1185 0.628451 26.2121-3.56215 18.3102Z" fill="#156082" transform="matrix(-1 0 0 1 1466.63 167)"/><path d="M1680 167 1680 186.545 1678 186.545 1678 167ZM1683 185.212 1679 193.212 1675 185.212Z" fill="#156082"/><path d="M0.999982-0.00606567 1.10863 17.9048-0.891338 17.9169-0.999982 0.00606567ZM4.10048 16.5533 0.149081 24.5774-3.89937 16.6018Z" fill="#156082" transform="matrix(-1 0 0 1 182.149 318)"/><path d="M368 317.98 368.366 335.892 366.367 335.933 366 318.02ZM371.338 334.497 367.503 342.577 363.34 334.661Z" fill="#156082"/><path d="M701 317.993 701.129 335.904 699.129 335.918 699 318.007ZM704.12 334.549 700.178 342.577 696.12 334.607Z" fill="#156082"/><path d="M924 317.986 924.251 335.897 922.251 335.925 922 318.014ZM927.232 334.522 923.344 342.577 919.232 334.634Z" fill="#156082"/><path d="M0.999461-0.0328121 1.57494 17.4963-0.423983 17.562-0.999461 0.0328121ZM4.52957 16.0653 0.794226 24.1922-3.46612 16.3278Z" fill="#156082" transform="matrix(-1 0 0 1 1022.79 545)"/><path d="M1296 545.986 1296.26 564.42 1294.26 564.448 1294 546.014ZM1299.24 563.044 1295.35 571.1 1291.24 563.157Z" fill="#156082"/><path d="M1618 547.985 1618.25 564.496 1616.25 564.526 1616 548.015ZM1621.23 563.117 1617.35 571.177 1613.23 563.239Z" fill="#156082"/><rect x="24" y="869" width="167" height="94" stroke="#A6CAEC" stroke-width="2" stroke-miterlimit="8" fill="#FFFFFF"/><text font-family="Aptos Narrow,Aptos Narrow_MSFontService,sans-serif" font-weight="700" font-stretch="semi-condensed" font-size="13.3333" transform="translate(27.3985 886)">Id</text><text font-family="Aptos Narrow,Aptos Narrow_MSFontService,sans-serif" font-weight="400" font-stretch="semi-condensed" font-size="13.3333" transform="translate(27.3985 903)">precedingPfIds</text><text fill="#00B050" font-family="Aptos Narrow,Aptos Narrow_MSFontService,sans-serif" font-weight="700" font-stretch="semi-condensed" font-size="13.3333" transform="translate(27.3985 921)">version</text><text fill="#00B050" font-family="Aptos Narrow,Aptos Narrow_MSFontService,sans-serif" font-weight="700" font-stretch="semi-condensed" font-size="13.3333" transform="translate(27.3985 938)">Status</text><text font-family="Aptos Narrow,Aptos Narrow_MSFontService,sans-serif" font-weight="700" font-stretch="semi-condensed" font-size="13.3333" transform="translate(27.3985 955)">retroOrProspectivePcfType</text><rect x="134" y="698" width="181" height="41" stroke="#A6CAEC" stroke-width="2" stroke-miterlimit="8" fill="#FFFFFF"/><text font-family="Aptos Narrow,Aptos Narrow_MSFontService,sans-serif" font-weight="700" font-stretch="semi-condensed" font-size="13.3333" transform="translate(137.552 715)">exemptedEmissionsPercent</text><text font-family="Aptos Narrow,Aptos Narrow_MSFontService,sans-serif" font-weight="400" font-stretch="semi-condensed" font-size="13.3333" transform="translate(137.552 732)">exemptedEmissionsDescription</text><rect x="220" y="870" width="238" height="41" stroke="#A6CAEC" stroke-width="2" stroke-miterlimit="8" fill="#FFFFFF"/><text font-family="Aptos Narrow,Aptos Narrow_MSFontService,sans-serif" font-weight="400" font-stretch="semi-condensed" font-size="13.3333" transform="translate(223.7 887)">boundaryProcessesDescription</text><text font-family="Aptos Narrow,Aptos Narrow_MSFontService,sans-serif" font-weight="700" font-stretch="semi-condensed" font-size="13.3333" transform="translate(223.7 904)">ccsTechnologicalCO2CaptureIncluded</text><rect x="363" y="698" width="182" height="59" stroke="#A6CAEC" stroke-width="2" stroke-miterlimit="8" fill="#FFFFFF"/><text font-family="Aptos Narrow,Aptos Narrow_MSFontService,sans-serif" font-weight="400" font-stretch="semi-condensed" font-size="13.3333" transform="translate(367.081 715)">geographyCountrySubdivision</text><text font-family="Aptos Narrow,Aptos Narrow_MSFontService,sans-serif" font-weight="400" font-stretch="semi-condensed" font-size="13.3333" transform="translate(367.081 732)">geographyCountry</text><text font-family="Aptos Narrow,Aptos Narrow_MSFontService,sans-serif" font-weight="700" font-stretch="semi-condensed" font-size="13.3333" transform="translate(367.081 750)">geographyRegionOrSubregion</text><rect x="577" y="698" width="132" height="94" stroke="#A6CAEC" stroke-width="2" stroke-miterlimit="8" fill="#FFFFFF"/><text font-family="Aptos Narrow,Aptos Narrow_MSFontService,sans-serif" font-weight="700" font-stretch="semi-condensed" font-size="13.3333" transform="translate(580.996 715)">referencePeriodStart</text><text font-family="Aptos Narrow,Aptos Narrow_MSFontService,sans-serif" font-weight="700" font-stretch="semi-condensed" font-size="13.3333" transform="translate(580.996 732)">referencePeriodEnd</text><text font-family="Aptos Narrow,Aptos Narrow_MSFontService,sans-serif" font-weight="700" font-stretch="semi-condensed" font-size="13.3333" transform="translate(580.996 750)">created</text><text font-family="Aptos Narrow,Aptos Narrow_MSFontService,sans-serif" font-weight="400" font-stretch="semi-condensed" font-size="13.3333" transform="translate(580.996 767)">validityPeriodStart</text><text font-family="Aptos Narrow,Aptos Narrow_MSFontService,sans-serif" font-weight="700" font-stretch="semi-condensed" font-size="13.3333" transform="translate(580.996 784)">validityPeriodEnd</text><rect x="736" y="924" width="188" height="41" stroke="#A6CAEC" stroke-width="2" stroke-miterlimit="8" fill="#FFFFFF"/><text font-family="Aptos Narrow,Aptos Narrow_MSFontService,sans-serif" font-weight="700" font-stretch="semi-condensed" font-size="13.3333" transform="translate(740.093 941)">crossSectoralStandards</text><text font-family="Aptos Narrow,Aptos Narrow_MSFontService,sans-serif" font-weight="700" font-stretch="semi-condensed" font-size="13.3333" transform="translate(740.093 958)">productOrSectorSpecificRules</text><rect x="987" y="924" width="230" height="24" stroke="#A6CAEC" stroke-width="2" stroke-miterlimit="8" fill="#FFFFFF"/><text font-family="Aptos Narrow,Aptos Narrow_MSFontService,sans-serif" font-weight="700" font-stretch="semi-condensed" font-size="13.3333" transform="translate(990.676 941)">ipccCharacterizationFactors</text><rect x="1249" y="924" width="236" height="59" stroke="#A6CAEC" stroke-width="2" stroke-miterlimit="8" fill="#FFFFFF"/><text font-family="Aptos Narrow,Aptos Narrow_MSFontService,sans-serif" font-weight="400" font-stretch="semi-condensed" font-size="13.3333" transform="translate(1252.55 941)">allocationRulesDescription</text><text font-family="Aptos Narrow,Aptos Narrow_MSFontService,sans-serif" font-weight="700" font-stretch="semi-condensed" font-size="13.3333" transform="translate(1252.55 958)">allocationWasteIncineration</text><text font-family="Aptos Narrow,Aptos Narrow_MSFontService,sans-serif" font-weight="400" font-stretch="semi-condensed" font-size="13.3333" transform="translate(1252.55 976)">allocationRecycledCarbon</text><rect x="1515" y="924" width="209" height="59" stroke="#A6CAEC" stroke-width="2" stroke-miterlimit="8" fill="#FFFFFF"/><text font-family="Aptos Narrow,Aptos Narrow_MSFontService,sans-serif" font-weight="700" font-stretch="semi-condensed" font-size="13.3333" transform="translate(1518.3 941)">massBalancingUsed</text><text fill="#4D93D9" font-family="Aptos Narrow,Aptos Narrow_MSFontService,sans-serif" font-weight="700" font-stretch="semi-condensed" font-size="13.3333" transform="translate(1518.3 958)">freeAttributionInMassBalancing</text><text fill="#4D93D9" font-family="Aptos Narrow,Aptos Narrow_MSFontService,sans-serif" font-weight="700" font-stretch="semi-condensed" font-size="13.3333" transform="translate(1518.3 976)">massBalancingCertificateScheme</text><path d="M108 838.998 108.041 862.221 106.041 862.224 106 839.002ZM111.038 860.882 107.052 868.889 103.038 860.896Z" fill="#156082"/><path d="M225 672 225 691.963 223 691.963 223 672ZM228 690.63 224 698.63 220 690.63Z" fill="#156082"/><path d="M340 839 340 862.857 338 862.857 338 839ZM343 861.523 339 869.523 335 861.523Z" fill="#156082"/><path d="M0.99986-0.0167095 1.3335 19.9477-0.666218 19.9811-0.99986 0.0167095ZM4.3108 18.5644 0.445039 26.6301-3.68808 18.6981Z" fill="#156082" transform="matrix(-1 0 0 1 454.445 672)"/><path d="M644 672 644 691.963 642 691.963 642 672ZM647 690.63 643 698.63 639 690.63Z" fill="#156082"/><path d="M829.999 900.957 830.723 917.681 828.725 917.768 828.001 901.043ZM833.663 916.22 830.013 924.385 825.67 916.566Z" fill="#156082"/><path d="M1103 901 1103 917.718 1101 917.718 1101 901ZM1106 916.385 1102 924.385 1098 916.385Z" fill="#156082"/><path d="M1367 900.954 1367.77 917.679 1365.77 917.772 1365 901.046ZM1370.71 916.209 1367.08 924.385 1362.71 916.578Z" fill="#156082"/><path d="M1620 900.971 1620.48 917.693 1618.48 917.75 1618 901.029ZM1623.44 916.274 1619.67 924.385 1615.44 916.502Z" fill="#156082"/><rect x="92.5001" y="15.5001" width="210" height="58" stroke="#163E64" stroke-miterlimit="8" fill="#FFFFFF"/><text font-family="Aptos Narrow,Aptos Narrow_MSFontService,sans-serif" font-weight="700" font-stretch="semi-condensed" font-size="13.3333" transform="translate(107.238 31)">Bold text = mandatory</text><text font-family="Aptos Narrow,Aptos Narrow_MSFontService,sans-serif" font-weight="400" font-stretch="semi-condensed" font-size="13.3333" transform="translate(107.238 49)">N</text><text font-family="Aptos Narrow,Aptos Narrow_MSFontService,sans-serif" font-weight="400" font-stretch="semi-condensed" font-size="13.3333" transform="translate(115.904 49)">ormal text = optional</text><text fill="#00B050" font-family="Aptos Narrow,Aptos Narrow_MSFontService,sans-serif" font-weight="700" font-stretch="semi-condensed" font-size="13.3333" transform="translate(107.238 66)">Green bold = default vvalue</text><rect x="317.5" y="15.5001" width="242" height="58" stroke="#163E64" stroke-miterlimit="8" fill="#FFFFFF"/><text fill="#E97132" font-family="Aptos Narrow,Aptos Narrow_MSFontService,sans-serif" font-weight="700" font-stretch="semi-condensed" font-size="13.3333" transform="translate(331.893 31)">Bold orange = mandatory in 2027</text><text fill="#4E95D9" font-family="Aptos Narrow,Aptos Narrow_MSFontService,sans-serif" font-weight="700" font-stretch="semi-condensed" font-size="13.3333" transform="translate(331.893 49)">Bold blue = mandatory if</text><text fill="#4E95D9" font-family="Aptos Narrow,Aptos Narrow_MSFontService,sans-serif" font-weight="400" font-stretch="semi-condensed" font-size="13.3333" transform="translate(331.893 66)">Normal blue = optional if</text></g></svg>