<svg width="1032" height="484" xmlns="http://www.w3.org/2000/svg" xmlns:xlink="http://www.w3.org/1999/xlink" xml:space="preserve" overflow="hidden"><g transform="translate(-119 -140)"><path d="M476 152.667C476 145.671 481.671 140 488.667 140L791.333 140C798.329 140 804 145.671 804 152.667L804 203.333C804 210.329 798.329 216 791.333 216L488.667 216C481.671 216 476 210.329 476 203.333Z" fill="#D2D741" fill-rule="evenodd"/><text fill="#FFFFFF" font-family="Arial,Arial_MSFontService,Arial" font-weight="400" font-size="24" transform="translate(508.431 186)">Executed fault resolution</text><path d="M823 334.667C823 327.671 828.671 322 835.667 322L1138.33 322C1145.33 322 1151 327.671 1151 334.667L1151 385.333C1151 392.329 1145.33 398 1138.33 398L835.667 398C828.671 398 823 392.329 823 385.333Z" fill="#0778A5" fill-rule="evenodd"/><text fill="#FFFFFF" font-family="Arial,Arial_MSFontService,Arial" font-weight="400" font-size="24" transform="translate(875.059 354)">Operator and service </text><text fill="#FFFFFF" font-family="Arial,Arial_MSFontService,Arial" font-weight="400" font-size="24" transform="translate(938.392 383)">feedback</text><path d="M709 554.833C709 547.746 714.746 542 721.833 542L1024.17 542C1031.25 542 1037 547.746 1037 554.833L1037 606.167C1037 613.254 1031.25 619 1024.17 619L721.833 619C714.746 619 709 613.254 709 606.167Z" fill="#92D050" fill-rule="evenodd"/><text fill="#FFFFFF" font-family="Arial,Arial_MSFontService,Arial" font-weight="400" font-size="24" transform="translate(744.51 575)">Knowledge curation and </text><text fill="#FFFFFF" font-family="Arial,Arial_MSFontService,Arial" font-weight="400" font-size="24" transform="translate(822.51 604)">validation</text><path d="M243 554.833C243 547.746 248.746 542 255.833 542L558.167 542C565.254 542 571 547.746 571 554.833L571 606.167C571 613.254 565.254 619 558.167 619L255.833 619C248.746 619 243 613.254 243 606.167Z" fill="#FFC000" fill-rule="evenodd"/><text fill="#FFFFFF" font-family="Arial,Arial_MSFontService,Arial" font-weight="400" font-size="24" transform="translate(270.157 575)">Update models, rules and </text><text fill="#FFFFFF" font-family="Arial,Arial_MSFontService,Arial" font-weight="400" font-size="24" transform="translate(352.824 604)">playbooks</text><path d="M119 334.667C119 327.671 124.671 322 131.667 322L434.333 322C441.329 322 447 327.671 447 334.667L447 385.333C447 392.329 441.329 398 434.333 398L131.667 398C124.671 398 119 392.329 119 385.333Z" fill="#B5B7B8" fill-rule="evenodd"/><text fill="#FFFFFF" font-family="Arial,Arial_MSFontService,Arial" font-weight="400" font-size="24" transform="translate(147.058 340)">Improve recommendation </text><text fill="#FFFFFF" font-family="Arial,Arial_MSFontService,Arial" font-weight="400" font-size="24" transform="translate(167.725 369)">and autonomous fault </text><text fill="#FFFFFF" font-family="Arial,Arial_MSFontService,Arial" font-weight="400" font-size="24" transform="translate(237.725 398)">handling</text><path d="M804.617 177.213 982.902 317.098 981.667 318.672 803.383 178.787ZM983.705 313.915 987.529 322 978.766 320.209Z" fill="#0778A5"/><path d="M0.784358-0.620308 110.531 138.151 108.963 139.391-0.784358 0.620308ZM112.057 135.244 113.882 144 105.782 140.206Z" fill="#0778A5" transform="matrix(-1 0 0 1 986.882 398)"/><path d="M7.56262e-07-1 132.157-0.9999 132.157 1.0001-7.56262e-07 1ZM130.823-3.9999 138.823 0.000104987 130.823 4.0001Z" fill="#0778A5" transform="matrix(-1 0 0 1 709.823 580)"/><path d="M406.007 542.652 286.587 403.708 288.104 402.404 407.524 541.348ZM285.181 406.674 283 398 291.248 401.46Z" fill="#0778A5"/><path d="M0.598121-0.801405 188.196 139.211 187 140.814-0.598121 0.801405ZM188.923 136.009 192.942 144 184.138 142.421Z" fill="#0778A5" transform="matrix(1 0 0 -1 283 322)"/></g></svg>