<?xml version="1.0" encoding="UTF-8"?>
<?xml-stylesheet href="https://cdnjs.cloudflare.com/ajax/libs/font-awesome/6.5.2/css/all.min.css" type="text/css"?>
<svg aria-roledescription="xychart" role="graphics-document document" viewBox="0 0 700 500" style="max-width: 100%;" xmlns="http://www.w3.org/2000/svg" width="100%" id="graph-div" height="100%" xmlns:xlink="http://www.w3.org/1999/xlink"><style>#graph-div{font-family:"trebuchet ms",verdana,arial,sans-serif;font-size:16px;fill:#ccc;}#graph-div .error-icon{fill:#a44141;}#graph-div .error-text{fill:#ddd;stroke:#ddd;}#graph-div .edge-thickness-normal{stroke-width:2px;}#graph-div .edge-thickness-thick{stroke-width:3.5px;}#graph-div .edge-pattern-solid{stroke-dasharray:0;}#graph-div .edge-pattern-dashed{stroke-dasharray:3;}#graph-div .edge-pattern-dotted{stroke-dasharray:2;}#graph-div .marker{fill:lightgrey;stroke:lightgrey;}#graph-div .marker.cross{stroke:lightgrey;}#graph-div svg{font-family:"trebuchet ms",verdana,arial,sans-serif;font-size:16px;}#graph-div :root{--mermaid-font-family:"trebuchet ms",verdana,arial,sans-serif;}</style><g></g><g class="main"><rect fill="#333" class="background" height="500" width="700"></rect><g class="chart-title"><text transform="translate(385.81597900390625, 21.666666984558105) rotate(0)" text-anchor="middle" dominant-baseline="middle" font-size="20" fill="#e0dfdf" y="0" x="0">Example: Demand and Capacity Data Matching and Comparison within Capacity Group</text></g><g class="plot"><g class="bar-plot-0"><rect stroke-width="0" stroke="#3498db" fill="#3498db" height="211.49999904632568" width="47.5" y="254.8333330154419" x="78.05312919616699"></rect><rect stroke-width="0" stroke="#3498db" fill="#3498db" height="211.49999904632568" width="47.5" y="254.8333330154419" x="159.93839645385742"></rect><rect stroke-width="0" stroke="#3498db" fill="#3498db" height="211.49999904632568" width="47.5" y="254.8333330154419" x="241.82366371154785"></rect><rect stroke-width="0" stroke="#3498db" fill="#3498db" height="211.49999904632568" width="47.5" y="254.8333330154419" x="323.7089309692383"></rect><rect stroke-width="0" stroke="#3498db" fill="#3498db" height="279.2222207387288" width="47.5" y="187.11111132303876" x="405.5941982269287"></rect><rect stroke-width="0" stroke="#3498db" fill="#3498db" height="279.2222207387288" width="47.5" y="187.11111132303876" x="487.47946548461914"></rect><rect stroke-width="0" stroke="#3498db" fill="#3498db" height="279.2222207387288" width="47.5" y="187.11111132303876" x="569.3647327423096"></rect><rect stroke-width="0" stroke="#3498db" fill="#3498db" height="346.944442431132" width="47.5" y="119.38888963063556" x="651.25"></rect></g><g class="bar-plot-1"><rect stroke-width="0" stroke="#2ecc71" fill="#2ecc71" height="8.333333969116211" width="47.5" y="457.99999809265137" x="78.05312919616699"></rect><rect stroke-width="0" stroke="#2ecc71" fill="#2ecc71" height="8.333333969116211" width="47.5" y="457.99999809265137" x="159.93839645385742"></rect><rect stroke-width="0" stroke="#2ecc71" fill="#2ecc71" height="8.333333969116211" width="47.5" y="457.99999809265137" x="241.82366371154785"></rect><rect stroke-width="0" stroke="#2ecc71" fill="#2ecc71" height="8.333333969116211" width="47.5" y="457.99999809265137" x="323.7089309692383"></rect><rect stroke-width="0" stroke="#2ecc71" fill="#2ecc71" height="279.2222207387288" width="47.5" y="187.11111132303876" x="405.5941982269287"></rect><rect stroke-width="0" stroke="#2ecc71" fill="#2ecc71" height="8.333333969116211" width="47.5" y="457.99999809265137" x="487.47946548461914"></rect><rect stroke-width="0" stroke="#2ecc71" fill="#2ecc71" height="8.333333969116211" width="47.5" y="457.99999809265137" x="569.3647327423096"></rect><rect stroke-width="0" stroke="#2ecc71" fill="#2ecc71" height="346.944442431132" width="47.5" y="119.38888963063556" x="651.25"></rect></g><g class="bar-plot-2"><rect stroke-width="0" stroke="#e74c3c" fill="#e74c3c" height="211.49999904632568" width="47.5" y="254.8333330154419" x="78.05312919616699"></rect><rect stroke-width="0" stroke="#e74c3c" fill="#e74c3c" height="211.49999904632568" width="47.5" y="254.8333330154419" x="159.93839645385742"></rect><rect stroke-width="0" stroke="#e74c3c" fill="#e74c3c" height="211.49999904632568" width="47.5" y="254.8333330154419" x="241.82366371154785"></rect><rect stroke-width="0" stroke="#e74c3c" fill="#e74c3c" height="211.49999904632568" width="47.5" y="254.8333330154419" x="323.7089309692383"></rect><rect stroke-width="0" stroke="#e74c3c" fill="#e74c3c" height="8.333333969116211" width="47.5" y="457.99999809265137" x="405.5941982269287"></rect><rect stroke-width="0" stroke="#e74c3c" fill="#e74c3c" height="8.333333969116211" width="47.5" y="457.99999809265137" x="487.47946548461914"></rect><rect stroke-width="0" stroke="#e74c3c" fill="#e74c3c" height="8.333333969116211" width="47.5" y="457.99999809265137" x="569.3647327423096"></rect><rect stroke-width="0" stroke="#e74c3c" fill="#e74c3c" height="8.333333969116211" width="47.5" y="457.99999809265137" x="651.25"></rect></g><g class="line-plot-3"><path stroke-width="2" stroke="#f1c40f" fill="none" d="M101.803,254.833L183.688,254.833L265.574,187.111L347.459,187.111L429.344,254.833L511.229,254.833L593.115,254.833L675,254.833"></path></g><g class="line-plot-4"><path stroke-width="2" stroke="#bdc3c7" fill="none" d="M101.803,254.833L183.688,187.111L265.574,187.111L347.459,119.389L429.344,254.833L511.229,187.111L593.115,119.389L675,254.833"></path></g><g class="line-plot-5"><path stroke-width="2" stroke="#ffffff" fill="none" d="M101.803,119.389L183.688,119.389L265.574,119.389L347.459,119.389L429.344,119.389L511.229,119.389L593.115,119.389L675,119.389"></path></g></g><g class="bottom-axis"><g class="axis-line"><path stroke-width="2" stroke="#e0dfdf" fill="none" d="M 76.80312919616699,467.3333320617676 L 700,467.3333320617676"></path></g><g class="label"><text transform="translate(101.80312919616699, 478.3333320617676) rotate(0)" text-anchor="middle" dominant-baseline="text-before-edge" font-size="14" fill="#e0dfdf" y="0" x="0">Week1</text><text transform="translate(183.68839645385742, 478.3333320617676) rotate(0)" text-anchor="middle" dominant-baseline="text-before-edge" font-size="14" fill="#e0dfdf" y="0" x="0">Week2</text><text transform="translate(265.57366371154785, 478.3333320617676) rotate(0)" text-anchor="middle" dominant-baseline="text-before-edge" font-size="14" fill="#e0dfdf" y="0" x="0">Week3</text><text transform="translate(347.4589309692383, 478.3333320617676) rotate(0)" text-anchor="middle" dominant-baseline="text-before-edge" font-size="14" fill="#e0dfdf" y="0" x="0">Week4</text><text transform="translate(429.3441982269287, 478.3333320617676) rotate(0)" text-anchor="middle" dominant-baseline="text-before-edge" font-size="14" fill="#e0dfdf" y="0" x="0">Week5</text><text transform="translate(511.22946548461914, 478.3333320617676) rotate(0)" text-anchor="middle" dominant-baseline="text-before-edge" font-size="14" fill="#e0dfdf" y="0" x="0">Week6</text><text transform="translate(593.1147327423096, 478.3333320617676) rotate(0)" text-anchor="middle" dominant-baseline="text-before-edge" font-size="14" fill="#e0dfdf" y="0" x="0">Week7</text><text transform="translate(675, 478.3333320617676) rotate(0)" text-anchor="middle" dominant-baseline="text-before-edge" font-size="14" fill="#e0dfdf" y="0" x="0">Week8</text></g><g class="ticks"><path stroke-width="2" stroke="#e0dfdf" fill="none" d="M 101.80312919616699,468.3333320617676 L 101.80312919616699,473.3333320617676"></path><path stroke-width="2" stroke="#e0dfdf" fill="none" d="M 183.68839645385742,468.3333320617676 L 183.68839645385742,473.3333320617676"></path><path stroke-width="2" stroke="#e0dfdf" fill="none" d="M 265.57366371154785,468.3333320617676 L 265.57366371154785,473.3333320617676"></path><path stroke-width="2" stroke="#e0dfdf" fill="none" d="M 347.4589309692383,468.3333320617676 L 347.4589309692383,473.3333320617676"></path><path stroke-width="2" stroke="#e0dfdf" fill="none" d="M 429.3441982269287,468.3333320617676 L 429.3441982269287,473.3333320617676"></path><path stroke-width="2" stroke="#e0dfdf" fill="none" d="M 511.22946548461914,468.3333320617676 L 511.22946548461914,473.3333320617676"></path><path stroke-width="2" stroke="#e0dfdf" fill="none" d="M 593.1147327423096,468.3333320617676 L 593.1147327423096,473.3333320617676"></path><path stroke-width="2" stroke="#e0dfdf" fill="none" d="M 675,468.3333320617676 L 675,473.3333320617676"></path></g></g><g class="left-axis"><g class="axisl-line"><path stroke-width="2" stroke="#e0dfdf" fill="none" d="M 75.80312919616699,43.33333396911621 L 75.80312919616699,466.3333320617676"></path></g><g class="label"><text transform="translate(64.80312919616699, 51.66666793823242) rotate(0)" text-anchor="end" dominant-baseline="middle" font-size="14" fill="#e0dfdf" y="0" x="0">6000</text><text transform="translate(64.80312919616699, 85.52777878443402) rotate(0)" text-anchor="end" dominant-baseline="middle" font-size="14" fill="#e0dfdf" y="0" x="0">5500</text><text transform="translate(64.80312919616699, 119.38888963063556) rotate(0)" text-anchor="end" dominant-baseline="middle" font-size="14" fill="#e0dfdf" y="0" x="0">5000</text><text transform="translate(64.80312919616699, 153.25000047683716) rotate(0)" text-anchor="end" dominant-baseline="middle" font-size="14" fill="#e0dfdf" y="0" x="0">4500</text><text transform="translate(64.80312919616699, 187.11111132303876) rotate(0)" text-anchor="end" dominant-baseline="middle" font-size="14" fill="#e0dfdf" y="0" x="0">4000</text><text transform="translate(64.80312919616699, 220.9722221692403) rotate(0)" text-anchor="end" dominant-baseline="middle" font-size="14" fill="#e0dfdf" y="0" x="0">3500</text><text transform="translate(64.80312919616699, 254.8333330154419) rotate(0)" text-anchor="end" dominant-baseline="middle" font-size="14" fill="#e0dfdf" y="0" x="0">3000</text><text transform="translate(64.80312919616699, 288.69444386164344) rotate(0)" text-anchor="end" dominant-baseline="middle" font-size="14" fill="#e0dfdf" y="0" x="0">2500</text><text transform="translate(64.80312919616699, 322.5555547078451) rotate(0)" text-anchor="end" dominant-baseline="middle" font-size="14" fill="#e0dfdf" y="0" x="0">2000</text><text transform="translate(64.80312919616699, 356.41666555404663) rotate(0)" text-anchor="end" dominant-baseline="middle" font-size="14" fill="#e0dfdf" y="0" x="0">1500</text><text transform="translate(64.80312919616699, 390.27777640024823) rotate(0)" text-anchor="end" dominant-baseline="middle" font-size="14" fill="#e0dfdf" y="0" x="0">1000</text><text transform="translate(64.80312919616699, 424.13888724644977) rotate(0)" text-anchor="end" dominant-baseline="middle" font-size="14" fill="#e0dfdf" y="0" x="0">500</text><text transform="translate(64.80312919616699, 457.99999809265137) rotate(0)" text-anchor="end" dominant-baseline="middle" font-size="14" fill="#e0dfdf" y="0" x="0">0</text></g><g class="ticks"><path stroke-width="2" stroke="#e0dfdf" fill="none" d="M 74.80312919616699,51.66666793823242 L 69.80312919616699,51.66666793823242"></path><path stroke-width="2" stroke="#e0dfdf" fill="none" d="M 74.80312919616699,85.52777878443402 L 69.80312919616699,85.52777878443402"></path><path stroke-width="2" stroke="#e0dfdf" fill="none" d="M 74.80312919616699,119.38888963063556 L 69.80312919616699,119.38888963063556"></path><path stroke-width="2" stroke="#e0dfdf" fill="none" d="M 74.80312919616699,153.25000047683716 L 69.80312919616699,153.25000047683716"></path><path stroke-width="2" stroke="#e0dfdf" fill="none" d="M 74.80312919616699,187.11111132303876 L 69.80312919616699,187.11111132303876"></path><path stroke-width="2" stroke="#e0dfdf" fill="none" d="M 74.80312919616699,220.9722221692403 L 69.80312919616699,220.9722221692403"></path><path stroke-width="2" stroke="#e0dfdf" fill="none" d="M 74.80312919616699,254.8333330154419 L 69.80312919616699,254.8333330154419"></path><path stroke-width="2" stroke="#e0dfdf" fill="none" d="M 74.80312919616699,288.69444386164344 L 69.80312919616699,288.69444386164344"></path><path stroke-width="2" stroke="#e0dfdf" fill="none" d="M 74.80312919616699,322.5555547078451 L 69.80312919616699,322.5555547078451"></path><path stroke-width="2" stroke="#e0dfdf" fill="none" d="M 74.80312919616699,356.41666555404663 L 69.80312919616699,356.41666555404663"></path><path stroke-width="2" stroke="#e0dfdf" fill="none" d="M 74.80312919616699,390.27777640024823 L 69.80312919616699,390.27777640024823"></path><path stroke-width="2" stroke="#e0dfdf" fill="none" d="M 74.80312919616699,424.13888724644977 L 69.80312919616699,424.13888724644977"></path><path stroke-width="2" stroke="#e0dfdf" fill="none" d="M 74.80312919616699,457.99999809265137 L 69.80312919616699,457.99999809265137"></path></g><g class="title"><text transform="translate(5, 254.8333330154419) rotate(270)" text-anchor="middle" dominant-baseline="text-before-edge" font-size="16" fill="#e0dfdf" y="0" x="0">.</text></g></g></g><g class="mermaid-tmp-group"></g></svg>