<?xml version="1.0" encoding="UTF-8"?>
<?xml-stylesheet href="https://cdnjs.cloudflare.com/ajax/libs/font-awesome/6.5.2/css/all.min.css" type="text/css"?>
<svg aria-roledescription="xychart" role="graphics-document document" viewBox="0 0 700 500" style="max-width: 100%;" xmlns="http://www.w3.org/2000/svg" width="100%" id="graph-div" height="100%" xmlns:xlink="http://www.w3.org/1999/xlink"><style>#graph-div{font-family:"trebuchet ms",verdana,arial,sans-serif;font-size:16px;fill:#ccc;}#graph-div .error-icon{fill:#a44141;}#graph-div .error-text{fill:#ddd;stroke:#ddd;}#graph-div .edge-thickness-normal{stroke-width:2px;}#graph-div .edge-thickness-thick{stroke-width:3.5px;}#graph-div .edge-pattern-solid{stroke-dasharray:0;}#graph-div .edge-pattern-dashed{stroke-dasharray:3;}#graph-div .edge-pattern-dotted{stroke-dasharray:2;}#graph-div .marker{fill:lightgrey;stroke:lightgrey;}#graph-div .marker.cross{stroke:lightgrey;}#graph-div svg{font-family:"trebuchet ms",verdana,arial,sans-serif;font-size:16px;}#graph-div :root{--mermaid-font-family:"trebuchet ms",verdana,arial,sans-serif;}</style><g></g><g class="main"><rect fill="#333" class="background" height="500" width="700"></rect><g class="chart-title"><text transform="translate(350, 21.666666984558105) rotate(0)" text-anchor="middle" dominant-baseline="middle" font-size="20" fill="#e0dfdf" y="0" x="0">Example: Capacity</text></g><g class="plot"><g class="line-plot-0"><path stroke-width="2" stroke="#3498db" fill="none" d="M69.168,254.833L156.251,254.833L243.333,187.111L330.416,187.111L417.498,254.833L504.581,254.833L591.663,254.833L678.746,254.833"></path></g><g class="line-plot-1"><path stroke-width="2" stroke="#2ecc71" fill="none" d="M69.168,254.833L156.251,187.111L243.333,187.111L330.416,119.389L417.498,254.833L504.581,187.111L591.663,119.389L678.746,254.833"></path></g><g class="line-plot-2"><path stroke-width="2" stroke="#e74c3c" fill="none" d="M69.168,119.389L156.251,119.389L243.333,119.389L330.416,119.389L417.498,119.389L504.581,119.389L591.663,119.389L678.746,119.389"></path></g></g><g class="bottom-axis"><g class="axis-line"><path stroke-width="2" stroke="#e0dfdf" fill="none" d="M 47.91423988342285,467.3333320617676 L 700,467.3333320617676"></path></g><g class="label"><text transform="translate(69.16824150085449, 478.3333320617676) rotate(0)" text-anchor="middle" dominant-baseline="text-before-edge" font-size="14" fill="#e0dfdf" y="0" x="0">Week1</text><text transform="translate(156.2507781982422, 478.3333320617676) rotate(0)" text-anchor="middle" dominant-baseline="text-before-edge" font-size="14" fill="#e0dfdf" y="0" x="0">Week2</text><text transform="translate(243.33331489562988, 478.3333320617676) rotate(0)" text-anchor="middle" dominant-baseline="text-before-edge" font-size="14" fill="#e0dfdf" y="0" x="0">Week3</text><text transform="translate(330.4158515930176, 478.3333320617676) rotate(0)" text-anchor="middle" dominant-baseline="text-before-edge" font-size="14" fill="#e0dfdf" y="0" x="0">Week4</text><text transform="translate(417.4983882904053, 478.3333320617676) rotate(0)" text-anchor="middle" dominant-baseline="text-before-edge" font-size="14" fill="#e0dfdf" y="0" x="0">Week5</text><text transform="translate(504.58092498779297, 478.3333320617676) rotate(0)" text-anchor="middle" dominant-baseline="text-before-edge" font-size="14" fill="#e0dfdf" y="0" x="0">Week6</text><text transform="translate(591.6634616851807, 478.3333320617676) rotate(0)" text-anchor="middle" dominant-baseline="text-before-edge" font-size="14" fill="#e0dfdf" y="0" x="0">Week7</text><text transform="translate(678.7459983825684, 478.3333320617676) rotate(0)" text-anchor="middle" dominant-baseline="text-before-edge" font-size="14" fill="#e0dfdf" y="0" x="0">Week8</text></g><g class="ticks"><path stroke-width="2" stroke="#e0dfdf" fill="none" d="M 69.16824150085449,468.3333320617676 L 69.16824150085449,473.3333320617676"></path><path stroke-width="2" stroke="#e0dfdf" fill="none" d="M 156.2507781982422,468.3333320617676 L 156.2507781982422,473.3333320617676"></path><path stroke-width="2" stroke="#e0dfdf" fill="none" d="M 243.33331489562988,468.3333320617676 L 243.33331489562988,473.3333320617676"></path><path stroke-width="2" stroke="#e0dfdf" fill="none" d="M 330.4158515930176,468.3333320617676 L 330.4158515930176,473.3333320617676"></path><path stroke-width="2" stroke="#e0dfdf" fill="none" d="M 417.4983882904053,468.3333320617676 L 417.4983882904053,473.3333320617676"></path><path stroke-width="2" stroke="#e0dfdf" fill="none" d="M 504.58092498779297,468.3333320617676 L 504.58092498779297,473.3333320617676"></path><path stroke-width="2" stroke="#e0dfdf" fill="none" d="M 591.6634616851807,468.3333320617676 L 591.6634616851807,473.3333320617676"></path><path stroke-width="2" stroke="#e0dfdf" fill="none" d="M 678.7459983825684,468.3333320617676 L 678.7459983825684,473.3333320617676"></path></g></g><g class="left-axis"><g class="axisl-line"><path stroke-width="2" stroke="#e0dfdf" fill="none" d="M 46.91423988342285,43.33333396911621 L 46.91423988342285,466.3333320617676"></path></g><g class="label"><text transform="translate(35.91423988342285, 51.66666793823242) rotate(0)" text-anchor="end" dominant-baseline="middle" font-size="14" fill="#e0dfdf" y="0" x="0">6000</text><text transform="translate(35.91423988342285, 85.52777878443402) rotate(0)" text-anchor="end" dominant-baseline="middle" font-size="14" fill="#e0dfdf" y="0" x="0">5500</text><text transform="translate(35.91423988342285, 119.38888963063556) rotate(0)" text-anchor="end" dominant-baseline="middle" font-size="14" fill="#e0dfdf" y="0" x="0">5000</text><text transform="translate(35.91423988342285, 153.25000047683716) rotate(0)" text-anchor="end" dominant-baseline="middle" font-size="14" fill="#e0dfdf" y="0" x="0">4500</text><text transform="translate(35.91423988342285, 187.11111132303876) rotate(0)" text-anchor="end" dominant-baseline="middle" font-size="14" fill="#e0dfdf" y="0" x="0">4000</text><text transform="translate(35.91423988342285, 220.9722221692403) rotate(0)" text-anchor="end" dominant-baseline="middle" font-size="14" fill="#e0dfdf" y="0" x="0">3500</text><text transform="translate(35.91423988342285, 254.8333330154419) rotate(0)" text-anchor="end" dominant-baseline="middle" font-size="14" fill="#e0dfdf" y="0" x="0">3000</text><text transform="translate(35.91423988342285, 288.69444386164344) rotate(0)" text-anchor="end" dominant-baseline="middle" font-size="14" fill="#e0dfdf" y="0" x="0">2500</text><text transform="translate(35.91423988342285, 322.5555547078451) rotate(0)" text-anchor="end" dominant-baseline="middle" font-size="14" fill="#e0dfdf" y="0" x="0">2000</text><text transform="translate(35.91423988342285, 356.41666555404663) rotate(0)" text-anchor="end" dominant-baseline="middle" font-size="14" fill="#e0dfdf" y="0" x="0">1500</text><text transform="translate(35.91423988342285, 390.27777640024823) rotate(0)" text-anchor="end" dominant-baseline="middle" font-size="14" fill="#e0dfdf" y="0" x="0">1000</text><text transform="translate(35.91423988342285, 424.13888724644977) rotate(0)" text-anchor="end" dominant-baseline="middle" font-size="14" fill="#e0dfdf" y="0" x="0">500</text><text transform="translate(35.91423988342285, 457.99999809265137) rotate(0)" text-anchor="end" dominant-baseline="middle" font-size="14" fill="#e0dfdf" y="0" x="0">0</text></g><g class="ticks"><path stroke-width="2" stroke="#e0dfdf" fill="none" d="M 45.91423988342285,51.66666793823242 L 40.91423988342285,51.66666793823242"></path><path stroke-width="2" stroke="#e0dfdf" fill="none" d="M 45.91423988342285,85.52777878443402 L 40.91423988342285,85.52777878443402"></path><path stroke-width="2" stroke="#e0dfdf" fill="none" d="M 45.91423988342285,119.38888963063556 L 40.91423988342285,119.38888963063556"></path><path stroke-width="2" stroke="#e0dfdf" fill="none" d="M 45.91423988342285,153.25000047683716 L 40.91423988342285,153.25000047683716"></path><path stroke-width="2" stroke="#e0dfdf" fill="none" d="M 45.91423988342285,187.11111132303876 L 40.91423988342285,187.11111132303876"></path><path stroke-width="2" stroke="#e0dfdf" fill="none" d="M 45.91423988342285,220.9722221692403 L 40.91423988342285,220.9722221692403"></path><path stroke-width="2" stroke="#e0dfdf" fill="none" d="M 45.91423988342285,254.8333330154419 L 40.91423988342285,254.8333330154419"></path><path stroke-width="2" stroke="#e0dfdf" fill="none" d="M 45.91423988342285,288.69444386164344 L 40.91423988342285,288.69444386164344"></path><path stroke-width="2" stroke="#e0dfdf" fill="none" d="M 45.91423988342285,322.5555547078451 L 40.91423988342285,322.5555547078451"></path><path stroke-width="2" stroke="#e0dfdf" fill="none" d="M 45.91423988342285,356.41666555404663 L 40.91423988342285,356.41666555404663"></path><path stroke-width="2" stroke="#e0dfdf" fill="none" d="M 45.91423988342285,390.27777640024823 L 40.91423988342285,390.27777640024823"></path><path stroke-width="2" stroke="#e0dfdf" fill="none" d="M 45.91423988342285,424.13888724644977 L 40.91423988342285,424.13888724644977"></path><path stroke-width="2" stroke="#e0dfdf" fill="none" d="M 45.91423988342285,457.99999809265137 L 40.91423988342285,457.99999809265137"></path></g></g></g><g class="mermaid-tmp-group"></g></svg>