<svg width="1617" height="1738" xmlns="http://www.w3.org/2000/svg" xmlns:xlink="http://www.w3.org/1999/xlink" xml:space="preserve" overflow="hidden"><defs><clipPath id="clip0"><rect x="1684" y="369" width="1617" height="1738"/></clipPath></defs><g clip-path="url(#clip0)" transform="translate(-1684 -369)"><rect x="1688.5" y="373.5" width="1604" height="1729" stroke="#FFFFFF" stroke-width="9.16667" stroke-miterlimit="8" fill="#262626"/><path d="M0 0 1592.11 0.000360892" stroke="#FFFFFF" stroke-width="9.16667" stroke-linejoin="round" stroke-miterlimit="10" fill="none" fill-rule="evenodd" transform="matrix(-1 0 0 1 3300.61 1235.5)"/><path d="M1952.5 1020.5C2008.24 1017.8 2061.56 1016.57 2092.09 1020.5 2122.62 1024.43 2216.6 1021.43 2249.5 1020.5 2253.6 1046.15 2246.63 1082.71 2249.5 1125.5 2212.92 1122.9 2172.44 1131.66 2106.94 1125.5 2041.44 1119.34 2002.18 1130.12 1952.5 1125.5 1957.43 1097.15 1947.73 1071.07 1952.5 1020.5Z" fill="#EBEBEB" fill-rule="evenodd"/><path d="M1952.5 1020.5C2019.88 1016.32 2024.66 1026.36 2092.09 1020.5 2159.52 1014.64 2215.45 1014.5 2249.5 1020.5 2253.13 1044.06 2254.3 1102.71 2249.5 1125.5 2204.75 1125.62 2170.86 1119.97 2098.03 1125.5 2025.2 1131.03 2001.07 1123.9 1952.5 1125.5 1950.05 1091.89 1954.45 1054.61 1952.5 1020.5Z" stroke="#FFFFFF" stroke-width="3.4375" stroke-miterlimit="8" fill="none" fill-rule="evenodd"/><text font-family="Arial,Arial_MSFontService,sans-serif" font-weight="400" font-size="37" transform="matrix(1 0 0 1 1989.91 1087)">Industry Core</text><path d="M2714.5 1036.5C2770.43 1033.8 2823.93 1032.57 2854.56 1036.5 2885.19 1040.43 2979.49 1037.43 3012.5 1036.5 3016.62 1062.15 3009.62 1098.71 3012.5 1141.5 2975.8 1138.9 2935.18 1147.66 2869.46 1141.5 2803.74 1135.34 2764.35 1146.12 2714.5 1141.5 2719.45 1113.15 2709.72 1087.07 2714.5 1036.5Z" stroke="#999999" stroke-width="3.4375" stroke-miterlimit="8" fill="none" fill-rule="evenodd"/><text fill="#BFBFBF" font-family="Arial,Arial_MSFontService,sans-serif" font-weight="400" font-size="37" transform="matrix(1 0 0 1 2795.83 1081)">Network </text><text fill="#BFBFBF" font-family="Arial,Arial_MSFontService,sans-serif" font-weight="400" font-size="37" transform="matrix(1 0 0 1 2754.58 1125)">Infrastructure</text><path d="M1748.5 707.5C1804.24 704.797 1857.56 703.567 1888.09 707.5 1918.62 711.433 2012.6 708.429 2045.5 707.5 2049.6 733.145 2042.63 769.706 2045.5 812.5 2008.92 809.898 1968.44 818.66 1902.94 812.5 1837.44 806.341 1798.18 817.121 1748.5 812.5 1753.43 784.154 1743.73 758.068 1748.5 707.5Z" stroke="#999999" stroke-width="3.4375" stroke-miterlimit="8" fill="none" fill-rule="evenodd"/><text fill="#BFBFBF" font-family="Arial,Arial_MSFontService,sans-serif" font-weight="400" font-size="37" transform="matrix(1 0 0 1 1780.31 751)">Backend Data </text><text fill="#BFBFBF" font-family="Arial,Arial_MSFontService,sans-serif" font-weight="400" font-size="37" transform="matrix(1 0 0 1 1837.9 795)">Source</text><path d="M3127.5 726.5C3126.59 716.499 3138.76 707.397 3149 707.5 3161.48 708.168 3173.35 717.409 3170.5 726.5 3172.43 738.422 3159.8 746.627 3149 745.5 3137.77 745.973 3127.43 736.592 3127.5 726.5Z" stroke="#999999" stroke-width="3.4375" stroke-miterlimit="8" fill="none" fill-rule="evenodd"/><path d="M3148.5 745.5C3146.93 773.109 3146.82 782.224 3148.5 802.464" stroke="#999999" stroke-width="3.4375" stroke-miterlimit="8" fill="none" fill-rule="evenodd"/><path d="M0 0C1.74836 9.22129 7.13195 26.7765 11.6417 37.6284" stroke="#999999" stroke-width="3.4375" stroke-miterlimit="8" fill="none" fill-rule="evenodd" transform="matrix(-1 0 0 1 3149.14 796.5)"/><path d="M3148.5 796.5C3152.01 805.042 3158.53 818.324 3169.97 834.128" stroke="#999999" stroke-width="3.4375" stroke-miterlimit="8" fill="none" fill-rule="evenodd"/><path d="M3148.5 767.5C3154.76 768.338 3170.51 773.703 3176.98 774.159" stroke="#999999" stroke-width="3.4375" stroke-miterlimit="8" fill="none" fill-rule="evenodd"/><path d="M0 0C10.4769 3.4853 15.9677 4.33972 24.039 6.65919" stroke="#999999" stroke-width="3.4375" stroke-miterlimit="8" fill="none" fill-rule="evenodd" transform="matrix(-1 0 0 1 3148.54 767.5)"/><text fill="#BFBFBF" font-family="Arial,Arial_MSFontService,sans-serif" font-weight="400" font-size="28" transform="matrix(1 0 0 1 3078.59 854)">Consumer </text><text fill="#BFBFBF" font-family="Arial,Arial_MSFontService,sans-serif" font-weight="400" font-size="28" transform="matrix(1 0 0 1 3113.24 887)">User</text><path d="M3141.08 844.571 3131.16 829.155 3135.02 826.674 3144.94 842.091ZM3123.72 817.593 3113.8 802.177 3117.65 799.696 3127.57 815.112ZM3106.36 790.615 3096.43 775.199 3100.29 772.718 3110.21 788.134ZM3088.99 763.637 3079.07 748.221 3082.92 745.74 3092.85 761.156ZM3071.63 736.659 3061.7 721.242 3065.56 718.762 3075.48 734.178ZM3054.26 709.68 3044.34 694.264 3048.19 691.784 3058.12 707.2ZM3036.9 682.702 3026.98 667.286 3030.83 664.806 3040.75 680.222ZM3019.53 655.724 3009.61 640.308 3013.47 637.827 3023.39 653.243ZM3002.17 628.746 2992.25 613.33 2996.1 610.849 3006.02 626.265ZM2984.81 601.768 2974.88 586.352 2978.74 583.871 2988.66 599.287ZM2967.44 574.79 2957.52 559.374 2961.37 556.893 2971.3 572.309ZM2950.08 547.812 2940.15 532.395 2944.01 529.915 2953.93 545.331ZM2930.82 539.066 2927.5 508.5 2953.95 524.182Z" fill="#999999"/><path d="M1.08036-2.02103 17.2486 6.62185 15.0879 10.6639-1.08036 2.02103ZM29.3748 13.104 45.543 21.7469 43.3823 25.7889 27.2141 17.1461ZM57.6692 28.229 73.8374 36.8719 71.6767 40.914 55.5085 32.2711ZM85.9636 43.3541 102.132 51.9969 99.9711 56.039 83.8029 47.3961ZM114.258 58.4791 130.426 67.122 128.266 71.164 112.097 62.5212ZM142.552 73.6041 158.721 82.247 156.56 86.2891 140.392 77.6462ZM170.847 88.7292 187.015 97.372 184.854 101.414 168.686 92.7712ZM199.141 103.854 215.309 112.497 213.149 116.539 196.981 107.896ZM227.436 118.979 243.068 127.336 240.907 131.378 225.275 123.021ZM244.427 115.07 262.198 140.16 231.463 139.322Z" fill="#FFFFFF" transform="matrix(1 0 0 -1 2100.5 1020.66)"/><path d="M2512.15 930.302 2529.73 935.488 2528.44 939.884 2510.85 934.698ZM2542.92 939.378 2560.51 944.564 2559.21 948.96 2541.62 943.774ZM2573.69 948.454 2591.28 953.64 2589.98 958.036 2572.4 952.85ZM2604.47 957.53 2622.05 962.716 2620.75 967.112 2603.17 961.926ZM2635.24 966.606 2652.82 971.792 2651.53 976.188 2633.94 971.002ZM2666.01 975.682 2683.6 980.868 2682.3 985.264 2664.72 980.078ZM2696.79 984.758 2714.37 989.944 2713.07 994.34 2695.49 989.154ZM2727.56 993.834 2745.14 999.02 2743.85 1003.42 2726.26 998.23ZM2758.33 1002.91 2775.92 1008.1 2774.62 1012.49 2757.03 1007.31ZM2789.1 1011.99 2806.69 1017.17 2805.39 1021.57 2787.81 1016.38ZM2819.88 1021.06 2837.46 1026.25 2836.16 1030.64 2818.58 1025.46ZM2840.67 1015.25 2863.16 1036.22 2832.89 1041.63Z" fill="#FFFFFF"/><path d="M1898.74 812.024 1902.55 829.957 1898.07 830.91 1894.26 812.976ZM1905.41 843.407 1909.22 861.341 1904.73 862.293 1900.92 844.36ZM1912.07 874.791 1915.88 892.724 1911.4 893.676 1907.59 875.743ZM1918.74 906.174 1922.55 924.107 1918.06 925.059 1914.25 907.126ZM1925.4 937.557 1929.21 955.491 1924.73 956.443 1920.92 938.509ZM1932.07 968.941 1935.88 986.874 1931.39 987.826 1927.59 969.893ZM1938.73 1000.32 1942.54 1018.26 1938.06 1019.21 1934.25 1001.28ZM1945.4 1031.71 1949.21 1049.64 1944.73 1050.59 1940.92 1032.66ZM1959.58 1043.31 1951.84 1073.07 1932.68 1049.03Z" fill="#FFFFFF"/><path d="M2034.5 1425.5C2122 1422.48 2178.77 1430.42 2239.1 1425.5 2299.43 1420.58 2370.24 1421.6 2443.7 1425.5 2517.16 1429.4 2611.55 1433.03 2666.9 1425.5 2722.25 1417.97 2840.56 1438.1 2964.5 1425.5 2967.21 1483.97 2956.76 1532.16 2964.5 1585.61 2972.24 1639.07 2967.02 1696.67 2964.5 1755.95 2961.98 1815.22 2970.36 1849.17 2964.5 1936.5 2896.7 1925.66 2791.86 1940.92 2732 1936.5 2672.14 1932.08 2584.71 1931.31 2490.2 1936.5 2395.69 1941.69 2371.64 1943.27 2285.6 1936.5 2199.56 1929.73 2151.73 1943.9 2034.5 1936.5 2038.49 1872.17 2041.77 1838.28 2034.5 1761.06 2027.23 1683.83 2026.05 1626.98 2034.5 1580.5 2042.95 1534.03 2035.16 1485.16 2034.5 1425.5Z" fill="#EBEBEB" fill-rule="evenodd"/><path d="M2034.5 1425.5C2122.03 1433.69 2200.88 1423.63 2248.4 1425.5 2295.92 1427.37 2376.7 1429.65 2453 1425.5 2529.3 1421.35 2620.76 1424.1 2676.2 1425.5 2731.64 1426.9 2872.77 1411.59 2964.5 1425.5 2970.47 1509.67 2968.96 1524.77 2964.5 1606.05 2960.04 1687.33 2959.99 1709.28 2964.5 1776.39 2969.01 1843.5 2962.78 1859.89 2964.5 1936.5 2885.53 1934.22 2854.13 1944.34 2759.9 1936.5 2665.67 1928.66 2571.84 1938.93 2508.8 1936.5 2445.76 1934.07 2354.04 1935.37 2294.9 1936.5 2235.76 1937.63 2108.62 1948.63 2034.5 1936.5 2030.72 1890.88 2035.74 1854.29 2034.5 1781.5 2033.26 1708.7 2029.16 1678.24 2034.5 1606.05 2039.84 1533.87 2027.9 1510.23 2034.5 1425.5Z" stroke="#FFFFFF" stroke-width="3.4375" stroke-miterlimit="8" fill="none" fill-rule="evenodd"/><text font-family="Arial,Arial_MSFontService,sans-serif" font-weight="400" font-size="41" transform="matrix(1 0 0 1 2066.43 1491)">Whitebox Industry Core</text><path d="M2279.62 668.641 2286.5 685.635 2282.25 687.355 2275.38 670.36ZM2291.66 698.382 2298.53 715.377 2294.29 717.096 2287.41 700.101ZM2303.69 728.123 2310.57 745.118 2306.32 746.837 2299.44 729.842ZM2315.73 757.864 2322.6 774.859 2318.35 776.578 2311.48 759.583ZM2327.76 787.605 2334.64 804.6 2330.39 806.319 2323.51 789.324ZM2339.79 817.346 2346.67 834.341 2342.42 836.06 2335.54 819.065ZM2351.83 847.087 2356.37 858.318 2352.12 860.037 2347.58 848.806ZM2365.27 849.772 2362.84 880.422 2339.78 860.086Z" fill="#FFFFFF"/><path d="M2.1962-0.65457 7.43275 16.915 3.04036 18.2241-2.1962 0.65457ZM11.3602 30.0922 16.5967 47.6617 12.2043 48.9709 6.96778 31.4013ZM20.5241 60.8389 25.7607 78.4085 21.3683 79.7176 16.1318 62.148ZM29.6881 91.5856 34.9247 109.155 30.5323 110.464 25.2957 92.8948ZM38.8521 122.332 44.0886 139.902 39.6962 141.211 34.4597 123.642ZM48.0161 153.079 53.2526 170.649 48.8602 171.958 43.6237 154.388ZM57.18 183.826 62.4166 201.395 58.0242 202.705 52.7876 185.135ZM66.344 214.573 71.5806 232.142 67.1882 233.451 61.9516 215.882ZM75.508 245.319 80.7445 262.889 76.3521 264.198 71.1156 246.628ZM84.6719 276.066 89.9085 293.636 85.5161 294.945 80.2796 277.375ZM100.03 287.477 94.7072 317.759 73.6752 295.332Z" fill="#FFFFFF" transform="matrix(-1 0 0 1 2195.21 702.5)"/><path d="M2977.5 1480.5C3034.57 1485.4 3046.16 1476.16 3113 1480.5 3179.84 1484.84 3185.76 1483.64 3248.5 1480.5 3247.6 1506.12 3248.61 1549.71 3248.5 1606.5 3201.83 1609.63 3160.73 1609.17 3118.42 1606.5 3076.11 1603.83 3019.32 1610.93 2977.5 1606.5 2976.99 1545.73 2980.72 1509.33 2977.5 1480.5Z" stroke="#999999" stroke-width="3.4375" stroke-miterlimit="8" fill="none" fill-rule="evenodd"/><text fill="#BFBFBF" font-family="Arial,Arial_MSFontService,sans-serif" font-weight="400" font-size="32" transform="matrix(1 0 0 1 3052.88 1536)">Provider </text><text fill="#BFBFBF" font-family="Arial,Arial_MSFontService,sans-serif" font-weight="400" font-size="32" transform="matrix(1 0 0 1 3017.36 1575)">Infrastructure</text><path d="M0.816168-2.1414 17.9474 4.38795 16.3151 8.67075-0.816168 2.1414ZM30.7958 9.28496 47.927 15.8143 46.2947 20.0971 29.1635 13.5678ZM60.7754 20.7113 77.9067 27.2407 76.2743 31.5235 59.1431 24.9941ZM90.7551 32.1377 107.886 38.667 106.254 42.9498 89.1227 36.4205ZM120.735 43.564 129.452 46.8864 127.819 51.1692 119.102 47.8468ZM129.25 34.5471 150.05 57.1895 119.456 60.2439Z" fill="#FFFFFF" transform="matrix(-1 0 0 1 2195.55 702.5)"/><path d="M1723.5 1562.5C1761.35 1564.47 1794.13 1557.7 1846.64 1562.5 1899.15 1567.3 1929.56 1567.79 1985.5 1562.5 1979.98 1602.29 1991.1 1633.12 1985.5 1687.5 1952.58 1687.78 1909.42 1687.85 1859.74 1687.5 1810.06 1687.15 1773.34 1690.45 1723.5 1687.5 1723.69 1637.23 1719.95 1605.07 1723.5 1562.5Z" stroke="#999999" stroke-width="3.4375" stroke-miterlimit="8" fill="none" fill-rule="evenodd"/><text fill="#BFBFBF" font-family="Arial,Arial_MSFontService,sans-serif" font-weight="400" font-size="32" transform="matrix(1 0 0 1 1791.72 1617)">Backend </text><text fill="#BFBFBF" font-family="Arial,Arial_MSFontService,sans-serif" font-weight="400" font-size="32" transform="matrix(1 0 0 1 1764.79 1656)">Data Source</text><path d="M2778.5 403.5C2834.43 400.797 2887.93 399.567 2918.56 403.5 2949.19 407.433 3043.49 404.429 3076.5 403.5 3080.62 429.145 3073.62 465.706 3076.5 508.5 3039.8 505.898 2999.18 514.659 2933.46 508.5 2867.74 502.34 2828.35 513.121 2778.5 508.5 2783.45 480.154 2773.72 454.068 2778.5 403.5Z" stroke="#999999" stroke-width="3.4375" stroke-miterlimit="8" fill="none" fill-rule="evenodd"/><text fill="#BFBFBF" font-family="Arial,Arial_MSFontService,sans-serif" font-weight="400" font-size="37" transform="matrix(1 0 0 1 2842.17 448)">Consumer </text><text fill="#BFBFBF" font-family="Arial,Arial_MSFontService,sans-serif" font-weight="400" font-size="37" transform="matrix(1 0 0 1 2894 492)">App</text><path d="M1.46647-1.76102 15.5546 9.97076 12.6217 13.4928-1.46647 1.76102ZM26.1208 18.7696 40.2089 30.5014 37.276 34.0234 23.1878 22.2916ZM50.7751 39.3002 64.8632 51.032 61.9303 54.554 47.8421 42.8222ZM75.4294 59.8308 89.5175 71.5626 86.5846 75.0846 72.4964 63.3528ZM100.084 80.3614 114.172 92.0932 111.239 95.6152 97.1507 83.8835ZM124.738 100.892 138.826 112.624 135.893 116.146 121.805 104.414ZM149.392 121.423 163.48 133.154 160.547 136.676 146.459 124.945ZM174.047 141.953 188.135 153.685 185.202 157.207 171.114 145.475ZM198.701 162.484 212.789 174.216 209.856 177.738 195.768 166.006ZM223.355 183.014 237.443 194.746 234.51 198.268 220.422 186.536ZM248.009 203.545 262.098 215.277 259.165 218.799 245.077 207.067ZM272.664 224.076 286.752 235.807 283.819 239.329 269.731 227.598ZM297.318 244.606 311.406 256.338 308.473 259.86 294.385 248.128ZM321.972 265.137 336.061 276.869 333.128 280.391 319.039 268.659ZM346.627 285.667 360.715 297.399 357.782 300.921 343.694 289.189ZM371.281 306.198 385.369 317.93 382.436 321.452 368.348 309.72ZM395.935 326.729 410.023 338.46 407.09 341.982 393.002 330.251ZM420.59 347.259 434.678 358.991 431.745 362.513 417.657 350.781ZM445.244 367.79 459.332 379.522 456.399 383.044 442.311 371.312ZM469.898 388.32 483.986 400.052 481.053 403.574 466.965 391.843ZM494.552 408.851 508.641 420.583 505.708 424.105 491.619 412.373ZM519.207 429.382 533.295 441.114 530.362 444.636 516.274 432.904ZM543.861 449.912 557.949 461.644 555.016 465.166 540.928 453.434ZM568.515 470.443 582.603 482.175 579.67 485.697 565.582 473.965ZM593.17 490.974 607.258 502.705 604.325 506.227 590.237 494.496ZM617.824 511.504 631.912 523.236 628.979 526.758 614.891 515.026ZM642.478 532.035 656.566 543.767 653.633 547.289 639.545 535.557ZM665.329 536.152 677.662 564.316 647.731 557.285Z" fill="#999999" transform="matrix(-1 0 0 1 2927.16 508.5)"/><path d="M2363.5 827.5C2419.24 824.797 2472.56 823.567 2503.09 827.5 2533.62 831.433 2627.6 828.429 2660.5 827.5 2664.6 853.145 2657.63 889.706 2660.5 932.5 2623.92 929.898 2583.44 938.66 2517.94 932.5 2452.44 926.341 2413.18 937.121 2363.5 932.5 2368.43 904.154 2358.73 878.068 2363.5 827.5Z" fill="#262626" fill-rule="evenodd"/><path d="M2363.5 827.5C2430.88 823.324 2435.66 833.363 2503.09 827.5 2570.52 821.637 2626.45 821.498 2660.5 827.5 2664.13 851.055 2665.3 909.711 2660.5 932.5 2615.75 932.617 2581.86 926.967 2509.03 932.5 2436.2 938.033 2412.07 930.895 2363.5 932.5 2361.05 898.893 2365.45 861.611 2363.5 827.5Z" stroke="#999999" stroke-width="3.4375" stroke-miterlimit="8" fill="none" fill-rule="evenodd"/><text fill="#BFBFBF" font-family="Arial,Arial_MSFontService,sans-serif" font-weight="400" font-size="37" transform="matrix(1 0 0 1 2443.03 872)">Provider </text><text fill="#BFBFBF" font-family="Arial,Arial_MSFontService,sans-serif" font-weight="400" font-size="37" transform="matrix(1 0 0 1 2402.93 916)">Infrastructure</text><path d="M2476.35 1717.37 2493.38 1724.17 2491.68 1728.42 2474.65 1721.63ZM2506.15 1729.26 2523.18 1736.06 2521.48 1740.31 2504.45 1733.52ZM2535.95 1741.15 2552.97 1747.95 2551.27 1752.21 2534.25 1745.41ZM2565.74 1753.04 2582.77 1759.84 2581.07 1764.1 2564.05 1757.3ZM2595.54 1764.94 2612.57 1771.73 2610.87 1775.99 2593.84 1769.19ZM2625.34 1776.83 2642.37 1783.62 2640.67 1787.88 2623.64 1781.08ZM2655.14 1788.72 2666.67 1793.32 2664.98 1797.58 2653.44 1792.97ZM2666.66 1780.98 2687.11 1803.94 2656.47 1806.52Z"/><path d="M0.758404-2.16254 18.0587 3.9047 16.5419 8.22977-0.758404 2.16254ZM31.0339 8.45512 48.3342 14.5224 46.8174 18.8474 29.5171 12.7802ZM61.3094 19.0728 78.6097 25.14 77.0929 29.4651 59.7926 23.3978ZM91.5849 29.6904 108.885 35.7577 107.368 40.0827 90.0681 34.0155ZM121.86 40.3081 139.161 46.3753 137.644 50.7004 120.344 44.6332ZM152.136 50.9258 169.436 56.993 167.919 61.3181 150.619 55.2508ZM182.411 61.5434 199.712 67.6106 198.195 71.9357 180.895 65.8685ZM212.687 72.1611 229.987 78.2283 228.47 82.5534 211.17 76.4861ZM242.962 82.7787 260.263 88.846 258.746 93.171 241.446 87.1038ZM273.238 93.3964 290.538 99.4636 289.021 103.789 271.721 97.7215ZM303.513 104.014 320.814 110.081 319.297 114.406 301.997 108.339ZM333.789 114.632 351.089 120.699 349.572 125.024 332.272 118.957ZM364.064 125.249 381.365 131.317 379.848 135.642 362.547 129.574ZM394.34 135.867 411.64 141.934 410.123 146.259 392.823 140.192ZM424.615 146.485 441.916 152.552 440.399 156.877 423.098 150.81ZM454.891 157.102 472.191 163.17 470.674 167.495 453.374 161.427ZM480.598 153.975 501.998 176.051 471.497 179.926Z" transform="matrix(1 0 0 -1 2475.5 1719.55)"/><path d="M1.47362-1.75505 15.514 10.0339 12.5667 13.544-1.47362 1.75505ZM26.0443 18.8756 40.0846 30.6646 37.1374 34.1746 23.097 22.3857ZM50.6149 39.5063 64.6553 51.2952 61.708 54.8053 47.6677 43.0164ZM75.1855 60.1369 89.2259 71.9259 86.2787 75.436 72.2383 63.647ZM99.7562 80.7676 113.797 92.5565 110.849 96.0666 96.8089 84.2777ZM124.327 101.398 138.367 113.187 135.42 116.697 121.38 104.908ZM148.897 122.029 155.134 127.265 152.187 130.775 145.95 125.539ZM158.992 115.543 171.211 143.756 141.308 136.603Z" transform="matrix(1 0 0 -1 2806.5 1687.26)"/><rect x="2684" y="1687" width="238" height="124" fill="#DAF7CB"/><text font-family="Arial,Arial_MSFontService,sans-serif" font-weight="400" font-size="23" transform="matrix(1 0 0 1 2721.09 1709)">specificAssetIds</text><rect x="2687" y="1811" width="238" height="109" fill="#FFEFC9"/><text font-family="Arial,Arial_MSFontService,sans-serif" font-weight="400" font-size="23" transform="matrix(1 0 0 1 2724.06 1915)">specificAssetIds</text><path d="M2687.5 1687.5C2778.44 1698.32 2867.7 1695.34 2925.5 1687.5 2937.03 1760.84 2925.45 1828.12 2925.5 1920.5 2813.83 1928.83 2748.77 1928.47 2687.5 1920.5 2676.04 1848.32 2697.42 1797.85 2687.5 1687.5Z" stroke="#000000" stroke-width="3.4375" stroke-miterlimit="8" fill="none" fill-rule="evenodd"/><text font-family="Arial,Arial_MSFontService,sans-serif" font-weight="400" font-size="32" transform="matrix(1 0 0 1 2723.77 1796)">Digital Twin </text><text font-family="Arial,Arial_MSFontService,sans-serif" font-weight="400" font-size="32" transform="matrix(1 0 0 1 2747.26 1835)">Registry</text><rect x="2234" y="1557" width="238" height="161" fill="#DAF7CB"/><text font-family="Arial,Arial_MSFontService,sans-serif" font-weight="400" font-size="23" transform="matrix(1 0 0 1 2323.74 1579)">Batch</text><text font-family="Arial,Arial_MSFontService,sans-serif" font-weight="400" font-size="23" transform="matrix(1 0 0 1 2302.82 1607)">SerialPart</text><text font-family="Arial,Arial_MSFontService,sans-serif" font-weight="400" font-size="23" transform="matrix(1 0 0 1 2318.01 1634)">JisPart</text><text font-family="Arial,Arial_MSFontService,sans-serif" font-weight="400" font-size="23" transform="matrix(1 0 0 1 2293.65 1662)">BomAsBuilt</text><rect x="2237" y="1718" width="238" height="164" fill="#FFEFC9"/><text font-family="Arial,Arial_MSFontService,sans-serif" font-weight="400" font-size="23" transform="matrix(1 0 0 1 2279.84 1821)">PartAsPlanned</text><text font-family="Arial,Arial_MSFontService,sans-serif" font-weight="400" font-size="23" transform="matrix(1 0 0 1 2277.25 1849)">BomAsPlanned</text><path d="M2237.5 1556.5C2326.1 1557.52 2378.32 1555.08 2475.5 1556.5 2474.12 1608.49 2479.23 1656.89 2475.5 1710.19 2471.77 1763.49 2477.34 1811.31 2475.5 1883.5 2408.89 1893.54 2301.16 1889.42 2237.5 1883.5 2232.54 1825.62 2236.51 1771.08 2237.5 1723.27 2238.49 1675.46 2229.45 1606.7 2237.5 1556.5Z" stroke="#000000" stroke-width="3.4375" stroke-miterlimit="8" fill="none" fill-rule="evenodd"/><text font-family="Arial,Arial_MSFontService,sans-serif" font-weight="400" font-size="32" transform="matrix(1 0 0 1 2278.68 1712)">Submodel</text><text font-family="Arial,Arial_MSFontService,sans-serif" font-weight="400" font-size="32" transform="matrix(1 0 0 1 2422.48 1712)">-</text><text font-family="Arial,Arial_MSFontService,sans-serif" font-weight="400" font-size="32" transform="matrix(1 0 0 1 2322.22 1751)">APIs</text><path d="M2236.93 1721.51 2219.77 1715.06 2221.38 1710.77 2238.54 1717.22ZM2206.9 1710.22 2189.74 1703.76 2191.35 1699.47 2208.51 1705.93ZM2176.87 1698.92 2159.71 1692.47 2161.32 1688.18 2178.48 1694.63ZM2146.84 1687.63 2129.68 1681.17 2131.29 1676.88 2148.45 1683.34ZM2116.81 1676.33 2099.65 1669.88 2101.26 1665.59 2118.42 1672.04ZM2086.78 1665.04 2069.62 1658.59 2071.23 1654.3 2088.39 1660.75ZM2056.75 1653.75 2039.59 1647.29 2041.2 1643 2058.36 1649.46ZM2026.72 1642.45 2009.56 1636 2011.17 1631.71 2028.33 1638.16ZM2006.4 1647.05 1985.5 1624.5 2016.08 1621.31Z"/><path d="M0.720739-2.17538 18.1238 3.59053 16.6823 7.94129-0.720739 2.17538ZM31.176 7.91497 48.5791 13.6809 47.1376 18.0316 29.7346 12.2657ZM61.6313 18.0053 79.0344 23.7712 77.5929 28.122 60.1899 22.3561ZM92.0866 28.0957 109.49 33.8616 108.048 38.2123 90.6452 32.4464ZM122.542 38.186 139.945 43.9519 138.503 48.3027 121.1 42.5368ZM152.997 48.2764 170.4 54.0423 168.959 58.393 151.556 52.6271ZM183.453 58.3667 200.856 64.1326 199.414 68.4834 182.011 62.7175ZM213.908 68.4571 231.311 74.223 229.869 78.5737 212.466 72.8078ZM244.363 78.5474 261.766 84.3133 260.325 88.6641 242.922 82.8982ZM274.818 88.6377 292.221 94.4037 290.78 98.7544 273.377 92.9885ZM305.274 98.7281 322.677 104.494 321.235 108.845 303.832 103.079ZM335.729 108.818 353.132 114.584 351.691 118.935 334.288 113.169ZM366.184 118.909 375.467 121.984 374.025 126.335 364.743 123.26ZM374.72 109.666 396.5 131.367 366.071 135.77Z" transform="matrix(-1 0 0 1 2750 1426.5)"/><path d="M2751.74 1426.02 2755.62 1443.93 2751.14 1444.9 2747.26 1426.98ZM2758.53 1457.37 2762.41 1475.29 2757.93 1476.26 2754.05 1458.34ZM2765.32 1488.73 2769.19 1506.65 2764.71 1507.62 2760.84 1489.7ZM2772.1 1520.09 2775.98 1538 2771.5 1538.97 2767.62 1521.06ZM2778.89 1551.44 2782.77 1569.36 2778.29 1570.33 2774.41 1552.41ZM2785.68 1582.8 2789.56 1600.72 2785.08 1601.69 2781.2 1583.77ZM2792.47 1614.16 2796.34 1632.08 2791.86 1633.05 2787.99 1615.13ZM2799.25 1645.52 2803.13 1663.43 2798.65 1664.4 2794.77 1646.48ZM2813.66 1657.9 2806.04 1687.69 2786.78 1663.72Z"/><text font-family="Arial,Arial_MSFontService,sans-serif" font-weight="400" font-size="23" transform="matrix(1 0 0 1 2680.5 1462)">&lt;setup&gt;</text><text font-family="Arial,Arial_MSFontService,sans-serif" font-weight="400" font-size="23" transform="matrix(1 0 0 1 2543.11 1730)">&lt;register&gt;</text><text font-family="Arial,Arial_MSFontService,sans-serif" font-weight="400" font-size="23" transform="matrix(1 0 0 1 2091.22 1653)">&lt;expose&gt;</text><rect x="1723.5" y="2039.5" width="202" height="30" stroke="#D9D9D9" stroke-width="6.875" stroke-miterlimit="8" fill="#DAF7CB"/><text font-family="Arial,Arial_MSFontService,sans-serif" font-weight="400" font-size="23" transform="matrix(1 0 0 1 1758.86 2062)">part instance</text><rect x="1723.5" y="1967.5" width="203" height="30.9999" stroke="#D9D9D9" stroke-width="6.875" stroke-miterlimit="8" fill="#FFEFC9"/><text font-family="Arial,Arial_MSFontService,sans-serif" font-weight="400" font-size="23" transform="matrix(1 0 0 1 1780.22 1991)">part type</text><text fill="#BFBFBF" font-family="Arial,Arial_MSFontService,sans-serif" font-weight="400" font-size="37" transform="matrix(1 0 0 1 2641.48 639)">Consumer </text><text fill="#BFBFBF" font-family="Arial,Arial_MSFontService,sans-serif" font-weight="400" font-size="37" transform="matrix(1 0 0 1 2617.7 683)">Infrastructure</text><path d="M1952 1125 2034.28 1424.41" stroke="#FFFFFF" stroke-width="2.29167" stroke-linejoin="round" stroke-miterlimit="10" stroke-dasharray="18.3333 6.875" fill="none" fill-rule="evenodd"/><path d="M2249 1133 2961.41 1431.13" stroke="#FFFFFF" stroke-width="2.29167" stroke-linejoin="round" stroke-miterlimit="10" stroke-dasharray="18.3333 6.875" fill="none" fill-rule="evenodd"/><path d="M2727.5 1272.5C2727.5 1264.22 2733.32 1257.5 2740.5 1257.5 2747.68 1257.5 2753.5 1264.22 2753.5 1272.5 2753.5 1280.78 2747.68 1287.5 2740.5 1287.5 2733.32 1287.5 2727.5 1280.78 2727.5 1272.5Z" stroke="#FFFFFF" stroke-width="4.58333" stroke-miterlimit="8" fill="none" fill-rule="evenodd"/><path d="M2740.5 1287.5 2740.5 1332.02" stroke="#FFFFFF" stroke-width="4.58333" stroke-miterlimit="8" fill="none" fill-rule="evenodd"/><path d="M0 0 7.10886 29.4066" stroke="#FFFFFF" stroke-width="4.58333" stroke-linejoin="round" stroke-miterlimit="10" fill="none" fill-rule="evenodd" transform="matrix(-1 0 0 1 2740.61 1326.5)"/><path d="M2740.5 1326.5 2753.61 1355.91" stroke="#FFFFFF" stroke-width="4.58333" stroke-linejoin="round" stroke-miterlimit="10" fill="none" fill-rule="evenodd"/><path d="M2740.5 1304.5 2757.89 1309.7" stroke="#FFFFFF" stroke-width="4.58333" stroke-linejoin="round" stroke-miterlimit="10" fill="none" fill-rule="evenodd"/><path d="M0 0 14.6789 5.20407" stroke="#FFFFFF" stroke-width="4.58333" stroke-miterlimit="8" fill="none" fill-rule="evenodd" transform="matrix(-1 0 0 1 2740.18 1304.5)"/><text fill="#FFFFFF" font-family="Arial,Arial_MSFontService,sans-serif" font-weight="400" font-size="28" transform="matrix(1 0 0 1 2697.89 1386)">Provider</text><text fill="#FFFFFF" font-family="Arial,Arial_MSFontService,sans-serif" font-weight="400" font-size="28" transform="matrix(1 0 0 1 2668.1 1419)">Administrator</text><path d="M2173.5 548.5C2173.5 540.216 2179.32 533.5 2186.5 533.5 2193.68 533.5 2199.5 540.216 2199.5 548.5 2199.5 556.784 2193.68 563.5 2186.5 563.5 2179.32 563.5 2173.5 556.784 2173.5 548.5Z" stroke="#FFFFFF" stroke-width="4.58333" stroke-miterlimit="8" fill="none" fill-rule="evenodd"/><path d="M2186.5 563.5 2186.5 608.017" stroke="#FFFFFF" stroke-width="4.58333" stroke-miterlimit="8" fill="none" fill-rule="evenodd"/><path d="M0 0 7.10886 29.4066" stroke="#FFFFFF" stroke-width="4.58333" stroke-linejoin="round" stroke-miterlimit="10" fill="none" fill-rule="evenodd" transform="matrix(-1 0 0 1 2186.61 603.5)"/><path d="M2186.5 603.5 2199.61 632.907" stroke="#FFFFFF" stroke-width="4.58333" stroke-linejoin="round" stroke-miterlimit="10" fill="none" fill-rule="evenodd"/><path d="M2186.5 580.5 2203.89 585.704" stroke="#FFFFFF" stroke-width="4.58333" stroke-linejoin="round" stroke-miterlimit="10" fill="none" fill-rule="evenodd"/><path d="M0 0 14.6789 5.20407" stroke="#FFFFFF" stroke-width="4.58333" stroke-miterlimit="8" fill="none" fill-rule="evenodd" transform="matrix(-1 0 0 1 2186.18 580.5)"/><text fill="#FFFFFF" font-family="Arial,Arial_MSFontService,sans-serif" font-weight="400" font-size="28" transform="matrix(1 0 0 1 2143.63 663)">Provider</text><text fill="#FFFFFF" font-family="Arial,Arial_MSFontService,sans-serif" font-weight="400" font-size="28" transform="matrix(1 0 0 1 2113.83 696)">Administrator</text></g></svg>