<!DOCTYPE svg PUBLIC "-//W3C//DTD SVG 1.1//EN" "http://www.w3.org/Graphics/SVG/1.1/DTD/svg11.dtd">
<!-- Uploaded to: SVG Repo, www.svgrepo.com, Transformed by: SVG Repo Mixer Tools -->
<svg fill="#ffffff" height="800px" width="800px" version="1.1" id="Layer_1" xmlns="http://www.w3.org/2000/svg" xmlns:xlink="http://www.w3.org/1999/xlink" viewBox="0 0 512 512" xml:space="preserve">
<g id="SVGRepo_bgCarrier" stroke-width="0"/>
<g id="SVGRepo_tracerCarrier" stroke-linecap="round" stroke-linejoin="round"/>
<g id="SVGRepo_iconCarrier"> <g> <g> <path d="M434.863,126.093V77.137h-48.956V0h-33.391v77.137h-42.083V0h-33.391v77.137h-42.083V0h-33.391v77.137h-42.083V0h-33.391 v77.137H77.137v48.956H0v33.391h77.137v42.083H0v33.391h77.137v42.083H0v33.391h77.137v42.083H0v33.391h77.137v48.956h48.956V512 h33.391v-77.137h42.083V512h33.391v-77.137h42.083V512h33.391v-77.137h42.083V512h33.391v-77.137h48.956v-48.956H512v-33.391 h-77.137v-42.083H512v-33.391h-77.137v-42.083H512v-33.391h-77.137v-42.083H512v-33.39H434.863z M375.773,282.469 c0,23.125-14.251,42.974-34.428,51.253c-1.38,26.928-23.721,48.411-50.986,48.411c-13.221,0-25.283-5.052-34.36-13.325 c-9.077,8.273-21.139,13.325-34.36,13.325c-27.265,0-49.606-21.483-50.986-48.411c-20.177-8.28-34.428-28.129-34.428-51.253 c0-9.366,2.351-18.428,6.742-26.478c-4.296-7.867-6.742-16.883-6.742-26.459c0-22.913,14.194-42.903,34.426-51.239 c1.373-26.935,23.718-48.426,50.987-48.426c13.221,0,25.283,5.052,34.36,13.325c9.077-8.273,21.139-13.325,34.36-13.325 c27.27,0,49.615,21.491,50.987,48.426c20.234,8.336,34.426,28.326,34.426,51.239c0,9.577-2.445,18.593-6.742,26.459 C373.423,264.042,375.773,273.104,375.773,282.469z"/> </g> </g> <g> <g> <path d="M221.64,163.258c-9.739,0-17.664,7.924-17.664,17.664c0,7.327,4.606,13.978,11.461,16.549l-11.727,31.264 c-9.613-3.606-17.688-9.991-23.463-18.021c-6.38,3.879-10.631,10.911-10.631,18.817c0,12.127,9.866,21.993,21.992,21.993v33.391 c-7.773,0-15.174-1.617-21.895-4.521c-0.065,0.687-0.098,1.379-0.098,2.076c0,12.127,9.865,21.992,21.992,21.992 c6.29,0,12.081-2.57,16.308-7.237l24.749,22.417c-7.484,8.263-17.258,13.992-27.914,16.604 c2.215,7.227,8.947,12.497,16.889,12.497c9.74,0,17.664-7.924,17.664-17.664V180.922 C239.304,171.182,231.381,163.258,221.64,163.258z"/> </g> </g> <g> <g> <path d="M320.391,284.915v-33.391c12.127,0,21.993-9.866,21.993-21.993c0-7.907-4.251-14.939-10.631-18.817 c-5.774,8.031-13.85,14.415-23.463,18.021l-11.727-31.264c6.855-2.571,11.461-9.222,11.461-16.549 c0-9.74-7.924-17.664-17.664-17.664c-9.74,0-17.664,7.924-17.664,17.664v150.156c0,9.74,7.924,17.664,17.664,17.664 c7.943,0,14.673-5.271,16.889-12.497c-10.656-2.612-20.43-8.341-27.914-16.604l24.749-22.417 c4.226,4.667,10.018,7.237,16.307,7.237c12.127,0,21.993-9.866,21.993-21.992c0-0.697-0.033-1.389-0.098-2.076 C335.565,283.297,328.164,284.915,320.391,284.915z"/> </g> </g> </g>
</svg>