<?xml version="1.0" encoding="us-ascii" standalone="no"?><svg xmlns="http://www.w3.org/2000/svg" xmlns:xlink="http://www.w3.org/1999/xlink" contentStyleType="text/css" height="1294px" preserveAspectRatio="none" style="width:1315px;height:1294px;background:#FFFFFF;" version="1.1" viewBox="0 0 1315 1294" width="1315px" zoomAndPan="magnify"><defs/><g><rect fill="#DDDDDD" height="1282.9063" style="stroke:#181818;stroke-width:0.5;" width="663" x="1" y="6"/><text fill="#000000" font-family="sans-serif" font-size="13" font-weight="bold" lengthAdjust="spacing" textLength="52" x="306.5" y="18.0669">Sender</text><rect fill="#DDDDDD" height="1282.9063" style="stroke:#181818;stroke-width:0.5;" width="492" x="817" y="6"/><text fill="#000000" font-family="sans-serif" font-size="13" font-weight="bold" lengthAdjust="spacing" textLength="64" x="1031" y="18.0669">Receiver</text><rect fill="#FFFFFF" height="28" style="stroke:#181818;stroke-width:1.0;" width="10" x="94" y="338.7563"/><rect fill="#FFFFFF" height="742.3219" style="stroke:#181818;stroke-width:1.0;" width="10" x="377" y="494.2875"/><rect fill="#FFFFFF" height="28" style="stroke:#181818;stroke-width:1.0;" width="10" x="382" y="622.8188"/><rect fill="#FFFFFF" height="29.1328" style="stroke:#181818;stroke-width:1.0;" width="10" x="633" y="556.5531"/><rect fill="#FFFFFF" height="29.1328" style="stroke:#181818;stroke-width:1.0;" width="10" x="633" y="780.6156"/><rect fill="#FFFFFF" height="29.1328" style="stroke:#181818;stroke-width:1.0;" width="10" x="633" y="838.8813"/><rect fill="#FFFFFF" height="309.8625" style="stroke:#181818;stroke-width:1.0;" width="10" x="633" y="897.1469"/><rect fill="#FFFFFF" height="62.2656" style="stroke:#181818;stroke-width:1.0;" width="10" x="735.5" y="402.8891"/><rect fill="#FFFFFF" height="29.1328" style="stroke:#181818;stroke-width:1.0;" width="10" x="838" y="257.3578"/><rect fill="#FFFFFF" height="217.9969" style="stroke:#181818;stroke-width:1.0;" width="10" x="838" y="959.4125"/><rect fill="#FFFFFF" height="126.1313" style="stroke:#181818;stroke-width:1.0;" width="10" x="1206" y="1021.6781"/><line style="stroke:#181818;stroke-width:0.5;stroke-dasharray:5.0,5.0;" x1="99" x2="99" y1="56.4297" y2="1254.6094"/><line style="stroke:#181818;stroke-width:0.5;stroke-dasharray:5.0,5.0;" x1="382" x2="382" y1="56.4297" y2="1254.6094"/><line style="stroke:#181818;stroke-width:0.5;stroke-dasharray:5.0,5.0;" x1="638" x2="638" y1="56.4297" y2="1254.6094"/><line style="stroke:#181818;stroke-width:0.5;stroke-dasharray:5.0,5.0;" x1="740" x2="740" y1="56.4297" y2="1254.6094"/><line style="stroke:#181818;stroke-width:0.5;stroke-dasharray:5.0,5.0;" x1="843" x2="843" y1="56.4297" y2="1254.6094"/><line style="stroke:#181818;stroke-width:0.5;stroke-dasharray:5.0,5.0;" x1="1211" x2="1211" y1="56.4297" y2="1254.6094"/><rect fill="#E2E2F0" height="30.2969" rx="2.5" ry="2.5" style="stroke:#181818;stroke-width:0.5;" width="188" x="5" y="25.1328"/><text fill="#000000" font-family="sans-serif" font-size="14" lengthAdjust="spacing" textLength="174" x="12" y="45.1279">Some (Traceability) App</text><rect fill="#E2E2F0" height="30.2969" rx="2.5" ry="2.5" style="stroke:#181818;stroke-width:0.5;" width="188" x="5" y="1253.6094"/><text fill="#000000" font-family="sans-serif" font-size="14" lengthAdjust="spacing" textLength="174" x="12" y="1273.6046">Some (Traceability) App</text><rect fill="#E2E2F0" height="30.2969" rx="2.5" ry="2.5" style="stroke:#181818;stroke-width:0.5;" width="196" x="284" y="25.1328"/><text fill="#000000" font-family="sans-serif" font-size="14" lengthAdjust="spacing" textLength="182" x="291" y="45.1279">Notification EDC Adapter</text><rect fill="#E2E2F0" height="30.2969" rx="2.5" ry="2.5" style="stroke:#181818;stroke-width:0.5;" width="196" x="284" y="1253.6094"/><text fill="#000000" font-family="sans-serif" font-size="14" lengthAdjust="spacing" textLength="182" x="291" y="1273.6046">Notification EDC Adapter</text><rect fill="#E2E2F0" height="30.2969" rx="2.5" ry="2.5" style="stroke:#181818;stroke-width:0.5;" width="44" x="616" y="25.1328"/><text fill="#000000" font-family="sans-serif" font-size="14" lengthAdjust="spacing" textLength="30" x="623" y="45.1279">EDC</text><rect fill="#E2E2F0" height="30.2969" rx="2.5" ry="2.5" style="stroke:#181818;stroke-width:0.5;" width="44" x="616" y="1253.6094"/><text fill="#000000" font-family="sans-serif" font-size="14" lengthAdjust="spacing" textLength="30" x="623" y="1273.6046">EDC</text><rect fill="#E2E2F0" height="30.2969" rx="2.5" ry="2.5" style="stroke:#181818;stroke-width:0.5;" width="141" x="670" y="25.1328"/><text fill="#000000" font-family="sans-serif" font-size="14" lengthAdjust="spacing" textLength="127" x="677" y="45.1279">Discovery Service</text><rect fill="#E2E2F0" height="30.2969" rx="2.5" ry="2.5" style="stroke:#181818;stroke-width:0.5;" width="141" x="670" y="1253.6094"/><text fill="#000000" font-family="sans-serif" font-size="14" lengthAdjust="spacing" textLength="127" x="677" y="1273.6046">Discovery Service</text><rect fill="#E2E2F0" height="30.2969" rx="2.5" ry="2.5" style="stroke:#181818;stroke-width:0.5;" width="44" x="821" y="25.1328"/><text fill="#000000" font-family="sans-serif" font-size="14" lengthAdjust="spacing" textLength="30" x="828" y="45.1279">EDC</text><rect fill="#E2E2F0" height="30.2969" rx="2.5" ry="2.5" style="stroke:#181818;stroke-width:0.5;" width="44" x="821" y="1253.6094"/><text fill="#000000" font-family="sans-serif" font-size="14" lengthAdjust="spacing" textLength="30" x="828" y="1273.6046">EDC</text><rect fill="#E2E2F0" height="30.2969" rx="2.5" ry="2.5" style="stroke:#181818;stroke-width:0.5;" width="188" x="1117" y="25.1328"/><text fill="#000000" font-family="sans-serif" font-size="14" lengthAdjust="spacing" textLength="174" x="1124" y="45.1279">Some (Traceability) App</text><rect fill="#E2E2F0" height="30.2969" rx="2.5" ry="2.5" style="stroke:#181818;stroke-width:0.5;" width="188" x="1117" y="1253.6094"/><text fill="#000000" font-family="sans-serif" font-size="14" lengthAdjust="spacing" textLength="174" x="1124" y="1273.6046">Some (Traceability) App</text><rect fill="#FFFFFF" height="28" style="stroke:#181818;stroke-width:1.0;" width="10" x="94" y="338.7563"/><rect fill="#FFFFFF" height="742.3219" style="stroke:#181818;stroke-width:1.0;" width="10" x="377" y="494.2875"/><rect fill="#FFFFFF" height="28" style="stroke:#181818;stroke-width:1.0;" width="10" x="382" y="622.8188"/><rect fill="#FFFFFF" height="29.1328" style="stroke:#181818;stroke-width:1.0;" width="10" x="633" y="556.5531"/><rect fill="#FFFFFF" height="29.1328" style="stroke:#181818;stroke-width:1.0;" width="10" x="633" y="780.6156"/><rect fill="#FFFFFF" height="29.1328" style="stroke:#181818;stroke-width:1.0;" width="10" x="633" y="838.8813"/><rect fill="#FFFFFF" height="309.8625" style="stroke:#181818;stroke-width:1.0;" width="10" x="633" y="897.1469"/><rect fill="#FFFFFF" height="62.2656" style="stroke:#181818;stroke-width:1.0;" width="10" x="735.5" y="402.8891"/><rect fill="#FFFFFF" height="29.1328" style="stroke:#181818;stroke-width:1.0;" width="10" x="838" y="257.3578"/><rect fill="#FFFFFF" height="217.9969" style="stroke:#181818;stroke-width:1.0;" width="10" x="838" y="959.4125"/><rect fill="#FFFFFF" height="126.1313" style="stroke:#181818;stroke-width:1.0;" width="10" x="1206" y="1021.6781"/><rect fill="#FEFFDD" height="129" style="stroke:#181818;stroke-width:0.5;" width="227" x="387" y="71.4297"/><text fill="#000000" font-family="sans-serif" font-size="13" lengthAdjust="spacing" textLength="213" x="391" y="87.4966">Not mandatory as the interaction</text><text fill="#000000" font-family="sans-serif" font-size="13" lengthAdjust="spacing" textLength="219" x="391" y="102.6294">with the EDC can be implemented</text><text fill="#000000" font-family="sans-serif" font-size="13" lengthAdjust="spacing" textLength="187" x="391" y="117.7622">also in the (Traceability) App.</text><text fill="#000000" font-family="sans-serif" font-size="13" lengthAdjust="spacing" textLength="4" x="391" y="132.895">&#160;</text><text fill="#000000" font-family="sans-serif" font-size="13" lengthAdjust="spacing" textLength="202" x="391" y="148.0278">However, a similar functionality</text><text fill="#000000" font-family="sans-serif" font-size="13" lengthAdjust="spacing" textLength="126" x="391" y="163.1606">(e.g., fetch catalog)</text><text fill="#000000" font-family="sans-serif" font-size="13" lengthAdjust="spacing" textLength="178" x="391" y="178.2935">- as shown below - must be</text><text fill="#000000" font-family="sans-serif" font-size="13" lengthAdjust="spacing" textLength="60" x="391" y="193.4263">provided.</text><polygon fill="#181818" points="859,253.3578,849,257.3578,859,261.3578,855,257.3578" style="stroke:#181818;stroke-width:1.0;"/><line style="stroke:#181818;stroke-width:1.0;" x1="853" x2="1210" y1="257.3578" y2="257.3578"/><text fill="#000000" font-family="sans-serif" font-size="13" font-weight="bold" lengthAdjust="spacing" textLength="31" x="865" y="236.9255">[01]</text><text fill="#000000" font-family="sans-serif" font-size="13" lengthAdjust="spacing" textLength="136" x="900" y="221.5591">Create EDC Asset for</text><text fill="#000000" font-family="sans-serif" font-size="13" lengthAdjust="spacing" textLength="191" x="900" y="236.6919">"Quality Investigation Update"</text><text fill="#000000" font-family="sans-serif" font-size="13" lengthAdjust="spacing" textLength="27" x="900" y="252.2919">with</text><text fill="#000000" font-family="monospace" font-size="13" lengthAdjust="spacing" textLength="88" x="931" y="251.7958">DataAddress</text><text fill="#000000" font-family="sans-serif" font-size="13" lengthAdjust="spacing" textLength="15" x="1023" y="252.2919">as</text><text fill="#000000" font-family="monospace" font-size="13" lengthAdjust="spacing" textLength="72" x="1042" y="251.7958">HTTP&#160;POST</text><text fill="#000000" font-family="sans-serif" font-size="13" lengthAdjust="spacing" textLength="56" x="1118" y="252.2919">endpoint</text><polygon fill="#181818" points="1199,282.4906,1209,286.4906,1199,290.4906,1203,286.4906" style="stroke:#181818;stroke-width:1.0;"/><line style="stroke:#181818;stroke-width:1.0;stroke-dasharray:2.0,2.0;" x1="843" x2="1205" y1="286.4906" y2="286.4906"/><text fill="#000000" font-family="sans-serif" font-size="13" font-weight="bold" lengthAdjust="spacing" textLength="31" x="850" y="281.4247">[02]</text><text fill="#000000" font-family="sans-serif" font-size="13" lengthAdjust="spacing" textLength="18" x="885" y="281.4247">OK</text><line style="stroke:#181818;stroke-width:1.0;" x1="104" x2="146" y1="330.7563" y2="330.7563"/><line style="stroke:#181818;stroke-width:1.0;" x1="146" x2="146" y1="330.7563" y2="343.7563"/><line style="stroke:#181818;stroke-width:1.0;" x1="105" x2="146" y1="343.7563" y2="343.7563"/><polygon fill="#181818" points="115,339.7563,105,343.7563,115,347.7563,111,343.7563" style="stroke:#181818;stroke-width:1.0;"/><text fill="#000000" font-family="sans-serif" font-size="13" font-weight="bold" lengthAdjust="spacing" textLength="30" x="111" y="318.1239">[03]</text><text fill="#000000" font-family="sans-serif" font-size="13" lengthAdjust="spacing" textLength="125" x="145" y="310.5575">Change Notification</text><text fill="#000000" font-family="sans-serif" font-size="13" lengthAdjust="spacing" textLength="235" x="145" y="325.6903">(e.g., Status according Status Model)</text><polygon fill="#181818" points="723.5,398.8891,733.5,402.8891,723.5,406.8891,727.5,402.8891" style="stroke:#181818;stroke-width:1.0;"/><line style="stroke:#181818;stroke-width:1.0;" x1="99" x2="729.5" y1="402.8891" y2="402.8891"/><text fill="#000000" font-family="sans-serif" font-size="13" font-weight="bold" lengthAdjust="spacing" textLength="31" x="106" y="397.8232">[04]</text><text fill="#000000" font-family="sans-serif" font-size="13" lengthAdjust="spacing" textLength="142" x="141" y="397.8232">Resolve EDC Endpoint</text><rect fill="#FEFFDD" height="23" style="stroke:#181818;stroke-width:0.5;" width="397" x="104" y="415.8891"/><text fill="#000000" font-family="sans-serif" font-size="13" lengthAdjust="spacing" textLength="389" x="108" y="431.956">BPN of supply chain partner (as given in existing notification)</text><polygon fill="#181818" points="110,461.1547,100,465.1547,110,469.1547,106,465.1547" style="stroke:#181818;stroke-width:1.0;"/><line style="stroke:#181818;stroke-width:1.0;stroke-dasharray:2.0,2.0;" x1="104" x2="739.5" y1="465.1547" y2="465.1547"/><text fill="#000000" font-family="sans-serif" font-size="13" font-weight="bold" lengthAdjust="spacing" textLength="31" x="116" y="460.0888">[05]</text><text fill="#000000" font-family="sans-serif" font-size="13" lengthAdjust="spacing" textLength="18" x="151" y="460.0888">OK</text><polygon fill="#181818" points="365,490.2875,375,494.2875,365,498.2875,369,494.2875" style="stroke:#181818;stroke-width:1.0;"/><line style="stroke:#181818;stroke-width:1.0;" x1="99" x2="371" y1="494.2875" y2="494.2875"/><text fill="#000000" font-family="sans-serif" font-size="13" font-weight="bold" lengthAdjust="spacing" textLength="31" x="106" y="489.2216">[06]</text><text fill="#000000" font-family="sans-serif" font-size="13" lengthAdjust="spacing" textLength="108" x="141" y="489.2216">Send Notification</text><text fill="#000000" font-family="sans-serif" font-size="13" font-weight="bold" lengthAdjust="spacing" textLength="54" x="253" y="489.2216">Update</text><rect fill="#FEFFDD" height="23" style="stroke:#181818;stroke-width:0.5;" width="192" x="104" y="507.2875"/><text fill="#000000" font-family="sans-serif" font-size="13" lengthAdjust="spacing" textLength="184" x="108" y="523.3544">Payload as described above.</text><polygon fill="#181818" points="621,552.5531,631,556.5531,621,560.5531,625,556.5531" style="stroke:#181818;stroke-width:1.0;"/><line style="stroke:#181818;stroke-width:1.0;" x1="387" x2="627" y1="556.5531" y2="556.5531"/><text fill="#000000" font-family="sans-serif" font-size="13" font-weight="bold" lengthAdjust="spacing" textLength="31" x="394" y="551.4872">[07]</text><text fill="#000000" font-family="sans-serif" font-size="13" lengthAdjust="spacing" textLength="88" x="429" y="551.4872">Fetch Catalog</text><polygon fill="#181818" points="649,581.686,639,585.686,649,589.686,645,585.686" style="stroke:#181818;stroke-width:1.0;"/><polygon fill="#181818" points="831,581.686,841,585.686,831,589.686,835,585.686" style="stroke:#181818;stroke-width:1.0;"/><line style="stroke:#181818;stroke-width:1.0;stroke-dasharray:2.0,2.0;" x1="643" x2="837" y1="585.686" y2="585.686"/><text fill="#000000" font-family="sans-serif" font-size="13" font-weight="bold" lengthAdjust="spacing" textLength="31" x="655" y="580.62">[08]</text><text fill="#000000" font-family="sans-serif" font-size="13" lengthAdjust="spacing" textLength="88" x="690" y="580.62">Fetch Catalog</text><line style="stroke:#181818;stroke-width:1.0;" x1="392" x2="434" y1="614.8188" y2="614.8188"/><line style="stroke:#181818;stroke-width:1.0;" x1="434" x2="434" y1="614.8188" y2="627.8188"/><line style="stroke:#181818;stroke-width:1.0;" x1="393" x2="434" y1="627.8188" y2="627.8188"/><polygon fill="#181818" points="403,623.8188,393,627.8188,403,631.8188,399,627.8188" style="stroke:#181818;stroke-width:1.0;"/><text fill="#000000" font-family="sans-serif" font-size="13" font-weight="bold" lengthAdjust="spacing" textLength="31" x="399" y="609.7528">[09]</text><text fill="#000000" font-family="sans-serif" font-size="13" lengthAdjust="spacing" textLength="156" x="434" y="609.7528">Find and Select Contract</text><rect fill="#FEFFDD" height="83" style="stroke:#181818;stroke-width:0.5;" width="384" x="392" y="670.8188"/><text fill="#000000" font-family="sans-serif" font-size="13" lengthAdjust="spacing" textLength="228" x="396" y="686.8857">Find the correct contract offer with:</text><text fill="#000000" font-family="sans-serif" font-size="13" lengthAdjust="spacing" textLength="4" x="396" y="702.0185">&#160;</text><text fill="#000000" font-family="sans-serif" font-size="13" lengthAdjust="spacing" textLength="82" x="396" y="717.1513">"dct:type": {</text><text fill="#000000" font-family="sans-serif" font-size="13" lengthAdjust="spacing" textLength="352" x="420" y="732.2841">"@id": "cx-taxo:UpdateQualityInvestigationNotification"</text><text fill="#000000" font-family="sans-serif" font-size="13" lengthAdjust="spacing" textLength="14" x="412" y="747.4169">}"</text><polygon fill="#181818" points="621,776.6156,631,780.6156,621,784.6156,625,780.6156" style="stroke:#181818;stroke-width:1.0;"/><line style="stroke:#181818;stroke-width:1.0;" x1="387" x2="627" y1="780.6156" y2="780.6156"/><text fill="#000000" font-family="sans-serif" font-size="13" font-weight="bold" lengthAdjust="spacing" textLength="31" x="394" y="775.5497">[10]</text><text fill="#000000" font-family="sans-serif" font-size="13" lengthAdjust="spacing" textLength="192" x="429" y="775.5497">Intiatiate Contract Negotiation</text><polygon fill="#181818" points="649,805.7485,639,809.7485,649,813.7485,645,809.7485" style="stroke:#181818;stroke-width:1.0;"/><polygon fill="#181818" points="831,805.7485,841,809.7485,831,813.7485,835,809.7485" style="stroke:#181818;stroke-width:1.0;"/><line style="stroke:#181818;stroke-width:1.0;stroke-dasharray:2.0,2.0;" x1="643" x2="837" y1="809.7485" y2="809.7485"/><text fill="#000000" font-family="sans-serif" font-size="13" font-weight="bold" lengthAdjust="spacing" textLength="30" x="655" y="804.6825">[11]</text><text fill="#000000" font-family="sans-serif" font-size="13" lengthAdjust="spacing" textLength="132" x="689" y="804.6825">Contract Negotiation</text><polygon fill="#181818" points="621,834.8813,631,838.8813,621,842.8813,625,838.8813" style="stroke:#181818;stroke-width:1.0;"/><line style="stroke:#181818;stroke-width:1.0;" x1="387" x2="627" y1="838.8813" y2="838.8813"/><text fill="#000000" font-family="sans-serif" font-size="13" font-weight="bold" lengthAdjust="spacing" textLength="30" x="394" y="833.8153">[12]</text><text fill="#000000" font-family="sans-serif" font-size="13" lengthAdjust="spacing" textLength="141" x="428" y="833.8153">Inititate Data Transfer</text><polygon fill="#181818" points="649,864.0141,639,868.0141,649,872.0141,645,868.0141" style="stroke:#181818;stroke-width:1.0;"/><polygon fill="#181818" points="831,864.0141,841,868.0141,831,872.0141,835,868.0141" style="stroke:#181818;stroke-width:1.0;"/><line style="stroke:#181818;stroke-width:1.0;stroke-dasharray:2.0,2.0;" x1="643" x2="837" y1="868.0141" y2="868.0141"/><text fill="#000000" font-family="sans-serif" font-size="13" font-weight="bold" lengthAdjust="spacing" textLength="29" x="655" y="862.9482">[13]</text><text fill="#000000" font-family="sans-serif" font-size="13" lengthAdjust="spacing" textLength="113" x="688" y="862.9482">Establish Channel</text><polygon fill="#181818" points="621,893.1469,631,897.1469,621,901.1469,625,897.1469" style="stroke:#181818;stroke-width:1.0;"/><line style="stroke:#181818;stroke-width:1.0;" x1="387" x2="627" y1="897.1469" y2="897.1469"/><text fill="#000000" font-family="sans-serif" font-size="13" font-weight="bold" lengthAdjust="spacing" textLength="30" x="394" y="892.081">[14]</text><text fill="#000000" font-family="sans-serif" font-size="13" lengthAdjust="spacing" textLength="95" x="428" y="892.081">POST /public/...</text><rect fill="#FEFFDD" height="23" style="stroke:#181818;stroke-width:0.5;" width="192" x="392" y="910.1469"/><text fill="#000000" font-family="sans-serif" font-size="13" lengthAdjust="spacing" textLength="184" x="396" y="926.2138">Payload as described above.</text><polygon fill="#181818" points="826,955.4125,836,959.4125,826,963.4125,830,959.4125" style="stroke:#181818;stroke-width:1.0;"/><line style="stroke:#181818;stroke-width:1.0;" x1="643" x2="832" y1="959.4125" y2="959.4125"/><text fill="#000000" font-family="sans-serif" font-size="13" font-weight="bold" lengthAdjust="spacing" textLength="30" x="650" y="954.3466">[15]</text><text fill="#000000" font-family="sans-serif" font-size="13" lengthAdjust="spacing" textLength="95" x="684" y="954.3466">POST /public/...</text><rect fill="#FEFFDD" height="23" style="stroke:#181818;stroke-width:0.5;" width="192" x="648" y="972.4125"/><text fill="#000000" font-family="sans-serif" font-size="13" lengthAdjust="spacing" textLength="184" x="652" y="988.4794">Payload as described above.</text><polygon fill="#181818" points="1194,1017.6781,1204,1021.6781,1194,1025.6781,1198,1021.6781" style="stroke:#181818;stroke-width:1.0;"/><line style="stroke:#181818;stroke-width:1.0;" x1="848" x2="1200" y1="1021.6781" y2="1021.6781"/><text fill="#000000" font-family="sans-serif" font-size="13" font-weight="bold" lengthAdjust="spacing" textLength="30" x="855" y="1016.6122">[16]</text><text fill="#000000" font-family="sans-serif" font-size="13" lengthAdjust="spacing" textLength="305" x="889" y="1016.6122">POST /notifications/qualityinvestigations/update</text><rect fill="#FEFFDD" height="23" style="stroke:#181818;stroke-width:0.5;" width="192" x="853" y="1034.6781"/><text fill="#000000" font-family="sans-serif" font-size="13" lengthAdjust="spacing" textLength="184" x="857" y="1050.745">Payload as described above.</text><rect fill="#FEFFDD" height="53" style="stroke:#181818;stroke-width:0.5;" width="309" x="853" y="1067.811"/><text fill="#000000" font-family="sans-serif" font-size="13" lengthAdjust="spacing" textLength="278" x="857" y="1083.8778">The http path depends on the DataAddress</text><text fill="#000000" font-family="sans-serif" font-size="13" lengthAdjust="spacing" textLength="301" x="857" y="1099.0107">in the EDC Data Asset. Thus, it depends on the</text><text fill="#000000" font-family="sans-serif" font-size="13" lengthAdjust="spacing" textLength="78" x="857" y="1114.1435">(Trace) app.</text><polygon fill="#181818" points="859,1143.8094,849,1147.8094,859,1151.8094,855,1147.8094" style="stroke:#181818;stroke-width:1.0;"/><line style="stroke:#181818;stroke-width:1.0;stroke-dasharray:2.0,2.0;" x1="853" x2="1210" y1="1147.8094" y2="1147.8094"/><text fill="#000000" font-family="sans-serif" font-size="13" font-weight="bold" lengthAdjust="spacing" textLength="30" x="865" y="1142.5099">[17]</text><text fill="#000000" font-family="monospace" font-size="13" lengthAdjust="spacing" textLength="24" x="899" y="1142.2474">200</text><text fill="#000000" font-family="sans-serif" font-size="13" lengthAdjust="spacing" textLength="18" x="927" y="1142.7435">OK</text><polygon fill="#181818" points="654,1173.4094,644,1177.4094,654,1181.4094,650,1177.4094" style="stroke:#181818;stroke-width:1.0;"/><line style="stroke:#181818;stroke-width:1.0;stroke-dasharray:2.0,2.0;" x1="648" x2="842" y1="1177.4094" y2="1177.4094"/><text fill="#000000" font-family="sans-serif" font-size="13" font-weight="bold" lengthAdjust="spacing" textLength="30" x="660" y="1172.1099">[18]</text><text fill="#000000" font-family="monospace" font-size="13" lengthAdjust="spacing" textLength="24" x="694" y="1171.8474">200</text><text fill="#000000" font-family="sans-serif" font-size="13" lengthAdjust="spacing" textLength="18" x="722" y="1172.3435">OK</text><polygon fill="#181818" points="398,1203.0094,388,1207.0094,398,1211.0094,394,1207.0094" style="stroke:#181818;stroke-width:1.0;"/><line style="stroke:#181818;stroke-width:1.0;stroke-dasharray:2.0,2.0;" x1="392" x2="637" y1="1207.0094" y2="1207.0094"/><text fill="#000000" font-family="sans-serif" font-size="13" font-weight="bold" lengthAdjust="spacing" textLength="30" x="404" y="1201.7099">[19]</text><text fill="#000000" font-family="monospace" font-size="13" lengthAdjust="spacing" textLength="24" x="438" y="1201.4474">200</text><text fill="#000000" font-family="sans-serif" font-size="13" lengthAdjust="spacing" textLength="18" x="466" y="1201.9435">OK</text><polygon fill="#181818" points="110,1232.6094,100,1236.6094,110,1240.6094,106,1236.6094" style="stroke:#181818;stroke-width:1.0;"/><line style="stroke:#181818;stroke-width:1.0;stroke-dasharray:2.0,2.0;" x1="104" x2="381" y1="1236.6094" y2="1236.6094"/><text fill="#000000" font-family="sans-serif" font-size="13" font-weight="bold" lengthAdjust="spacing" textLength="31" x="116" y="1231.3099">[20]</text><text fill="#000000" font-family="monospace" font-size="13" lengthAdjust="spacing" textLength="24" x="151" y="1231.0474">200</text><text fill="#000000" font-family="sans-serif" font-size="13" lengthAdjust="spacing" textLength="18" x="179" y="1231.5435">OK</text><!--SRC=[bLLDRnCn4BtxLunyQgec3GKk4KAKfWY4A2K99yh1yKwobZRsOi-cZH3_dR5tkxjfKrIYN6pFvtjlPbL5pbQR9NgGRzw__J4U_vH2yQNIPBQA49mLOkdkGCxHPkYbA9KdeqsfBF6bso0SBRpIg9QcCBGRm7bPIb01qYqVNe3px0dZVTShHsPbj2BZB5nEB-0yKoLnXkXxrHmQrnV2MyV5UBFEgNqK708socQAdDz5DyeHZEMdM3vNVcieJvSnlbOMblo-AGlS85jbGXN1iKCoUTp5I8YFxXQtw4z0GJ0RKoWFgygcu2hQYICShKSdi4BIEMSWLRZrG0nZCI5tjp5ZuMvX29ig41z4wTtMP9YD1EC9gQrzNBZK1C4yrbotVvPicOLzowa9sd5rEvYZtngDjT-qyNfPypP3ZMRxYBdxDBCkpQl_v_QiSNtTLjYz3D-cu1Euy1YLb3WE0GbMpiEDbT-gX25yibiCPDQr5BwNp2VA6vl8atBAe9vdcSSGPCejvSV5uXgklyuNVC5vIyUS2uzKUGjVFujEU5n2U-0wScNN27tXtTY6m3afgW8ehRaXOzVt5rzSXiL0PDWEH1jmFyzyEe4P1bTiwqulsxfwokrytrzVWLj1gCgos87E5QimecyPp2DkSisKsIXDl3EC3HTaUsKFUk9vek_x8Pb07Dozfk7uk0Rv-FY9wgxLhd0gYsXd6BGtI-J3aiNMbsqxfB7znFI7D0ONzHY8fE0tmn-P8nwsdwqUzgtwKRgYFnXEmwFDrHUe2IwSfJZLXnT1iev3pEpvQAuRSyPunQ6Zb2P2o4pJX7OboWdy5f1-yft9-2ZrtP3KdPlKo3JIt5Dc7qAPlF_87XezYNGBwX52domP5V_OjWHNk7RfbZVMKvWTD3uKtf2X63sEJMJK1WRWoR2NWTIoC25Fms6nE10p3XgSbXNRwTFHQ7IOWkT99jNHPlzdv6ZwpAYp9cgxU-v3zsScdFwgIJLzKiDfbGZVIprxVkf7RWjMOKvKyZJp-igmPDl0Nz4apzuk4yrd9vQUk4ghSGIBl0edOEY1gwWNyG1K_2vr-NlhjYEtHbVAi_6ODoHlXXgW7llpXnRpXnRTAFQiEd7qB7iRjZFz2m00]--></g></svg>