<svg xmlns="http://www.w3.org/2000/svg" xmlns:xlink="http://www.w3.org/1999/xlink" width="300" height="280"
    viewBox="0 0 300 280">
  <defs><linearGradient id="grad_1" gradientUnits="userSpaceOnUse"
        x1="22.72" y1="170.00"
        x2="277.28" y2="170.00">
        <stop offset="0%" stop-color="#FFBD59"/>
        <stop offset="100%" stop-color="#EE6A28"/>
      </linearGradient>
<linearGradient id="grad_3" gradientUnits="userSpaceOnUse"
        x1="22.72" y1="146.24"
        x2="277.28" y2="146.24">
        <stop offset="0%" stop-color="#FFBD59"/>
        <stop offset="100%" stop-color="#EE6A28"/>
      </linearGradient>
<linearGradient id="grad_5" gradientUnits="userSpaceOnUse"
        x1="22.72" y1="122.49"
        x2="277.28" y2="122.49">
        <stop offset="0%" stop-color="#FFBD59"/>
        <stop offset="100%" stop-color="#EE6A28"/>
      </linearGradient>
<linearGradient id="grad_7" gradientUnits="userSpaceOnUse"
        x1="22.72" y1="98.73"
        x2="277.28" y2="98.73">
        <stop offset="0%" stop-color="#FFBD59"/>
        <stop offset="100%" stop-color="#EE6A28"/>
      </linearGradient>
</defs>
  <polygon points="133.03,118.61 134.77,117.70 136.67,116.90 138.69,116.20 140.82,115.62 143.03,115.17 145.32,114.84 147.65,114.64 150.00,114.58 152.35,114.64 154.68,114.84 156.97,115.17 159.18,115.62 161.31,116.20 163.33,116.90 165.23,117.70 166.97,118.61 260.31,172.14 261.89,173.14 263.29,174.23 264.50,175.39 265.51,176.61 266.30,177.88 266.88,179.19 267.22,180.53 267.34,181.88 267.22,183.23 266.88,184.56 266.30,185.87 265.51,187.15 264.50,188.37 263.29,189.53 261.89,190.61 260.31,191.61 166.97,245.15 165.23,246.06 163.33,246.86 161.31,247.55 159.18,248.13 156.97,248.59 154.68,248.92 152.35,249.11 150.00,249.18 147.65,249.11 145.32,248.92 143.03,248.59 140.82,248.13 138.69,247.55 136.67,246.86 134.77,246.06 133.03,245.15 39.69,191.61 38.11,190.61 36.71,189.53 35.50,188.37 34.49,187.15 33.70,185.87 33.12,184.56 32.78,183.23 32.66,181.88 32.78,180.53 33.12,179.19 33.70,177.88 34.49,176.61 35.50,175.39 36.71,174.23 38.11,173.14 39.69,172.14"
        fill="none" stroke="#EE6A28" stroke-width="2"
        opacity="0.4"/>
<polygon points="133.03,106.73 134.77,105.82 136.67,105.02 138.69,104.32 140.82,103.75 143.03,103.29 145.32,102.96 147.65,102.76 150.00,102.70 152.35,102.76 154.68,102.96 156.97,103.29 159.18,103.75 161.31,104.32 163.33,105.02 165.23,105.82 166.97,106.73 260.31,160.27 261.89,161.27 263.29,162.35 264.50,163.51 265.51,164.73 266.30,166.00 266.88,167.31 267.22,168.65 267.34,170.00 267.22,171.35 266.88,172.69 266.30,174.00 265.51,175.27 264.50,176.49 263.29,177.65 261.89,178.73 260.31,179.73 166.97,233.27 165.23,234.18 163.33,234.98 161.31,235.68 159.18,236.25 156.97,236.71 154.68,237.04 152.35,237.24 150.00,237.30 147.65,237.24 145.32,237.04 143.03,236.71 140.82,236.25 138.69,235.68 136.67,234.98 134.77,234.18 133.03,233.27 39.69,179.73 38.11,178.73 36.71,177.65 35.50,176.49 34.49,175.27 33.70,174.00 33.12,172.69 32.78,171.35 32.66,170.00 32.78,168.65 33.12,167.31 33.70,166.00 34.49,164.73 35.50,163.51 36.71,162.35 38.11,161.27 39.69,160.27"
        fill="url(#grad_1)" opacity="0.4"/>
<polygon points="133.03,94.85 134.77,93.94 136.67,93.14 138.69,92.45 140.82,91.87 143.03,91.41 145.32,91.08 147.65,90.89 150.00,90.82 152.35,90.89 154.68,91.08 156.97,91.41 159.18,91.87 161.31,92.45 163.33,93.14 165.23,93.94 166.97,94.85 260.31,148.39 261.89,149.39 263.29,150.47 264.50,151.63 265.51,152.85 266.30,154.13 266.88,155.44 267.22,156.77 267.34,158.12 267.22,159.47 266.88,160.81 266.30,162.12 265.51,163.39 264.50,164.61 263.29,165.77 261.89,166.86 260.31,167.86 166.97,221.39 165.23,222.30 163.33,223.10 161.31,223.80 159.18,224.38 156.97,224.83 154.68,225.16 152.35,225.36 150.00,225.42 147.65,225.36 145.32,225.16 143.03,224.83 140.82,224.38 138.69,223.80 136.67,223.10 134.77,222.30 133.03,221.39 39.69,167.86 38.11,166.86 36.71,165.77 35.50,164.61 34.49,163.39 33.70,162.12 33.12,160.81 32.78,159.47 32.66,158.12 32.78,156.77 33.12,155.44 33.70,154.13 34.49,152.85 35.50,151.63 36.71,150.47 38.11,149.39 39.69,148.39"
        fill="none" stroke="#EE6A28" stroke-width="2"
        opacity="0.4"/>
<polygon points="133.03,82.97 134.77,82.07 136.67,81.26 138.69,80.57 140.82,79.99 143.03,79.53 145.32,79.21 147.65,79.01 150.00,78.94 152.35,79.01 154.68,79.21 156.97,79.53 159.18,79.99 161.31,80.57 163.33,81.26 165.23,82.07 166.97,82.97 260.31,136.51 261.89,137.51 263.29,138.60 264.50,139.76 265.51,140.98 266.30,142.25 266.88,143.56 267.22,144.90 267.34,146.24 267.22,147.59 266.88,148.93 266.30,150.24 265.51,151.51 264.50,152.73 263.29,153.89 261.89,154.98 260.31,155.98 166.97,209.52 165.23,210.42 163.33,211.23 161.31,211.92 159.18,212.50 156.97,212.95 154.68,213.28 152.35,213.48 150.00,213.55 147.65,213.48 145.32,213.28 143.03,212.95 140.82,212.50 138.69,211.92 136.67,211.23 134.77,210.42 133.03,209.52 39.69,155.98 38.11,154.98 36.71,153.89 35.50,152.73 34.49,151.51 33.70,150.24 33.12,148.93 32.78,147.59 32.66,146.24 32.78,144.90 33.12,143.56 33.70,142.25 34.49,140.98 35.50,139.76 36.71,138.60 38.11,137.51 39.69,136.51"
        fill="url(#grad_3)" opacity="0.6"/>
<polygon points="133.03,71.10 134.77,70.19 136.67,69.38 138.69,68.69 140.82,68.11 143.03,67.66 145.32,67.33 147.65,67.13 150.00,67.06 152.35,67.13 154.68,67.33 156.97,67.66 159.18,68.11 161.31,68.69 163.33,69.38 165.23,70.19 166.97,71.10 260.31,124.63 261.89,125.63 263.29,126.72 264.50,127.88 265.51,129.10 266.30,130.37 266.88,131.68 267.22,133.02 267.34,134.37 267.22,135.72 266.88,137.05 266.30,138.36 265.51,139.63 264.50,140.86 263.29,142.01 261.89,143.10 260.31,144.10 166.97,197.64 165.23,198.54 163.33,199.35 161.31,200.04 159.18,200.62 156.97,201.08 154.68,201.40 152.35,201.60 150.00,201.67 147.65,201.60 145.32,201.40 143.03,201.08 140.82,200.62 138.69,200.04 136.67,199.35 134.77,198.54 133.03,197.64 39.69,144.10 38.11,143.10 36.71,142.01 35.50,140.86 34.49,139.63 33.70,138.36 33.12,137.05 32.78,135.72 32.66,134.37 32.78,133.02 33.12,131.68 33.70,130.37 34.49,129.10 35.50,127.88 36.71,126.72 38.11,125.63 39.69,124.63"
        fill="none" stroke="#EE6A28" stroke-width="2"
        opacity="0.6"/>
<polygon points="133.03,59.22 134.77,58.31 136.67,57.51 138.69,56.81 140.82,56.23 143.03,55.78 145.32,55.45 147.65,55.25 150.00,55.19 152.35,55.25 154.68,55.45 156.97,55.78 159.18,56.23 161.31,56.81 163.33,57.51 165.23,58.31 166.97,59.22 260.31,112.76 261.89,113.76 263.29,114.84 264.50,116.00 265.51,117.22 266.30,118.49 266.88,119.80 267.22,121.14 267.34,122.49 267.22,123.84 266.88,125.17 266.30,126.49 265.51,127.76 264.50,128.98 263.29,130.14 261.89,131.22 260.31,132.22 166.97,185.76 165.23,186.67 163.33,187.47 161.31,188.17 159.18,188.74 156.97,189.20 154.68,189.53 152.35,189.73 150.00,189.79 147.65,189.73 145.32,189.53 143.03,189.20 140.82,188.74 138.69,188.17 136.67,187.47 134.77,186.67 133.03,185.76 39.69,132.22 38.11,131.22 36.71,130.14 35.50,128.98 34.49,127.76 33.70,126.49 33.12,125.17 32.78,123.84 32.66,122.49 32.78,121.14 33.12,119.80 33.70,118.49 34.49,117.22 35.50,116.00 36.71,114.84 38.11,113.76 39.69,112.76"
        fill="url(#grad_5)" opacity="0.8"/>
<polygon points="133.03,47.34 134.77,46.43 136.67,45.63 138.69,44.93 140.82,44.36 143.03,43.90 145.32,43.57 147.65,43.38 150.00,43.31 152.35,43.38 154.68,43.57 156.97,43.90 159.18,44.36 161.31,44.93 163.33,45.63 165.23,46.43 166.97,47.34 260.31,100.88 261.89,101.88 263.29,102.96 264.50,104.12 265.51,105.34 266.30,106.62 266.88,107.93 267.22,109.26 267.34,110.61 267.22,111.96 266.88,113.30 266.30,114.61 265.51,115.88 264.50,117.10 263.29,118.26 261.89,119.34 260.31,120.35 166.97,173.88 165.23,174.79 163.33,175.59 161.31,176.29 159.18,176.87 156.97,177.32 154.68,177.65 152.35,177.85 150.00,177.91 147.65,177.85 145.32,177.65 143.03,177.32 140.82,176.87 138.69,176.29 136.67,175.59 134.77,174.79 133.03,173.88 39.69,120.35 38.11,119.34 36.71,118.26 35.50,117.10 34.49,115.88 33.70,114.61 33.12,113.30 32.78,111.96 32.66,110.61 32.78,109.26 33.12,107.93 33.70,106.62 34.49,105.34 35.50,104.12 36.71,102.96 38.11,101.88 39.69,100.88"
        fill="none" stroke="#EE6A28" stroke-width="2"
        opacity="0.8"/>
<polygon points="133.03,35.46 134.77,34.56 136.67,33.75 138.69,33.06 140.82,32.48 143.03,32.02 145.32,31.70 147.65,31.50 150.00,31.43 152.35,31.50 154.68,31.70 156.97,32.02 159.18,32.48 161.31,33.06 163.33,33.75 165.23,34.56 166.97,35.46 260.31,89.00 261.89,90.00 263.29,91.09 264.50,92.24 265.51,93.47 266.30,94.74 266.88,96.05 267.22,97.38 267.34,98.73 267.22,100.08 266.88,101.42 266.30,102.73 265.51,104.00 264.50,105.22 263.29,106.38 261.89,107.47 260.31,108.47 166.97,162.00 165.23,162.91 163.33,163.72 161.31,164.41 159.18,164.99 156.97,165.44 154.68,165.77 152.35,165.97 150.00,166.04 147.65,165.97 145.32,165.77 143.03,165.44 140.82,164.99 138.69,164.41 136.67,163.72 134.77,162.91 133.03,162.00 39.69,108.47 38.11,107.47 36.71,106.38 35.50,105.22 34.49,104.00 33.70,102.73 33.12,101.42 32.78,100.08 32.66,98.73 32.78,97.38 33.12,96.05 33.70,94.74 34.49,93.47 35.50,92.24 36.71,91.09 38.11,90.00 39.69,89.00"
        fill="url(#grad_7)" opacity="1"/>

  <g transform="matrix(0.454569, 0.260730, -0.454569, 0.260730, 150.00, 49.46)"
      opacity="1">
      <defs><style type="text/css">@import url("https://fonts.googleapis.com/css?family=Manrope");</style><style type="text/css"/></defs><g><g data-cell-id="0"><g data-cell-id="1"><g data-cell-id="owp280X0LnAIJAVGq8zw-3"/><g data-cell-id="NCKokvbXFz__Wikz-6l0-8"/><g data-cell-id="CK1T5FP0a_dcc0hWKljY-8"><g data-cell-id="CK1T5FP0a_dcc0hWKljY-9"><g data-cell-id="CK1T5FP0a_dcc0hWKljY-10"/><g data-cell-id="CK1T5FP0a_dcc0hWKljY-11"/><g data-cell-id="CK1T5FP0a_dcc0hWKljY-12"/><g data-cell-id="CK1T5FP0a_dcc0hWKljY-13"/></g><g data-cell-id="CK1T5FP0a_dcc0hWKljY-14"/><g data-cell-id="CK1T5FP0a_dcc0hWKljY-15"/></g><g data-cell-id="CK1T5FP0a_dcc0hWKljY-25"/><g data-cell-id="CK1T5FP0a_dcc0hWKljY-26"/><g data-cell-id="CK1T5FP0a_dcc0hWKljY-27"/><g data-cell-id="CK1T5FP0a_dcc0hWKljY-28"/><g data-cell-id="CK1T5FP0a_dcc0hWKljY-29"/><g data-cell-id="CK1T5FP0a_dcc0hWKljY-30"/><g data-cell-id="CK1T5FP0a_dcc0hWKljY-31"/><g data-cell-id="CK1T5FP0a_dcc0hWKljY-32"/><g data-cell-id="CK1T5FP0a_dcc0hWKljY-33"/><g data-cell-id="CK1T5FP0a_dcc0hWKljY-34"/><g data-cell-id="CK1T5FP0a_dcc0hWKljY-35"/><g data-cell-id="CK1T5FP0a_dcc0hWKljY-36"/><g data-cell-id="CK1T5FP0a_dcc0hWKljY-37"/><g data-cell-id="CK1T5FP0a_dcc0hWKljY-39"><g><g><svg width="188.73" height="188.73" viewBox="0 0 219 219" fill="none" xmlns="http://www.w3.org/2000/svg" x="-1.13" y="-0.87" style="font-family: initial;">&#xa;<path fill-rule="evenodd" clip-rule="evenodd" d="M32.9915 97.692C38.2368 63.2879 66.2001 36.3543 101.095 32.677V37.2863C68.4568 40.9474 42.3637 66.2512 37.5021 98.5117L41.7788 93.0374C42.6289 91.9494 44.2 91.7565 45.288 92.6065C46.376 93.4565 46.569 95.0276 45.719 96.1157L38.3251 105.58C36.9238 107.374 34.2102 107.373 32.8089 105.58L25.415 96.1157C24.565 95.0276 24.7579 93.4565 25.846 92.6065C26.934 91.7565 28.5051 91.9494 29.3551 93.0374L32.9915 97.692ZM32.5347 117.602C36.187 152.257 62.7764 180.075 96.8409 185.594L92.2224 189.202C91.1344 190.052 90.9415 191.623 91.7915 192.711C92.6415 193.799 94.2126 193.992 95.3007 193.142L104.765 185.748C106.559 184.347 106.559 181.633 104.765 180.232L95.3007 172.838C94.2126 171.988 92.6415 172.181 91.7915 173.269C90.9415 174.357 91.1344 175.928 92.2224 176.778L97.753 181.099C65.7872 176 40.7821 150.032 37.144 117.602H32.5347ZM180.904 121.265C175.683 153.077 149.781 177.927 117.459 181.553V186.162C152.337 182.486 180.289 155.578 185.555 121.199L189.467 126.207C190.317 127.295 191.888 127.488 192.976 126.638C194.064 125.788 194.257 124.217 193.407 123.129L186.013 113.665C184.612 111.871 181.898 111.871 180.497 113.665L173.103 123.129C172.253 124.217 172.446 125.788 173.534 126.638C174.622 127.488 176.193 127.295 177.043 126.207L180.904 121.265ZM186.019 101.238C182.381 66.7124 155.977 38.9727 122.096 33.3083L126.549 29.8291C127.637 28.979 127.83 27.4079 126.98 26.3199C126.13 25.2319 124.559 25.0389 123.471 25.8889L114.007 33.2828C112.213 34.6841 112.213 37.3977 114.007 38.799L123.471 46.1929C124.559 47.0429 126.13 46.85 126.98 45.7619C127.83 44.6739 127.637 43.1028 126.549 42.2528L120.766 37.7344C152.749 42.82 177.771 68.7955 181.41 101.238H186.019ZM86.3838 90.8349C79.6343 97.5844 79.6343 108.527 86.3838 115.277C93.1333 122.026 104.076 122.026 110.826 115.277C117.575 108.527 117.575 97.5844 110.826 90.8349C104.076 84.0854 93.1333 84.0854 86.3838 90.8349ZM80.727 120.934C70.8533 111.06 70.8533 95.0518 80.727 85.1781C90.6007 75.3044 106.609 75.3044 116.483 85.1781C125.392 94.0876 126.262 107.992 119.093 117.877L138.116 136.862L132.465 142.525L113.437 123.536C103.552 130.714 89.6399 129.847 80.727 120.934Z" fill="white"/>&#xa;</svg></g></g></g><g data-cell-id="CK1T5FP0a_dcc0hWKljY-40"/><g data-cell-id="CK1T5FP0a_dcc0hWKljY-42"/><g data-cell-id="CK1T5FP0a_dcc0hWKljY-43"/><g data-cell-id="CK1T5FP0a_dcc0hWKljY-44"/><g data-cell-id="CK1T5FP0a_dcc0hWKljY-45"/><g data-cell-id="CK1T5FP0a_dcc0hWKljY-46"/><g data-cell-id="CK1T5FP0a_dcc0hWKljY-47"/><g data-cell-id="CK1T5FP0a_dcc0hWKljY-48"/><g data-cell-id="CK1T5FP0a_dcc0hWKljY-49"/><g data-cell-id="CK1T5FP0a_dcc0hWKljY-52"/><g data-cell-id="CK1T5FP0a_dcc0hWKljY-53"/><g data-cell-id="CK1T5FP0a_dcc0hWKljY-54"/><g data-cell-id="CK1T5FP0a_dcc0hWKljY-38"/><g data-cell-id="CK1T5FP0a_dcc0hWKljY-57"/><g data-cell-id="CK1T5FP0a_dcc0hWKljY-58"/><g data-cell-id="CK1T5FP0a_dcc0hWKljY-59"/><g data-cell-id="owp280X0LnAIJAVGq8zw-1"/><g data-cell-id="owp280X0LnAIJAVGq8zw-2"/></g></g></g>
    </g>
</svg>