<svg xmlns="http://www.w3.org/2000/svg" xmlns:xlink="http://www.w3.org/1999/xlink" width="300" height="280"
    viewBox="0 0 300 280">
  <defs><linearGradient id="grad_1" gradientUnits="userSpaceOnUse"
        x1="22.72" y1="170.00"
        x2="277.28" y2="170.00">
        <stop offset="0%" stop-color="#F08B9B"/>
        <stop offset="100%" stop-color="#EA3650"/>
      </linearGradient>
<linearGradient id="grad_3" gradientUnits="userSpaceOnUse"
        x1="22.72" y1="146.24"
        x2="277.28" y2="146.24">
        <stop offset="0%" stop-color="#F08B9B"/>
        <stop offset="100%" stop-color="#EA3650"/>
      </linearGradient>
<linearGradient id="grad_5" gradientUnits="userSpaceOnUse"
        x1="22.72" y1="122.49"
        x2="277.28" y2="122.49">
        <stop offset="0%" stop-color="#F08B9B"/>
        <stop offset="100%" stop-color="#EA3650"/>
      </linearGradient>
<linearGradient id="grad_7" gradientUnits="userSpaceOnUse"
        x1="22.72" y1="98.73"
        x2="277.28" y2="98.73">
        <stop offset="0%" stop-color="#F08B9B"/>
        <stop offset="100%" stop-color="#EA3650"/>
      </linearGradient>
</defs>
  <polygon points="133.03,118.61 134.77,117.70 136.67,116.90 138.69,116.20 140.82,115.62 143.03,115.17 145.32,114.84 147.65,114.64 150.00,114.58 152.35,114.64 154.68,114.84 156.97,115.17 159.18,115.62 161.31,116.20 163.33,116.90 165.23,117.70 166.97,118.61 260.31,172.14 261.89,173.14 263.29,174.23 264.50,175.39 265.51,176.61 266.30,177.88 266.88,179.19 267.22,180.53 267.34,181.88 267.22,183.23 266.88,184.56 266.30,185.87 265.51,187.15 264.50,188.37 263.29,189.53 261.89,190.61 260.31,191.61 166.97,245.15 165.23,246.06 163.33,246.86 161.31,247.55 159.18,248.13 156.97,248.59 154.68,248.92 152.35,249.11 150.00,249.18 147.65,249.11 145.32,248.92 143.03,248.59 140.82,248.13 138.69,247.55 136.67,246.86 134.77,246.06 133.03,245.15 39.69,191.61 38.11,190.61 36.71,189.53 35.50,188.37 34.49,187.15 33.70,185.87 33.12,184.56 32.78,183.23 32.66,181.88 32.78,180.53 33.12,179.19 33.70,177.88 34.49,176.61 35.50,175.39 36.71,174.23 38.11,173.14 39.69,172.14"
        fill="none" stroke="#EA3650" stroke-width="2"
        opacity="0.4"/>
<polygon points="133.03,106.73 134.77,105.82 136.67,105.02 138.69,104.32 140.82,103.75 143.03,103.29 145.32,102.96 147.65,102.76 150.00,102.70 152.35,102.76 154.68,102.96 156.97,103.29 159.18,103.75 161.31,104.32 163.33,105.02 165.23,105.82 166.97,106.73 260.31,160.27 261.89,161.27 263.29,162.35 264.50,163.51 265.51,164.73 266.30,166.00 266.88,167.31 267.22,168.65 267.34,170.00 267.22,171.35 266.88,172.69 266.30,174.00 265.51,175.27 264.50,176.49 263.29,177.65 261.89,178.73 260.31,179.73 166.97,233.27 165.23,234.18 163.33,234.98 161.31,235.68 159.18,236.25 156.97,236.71 154.68,237.04 152.35,237.24 150.00,237.30 147.65,237.24 145.32,237.04 143.03,236.71 140.82,236.25 138.69,235.68 136.67,234.98 134.77,234.18 133.03,233.27 39.69,179.73 38.11,178.73 36.71,177.65 35.50,176.49 34.49,175.27 33.70,174.00 33.12,172.69 32.78,171.35 32.66,170.00 32.78,168.65 33.12,167.31 33.70,166.00 34.49,164.73 35.50,163.51 36.71,162.35 38.11,161.27 39.69,160.27"
        fill="url(#grad_1)" opacity="0.4"/>
<polygon points="133.03,94.85 134.77,93.94 136.67,93.14 138.69,92.45 140.82,91.87 143.03,91.41 145.32,91.08 147.65,90.89 150.00,90.82 152.35,90.89 154.68,91.08 156.97,91.41 159.18,91.87 161.31,92.45 163.33,93.14 165.23,93.94 166.97,94.85 260.31,148.39 261.89,149.39 263.29,150.47 264.50,151.63 265.51,152.85 266.30,154.13 266.88,155.44 267.22,156.77 267.34,158.12 267.22,159.47 266.88,160.81 266.30,162.12 265.51,163.39 264.50,164.61 263.29,165.77 261.89,166.86 260.31,167.86 166.97,221.39 165.23,222.30 163.33,223.10 161.31,223.80 159.18,224.38 156.97,224.83 154.68,225.16 152.35,225.36 150.00,225.42 147.65,225.36 145.32,225.16 143.03,224.83 140.82,224.38 138.69,223.80 136.67,223.10 134.77,222.30 133.03,221.39 39.69,167.86 38.11,166.86 36.71,165.77 35.50,164.61 34.49,163.39 33.70,162.12 33.12,160.81 32.78,159.47 32.66,158.12 32.78,156.77 33.12,155.44 33.70,154.13 34.49,152.85 35.50,151.63 36.71,150.47 38.11,149.39 39.69,148.39"
        fill="none" stroke="#EA3650" stroke-width="2"
        opacity="0.4"/>
<polygon points="133.03,82.97 134.77,82.07 136.67,81.26 138.69,80.57 140.82,79.99 143.03,79.53 145.32,79.21 147.65,79.01 150.00,78.94 152.35,79.01 154.68,79.21 156.97,79.53 159.18,79.99 161.31,80.57 163.33,81.26 165.23,82.07 166.97,82.97 260.31,136.51 261.89,137.51 263.29,138.60 264.50,139.76 265.51,140.98 266.30,142.25 266.88,143.56 267.22,144.90 267.34,146.24 267.22,147.59 266.88,148.93 266.30,150.24 265.51,151.51 264.50,152.73 263.29,153.89 261.89,154.98 260.31,155.98 166.97,209.52 165.23,210.42 163.33,211.23 161.31,211.92 159.18,212.50 156.97,212.95 154.68,213.28 152.35,213.48 150.00,213.55 147.65,213.48 145.32,213.28 143.03,212.95 140.82,212.50 138.69,211.92 136.67,211.23 134.77,210.42 133.03,209.52 39.69,155.98 38.11,154.98 36.71,153.89 35.50,152.73 34.49,151.51 33.70,150.24 33.12,148.93 32.78,147.59 32.66,146.24 32.78,144.90 33.12,143.56 33.70,142.25 34.49,140.98 35.50,139.76 36.71,138.60 38.11,137.51 39.69,136.51"
        fill="url(#grad_3)" opacity="0.6"/>
<polygon points="133.03,71.10 134.77,70.19 136.67,69.38 138.69,68.69 140.82,68.11 143.03,67.66 145.32,67.33 147.65,67.13 150.00,67.06 152.35,67.13 154.68,67.33 156.97,67.66 159.18,68.11 161.31,68.69 163.33,69.38 165.23,70.19 166.97,71.10 260.31,124.63 261.89,125.63 263.29,126.72 264.50,127.88 265.51,129.10 266.30,130.37 266.88,131.68 267.22,133.02 267.34,134.37 267.22,135.72 266.88,137.05 266.30,138.36 265.51,139.63 264.50,140.86 263.29,142.01 261.89,143.10 260.31,144.10 166.97,197.64 165.23,198.54 163.33,199.35 161.31,200.04 159.18,200.62 156.97,201.08 154.68,201.40 152.35,201.60 150.00,201.67 147.65,201.60 145.32,201.40 143.03,201.08 140.82,200.62 138.69,200.04 136.67,199.35 134.77,198.54 133.03,197.64 39.69,144.10 38.11,143.10 36.71,142.01 35.50,140.86 34.49,139.63 33.70,138.36 33.12,137.05 32.78,135.72 32.66,134.37 32.78,133.02 33.12,131.68 33.70,130.37 34.49,129.10 35.50,127.88 36.71,126.72 38.11,125.63 39.69,124.63"
        fill="none" stroke="#EA3650" stroke-width="2"
        opacity="0.6"/>
<polygon points="133.03,59.22 134.77,58.31 136.67,57.51 138.69,56.81 140.82,56.23 143.03,55.78 145.32,55.45 147.65,55.25 150.00,55.19 152.35,55.25 154.68,55.45 156.97,55.78 159.18,56.23 161.31,56.81 163.33,57.51 165.23,58.31 166.97,59.22 260.31,112.76 261.89,113.76 263.29,114.84 264.50,116.00 265.51,117.22 266.30,118.49 266.88,119.80 267.22,121.14 267.34,122.49 267.22,123.84 266.88,125.17 266.30,126.49 265.51,127.76 264.50,128.98 263.29,130.14 261.89,131.22 260.31,132.22 166.97,185.76 165.23,186.67 163.33,187.47 161.31,188.17 159.18,188.74 156.97,189.20 154.68,189.53 152.35,189.73 150.00,189.79 147.65,189.73 145.32,189.53 143.03,189.20 140.82,188.74 138.69,188.17 136.67,187.47 134.77,186.67 133.03,185.76 39.69,132.22 38.11,131.22 36.71,130.14 35.50,128.98 34.49,127.76 33.70,126.49 33.12,125.17 32.78,123.84 32.66,122.49 32.78,121.14 33.12,119.80 33.70,118.49 34.49,117.22 35.50,116.00 36.71,114.84 38.11,113.76 39.69,112.76"
        fill="url(#grad_5)" opacity="0.8"/>
<polygon points="133.03,47.34 134.77,46.43 136.67,45.63 138.69,44.93 140.82,44.36 143.03,43.90 145.32,43.57 147.65,43.38 150.00,43.31 152.35,43.38 154.68,43.57 156.97,43.90 159.18,44.36 161.31,44.93 163.33,45.63 165.23,46.43 166.97,47.34 260.31,100.88 261.89,101.88 263.29,102.96 264.50,104.12 265.51,105.34 266.30,106.62 266.88,107.93 267.22,109.26 267.34,110.61 267.22,111.96 266.88,113.30 266.30,114.61 265.51,115.88 264.50,117.10 263.29,118.26 261.89,119.34 260.31,120.35 166.97,173.88 165.23,174.79 163.33,175.59 161.31,176.29 159.18,176.87 156.97,177.32 154.68,177.65 152.35,177.85 150.00,177.91 147.65,177.85 145.32,177.65 143.03,177.32 140.82,176.87 138.69,176.29 136.67,175.59 134.77,174.79 133.03,173.88 39.69,120.35 38.11,119.34 36.71,118.26 35.50,117.10 34.49,115.88 33.70,114.61 33.12,113.30 32.78,111.96 32.66,110.61 32.78,109.26 33.12,107.93 33.70,106.62 34.49,105.34 35.50,104.12 36.71,102.96 38.11,101.88 39.69,100.88"
        fill="none" stroke="#EA3650" stroke-width="2"
        opacity="0.8"/>
<polygon points="133.03,35.46 134.77,34.56 136.67,33.75 138.69,33.06 140.82,32.48 143.03,32.02 145.32,31.70 147.65,31.50 150.00,31.43 152.35,31.50 154.68,31.70 156.97,32.02 159.18,32.48 161.31,33.06 163.33,33.75 165.23,34.56 166.97,35.46 260.31,89.00 261.89,90.00 263.29,91.09 264.50,92.24 265.51,93.47 266.30,94.74 266.88,96.05 267.22,97.38 267.34,98.73 267.22,100.08 266.88,101.42 266.30,102.73 265.51,104.00 264.50,105.22 263.29,106.38 261.89,107.47 260.31,108.47 166.97,162.00 165.23,162.91 163.33,163.72 161.31,164.41 159.18,164.99 156.97,165.44 154.68,165.77 152.35,165.97 150.00,166.04 147.65,165.97 145.32,165.77 143.03,165.44 140.82,164.99 138.69,164.41 136.67,163.72 134.77,162.91 133.03,162.00 39.69,108.47 38.11,107.47 36.71,106.38 35.50,105.22 34.49,104.00 33.70,102.73 33.12,101.42 32.78,100.08 32.66,98.73 32.78,97.38 33.12,96.05 33.70,94.74 34.49,93.47 35.50,92.24 36.71,91.09 38.11,90.00 39.69,89.00"
        fill="url(#grad_7)" opacity="1"/>

  <g transform="matrix(0.461900, 0.264935, -0.450989, 0.258677, 150.00, 65.88)"
      opacity="1">
      <defs><style type="text/css">@import url("https://fonts.googleapis.com/css?family=Manrope");</style><style type="text/css"/></defs><g><g data-cell-id="0"><g data-cell-id="1"><g data-cell-id="owp280X0LnAIJAVGq8zw-3"/><g data-cell-id="NCKokvbXFz__Wikz-6l0-8"/><g data-cell-id="CK1T5FP0a_dcc0hWKljY-8"><g data-cell-id="CK1T5FP0a_dcc0hWKljY-9"><g data-cell-id="CK1T5FP0a_dcc0hWKljY-10"/><g data-cell-id="CK1T5FP0a_dcc0hWKljY-11"/><g data-cell-id="CK1T5FP0a_dcc0hWKljY-12"/><g data-cell-id="CK1T5FP0a_dcc0hWKljY-13"/></g><g data-cell-id="CK1T5FP0a_dcc0hWKljY-14"/><g data-cell-id="CK1T5FP0a_dcc0hWKljY-15"/></g><g data-cell-id="CK1T5FP0a_dcc0hWKljY-25"/><g data-cell-id="CK1T5FP0a_dcc0hWKljY-26"/><g data-cell-id="CK1T5FP0a_dcc0hWKljY-27"/><g data-cell-id="CK1T5FP0a_dcc0hWKljY-28"/><g data-cell-id="CK1T5FP0a_dcc0hWKljY-29"/><g data-cell-id="CK1T5FP0a_dcc0hWKljY-30"/><g data-cell-id="CK1T5FP0a_dcc0hWKljY-31"/><g data-cell-id="CK1T5FP0a_dcc0hWKljY-32"/><g data-cell-id="CK1T5FP0a_dcc0hWKljY-33"/><g data-cell-id="CK1T5FP0a_dcc0hWKljY-34"/><g data-cell-id="CK1T5FP0a_dcc0hWKljY-35"/><g data-cell-id="CK1T5FP0a_dcc0hWKljY-36"/><g data-cell-id="CK1T5FP0a_dcc0hWKljY-37"/><g data-cell-id="CK1T5FP0a_dcc0hWKljY-39"/><g data-cell-id="CK1T5FP0a_dcc0hWKljY-40"/><g data-cell-id="CK1T5FP0a_dcc0hWKljY-42"/><g data-cell-id="CK1T5FP0a_dcc0hWKljY-43"/><g data-cell-id="CK1T5FP0a_dcc0hWKljY-44"/><g data-cell-id="CK1T5FP0a_dcc0hWKljY-45"/><g data-cell-id="CK1T5FP0a_dcc0hWKljY-46"/><g data-cell-id="CK1T5FP0a_dcc0hWKljY-47"/><g data-cell-id="CK1T5FP0a_dcc0hWKljY-48"/><g data-cell-id="CK1T5FP0a_dcc0hWKljY-49"/><g data-cell-id="CK1T5FP0a_dcc0hWKljY-52"/><g data-cell-id="CK1T5FP0a_dcc0hWKljY-53"/><g data-cell-id="CK1T5FP0a_dcc0hWKljY-54"/><g data-cell-id="CK1T5FP0a_dcc0hWKljY-38"><g><g><svg width="124" height="126.28" viewBox="0 0 109 111" fill="none" xmlns="http://www.w3.org/2000/svg" x="-0.77" y="-1.1400000000000001" style="font-family: initial;">&#xa;<path fill-rule="evenodd" clip-rule="evenodd" d="M53.9302 110.568V0.461914H60.8989V110.568H53.9302ZM22.3858 29.5455C23.3566 26.7374 26.001 24.8535 28.9722 24.8535H46.613V17.8848H28.9722C23.0298 17.8848 17.7409 21.6525 15.7995 27.2688L9.64857 45.0625H4.45361C2.52925 45.0625 0.969238 46.6225 0.969239 48.5469C0.969239 50.4712 2.52925 52.0312 4.45361 52.0312H4.76262L3.93056 52.9299C1.04217 56.0493 -0.264526 60.3165 0.38192 64.5184L2.97733 81.3886C3.03127 81.7392 3.05836 82.0935 3.05836 82.4482V90.0113C3.05836 97.7088 9.29839 103.949 16.9959 103.949H25.5326C30.0548 103.949 33.7209 100.283 33.7209 95.7606C33.7209 95.087 34.2669 94.541 34.9404 94.541H46.613V87.5723H34.9404C30.4181 87.5723 26.7521 91.2383 26.7521 95.7606C26.7521 96.4341 26.2061 96.9801 25.5326 96.9801H16.9959C13.1471 96.9801 10.0271 93.8601 10.0271 90.0113V82.4482C10.0271 81.7387 9.97293 81.0302 9.86504 80.3289L7.26964 63.4588C6.94641 61.3578 7.59976 59.2242 9.04396 57.6645L12.834 53.5712C14.1459 52.1544 15.1491 50.4804 15.7799 48.6555L22.3858 29.5455ZM89.4478 105.006H91.2215C94.9136 105.006 98.4417 103.656 101.111 101.254C101.695 100.728 101.63 99.8421 101.029 99.3349L97.7596 96.5773C97.1591 96.0708 96.2528 96.1416 95.6177 96.6074C94.3626 97.5279 92.8219 98.0371 91.2215 98.0371H89.4478C88.6481 98.0371 87.9999 98.6611 87.9999 99.4308V103.612C87.9999 104.382 88.6481 105.006 89.4478 105.006ZM73.8465 96.863C73.8509 97.6315 74.613 98.1379 75.3991 98.0042L80.8849 97.0715C81.0035 97.0513 81.086 96.9335 81.086 96.8175C81.086 92.3018 77.2707 88.6292 72.5794 88.6292H70.089C69.2893 88.6292 68.6411 89.2533 68.6411 90.023V94.2043C68.6411 94.974 69.2893 95.598 70.089 95.598H72.5794C73.2744 95.598 73.8464 96.1485 73.8464 96.8175L73.8465 96.863ZM102.45 86.778C104.128 86.9039 105.581 85.6257 105.67 83.9455L105.694 83.5072C105.694 83.0247 105.723 82.7964 105.78 82.448L106.719 76.578C106.84 75.8172 106.298 75.1056 105.508 74.9885L101.217 74.3531C100.427 74.2361 99.6874 74.758 99.5658 75.5188L98.6277 81.3887C98.5191 82.0856 98.4612 82.8034 98.4612 83.5072V85.1937C98.4612 85.9634 99.1094 86.5874 99.9091 86.5874L102.45 86.778ZM101.155 61.6415C101.365 62.3836 102.039 62.9723 102.836 62.923L107.174 62.6553C107.972 62.606 108.585 61.9419 108.454 61.1829C107.992 58.5078 106.719 55.9944 104.796 53.9945L102.34 51.4418C101.797 50.8772 100.881 50.843 100.295 51.3656L97.1065 54.2045C96.5193 54.7274 96.4838 55.6095 97.0273 56.1745L99.4819 58.7263C100.277 59.5555 100.85 60.5594 101.155 61.6415ZM89.6405 41.8128C89.9019 42.5404 90.7266 42.9262 91.4824 42.6744L95.5872 41.3072C96.3428 41.0555 96.7435 40.2619 96.4822 39.5345L93.3527 30.8238C93.0913 30.0963 92.2666 29.7105 91.5108 29.9622L87.406 31.3295C86.6504 31.5811 86.2497 32.3747 86.5111 33.1021L89.6405 41.8128ZM78.8476 25.9109C79.6436 25.9199 80.4088 25.4588 80.5744 24.7094L81.48 20.6109C81.6463 19.8583 81.1475 19.111 80.353 19.0263C79.8278 18.9702 79.2986 18.9417 78.7693 18.9417H70.0166C69.2169 18.9417 68.5687 19.5657 68.5687 20.3355V24.5167C68.5687 25.2865 69.2169 25.9105 70.0166 25.9105H78.7693C78.7954 25.9105 78.8215 25.9106 78.8476 25.9109Z" fill="white"/>&#xa;</svg></g></g></g><g data-cell-id="CK1T5FP0a_dcc0hWKljY-57"/><g data-cell-id="CK1T5FP0a_dcc0hWKljY-58"/><g data-cell-id="CK1T5FP0a_dcc0hWKljY-59"/><g data-cell-id="owp280X0LnAIJAVGq8zw-1"/><g data-cell-id="owp280X0LnAIJAVGq8zw-2"/></g></g></g>
    </g>
</svg>