<svg xmlns="http://www.w3.org/2000/svg" xmlns:xlink="http://www.w3.org/1999/xlink" width="300" height="280"
    viewBox="0 0 300 280">
  <defs><linearGradient id="grad_1" gradientUnits="userSpaceOnUse"
        x1="22.72" y1="170.00"
        x2="277.28" y2="170.00">
        <stop offset="0%" stop-color="#dd86d4"/>
        <stop offset="100%" stop-color="#9803c2"/>
      </linearGradient>
<linearGradient id="grad_3" gradientUnits="userSpaceOnUse"
        x1="22.72" y1="146.24"
        x2="277.28" y2="146.24">
        <stop offset="0%" stop-color="#dd86d4"/>
        <stop offset="100%" stop-color="#9803c2"/>
      </linearGradient>
<linearGradient id="grad_5" gradientUnits="userSpaceOnUse"
        x1="22.72" y1="122.49"
        x2="277.28" y2="122.49">
        <stop offset="0%" stop-color="#dd86d4"/>
        <stop offset="100%" stop-color="#9803c2"/>
      </linearGradient>
<linearGradient id="grad_7" gradientUnits="userSpaceOnUse"
        x1="22.72" y1="98.73"
        x2="277.28" y2="98.73">
        <stop offset="0%" stop-color="#dd86d4"/>
        <stop offset="100%" stop-color="#9803c2"/>
      </linearGradient>
</defs>
  <polygon points="133.03,118.61 134.77,117.70 136.67,116.90 138.69,116.20 140.82,115.62 143.03,115.17 145.32,114.84 147.65,114.64 150.00,114.58 152.35,114.64 154.68,114.84 156.97,115.17 159.18,115.62 161.31,116.20 163.33,116.90 165.23,117.70 166.97,118.61 260.31,172.14 261.89,173.14 263.29,174.23 264.50,175.39 265.51,176.61 266.30,177.88 266.88,179.19 267.22,180.53 267.34,181.88 267.22,183.23 266.88,184.56 266.30,185.87 265.51,187.15 264.50,188.37 263.29,189.53 261.89,190.61 260.31,191.61 166.97,245.15 165.23,246.06 163.33,246.86 161.31,247.55 159.18,248.13 156.97,248.59 154.68,248.92 152.35,249.11 150.00,249.18 147.65,249.11 145.32,248.92 143.03,248.59 140.82,248.13 138.69,247.55 136.67,246.86 134.77,246.06 133.03,245.15 39.69,191.61 38.11,190.61 36.71,189.53 35.50,188.37 34.49,187.15 33.70,185.87 33.12,184.56 32.78,183.23 32.66,181.88 32.78,180.53 33.12,179.19 33.70,177.88 34.49,176.61 35.50,175.39 36.71,174.23 38.11,173.14 39.69,172.14"
        fill="none" stroke="#dd86d4" stroke-width="2"
        opacity="0.4"/>
<polygon points="133.03,106.73 134.77,105.82 136.67,105.02 138.69,104.32 140.82,103.75 143.03,103.29 145.32,102.96 147.65,102.76 150.00,102.70 152.35,102.76 154.68,102.96 156.97,103.29 159.18,103.75 161.31,104.32 163.33,105.02 165.23,105.82 166.97,106.73 260.31,160.27 261.89,161.27 263.29,162.35 264.50,163.51 265.51,164.73 266.30,166.00 266.88,167.31 267.22,168.65 267.34,170.00 267.22,171.35 266.88,172.69 266.30,174.00 265.51,175.27 264.50,176.49 263.29,177.65 261.89,178.73 260.31,179.73 166.97,233.27 165.23,234.18 163.33,234.98 161.31,235.68 159.18,236.25 156.97,236.71 154.68,237.04 152.35,237.24 150.00,237.30 147.65,237.24 145.32,237.04 143.03,236.71 140.82,236.25 138.69,235.68 136.67,234.98 134.77,234.18 133.03,233.27 39.69,179.73 38.11,178.73 36.71,177.65 35.50,176.49 34.49,175.27 33.70,174.00 33.12,172.69 32.78,171.35 32.66,170.00 32.78,168.65 33.12,167.31 33.70,166.00 34.49,164.73 35.50,163.51 36.71,162.35 38.11,161.27 39.69,160.27"
        fill="url(#grad_1)" opacity="0.4"/>
<polygon points="133.03,94.85 134.77,93.94 136.67,93.14 138.69,92.45 140.82,91.87 143.03,91.41 145.32,91.08 147.65,90.89 150.00,90.82 152.35,90.89 154.68,91.08 156.97,91.41 159.18,91.87 161.31,92.45 163.33,93.14 165.23,93.94 166.97,94.85 260.31,148.39 261.89,149.39 263.29,150.47 264.50,151.63 265.51,152.85 266.30,154.13 266.88,155.44 267.22,156.77 267.34,158.12 267.22,159.47 266.88,160.81 266.30,162.12 265.51,163.39 264.50,164.61 263.29,165.77 261.89,166.86 260.31,167.86 166.97,221.39 165.23,222.30 163.33,223.10 161.31,223.80 159.18,224.38 156.97,224.83 154.68,225.16 152.35,225.36 150.00,225.42 147.65,225.36 145.32,225.16 143.03,224.83 140.82,224.38 138.69,223.80 136.67,223.10 134.77,222.30 133.03,221.39 39.69,167.86 38.11,166.86 36.71,165.77 35.50,164.61 34.49,163.39 33.70,162.12 33.12,160.81 32.78,159.47 32.66,158.12 32.78,156.77 33.12,155.44 33.70,154.13 34.49,152.85 35.50,151.63 36.71,150.47 38.11,149.39 39.69,148.39"
        fill="none" stroke="#dd86d4" stroke-width="2"
        opacity="0.4"/>
<polygon points="133.03,82.97 134.77,82.07 136.67,81.26 138.69,80.57 140.82,79.99 143.03,79.53 145.32,79.21 147.65,79.01 150.00,78.94 152.35,79.01 154.68,79.21 156.97,79.53 159.18,79.99 161.31,80.57 163.33,81.26 165.23,82.07 166.97,82.97 260.31,136.51 261.89,137.51 263.29,138.60 264.50,139.76 265.51,140.98 266.30,142.25 266.88,143.56 267.22,144.90 267.34,146.24 267.22,147.59 266.88,148.93 266.30,150.24 265.51,151.51 264.50,152.73 263.29,153.89 261.89,154.98 260.31,155.98 166.97,209.52 165.23,210.42 163.33,211.23 161.31,211.92 159.18,212.50 156.97,212.95 154.68,213.28 152.35,213.48 150.00,213.55 147.65,213.48 145.32,213.28 143.03,212.95 140.82,212.50 138.69,211.92 136.67,211.23 134.77,210.42 133.03,209.52 39.69,155.98 38.11,154.98 36.71,153.89 35.50,152.73 34.49,151.51 33.70,150.24 33.12,148.93 32.78,147.59 32.66,146.24 32.78,144.90 33.12,143.56 33.70,142.25 34.49,140.98 35.50,139.76 36.71,138.60 38.11,137.51 39.69,136.51"
        fill="url(#grad_3)" opacity="0.6"/>
<polygon points="133.03,71.10 134.77,70.19 136.67,69.38 138.69,68.69 140.82,68.11 143.03,67.66 145.32,67.33 147.65,67.13 150.00,67.06 152.35,67.13 154.68,67.33 156.97,67.66 159.18,68.11 161.31,68.69 163.33,69.38 165.23,70.19 166.97,71.10 260.31,124.63 261.89,125.63 263.29,126.72 264.50,127.88 265.51,129.10 266.30,130.37 266.88,131.68 267.22,133.02 267.34,134.37 267.22,135.72 266.88,137.05 266.30,138.36 265.51,139.63 264.50,140.86 263.29,142.01 261.89,143.10 260.31,144.10 166.97,197.64 165.23,198.54 163.33,199.35 161.31,200.04 159.18,200.62 156.97,201.08 154.68,201.40 152.35,201.60 150.00,201.67 147.65,201.60 145.32,201.40 143.03,201.08 140.82,200.62 138.69,200.04 136.67,199.35 134.77,198.54 133.03,197.64 39.69,144.10 38.11,143.10 36.71,142.01 35.50,140.86 34.49,139.63 33.70,138.36 33.12,137.05 32.78,135.72 32.66,134.37 32.78,133.02 33.12,131.68 33.70,130.37 34.49,129.10 35.50,127.88 36.71,126.72 38.11,125.63 39.69,124.63"
        fill="none" stroke="#dd86d4" stroke-width="2"
        opacity="0.6"/>
<polygon points="133.03,59.22 134.77,58.31 136.67,57.51 138.69,56.81 140.82,56.23 143.03,55.78 145.32,55.45 147.65,55.25 150.00,55.19 152.35,55.25 154.68,55.45 156.97,55.78 159.18,56.23 161.31,56.81 163.33,57.51 165.23,58.31 166.97,59.22 260.31,112.76 261.89,113.76 263.29,114.84 264.50,116.00 265.51,117.22 266.30,118.49 266.88,119.80 267.22,121.14 267.34,122.49 267.22,123.84 266.88,125.17 266.30,126.49 265.51,127.76 264.50,128.98 263.29,130.14 261.89,131.22 260.31,132.22 166.97,185.76 165.23,186.67 163.33,187.47 161.31,188.17 159.18,188.74 156.97,189.20 154.68,189.53 152.35,189.73 150.00,189.79 147.65,189.73 145.32,189.53 143.03,189.20 140.82,188.74 138.69,188.17 136.67,187.47 134.77,186.67 133.03,185.76 39.69,132.22 38.11,131.22 36.71,130.14 35.50,128.98 34.49,127.76 33.70,126.49 33.12,125.17 32.78,123.84 32.66,122.49 32.78,121.14 33.12,119.80 33.70,118.49 34.49,117.22 35.50,116.00 36.71,114.84 38.11,113.76 39.69,112.76"
        fill="url(#grad_5)" opacity="0.8"/>
<polygon points="133.03,47.34 134.77,46.43 136.67,45.63 138.69,44.93 140.82,44.36 143.03,43.90 145.32,43.57 147.65,43.38 150.00,43.31 152.35,43.38 154.68,43.57 156.97,43.90 159.18,44.36 161.31,44.93 163.33,45.63 165.23,46.43 166.97,47.34 260.31,100.88 261.89,101.88 263.29,102.96 264.50,104.12 265.51,105.34 266.30,106.62 266.88,107.93 267.22,109.26 267.34,110.61 267.22,111.96 266.88,113.30 266.30,114.61 265.51,115.88 264.50,117.10 263.29,118.26 261.89,119.34 260.31,120.35 166.97,173.88 165.23,174.79 163.33,175.59 161.31,176.29 159.18,176.87 156.97,177.32 154.68,177.65 152.35,177.85 150.00,177.91 147.65,177.85 145.32,177.65 143.03,177.32 140.82,176.87 138.69,176.29 136.67,175.59 134.77,174.79 133.03,173.88 39.69,120.35 38.11,119.34 36.71,118.26 35.50,117.10 34.49,115.88 33.70,114.61 33.12,113.30 32.78,111.96 32.66,110.61 32.78,109.26 33.12,107.93 33.70,106.62 34.49,105.34 35.50,104.12 36.71,102.96 38.11,101.88 39.69,100.88"
        fill="none" stroke="#dd86d4" stroke-width="2"
        opacity="0.8"/>
<polygon points="133.03,35.46 134.77,34.56 136.67,33.75 138.69,33.06 140.82,32.48 143.03,32.02 145.32,31.70 147.65,31.50 150.00,31.43 152.35,31.50 154.68,31.70 156.97,32.02 159.18,32.48 161.31,33.06 163.33,33.75 165.23,34.56 166.97,35.46 260.31,89.00 261.89,90.00 263.29,91.09 264.50,92.24 265.51,93.47 266.30,94.74 266.88,96.05 267.22,97.38 267.34,98.73 267.22,100.08 266.88,101.42 266.30,102.73 265.51,104.00 264.50,105.22 263.29,106.38 261.89,107.47 260.31,108.47 166.97,162.00 165.23,162.91 163.33,163.72 161.31,164.41 159.18,164.99 156.97,165.44 154.68,165.77 152.35,165.97 150.00,166.04 147.65,165.97 145.32,165.77 143.03,165.44 140.82,164.99 138.69,164.41 136.67,163.72 134.77,162.91 133.03,162.00 39.69,108.47 38.11,107.47 36.71,106.38 35.50,105.22 34.49,104.00 33.70,102.73 33.12,101.42 32.78,100.08 32.66,98.73 32.78,97.38 33.12,96.05 33.70,94.74 34.49,93.47 35.50,92.24 36.71,91.09 38.11,90.00 39.69,89.00"
        fill="url(#grad_7)" opacity="1"/>

  <g transform="matrix(2.237330, 1.283280, -2.237330, 1.283280, 150.00, 57.67)"
      opacity="1">
      
<g id="SVGRepo_bgCarrier" stroke-width="0"/>
<g id="SVGRepo_tracerCarrier" stroke-linecap="round" stroke-linejoin="round"/>
<g id="SVGRepo_iconCarrier"> <path d="M29.9,17.5C29.7,17.2,29.4,17,29,17c-2.2,0-4.3,1-5.6,2.8L22.5,21c-1.1,1.3-2.8,2-4.5,2h-3c-0.6,0-1-0.4-1-1s0.4-1,1-1h1.9 c1.6,0,3.1-1.3,3.1-2.9c0,0,0-0.1,0-0.1c0-0.5-0.5-1-1-1l-6.1,0c-3.6,0-6.5,1.6-8.1,4.2l-2.7,4.2c-0.2,0.3-0.2,0.7,0,1l3,5 c0.1,0.2,0.4,0.4,0.6,0.5c0.1,0,0.1,0,0.2,0c0.2,0,0.4-0.1,0.6-0.2c3.8-2.5,8.2-3.8,12.7-3.8c3.3,0,6.3-1.8,7.9-4.7l2.7-4.8 C30,18.2,30,17.8,29.9,17.5z"/> <path d="M4.5,18c0.1,0,0.3,0,0.4,0c1.2-1.1,2.7-1.9,4.3-2.4C9.1,15.1,9,14.5,9,14c0-4.4,3.6-8,8-8s8,3.6,8,8c0,0.7-0.1,1.4-0.3,2.1 C26,15.4,27.5,15,29,15c0.7,0,1.4,0.3,1.9,0.7C31,15.1,31,14.6,31,14c0-1.1-0.1-2.2-0.4-3.3c-0.1-0.5-0.6-0.8-1.1-0.8 c-1.2,0.2-2.4-0.4-3-1.5c-0.6-1-0.5-2.4,0.2-3.3c0.3-0.4,0.3-1-0.1-1.3C25,2.3,23.1,1.2,21,0.6c-0.5-0.1-1,0.1-1.2,0.6 C19.3,2.3,18.2,3,17,3s-2.3-0.7-2.8-1.8C14,0.7,13.5,0.4,13,0.6C10.9,1.2,9,2.3,7.4,3.9C7,4.2,7,4.8,7.3,5.2c0.7,1,0.8,2.3,0.2,3.3 c-0.6,1-1.8,1.6-3,1.5c-0.5-0.1-1,0.3-1.1,0.8C3.1,11.8,3,12.9,3,14s0.1,2.2,0.4,3.3C3.5,17.8,4,18.1,4.5,18z"/> </g>

    </g>
</svg>