<svg width="2349" height="2142" xmlns="http://www.w3.org/2000/svg" xmlns:xlink="http://www.w3.org/1999/xlink" xml:space="preserve" overflow="hidden"><defs><clipPath id="clip0"><rect x="459" y="148" width="2349" height="2142"/></clipPath></defs><g clip-path="url(#clip0)" transform="translate(-459 -148)"><path d="M498.231 1243.5 889.768 1243.5 925.5 1273.5 925.5 1423.5 792.185 1423.5 792.185 1310.81 594.013 1310.81 594.013 1423.5 462.5 1423.5 462.5 1273.5 498.231 1243.5Z" stroke="#00689B" stroke-width="6.875" stroke-linejoin="round" stroke-miterlimit="10" fill="#008FD3" fill-rule="evenodd"/><path d="M553.231 1298.5 944.768 1298.5 980.5 1328.5 980.5 1478.5 847.185 1478.5 847.185 1365.81 649.013 1365.81 649.013 1478.5 517.5 1478.5 517.5 1328.5 553.231 1298.5Z" stroke="#00689B" stroke-width="6.875" stroke-linejoin="round" stroke-miterlimit="10" fill="#008FD3" fill-rule="evenodd"/><path d="M608.231 1353.5 999.768 1353.5 1035.5 1383.5 1035.5 1533.5 902.185 1533.5 902.185 1420.81 704.013 1420.81 704.013 1533.5 572.5 1533.5 572.5 1383.5 608.231 1353.5Z" stroke="#00689B" stroke-width="6.875" stroke-linejoin="round" stroke-miterlimit="10" fill="#008FD3" fill-rule="evenodd"/><path d="M663.231 1408.5 1054.77 1408.5 1090.5 1438.5 1090.5 1588.5 957.185 1588.5 957.185 1475.81 759.013 1475.81 759.013 1588.5 627.5 1588.5 627.5 1438.5 663.231 1408.5Z" stroke="#00689B" stroke-width="6.875" stroke-linejoin="round" stroke-miterlimit="10" fill="#008FD3" fill-rule="evenodd"/><path d="M1168.5 1565.17C1168.5 1528.35 1245.28 1498.5 1340 1498.5 1434.72 1498.5 1511.5 1528.35 1511.5 1565.17L1511.5 1831.83C1511.5 1868.65 1434.72 1898.5 1340 1898.5 1245.28 1898.5 1168.5 1868.65 1168.5 1831.83Z" fill="#008FD3" fill-rule="evenodd"/><path d="M1511.5 1565.17C1511.5 1601.99 1434.72 1631.83 1340 1631.83 1245.28 1631.83 1168.5 1601.99 1168.5 1565.17" stroke="#00689B" stroke-width="6.875" stroke-linejoin="round" stroke-miterlimit="10" fill="none" fill-rule="evenodd"/><path d="M1168.5 1565.17C1168.5 1528.35 1245.28 1498.5 1340 1498.5 1434.72 1498.5 1511.5 1528.35 1511.5 1565.17L1511.5 1831.83C1511.5 1868.65 1434.72 1898.5 1340 1898.5 1245.28 1898.5 1168.5 1868.65 1168.5 1831.83Z" stroke="#00689B" stroke-width="6.875" stroke-linejoin="round" stroke-miterlimit="10" fill="none" fill-rule="evenodd"/><text fill="#FFFFFF" font-family="Arial,Arial_MSFontService,sans-serif" font-weight="400" font-size="55" transform="matrix(1 0 0 1 1284.2 1685)">AAS <tspan font-size="55" x="-71.6146" y="66">Registry &amp; </tspan><tspan font-size="55" x="-65.3125" y="132">Discovery</tspan><tspan font-size="55" x="-616.044" y="-218">AAS </tspan>Submodels</text><path d="M1328.91 921.942 1362.15 946.427 1310.6 1016.41C1302.11 1027.93 1304.57 1044.15 1316.09 1052.63 1327.61 1061.12 1343.83 1058.66 1352.31 1047.14L1403.86 977.156 1424.81 992.589 1373.26 1062.57C1364.78 1074.09 1367.24 1090.31 1378.76 1098.8 1390.28 1107.28 1406.5 1104.82 1414.98 1093.3L1466.53 1023.32 1502.06 1049.49C1506.79 1052.97 1507.8 1059.64 1504.32 1064.37L1350.49 1273.2C1347.01 1277.93 1340.34 1278.94 1335.61 1275.46L1162.46 1147.91C1157.72 1144.42 1156.71 1137.76 1160.2 1133.03L1314.02 924.199C1317.51 919.466 1324.17 918.456 1328.91 921.942Z" fill="#4FB81C" fill-rule="evenodd"/><text fill="#FFFFFF" font-family="Arial,Arial_MSFontService,sans-serif" font-weight="400" font-size="55" transform="matrix(1 0 0 1 1222.91 1146)">Provider <tspan font-size="55" x="44.1145" y="66">EDC</tspan></text><path d="M1489.95 955.155C1478.29 946.863 1475.56 930.689 1483.85 919.029L1534.22 848.194 1513.02 833.113 1462.64 903.948C1454.35 915.608 1438.18 918.338 1426.52 910.046 1414.86 901.754 1412.13 885.58 1420.42 873.92L1470.79 803.085 1434.83 777.511C1430.04 774.105 1428.92 767.46 1432.33 762.67L1582.65 551.301C1586.05 546.51 1592.7 545.389 1597.49 548.795L1772.75 673.433C1777.54 676.839 1778.66 683.484 1775.25 688.274L1624.94 899.644C1621.53 904.434 1614.88 905.555 1610.09 902.149L1576.45 878.222 1526.07 949.057C1517.78 960.717 1501.61 963.447 1489.95 955.155Z" fill="#4FB81C" fill-rule="evenodd"/><text fill="#FFFFFF" font-family="Arial,Arial_MSFontService,sans-serif" font-weight="400" font-size="55" transform="matrix(1 0 0 1 1485.69 727)">Consumer <tspan font-size="55" x="68.4522" y="66">EDC</tspan></text><path d="M517.5 418.5 1730.5 1135.12" stroke="#FFFFFF" stroke-width="9.16667" stroke-linejoin="round" stroke-miterlimit="10" stroke-dasharray="73.3333 27.5" fill="none" fill-rule="evenodd"/><path d="M0 0 726 736.617" stroke="#FFFFFF" stroke-width="9.16667" stroke-linejoin="round" stroke-miterlimit="10" stroke-dasharray="73.3333 27.5" fill="none" fill-rule="evenodd" transform="matrix(-1 0 0 1 2456.5 398.5)"/><path d="M1730.5 1125.5 1762.11 1898.33" stroke="#FFFFFF" stroke-width="9.16667" stroke-linejoin="round" stroke-miterlimit="10" stroke-dasharray="73.3333 27.5" fill="none" fill-rule="evenodd"/><rect x="1679.5" y="312.5" width="484" height="145" stroke="#666666" stroke-width="6.875" stroke-linejoin="round" stroke-miterlimit="10" fill="#FFFFFF"/><text font-family="Arial,Arial_MSFontService,sans-serif" font-weight="400" font-size="55" transform="matrix(1 0 0 1 1739.31 371)">Any <tspan font-size="55" x="110" y="0">Consumer </tspan><tspan font-size="55" x="132.619" y="66">App</tspan></text><path d="M0 0 244.452 152.757" stroke="#FFFFFF" stroke-width="9.16667" stroke-linejoin="round" stroke-miterlimit="10" fill="none" fill-rule="evenodd" transform="matrix(-1 0 0 1 1920.95 457.5)"/><path d="M0 0 188.942 216.485" stroke="#FFFFFF" stroke-width="9.16667" stroke-linejoin="round" stroke-miterlimit="10" fill="none" fill-rule="evenodd" transform="matrix(-1 0 0 1 1249.44 1210.5)"/><path d="M1254.5 1210.5 1339.31 1497.86" stroke="#FFFFFF" stroke-width="9.16667" stroke-linejoin="round" stroke-miterlimit="10" fill="none" fill-rule="evenodd"/><path d="M1054.5 1423.5 1339.9 1498.5" stroke="#FFFFFF" stroke-width="9.16667" stroke-linejoin="round" stroke-miterlimit="10" fill="none" fill-rule="evenodd"/><path d="M2252.5 751.333C2252.5 727.677 2329.28 708.5 2424 708.5 2518.72 708.5 2595.5 727.677 2595.5 751.333L2595.5 922.667C2595.5 946.323 2518.72 965.5 2424 965.5 2329.28 965.5 2252.5 946.323 2252.5 922.667Z" fill="#F0AB00" fill-rule="evenodd"/><path d="M2595.5 751.333C2595.5 774.99 2518.72 794.167 2424 794.167 2329.28 794.167 2252.5 774.99 2252.5 751.333" stroke="#B07D00" stroke-width="6.875" stroke-linejoin="round" stroke-miterlimit="10" fill="none" fill-rule="evenodd"/><path d="M2252.5 751.333C2252.5 727.677 2329.28 708.5 2424 708.5 2518.72 708.5 2595.5 727.677 2595.5 751.333L2595.5 922.667C2595.5 946.323 2518.72 965.5 2424 965.5 2329.28 965.5 2252.5 946.323 2252.5 922.667Z" stroke="#B07D00" stroke-width="6.875" stroke-linejoin="round" stroke-miterlimit="10" fill="none" fill-rule="evenodd"/><text font-family="Arial,Arial_MSFontService,sans-serif" font-weight="400" font-size="55" transform="matrix(1 0 0 1 2303.1 873)">Discovery <tspan font-size="55" x="42.6936" y="66">Finder</tspan></text><path d="M2285.5 1142.33C2285.5 1118.68 2362.28 1099.5 2457 1099.5 2551.72 1099.5 2628.5 1118.68 2628.5 1142.33L2628.5 1313.67C2628.5 1337.32 2551.72 1356.5 2457 1356.5 2362.28 1356.5 2285.5 1337.32 2285.5 1313.67Z" fill="#F0AB00" fill-rule="evenodd"/><path d="M2628.5 1142.33C2628.5 1165.99 2551.72 1185.17 2457 1185.17 2362.28 1185.17 2285.5 1165.99 2285.5 1142.33" stroke="#B07D00" stroke-width="6.875" stroke-linejoin="round" stroke-miterlimit="10" fill="none" fill-rule="evenodd"/><path d="M2285.5 1142.33C2285.5 1118.68 2362.28 1099.5 2457 1099.5 2551.72 1099.5 2628.5 1118.68 2628.5 1142.33L2628.5 1313.67C2628.5 1337.32 2551.72 1356.5 2457 1356.5 2362.28 1356.5 2285.5 1337.32 2285.5 1313.67Z" stroke="#B07D00" stroke-width="6.875" stroke-linejoin="round" stroke-miterlimit="10" fill="none" fill-rule="evenodd"/><text font-family="Arial,Arial_MSFontService,sans-serif" font-weight="400" font-size="55" transform="matrix(1 0 0 1 2399.66 1264)">BPN <tspan font-size="55" x="-63.8916" y="66">Discovery</tspan></text><path d="M2009.5 1483.5C2009.5 1459.75 2086.28 1440.5 2181 1440.5 2275.72 1440.5 2352.5 1459.75 2352.5 1483.5L2352.5 1655.5C2352.5 1679.25 2275.72 1698.5 2181 1698.5 2086.28 1698.5 2009.5 1679.25 2009.5 1655.5Z" fill="#F0AB00" fill-rule="evenodd"/><path d="M2352.5 1483.5C2352.5 1507.25 2275.72 1526.5 2181 1526.5 2086.28 1526.5 2009.5 1507.25 2009.5 1483.5" stroke="#B07D00" stroke-width="6.875" stroke-linejoin="round" stroke-miterlimit="10" fill="none" fill-rule="evenodd"/><path d="M2009.5 1483.5C2009.5 1459.75 2086.28 1440.5 2181 1440.5 2275.72 1440.5 2352.5 1459.75 2352.5 1483.5L2352.5 1655.5C2352.5 1679.25 2275.72 1698.5 2181 1698.5 2086.28 1698.5 2009.5 1679.25 2009.5 1655.5Z" stroke="#B07D00" stroke-width="6.875" stroke-linejoin="round" stroke-miterlimit="10" fill="none" fill-rule="evenodd"/><text font-family="Arial,Arial_MSFontService,sans-serif" font-weight="400" font-size="55" transform="matrix(1 0 0 1 2122.86 1605)">EDC <tspan font-size="55" x="-62.448" y="66">Discovery</tspan></text><path d="M1921.5 457.5 2252.85 837.341" stroke="#FFFFFF" stroke-width="9.16667" stroke-linejoin="round" stroke-miterlimit="10" fill="none" fill-rule="evenodd"/><path d="M1921.5 457.5 2285.52 1228.21" stroke="#FFFFFF" stroke-width="9.16667" stroke-linejoin="round" stroke-miterlimit="10" fill="none" fill-rule="evenodd"/><path d="M1656.5 842.5 2181.14 1440.53" stroke="#FFFFFF" stroke-width="9.16667" stroke-linejoin="round" stroke-miterlimit="10" fill="none" fill-rule="evenodd"/><path d="M1229.5 269.5C1229.5 255.141 1242.48 243.5 1258.5 243.5 1274.52 243.5 1287.5 255.141 1287.5 269.5 1287.5 283.859 1274.52 295.5 1258.5 295.5 1242.48 295.5 1229.5 283.859 1229.5 269.5Z" stroke="#FFFFFF" stroke-width="9.16667" stroke-miterlimit="8" fill="none" fill-rule="evenodd"/><path d="M1258.5 295.5 1258.5 370.18" stroke="#FFFFFF" stroke-width="9.16667" stroke-linejoin="round" stroke-miterlimit="10" fill="none" fill-rule="evenodd"/><path d="M0 0 57.7345 52.447" stroke="#FFFFFF" stroke-width="9.16667" stroke-linejoin="round" stroke-miterlimit="10" fill="none" fill-rule="evenodd" transform="matrix(-1 0 0 1 1258.23 364.5)"/><path d="M0 0 57.7345 52.447" stroke="#FFFFFF" stroke-width="9.16667" stroke-linejoin="round" stroke-miterlimit="10" fill="none" fill-rule="evenodd" transform="matrix(-1 0 0 1 1258.23 307.5)"/><path d="M1298.24 418.89 1258.5 366.5" stroke="#FFFFFF" stroke-width="9.16667" stroke-linejoin="round" stroke-miterlimit="10" fill="none" fill-rule="evenodd"/><path d="M1310.04 350.624 1258.5 308.5" stroke="#FFFFFF" stroke-width="9.16667" stroke-linejoin="round" stroke-miterlimit="10" fill="none" fill-rule="evenodd"/><text fill="#FFFFFF" font-family="Arial,Arial_MSFontService,sans-serif" font-weight="400" font-size="55" transform="matrix(1 0 0 1 1054.77 218)">Data Consumer</text><path d="M731.5 903C731.5 888.365 744.26 876.5 760 876.5 775.74 876.5 788.5 888.365 788.5 903 788.5 917.636 775.74 929.5 760 929.5 744.26 929.5 731.5 917.636 731.5 903Z" stroke="#FFFFFF" stroke-width="9.16667" stroke-miterlimit="8" fill="none" fill-rule="evenodd"/><path d="M759.5 929.5 759.5 1004.18" stroke="#FFFFFF" stroke-width="9.16667" stroke-linejoin="round" stroke-miterlimit="10" fill="none" fill-rule="evenodd"/><path d="M0 0 57.7345 52.447" stroke="#FFFFFF" stroke-width="9.16667" stroke-linejoin="round" stroke-miterlimit="10" fill="none" fill-rule="evenodd" transform="matrix(-1 0 0 1 760.235 998.5)"/><path d="M0 0 57.7345 52.447" stroke="#FFFFFF" stroke-width="9.16667" stroke-linejoin="round" stroke-miterlimit="10" fill="none" fill-rule="evenodd" transform="matrix(-1 0 0 1 760.235 940.5)"/><path d="M799.244 1051.89 759.5 999.5" stroke="#FFFFFF" stroke-width="9.16667" stroke-linejoin="round" stroke-miterlimit="10" fill="none" fill-rule="evenodd"/><path d="M811.041 983.624 759.5 941.5" stroke="#FFFFFF" stroke-width="9.16667" stroke-linejoin="round" stroke-miterlimit="10" fill="none" fill-rule="evenodd"/><text fill="#FFFFFF" font-family="Arial,Arial_MSFontService,sans-serif" font-weight="400" font-size="55" transform="matrix(1 0 0 1 556.362 851)">Data Provider</text><path d="M2514.5 1501.5C2514.5 1487.14 2527.48 1475.5 2543.5 1475.5 2559.52 1475.5 2572.5 1487.14 2572.5 1501.5 2572.5 1515.86 2559.52 1527.5 2543.5 1527.5 2527.48 1527.5 2514.5 1515.86 2514.5 1501.5Z" stroke="#FFFFFF" stroke-width="9.16667" stroke-miterlimit="8" fill="none" fill-rule="evenodd"/><path d="M2543.5 1527.5 2543.5 1602.18" stroke="#FFFFFF" stroke-width="9.16667" stroke-linejoin="round" stroke-miterlimit="10" fill="none" fill-rule="evenodd"/><path d="M0 0 57.7345 52.447" stroke="#FFFFFF" stroke-width="9.16667" stroke-linejoin="round" stroke-miterlimit="10" fill="none" fill-rule="evenodd" transform="matrix(-1 0 0 1 2544.23 1596.5)"/><path d="M0 0 57.7345 52.447" stroke="#FFFFFF" stroke-width="9.16667" stroke-linejoin="round" stroke-miterlimit="10" fill="none" fill-rule="evenodd" transform="matrix(-1 0 0 1 2544.23 1538.5)"/><path d="M2583.24 1649.89 2543.5 1597.5" stroke="#FFFFFF" stroke-width="9.16667" stroke-linejoin="round" stroke-miterlimit="10" fill="none" fill-rule="evenodd"/><path d="M2595.04 1582.62 2543.5 1540.5" stroke="#FFFFFF" stroke-width="9.16667" stroke-linejoin="round" stroke-miterlimit="10" fill="none" fill-rule="evenodd"/><text fill="#FFFFFF" font-family="Arial,Arial_MSFontService,sans-serif" font-weight="400" font-size="55" transform="matrix(1 0 0 1 2476.05 1443)">OpCo</text><rect x="1798" y="1824" width="301" height="73.9999" fill="#008FD3"/><rect x="1798" y="1915" width="301" height="72.9999" fill="#F0AB00"/><rect x="1798" y="2006" width="301" height="72.9999" fill="#4FB81C"/><text fill="#FFFFFF" font-family="Arial,Arial_MSFontService,sans-serif" font-weight="400" font-size="48" transform="matrix(1 0 0 1 2135.46 1889)">Standard adopted from IDTA<tspan font-size="48" x="0" y="89">Standard specified by CX </tspan><tspan font-size="48" x="557.448" y="89">e.V.</tspan><tspan font-size="48" x="0" y="186">Standard adopted from IDSA</tspan></text><path d="M1798.5 2149.5 2072.26 2149.5" stroke="#FFFFFF" stroke-width="9.16667" stroke-linejoin="round" stroke-miterlimit="10" fill="none" fill-rule="evenodd"/><text fill="#FFFFFF" font-family="Arial,Arial_MSFontService,sans-serif" font-weight="400" font-size="48" transform="matrix(1 0 0 1 2132.56 2162)">Interaction</text><path d="M1798.5 2237.5 2100.13 2237.5" stroke="#FFFFFF" stroke-width="9.16667" stroke-linejoin="round" stroke-miterlimit="10" stroke-dasharray="73.3333 27.5" fill="none" fill-rule="evenodd"/><text fill="#FFFFFF" font-family="Arial,Arial_MSFontService,sans-serif" font-weight="400" font-size="48" transform="matrix(1 0 0 1 2132.56 2249)">Organizational<tspan font-size="48" x="324.844" y="0">boundaries</tspan></text></g></svg>