<svg width="149" height="149" viewBox="0 0 149 149" fill="none" xmlns="http://www.w3.org/2000/svg">
<rect x="82" y="35.8095" width="39" height="39" stroke="white" stroke-width="2"/>
<rect x="15" y="80.8095" width="39" height="39" stroke="white" stroke-width="2"/>
<rect x="99" y="23.8095" width="39" height="39" stroke="white" stroke-width="2"/>
<rect x="32" y="68.8095" width="39" height="39" stroke="white" stroke-width="2"/>
<line x1="121.423" y1="34.9925" x2="138.423" y2="22.9925" stroke="white" stroke-width="2"/>
<line x1="54.4233" y1="79.9925" x2="71.4233" y2="67.9925" stroke="white" stroke-width="2"/>
<line x1="121.423" y1="74.9925" x2="138.423" y2="62.9925" stroke="white" stroke-width="2"/>
<line x1="54.4233" y1="119.993" x2="71.4233" y2="107.993" stroke="white" stroke-width="2"/>
<line x1="81.4233" y1="74.9925" x2="98.4233" y2="62.9925" stroke="white" stroke-width="2"/>
<line x1="14.4233" y1="119.993" x2="31.4233" y2="107.993" stroke="white" stroke-width="2"/>
<line x1="80.4453" y1="34.9775" x2="98.4453" y2="22.9775" stroke="white" stroke-width="2"/>
<line x1="13.4453" y1="79.9775" x2="31.4453" y2="67.9775" stroke="white" stroke-width="2"/>
<path d="M36.0056 39.9631L27.9997 50.8096L36.0056 39.9631ZM36.0056 39.9631C40.7186 33.5778 48.1836 29.8095 56.1199 29.8096M36.0056 39.9631C40.7186 33.5778 48.1836 29.8095 56.1199 29.8096M56.1199 29.8096L66.9997 29.8096L56.1199 29.8096Z" stroke="white"/>
<path d="M109.769 93.499L114.321 80.8095L109.769 93.499ZM109.769 93.499C107.09 100.969 101.023 106.724 93.421 109.004M109.769 93.499C107.09 100.969 101.023 106.724 93.421 109.004M93.421 109.004L83 112.13L93.421 109.004Z" stroke="white"/>
</svg>
