<svg width="3809" height="1530" xmlns="http://www.w3.org/2000/svg" xmlns:xlink="http://www.w3.org/1999/xlink" xml:space="preserve" overflow="hidden"><g transform="translate(-546 -849)"><rect x="550.5" y="853.5" width="3800" height="1521" stroke="#FFFFFF" stroke-width="9.16667" stroke-miterlimit="8" fill="#262626"/><text fill="#FFFFFF" font-family="Arial,Arial_MSFontService,sans-serif" font-weight="400" font-size="64" transform="matrix(1 0 0 1 614.235 2009)">Identity Layer</text><text fill="#FFFFFF" font-family="Arial,Arial_MSFontService,sans-serif" font-weight="400" font-size="64" transform="matrix(1 0 0 1 612.195 1776)">Sovereignty Layer</text><text fill="#FFFFFF" font-family="Arial,Arial_MSFontService,sans-serif" font-weight="400" font-size="64" transform="matrix(1 0 0 1 601.651 1544)">Interoperability Layer</text><text fill="#FFFFFF" font-family="Arial,Arial_MSFontService,sans-serif" font-weight="400" font-size="64" transform="matrix(1 0 0 1 612.195 1078)">Data Model Layer</text><text fill="#FFFFFF" font-family="Arial,Arial_MSFontService,sans-serif" font-weight="400" font-size="64" transform="matrix(1 0 0 1 612.195 1311)">Objects Layer</text><rect x="1256.5" y="1864.5" width="3019" height="222" stroke="#7F7F7F" stroke-width="9.16667" stroke-miterlimit="8" fill="#D9D9D9"/><text font-family="Arial,Arial_MSFontService,sans-serif" font-weight="400" font-size="64" transform="matrix(1 0 0 1 1961.09 1999)">CX</text><text font-family="Arial,Arial_MSFontService,sans-serif" font-weight="400" font-size="64" transform="matrix(1 0 0 1 2050.46 1999)">-</text><text font-family="Arial,Arial_MSFontService,sans-serif" font-weight="400" font-size="64" transform="matrix(1 0 0 1 2071.66 1999)">0013, </text><text font-family="Arial,Arial_MSFontService,sans-serif" font-weight="400" font-size="64" transform="matrix(1 0 0 1 2249.27 1999)">-</text><text font-family="Arial,Arial_MSFontService,sans-serif" font-weight="400" font-size="64" transform="matrix(1 0 0 1 2270.46 1999)">0014, </text><text font-family="Arial,Arial_MSFontService,sans-serif" font-weight="400" font-size="64" transform="matrix(1 0 0 1 2448.07 1999)">-</text><text font-family="Arial,Arial_MSFontService,sans-serif" font-weight="400" font-size="64" transform="matrix(1 0 0 1 2469.27 1999)">0015, </text><text font-family="Arial,Arial_MSFontService,sans-serif" font-weight="400" font-size="64" transform="matrix(1 0 0 1 2646.87 1999)">-</text><text font-family="Arial,Arial_MSFontService,sans-serif" font-weight="400" font-size="64" transform="matrix(1 0 0 1 2668.07 1999)">0016, </text><text font-family="Arial,Arial_MSFontService,sans-serif" font-weight="400" font-size="64" transform="matrix(1 0 0 1 2845.67 1999)">-</text><text font-family="Arial,Arial_MSFontService,sans-serif" font-weight="400" font-size="64" transform="matrix(1 0 0 1 2866.87 1999)">0017, </text><text font-family="Arial,Arial_MSFontService,sans-serif" font-weight="400" font-size="64" transform="matrix(1 0 0 1 3044.47 1999)">-</text><text font-family="Arial,Arial_MSFontService,sans-serif" font-weight="400" font-size="64" transform="matrix(1 0 0 1 3065.67 1999)">0050, </text><text font-family="Arial,Arial_MSFontService,sans-serif" font-weight="400" font-size="64" transform="matrix(1 0 0 1 3243.28 1999)">-</text><text font-family="Arial,Arial_MSFontService,sans-serif" font-weight="400" font-size="64" transform="matrix(1 0 0 1 3264.47 1999)">0051 (SSI)</text><rect x="1256.5" y="1640.5" width="3019" height="223" stroke="#7F7F7F" stroke-width="9.16667" stroke-miterlimit="8" fill="#D9D9D9"/><text font-family="Arial,Arial_MSFontService,sans-serif" font-weight="400" font-size="64" transform="matrix(1 0 0 1 2273.04 1775)">CX</text><text font-family="Arial,Arial_MSFontService,sans-serif" font-weight="400" font-size="64" transform="matrix(1 0 0 1 2362.42 1775)">-</text><text font-family="Arial,Arial_MSFontService,sans-serif" font-weight="400" font-size="64" transform="matrix(1 0 0 1 2383.61 1775)">0018 </text><text font-family="Arial,Arial_MSFontService,sans-serif" font-weight="400" font-size="64" transform="matrix(1 0 0 1 2543.46 1775)">(Dataspace Connectivity)</text><rect x="1256.5" y="1199.5" width="1514" height="223" stroke="#D9D9D9" stroke-width="9.16667" stroke-miterlimit="8" fill="#DAF7CB"/><text font-family="Arial,Arial_MSFontService,sans-serif" font-weight="400" font-size="64" transform="matrix(1 0 0 1 1628.94 1334)">specificAssetIds</text><text font-family="Arial,Arial_MSFontService,sans-serif" font-weight="400" font-size="64" transform="matrix(1 0 0 1 2106.18 1334)">(part type)</text><rect x="2247.5" y="935.5" width="523" height="152" stroke="#D9D9D9" stroke-width="9.16667" stroke-miterlimit="8" fill="#DAF7CB"/><text font-family="Arial,Arial_MSFontService,sans-serif" font-weight="400" font-size="50" transform="matrix(1 0 0 1 2377.34 1000)">SingleLevel</text><text font-family="Arial,Arial_MSFontService,sans-serif" font-weight="400" font-size="50" transform="matrix(1 0 0 1 2334.07 1061)">BomAsPlanned</text><rect x="2770.5" y="1199.5" width="1505" height="223" stroke="#D9D9D9" stroke-width="9.16667" stroke-miterlimit="8" fill="#FFEFC9"/><text font-family="Arial,Arial_MSFontService,sans-serif" font-weight="400" font-size="64" transform="matrix(1 0 0 1 3079.61 1334)">specificAssetIds</text><text font-family="Arial,Arial_MSFontService,sans-serif" font-weight="400" font-size="64" transform="matrix(1 0 0 1 3556.85 1334)">(part instance)</text><rect x="2770.5" y="935.5" width="525" height="152" stroke="#D9D9D9" stroke-width="9.16667" stroke-miterlimit="8" fill="#FFEFC9"/><text font-family="Arial,Arial_MSFontService,sans-serif" font-weight="400" font-size="50" transform="matrix(1 0 0 1 2901.4 1000)">SingleLevel</text><text font-family="Arial,Arial_MSFontService,sans-serif" font-weight="400" font-size="50" transform="matrix(1 0 0 1 2901.67 1061)">BomAsBuilt</text><rect x="1831.5" y="935.5" width="416" height="263" stroke="#D9D9D9" stroke-width="9.16667" stroke-miterlimit="8" fill="#DAF7CB"/><text font-family="Arial,Arial_MSFontService,sans-serif" font-weight="400" font-size="50" transform="matrix(1 0 0 1 1870.47 1085)">PartAsPlanned</text><rect x="3295.5" y="935.5" width="416" height="263" stroke="#D9D9D9" stroke-width="9.16667" stroke-miterlimit="8" fill="#FFEFC9"/><text font-family="Arial,Arial_MSFontService,sans-serif" font-weight="400" font-size="50" transform="matrix(1 0 0 1 3377.9 1085)">PartAsBuilt</text><rect x="2249.5" y="1084.5" width="523" height="114" stroke="#D9D9D9" stroke-width="9.16667" stroke-miterlimit="8" fill="#DAF7CB"/><rect x="2772.5" y="1084.5" width="525" height="114" stroke="#D9D9D9" stroke-width="9.16667" stroke-miterlimit="8" fill="#FFEFC9"/><text font-family="Arial,Arial_MSFontService,sans-serif" font-weight="400" font-size="50" transform="matrix(1 0 0 1 2565.55 1166)">Data Chain Template</text><rect x="727.5" y="2280.5" width="280" height="57" stroke="#D9D9D9" stroke-width="6.875" stroke-miterlimit="8" fill="#DAF7CB"/><text font-family="Arial,Arial_MSFontService,sans-serif" font-weight="400" font-size="41" transform="matrix(1 0 0 1 785.557 2323)">CX</text><text font-family="Arial,Arial_MSFontService,sans-serif" font-weight="400" font-size="41" transform="matrix(1 0 0 1 842.849 2323)">-</text><text font-family="Arial,Arial_MSFontService,sans-serif" font-weight="400" font-size="41" transform="matrix(1 0 0 1 856.599 2323)">0126</text><rect x="727.5" y="2188.5" width="281" height="56.9998" stroke="#D9D9D9" stroke-width="6.875" stroke-miterlimit="8" fill="#FFEFC9"/><text font-family="Arial,Arial_MSFontService,sans-serif" font-weight="400" font-size="41" transform="matrix(1 0 0 1 786.179 2232)">CX</text><text font-family="Arial,Arial_MSFontService,sans-serif" font-weight="400" font-size="41" transform="matrix(1 0 0 1 843.471 2232)">-</text><text font-family="Arial,Arial_MSFontService,sans-serif" font-weight="400" font-size="41" transform="matrix(1 0 0 1 857.221 2232)">0127</text><rect x="1256.5" y="935.5" width="277" height="263" stroke="#7F7F7F" stroke-width="9.16667" stroke-miterlimit="8" fill="#FFFFFF"/><text font-family="Arial,Arial_MSFontService,sans-serif" font-weight="400" font-size="50" transform="matrix(1 0 0 1 1299.52 994)">Arbitrary </text><text font-family="Arial,Arial_MSFontService,sans-serif" font-weight="400" font-size="50" transform="matrix(1 0 0 1 1337.34 1055)">other </text><text font-family="Arial,Arial_MSFontService,sans-serif" font-weight="400" font-size="50" transform="matrix(1 0 0 1 1341.35 1115)">Data </text><text font-family="Arial,Arial_MSFontService,sans-serif" font-weight="400" font-size="50" transform="matrix(1 0 0 1 1313.27 1176)">Models</text><rect x="3999.5" y="935.5" width="276" height="263" stroke="#7F7F7F" stroke-width="9.16667" stroke-miterlimit="8" fill="#FFFFFF"/><text font-family="Arial,Arial_MSFontService,sans-serif" font-weight="400" font-size="50" transform="matrix(1 0 0 1 4041.77 994)">Arbitrary </text><text font-family="Arial,Arial_MSFontService,sans-serif" font-weight="400" font-size="50" transform="matrix(1 0 0 1 4079.58 1055)">other </text><text font-family="Arial,Arial_MSFontService,sans-serif" font-weight="400" font-size="50" transform="matrix(1 0 0 1 4083.59 1115)">Data </text><text font-family="Arial,Arial_MSFontService,sans-serif" font-weight="400" font-size="50" transform="matrix(1 0 0 1 4055.52 1176)">Models</text><rect x="1075.5" y="2188.5" width="282" height="56.9998" stroke="#D9D9D9" stroke-width="9.16667" stroke-miterlimit="8" fill="#FFFFFF"/><text font-family="Arial,Arial_MSFontService,sans-serif" font-weight="400" font-size="41" transform="matrix(1 0 0 1 1141.55 2232)">add</text><text font-family="Arial,Arial_MSFontService,sans-serif" font-weight="400" font-size="41" transform="matrix(1 0 0 1 1210.3 2232)">-</text><text font-family="Arial,Arial_MSFontService,sans-serif" font-weight="400" font-size="41" transform="matrix(1 0 0 1 1224.05 2232)">ons</text><rect x="1077.5" y="2277.5" width="282" height="57" stroke="#D9D9D9" stroke-width="9.16667" stroke-miterlimit="8" fill="#D9D9D9"/><text font-family="Arial,Arial_MSFontService,sans-serif" font-weight="400" font-size="41" transform="matrix(1 0 0 1 1122.02 2321)">foundation</text><rect x="1256.5" y="1420.5" width="3019" height="223" stroke="#7F7F7F" stroke-width="9.16667" stroke-miterlimit="8" fill="#D9D9D9"/><text font-family="Arial,Arial_MSFontService,sans-serif" font-weight="400" font-size="64" transform="matrix(1 0 0 1 1842.49 1555)">CX</text><text font-family="Arial,Arial_MSFontService,sans-serif" font-weight="400" font-size="64" transform="matrix(1 0 0 1 1931.87 1555)">-</text><text font-family="Arial,Arial_MSFontService,sans-serif" font-weight="400" font-size="64" transform="matrix(1 0 0 1 1953.07 1555)">0001 (Discovery), CX</text><text font-family="Arial,Arial_MSFontService,sans-serif" font-weight="400" font-size="64" transform="matrix(1 0 0 1 2561.5 1555)">-</text><text font-family="Arial,Arial_MSFontService,sans-serif" font-weight="400" font-size="64" transform="matrix(1 0 0 1 2582.7 1555)">0002 (Digital Twins</text><text font-family="Arial,Arial_MSFontService,sans-serif" font-weight="400" font-size="64" transform="matrix(1 0 0 1 3126.97 1555)">), CX</text><text font-family="Arial,Arial_MSFontService,sans-serif" font-weight="400" font-size="64" transform="matrix(1 0 0 1 3273.07 1555)">-</text><text font-family="Arial,Arial_MSFontService,sans-serif" font-weight="400" font-size="64" transform="matrix(1 0 0 1 3294.27 1555)">0003 (SAMM)</text></g></svg>