<svg width="285" height="244" viewBox="0 0 285 244" fill="none" xmlns="http://www.w3.org/2000/svg">
<g clip-path="url(#clip0_778_3918)">
<path d="M122.73 91.3282C133.388 85.1756 150.667 85.1756 161.324 91.3282L254.027 144.845C264.684 150.998 264.684 160.973 254.027 167.126L161.324 220.643C150.667 226.796 133.388 226.796 122.73 220.643L30.0274 167.126C19.37 160.973 19.37 150.998 30.0274 144.845L122.73 91.3282Z" fill="#FDC600" fill-opacity="0.9"/>
<path fill-rule="evenodd" clip-rule="evenodd" d="M253.062 157.602L160.359 104.084C150.235 98.2395 133.82 98.2395 123.695 104.084L30.9923 157.602C20.8677 163.447 20.8677 172.923 30.9923 178.768L123.695 232.285C133.82 238.13 150.235 238.13 160.359 232.285L253.062 178.768C263.187 172.923 263.186 163.447 253.062 157.602ZM161.324 103.527C150.667 97.3748 133.388 97.3748 122.73 103.527L30.0274 157.045C19.37 163.197 19.37 173.172 30.0274 179.325L122.73 232.842C133.388 238.995 150.667 238.995 161.324 232.842L254.027 179.325C264.684 173.172 264.684 163.197 254.027 157.045L161.324 103.527Z" fill="#FDC600"/>
<path d="M123.347 64.188C134.004 58.0355 151.283 58.0355 161.941 64.188L254.643 117.705C265.301 123.858 265.301 133.833 254.643 139.986L161.941 193.503C151.283 199.655 134.004 199.655 123.347 193.503L30.6441 139.986C19.9867 133.833 19.9867 123.858 30.6441 117.705L123.347 64.188Z" fill="#FFA600" fill-opacity="0.9"/>
<g filter="url(#filter0_ddddd_778_3918)">
<path fill-rule="evenodd" clip-rule="evenodd" d="M253.679 130.461L160.976 76.9442C150.851 71.0993 134.436 71.0993 124.312 76.9443L31.609 130.461C21.4844 136.306 21.4844 145.783 31.609 151.628L124.312 205.145C134.436 210.99 150.851 210.99 160.976 205.145L253.679 151.628C263.803 145.783 263.803 136.306 253.679 130.461ZM161.941 76.3872C151.283 70.2347 134.004 70.2347 123.347 76.3872L30.6441 129.904C19.9867 136.057 19.9867 146.032 30.6441 152.185L123.347 205.702C134.004 211.855 151.283 211.855 161.941 205.702L254.643 152.185C265.301 146.032 265.301 136.057 254.643 129.904L161.941 76.3872Z" fill="#FFA600"/>
</g>
<path d="M123.347 38.2808C134.004 32.1283 151.283 32.1282 161.941 38.2808L254.643 91.798C265.301 97.9506 265.301 107.926 254.643 114.078L161.941 167.596C151.283 173.748 134.004 173.748 123.347 167.596L30.6441 114.078C19.9867 107.926 19.9867 97.9506 30.6441 91.798L123.347 38.2808Z" fill="#FF8A01" fill-opacity="0.9"/>
<path fill-rule="evenodd" clip-rule="evenodd" d="M253.679 104.554L160.976 51.037C150.851 45.1921 134.436 45.1921 124.312 51.037L31.609 104.554C21.4844 110.399 21.4844 119.876 31.609 125.721L124.312 179.238C134.436 185.083 150.851 185.083 160.976 179.238L253.679 125.721C263.803 119.876 263.803 110.399 253.679 104.554ZM161.941 50.48C151.283 44.3275 134.004 44.3275 123.347 50.48L30.6441 103.997C19.9867 110.15 19.9867 120.125 30.6441 126.278L123.347 179.795C134.004 185.947 151.283 185.947 161.941 179.795L254.643 126.278C265.301 120.125 265.301 110.15 254.643 103.997L161.941 50.48Z" fill="#FF8A01"/>
<path d="M123.347 11.1402C134.005 4.98763 151.284 4.98762 161.941 11.1402L254.644 64.6574C265.301 70.81 265.301 80.7852 254.644 86.9378L161.941 140.455C151.284 146.608 134.005 146.608 123.347 140.455L30.6446 86.9378C19.9872 80.7852 19.9872 70.81 30.6446 64.6574L123.347 11.1402Z" fill="#FFA601"/>
<path fill-rule="evenodd" clip-rule="evenodd" d="M253.679 77.4136L160.976 23.8964C150.852 18.0515 134.437 18.0515 124.312 23.8964L31.6095 77.4136C21.4849 83.2586 21.4849 92.7351 31.6095 98.58L124.312 152.097C134.437 157.942 150.852 157.942 160.976 152.097L253.679 98.58C263.804 92.735 263.804 83.2586 253.679 77.4136ZM161.941 23.3394C151.284 17.1868 134.005 17.1868 123.347 23.3394L30.6446 76.8566C19.9872 83.0092 19.9872 92.9844 30.6446 99.137L123.347 152.654C134.005 158.807 151.284 158.807 161.941 152.654L254.644 99.137C265.301 92.9844 265.301 83.0092 254.644 76.8566L161.941 23.3394Z" fill="#FFA601"/>
<path fill-rule="evenodd" clip-rule="evenodd" d="M123.588 47.651C128.645 44.7314 136.845 44.7314 141.902 47.651L181.5 70.5109C186.557 73.4304 186.557 78.164 181.5 81.0836L141.902 103.944C136.845 106.863 128.645 106.863 123.588 103.944L83.99 81.0836C78.9327 78.164 78.9327 73.4305 83.99 70.5109L123.588 47.651ZM138.437 49.6512C135.294 47.8363 130.197 47.8363 127.053 49.6512L87.4548 72.5111C84.3111 74.326 84.3111 77.2685 87.4548 79.0834L127.053 101.943C130.196 103.758 135.293 103.758 138.437 101.943L178.035 79.0833C181.179 77.2685 181.179 74.326 178.035 72.5111L138.437 49.6512Z" fill="white"/>
<path fill-rule="evenodd" clip-rule="evenodd" d="M159.777 50.5449C159.453 50.3581 159.135 50.1745 158.798 49.9798C157.666 49.326 157.151 48.4295 158.364 47.7291C159.463 47.0947 160.791 47.126 161.991 47.8191C162.606 48.1732 162.585 48.1654 163.242 48.5447L167.061 50.7496C168.018 51.3019 168.018 52.1975 167.061 52.7498C166.104 53.3022 164.553 53.3022 163.596 52.7498L159.777 50.5449ZM174.489 57.0381C175.446 56.4858 176.997 56.4858 177.954 57.0381L185.593 61.448C186.55 62.0004 186.55 62.8959 185.593 63.4483C184.636 64.0006 183.085 64.0006 182.128 63.4483L174.489 59.0384C173.533 58.486 173.533 57.5905 174.489 57.0381ZM193.021 67.7366C193.978 67.1842 195.529 67.1842 196.486 67.7366L200.305 69.9415C201.199 70.4572 201.937 71.0315 202.516 71.6439C203.165 72.3294 202.729 73.1887 201.542 73.5634C200.354 73.938 198.866 73.686 198.217 73.0006C197.858 72.6221 197.401 72.265 196.841 71.9417L193.021 69.7368C192.064 69.1844 192.064 68.2889 193.021 67.7366ZM151.789 45.5961C152.438 46.2815 152.002 47.1409 150.815 47.5155C150.438 47.6343 150.082 47.7864 149.759 47.9732C148.802 48.5255 147.25 48.5255 146.294 47.9732C145.337 47.4208 145.337 46.5253 146.294 45.9729C146.951 45.5937 147.683 45.28 148.465 45.0333C149.652 44.6587 151.141 44.9107 151.789 45.5961ZM201.542 78.0353C202.729 78.41 203.165 79.2693 202.516 79.9548C201.937 80.5672 201.199 81.1415 200.305 81.6572L196.434 83.892C195.477 84.4444 193.926 84.4444 192.969 83.892C192.013 83.3397 192.013 82.4442 192.969 81.8918L196.841 79.657C197.401 79.3337 197.858 78.9766 198.217 78.5981C198.866 77.9127 200.354 77.6607 201.542 78.0353ZM185.855 87.9993C186.812 88.5516 186.812 89.4472 185.855 89.9995L178.112 94.4692C177.156 95.0216 175.604 95.0216 174.648 94.4692C173.691 93.9169 173.691 93.0213 174.648 92.469L182.39 87.9993C183.347 87.4469 184.898 87.4469 185.855 87.9993ZM168.028 98.2907C168.985 98.843 168.985 99.7386 168.028 100.291L164.157 102.526C163.556 102.873 163.786 102.74 163.236 103.058C162.272 103.614 160.839 103.736 159.717 103.088C158.31 102.276 158.945 101.534 159.928 100.966C160.159 100.833 160.424 100.68 160.692 100.526L164.563 98.2907C165.52 97.7384 167.071 97.7383 168.028 98.2907ZM151.681 105.966C151.032 106.652 149.543 106.904 148.356 106.529C147.64 106.303 146.97 106.016 146.369 105.669C145.412 105.117 145.412 104.221 146.369 103.669C147.325 103.116 148.877 103.116 149.833 103.669C150.101 103.823 150.395 103.949 150.706 104.047C151.893 104.422 152.33 105.281 151.681 105.966Z" fill="white"/>
</g>
<defs>
<filter id="filter0_ddddd_778_3918" x="-42.3489" y="57.7729" width="391.985" height="418.543" filterUnits="userSpaceOnUse" color-interpolation-filters="sRGB">
<feFlood flood-opacity="0" result="BackgroundImageFix"/>
<feColorMatrix in="SourceAlpha" type="matrix" values="0 0 0 0 0 0 0 0 0 0 0 0 0 0 0 0 0 0 127 0" result="hardAlpha"/>
<feOffset/>
<feColorMatrix type="matrix" values="0 0 0 0 0 0 0 0 0 0 0 0 0 0 0 0 0 0 0.1 0"/>
<feBlend mode="normal" in2="BackgroundImageFix" result="effect1_dropShadow_778_3918"/>
<feColorMatrix in="SourceAlpha" type="matrix" values="0 0 0 0 0 0 0 0 0 0 0 0 0 0 0 0 0 0 127 0" result="hardAlpha"/>
<feOffset dx="1" dy="12"/>
<feGaussianBlur stdDeviation="13"/>
<feColorMatrix type="matrix" values="0 0 0 0 0 0 0 0 0 0 0 0 0 0 0 0 0 0 0.1 0"/>
<feBlend mode="normal" in2="effect1_dropShadow_778_3918" result="effect2_dropShadow_778_3918"/>
<feColorMatrix in="SourceAlpha" type="matrix" values="0 0 0 0 0 0 0 0 0 0 0 0 0 0 0 0 0 0 127 0" result="hardAlpha"/>
<feOffset dx="3" dy="47"/>
<feGaussianBlur stdDeviation="24"/>
<feColorMatrix type="matrix" values="0 0 0 0 0 0 0 0 0 0 0 0 0 0 0 0 0 0 0.09 0"/>
<feBlend mode="normal" in2="effect2_dropShadow_778_3918" result="effect3_dropShadow_778_3918"/>
<feColorMatrix in="SourceAlpha" type="matrix" values="0 0 0 0 0 0 0 0 0 0 0 0 0 0 0 0 0 0 127 0" result="hardAlpha"/>
<feOffset dx="6" dy="107"/>
<feGaussianBlur stdDeviation="32"/>
<feColorMatrix type="matrix" values="0 0 0 0 0 0 0 0 0 0 0 0 0 0 0 0 0 0 0.05 0"/>
<feBlend mode="normal" in2="effect3_dropShadow_778_3918" result="effect4_dropShadow_778_3918"/>
<feColorMatrix in="SourceAlpha" type="matrix" values="0 0 0 0 0 0 0 0 0 0 0 0 0 0 0 0 0 0 127 0" result="hardAlpha"/>
<feOffset dx="11" dy="190"/>
<feGaussianBlur stdDeviation="38"/>
<feColorMatrix type="matrix" values="0 0 0 0 0 0 0 0 0 0 0 0 0 0 0 0 0 0 0.01 0"/>
<feBlend mode="normal" in2="effect4_dropShadow_778_3918" result="effect5_dropShadow_778_3918"/>
<feBlend mode="normal" in="SourceGraphic" in2="effect5_dropShadow_778_3918" result="shape"/>
</filter>
<clipPath id="clip0_778_3918">
<rect width="284.342" height="243.983" fill="white" transform="translate(0.164551)"/>
</clipPath>
</defs>
</svg>
