<svg width="285" height="244" viewBox="0 0 285 244" fill="none" xmlns="http://www.w3.org/2000/svg">
<g clip-path="url(#clip0_1_1155)">
<path d="M122.73 91.3279C133.388 85.1754 150.667 85.1754 161.324 91.3279L254.027 144.845C264.684 150.998 264.684 160.973 254.027 167.125L161.324 220.643C150.667 226.795 133.388 226.795 122.73 220.643L30.0276 167.126C19.3701 160.973 19.3701 150.998 30.0275 144.845L122.73 91.3279Z" fill="#FFD976" fill-opacity="0.9"/>
<path fill-rule="evenodd" clip-rule="evenodd" d="M253.062 157.601L160.359 104.084C150.235 98.2392 133.82 98.2392 123.695 104.084L30.9925 157.601C20.8679 163.446 20.8679 172.923 30.9925 178.768L123.695 232.285C133.82 238.13 150.235 238.13 160.359 232.285L253.062 178.768C263.187 172.923 263.187 163.446 253.062 157.601ZM161.324 103.527C150.667 97.3746 133.388 97.3746 122.73 103.527L30.0276 157.044C19.3702 163.197 19.3702 173.172 30.0276 179.325L122.73 232.842C133.388 238.995 150.667 238.995 161.324 232.842L254.027 179.325C264.684 173.172 264.684 163.197 254.027 157.044L161.324 103.527Z" fill="#FFD976"/>
<path d="M123.347 64.1883C134.004 58.0357 151.283 58.0357 161.941 64.1883L254.643 117.706C265.301 123.858 265.301 133.833 254.643 139.986L161.941 193.503C151.283 199.656 134.004 199.656 123.347 193.503L30.6441 139.986C19.9866 133.833 19.9866 123.858 30.6441 117.706L123.347 64.1883Z" fill="#FFB930" fill-opacity="0.9"/>
<g filter="url(#filter0_ddddd_1_1155)">
<path fill-rule="evenodd" clip-rule="evenodd" d="M253.679 130.462L160.976 76.9447C150.851 71.0998 134.436 71.0998 124.312 76.9447L31.6089 130.462C21.4843 136.307 21.4843 145.783 31.6089 151.628L124.312 205.146C134.436 210.99 150.851 210.99 160.976 205.146L253.679 151.628C263.803 145.783 263.803 136.307 253.679 130.462ZM161.941 76.3877C151.283 70.2352 134.004 70.2352 123.347 76.3877L30.6441 129.905C19.9866 136.058 19.9866 146.033 30.6441 152.185L123.347 205.703C134.004 211.855 151.283 211.855 161.941 205.703L254.643 152.185C265.301 146.033 265.301 136.058 254.643 129.905L161.941 76.3877Z" fill="#FFB930"/>
</g>
<path d="M123.347 38.2806C134.004 32.128 151.283 32.128 161.941 38.2805L254.643 91.7978C265.301 97.9503 265.301 107.926 254.643 114.078L161.941 167.595C151.283 173.748 134.004 173.748 123.347 167.595L30.6441 114.078C19.9866 107.926 19.9866 97.9503 30.6441 91.7978L123.347 38.2806Z" fill="#FDA700" fill-opacity="0.9"/>
<path fill-rule="evenodd" clip-rule="evenodd" d="M253.679 104.554L160.976 51.0368C150.851 45.1919 134.436 45.1919 124.312 51.0368L31.609 104.554C21.4844 110.399 21.4844 119.875 31.609 125.72L124.312 179.238C134.436 185.083 150.851 185.083 160.976 179.238L253.679 125.72C263.803 119.875 263.803 110.399 253.679 104.554ZM161.941 50.4798C151.283 44.3272 134.004 44.3272 123.347 50.4798L30.6441 103.997C19.9867 110.15 19.9867 120.125 30.6441 126.277L123.347 179.795C134.004 185.947 151.283 185.947 161.941 179.795L254.643 126.277C265.301 120.125 265.301 110.15 254.643 103.997L161.941 50.4798Z" fill="#FDA700"/>
<path d="M123.347 11.1399C134.005 4.98738 151.284 4.98738 161.941 11.1399L254.644 64.6572C265.301 70.8097 265.301 80.785 254.644 86.9375L161.941 140.455C151.284 146.607 134.005 146.607 123.347 140.455L30.6445 86.9375C19.987 80.785 19.987 70.8097 30.6445 64.6572L123.347 11.1399Z" fill="#FDC600"/>
<path fill-rule="evenodd" clip-rule="evenodd" d="M253.679 77.4136L160.976 23.8964C150.852 18.0515 134.437 18.0515 124.312 23.8964L31.6093 77.4136C21.4848 83.2586 21.4848 92.7351 31.6093 98.58L124.312 152.097C134.437 157.942 150.852 157.942 160.976 152.097L253.679 98.58C263.804 92.735 263.804 83.2586 253.679 77.4136ZM161.941 23.3394C151.284 17.1868 134.005 17.1868 123.347 23.3394L30.6445 76.8566C19.987 83.0092 19.987 92.9844 30.6445 99.137L123.347 152.654C134.005 158.807 151.284 158.807 161.941 152.654L254.644 99.137C265.301 92.9844 265.301 83.0092 254.644 76.8566L161.941 23.3394Z" fill="#FDC600"/>
<path fill-rule="evenodd" clip-rule="evenodd" d="M150.304 68.1242C148.924 67.3278 146.688 67.3278 145.308 68.1242L128.126 78.0435C127.426 78.4477 126.477 78.6188 125.579 78.57C123.338 78.4481 121.033 78.882 119.322 79.8698C116.274 81.6296 116.274 84.4829 119.322 86.2427C122.37 88.0025 127.313 88.0025 130.361 86.2427C132.201 85.1803 132.933 83.7203 132.548 82.3371C132.394 81.784 132.678 81.1837 133.433 80.7478L150.304 71.0083C151.683 70.2119 151.683 68.9206 150.304 68.1242ZM141.843 66.124C145.136 64.2228 150.476 64.2228 153.769 66.124C157.062 68.0251 157.062 71.1074 153.769 73.0085L137.497 82.4022C137.818 84.4882 136.597 86.6434 133.826 88.2429C128.864 91.1074 120.819 91.1074 115.857 88.2429C110.895 85.3784 110.895 80.7341 115.857 77.8696C118.433 76.3823 121.843 75.6678 125.214 75.7243L141.843 66.124Z" fill="white"/>
<path d="M119.074 77.8131L133.924 86.3855L123.529 89.5288L113.836 83.9329L119.074 77.8131Z" fill="white"/>
<path fill-rule="evenodd" clip-rule="evenodd" d="M122.539 84.0995C121.856 83.705 121.856 83.0653 122.539 82.6708L135.904 74.9556C136.587 74.561 137.695 74.561 138.378 74.9556C139.062 75.3501 139.062 75.9898 138.378 76.3843L125.014 84.0995C124.331 84.4941 123.223 84.4941 122.539 84.0995Z" fill="white"/>
<path fill-rule="evenodd" clip-rule="evenodd" d="M129.716 60.5253C130.673 59.9729 132.224 59.9729 133.181 60.5253L138.626 63.6685C139.583 64.2209 139.583 65.1164 138.626 65.6687C137.669 66.2211 136.118 66.2211 135.161 65.6687L129.716 62.5255C128.76 61.9732 128.76 61.0776 129.716 60.5253Z" fill="white"/>
<path fill-rule="evenodd" clip-rule="evenodd" d="M124.767 63.3828C125.723 62.8304 127.275 62.8304 128.231 63.3828L133.676 66.526C134.633 67.0783 134.633 67.9739 133.676 68.5262C132.719 69.0786 131.168 69.0786 130.211 68.5262L124.767 65.383C123.81 64.8306 123.81 63.9351 124.767 63.3828Z" fill="white"/>
<path fill-rule="evenodd" clip-rule="evenodd" d="M119.817 66.2402C120.774 65.6879 122.325 65.6879 123.282 66.2402L128.726 69.3835C129.683 69.9358 129.683 70.8314 128.726 71.3837C127.77 71.9361 126.218 71.9361 125.262 71.3837L119.817 68.2405C118.86 67.6881 118.86 66.7926 119.817 66.2402Z" fill="white"/>
<path fill-rule="evenodd" clip-rule="evenodd" d="M123.588 47.8433C128.645 44.9238 136.845 44.9238 141.902 47.8433L181.5 70.7033C186.557 73.6228 186.557 78.3564 181.5 81.276L141.902 104.136C136.845 107.055 128.645 107.055 123.588 104.136L83.9899 81.276C78.9326 78.3564 78.9326 73.6229 83.9899 70.7033L123.588 47.8433ZM138.437 49.8436C135.293 48.0287 130.196 48.0287 127.053 49.8436L87.4547 72.7035C84.311 74.5184 84.311 77.4609 87.4547 79.2758L127.053 102.136C130.196 103.951 135.293 103.951 138.437 102.136L178.035 79.2757C181.179 77.4609 181.179 74.5184 178.035 72.7035L138.437 49.8436Z" fill="white"/>
<path fill-rule="evenodd" clip-rule="evenodd" d="M159.777 50.7373C159.453 50.5505 159.135 50.3668 158.798 50.1722C157.665 49.5184 157.151 48.6218 158.364 47.9215C159.463 47.2871 160.791 47.3183 161.991 48.0115C162.606 48.3656 162.585 48.3578 163.242 48.737L167.061 50.942C168.018 51.4943 168.018 52.3899 167.061 52.9422C166.104 53.4946 164.553 53.4946 163.596 52.9422L159.777 50.7373ZM174.489 57.2305C175.446 56.6782 176.997 56.6782 177.954 57.2305L185.593 61.6404C186.55 62.1927 186.55 63.0883 185.593 63.6406C184.636 64.193 183.085 64.193 182.128 63.6406L174.489 59.2308C173.533 58.6784 173.533 57.7829 174.489 57.2305ZM193.021 67.9289C193.978 67.3766 195.529 67.3766 196.486 67.9289L200.305 70.1339C201.199 70.6496 201.937 71.2238 202.516 71.8363C203.165 72.5217 202.729 73.3811 201.542 73.7557C200.354 74.1304 198.866 73.8784 198.217 73.193C197.858 72.8144 197.4 72.4574 196.841 72.1341L193.021 69.9292C192.064 69.3768 192.064 68.4813 193.021 67.9289ZM151.789 45.7885C152.438 46.4739 152.002 47.3333 150.815 47.7079C150.438 47.8267 150.082 47.9787 149.758 48.1655C148.802 48.7179 147.25 48.7179 146.294 48.1655C145.337 47.6132 145.337 46.7176 146.294 46.1653C146.951 45.7861 147.683 45.4724 148.465 45.2257C149.652 44.8511 151.14 45.103 151.789 45.7885ZM201.542 78.2277C202.729 78.6024 203.165 79.4617 202.516 80.1472C201.937 80.7596 201.199 81.3339 200.305 81.8496L196.434 84.0844C195.477 84.6368 193.926 84.6368 192.969 84.0844C192.013 83.5321 192.013 82.6365 192.969 82.0842L196.841 79.8493C197.4 79.5261 197.858 79.169 198.217 78.7905C198.866 78.105 200.354 77.8531 201.542 78.2277ZM185.855 88.1917C186.812 88.744 186.812 89.6396 185.855 90.1919L178.112 94.6616C177.156 95.2139 175.604 95.2139 174.648 94.6616C173.691 94.1092 173.691 93.2137 174.648 92.6614L182.39 88.1917C183.347 87.6393 184.898 87.6393 185.855 88.1917ZM168.028 98.4831C168.985 99.0354 168.985 99.931 168.028 100.483L164.157 102.718C163.556 103.065 163.786 102.932 163.236 103.25C162.272 103.806 160.839 103.928 159.717 103.281C158.31 102.468 158.945 101.727 159.928 101.159C160.159 101.026 160.424 100.873 160.692 100.718L164.563 98.4831C165.52 97.9307 167.071 97.9307 168.028 98.4831ZM151.681 106.159C151.032 106.844 149.543 107.096 148.356 106.722C147.64 106.496 146.97 106.208 146.368 105.861C145.412 105.309 145.412 104.414 146.368 103.861C147.325 103.309 148.877 103.309 149.833 103.861C150.101 104.016 150.395 104.141 150.706 104.239C151.893 104.614 152.33 105.473 151.681 106.159Z" fill="white"/>
</g>
<defs>
<filter id="filter0_ddddd_1_1155" x="-42.349" y="57.7734" width="391.986" height="418.543" filterUnits="userSpaceOnUse" color-interpolation-filters="sRGB">
<feFlood flood-opacity="0" result="BackgroundImageFix"/>
<feColorMatrix in="SourceAlpha" type="matrix" values="0 0 0 0 0 0 0 0 0 0 0 0 0 0 0 0 0 0 127 0" result="hardAlpha"/>
<feOffset/>
<feColorMatrix type="matrix" values="0 0 0 0 0 0 0 0 0 0 0 0 0 0 0 0 0 0 0.1 0"/>
<feBlend mode="normal" in2="BackgroundImageFix" result="effect1_dropShadow_1_1155"/>
<feColorMatrix in="SourceAlpha" type="matrix" values="0 0 0 0 0 0 0 0 0 0 0 0 0 0 0 0 0 0 127 0" result="hardAlpha"/>
<feOffset dx="1" dy="12"/>
<feGaussianBlur stdDeviation="13"/>
<feColorMatrix type="matrix" values="0 0 0 0 0 0 0 0 0 0 0 0 0 0 0 0 0 0 0.1 0"/>
<feBlend mode="normal" in2="effect1_dropShadow_1_1155" result="effect2_dropShadow_1_1155"/>
<feColorMatrix in="SourceAlpha" type="matrix" values="0 0 0 0 0 0 0 0 0 0 0 0 0 0 0 0 0 0 127 0" result="hardAlpha"/>
<feOffset dx="3" dy="47"/>
<feGaussianBlur stdDeviation="24"/>
<feColorMatrix type="matrix" values="0 0 0 0 0 0 0 0 0 0 0 0 0 0 0 0 0 0 0.09 0"/>
<feBlend mode="normal" in2="effect2_dropShadow_1_1155" result="effect3_dropShadow_1_1155"/>
<feColorMatrix in="SourceAlpha" type="matrix" values="0 0 0 0 0 0 0 0 0 0 0 0 0 0 0 0 0 0 127 0" result="hardAlpha"/>
<feOffset dx="6" dy="107"/>
<feGaussianBlur stdDeviation="32"/>
<feColorMatrix type="matrix" values="0 0 0 0 0 0 0 0 0 0 0 0 0 0 0 0 0 0 0.05 0"/>
<feBlend mode="normal" in2="effect3_dropShadow_1_1155" result="effect4_dropShadow_1_1155"/>
<feColorMatrix in="SourceAlpha" type="matrix" values="0 0 0 0 0 0 0 0 0 0 0 0 0 0 0 0 0 0 127 0" result="hardAlpha"/>
<feOffset dx="11" dy="190"/>
<feGaussianBlur stdDeviation="38"/>
<feColorMatrix type="matrix" values="0 0 0 0 0 0 0 0 0 0 0 0 0 0 0 0 0 0 0.01 0"/>
<feBlend mode="normal" in2="effect4_dropShadow_1_1155" result="effect5_dropShadow_1_1155"/>
<feBlend mode="normal" in="SourceGraphic" in2="effect5_dropShadow_1_1155" result="shape"/>
</filter>
<clipPath id="clip0_1_1155">
<rect width="284.342" height="243.983" fill="white" transform="translate(0.164551)"/>
</clipPath>
</defs>
</svg>
