<?xml version="1.0" encoding="UTF-8" standalone="no"?>
<svg
   width="50.721397"
   height="42.358055"
   viewBox="0 0 50.721397 42.358055"
   fill="none"
   version="1.1"
   id="svg24"
   sodipodi:docname="behaviour-twin-hi-kit-icon.svg"
   xmlns:inkscape="http://www.inkscape.org/namespaces/inkscape"
   xmlns:sodipodi="http://sodipodi.sourceforge.net/DTD/sodipodi-0.dtd"
   xmlns="http://www.w3.org/2000/svg"
   xmlns:svg="http://www.w3.org/2000/svg">
  <sodipodi:namedview
     id="namedview24"
     pagecolor="#ffffff"
     bordercolor="#000000"
     borderopacity="0.25"
     inkscape:showpageshadow="2"
     inkscape:pageopacity="0.0"
     inkscape:pagecheckerboard="0"
     inkscape:deskcolor="#d1d1d1" />
  <g
     clip-path="url(#clip0_1_1127)"
     id="g14"
     transform="matrix(0.17838165,0,0,0.17838165,-0.02935115,-1.1640335)">
    <path
       d="m 122.73,91.3279 c 10.658,-6.1525 27.937,-6.1525 38.594,0 l 92.703,53.5171 c 10.657,6.153 10.657,16.128 0,22.28 l -92.703,53.518 c -10.657,6.152 -27.936,6.152 -38.594,0 L 30.0276,167.126 c -10.6575,-6.153 -10.6575,-16.128 -10e-5,-22.281 z"
       fill="#fedc84"
       id="path1" />
    <path
       fill-rule="evenodd"
       clip-rule="evenodd"
       d="m 253.062,157.601 -92.703,-53.517 c -10.124,-5.8448 -26.539,-5.8448 -36.664,0 l -92.7025,53.517 c -10.1246,5.845 -10.1246,15.322 0,21.167 l 92.7025,53.517 c 10.125,5.845 26.54,5.845 36.664,0 l 92.703,-53.517 c 10.125,-5.845 10.125,-15.322 0,-21.167 z m -91.738,-54.074 c -10.657,-6.1524 -27.936,-6.1524 -38.594,0 l -92.7024,53.517 c -10.6574,6.153 -10.6574,16.128 0,22.281 l 92.7024,53.517 c 10.658,6.153 27.937,6.153 38.594,0 l 92.703,-53.517 c 10.657,-6.153 10.657,-16.128 0,-22.281 z"
       fill="#fddb84"
       id="path2" />
    <path
       d="m 123.347,64.1883 c 10.657,-6.1526 27.936,-6.1526 38.594,0 l 92.702,53.5177 c 10.658,6.152 10.658,16.127 0,22.28 l -92.702,53.517 c -10.658,6.153 -27.937,6.153 -38.594,0 L 30.6441,139.986 c -10.6575,-6.153 -10.6575,-16.128 0,-22.28 z"
       fill="#ffbc38"
       id="path3" />
    <g
       filter="url(#filter0_ddddd_1_1127)"
       id="g4">
      <path
         fill-rule="evenodd"
         clip-rule="evenodd"
         d="M 253.679,130.462 160.976,76.9447 c -10.125,-5.8449 -26.54,-5.8449 -36.664,0 L 31.6089,130.462 c -10.1246,5.845 -10.1246,15.321 0,21.166 l 92.7031,53.518 c 10.124,5.844 26.539,5.844 36.664,0 l 92.703,-53.518 c 10.124,-5.845 10.124,-15.321 0,-21.166 z M 161.941,76.3877 c -10.658,-6.1525 -27.937,-6.1525 -38.594,0 L 30.6441,129.905 c -10.6575,6.153 -10.6575,16.128 0,22.28 l 92.7029,53.518 c 10.657,6.152 27.936,6.152 38.594,0 l 92.702,-53.518 c 10.658,-6.152 10.658,-16.127 0,-22.28 z"
         fill="#febc38"
         id="path4" />
    </g>
    <path
       d="m 123.347,38.2806 c 10.657,-6.1526 27.936,-6.1526 38.594,-10e-5 l 92.702,53.5173 c 10.658,6.1525 10.658,16.1282 0,22.2802 l -92.702,53.517 c -10.658,6.153 -27.937,6.153 -38.594,0 L 30.6441,114.078 c -10.6575,-6.152 -10.6575,-16.1277 0,-22.2802 z"
       fill="#fdc600"
       id="path5" />
    <path
       fill-rule="evenodd"
       clip-rule="evenodd"
       d="M 253.679,104.554 160.976,51.0368 c -10.125,-5.8449 -26.54,-5.8449 -36.664,0 L 31.609,104.554 c -10.1246,5.845 -10.1246,15.321 0,21.166 l 92.703,53.518 c 10.124,5.845 26.539,5.845 36.664,0 l 92.703,-53.518 c 10.124,-5.845 10.124,-15.321 0,-21.166 z M 161.941,50.4798 c -10.658,-6.1526 -27.937,-6.1526 -38.594,0 L 30.6441,103.997 c -10.6574,6.153 -10.6574,16.128 0,22.28 l 92.7029,53.518 c 10.657,6.152 27.936,6.152 38.594,0 l 92.702,-53.518 c 10.658,-6.152 10.658,-16.127 0,-22.28 z"
       fill="#fdc600"
       id="path6" />
    <path
       d="m 123.347,11.1399 c 10.658,-6.15252 27.937,-6.15252 38.594,0 l 92.703,53.5173 c 10.657,6.1525 10.657,16.1278 0,22.2803 l -92.703,53.5175 c -10.657,6.152 -27.936,6.152 -38.594,0 L 30.6445,86.9375 C 19.987,80.785 19.987,70.8097 30.6445,64.6572 Z"
       fill="#ffe81b"
       id="path7" />
    <path
       fill-rule="evenodd"
       clip-rule="evenodd"
       d="M 253.679,77.4136 160.976,23.8964 c -10.124,-5.8449 -26.539,-5.8449 -36.664,0 L 31.6093,77.4136 c -10.1245,5.845 -10.1245,15.3215 0,21.1664 l 92.7027,53.517 c 10.125,5.845 26.54,5.845 36.664,0 L 253.679,98.58 c 10.125,-5.845 10.125,-15.3214 0,-21.1664 z M 161.941,23.3394 c -10.657,-6.1526 -27.936,-6.1526 -38.594,0 L 30.6445,76.8566 c -10.6575,6.1526 -10.6575,16.1278 0,22.2804 l 92.7025,53.517 c 10.658,6.153 27.937,6.153 38.594,0 l 92.703,-53.517 c 10.657,-6.1526 10.657,-16.1278 0,-22.2804 z"
       fill="#ffe81b"
       id="path8" />
    <path
       fill-rule="evenodd"
       clip-rule="evenodd"
       d="m 123.588,47.651 c 5.057,-2.9196 13.257,-2.9196 18.314,0 L 181.5,70.5109 c 5.057,2.9195 5.057,7.6531 0,10.5727 l -39.598,22.8604 c -5.057,2.919 -13.257,2.919 -18.314,0 L 83.9899,81.0836 c -5.0573,-2.9196 -5.0573,-7.6531 0,-10.5727 z m 14.849,2.0002 c -3.144,-1.8149 -8.241,-1.8149 -11.384,0 L 87.4547,72.5111 c -3.1437,1.8149 -3.1437,4.7574 0,6.5723 l 39.5983,22.8596 c 3.143,1.815 8.24,1.815 11.384,0 l 39.598,-22.8597 c 3.144,-1.8148 3.144,-4.7573 0,-6.5722 z"
       fill="#ffffff"
       id="path9" />
    <path
       fill-rule="evenodd"
       clip-rule="evenodd"
       d="m 159.777,50.5449 c -0.324,-0.1868 -0.642,-0.3704 -0.979,-0.5651 -1.133,-0.6538 -1.647,-1.5503 -0.434,-2.2507 1.099,-0.6344 2.427,-0.6031 3.627,0.09 0.615,0.3541 0.594,0.3463 1.251,0.7256 l 3.819,2.2049 c 0.957,0.5523 0.957,1.4479 0,2.0002 -0.957,0.5524 -2.508,0.5524 -3.465,0 z m 14.712,6.4932 c 0.957,-0.5523 2.508,-0.5523 3.465,0 l 7.639,4.4099 c 0.957,0.5524 0.957,1.4479 0,2.0003 -0.957,0.5523 -2.508,0.5523 -3.465,0 l -7.639,-4.4099 c -0.956,-0.5524 -0.956,-1.4479 0,-2.0003 z m 18.532,10.6985 c 0.957,-0.5524 2.508,-0.5524 3.465,0 l 3.819,2.2049 c 0.894,0.5157 1.632,1.09 2.211,1.7024 0.649,0.6855 0.213,1.5448 -0.974,1.9195 -1.188,0.3746 -2.676,0.1226 -3.325,-0.5628 -0.359,-0.3785 -0.817,-0.7356 -1.376,-1.0589 l -3.82,-2.2049 c -0.957,-0.5524 -0.957,-1.4479 0,-2.0002 z M 151.789,45.5961 c 0.649,0.6854 0.213,1.5448 -0.974,1.9194 -0.377,0.1188 -0.733,0.2709 -1.057,0.4577 -0.956,0.5523 -2.508,0.5523 -3.464,0 -0.957,-0.5524 -0.957,-1.4479 0,-2.0003 0.657,-0.3792 1.389,-0.6929 2.171,-0.9396 1.187,-0.3746 2.675,-0.1226 3.324,0.5628 z m 49.753,32.4392 c 1.187,0.3747 1.623,1.234 0.974,1.9195 -0.579,0.6124 -1.317,1.1867 -2.211,1.7024 l -3.871,2.2348 c -0.957,0.5524 -2.508,0.5524 -3.465,0 -0.956,-0.5523 -0.956,-1.4478 0,-2.0002 l 3.872,-2.2348 c 0.559,-0.3233 1.017,-0.6804 1.376,-1.0589 0.649,-0.6854 2.137,-0.9374 3.325,-0.5628 z m -15.687,9.964 c 0.957,0.5523 0.957,1.4479 0,2.0002 l -7.743,4.4697 c -0.956,0.5524 -2.508,0.5524 -3.464,0 -0.957,-0.5523 -0.957,-1.4479 0,-2.0002 l 7.742,-4.4697 c 0.957,-0.5524 2.508,-0.5524 3.465,0 z m -17.827,10.2914 c 0.957,0.5523 0.957,1.4479 0,2.0003 l -3.871,2.235 c -0.601,0.347 -0.371,0.214 -0.921,0.532 -0.964,0.556 -2.397,0.678 -3.519,0.03 -1.407,-0.812 -0.772,-1.554 0.211,-2.122 0.231,-0.133 0.496,-0.286 0.764,-0.44 l 3.871,-2.2353 c 0.957,-0.5523 2.508,-0.5524 3.465,0 z m -16.347,7.6753 c -0.649,0.686 -2.138,0.938 -3.325,0.563 -0.716,-0.226 -1.386,-0.513 -1.988,-0.86 -0.956,-0.552 -0.956,-1.448 0,-2 0.957,-0.553 2.509,-0.553 3.465,0 0.268,0.154 0.562,0.28 0.873,0.378 1.187,0.375 1.624,1.234 0.975,1.919 z"
       fill="#ffffff"
       id="path10" />
    <path
       fill-rule="evenodd"
       clip-rule="evenodd"
       d="m 135.715,59.2238 c 2.323,-1.3414 6.091,-1.3414 8.414,0 l 17.325,10.0012 c 2.323,1.3414 2.323,3.5163 0,4.8577 l -31.679,18.288 c -2.323,1.3414 -6.091,1.3414 -8.414,0 L 104.036,82.3695 c -2.323,-1.3415 -2.323,-3.5164 0,-4.8578 z m 4.95,2.0002 c -0.41,-0.2367 -1.075,-0.2367 -1.485,0 l -31.679,18.288 c -0.41,0.2367 -0.41,0.6205 0,0.8572 l 17.324,10.0012 c 0.41,0.2367 1.075,0.2367 1.485,0 l 31.679,-18.2879 c 0.41,-0.2367 0.41,-0.6205 0,-0.8573 z"
       fill="#ffffff"
       id="path11" />
    <path
       fill-rule="evenodd"
       clip-rule="evenodd"
       d="m 143.882,69.3679 c -0.957,-0.5524 -2.508,-0.5524 -3.465,0 -0.957,0.5523 -0.957,1.4479 0,2.0002 0.957,0.5524 2.508,0.5524 3.465,0 0.957,-0.5523 0.957,-1.4479 0,-2.0002 z m -5.445,-1.143 c 2.05,-1.1836 5.375,-1.1836 7.425,0 2.05,1.1836 2.05,3.1026 0,4.2862 -2.05,1.1836 -5.375,1.1836 -7.425,0 -2.05,-1.1836 -2.05,-3.1026 0,-4.2862 z"
       fill="#ffffff"
       id="path12" />
    <path
       fill-rule="evenodd"
       clip-rule="evenodd"
       d="m 134.477,74.7971 c -0.956,-0.5523 -2.508,-0.5523 -3.464,0 -0.957,0.5524 -0.957,1.4479 0,2.0002 0.956,0.5524 2.508,0.5524 3.464,0 0.957,-0.5523 0.957,-1.4478 0,-2.0002 z m -5.444,-1.143 c 2.05,-1.1836 5.374,-1.1836 7.424,0 2.051,1.1836 2.051,3.1026 0,4.2862 -2.05,1.1837 -5.374,1.1837 -7.424,0 -2.051,-1.1836 -2.051,-3.1026 0,-4.2862 z"
       fill="#ffffff"
       id="path13" />
    <path
       fill-rule="evenodd"
       clip-rule="evenodd"
       d="m 125.073,80.2263 c -0.957,-0.5523 -2.508,-0.5523 -3.465,0 -0.957,0.5524 -0.957,1.4479 0,2.0003 0.957,0.5523 2.508,0.5523 3.465,0 0.957,-0.5524 0.957,-1.4479 0,-2.0003 z m -5.445,-1.143 c 2.05,-1.1836 5.375,-1.1836 7.425,0 2.05,1.1837 2.05,3.1027 0,4.2863 -2.05,1.1836 -5.375,1.1836 -7.425,0 -2.05,-1.1836 -2.05,-3.1026 0,-4.2863 z"
       fill="#ffffff"
       id="path14" />
  </g>
  <defs
     id="defs24">
    <filter
       id="filter0_ddddd_1_1127"
       x="-42.348999"
       y="57.773399"
       width="391.98499"
       height="418.543"
       filterUnits="userSpaceOnUse"
       color-interpolation-filters="sRGB">
      <feFlood
         flood-opacity="0"
         result="BackgroundImageFix"
         id="feFlood14" />
      <feColorMatrix
         in="SourceAlpha"
         type="matrix"
         values="0 0 0 0 0 0 0 0 0 0 0 0 0 0 0 0 0 0 127 0"
         result="hardAlpha"
         id="feColorMatrix14" />
      <feOffset
         id="feOffset14" />
      <feColorMatrix
         type="matrix"
         values="0 0 0 0 0 0 0 0 0 0 0 0 0 0 0 0 0 0 0.1 0"
         id="feColorMatrix15" />
      <feBlend
         mode="normal"
         in2="BackgroundImageFix"
         result="effect1_dropShadow_1_1127"
         id="feBlend15" />
      <feColorMatrix
         in="SourceAlpha"
         type="matrix"
         values="0 0 0 0 0 0 0 0 0 0 0 0 0 0 0 0 0 0 127 0"
         result="hardAlpha"
         id="feColorMatrix16" />
      <feOffset
         dx="1"
         dy="12"
         id="feOffset16" />
      <feGaussianBlur
         stdDeviation="13"
         id="feGaussianBlur16" />
      <feColorMatrix
         type="matrix"
         values="0 0 0 0 0 0 0 0 0 0 0 0 0 0 0 0 0 0 0.1 0"
         id="feColorMatrix17" />
      <feBlend
         mode="normal"
         in2="effect1_dropShadow_1_1127"
         result="effect2_dropShadow_1_1127"
         id="feBlend17" />
      <feColorMatrix
         in="SourceAlpha"
         type="matrix"
         values="0 0 0 0 0 0 0 0 0 0 0 0 0 0 0 0 0 0 127 0"
         result="hardAlpha"
         id="feColorMatrix18" />
      <feOffset
         dx="3"
         dy="47"
         id="feOffset18" />
      <feGaussianBlur
         stdDeviation="24"
         id="feGaussianBlur18" />
      <feColorMatrix
         type="matrix"
         values="0 0 0 0 0 0 0 0 0 0 0 0 0 0 0 0 0 0 0.09 0"
         id="feColorMatrix19" />
      <feBlend
         mode="normal"
         in2="effect2_dropShadow_1_1127"
         result="effect3_dropShadow_1_1127"
         id="feBlend19" />
      <feColorMatrix
         in="SourceAlpha"
         type="matrix"
         values="0 0 0 0 0 0 0 0 0 0 0 0 0 0 0 0 0 0 127 0"
         result="hardAlpha"
         id="feColorMatrix20" />
      <feOffset
         dx="6"
         dy="107"
         id="feOffset20" />
      <feGaussianBlur
         stdDeviation="32"
         id="feGaussianBlur20" />
      <feColorMatrix
         type="matrix"
         values="0 0 0 0 0 0 0 0 0 0 0 0 0 0 0 0 0 0 0.05 0"
         id="feColorMatrix21" />
      <feBlend
         mode="normal"
         in2="effect3_dropShadow_1_1127"
         result="effect4_dropShadow_1_1127"
         id="feBlend21" />
      <feColorMatrix
         in="SourceAlpha"
         type="matrix"
         values="0 0 0 0 0 0 0 0 0 0 0 0 0 0 0 0 0 0 127 0"
         result="hardAlpha"
         id="feColorMatrix22" />
      <feOffset
         dx="11"
         dy="190"
         id="feOffset22" />
      <feGaussianBlur
         stdDeviation="38"
         id="feGaussianBlur22" />
      <feColorMatrix
         type="matrix"
         values="0 0 0 0 0 0 0 0 0 0 0 0 0 0 0 0 0 0 0.01 0"
         id="feColorMatrix23" />
      <feBlend
         mode="normal"
         in2="effect4_dropShadow_1_1127"
         result="effect5_dropShadow_1_1127"
         id="feBlend23" />
      <feBlend
         mode="normal"
         in="SourceGraphic"
         in2="effect5_dropShadow_1_1127"
         result="shape"
         id="feBlend24" />
    </filter>
    <clipPath
       id="clip0_1_1127">
      <rect
         width="284.34201"
         height="243.983"
         fill="#ffffff"
         transform="translate(0.164551)"
         id="rect24"
         x="0"
         y="0" />
    </clipPath>
  </defs>
</svg>
