<svg width="285" height="244" viewBox="0 0 285 244" fill="none" xmlns="http://www.w3.org/2000/svg">
<g clip-path="url(#clip0_1_1127)">
<path d="M122.73 91.3279C133.388 85.1754 150.667 85.1754 161.324 91.3279L254.027 144.845C264.684 150.998 264.684 160.973 254.027 167.125L161.324 220.643C150.667 226.795 133.388 226.795 122.73 220.643L30.0276 167.126C19.3701 160.973 19.3701 150.998 30.0275 144.845L122.73 91.3279Z" fill="#FEDC84"/>
<path fill-rule="evenodd" clip-rule="evenodd" d="M253.062 157.601L160.359 104.084C150.235 98.2392 133.82 98.2392 123.695 104.084L30.9925 157.601C20.8679 163.446 20.8679 172.923 30.9925 178.768L123.695 232.285C133.82 238.13 150.235 238.13 160.359 232.285L253.062 178.768C263.187 172.923 263.187 163.446 253.062 157.601ZM161.324 103.527C150.667 97.3746 133.388 97.3746 122.73 103.527L30.0276 157.044C19.3702 163.197 19.3702 173.172 30.0276 179.325L122.73 232.842C133.388 238.995 150.667 238.995 161.324 232.842L254.027 179.325C264.684 173.172 264.684 163.197 254.027 157.044L161.324 103.527Z" fill="#FDDB84"/>
<path d="M123.347 64.1883C134.004 58.0357 151.283 58.0357 161.941 64.1883L254.643 117.706C265.301 123.858 265.301 133.833 254.643 139.986L161.941 193.503C151.283 199.656 134.004 199.656 123.347 193.503L30.6441 139.986C19.9866 133.833 19.9866 123.858 30.6441 117.706L123.347 64.1883Z" fill="#FFBC38"/>
<g filter="url(#filter0_ddddd_1_1127)">
<path fill-rule="evenodd" clip-rule="evenodd" d="M253.679 130.462L160.976 76.9447C150.851 71.0998 134.436 71.0998 124.312 76.9447L31.6089 130.462C21.4843 136.307 21.4843 145.783 31.6089 151.628L124.312 205.146C134.436 210.99 150.851 210.99 160.976 205.146L253.679 151.628C263.803 145.783 263.803 136.307 253.679 130.462ZM161.941 76.3877C151.283 70.2352 134.004 70.2352 123.347 76.3877L30.6441 129.905C19.9866 136.058 19.9866 146.033 30.6441 152.185L123.347 205.703C134.004 211.855 151.283 211.855 161.941 205.703L254.643 152.185C265.301 146.033 265.301 136.058 254.643 129.905L161.941 76.3877Z" fill="#FEBC38"/>
</g>
<path d="M123.347 38.2806C134.004 32.128 151.283 32.128 161.941 38.2805L254.643 91.7978C265.301 97.9503 265.301 107.926 254.643 114.078L161.941 167.595C151.283 173.748 134.004 173.748 123.347 167.595L30.6441 114.078C19.9866 107.926 19.9866 97.9503 30.6441 91.7978L123.347 38.2806Z" fill="#FDC600"/>
<path fill-rule="evenodd" clip-rule="evenodd" d="M253.679 104.554L160.976 51.0368C150.851 45.1919 134.436 45.1919 124.312 51.0368L31.609 104.554C21.4844 110.399 21.4844 119.875 31.609 125.72L124.312 179.238C134.436 185.083 150.851 185.083 160.976 179.238L253.679 125.72C263.803 119.875 263.803 110.399 253.679 104.554ZM161.941 50.4798C151.283 44.3272 134.004 44.3272 123.347 50.4798L30.6441 103.997C19.9867 110.15 19.9867 120.125 30.6441 126.277L123.347 179.795C134.004 185.947 151.283 185.947 161.941 179.795L254.643 126.277C265.301 120.125 265.301 110.15 254.643 103.997L161.941 50.4798Z" fill="#FDC600"/>
<path d="M123.347 11.1399C134.005 4.98738 151.284 4.98738 161.941 11.1399L254.644 64.6572C265.301 70.8097 265.301 80.785 254.644 86.9375L161.941 140.455C151.284 146.607 134.005 146.607 123.347 140.455L30.6445 86.9375C19.987 80.785 19.987 70.8097 30.6445 64.6572L123.347 11.1399Z" fill="#FFE81B"/>
<path fill-rule="evenodd" clip-rule="evenodd" d="M253.679 77.4136L160.976 23.8964C150.852 18.0515 134.437 18.0515 124.312 23.8964L31.6093 77.4136C21.4848 83.2586 21.4848 92.7351 31.6093 98.58L124.312 152.097C134.437 157.942 150.852 157.942 160.976 152.097L253.679 98.58C263.804 92.735 263.804 83.2586 253.679 77.4136ZM161.941 23.3394C151.284 17.1868 134.005 17.1868 123.347 23.3394L30.6445 76.8566C19.987 83.0092 19.987 92.9844 30.6445 99.137L123.347 152.654C134.005 158.807 151.284 158.807 161.941 152.654L254.644 99.137C265.301 92.9844 265.301 83.0092 254.644 76.8566L161.941 23.3394Z" fill="#FFE81B"/>
<path fill-rule="evenodd" clip-rule="evenodd" d="M123.588 47.651C128.645 44.7314 136.845 44.7314 141.902 47.651L181.5 70.5109C186.557 73.4304 186.557 78.164 181.5 81.0836L141.902 103.944C136.845 106.863 128.645 106.863 123.588 103.944L83.9899 81.0836C78.9326 78.164 78.9326 73.4305 83.9899 70.5109L123.588 47.651ZM138.437 49.6512C135.293 47.8363 130.196 47.8363 127.053 49.6512L87.4547 72.5111C84.311 74.326 84.311 77.2685 87.4547 79.0834L127.053 101.943C130.196 103.758 135.293 103.758 138.437 101.943L178.035 79.0833C181.179 77.2685 181.179 74.326 178.035 72.5111L138.437 49.6512Z" fill="white"/>
<path fill-rule="evenodd" clip-rule="evenodd" d="M159.777 50.5449C159.453 50.3581 159.135 50.1745 158.798 49.9798C157.665 49.326 157.151 48.4295 158.364 47.7291C159.463 47.0947 160.791 47.126 161.991 47.8191C162.606 48.1732 162.585 48.1654 163.242 48.5447L167.061 50.7496C168.018 51.3019 168.018 52.1975 167.061 52.7498C166.104 53.3022 164.553 53.3022 163.596 52.7498L159.777 50.5449ZM174.489 57.0381C175.446 56.4858 176.997 56.4858 177.954 57.0381L185.593 61.448C186.55 62.0004 186.55 62.8959 185.593 63.4483C184.636 64.0006 183.085 64.0006 182.128 63.4483L174.489 59.0384C173.533 58.486 173.533 57.5905 174.489 57.0381ZM193.021 67.7366C193.978 67.1842 195.529 67.1842 196.486 67.7366L200.305 69.9415C201.199 70.4572 201.937 71.0315 202.516 71.6439C203.165 72.3294 202.729 73.1887 201.542 73.5634C200.354 73.938 198.866 73.686 198.217 73.0006C197.858 72.6221 197.4 72.265 196.841 71.9417L193.021 69.7368C192.064 69.1844 192.064 68.2889 193.021 67.7366ZM151.789 45.5961C152.438 46.2815 152.002 47.1409 150.815 47.5155C150.438 47.6343 150.082 47.7864 149.758 47.9732C148.802 48.5255 147.25 48.5255 146.294 47.9732C145.337 47.4208 145.337 46.5253 146.294 45.9729C146.951 45.5937 147.683 45.28 148.465 45.0333C149.652 44.6587 151.14 44.9107 151.789 45.5961ZM201.542 78.0353C202.729 78.41 203.165 79.2693 202.516 79.9548C201.937 80.5672 201.199 81.1415 200.305 81.6572L196.434 83.892C195.477 84.4444 193.926 84.4444 192.969 83.892C192.013 83.3397 192.013 82.4442 192.969 81.8918L196.841 79.657C197.4 79.3337 197.858 78.9766 198.217 78.5981C198.866 77.9127 200.354 77.6607 201.542 78.0353ZM185.855 87.9993C186.812 88.5516 186.812 89.4472 185.855 89.9995L178.112 94.4692C177.156 95.0216 175.604 95.0216 174.648 94.4692C173.691 93.9169 173.691 93.0213 174.648 92.469L182.39 87.9993C183.347 87.4469 184.898 87.4469 185.855 87.9993ZM168.028 98.2907C168.985 98.843 168.985 99.7386 168.028 100.291L164.157 102.526C163.556 102.873 163.786 102.74 163.236 103.058C162.272 103.614 160.839 103.736 159.717 103.088C158.31 102.276 158.945 101.534 159.928 100.966C160.159 100.833 160.424 100.68 160.692 100.526L164.563 98.2907C165.52 97.7384 167.071 97.7383 168.028 98.2907ZM151.681 105.966C151.032 106.652 149.543 106.904 148.356 106.529C147.64 106.303 146.97 106.016 146.368 105.669C145.412 105.117 145.412 104.221 146.368 103.669C147.325 103.116 148.877 103.116 149.833 103.669C150.101 103.823 150.395 103.949 150.706 104.047C151.893 104.422 152.33 105.281 151.681 105.966Z" fill="white"/>
<path fill-rule="evenodd" clip-rule="evenodd" d="M135.715 59.2238C138.038 57.8824 141.806 57.8824 144.129 59.2238L161.454 69.225C163.777 70.5664 163.777 72.7413 161.454 74.0827L129.775 92.3707C127.452 93.7121 123.684 93.7121 121.361 92.3707L104.036 82.3695C101.713 81.028 101.713 78.8531 104.036 77.5117L135.715 59.2238ZM140.665 61.224C140.255 60.9873 139.59 60.9873 139.18 61.224L107.501 79.512C107.091 79.7487 107.091 80.1325 107.501 80.3692L124.825 90.3704C125.235 90.6071 125.9 90.6071 126.31 90.3704L157.989 72.0825C158.399 71.8458 158.399 71.462 157.989 71.2252L140.665 61.224Z" fill="white"/>
<path fill-rule="evenodd" clip-rule="evenodd" d="M143.882 69.3679C142.925 68.8155 141.374 68.8155 140.417 69.3679C139.46 69.9202 139.46 70.8158 140.417 71.3681C141.374 71.9205 142.925 71.9205 143.882 71.3681C144.839 70.8158 144.839 69.9202 143.882 69.3679ZM138.437 68.2249C140.487 67.0413 143.812 67.0413 145.862 68.2249C147.912 69.4085 147.912 71.3275 145.862 72.5111C143.812 73.6947 140.487 73.6947 138.437 72.5111C136.387 71.3275 136.387 69.4085 138.437 68.2249Z" fill="white"/>
<path fill-rule="evenodd" clip-rule="evenodd" d="M134.477 74.7971C133.521 74.2448 131.969 74.2448 131.013 74.7971C130.056 75.3495 130.056 76.245 131.013 76.7973C131.969 77.3497 133.521 77.3497 134.477 76.7973C135.434 76.245 135.434 75.3495 134.477 74.7971ZM129.033 73.6541C131.083 72.4705 134.407 72.4705 136.457 73.6541C138.508 74.8377 138.508 76.7567 136.457 77.9403C134.407 79.124 131.083 79.124 129.033 77.9403C126.982 76.7567 126.982 74.8377 129.033 73.6541Z" fill="white"/>
<path fill-rule="evenodd" clip-rule="evenodd" d="M125.073 80.2263C124.116 79.674 122.565 79.674 121.608 80.2263C120.651 80.7787 120.651 81.6742 121.608 82.2266C122.565 82.7789 124.116 82.7789 125.073 82.2266C126.03 81.6742 126.03 80.7787 125.073 80.2263ZM119.628 79.0833C121.678 77.8997 125.003 77.8997 127.053 79.0833C129.103 80.267 129.103 82.186 127.053 83.3696C125.003 84.5532 121.678 84.5532 119.628 83.3696C117.578 82.186 117.578 80.267 119.628 79.0833Z" fill="white"/>
</g>
<defs>
<filter id="filter0_ddddd_1_1127" x="-42.349" y="57.7734" width="391.985" height="418.543" filterUnits="userSpaceOnUse" color-interpolation-filters="sRGB">
<feFlood flood-opacity="0" result="BackgroundImageFix"/>
<feColorMatrix in="SourceAlpha" type="matrix" values="0 0 0 0 0 0 0 0 0 0 0 0 0 0 0 0 0 0 127 0" result="hardAlpha"/>
<feOffset/>
<feColorMatrix type="matrix" values="0 0 0 0 0 0 0 0 0 0 0 0 0 0 0 0 0 0 0.1 0"/>
<feBlend mode="normal" in2="BackgroundImageFix" result="effect1_dropShadow_1_1127"/>
<feColorMatrix in="SourceAlpha" type="matrix" values="0 0 0 0 0 0 0 0 0 0 0 0 0 0 0 0 0 0 127 0" result="hardAlpha"/>
<feOffset dx="1" dy="12"/>
<feGaussianBlur stdDeviation="13"/>
<feColorMatrix type="matrix" values="0 0 0 0 0 0 0 0 0 0 0 0 0 0 0 0 0 0 0.1 0"/>
<feBlend mode="normal" in2="effect1_dropShadow_1_1127" result="effect2_dropShadow_1_1127"/>
<feColorMatrix in="SourceAlpha" type="matrix" values="0 0 0 0 0 0 0 0 0 0 0 0 0 0 0 0 0 0 127 0" result="hardAlpha"/>
<feOffset dx="3" dy="47"/>
<feGaussianBlur stdDeviation="24"/>
<feColorMatrix type="matrix" values="0 0 0 0 0 0 0 0 0 0 0 0 0 0 0 0 0 0 0.09 0"/>
<feBlend mode="normal" in2="effect2_dropShadow_1_1127" result="effect3_dropShadow_1_1127"/>
<feColorMatrix in="SourceAlpha" type="matrix" values="0 0 0 0 0 0 0 0 0 0 0 0 0 0 0 0 0 0 127 0" result="hardAlpha"/>
<feOffset dx="6" dy="107"/>
<feGaussianBlur stdDeviation="32"/>
<feColorMatrix type="matrix" values="0 0 0 0 0 0 0 0 0 0 0 0 0 0 0 0 0 0 0.05 0"/>
<feBlend mode="normal" in2="effect3_dropShadow_1_1127" result="effect4_dropShadow_1_1127"/>
<feColorMatrix in="SourceAlpha" type="matrix" values="0 0 0 0 0 0 0 0 0 0 0 0 0 0 0 0 0 0 127 0" result="hardAlpha"/>
<feOffset dx="11" dy="190"/>
<feGaussianBlur stdDeviation="38"/>
<feColorMatrix type="matrix" values="0 0 0 0 0 0 0 0 0 0 0 0 0 0 0 0 0 0 0.01 0"/>
<feBlend mode="normal" in2="effect4_dropShadow_1_1127" result="effect5_dropShadow_1_1127"/>
<feBlend mode="normal" in="SourceGraphic" in2="effect5_dropShadow_1_1127" result="shape"/>
</filter>
<clipPath id="clip0_1_1127">
<rect width="284.342" height="243.983" fill="white" transform="translate(0.164551)"/>
</clipPath>
</defs>
</svg>
