<?xml version="1.0" encoding="UTF-8" standalone="no"?>
<svg
   width="50.721138"
   height="42.357788"
   viewBox="0 0 50.721138 42.357788"
   fill="none"
   version="1.1"
   id="svg20"
   sodipodi:docname="behaviour-twin-kit-icon.svg"
   xmlns:inkscape="http://www.inkscape.org/namespaces/inkscape"
   xmlns:sodipodi="http://sodipodi.sourceforge.net/DTD/sodipodi-0.dtd"
   xmlns="http://www.w3.org/2000/svg"
   xmlns:svg="http://www.w3.org/2000/svg">
  <sodipodi:namedview
     id="namedview20"
     pagecolor="#ffffff"
     bordercolor="#000000"
     borderopacity="0.25"
     inkscape:showpageshadow="2"
     inkscape:pageopacity="0.0"
     inkscape:pagecheckerboard="0"
     inkscape:deskcolor="#d1d1d1" />
  <g
     clip-path="url(#clip0_778_3918)"
     id="g10"
     transform="matrix(0.17838075,0,0,0.17838075,-0.02935322,-1.1640829)">
    <path
       d="m 122.73,91.3282 c 10.658,-6.1526 27.937,-6.1526 38.594,0 l 92.703,53.5168 c 10.657,6.153 10.657,16.128 0,22.281 l -92.703,53.517 c -10.657,6.153 -27.936,6.153 -38.594,0 L 30.0274,167.126 c -10.6574,-6.153 -10.6574,-16.128 0,-22.281 z"
       fill="#fdc600"
       fill-opacity="0.9"
       id="path1" />
    <path
       fill-rule="evenodd"
       clip-rule="evenodd"
       d="m 253.062,157.602 -92.703,-53.518 c -10.124,-5.8445 -26.539,-5.8445 -36.664,0 l -92.7027,53.518 c -10.1246,5.845 -10.1246,15.321 0,21.166 l 92.7027,53.517 c 10.125,5.845 26.54,5.845 36.664,0 l 92.703,-53.517 c 10.125,-5.845 10.124,-15.321 0,-21.166 z m -91.738,-54.075 c -10.657,-6.1522 -27.936,-6.1522 -38.594,0 l -92.7026,53.518 c -10.6574,6.152 -10.6574,16.127 0,22.28 l 92.7026,53.517 c 10.658,6.153 27.937,6.153 38.594,0 l 92.703,-53.517 c 10.657,-6.153 10.657,-16.128 0,-22.28 z"
       fill="#fdc600"
       id="path2" />
    <path
       d="m 123.347,64.188 c 10.657,-6.1525 27.936,-6.1525 38.594,0 l 92.702,53.517 c 10.658,6.153 10.658,16.128 0,22.281 l -92.702,53.517 c -10.658,6.152 -27.937,6.152 -38.594,0 L 30.6441,139.986 c -10.6574,-6.153 -10.6574,-16.128 0,-22.281 z"
       fill="#ffa600"
       fill-opacity="0.9"
       id="path3" />
    <g
       filter="url(#filter0_ddddd_778_3918)"
       id="g4">
      <path
         fill-rule="evenodd"
         clip-rule="evenodd"
         d="M 253.679,130.461 160.976,76.9442 c -10.125,-5.8449 -26.54,-5.8449 -36.664,1e-4 L 31.609,130.461 c -10.1246,5.845 -10.1246,15.322 0,21.167 l 92.703,53.517 c 10.124,5.845 26.539,5.845 36.664,0 l 92.703,-53.517 c 10.124,-5.845 10.124,-15.322 0,-21.167 z M 161.941,76.3872 c -10.658,-6.1525 -27.937,-6.1525 -38.594,0 L 30.6441,129.904 c -10.6574,6.153 -10.6574,16.128 0,22.281 l 92.7029,53.517 c 10.657,6.153 27.936,6.153 38.594,0 l 92.702,-53.517 c 10.658,-6.153 10.658,-16.128 0,-22.281 z"
         fill="#ffa600"
         id="path4" />
    </g>
    <path
       d="m 123.347,38.2808 c 10.657,-6.1525 27.936,-6.1526 38.594,0 l 92.702,53.5172 c 10.658,6.1526 10.658,16.128 0,22.28 l -92.702,53.518 c -10.658,6.152 -27.937,6.152 -38.594,0 L 30.6441,114.078 c -10.6574,-6.152 -10.6574,-16.1274 0,-22.28 z"
       fill="#ff8a01"
       fill-opacity="0.9"
       id="path5" />
    <path
       fill-rule="evenodd"
       clip-rule="evenodd"
       d="M 253.679,104.554 160.976,51.037 c -10.125,-5.8449 -26.54,-5.8449 -36.664,0 l -92.703,53.517 c -10.1246,5.845 -10.1246,15.322 0,21.167 l 92.703,53.517 c 10.124,5.845 26.539,5.845 36.664,0 l 92.703,-53.517 c 10.124,-5.845 10.124,-15.322 0,-21.167 z M 161.941,50.48 c -10.658,-6.1525 -27.937,-6.1525 -38.594,0 l -92.7029,53.517 c -10.6574,6.153 -10.6574,16.128 0,22.281 l 92.7029,53.517 c 10.657,6.152 27.936,6.152 38.594,0 l 92.702,-53.517 c 10.658,-6.153 10.658,-16.128 0,-22.281 z"
       fill="#ff8a01"
       id="path6" />
    <path
       d="m 123.347,11.1402 c 10.658,-6.15257 27.937,-6.15258 38.594,0 l 92.703,53.5172 c 10.657,6.1526 10.657,16.1278 0,22.2804 l -92.703,53.5172 c -10.657,6.153 -27.936,6.153 -38.594,0 L 30.6446,86.9378 c -10.6574,-6.1526 -10.6574,-16.1278 0,-22.2804 z"
       fill="#ffa601"
       id="path7" />
    <path
       fill-rule="evenodd"
       clip-rule="evenodd"
       d="M 253.679,77.4136 160.976,23.8964 c -10.124,-5.8449 -26.539,-5.8449 -36.664,0 L 31.6095,77.4136 c -10.1246,5.845 -10.1246,15.3215 0,21.1664 l 92.7025,53.517 c 10.125,5.845 26.54,5.845 36.664,0 L 253.679,98.58 c 10.125,-5.845 10.125,-15.3214 0,-21.1664 z M 161.941,23.3394 c -10.657,-6.1526 -27.936,-6.1526 -38.594,0 L 30.6446,76.8566 c -10.6574,6.1526 -10.6574,16.1278 0,22.2804 l 92.7024,53.517 c 10.658,6.153 27.937,6.153 38.594,0 l 92.703,-53.517 c 10.657,-6.1526 10.657,-16.1278 0,-22.2804 z"
       fill="#ffa601"
       id="path8" />
    <path
       fill-rule="evenodd"
       clip-rule="evenodd"
       d="m 123.588,47.651 c 5.057,-2.9196 13.257,-2.9196 18.314,0 L 181.5,70.5109 c 5.057,2.9195 5.057,7.6531 0,10.5727 l -39.598,22.8604 c -5.057,2.919 -13.257,2.919 -18.314,0 L 83.99,81.0836 c -5.0573,-2.9196 -5.0573,-7.6531 0,-10.5727 z m 14.849,2.0002 c -3.143,-1.8149 -8.24,-1.8149 -11.384,0 L 87.4548,72.5111 c -3.1437,1.8149 -3.1437,4.7574 0,6.5723 l 39.5982,22.8596 c 3.143,1.815 8.24,1.815 11.384,0 l 39.598,-22.8597 c 3.144,-1.8148 3.144,-4.7573 0,-6.5722 z"
       fill="#ffffff"
       id="path9" />
    <path
       fill-rule="evenodd"
       clip-rule="evenodd"
       d="m 159.777,50.5449 c -0.324,-0.1868 -0.642,-0.3704 -0.979,-0.5651 -1.132,-0.6538 -1.647,-1.5503 -0.434,-2.2507 1.099,-0.6344 2.427,-0.6031 3.627,0.09 0.615,0.3541 0.594,0.3463 1.251,0.7256 l 3.819,2.2049 c 0.957,0.5523 0.957,1.4479 0,2.0002 -0.957,0.5524 -2.508,0.5524 -3.465,0 z m 14.712,6.4932 c 0.957,-0.5523 2.508,-0.5523 3.465,0 l 7.639,4.4099 c 0.957,0.5524 0.957,1.4479 0,2.0003 -0.957,0.5523 -2.508,0.5523 -3.465,0 l -7.639,-4.4099 c -0.956,-0.5524 -0.956,-1.4479 0,-2.0003 z m 18.532,10.6985 c 0.957,-0.5524 2.508,-0.5524 3.465,0 l 3.819,2.2049 c 0.894,0.5157 1.632,1.09 2.211,1.7024 0.649,0.6855 0.213,1.5448 -0.974,1.9195 -1.188,0.3746 -2.676,0.1226 -3.325,-0.5628 -0.359,-0.3785 -0.816,-0.7356 -1.376,-1.0589 l -3.82,-2.2049 c -0.957,-0.5524 -0.957,-1.4479 0,-2.0002 z M 151.789,45.5961 c 0.649,0.6854 0.213,1.5448 -0.974,1.9194 -0.377,0.1188 -0.733,0.2709 -1.056,0.4577 -0.957,0.5523 -2.509,0.5523 -3.465,0 -0.957,-0.5524 -0.957,-1.4479 0,-2.0003 0.657,-0.3792 1.389,-0.6929 2.171,-0.9396 1.187,-0.3746 2.676,-0.1226 3.324,0.5628 z m 49.753,32.4392 c 1.187,0.3747 1.623,1.234 0.974,1.9195 -0.579,0.6124 -1.317,1.1867 -2.211,1.7024 l -3.871,2.2348 c -0.957,0.5524 -2.508,0.5524 -3.465,0 -0.956,-0.5523 -0.956,-1.4478 0,-2.0002 l 3.872,-2.2348 c 0.56,-0.3233 1.017,-0.6804 1.376,-1.0589 0.649,-0.6854 2.137,-0.9374 3.325,-0.5628 z m -15.687,9.964 c 0.957,0.5523 0.957,1.4479 0,2.0002 l -7.743,4.4697 c -0.956,0.5524 -2.508,0.5524 -3.464,0 -0.957,-0.5523 -0.957,-1.4479 0,-2.0002 l 7.742,-4.4697 c 0.957,-0.5524 2.508,-0.5524 3.465,0 z m -17.827,10.2914 c 0.957,0.5523 0.957,1.4479 0,2.0003 l -3.871,2.235 c -0.601,0.347 -0.371,0.214 -0.921,0.532 -0.964,0.556 -2.397,0.678 -3.519,0.03 -1.407,-0.812 -0.772,-1.554 0.211,-2.122 0.231,-0.133 0.496,-0.286 0.764,-0.44 l 3.871,-2.2353 c 0.957,-0.5523 2.508,-0.5524 3.465,0 z m -16.347,7.6753 c -0.649,0.686 -2.138,0.938 -3.325,0.563 -0.716,-0.226 -1.386,-0.513 -1.987,-0.86 -0.957,-0.552 -0.957,-1.448 0,-2 0.956,-0.553 2.508,-0.553 3.464,0 0.268,0.154 0.562,0.28 0.873,0.378 1.187,0.375 1.624,1.234 0.975,1.919 z"
       fill="#ffffff"
       id="path10" />
  </g>
  <defs
     id="defs20">
    <filter
       id="filter0_ddddd_778_3918"
       x="-42.3489"
       y="57.7729"
       width="391.98499"
       height="418.543"
       filterUnits="userSpaceOnUse"
       color-interpolation-filters="sRGB">
      <feFlood
         flood-opacity="0"
         result="BackgroundImageFix"
         id="feFlood10" />
      <feColorMatrix
         in="SourceAlpha"
         type="matrix"
         values="0 0 0 0 0 0 0 0 0 0 0 0 0 0 0 0 0 0 127 0"
         result="hardAlpha"
         id="feColorMatrix10" />
      <feOffset
         id="feOffset10" />
      <feColorMatrix
         type="matrix"
         values="0 0 0 0 0 0 0 0 0 0 0 0 0 0 0 0 0 0 0.1 0"
         id="feColorMatrix11" />
      <feBlend
         mode="normal"
         in2="BackgroundImageFix"
         result="effect1_dropShadow_778_3918"
         id="feBlend11" />
      <feColorMatrix
         in="SourceAlpha"
         type="matrix"
         values="0 0 0 0 0 0 0 0 0 0 0 0 0 0 0 0 0 0 127 0"
         result="hardAlpha"
         id="feColorMatrix12" />
      <feOffset
         dx="1"
         dy="12"
         id="feOffset12" />
      <feGaussianBlur
         stdDeviation="13"
         id="feGaussianBlur12" />
      <feColorMatrix
         type="matrix"
         values="0 0 0 0 0 0 0 0 0 0 0 0 0 0 0 0 0 0 0.1 0"
         id="feColorMatrix13" />
      <feBlend
         mode="normal"
         in2="effect1_dropShadow_778_3918"
         result="effect2_dropShadow_778_3918"
         id="feBlend13" />
      <feColorMatrix
         in="SourceAlpha"
         type="matrix"
         values="0 0 0 0 0 0 0 0 0 0 0 0 0 0 0 0 0 0 127 0"
         result="hardAlpha"
         id="feColorMatrix14" />
      <feOffset
         dx="3"
         dy="47"
         id="feOffset14" />
      <feGaussianBlur
         stdDeviation="24"
         id="feGaussianBlur14" />
      <feColorMatrix
         type="matrix"
         values="0 0 0 0 0 0 0 0 0 0 0 0 0 0 0 0 0 0 0.09 0"
         id="feColorMatrix15" />
      <feBlend
         mode="normal"
         in2="effect2_dropShadow_778_3918"
         result="effect3_dropShadow_778_3918"
         id="feBlend15" />
      <feColorMatrix
         in="SourceAlpha"
         type="matrix"
         values="0 0 0 0 0 0 0 0 0 0 0 0 0 0 0 0 0 0 127 0"
         result="hardAlpha"
         id="feColorMatrix16" />
      <feOffset
         dx="6"
         dy="107"
         id="feOffset16" />
      <feGaussianBlur
         stdDeviation="32"
         id="feGaussianBlur16" />
      <feColorMatrix
         type="matrix"
         values="0 0 0 0 0 0 0 0 0 0 0 0 0 0 0 0 0 0 0.05 0"
         id="feColorMatrix17" />
      <feBlend
         mode="normal"
         in2="effect3_dropShadow_778_3918"
         result="effect4_dropShadow_778_3918"
         id="feBlend17" />
      <feColorMatrix
         in="SourceAlpha"
         type="matrix"
         values="0 0 0 0 0 0 0 0 0 0 0 0 0 0 0 0 0 0 127 0"
         result="hardAlpha"
         id="feColorMatrix18" />
      <feOffset
         dx="11"
         dy="190"
         id="feOffset18" />
      <feGaussianBlur
         stdDeviation="38"
         id="feGaussianBlur18" />
      <feColorMatrix
         type="matrix"
         values="0 0 0 0 0 0 0 0 0 0 0 0 0 0 0 0 0 0 0.01 0"
         id="feColorMatrix19" />
      <feBlend
         mode="normal"
         in2="effect4_dropShadow_778_3918"
         result="effect5_dropShadow_778_3918"
         id="feBlend19" />
      <feBlend
         mode="normal"
         in="SourceGraphic"
         in2="effect5_dropShadow_778_3918"
         result="shape"
         id="feBlend20" />
    </filter>
    <clipPath
       id="clip0_778_3918">
      <rect
         width="284.34201"
         height="243.983"
         fill="#ffffff"
         transform="translate(0.164551)"
         id="rect20"
         x="0"
         y="0" />
    </clipPath>
  </defs>
</svg>
