<svg width="285" height="244" viewBox="0 0 285 244" fill="none" xmlns="http://www.w3.org/2000/svg">
<g clip-path="url(#clip0_1_1184)">
<path d="M122.73 91.3279C133.388 85.1754 150.667 85.1754 161.324 91.3279L254.027 144.845C264.684 150.998 264.684 160.973 254.027 167.125L161.324 220.643C150.667 226.795 133.388 226.795 122.73 220.643L30.0276 167.126C19.3701 160.973 19.3701 150.998 30.0275 144.845L122.73 91.3279Z" fill="#DCCA27"/>
<path fill-rule="evenodd" clip-rule="evenodd" d="M253.062 157.601L160.36 104.084C150.235 98.2392 133.82 98.2392 123.695 104.084L30.9925 157.601C20.868 163.446 20.868 172.923 30.9925 178.768L123.695 232.285C133.82 238.13 150.235 238.13 160.36 232.285L253.062 178.768C263.187 172.923 263.187 163.446 253.062 157.601ZM161.324 103.527C150.667 97.3746 133.388 97.3746 122.73 103.527L30.0277 157.044C19.3702 163.197 19.3702 173.172 30.0277 179.325L122.73 232.842C133.388 238.995 150.667 238.995 161.324 232.842L254.027 179.325C264.684 173.172 264.684 163.197 254.027 157.044L161.324 103.527Z" fill="#DBC928"/>
<path d="M123.347 64.1883C134.004 58.0357 151.283 58.0357 161.941 64.1883L254.643 117.706C265.301 123.858 265.301 133.833 254.643 139.986L161.941 193.503C151.283 199.656 134.004 199.656 123.347 193.503L30.6441 139.986C19.9867 133.833 19.9867 123.858 30.6441 117.706L123.347 64.1883Z" fill="#E2D34B"/>
<g filter="url(#filter0_ddddd_1_1184)">
<path fill-rule="evenodd" clip-rule="evenodd" d="M253.679 130.462L160.976 76.9447C150.851 71.0998 134.436 71.0998 124.312 76.9447L31.609 130.462C21.4844 136.307 21.4844 145.783 31.609 151.628L124.312 205.146C134.436 210.99 150.851 210.99 160.976 205.146L253.679 151.628C263.803 145.783 263.803 136.307 253.679 130.462ZM161.941 76.3877C151.283 70.2352 134.004 70.2352 123.347 76.3877L30.6441 129.905C19.9867 136.058 19.9867 146.033 30.6441 152.185L123.347 205.703C134.004 211.855 151.283 211.855 161.941 205.703L254.643 152.185C265.301 146.033 265.301 136.058 254.643 129.905L161.941 76.3877Z" fill="#E2D34B"/>
</g>
<path d="M123.347 38.2806C134.004 32.128 151.283 32.128 161.941 38.2805L254.643 91.7978C265.301 97.9503 265.301 107.926 254.643 114.078L161.941 167.595C151.283 173.748 134.004 173.748 123.347 167.595L30.6441 114.078C19.9867 107.926 19.9867 97.9503 30.6441 91.7978L123.347 38.2806Z" fill="#F0E04F"/>
<path fill-rule="evenodd" clip-rule="evenodd" d="M253.679 104.554L160.976 51.0368C150.851 45.1919 134.436 45.1919 124.312 51.0368L31.609 104.554C21.4844 110.399 21.4844 119.875 31.609 125.72L124.312 179.238C134.436 185.083 150.851 185.083 160.976 179.238L253.679 125.72C263.803 119.875 263.803 110.399 253.679 104.554ZM161.941 50.4798C151.283 44.3272 134.004 44.3272 123.347 50.4798L30.6441 103.997C19.9867 110.15 19.9867 120.125 30.6441 126.277L123.347 179.795C134.004 185.947 151.283 185.947 161.941 179.795L254.643 126.277C265.301 120.125 265.301 110.15 254.643 103.997L161.941 50.4798Z" fill="#F0E04F"/>
<path d="M123.347 11.1399C134.005 4.98738 151.284 4.98738 161.941 11.1399L254.644 64.6572C265.301 70.8097 265.301 80.785 254.644 86.9375L161.941 140.455C151.284 146.607 134.005 146.607 123.347 140.455L30.6445 86.9375C19.987 80.785 19.987 70.8097 30.6445 64.6572L123.347 11.1399Z" fill="#FFEB36"/>
<path fill-rule="evenodd" clip-rule="evenodd" d="M253.679 77.4136L160.976 23.8964C150.852 18.0515 134.437 18.0515 124.312 23.8964L31.6093 77.4136C21.4848 83.2586 21.4848 92.7351 31.6093 98.58L124.312 152.097C134.437 157.942 150.852 157.942 160.976 152.097L253.679 98.58C263.804 92.735 263.804 83.2586 253.679 77.4136ZM161.941 23.3394C151.284 17.1868 134.005 17.1868 123.347 23.3394L30.6445 76.8566C19.987 83.0092 19.987 92.9844 30.6445 99.137L123.347 152.654C134.005 158.807 151.284 158.807 161.941 152.654L254.644 99.137C265.301 92.9844 265.301 83.0092 254.644 76.8566L161.941 23.3394Z" fill="#FFEB36"/>
<path fill-rule="evenodd" clip-rule="evenodd" d="M103.789 90.513L158.236 59.0807L161.701 61.0809L107.254 92.5132L103.789 90.513Z" fill="white"/>
<path fill-rule="evenodd" clip-rule="evenodd" d="M107.254 59.0808L161.701 90.5131L158.236 92.5133L103.789 61.0811L107.254 59.0808Z" fill="white"/>
<path fill-rule="evenodd" clip-rule="evenodd" d="M138.789 56.3061C139.745 56.8584 139.745 57.754 138.789 58.3063L128.394 64.307C127.437 64.8594 125.886 64.8594 124.929 64.307C123.973 63.7547 123.973 62.8591 124.929 62.3068L135.324 56.3061C136.281 55.7537 137.832 55.7537 138.789 56.3061Z" fill="white"/>
<path fill-rule="evenodd" clip-rule="evenodd" d="M115.122 75.6261C115.122 76.4073 114.025 77.0405 112.672 77.0405L97.9723 77.0405C96.6192 77.0405 95.5223 76.4073 95.5223 75.6261C95.5223 74.845 96.6192 74.2117 97.9723 74.2117L112.672 74.2117C114.025 74.2117 115.122 74.845 115.122 75.6261Z" fill="white"/>
<path fill-rule="evenodd" clip-rule="evenodd" d="M138.789 64.307C137.832 64.8594 136.281 64.8594 135.324 64.307L124.929 58.3063C123.973 57.7539 123.973 56.8584 124.929 56.3061C125.886 55.7537 127.437 55.7537 128.394 56.3061L138.789 62.3068C139.745 62.8591 139.745 63.7547 138.789 64.307Z" fill="white"/>
<path fill-rule="evenodd" clip-rule="evenodd" d="M105.322 81.2839C103.969 81.2839 102.872 80.6507 102.872 79.8695L102.872 71.3832C102.872 70.6021 103.969 69.9688 105.322 69.9688C106.675 69.9688 107.772 70.6021 107.772 71.3832L107.772 79.8695C107.772 80.6507 106.675 81.2839 105.322 81.2839Z" fill="white"/>
<path fill-rule="evenodd" clip-rule="evenodd" d="M166.347 80.2166C165.391 80.769 163.839 80.769 162.882 80.2166L152.488 74.2159C151.531 73.6636 151.531 72.768 152.488 72.2157C153.445 71.6633 154.996 71.6633 155.953 72.2157L166.347 78.2164C167.304 78.7687 167.304 79.6643 166.347 80.2166Z" fill="white"/>
<path fill-rule="evenodd" clip-rule="evenodd" d="M139.563 95.3934C138.606 95.9458 137.055 95.9458 136.098 95.3934L126.199 89.6784C125.242 89.1261 125.242 88.2306 126.199 87.6782C127.156 87.1259 128.707 87.1259 129.664 87.6782L139.563 93.3932C140.52 93.9455 140.52 94.8411 139.563 95.3934Z" fill="white"/>
<path d="M140.306 89.2498C139.349 89.8022 137.798 89.8022 136.841 89.2498C135.884 88.6975 135.884 87.8019 136.841 87.2496C137.798 86.6972 139.349 86.6972 140.306 87.2496C141.262 87.8019 141.262 88.6975 140.306 89.2498Z" fill="white"/>
<path d="M128.921 95.822C127.964 96.3744 126.413 96.3744 125.456 95.822C124.5 95.2697 124.5 94.3742 125.456 93.8218C126.413 93.2695 127.964 93.2695 128.921 93.8218C129.878 94.3742 129.878 95.2697 128.921 95.822Z" fill="white"/>
<path fill-rule="evenodd" clip-rule="evenodd" d="M123.588 47.6507C128.645 44.7311 136.845 44.7311 141.902 47.6507L181.5 70.5106C186.557 73.4302 186.557 78.1638 181.5 81.0833L141.902 103.943C136.845 106.863 128.645 106.863 123.588 103.943L83.99 81.0834C78.9327 78.1638 78.9327 73.4302 83.99 70.5107L123.588 47.6507ZM138.437 49.651C135.294 47.8361 130.197 47.8361 127.053 49.651L87.4548 72.5109C84.3111 74.3258 84.3111 77.2683 87.4548 79.0831L127.053 101.943C130.196 103.758 135.293 103.758 138.437 101.943L178.035 79.0831C181.179 77.2682 181.179 74.3257 178.035 72.5109L138.437 49.651Z" fill="white"/>
<path fill-rule="evenodd" clip-rule="evenodd" d="M159.777 50.5447C159.453 50.3579 159.135 50.1742 158.798 49.9796C157.666 49.3257 157.151 48.4292 158.364 47.7289C159.463 47.0944 160.791 47.1257 161.991 47.8188C162.606 48.1729 162.585 48.1652 163.242 48.5444L167.061 50.7493C168.018 51.3017 168.018 52.1972 167.061 52.7496C166.104 53.3019 164.553 53.3019 163.596 52.7496L159.777 50.5447ZM174.489 57.0379C175.446 56.4855 176.997 56.4855 177.954 57.0379L185.593 61.4478C186.55 62.0001 186.55 62.8957 185.593 63.448C184.636 64.0004 183.085 64.0004 182.128 63.448L174.489 59.0381C173.533 58.4858 173.533 57.5902 174.489 57.0379ZM193.021 67.7363C193.978 67.184 195.529 67.184 196.486 67.7363L200.305 69.9412C201.199 70.457 201.937 71.0312 202.516 71.6437C203.165 72.3291 202.729 73.1885 201.542 73.5631C200.354 73.9377 198.866 73.6858 198.217 73.0003C197.858 72.6218 197.401 72.2647 196.841 71.9415L193.021 69.7366C192.064 69.1842 192.064 68.2887 193.021 67.7363ZM151.789 45.5959C152.438 46.2813 152.002 47.1407 150.815 47.5153C150.438 47.6341 150.082 47.7861 149.759 47.9729C148.802 48.5253 147.25 48.5253 146.294 47.9729C145.337 47.4206 145.337 46.525 146.294 45.9727C146.951 45.5934 147.683 45.2797 148.465 45.0331C149.652 44.6585 151.141 44.9104 151.789 45.5959ZM201.542 78.0351C202.729 78.4097 203.165 79.2691 202.516 79.9545C201.937 80.567 201.199 81.1412 200.305 81.6569L196.434 83.8918C195.477 84.4441 193.926 84.4442 192.969 83.8918C192.013 83.3395 192.013 82.4439 192.969 81.8916L196.841 79.6567C197.401 79.3335 197.858 78.9764 198.217 78.5979C198.866 77.9124 200.354 77.6604 201.542 78.0351ZM185.855 87.999C186.812 88.5514 186.812 89.4469 185.855 89.9993L178.112 94.469C177.156 95.0213 175.604 95.0213 174.648 94.469C173.691 93.9166 173.691 93.0211 174.648 92.4687L182.39 87.999C183.347 87.4467 184.898 87.4467 185.855 87.999ZM168.028 98.2905C168.985 98.8428 168.985 99.7383 168.028 100.291L164.157 102.526C163.556 102.873 163.786 102.739 163.236 103.057C162.272 103.614 160.839 103.736 159.717 103.088C158.31 102.276 158.945 101.534 159.928 100.966C160.159 100.833 160.424 100.68 160.692 100.525L164.563 98.2905C165.52 97.7381 167.071 97.7381 168.028 98.2905ZM151.681 105.966C151.032 106.652 149.543 106.904 148.356 106.529C147.64 106.303 146.97 106.016 146.369 105.669C145.412 105.116 145.412 104.221 146.369 103.669C147.325 103.116 148.877 103.116 149.833 103.669C150.101 103.823 150.395 103.949 150.706 104.047C151.893 104.421 152.33 105.281 151.681 105.966Z" fill="white"/>
</g>
<defs>
<filter id="filter0_ddddd_1_1184" x="-42.349" y="57.7734" width="391.986" height="418.543" filterUnits="userSpaceOnUse" color-interpolation-filters="sRGB">
<feFlood flood-opacity="0" result="BackgroundImageFix"/>
<feColorMatrix in="SourceAlpha" type="matrix" values="0 0 0 0 0 0 0 0 0 0 0 0 0 0 0 0 0 0 127 0" result="hardAlpha"/>
<feOffset/>
<feColorMatrix type="matrix" values="0 0 0 0 0 0 0 0 0 0 0 0 0 0 0 0 0 0 0.1 0"/>
<feBlend mode="normal" in2="BackgroundImageFix" result="effect1_dropShadow_1_1184"/>
<feColorMatrix in="SourceAlpha" type="matrix" values="0 0 0 0 0 0 0 0 0 0 0 0 0 0 0 0 0 0 127 0" result="hardAlpha"/>
<feOffset dx="1" dy="12"/>
<feGaussianBlur stdDeviation="13"/>
<feColorMatrix type="matrix" values="0 0 0 0 0 0 0 0 0 0 0 0 0 0 0 0 0 0 0.1 0"/>
<feBlend mode="normal" in2="effect1_dropShadow_1_1184" result="effect2_dropShadow_1_1184"/>
<feColorMatrix in="SourceAlpha" type="matrix" values="0 0 0 0 0 0 0 0 0 0 0 0 0 0 0 0 0 0 127 0" result="hardAlpha"/>
<feOffset dx="3" dy="47"/>
<feGaussianBlur stdDeviation="24"/>
<feColorMatrix type="matrix" values="0 0 0 0 0 0 0 0 0 0 0 0 0 0 0 0 0 0 0.09 0"/>
<feBlend mode="normal" in2="effect2_dropShadow_1_1184" result="effect3_dropShadow_1_1184"/>
<feColorMatrix in="SourceAlpha" type="matrix" values="0 0 0 0 0 0 0 0 0 0 0 0 0 0 0 0 0 0 127 0" result="hardAlpha"/>
<feOffset dx="6" dy="107"/>
<feGaussianBlur stdDeviation="32"/>
<feColorMatrix type="matrix" values="0 0 0 0 0 0 0 0 0 0 0 0 0 0 0 0 0 0 0.05 0"/>
<feBlend mode="normal" in2="effect3_dropShadow_1_1184" result="effect4_dropShadow_1_1184"/>
<feColorMatrix in="SourceAlpha" type="matrix" values="0 0 0 0 0 0 0 0 0 0 0 0 0 0 0 0 0 0 127 0" result="hardAlpha"/>
<feOffset dx="11" dy="190"/>
<feGaussianBlur stdDeviation="38"/>
<feColorMatrix type="matrix" values="0 0 0 0 0 0 0 0 0 0 0 0 0 0 0 0 0 0 0.01 0"/>
<feBlend mode="normal" in2="effect4_dropShadow_1_1184" result="effect5_dropShadow_1_1184"/>
<feBlend mode="normal" in="SourceGraphic" in2="effect5_dropShadow_1_1184" result="shape"/>
</filter>
<clipPath id="clip0_1_1184">
<rect width="284.342" height="243.983" fill="white" transform="translate(0.164551)"/>
</clipPath>
</defs>
</svg>
