<svg width="285" height="245" viewBox="0 0 285 245" fill="none" xmlns="http://www.w3.org/2000/svg">
<g clip-path="url(#clip0_1683_1335)">
<path d="M123.075 91.6143C133.732 85.4617 151.012 85.4617 161.669 91.6143L254.372 145.132C265.029 151.284 265.029 161.259 254.372 167.412L161.669 220.929C151.012 227.082 133.733 227.082 123.075 220.929L30.3724 167.412C19.715 161.259 19.7149 151.284 30.3724 145.132L123.075 91.6143Z" fill="#57A6F5" fill-opacity="0.9"/>
<path fill-rule="evenodd" clip-rule="evenodd" d="M253.407 157.888L160.704 104.371C150.58 98.5256 134.164 98.5256 124.04 104.371L31.3372 157.888C21.2127 163.733 21.2127 173.209 31.3373 179.054L124.04 232.571C134.164 238.416 150.58 238.416 160.704 232.571L253.407 179.054C263.531 173.209 263.531 163.733 253.407 157.888ZM161.669 103.814C151.012 97.661 133.732 97.661 123.075 103.814L30.3724 157.331C19.7149 163.483 19.715 173.459 30.3724 179.611L123.075 233.128C133.733 239.281 151.012 239.281 161.669 233.128L254.372 179.611C265.029 173.459 265.029 163.483 254.372 157.331L161.669 103.814Z" fill="#57A6F5"/>
<path d="M123.692 64.4742C134.35 58.3216 151.629 58.3216 162.286 64.4742L254.989 117.991C265.646 124.144 265.646 134.119 254.989 140.272L162.286 193.789C151.629 199.942 134.35 199.942 123.692 193.789L30.9896 140.272C20.3321 134.119 20.3321 124.144 30.9896 117.991L123.692 64.4742Z" fill="#4390EB" fill-opacity="0.9"/>
<g filter="url(#filter0_ddddd_1683_1335)">
<path fill-rule="evenodd" clip-rule="evenodd" d="M254.024 130.748L161.321 77.2304C151.197 71.3855 134.782 71.3855 124.657 77.2304L31.9544 130.748C21.8299 136.593 21.8299 146.069 31.9544 151.914L124.657 205.431C134.782 211.276 151.197 211.276 161.321 205.431L254.024 151.914C264.149 146.069 264.149 136.593 254.024 130.748ZM162.286 76.6734C151.629 70.5208 134.35 70.5208 123.692 76.6734L30.9896 130.191C20.3321 136.343 20.3321 146.318 30.9896 152.471L123.692 205.988C134.35 212.141 151.629 212.141 162.286 205.988L254.989 152.471C265.646 146.318 265.646 136.343 254.989 130.191L162.286 76.6734Z" fill="#4390EB"/>
</g>
<path d="M123.692 38.5669C134.35 32.4144 151.629 32.4144 162.286 38.5669L254.989 92.0842C265.646 98.2367 265.646 108.212 254.989 114.365L162.286 167.882C151.629 174.034 134.35 174.034 123.692 167.882L30.9896 114.365C20.3321 108.212 20.3321 98.2367 30.9896 92.0842L123.692 38.5669Z" fill="#285EC6" fill-opacity="0.9"/>
<path fill-rule="evenodd" clip-rule="evenodd" d="M254.024 104.84L161.321 51.3232C151.197 45.4782 134.782 45.4782 124.657 51.3232L31.9544 104.84C21.8299 110.685 21.8299 120.162 31.9544 126.007L124.657 179.524C134.782 185.369 151.197 185.369 161.321 179.524L254.024 126.007C264.149 120.162 264.149 110.685 254.024 104.84ZM162.286 50.7661C151.629 44.6136 134.35 44.6136 123.692 50.7661L30.9896 104.283C20.3321 110.436 20.3321 120.411 30.9896 126.564L123.692 180.081C134.35 186.234 151.629 186.234 162.286 180.081L254.989 126.564C265.646 120.411 265.646 110.436 254.989 104.283L162.286 50.7661Z" fill="#3B88CF"/>
<path d="M123.692 11.4263C134.35 5.27376 151.629 5.27376 162.286 11.4263L254.989 64.9435C265.646 71.0961 265.646 81.0713 254.989 87.2239L162.286 140.741C151.629 146.894 134.35 146.894 123.692 140.741L30.9896 87.2239C20.3321 81.0713 20.3321 71.0961 30.9896 64.9436L123.692 11.4263Z" fill="#0751C1"/>
<path fill-rule="evenodd" clip-rule="evenodd" d="M254.024 77.6998L161.321 24.1825C151.197 18.3376 134.782 18.3376 124.657 24.1825L31.9544 77.6998C21.8299 83.5447 21.8299 93.0212 31.9544 98.8661L124.657 152.383C134.782 158.228 151.197 158.228 161.321 152.383L254.024 98.8661C264.149 93.0212 264.149 83.5447 254.024 77.6998ZM162.286 23.6255C151.629 17.473 134.35 17.473 123.692 23.6255L30.9896 77.1428C20.3321 83.2953 20.3321 93.2706 30.9896 99.4231L123.692 152.94C134.35 159.093 151.629 159.093 162.286 152.94L254.989 99.4231C265.646 93.2706 265.646 83.2953 254.989 77.1428L162.286 23.6255Z" fill="#0751C1"/>
<path d="M142.815 76.4665C149.297 80.2089 159.851 80.2089 166.334 76.4665C172.816 72.7242 172.816 66.6316 166.334 62.8892C159.851 59.1469 149.297 59.1469 142.815 62.8892C136.332 66.6316 136.332 72.7242 142.815 76.4665ZM163.362 64.6048C168.204 67.4005 168.204 71.9447 163.362 74.7404C158.519 77.5361 150.648 77.5361 145.805 74.7404C140.962 71.9447 140.962 67.4005 145.805 64.6048C150.638 61.8149 158.529 61.8149 163.362 64.6048Z" fill="white"/>
<path d="M173.681 91.3586C179.267 94.5832 188.343 94.5773 193.919 91.3586C199.504 88.1341 199.494 82.8942 193.919 79.6755C188.333 76.451 179.257 76.4568 173.681 79.6755C168.096 82.888 168.095 88.1341 173.681 91.3586ZM190.94 81.3953C194.875 83.6674 194.875 87.3655 190.94 89.6375C187.004 91.9095 180.598 91.9094 176.663 89.6374C172.727 87.3654 172.727 83.6673 176.663 81.3953C180.598 79.1232 187.004 79.1233 190.94 81.3953Z" fill="white"/>
<path d="M176.326 109.692C176.355 109.675 176.365 109.658 176.394 109.642L185.616 102.268C187.989 100.364 187.632 97.7856 184.757 96.1262L184.101 95.7474C183.716 95.5248 183.185 95.3963 182.635 95.3912C178.419 95.3519 174.455 94.3777 171.474 92.6568C168.484 90.9305 166.806 88.6472 166.747 86.219C166.737 85.9016 166.516 85.5951 166.13 85.3725L164.934 84.6819C162.763 83.4287 159.629 83.0224 156.811 83.4905C156.425 83.1231 155.963 82.7777 155.422 82.4658L154.651 82.0202C154.265 81.7977 153.734 81.6691 153.184 81.664C148.072 81.6198 143.258 80.4443 139.631 78.3505C136.004 76.2568 133.968 73.4777 133.882 70.5208C133.872 70.2034 133.66 69.9024 133.265 69.6744L131.837 68.8501C131.326 68.5548 130.738 68.293 130.13 68.0759C130.95 66.444 130.246 64.6568 128.066 63.3981L127.41 63.0194C127.024 62.7968 126.493 62.6682 125.943 62.6632C121.728 62.6239 117.763 61.6496 114.782 59.9288C111.792 58.2025 110.114 55.9191 110.055 53.4909C110.045 53.1736 109.824 52.8671 109.438 52.6445L108.242 51.9538C105.358 50.2889 100.881 50.0772 97.592 51.4523L84.8302 56.7819C84.8013 56.7987 84.7723 56.8045 84.7434 56.8212C83.1036 57.5783 82.1097 58.7091 81.9947 59.923C81.879 61.1373 82.6703 62.3174 84.156 63.1751L104.221 74.7583C102.485 75.616 101.423 76.852 101.288 78.1775C101.162 79.553 102.05 80.9005 103.738 81.8751L132.87 98.6931C134.559 99.6677 136.902 100.186 139.286 100.113C141.572 100.041 143.713 99.4281 145.199 98.426L165.311 110.037C166.797 110.895 168.851 111.346 170.955 111.279C173.056 111.211 175.004 110.632 176.325 109.691L176.326 109.692ZM86.1996 60.0562C86.2474 59.5384 86.6532 59.0703 87.3476 58.7362L100.071 53.4288C101.672 52.7607 103.853 52.8609 105.261 53.6739L105.879 54.0305C106.168 56.9043 108.251 59.5994 111.811 61.6543C115.37 63.7092 120.03 64.9177 125.017 65.079L125.084 65.1178C126.097 65.7024 126.474 66.5213 126.155 67.2842C126.106 67.2788 126.048 67.2788 125.99 67.2788C125.884 67.2733 125.788 67.273 125.682 67.2675C125.45 67.2566 125.219 67.2566 124.978 67.2621C124.871 67.2675 124.765 67.2621 124.659 67.2679C124.399 67.2737 124.139 67.2904 123.888 67.3126C123.82 67.318 123.743 67.3184 123.676 67.3238C123.347 67.3572 123.03 67.3961 122.711 67.4462C122.634 67.4575 122.557 67.4796 122.48 67.4905C122.239 67.5293 121.998 67.5794 121.766 67.6354C121.67 67.6575 121.564 67.6855 121.467 67.7076C121.255 67.7632 121.033 67.8246 120.831 67.8855C120.744 67.9131 120.647 67.9357 120.552 67.9691C120.253 68.0639 119.973 68.1695 119.703 68.281L107.653 73.299L87.1355 61.4542C86.4896 61.0813 86.1518 60.5857 86.2002 60.0566L86.1996 60.0562ZM139.052 97.6736C137.846 97.7125 136.708 97.4565 135.859 96.9663L106.727 80.1483C105.878 79.658 105.444 79.0066 105.502 78.3051C105.57 77.6202 106.1 77.0018 107.016 76.573L108.666 75.8882C108.675 75.8827 108.675 75.8827 108.685 75.8882L122.161 70.2579C123.502 69.6955 125.18 69.5397 126.763 69.8404C127.554 69.9853 128.277 70.2358 128.866 70.5757L129.705 71.0601C130.014 74.468 132.464 77.6538 136.66 80.0762C140.856 82.4986 146.373 83.9134 152.268 84.0858L152.451 84.1915C153.069 84.5481 153.503 84.9657 153.753 85.4442C154.225 86.3408 153.955 87.2874 152.991 88.0562L143.258 95.8475L142.062 96.8054C141.301 97.3232 140.239 97.6351 139.052 97.674L139.052 97.6736ZM170.731 108.845C169.815 108.873 168.947 108.683 168.301 108.31L147.715 96.427L156.406 89.4822C156.599 89.3264 156.782 89.1648 156.937 88.9977C156.985 88.9476 157.034 88.8975 157.082 88.8365C157.187 88.7196 157.284 88.5969 157.381 88.4745C157.429 88.4131 157.467 88.3576 157.516 88.2962C157.603 88.1684 157.68 88.0344 157.747 87.9062C157.776 87.8561 157.805 87.806 157.834 87.7559C157.911 87.5775 157.988 87.3996 158.047 87.2213C158.057 87.1712 158.066 87.1211 158.076 87.071C158.115 86.9374 158.143 86.7983 158.153 86.6589C158.162 86.5866 158.173 86.514 158.163 86.4417C158.173 86.3248 158.163 86.2079 158.153 86.0909C158.144 86.0187 158.143 85.9406 158.134 85.8683C158.124 85.8404 158.134 85.8124 158.123 85.7848C159.454 85.5953 160.911 85.8124 161.934 86.4029L162.552 86.7595C162.841 89.6332 164.924 92.3283 168.484 94.3832C172.043 96.4382 176.703 97.6467 181.69 97.8079L181.757 97.8467C183.156 98.6543 183.33 99.9129 182.171 100.837L172.988 108.176C172.439 108.584 171.629 108.817 170.732 108.845L170.731 108.845Z" fill="white"/>
<path d="M116.99 58.6306C122.575 61.8552 131.652 61.8493 137.227 58.6306C142.813 55.406 142.803 50.1662 137.227 46.9475C131.652 43.7288 122.565 43.7288 116.99 46.9475C111.415 50.1658 111.405 55.4064 116.99 58.6306ZM134.248 48.6673C138.184 50.9394 138.184 54.6374 134.248 56.9094C130.312 59.1815 123.907 59.1814 119.971 56.9094C116.036 54.6374 116.036 50.9393 119.971 48.6673C123.907 46.3956 130.313 46.3953 134.248 48.6673Z" fill="white"/>
</g>
<defs>
<filter id="filter0_ddddd_1683_1335" x="-42.0039" y="58.0591" width="391.986" height="418.543" filterUnits="userSpaceOnUse" color-interpolation-filters="sRGB">
<feFlood flood-opacity="0" result="BackgroundImageFix"/>
<feColorMatrix in="SourceAlpha" type="matrix" values="0 0 0 0 0 0 0 0 0 0 0 0 0 0 0 0 0 0 127 0" result="hardAlpha"/>
<feOffset/>
<feColorMatrix type="matrix" values="0 0 0 0 0 0 0 0 0 0 0 0 0 0 0 0 0 0 0.1 0"/>
<feBlend mode="normal" in2="BackgroundImageFix" result="effect1_dropShadow_1683_1335"/>
<feColorMatrix in="SourceAlpha" type="matrix" values="0 0 0 0 0 0 0 0 0 0 0 0 0 0 0 0 0 0 127 0" result="hardAlpha"/>
<feOffset dx="1" dy="12"/>
<feGaussianBlur stdDeviation="13"/>
<feColorMatrix type="matrix" values="0 0 0 0 0 0 0 0 0 0 0 0 0 0 0 0 0 0 0.1 0"/>
<feBlend mode="normal" in2="effect1_dropShadow_1683_1335" result="effect2_dropShadow_1683_1335"/>
<feColorMatrix in="SourceAlpha" type="matrix" values="0 0 0 0 0 0 0 0 0 0 0 0 0 0 0 0 0 0 127 0" result="hardAlpha"/>
<feOffset dx="3" dy="47"/>
<feGaussianBlur stdDeviation="24"/>
<feColorMatrix type="matrix" values="0 0 0 0 0 0 0 0 0 0 0 0 0 0 0 0 0 0 0.09 0"/>
<feBlend mode="normal" in2="effect2_dropShadow_1683_1335" result="effect3_dropShadow_1683_1335"/>
<feColorMatrix in="SourceAlpha" type="matrix" values="0 0 0 0 0 0 0 0 0 0 0 0 0 0 0 0 0 0 127 0" result="hardAlpha"/>
<feOffset dx="6" dy="107"/>
<feGaussianBlur stdDeviation="32"/>
<feColorMatrix type="matrix" values="0 0 0 0 0 0 0 0 0 0 0 0 0 0 0 0 0 0 0.05 0"/>
<feBlend mode="normal" in2="effect3_dropShadow_1683_1335" result="effect4_dropShadow_1683_1335"/>
<feColorMatrix in="SourceAlpha" type="matrix" values="0 0 0 0 0 0 0 0 0 0 0 0 0 0 0 0 0 0 127 0" result="hardAlpha"/>
<feOffset dx="11" dy="190"/>
<feGaussianBlur stdDeviation="38"/>
<feColorMatrix type="matrix" values="0 0 0 0 0 0 0 0 0 0 0 0 0 0 0 0 0 0 0.01 0"/>
<feBlend mode="normal" in2="effect4_dropShadow_1683_1335" result="effect5_dropShadow_1683_1335"/>
<feBlend mode="normal" in="SourceGraphic" in2="effect5_dropShadow_1683_1335" result="shape"/>
</filter>
<clipPath id="clip0_1683_1335">
<rect width="284.342" height="243.983" fill="white" transform="translate(0.509766 0.286133)"/>
</clipPath>
</defs>
</svg>
