<svg width="282" height="265" viewBox="0 0 282 265" fill="none" xmlns="http://www.w3.org/2000/svg">
<g clip-path="url(#clip0_1_304)">
<path d="M120.372 101.837C131.03 95.6842 148.309 95.6842 158.966 101.837L251.669 155.354C262.326 161.507 262.326 171.482 251.669 177.634L158.966 231.152C148.309 237.304 131.03 237.304 120.372 231.152L27.6695 177.634C17.0121 171.482 17.0121 161.507 27.6695 155.354L120.372 101.837Z" fill="#57A6F5" fill-opacity="0.9"/>
<path fill-rule="evenodd" clip-rule="evenodd" d="M250.704 168.11L158.001 114.593C147.877 108.748 131.462 108.748 121.337 114.593L28.6345 168.11C18.5099 173.955 18.5099 183.432 28.6345 189.277L121.337 242.794C131.462 248.639 147.877 248.639 158.001 242.794L250.704 189.277C260.829 183.432 260.829 173.955 250.704 168.11ZM158.966 114.036C148.309 107.883 131.03 107.883 120.372 114.036L27.6696 167.553C17.0122 173.706 17.0122 183.681 27.6696 189.834L120.372 243.351C131.03 249.503 148.309 249.503 158.966 243.351L251.669 189.834C262.326 183.681 262.326 173.706 251.669 167.553L158.966 114.036Z" fill="#57A6F5"/>
<path d="M120.989 74.697C131.647 68.5444 148.926 68.5444 159.583 74.697L252.286 128.214C262.943 134.367 262.943 144.342 252.286 150.495L159.583 204.012C148.926 210.164 131.647 210.164 120.989 204.012L28.2865 150.495C17.629 144.342 17.629 134.367 28.2865 128.214L120.989 74.697Z" fill="#3072C1" fill-opacity="0.9"/>
<g filter="url(#filter0_ddddd_1_304)">
<path fill-rule="evenodd" clip-rule="evenodd" d="M251.321 140.971L158.618 87.4533C148.494 81.6084 132.079 81.6084 121.954 87.4533L29.2513 140.971C19.1267 146.816 19.1267 156.292 29.2513 162.137L121.954 215.654C132.079 221.499 148.494 221.499 158.618 215.654L251.321 162.137C261.446 156.292 261.446 146.816 251.321 140.971ZM159.583 86.8963C148.926 80.7438 131.647 80.7438 120.989 86.8963L28.2865 140.414C17.629 146.566 17.629 156.541 28.2865 162.694L120.989 216.211C131.647 222.364 148.926 222.364 159.583 216.211L252.286 162.694C262.943 156.541 262.943 146.566 252.286 140.414L159.583 86.8963Z" fill="#286AB7"/>
</g>
<path d="M120.989 48.7893C131.647 42.6368 148.926 42.6368 159.583 48.7893L252.286 102.307C262.943 108.459 262.943 118.434 252.286 124.587L159.583 178.104C148.926 184.257 131.647 184.257 120.989 178.104L28.2865 124.587C17.629 118.434 17.629 108.459 28.2865 102.307L120.989 48.7893Z" fill="#214B9D" fill-opacity="0.9"/>
<path fill-rule="evenodd" clip-rule="evenodd" d="M251.321 115.063L158.618 61.5455C148.494 55.7006 132.079 55.7006 121.954 61.5455L29.2513 115.063C19.1267 120.908 19.1267 130.384 29.2513 136.229L121.954 189.746C132.079 195.591 148.494 195.591 158.618 189.746L251.321 136.229C261.446 130.384 261.446 120.908 251.321 115.063ZM159.583 60.9885C148.926 54.8359 131.647 54.8359 120.989 60.9885L28.2865 114.506C17.629 120.658 17.629 130.634 28.2865 136.786L120.989 190.303C131.647 196.456 148.926 196.456 159.583 190.303L252.286 136.786C262.943 130.634 262.943 120.658 252.286 114.506L159.583 60.9885Z" fill="#3B88CF"/>
<path d="M123.034 21.6487C133.692 15.4961 150.971 15.4961 161.628 21.6487L254.331 75.1659C264.988 81.3184 264.988 91.2937 254.331 97.4462L161.628 150.963C150.971 157.116 133.692 157.116 123.034 150.963L30.3316 97.4462C19.6742 91.2937 19.6742 81.3184 30.3316 75.1659L123.034 21.6487Z" fill="#270D8E"/>
<path fill-rule="evenodd" clip-rule="evenodd" d="M253.366 87.9223L160.663 34.405C150.539 28.5601 134.124 28.5601 123.999 34.405L31.2965 87.9223C21.1719 93.7672 21.1719 103.244 31.2965 109.089L123.999 162.606C134.124 168.451 150.539 168.451 160.663 162.606L253.366 109.089C263.491 103.244 263.491 93.7672 253.366 87.9223ZM161.628 33.848C150.971 27.6955 133.692 27.6955 123.034 33.848L30.3316 87.3653C19.6742 93.5178 19.6742 103.493 30.3316 109.646L123.034 163.163C133.692 169.315 150.971 169.315 161.628 163.163L254.331 109.646C264.988 103.493 264.988 93.5178 254.331 87.3653L161.628 33.848Z" fill="#270D8E"/>
<path fill-rule="evenodd" clip-rule="evenodd" d="M148.377 105.384L109.286 82.8171L112.113 81.1853L151.203 103.752L148.377 105.384Z" fill="white"/>
<path fill-rule="evenodd" clip-rule="evenodd" d="M140.301 110.046L101.211 87.4794L104.037 85.8476L143.127 108.414L140.301 110.046Z" fill="white"/>
<path fill-rule="evenodd" clip-rule="evenodd" d="M132.225 114.709L93.1345 92.1418L95.9611 90.51L135.051 113.077L132.225 114.709Z" fill="white"/>
<path fill-rule="evenodd" clip-rule="evenodd" d="M208.341 79.3614L154.363 48.1997C153.693 47.8135 152.609 47.8135 151.94 48.1997L76.3234 91.853C75.6544 92.2392 75.6544 92.8654 76.3234 93.2517L130.302 124.413C130.971 124.8 132.056 124.8 132.725 124.413L208.341 80.7601C209.01 80.3738 209.01 79.7476 208.341 79.3614ZM157.189 46.5679C154.959 45.2804 151.343 45.2804 149.113 46.5679L73.4968 90.2212C71.2667 91.5086 71.2667 93.596 73.4968 94.8835L127.475 126.045C129.705 127.333 133.321 127.333 135.551 126.045L211.167 82.3919C213.398 81.1044 213.398 79.017 211.167 77.7296L157.189 46.5679Z" fill="white"/>
<path fill-rule="evenodd" clip-rule="evenodd" d="M167.532 72.6005C167.481 72.1817 166.841 71.8117 166.092 71.7851C161.168 71.6096 157.399 70.6115 155.027 69.7628C154.091 69.4277 153.039 69.5225 152.554 69.8024L144.363 74.531C140.282 76.8873 139.198 80.4681 141.653 83.4839C142.804 84.8975 144.774 86.0347 147.223 86.6992C152.447 88.1167 158.649 87.491 162.731 85.1347L170.922 80.406C171.407 80.1256 171.575 79.5138 170.996 78.9659C169.556 77.6044 167.878 75.4492 167.532 72.6005ZM166.339 69.4817C169.066 69.5789 171.327 70.8525 171.52 72.4392C171.811 74.8408 173.223 76.6427 174.408 77.7636C175.719 79.0032 175.828 80.8375 173.748 82.0378L165.557 86.7665C160.284 89.8106 152.271 90.619 145.522 88.7877C142.231 87.8945 139.583 86.3658 138.035 84.4656C134.863 80.5695 136.264 75.9434 141.537 72.8992L149.728 68.1706C151.808 66.9697 154.987 67.0333 157.134 67.8014C159.096 68.5037 162.232 69.3354 166.339 69.4817Z" fill="white"/>
<path d="M147.076 80.2203C147.076 80.9641 148.121 81.5672 149.409 81.5672L163.48 81.5672C164.493 81.5672 165.314 81.0934 165.314 80.5089Lnan nanL165.314 80.5089C165.314 79.9244 164.493 79.4506 163.48 79.4506L150.742 79.4506L150.742 76.2758C150.742 75.6913 149.922 75.2175 148.909 75.2175Lnan nanL148.909 75.2175C147.897 75.2175 147.076 75.6913 147.076 76.2758L147.076 80.2203Z" fill="white"/>
</g>
<defs>
<filter id="filter0_ddddd_1_304" x="-44.7067" y="68.2819" width="391.986" height="418.544" filterUnits="userSpaceOnUse" color-interpolation-filters="sRGB">
<feFlood flood-opacity="0" result="BackgroundImageFix"/>
<feColorMatrix in="SourceAlpha" type="matrix" values="0 0 0 0 0 0 0 0 0 0 0 0 0 0 0 0 0 0 127 0" result="hardAlpha"/>
<feOffset/>
<feColorMatrix type="matrix" values="0 0 0 0 0 0 0 0 0 0 0 0 0 0 0 0 0 0 0.1 0"/>
<feBlend mode="normal" in2="BackgroundImageFix" result="effect1_dropShadow_1_304"/>
<feColorMatrix in="SourceAlpha" type="matrix" values="0 0 0 0 0 0 0 0 0 0 0 0 0 0 0 0 0 0 127 0" result="hardAlpha"/>
<feOffset dx="1" dy="12"/>
<feGaussianBlur stdDeviation="13"/>
<feColorMatrix type="matrix" values="0 0 0 0 0 0 0 0 0 0 0 0 0 0 0 0 0 0 0.1 0"/>
<feBlend mode="normal" in2="effect1_dropShadow_1_304" result="effect2_dropShadow_1_304"/>
<feColorMatrix in="SourceAlpha" type="matrix" values="0 0 0 0 0 0 0 0 0 0 0 0 0 0 0 0 0 0 127 0" result="hardAlpha"/>
<feOffset dx="3" dy="47"/>
<feGaussianBlur stdDeviation="24"/>
<feColorMatrix type="matrix" values="0 0 0 0 0 0 0 0 0 0 0 0 0 0 0 0 0 0 0.09 0"/>
<feBlend mode="normal" in2="effect2_dropShadow_1_304" result="effect3_dropShadow_1_304"/>
<feColorMatrix in="SourceAlpha" type="matrix" values="0 0 0 0 0 0 0 0 0 0 0 0 0 0 0 0 0 0 127 0" result="hardAlpha"/>
<feOffset dx="6" dy="107"/>
<feGaussianBlur stdDeviation="32"/>
<feColorMatrix type="matrix" values="0 0 0 0 0 0 0 0 0 0 0 0 0 0 0 0 0 0 0.05 0"/>
<feBlend mode="normal" in2="effect3_dropShadow_1_304" result="effect4_dropShadow_1_304"/>
<feColorMatrix in="SourceAlpha" type="matrix" values="0 0 0 0 0 0 0 0 0 0 0 0 0 0 0 0 0 0 127 0" result="hardAlpha"/>
<feOffset dx="11" dy="190"/>
<feGaussianBlur stdDeviation="38"/>
<feColorMatrix type="matrix" values="0 0 0 0 0 0 0 0 0 0 0 0 0 0 0 0 0 0 0.01 0"/>
<feBlend mode="normal" in2="effect4_dropShadow_1_304" result="effect5_dropShadow_1_304"/>
<feBlend mode="normal" in="SourceGraphic" in2="effect5_dropShadow_1_304" result="shape"/>
</filter>
<clipPath id="clip0_1_304">
<rect width="282" height="265" fill="white"/>
</clipPath>
</defs>
</svg>
