<svg width="282" height="265" viewBox="0 0 282 265" fill="none" xmlns="http://www.w3.org/2000/svg">
<g clip-path="url(#clip0_1451_1333)">
<path d="M120.372 101.837C131.029 95.6844 148.309 95.6844 158.966 101.837L251.669 155.354C262.326 161.507 262.326 171.482 251.669 177.635L158.966 231.152C148.309 237.304 131.029 237.304 120.372 231.152L27.6693 177.635C17.0118 171.482 17.0118 161.507 27.6693 155.354L120.372 101.837Z" fill="#57A6F5" fill-opacity="0.9"/>
<path fill-rule="evenodd" clip-rule="evenodd" d="M250.704 168.11L158.001 114.593C147.877 108.748 131.461 108.748 121.337 114.593L28.6341 168.11C18.5096 173.955 18.5096 183.432 28.6341 189.277L121.337 242.794C131.461 248.639 147.877 248.639 158.001 242.794L250.704 189.277C260.828 183.432 260.828 173.955 250.704 168.11ZM158.966 114.036C148.309 107.884 131.029 107.884 120.372 114.036L27.6693 167.553C17.0118 173.706 17.0118 183.681 27.6693 189.834L120.372 243.351C131.029 249.504 148.309 249.504 158.966 243.351L251.669 189.834C262.326 183.681 262.326 173.706 251.669 167.553L158.966 114.036Z" fill="#57A6F5"/>
<path d="M120.989 74.6968C131.647 68.5443 148.926 68.5443 159.583 74.6968L252.286 128.214C262.943 134.367 262.943 144.342 252.286 150.494L159.583 204.012C148.926 210.164 131.647 210.164 120.989 204.012L28.2865 150.494C17.629 144.342 17.629 134.367 28.2865 128.214L120.989 74.6968Z" fill="#3072C1" fill-opacity="0.9"/>
<g filter="url(#filter0_ddddd_1451_1333)">
<path fill-rule="evenodd" clip-rule="evenodd" d="M251.321 140.97L158.618 87.453C148.494 81.6081 132.079 81.6081 121.954 87.453L29.2513 140.97C19.1267 146.815 19.1267 156.292 29.2513 162.137L121.954 215.654C132.079 221.499 148.494 221.499 158.618 215.654L251.321 162.137C261.446 156.292 261.446 146.815 251.321 140.97ZM159.583 86.896C148.926 80.7435 131.647 80.7435 120.989 86.896L28.2865 140.413C17.629 146.566 17.629 156.541 28.2865 162.694L120.989 216.211C131.647 222.363 148.926 222.363 159.583 216.211L252.286 162.694C262.943 156.541 262.943 146.566 252.286 140.413L159.583 86.896Z" fill="#286AB7"/>
</g>
<path d="M120.989 48.7896C131.647 42.637 148.926 42.637 159.583 48.7896L252.286 102.307C262.943 108.459 262.943 118.435 252.286 124.587L159.583 178.104C148.926 184.257 131.647 184.257 120.989 178.104L28.2865 124.587C17.629 118.435 17.629 108.459 28.2865 102.307L120.989 48.7896Z" fill="#214B9D" fill-opacity="0.9"/>
<path fill-rule="evenodd" clip-rule="evenodd" d="M251.321 115.063L158.618 61.5458C148.494 55.7009 132.079 55.7009 121.954 61.5458L29.2513 115.063C19.1267 120.908 19.1267 130.384 29.2513 136.229L121.954 189.747C132.079 195.592 148.494 195.592 158.618 189.747L251.321 136.229C261.446 130.384 261.446 120.908 251.321 115.063ZM159.583 60.9888C148.926 54.8363 131.647 54.8363 120.989 60.9888L28.2865 114.506C17.629 120.659 17.629 130.634 28.2865 136.786L120.989 190.304C131.647 196.456 148.926 196.456 159.583 190.304L252.286 136.786C262.943 130.634 262.943 120.659 252.286 114.506L159.583 60.9888Z" fill="#3B88CF"/>
<path d="M123.034 21.649C133.691 15.4964 150.971 15.4964 161.628 21.649L254.331 75.1662C264.988 81.3187 264.988 91.294 254.331 97.4465L161.628 150.964C150.971 157.116 133.691 157.116 123.034 150.964L30.3314 97.4465C19.6739 91.294 19.6739 81.3188 30.3314 75.1662L123.034 21.649Z" fill="#270D8E"/>
<path fill-rule="evenodd" clip-rule="evenodd" d="M253.366 87.9224L160.663 34.4052C150.539 28.5603 134.123 28.5603 123.999 34.4052L31.2962 87.9224C21.1717 93.7673 21.1717 103.244 31.2962 109.089L123.999 162.606C134.123 168.451 150.539 168.451 160.663 162.606L253.366 109.089C263.49 103.244 263.49 93.7673 253.366 87.9224ZM161.628 33.8482C150.971 27.6956 133.691 27.6956 123.034 33.8482L30.3314 87.3654C19.6739 93.518 19.6739 103.493 30.3314 109.646L123.034 163.163C133.691 169.316 150.971 169.316 161.628 163.163L254.331 109.646C264.988 103.493 264.988 93.518 254.331 87.3654L161.628 33.8482Z" fill="#270D8E"/>
<path fill-rule="evenodd" clip-rule="evenodd" d="M148.377 105.384L109.287 82.8173L112.113 81.1855L151.204 103.752L148.377 105.384Z" fill="white"/>
<path fill-rule="evenodd" clip-rule="evenodd" d="M140.301 110.046L101.211 87.4795L104.037 85.8477L143.127 108.414L140.301 110.046Z" fill="white"/>
<path fill-rule="evenodd" clip-rule="evenodd" d="M132.225 114.709L93.1343 92.1421L95.9609 90.5103L135.051 113.077L132.225 114.709Z" fill="white"/>
<path fill-rule="evenodd" clip-rule="evenodd" d="M208.341 79.3614L154.363 48.1997C153.694 47.8135 152.609 47.8135 151.94 48.1997L76.3237 91.853C75.6546 92.2393 75.6546 92.8655 76.3237 93.2517L130.302 124.413C130.971 124.8 132.056 124.8 132.725 124.413L208.341 80.7601C209.01 80.3739 209.01 79.7477 208.341 79.3614ZM157.189 46.568C154.959 45.2805 151.343 45.2805 149.113 46.568L73.4971 90.2212C71.2669 91.5087 71.2669 93.5961 73.4971 94.8835L127.475 126.045C129.706 127.333 133.321 127.333 135.551 126.045L211.168 82.3919C213.398 81.1045 213.398 79.0171 211.168 77.7296L157.189 46.568Z" fill="white"/>
<path fill-rule="evenodd" clip-rule="evenodd" d="M167.532 72.601C167.481 72.1822 166.841 71.8122 166.092 71.7856C161.168 71.6101 157.399 70.612 155.027 69.7633C154.091 69.4282 153.039 69.523 152.554 69.8029L144.363 74.5315C140.282 76.8878 139.198 80.4687 141.653 83.4844C142.804 84.898 144.774 86.0353 147.223 86.6997C152.447 88.1172 158.649 87.4915 162.731 85.1352L170.922 80.4065C171.408 80.1261 171.575 79.5143 170.996 78.9664C169.556 77.6049 167.878 75.4497 167.532 72.601ZM166.339 69.4822C169.066 69.5794 171.327 70.853 171.52 72.4397C171.811 74.8414 173.223 76.6433 174.408 77.7641C175.719 79.0037 175.828 80.838 173.748 82.0383L165.558 86.767C160.284 89.8111 152.271 90.6195 145.522 88.7882C142.231 87.895 139.583 86.3663 138.035 84.4661C134.863 80.57 136.264 75.9439 141.537 72.8997L149.728 68.1711C151.808 66.9702 154.987 67.0338 157.134 67.8019C159.096 68.5042 162.232 69.3359 166.339 69.4822Z" fill="white"/>
<path d="M147.076 80.2208C147.076 80.9647 148.121 81.5677 149.409 81.5677L163.481 81.5677C164.493 81.5677 165.314 81.0939 165.314 80.5094C165.314 79.9249 164.493 79.4511 163.481 79.4511L150.742 79.4511V76.2763C150.742 75.6919 149.922 75.218 148.909 75.218C147.897 75.218 147.076 75.6919 147.076 76.2763L147.076 80.2208Z" fill="white"/>
</g>
<defs>
<filter id="filter0_ddddd_1451_1333" x="-44.707" y="68.2817" width="391.986" height="418.543" filterUnits="userSpaceOnUse" color-interpolation-filters="sRGB">
<feFlood flood-opacity="0" result="BackgroundImageFix"/>
<feColorMatrix in="SourceAlpha" type="matrix" values="0 0 0 0 0 0 0 0 0 0 0 0 0 0 0 0 0 0 127 0" result="hardAlpha"/>
<feOffset/>
<feColorMatrix type="matrix" values="0 0 0 0 0 0 0 0 0 0 0 0 0 0 0 0 0 0 0.1 0"/>
<feBlend mode="normal" in2="BackgroundImageFix" result="effect1_dropShadow_1451_1333"/>
<feColorMatrix in="SourceAlpha" type="matrix" values="0 0 0 0 0 0 0 0 0 0 0 0 0 0 0 0 0 0 127 0" result="hardAlpha"/>
<feOffset dx="1" dy="12"/>
<feGaussianBlur stdDeviation="13"/>
<feColorMatrix type="matrix" values="0 0 0 0 0 0 0 0 0 0 0 0 0 0 0 0 0 0 0.1 0"/>
<feBlend mode="normal" in2="effect1_dropShadow_1451_1333" result="effect2_dropShadow_1451_1333"/>
<feColorMatrix in="SourceAlpha" type="matrix" values="0 0 0 0 0 0 0 0 0 0 0 0 0 0 0 0 0 0 127 0" result="hardAlpha"/>
<feOffset dx="3" dy="47"/>
<feGaussianBlur stdDeviation="24"/>
<feColorMatrix type="matrix" values="0 0 0 0 0 0 0 0 0 0 0 0 0 0 0 0 0 0 0.09 0"/>
<feBlend mode="normal" in2="effect2_dropShadow_1451_1333" result="effect3_dropShadow_1451_1333"/>
<feColorMatrix in="SourceAlpha" type="matrix" values="0 0 0 0 0 0 0 0 0 0 0 0 0 0 0 0 0 0 127 0" result="hardAlpha"/>
<feOffset dx="6" dy="107"/>
<feGaussianBlur stdDeviation="32"/>
<feColorMatrix type="matrix" values="0 0 0 0 0 0 0 0 0 0 0 0 0 0 0 0 0 0 0.05 0"/>
<feBlend mode="normal" in2="effect3_dropShadow_1451_1333" result="effect4_dropShadow_1451_1333"/>
<feColorMatrix in="SourceAlpha" type="matrix" values="0 0 0 0 0 0 0 0 0 0 0 0 0 0 0 0 0 0 127 0" result="hardAlpha"/>
<feOffset dx="11" dy="190"/>
<feGaussianBlur stdDeviation="38"/>
<feColorMatrix type="matrix" values="0 0 0 0 0 0 0 0 0 0 0 0 0 0 0 0 0 0 0.01 0"/>
<feBlend mode="normal" in2="effect4_dropShadow_1451_1333" result="effect5_dropShadow_1451_1333"/>
<feBlend mode="normal" in="SourceGraphic" in2="effect5_dropShadow_1451_1333" result="shape"/>
</filter>
<clipPath id="clip0_1451_1333">
<rect width="282" height="265" fill="white"/>
</clipPath>
</defs>
</svg>
