<svg width="285" height="244" viewBox="0 0 285 244" fill="none" xmlns="http://www.w3.org/2000/svg">
<g clip-path="url(#clip0_1_775)">
<path d="M122.566 91.328C133.223 85.1755 150.502 85.1755 161.16 91.328L253.862 144.845C264.52 150.998 264.52 160.973 253.862 167.126L161.16 220.643C150.502 226.795 133.223 226.795 122.566 220.643L29.863 167.126C19.2056 160.973 19.2055 150.998 29.863 144.845L122.566 91.328Z" fill="#8EDDA2" fill-opacity="0.9"/>
<path fill-rule="evenodd" clip-rule="evenodd" d="M252.898 157.602L160.195 104.084C150.07 98.2393 133.655 98.2393 123.531 104.084L30.8279 157.602C20.7033 163.446 20.7033 172.923 30.8279 178.768L123.531 232.285C133.655 238.13 150.07 238.13 160.195 232.285L252.898 178.768C263.022 172.923 263.022 163.446 252.898 157.602ZM161.16 103.527C150.502 97.3747 133.223 97.3747 122.566 103.527L29.8631 157.045C19.2056 163.197 19.2056 173.172 29.8631 179.325L122.566 232.842C133.223 238.995 150.502 238.995 161.16 232.842L253.862 179.325C264.52 173.172 264.52 163.197 253.862 157.044L161.16 103.527Z" fill="#8EDDA2"/>
<path d="M123.182 64.1883C133.84 58.0357 151.119 58.0357 161.776 64.1883L254.479 117.706C265.136 123.858 265.136 133.833 254.479 139.986L161.776 193.503C151.119 199.656 133.84 199.656 123.182 193.503L30.4795 139.986C19.8221 133.833 19.8221 123.858 30.4795 117.706L123.182 64.1883Z" fill="#66C791" fill-opacity="0.9"/>
<g filter="url(#filter0_ddddd_1_775)">
<path fill-rule="evenodd" clip-rule="evenodd" d="M253.514 130.462L160.811 76.9446C150.687 71.0997 134.272 71.0997 124.147 76.9446L31.4444 130.462C21.3198 136.307 21.3198 145.783 31.4444 151.628L124.147 205.145C134.272 210.99 150.687 210.99 160.811 205.145L253.514 151.628C263.639 145.783 263.639 136.307 253.514 130.462ZM161.776 76.3876C151.119 70.2351 133.84 70.2351 123.182 76.3876L30.4795 129.905C19.8221 136.057 19.8221 146.033 30.4795 152.185L123.182 205.702C133.84 211.855 151.119 211.855 161.776 205.702L254.479 152.185C265.136 146.033 265.136 136.057 254.479 129.905L161.776 76.3876Z" fill="#66C791"/>
</g>
<path d="M123.182 38.2806C133.84 32.128 151.119 32.128 161.776 38.2805L254.479 91.7978C265.136 97.9503 265.136 107.926 254.479 114.078L161.776 167.595C151.119 173.748 133.84 173.748 123.182 167.595L30.4795 114.078C19.8221 107.926 19.8221 97.9503 30.4795 91.7978L123.182 38.2806Z" fill="#38AE7F" fill-opacity="0.9"/>
<path fill-rule="evenodd" clip-rule="evenodd" d="M253.514 104.554L160.811 51.0367C150.687 45.1917 134.272 45.1917 124.147 51.0367L31.4444 104.554C21.3199 110.399 21.3199 119.875 31.4444 125.72L124.147 179.237C134.272 185.082 150.687 185.082 160.811 179.237L253.514 125.72C263.639 119.875 263.639 110.399 253.514 104.554ZM161.776 50.4796C151.119 44.3271 133.84 44.3271 123.182 50.4796L30.4796 103.997C19.8221 110.149 19.8221 120.125 30.4796 126.277L123.182 179.794C133.84 185.947 151.119 185.947 161.776 179.794L254.479 126.277C265.136 120.125 265.136 110.149 254.479 103.997L161.776 50.4796Z" fill="#38AE7F"/>
<path d="M123.182 11.1399C133.84 4.98738 151.119 4.98738 161.776 11.1399L254.479 64.6572C265.136 70.8097 265.136 80.785 254.479 86.9375L161.776 140.455C151.119 146.607 133.84 146.607 123.182 140.455L30.4797 86.9375C19.8223 80.785 19.8222 70.8097 30.4797 64.6572L123.182 11.1399Z" fill="#2B9943"/>
<path fill-rule="evenodd" clip-rule="evenodd" d="M253.514 77.4135L160.812 23.8963C150.687 18.0514 134.272 18.0514 124.147 23.8963L31.4445 77.4135C21.32 83.2584 21.32 92.7349 31.4446 98.5798L124.147 152.097C134.272 157.942 150.687 157.942 160.812 152.097L253.514 98.5798C263.639 92.7349 263.639 83.2584 253.514 77.4135ZM161.776 23.3393C151.119 17.1867 133.84 17.1867 123.182 23.3393L30.4797 76.8565C19.8222 83.0091 19.8223 92.9843 30.4797 99.1369L123.182 152.654C133.84 158.807 151.119 158.807 161.776 152.654L254.479 99.1368C265.136 92.9843 265.136 83.0091 254.479 76.8565L161.776 23.3393Z" fill="#2B9943"/>
<path fill-rule="evenodd" clip-rule="evenodd" d="M116.256 95.3754C134.339 105.815 163.658 105.815 181.742 95.3754L183.169 95.8793L184.474 96.9527C164.882 108.263 133.116 108.263 113.523 96.9527L116.256 95.3754Z" fill="white"/>
<path fill-rule="evenodd" clip-rule="evenodd" d="M109.555 62.4577C103.721 67.9186 101.606 74.3318 103.215 80.4855L99.3945 80.8184C97.6523 74.1564 99.9405 67.2084 106.266 61.2869L109.555 62.4577Z" fill="white"/>
<path fill-rule="evenodd" clip-rule="evenodd" d="M172.848 53.5511C155.05 47.3687 131.604 48.71 116.256 57.5704L113.524 55.9931C130.156 46.3911 155.558 44.9416 174.84 51.6398L172.848 53.5511Z" fill="white"/>
<path fill-rule="evenodd" clip-rule="evenodd" d="M188.312 90.6106C199.468 80.2931 197.275 66.5375 181.742 57.5702L184.474 55.9929C201.307 65.7106 203.677 80.6132 191.589 91.7918L188.312 90.6106Z" fill="white"/>
<path fill-rule="evenodd" clip-rule="evenodd" d="M62.1104 63.6218L110.581 91.6041L107.849 93.1814L59.3782 65.1991L62.1104 63.6218Z" fill="white"/>
<path fill-rule="evenodd" clip-rule="evenodd" d="M112.937 92.7573C113.141 93.7172 111.729 94.5325 110.066 94.4146L100.652 93.7471C99.5928 93.6721 98.8397 93.1156 98.9698 92.5042C99.0998 91.8928 100.064 91.458 101.123 91.5331L108.901 92.0846L107.946 87.5942C107.816 86.9828 108.569 86.4263 109.628 86.3512C110.687 86.2761 111.651 86.7109 111.781 87.3223L112.937 92.7573L111.02 92.8933L110.989 92.8954M112.937 92.7573L111.02 92.8933L112.937 92.7573Z" fill="white"/>
<path fill-rule="evenodd" clip-rule="evenodd" d="M184.087 93.5655C185.749 93.4476 187.162 94.2629 186.957 95.2228L185.801 100.658C185.671 101.269 184.707 101.704 183.648 101.629C182.589 101.554 181.836 100.997 181.966 100.386L182.921 95.8956L175.143 96.447C174.084 96.5221 173.12 96.0873 172.99 95.4759C172.86 94.8646 173.613 94.3081 174.672 94.233L184.087 93.5655L184.322 94.6725L184.326 94.6904M184.322 94.6725L184.087 93.5655L184.322 94.6725Z" fill="white"/>
<path fill-rule="evenodd" clip-rule="evenodd" d="M178.75 56.2897C178.545 55.3298 179.958 54.5145 181.62 54.6324L191.035 55.2999C192.094 55.3749 192.847 55.9314 192.717 56.5428C192.587 57.1542 191.623 57.589 190.564 57.5139L182.786 56.9624L183.741 61.4528C183.871 62.0642 183.118 62.6207 182.059 62.6958C181 62.7709 180.036 62.3361 179.906 61.7247L178.75 56.2897L180.667 56.1537L180.698 56.1515M178.75 56.2897L180.667 56.1537L178.75 56.2897Z" fill="white"/>
<path fill-rule="evenodd" clip-rule="evenodd" d="M113.874 59.1958C112.211 59.3137 110.799 58.4984 111.003 57.5385L112.159 52.1035C112.29 51.4921 113.253 51.0574 114.313 51.1324C115.372 51.2075 116.125 51.764 115.995 52.3754L115.039 56.8658L122.818 56.3143C123.877 56.2393 124.841 56.674 124.971 57.2854C125.101 57.8968 124.348 58.4533 123.289 58.5284L113.874 59.1958L113.639 58.0888L113.635 58.071M113.874 59.1958L113.639 58.0888L113.874 59.1958Z" fill="white"/>
</g>
<defs>
<filter id="filter0_ddddd_1_775" x="-42.5135" y="57.7732" width="391.985" height="418.544" filterUnits="userSpaceOnUse" color-interpolation-filters="sRGB">
<feFlood flood-opacity="0" result="BackgroundImageFix"/>
<feColorMatrix in="SourceAlpha" type="matrix" values="0 0 0 0 0 0 0 0 0 0 0 0 0 0 0 0 0 0 127 0" result="hardAlpha"/>
<feOffset/>
<feColorMatrix type="matrix" values="0 0 0 0 0 0 0 0 0 0 0 0 0 0 0 0 0 0 0.1 0"/>
<feBlend mode="normal" in2="BackgroundImageFix" result="effect1_dropShadow_1_775"/>
<feColorMatrix in="SourceAlpha" type="matrix" values="0 0 0 0 0 0 0 0 0 0 0 0 0 0 0 0 0 0 127 0" result="hardAlpha"/>
<feOffset dx="1" dy="12"/>
<feGaussianBlur stdDeviation="13"/>
<feColorMatrix type="matrix" values="0 0 0 0 0 0 0 0 0 0 0 0 0 0 0 0 0 0 0.1 0"/>
<feBlend mode="normal" in2="effect1_dropShadow_1_775" result="effect2_dropShadow_1_775"/>
<feColorMatrix in="SourceAlpha" type="matrix" values="0 0 0 0 0 0 0 0 0 0 0 0 0 0 0 0 0 0 127 0" result="hardAlpha"/>
<feOffset dx="3" dy="47"/>
<feGaussianBlur stdDeviation="24"/>
<feColorMatrix type="matrix" values="0 0 0 0 0 0 0 0 0 0 0 0 0 0 0 0 0 0 0.09 0"/>
<feBlend mode="normal" in2="effect2_dropShadow_1_775" result="effect3_dropShadow_1_775"/>
<feColorMatrix in="SourceAlpha" type="matrix" values="0 0 0 0 0 0 0 0 0 0 0 0 0 0 0 0 0 0 127 0" result="hardAlpha"/>
<feOffset dx="6" dy="107"/>
<feGaussianBlur stdDeviation="32"/>
<feColorMatrix type="matrix" values="0 0 0 0 0 0 0 0 0 0 0 0 0 0 0 0 0 0 0.05 0"/>
<feBlend mode="normal" in2="effect3_dropShadow_1_775" result="effect4_dropShadow_1_775"/>
<feColorMatrix in="SourceAlpha" type="matrix" values="0 0 0 0 0 0 0 0 0 0 0 0 0 0 0 0 0 0 127 0" result="hardAlpha"/>
<feOffset dx="11" dy="190"/>
<feGaussianBlur stdDeviation="38"/>
<feColorMatrix type="matrix" values="0 0 0 0 0 0 0 0 0 0 0 0 0 0 0 0 0 0 0.01 0"/>
<feBlend mode="normal" in2="effect4_dropShadow_1_775" result="effect5_dropShadow_1_775"/>
<feBlend mode="normal" in="SourceGraphic" in2="effect5_dropShadow_1_775" result="shape"/>
</filter>
<clipPath id="clip0_1_775">
<rect width="284.342" height="243.983" fill="white"/>
</clipPath>
</defs>
</svg>
