<svg width="285" height="245" viewBox="0 0 285 245" fill="none" xmlns="http://www.w3.org/2000/svg">
<g clip-path="url(#clip0_1_197)">
<path d="M122.759 91.6141C133.417 85.4616 150.696 85.4616 161.353 91.6141L254.056 145.131C264.713 151.284 264.713 161.259 254.056 167.412L161.353 220.929C150.696 227.082 133.417 227.082 122.759 220.929L30.0565 167.412C19.399 161.259 19.399 151.284 30.0564 145.131L122.759 91.6141Z" fill="#76D8F8" fill-opacity="0.9"/>
<path fill-rule="evenodd" clip-rule="evenodd" d="M253.091 157.888L160.388 104.37C150.264 98.5254 133.849 98.5254 123.724 104.37L31.0214 157.888C20.8968 163.732 20.8968 173.209 31.0214 179.054L123.724 232.571C133.849 238.416 150.264 238.416 160.388 232.571L253.091 179.054C263.216 173.209 263.216 163.732 253.091 157.888ZM161.353 103.813C150.696 97.6608 133.417 97.6608 122.759 103.813L30.0565 157.331C19.3991 163.483 19.3991 173.458 30.0565 179.611L122.759 233.128C133.417 239.281 150.696 239.281 161.353 233.128L254.056 179.611C264.713 173.458 264.713 163.483 254.056 157.331L161.353 103.813Z" fill="#76D8F8"/>
<path d="M123.376 64.4744C134.033 58.3218 151.312 58.3218 161.97 64.4744L254.672 117.992C265.33 124.144 265.33 134.119 254.672 140.272L161.97 193.789C151.312 199.942 134.033 199.942 123.376 193.789L30.673 140.272C20.0156 134.119 20.0155 124.144 30.673 117.992L123.376 64.4744Z" fill="#57C6F5" fill-opacity="0.9"/>
<g filter="url(#filter0_ddddd_1_197)">
<path fill-rule="evenodd" clip-rule="evenodd" d="M253.707 130.748L161.005 77.2307C150.88 71.3858 134.465 71.3858 124.34 77.2307L31.6378 130.748C21.5133 136.593 21.5133 146.069 31.6379 151.914L124.341 205.432C134.465 211.276 150.88 211.276 161.005 205.432L253.707 151.914C263.832 146.069 263.832 136.593 253.707 130.748ZM161.97 76.6737C151.312 70.5212 134.033 70.5212 123.376 76.6737L30.673 130.191C20.0155 136.344 20.0156 146.319 30.673 152.471L123.376 205.989C134.033 212.141 151.312 212.141 161.97 205.989L254.672 152.471C265.33 146.319 265.33 136.344 254.672 130.191L161.97 76.6737Z" fill="#57C6F5"/>
</g>
<path d="M123.376 38.5667C134.033 32.4142 151.312 32.4142 161.97 38.5667L254.672 92.084C265.33 98.2365 265.33 108.212 254.672 114.364L161.97 167.882C151.312 174.034 134.033 174.034 123.376 167.882L30.673 114.364C20.0156 108.212 20.0155 98.2365 30.673 92.084L123.376 38.5667Z" fill="#57B3F5" fill-opacity="0.9"/>
<path fill-rule="evenodd" clip-rule="evenodd" d="M253.708 104.84L161.005 51.3229C150.88 45.478 134.465 45.478 124.341 51.3229L31.6379 104.84C21.5133 110.685 21.5133 120.162 31.6379 126.006L124.341 179.524C134.465 185.369 150.88 185.369 161.005 179.524L253.708 126.006C263.832 120.162 263.832 110.685 253.708 104.84ZM161.97 50.7659C151.312 44.6133 134.033 44.6133 123.376 50.7659L30.673 104.283C20.0156 110.436 20.0156 120.411 30.673 126.563L123.376 180.081C134.033 186.233 151.312 186.233 161.97 180.081L254.672 126.563C265.33 120.411 265.33 110.436 254.672 104.283L161.97 50.7659Z" fill="#57B3F5"/>
<path d="M123.376 11.4261C134.033 5.27352 151.312 5.27351 161.97 11.4261L254.673 64.9433C265.33 71.0958 265.33 81.0711 254.673 87.2236L161.97 140.741C151.312 146.893 134.033 146.893 123.376 140.741L30.6732 87.2236C20.0158 81.0711 20.0158 71.0959 30.6732 64.9433L123.376 11.4261Z" fill="#57A6F5"/>
<path fill-rule="evenodd" clip-rule="evenodd" d="M253.708 77.6997L161.005 24.1824C150.88 18.3375 134.465 18.3375 124.341 24.1824L31.6381 77.6997C21.5135 83.5446 21.5135 93.0211 31.6381 98.866L124.341 152.383C134.465 158.228 150.88 158.228 161.005 152.383L253.708 98.866C263.832 93.0211 263.832 83.5446 253.708 77.6997ZM161.97 23.6254C151.312 17.4729 134.033 17.4729 123.376 23.6254L30.6732 77.1427C20.0158 83.2952 20.0158 93.2705 30.6732 99.423L123.376 152.94C134.033 159.093 151.312 159.093 161.97 152.94L254.673 99.423C265.33 93.2705 265.33 83.2952 254.673 77.1427L161.97 23.6254Z" fill="#57A6F5"/>
<path d="M99.0475 78.6605L84.2174 70.0991C82.1726 68.9186 82.1726 66.9987 84.2174 65.8183L99.0476 57.2569C101.092 56.0764 104.418 56.0764 106.463 57.2569L121.293 65.8183C123.338 66.9987 123.338 68.9186 121.293 70.0991L106.463 78.6605C104.418 79.8409 101.092 79.8409 99.0475 78.6605ZM103.991 58.6838C103.31 58.2904 102.201 58.2904 101.519 58.6838L86.6891 67.2452C86.0077 67.6386 86.0077 68.2788 86.6891 68.6721L101.519 77.2336C102.201 77.627 103.31 77.627 103.991 77.2336L118.821 68.6721C119.503 68.2788 119.502 67.6386 118.821 67.2452L103.991 58.6838Z" fill="white"/>
<path d="M178.143 78.6614L163.312 70.0999C161.268 68.9195 161.268 66.9996 163.312 65.8192L178.143 57.2577C180.187 56.0773 183.513 56.0773 185.558 57.2577L200.388 65.8192C202.433 66.9996 202.433 68.9195 200.388 70.0999L185.558 78.6614C183.513 79.8418 180.187 79.8418 178.143 78.6614ZM183.086 58.6846C182.405 58.2913 181.296 58.2913 180.614 58.6846L165.784 67.2461C165.103 67.6395 165.103 68.2797 165.784 68.673L180.614 77.2345C181.296 77.6278 182.405 77.6278 183.086 77.2345L197.916 68.673C198.598 68.2797 198.598 67.6395 197.916 67.2461L183.086 58.6846Z" fill="white"/>
<path d="M116.351 77.2342L118.822 75.8073C118.826 75.8092 119.861 76.3869 121.324 76.6513C123.092 76.9714 124.699 76.6952 126.237 75.8073L155.898 58.6844C158.383 57.2498 161.432 56.7832 164.483 57.3705C166.666 57.7903 168.1 58.5943 168.256 58.6844L165.791 60.1151C165.781 60.1094 164.746 59.5316 163.283 59.2672C161.515 58.9471 159.908 59.2233 158.369 60.1112L128.709 77.2342C126.224 78.6688 123.175 79.1353 120.124 78.548C117.941 78.1282 116.507 77.3243 116.351 77.2342Z" fill="white"/>
</g>
<defs>
<filter id="filter0_ddddd_1_197" x="-42.3201" y="58.0593" width="391.986" height="418.544" filterUnits="userSpaceOnUse" color-interpolation-filters="sRGB">
<feFlood flood-opacity="0" result="BackgroundImageFix"/>
<feColorMatrix in="SourceAlpha" type="matrix" values="0 0 0 0 0 0 0 0 0 0 0 0 0 0 0 0 0 0 127 0" result="hardAlpha"/>
<feOffset/>
<feColorMatrix type="matrix" values="0 0 0 0 0 0 0 0 0 0 0 0 0 0 0 0 0 0 0.1 0"/>
<feBlend mode="normal" in2="BackgroundImageFix" result="effect1_dropShadow_1_197"/>
<feColorMatrix in="SourceAlpha" type="matrix" values="0 0 0 0 0 0 0 0 0 0 0 0 0 0 0 0 0 0 127 0" result="hardAlpha"/>
<feOffset dx="1" dy="12"/>
<feGaussianBlur stdDeviation="13"/>
<feColorMatrix type="matrix" values="0 0 0 0 0 0 0 0 0 0 0 0 0 0 0 0 0 0 0.1 0"/>
<feBlend mode="normal" in2="effect1_dropShadow_1_197" result="effect2_dropShadow_1_197"/>
<feColorMatrix in="SourceAlpha" type="matrix" values="0 0 0 0 0 0 0 0 0 0 0 0 0 0 0 0 0 0 127 0" result="hardAlpha"/>
<feOffset dx="3" dy="47"/>
<feGaussianBlur stdDeviation="24"/>
<feColorMatrix type="matrix" values="0 0 0 0 0 0 0 0 0 0 0 0 0 0 0 0 0 0 0.09 0"/>
<feBlend mode="normal" in2="effect2_dropShadow_1_197" result="effect3_dropShadow_1_197"/>
<feColorMatrix in="SourceAlpha" type="matrix" values="0 0 0 0 0 0 0 0 0 0 0 0 0 0 0 0 0 0 127 0" result="hardAlpha"/>
<feOffset dx="6" dy="107"/>
<feGaussianBlur stdDeviation="32"/>
<feColorMatrix type="matrix" values="0 0 0 0 0 0 0 0 0 0 0 0 0 0 0 0 0 0 0.05 0"/>
<feBlend mode="normal" in2="effect3_dropShadow_1_197" result="effect4_dropShadow_1_197"/>
<feColorMatrix in="SourceAlpha" type="matrix" values="0 0 0 0 0 0 0 0 0 0 0 0 0 0 0 0 0 0 127 0" result="hardAlpha"/>
<feOffset dx="11" dy="190"/>
<feGaussianBlur stdDeviation="38"/>
<feColorMatrix type="matrix" values="0 0 0 0 0 0 0 0 0 0 0 0 0 0 0 0 0 0 0.01 0"/>
<feBlend mode="normal" in2="effect4_dropShadow_1_197" result="effect5_dropShadow_1_197"/>
<feBlend mode="normal" in="SourceGraphic" in2="effect5_dropShadow_1_197" result="shape"/>
</filter>
<clipPath id="clip0_1_197">
<rect width="284.342" height="243.983" fill="white" transform="translate(0.193481 0.286133)"/>
</clipPath>
</defs>
</svg>
