<svg width="286" height="245" viewBox="0 0 286 245" fill="none" xmlns="http://www.w3.org/2000/svg">
<g clip-path="url(#clip0_1_33)">
<path d="M123.417 91.6141C134.075 85.4616 151.354 85.4616 162.011 91.6141L254.714 145.131C265.371 151.284 265.371 161.259 254.714 167.412L162.011 220.929C151.354 227.082 134.075 227.082 123.417 220.929L30.7147 167.412C20.0572 161.259 20.0572 151.284 30.7146 145.131L123.417 91.6141Z" fill="#2AC5F5" fill-opacity="0.9"/>
<path fill-rule="evenodd" clip-rule="evenodd" d="M253.749 157.888L161.047 104.37C150.922 98.5254 134.507 98.5254 124.382 104.37L31.6796 157.888C21.555 163.732 21.555 173.209 31.6796 179.054L124.382 232.571C134.507 238.416 150.922 238.416 161.047 232.571L253.749 179.054C263.874 173.209 263.874 163.732 253.749 157.888ZM162.011 103.813C151.354 97.6608 134.075 97.6608 123.417 103.813L30.7147 157.331C20.0573 163.483 20.0573 173.458 30.7147 179.611L123.417 233.128C134.075 239.281 151.354 239.281 162.011 233.128L254.714 179.611C265.372 173.458 265.372 163.483 254.714 157.331L162.011 103.813Z" fill="#2AC5F5"/>
<path d="M124.034 64.4744C134.691 58.3218 151.97 58.3218 162.628 64.4744L255.331 117.992C265.988 124.144 265.988 134.119 255.331 140.272L162.628 193.789C151.97 199.942 134.691 199.942 124.034 193.789L31.3312 140.272C20.6738 134.119 20.6737 124.144 31.3312 117.992L124.034 64.4744Z" fill="#1FA7E1" fill-opacity="0.9"/>
<g filter="url(#filter0_ddddd_1_33)">
<path fill-rule="evenodd" clip-rule="evenodd" d="M254.366 130.748L161.663 77.2307C151.538 71.3858 135.123 71.3858 124.999 77.2307L32.296 130.748C22.1715 136.593 22.1715 146.069 32.2961 151.914L124.999 205.432C135.123 211.276 151.538 211.276 161.663 205.432L254.366 151.914C264.49 146.069 264.49 136.593 254.366 130.748ZM162.628 76.6737C151.97 70.5212 134.691 70.5212 124.034 76.6737L31.3312 130.191C20.6737 136.344 20.6738 146.319 31.3312 152.471L124.034 205.989C134.691 212.141 151.97 212.141 162.628 205.989L255.331 152.471C265.988 146.319 265.988 136.344 255.331 130.191L162.628 76.6737Z" fill="#1FA7E1"/>
</g>
<path d="M124.034 38.5667C134.691 32.4142 151.97 32.4142 162.628 38.5667L255.331 92.084C265.988 98.2365 265.988 108.212 255.331 114.364L162.628 167.882C151.97 174.034 134.691 174.034 124.034 167.882L31.3312 114.364C20.6738 108.212 20.6737 98.2365 31.3312 92.084L124.034 38.5667Z" fill="#1F90E1" fill-opacity="0.9"/>
<path fill-rule="evenodd" clip-rule="evenodd" d="M254.366 104.84L161.663 51.3229C151.539 45.478 135.123 45.478 124.999 51.3229L32.2961 104.84C22.1715 110.685 22.1715 120.162 32.2961 126.006L124.999 179.524C135.123 185.369 151.539 185.369 161.663 179.524L254.366 126.006C264.49 120.162 264.49 110.685 254.366 104.84ZM162.628 50.7659C151.97 44.6133 134.691 44.6133 124.034 50.7659L31.3312 104.283C20.6738 110.436 20.6738 120.411 31.3312 126.563L124.034 180.081C134.691 186.233 151.97 186.233 162.628 180.081L255.331 126.563C265.988 120.411 265.988 110.436 255.331 104.283L162.628 50.7659Z" fill="#1F90E1"/>
<path d="M124.034 11.4261C134.692 5.27352 151.971 5.27351 162.628 11.4261L255.331 64.9433C265.988 71.0958 265.988 81.0711 255.331 87.2236L162.628 140.741C151.971 146.893 134.692 146.893 124.034 140.741L31.3314 87.2236C20.674 81.0711 20.674 71.0959 31.3314 64.9433L124.034 11.4261Z" fill="#1F74E1"/>
<path fill-rule="evenodd" clip-rule="evenodd" d="M254.366 77.6997L161.663 24.1824C151.539 18.3375 135.123 18.3375 124.999 24.1824L32.2963 77.6997C22.1717 83.5446 22.1717 93.0211 32.2963 98.866L124.999 152.383C135.123 158.228 151.539 158.228 161.663 152.383L254.366 98.866C264.49 93.0211 264.49 83.5446 254.366 77.6997ZM162.628 23.6254C151.971 17.4729 134.692 17.4729 124.034 23.6254L31.3314 77.1427C20.674 83.2952 20.674 93.2705 31.3314 99.423L124.034 152.94C134.692 159.093 151.971 159.093 162.628 152.94L255.331 99.423C265.988 93.2705 265.988 83.2952 255.331 77.1427L162.628 23.6254Z" fill="#1F74E1"/>
<path fill-rule="evenodd" clip-rule="evenodd" d="M144.811 59.9858L161.081 69.3783C163.324 70.6733 166.972 70.6733 169.216 69.3783L185.485 59.9858C187.728 58.6908 187.728 56.5846 185.485 55.2896L169.216 45.8971C166.972 44.6021 163.324 44.6021 161.081 45.8971L144.811 55.2896C142.568 56.5846 142.568 58.6908 144.811 59.9858ZM163.792 47.4625C164.54 47.031 165.756 47.031 166.504 47.4625L182.774 56.855C183.521 57.2865 183.521 57.9888 182.774 58.4204L166.504 67.8129C165.756 68.2444 164.54 68.2444 163.792 67.8129L147.523 58.4204C146.775 57.9888 146.775 57.2865 147.523 56.855L163.792 47.4625ZM101.277 84.9464L117.547 94.3389C119.79 95.6339 123.439 95.6339 125.682 94.3389L141.951 84.9464C144.195 83.6514 144.195 81.5451 141.951 80.2501L125.682 70.8577C123.439 69.5627 119.79 69.5627 117.547 70.8577L101.277 80.2501C99.0341 81.5451 99.0341 83.6514 101.277 84.9464ZM120.259 72.4231C121.006 71.9915 122.223 71.9915 122.97 72.4231L139.24 81.8156C139.987 82.2471 139.987 82.9494 139.24 83.381L122.97 92.7734C122.223 93.205 121.006 93.205 120.259 92.7734L103.989 83.381C103.241 82.9494 103.241 82.2471 103.989 81.8156L120.259 72.4231ZM107.843 64.1089L107.84 64.1071L136.675 47.4607C139.401 45.8869 142.747 45.375 146.094 46.0193C148.488 46.4799 150.062 47.3619 150.233 47.4607L147.529 49.0303C147.518 49.024 146.383 48.3902 144.777 48.1002C142.837 47.749 141.074 48.0519 139.387 49.0261L139.018 49.2389L139.021 49.2407L106.954 67.7529C105.267 68.7271 104.742 69.745 105.35 70.8649C105.853 71.7915 106.951 72.4471 106.954 72.4491L104.243 74.0146C104.072 73.9157 102.544 73.0072 101.746 71.6249C100.63 69.6926 101.517 67.7613 104.243 66.1875L107.843 64.1089ZM179.025 76.0675L179.023 76.0665L182.624 73.9881C185.35 72.4143 186.236 70.4831 185.12 68.5508C184.323 67.1685 182.795 66.2599 182.624 66.1611L179.912 67.7265C179.916 67.7286 181.014 68.3841 181.516 69.3108C182.124 70.4307 181.599 71.4486 179.912 72.4227L147.846 90.9347L147.847 90.9358L147.48 91.1481C145.792 92.1222 144.029 92.4252 142.089 92.074C140.484 91.784 139.348 91.1501 139.338 91.1438L136.633 92.7135C136.804 92.8123 138.378 93.6943 140.773 94.1548C144.12 94.7992 147.465 94.2873 150.191 92.7135L179.025 76.0675Z" fill="white"/>
</g>
<defs>
<filter id="filter0_ddddd_1_33" x="-41.6619" y="58.0593" width="391.986" height="418.544" filterUnits="userSpaceOnUse" color-interpolation-filters="sRGB">
<feFlood flood-opacity="0" result="BackgroundImageFix"/>
<feColorMatrix in="SourceAlpha" type="matrix" values="0 0 0 0 0 0 0 0 0 0 0 0 0 0 0 0 0 0 127 0" result="hardAlpha"/>
<feOffset/>
<feColorMatrix type="matrix" values="0 0 0 0 0 0 0 0 0 0 0 0 0 0 0 0 0 0 0.1 0"/>
<feBlend mode="normal" in2="BackgroundImageFix" result="effect1_dropShadow_1_33"/>
<feColorMatrix in="SourceAlpha" type="matrix" values="0 0 0 0 0 0 0 0 0 0 0 0 0 0 0 0 0 0 127 0" result="hardAlpha"/>
<feOffset dx="1" dy="12"/>
<feGaussianBlur stdDeviation="13"/>
<feColorMatrix type="matrix" values="0 0 0 0 0 0 0 0 0 0 0 0 0 0 0 0 0 0 0.1 0"/>
<feBlend mode="normal" in2="effect1_dropShadow_1_33" result="effect2_dropShadow_1_33"/>
<feColorMatrix in="SourceAlpha" type="matrix" values="0 0 0 0 0 0 0 0 0 0 0 0 0 0 0 0 0 0 127 0" result="hardAlpha"/>
<feOffset dx="3" dy="47"/>
<feGaussianBlur stdDeviation="24"/>
<feColorMatrix type="matrix" values="0 0 0 0 0 0 0 0 0 0 0 0 0 0 0 0 0 0 0.09 0"/>
<feBlend mode="normal" in2="effect2_dropShadow_1_33" result="effect3_dropShadow_1_33"/>
<feColorMatrix in="SourceAlpha" type="matrix" values="0 0 0 0 0 0 0 0 0 0 0 0 0 0 0 0 0 0 127 0" result="hardAlpha"/>
<feOffset dx="6" dy="107"/>
<feGaussianBlur stdDeviation="32"/>
<feColorMatrix type="matrix" values="0 0 0 0 0 0 0 0 0 0 0 0 0 0 0 0 0 0 0.05 0"/>
<feBlend mode="normal" in2="effect3_dropShadow_1_33" result="effect4_dropShadow_1_33"/>
<feColorMatrix in="SourceAlpha" type="matrix" values="0 0 0 0 0 0 0 0 0 0 0 0 0 0 0 0 0 0 127 0" result="hardAlpha"/>
<feOffset dx="11" dy="190"/>
<feGaussianBlur stdDeviation="38"/>
<feColorMatrix type="matrix" values="0 0 0 0 0 0 0 0 0 0 0 0 0 0 0 0 0 0 0.01 0"/>
<feBlend mode="normal" in2="effect4_dropShadow_1_33" result="effect5_dropShadow_1_33"/>
<feBlend mode="normal" in="SourceGraphic" in2="effect5_dropShadow_1_33" result="shape"/>
</filter>
<clipPath id="clip0_1_33">
<rect width="284.342" height="243.983" fill="white" transform="translate(0.851685 0.286133)"/>
</clipPath>
</defs>
</svg>
