<svg width="285" height="245" viewBox="0 0 285 245" fill="none" xmlns="http://www.w3.org/2000/svg">
<g clip-path="url(#clip0_1_1806)">
<path d="M123.048 91.8369C133.705 85.6844 150.985 85.6844 161.642 91.8369L254.345 145.354C265.002 151.507 265.002 161.482 254.345 167.635L161.642 221.152C150.985 227.304 133.705 227.304 123.048 221.152L30.3453 167.635C19.6879 161.482 19.6878 151.507 30.3453 145.354L123.048 91.8369Z" fill="#E3DEE6" fill-opacity="0.9"/>
<path fill-rule="evenodd" clip-rule="evenodd" d="M253.38 158.11L160.677 104.593C150.553 98.7483 134.137 98.7483 124.013 104.593L31.3102 158.11C21.1856 163.955 21.1856 173.432 31.3102 179.277L124.013 232.794C134.137 238.639 150.553 238.639 160.677 232.794L253.38 179.277C263.504 173.432 263.504 163.955 253.38 158.11ZM161.642 104.036C150.985 97.8836 133.705 97.8836 123.048 104.036L30.3454 157.553C19.6879 163.706 19.6879 173.681 30.3454 179.834L123.048 233.351C133.705 239.504 150.985 239.504 161.642 233.351L254.345 179.834C265.002 173.681 265.002 163.706 254.345 157.553L161.642 104.036Z" fill="#E5E0E7"/>
<path d="M123.664 64.6968C134.322 58.5443 151.601 58.5443 162.259 64.6968L254.961 118.214C265.619 124.367 265.619 134.342 254.961 140.494L162.259 194.012C151.601 200.164 134.322 200.164 123.664 194.012L30.9618 140.494C20.3044 134.342 20.3044 124.367 30.9618 118.214L123.664 64.6968Z" fill="#D6CEDA"/>
<g filter="url(#filter0_ddddd_1_1806)">
<path fill-rule="evenodd" clip-rule="evenodd" d="M253.996 130.97L161.294 77.453C151.169 71.6081 134.754 71.6081 124.629 77.453L31.9267 130.97C21.8021 136.815 21.8021 146.292 31.9267 152.137L124.629 205.654C134.754 211.499 151.169 211.499 161.294 205.654L253.996 152.137C264.121 146.292 264.121 136.815 253.996 130.97ZM162.259 76.896C151.601 70.7435 134.322 70.7435 123.664 76.896L30.9618 130.413C20.3044 136.566 20.3044 146.541 30.9618 152.694L123.664 206.211C134.322 212.363 151.601 212.363 162.259 206.211L254.961 152.694C265.619 146.541 265.619 136.566 254.961 130.413L162.259 76.896Z" fill="#D6CEDA"/>
</g>
<path d="M123.664 38.7896C134.322 32.637 151.601 32.637 162.259 38.7896L254.961 92.3068C265.619 98.4594 265.619 108.435 254.961 114.587L162.259 168.104C151.601 174.257 134.322 174.257 123.664 168.104L30.9618 114.587C20.3044 108.435 20.3044 98.4594 30.9618 92.3068L123.664 38.7896Z" fill="#B6A6BF"/>
<path fill-rule="evenodd" clip-rule="evenodd" d="M253.996 105.063L161.294 51.5458C151.169 45.7009 134.754 45.7009 124.629 51.5458L31.9267 105.063C21.8022 110.908 21.8022 120.384 31.9267 126.229L124.629 179.747C134.754 185.592 151.169 185.592 161.294 179.747L253.996 126.229C264.121 120.384 264.121 110.908 253.996 105.063ZM162.259 50.9888C151.601 44.8363 134.322 44.8363 123.665 50.9888L30.9619 104.506C20.3044 110.659 20.3044 120.634 30.9619 126.786L123.665 180.304C134.322 186.456 151.601 186.456 162.259 180.304L254.961 126.786C265.619 120.634 265.619 110.659 254.961 104.506L162.259 50.9888Z" fill="#B6A6BF"/>
<path d="M123.665 11.649C134.322 5.49642 151.601 5.49641 162.259 11.649L254.962 65.1662C265.619 71.3187 265.619 81.294 254.962 87.4465L162.259 140.964C151.601 147.116 134.322 147.116 123.665 140.964L30.9622 87.4465C20.3048 81.294 20.3048 71.3188 30.9622 65.1662L123.665 11.649Z" fill="#9676A6"/>
<path fill-rule="evenodd" clip-rule="evenodd" d="M253.997 77.9224L161.294 24.4052C151.17 18.5603 134.754 18.5603 124.63 24.4052L31.9271 77.9224C21.8025 83.7673 21.8025 93.2438 31.9271 99.0888L124.63 152.606C134.754 158.451 151.17 158.451 161.294 152.606L253.997 99.0888C264.121 93.2438 264.121 83.7673 253.997 77.9224ZM162.259 23.8482C151.601 17.6956 134.322 17.6956 123.665 23.8482L30.9622 77.3654C20.3048 83.518 20.3048 93.4932 30.9622 99.6458L123.665 153.163C134.322 159.316 151.601 159.316 162.259 153.163L254.962 99.6458C265.619 93.4932 265.619 83.518 254.962 77.3654L162.259 23.8482Z" fill="#9676A6"/>
<path d="M138.217 73.2671L117.725 85.0975" stroke="white" stroke-width="4"/>
<path d="M161.637 89.8604L143.806 100.154" stroke="white" stroke-width="4"/>
<path d="M158.444 76.647L130.765 92.6257" stroke="white" stroke-width="4"/>
<path d="M117.725 70.0405L104.684 77.569" stroke="white" stroke-width="4"/>
<path d="M115.063 56.52L91.643 70.0405" stroke="white" stroke-width="4"/>
<path d="M124.644 49.4525L124.733 51.7968C125.04 59.9065 137.04 66.2173 151.056 65.6395V65.6395C166.589 64.9991 179.225 72.7539 177.169 81.6655L176.856 83.0233" stroke="white" stroke-width="4"/>
</g>
<defs>
<filter id="filter0_ddddd_1_1806" x="-42.0312" y="58.2817" width="391.985" height="418.543" filterUnits="userSpaceOnUse" color-interpolation-filters="sRGB">
<feFlood flood-opacity="0" result="BackgroundImageFix"/>
<feColorMatrix in="SourceAlpha" type="matrix" values="0 0 0 0 0 0 0 0 0 0 0 0 0 0 0 0 0 0 127 0" result="hardAlpha"/>
<feOffset/>
<feColorMatrix type="matrix" values="0 0 0 0 0 0 0 0 0 0 0 0 0 0 0 0 0 0 0.1 0"/>
<feBlend mode="normal" in2="BackgroundImageFix" result="effect1_dropShadow_1_1806"/>
<feColorMatrix in="SourceAlpha" type="matrix" values="0 0 0 0 0 0 0 0 0 0 0 0 0 0 0 0 0 0 127 0" result="hardAlpha"/>
<feOffset dx="1" dy="12"/>
<feGaussianBlur stdDeviation="13"/>
<feColorMatrix type="matrix" values="0 0 0 0 0 0 0 0 0 0 0 0 0 0 0 0 0 0 0.1 0"/>
<feBlend mode="normal" in2="effect1_dropShadow_1_1806" result="effect2_dropShadow_1_1806"/>
<feColorMatrix in="SourceAlpha" type="matrix" values="0 0 0 0 0 0 0 0 0 0 0 0 0 0 0 0 0 0 127 0" result="hardAlpha"/>
<feOffset dx="3" dy="47"/>
<feGaussianBlur stdDeviation="24"/>
<feColorMatrix type="matrix" values="0 0 0 0 0 0 0 0 0 0 0 0 0 0 0 0 0 0 0.09 0"/>
<feBlend mode="normal" in2="effect2_dropShadow_1_1806" result="effect3_dropShadow_1_1806"/>
<feColorMatrix in="SourceAlpha" type="matrix" values="0 0 0 0 0 0 0 0 0 0 0 0 0 0 0 0 0 0 127 0" result="hardAlpha"/>
<feOffset dx="6" dy="107"/>
<feGaussianBlur stdDeviation="32"/>
<feColorMatrix type="matrix" values="0 0 0 0 0 0 0 0 0 0 0 0 0 0 0 0 0 0 0.05 0"/>
<feBlend mode="normal" in2="effect3_dropShadow_1_1806" result="effect4_dropShadow_1_1806"/>
<feColorMatrix in="SourceAlpha" type="matrix" values="0 0 0 0 0 0 0 0 0 0 0 0 0 0 0 0 0 0 127 0" result="hardAlpha"/>
<feOffset dx="11" dy="190"/>
<feGaussianBlur stdDeviation="38"/>
<feColorMatrix type="matrix" values="0 0 0 0 0 0 0 0 0 0 0 0 0 0 0 0 0 0 0.01 0"/>
<feBlend mode="normal" in2="effect4_dropShadow_1_1806" result="effect5_dropShadow_1_1806"/>
<feBlend mode="normal" in="SourceGraphic" in2="effect5_dropShadow_1_1806" result="shape"/>
</filter>
<clipPath id="clip0_1_1806">
<rect width="284.342" height="243.983" fill="white" transform="translate(0 0.508789)"/>
</clipPath>
</defs>
</svg>
