<svg width="285" height="245" viewBox="0 0 285 245" fill="none" xmlns="http://www.w3.org/2000/svg">
<g clip-path="url(#clip0_1_229)">
<path d="M122.759 91.6141C133.416 85.4616 150.696 85.4616 161.353 91.6141L254.056 145.131C264.713 151.284 264.713 161.259 254.056 167.412L161.353 220.929C150.696 227.082 133.416 227.082 122.759 220.929L30.0564 167.412C19.3989 161.259 19.3989 151.284 30.0563 145.131L122.759 91.6141Z" fill="#9EE8FF" fill-opacity="0.9"/>
<path fill-rule="evenodd" clip-rule="evenodd" d="M253.091 157.888L160.388 104.37C150.264 98.5254 133.848 98.5254 123.724 104.37L31.0213 157.888C20.8967 163.732 20.8967 173.209 31.0213 179.054L123.724 232.571C133.848 238.416 150.264 238.416 160.388 232.571L253.091 179.054C263.215 173.209 263.215 163.732 253.091 157.888ZM161.353 103.813C150.696 97.6608 133.417 97.6608 122.759 103.813L30.0564 157.331C19.399 163.483 19.399 173.458 30.0564 179.611L122.759 233.128C133.417 239.281 150.696 239.281 161.353 233.128L254.056 179.611C264.713 173.458 264.713 163.483 254.056 157.331L161.353 103.813Z" fill="#A8E9FE"/>
<path d="M123.376 64.4744C134.033 58.3218 151.312 58.3218 161.97 64.4744L254.672 117.992C265.33 124.144 265.33 134.119 254.672 140.272L161.97 193.789C151.312 199.942 134.033 199.942 123.376 193.789L30.6729 140.272C20.0154 134.119 20.0154 124.144 30.6729 117.992L123.376 64.4744Z" fill="#83DBF7"/>
<g filter="url(#filter0_ddddd_1_229)">
<path fill-rule="evenodd" clip-rule="evenodd" d="M253.707 130.748L161.005 77.2307C150.88 71.3858 134.465 71.3858 124.34 77.2307L31.6377 130.748C21.5132 136.593 21.5132 146.069 31.6377 151.914L124.34 205.432C134.465 211.276 150.88 211.276 161.005 205.432L253.707 151.914C263.832 146.069 263.832 136.593 253.707 130.748ZM161.97 76.6737C151.312 70.5212 134.033 70.5212 123.376 76.6737L30.6729 130.191C20.0154 136.344 20.0154 146.319 30.6729 152.471L123.376 205.989C134.033 212.141 151.312 212.141 161.97 205.989L254.672 152.471C265.33 146.319 265.33 136.344 254.672 130.191L161.97 76.6737Z" fill="#83DBF7"/>
</g>
<path d="M123.376 38.5667C134.033 32.4142 151.312 32.4142 161.97 38.5667L254.672 92.084C265.33 98.2365 265.33 108.212 254.672 114.364L161.97 167.882C151.312 174.034 134.033 174.034 123.376 167.882L30.6729 114.364C20.0154 108.212 20.0154 98.2365 30.6729 92.084L123.376 38.5667Z" fill="#5BC8F5"/>
<path fill-rule="evenodd" clip-rule="evenodd" d="M253.707 104.84L161.005 51.3229C150.88 45.478 134.465 45.478 124.34 51.3229L31.6378 104.84C21.5132 110.685 21.5132 120.162 31.6378 126.006L124.34 179.524C134.465 185.369 150.88 185.369 161.005 179.524L253.707 126.006C263.832 120.162 263.832 110.685 253.707 104.84ZM161.97 50.7659C151.312 44.6133 134.033 44.6133 123.376 50.7659L30.6729 104.283C20.0155 110.436 20.0155 120.411 30.6729 126.563L123.376 180.081C134.033 186.233 151.312 186.233 161.97 180.081L254.672 126.563C265.33 120.411 265.33 110.436 254.672 104.283L161.97 50.7659Z" fill="#5BC8F5"/>
<path d="M123.376 11.4261C134.033 5.27352 151.312 5.27351 161.97 11.4261L254.672 64.9433C265.33 71.0958 265.33 81.0711 254.672 87.2236L161.97 140.741C151.312 146.893 134.033 146.893 123.376 140.741L30.6731 87.2236C20.0156 81.0711 20.0156 71.0959 30.673 64.9433L123.376 11.4261Z" fill="#57B5F5"/>
<path fill-rule="evenodd" clip-rule="evenodd" d="M253.708 77.6997L161.005 24.1824C150.88 18.3375 134.465 18.3375 124.341 24.1824L31.6379 77.6997C21.5133 83.5446 21.5133 93.0211 31.6379 98.866L124.341 152.383C134.465 158.228 150.88 158.228 161.005 152.383L253.708 98.866C263.832 93.0211 263.832 83.5446 253.708 77.6997ZM161.97 23.6254C151.312 17.4729 134.033 17.4729 123.376 23.6254L30.673 77.1427C20.0156 83.2952 20.0156 93.2705 30.6731 99.423L123.376 152.94C134.033 159.093 151.312 159.093 161.97 152.94L254.672 99.423C265.33 93.2705 265.33 83.2952 254.672 77.1427L161.97 23.6254Z" fill="#57B5F5"/>
<path fill-rule="evenodd" clip-rule="evenodd" d="M145.032 53.1128C143.426 52.1852 140.977 51.9477 138.933 52.5214L125.026 56.4252C123.698 56.798 122.25 57.0074 120.774 57.0401L116.511 57.1348C114.887 57.1709 113.379 57.633 112.418 58.3899L104.698 64.467C104.377 64.7197 104.024 64.9578 103.64 65.1793L99.5497 67.5405C97.4683 68.7421 97.4683 70.6902 99.5497 71.8918L104.166 74.557C104.531 74.7673 105.121 74.7673 105.485 74.557C107.931 73.1452 111.896 73.1452 114.342 74.557L120.654 78.2012L116.886 80.3769L110.573 76.7327C110.209 76.5224 109.618 76.5224 109.254 76.7327C106.808 78.1445 102.843 78.1445 100.398 76.7327L95.781 74.0675C91.6183 71.6643 91.6183 67.768 95.781 65.3649L99.8712 63.0036C100.063 62.8929 100.24 62.7738 100.4 62.6475L108.12 56.5703C110.043 55.0566 113.057 54.1324 116.306 54.0602L120.57 53.9656C121.307 53.9492 122.031 53.8445 122.695 53.6581L136.602 49.7543C140.69 48.607 145.587 49.0819 148.801 50.9371L158.341 56.4446L154.572 58.6203L145.032 53.1128Z" fill="white"/>
<path d="M137.387 98.0858L136.298 97.4573C135.807 97.1739 135.746 96.7493 136.163 96.509L138.424 95.2036C138.84 94.9633 139.576 94.9982 140.066 95.2816L141.155 95.9102C142.138 96.4773 143.359 96.8643 144.627 97.0217C145.269 97.1014 145.863 97.4004 145.958 97.7714L146.473 99.7908C146.568 100.162 146.129 100.462 145.486 100.419C142.549 100.223 139.653 99.3942 137.387 98.0858ZM131.46 90.2928C130.905 90.056 130.712 89.6278 131.124 89.3863C131.133 89.3815 131.141 89.3768 131.149 89.3721C131.511 89.1632 131.457 88.7886 131.031 88.5423L129.502 87.6598C129.011 87.3764 128.951 86.9519 129.367 86.7115L131.628 85.4061C132.044 85.1658 132.78 85.2007 133.271 85.4841L134.799 86.3667C137.679 88.0292 138.035 90.5278 135.593 91.9376C135.53 91.9738 135.416 91.9814 135.332 91.9456L131.46 90.2928ZM156.235 97.4667L152.68 95.4142C152.189 95.1308 152.129 94.7063 152.545 94.466L153.457 93.9395C153.838 93.7197 154.261 93.5162 154.705 93.3371L158.455 91.8369C158.941 91.6425 159.677 91.7416 160.099 92.0582L162.389 93.777C162.811 94.0937 162.759 94.508 162.273 94.7024L158.523 96.2026C158.299 96.2908 158.089 96.3915 157.897 96.5025L156.235 97.4619C156.233 97.4631 156.233 97.4653 156.235 97.4667ZM167.275 89.0635C166.758 88.7963 166.663 88.3736 166.936 88.0677C167.333 87.6216 167.524 87.1051 167.485 86.5646L167.358 84.898C167.33 84.529 167.829 84.2662 168.472 84.311L171.965 84.5545C172.607 84.5993 173.151 84.9345 173.179 85.3033L173.306 86.9704C173.405 88.2763 172.827 89.5122 171.664 90.5109C171.334 90.7943 170.599 90.7845 170.082 90.5172L167.275 89.0635ZM171.255 78.7183C170.655 78.529 170.358 78.1163 170.591 77.7966L173.38 73.968C173.613 73.6483 174.288 73.5426 174.888 73.7318L178.147 74.7596C178.748 74.9488 179.045 75.3615 178.812 75.6813L176.023 79.5098C175.79 79.8295 175.114 79.9353 174.515 79.7461L171.255 78.7183ZM174.275 69.244C173.768 69.4193 173.049 69.292 172.565 69.0072C172.549 68.9978 172.533 68.9885 172.517 68.9793L167.144 65.8775C166.653 65.5941 166.593 65.1696 167.009 64.9293L169.27 63.6239C169.687 63.3836 170.422 63.4185 170.913 63.7019L176.286 66.8036C176.611 66.9912 176.92 67.1876 177.212 67.3912C177.654 67.6992 177.556 68.1093 177.047 68.2853L174.275 69.244Z" fill="white"/>
<path fill-rule="evenodd" clip-rule="evenodd" d="M112.174 87.6655L171.719 53.2901L175.488 55.4658L115.943 89.8412L112.174 87.6655Z" fill="white"/>
<path fill-rule="evenodd" clip-rule="evenodd" d="M117.075 51.7675C118.116 51.1667 119.803 51.1667 120.844 51.7675L124.613 53.9432C125.653 54.544 125.653 55.5181 124.613 56.1189C123.572 56.7196 121.885 56.7196 120.844 56.1189L117.075 53.9432C116.035 53.3424 116.035 52.3683 117.075 51.7675Z" fill="white"/>
</g>
<defs>
<filter id="filter0_ddddd_1_229" x="-42.3202" y="58.0593" width="391.985" height="418.544" filterUnits="userSpaceOnUse" color-interpolation-filters="sRGB">
<feFlood flood-opacity="0" result="BackgroundImageFix"/>
<feColorMatrix in="SourceAlpha" type="matrix" values="0 0 0 0 0 0 0 0 0 0 0 0 0 0 0 0 0 0 127 0" result="hardAlpha"/>
<feOffset/>
<feColorMatrix type="matrix" values="0 0 0 0 0 0 0 0 0 0 0 0 0 0 0 0 0 0 0.1 0"/>
<feBlend mode="normal" in2="BackgroundImageFix" result="effect1_dropShadow_1_229"/>
<feColorMatrix in="SourceAlpha" type="matrix" values="0 0 0 0 0 0 0 0 0 0 0 0 0 0 0 0 0 0 127 0" result="hardAlpha"/>
<feOffset dx="1" dy="12"/>
<feGaussianBlur stdDeviation="13"/>
<feColorMatrix type="matrix" values="0 0 0 0 0 0 0 0 0 0 0 0 0 0 0 0 0 0 0.1 0"/>
<feBlend mode="normal" in2="effect1_dropShadow_1_229" result="effect2_dropShadow_1_229"/>
<feColorMatrix in="SourceAlpha" type="matrix" values="0 0 0 0 0 0 0 0 0 0 0 0 0 0 0 0 0 0 127 0" result="hardAlpha"/>
<feOffset dx="3" dy="47"/>
<feGaussianBlur stdDeviation="24"/>
<feColorMatrix type="matrix" values="0 0 0 0 0 0 0 0 0 0 0 0 0 0 0 0 0 0 0.09 0"/>
<feBlend mode="normal" in2="effect2_dropShadow_1_229" result="effect3_dropShadow_1_229"/>
<feColorMatrix in="SourceAlpha" type="matrix" values="0 0 0 0 0 0 0 0 0 0 0 0 0 0 0 0 0 0 127 0" result="hardAlpha"/>
<feOffset dx="6" dy="107"/>
<feGaussianBlur stdDeviation="32"/>
<feColorMatrix type="matrix" values="0 0 0 0 0 0 0 0 0 0 0 0 0 0 0 0 0 0 0.05 0"/>
<feBlend mode="normal" in2="effect3_dropShadow_1_229" result="effect4_dropShadow_1_229"/>
<feColorMatrix in="SourceAlpha" type="matrix" values="0 0 0 0 0 0 0 0 0 0 0 0 0 0 0 0 0 0 127 0" result="hardAlpha"/>
<feOffset dx="11" dy="190"/>
<feGaussianBlur stdDeviation="38"/>
<feColorMatrix type="matrix" values="0 0 0 0 0 0 0 0 0 0 0 0 0 0 0 0 0 0 0.01 0"/>
<feBlend mode="normal" in2="effect4_dropShadow_1_229" result="effect5_dropShadow_1_229"/>
<feBlend mode="normal" in="SourceGraphic" in2="effect5_dropShadow_1_229" result="shape"/>
</filter>
<clipPath id="clip0_1_229">
<rect width="284.342" height="243.983" fill="white" transform="translate(0.193359 0.286133)"/>
</clipPath>
</defs>
</svg>
