<svg width="286" height="244" viewBox="0 0 286 244" fill="none" xmlns="http://www.w3.org/2000/svg">
<g clip-path="url(#clip0_1_813)">
<path d="M123.566 90.1874C134.223 84.0349 151.502 84.0349 162.16 90.1874L254.862 143.705C265.52 149.857 265.52 159.832 254.862 165.985L162.16 219.502C151.502 225.655 134.223 225.655 123.566 219.502L30.863 165.985C20.2056 159.832 20.2055 149.857 30.863 143.705L123.566 90.1874Z" fill="#66CCBB" fill-opacity="0.9"/>
<path fill-rule="evenodd" clip-rule="evenodd" d="M253.898 156.461L161.195 102.944C151.07 97.0987 134.655 97.0987 124.531 102.944L31.8279 156.461C21.7033 162.306 21.7033 171.782 31.8279 177.627L124.531 231.144C134.655 236.989 151.07 236.989 161.195 231.144L253.898 177.627C264.022 171.782 264.022 162.306 253.898 156.461ZM162.16 102.387C151.502 96.2341 134.223 96.2341 123.566 102.387L30.8631 155.904C20.2056 162.056 20.2056 172.032 30.8631 178.184L123.566 231.701C134.223 237.854 151.502 237.854 162.16 231.701L254.862 178.184C265.52 172.032 265.52 162.056 254.862 155.904L162.16 102.387Z" fill="#66CCBB"/>
<path d="M124.182 63.0472C134.84 56.8946 152.119 56.8946 162.776 63.0471L255.479 116.564C266.136 122.717 266.136 132.692 255.479 138.845L162.776 192.362C152.119 198.515 134.84 198.515 124.182 192.362L31.4795 138.845C20.8221 132.692 20.8221 122.717 31.4795 116.564L124.182 63.0472Z" fill="#4D9D7D" fill-opacity="0.9"/>
<g filter="url(#filter0_ddddd_1_813)">
<path fill-rule="evenodd" clip-rule="evenodd" d="M254.514 129.321L161.811 75.8035C151.687 69.9586 135.272 69.9586 125.147 75.8035L32.4444 129.321C22.3198 135.166 22.3198 144.642 32.4444 150.487L125.147 204.004C135.272 209.849 151.687 209.849 161.811 204.004L254.514 150.487C264.639 144.642 264.639 135.166 254.514 129.321ZM162.776 75.2465C152.119 69.0939 134.84 69.094 124.182 75.2465L31.4795 128.764C20.8221 134.916 20.8221 144.892 31.4795 151.044L124.182 204.561C134.84 210.714 152.119 210.714 162.776 204.561L255.479 151.044C266.136 144.892 266.136 134.916 255.479 128.764L162.776 75.2465Z" fill="#4D9D7D"/>
</g>
<path d="M124.182 37.1399C134.84 30.9874 152.119 30.9874 162.776 37.1399L255.479 90.6572C266.136 96.8097 266.136 106.785 255.479 112.938L162.776 166.455C152.119 172.607 134.84 172.607 124.182 166.455L31.4795 112.938C20.8221 106.785 20.8221 96.8097 31.4795 90.6572L124.182 37.1399Z" fill="#317E6C" fill-opacity="0.9"/>
<path fill-rule="evenodd" clip-rule="evenodd" d="M254.514 103.413L161.811 49.896C151.687 44.0511 135.272 44.0511 125.147 49.896L32.4444 103.413C22.3199 109.258 22.3199 118.735 32.4444 124.58L125.147 178.097C135.272 183.942 151.687 183.942 161.811 178.097L254.514 124.58C264.639 118.735 264.639 109.258 254.514 103.413ZM162.776 49.339C152.119 43.1865 134.84 43.1865 124.182 49.339L31.4796 102.856C20.8221 109.009 20.8221 118.984 31.4796 125.137L124.182 178.654C134.84 184.806 152.119 184.806 162.776 178.654L255.479 125.137C266.136 118.984 266.136 109.009 255.479 102.856L162.776 49.339Z" fill="#317E6C"/>
<path d="M124.182 11.1399C134.84 4.98738 152.119 4.98738 162.776 11.1399L255.479 64.6572C266.136 70.8097 266.136 80.785 255.479 86.9375L162.776 140.455C152.119 146.607 134.84 146.607 124.182 140.455L31.4797 86.9375C20.8223 80.785 20.8222 70.8097 31.4797 64.6572L124.182 11.1399Z" fill="#267063"/>
<path fill-rule="evenodd" clip-rule="evenodd" d="M254.514 77.4135L161.812 23.8963C151.687 18.0514 135.272 18.0514 125.147 23.8963L32.4445 77.4135C22.32 83.2584 22.32 92.7349 32.4446 98.5798L125.147 152.097C135.272 157.942 151.687 157.942 161.812 152.097L254.514 98.5798C264.639 92.7349 264.639 83.2584 254.514 77.4135ZM162.776 23.3393C152.119 17.1867 134.84 17.1867 124.182 23.3393L31.4797 76.8565C20.8222 83.0091 20.8223 92.9843 31.4797 99.1369L124.182 152.654C134.84 158.807 152.119 158.807 162.776 152.654L255.479 99.1368C266.136 92.9843 266.136 83.0091 255.479 76.8565L162.776 23.3393Z" fill="#267063"/>
<path fill-rule="evenodd" clip-rule="evenodd" d="M150.54 40.777C147.038 38.7555 141.361 38.7555 137.859 40.777L78.681 74.9405C75.1792 76.9621 75.1792 80.2397 78.681 82.2612L133.104 113.679C136.605 115.701 142.283 115.701 145.785 113.679L204.963 79.516C208.464 77.4944 208.464 74.2168 204.963 72.1952L195.32 66.6284L198.49 64.7982L208.133 70.365C213.385 73.3974 213.385 78.3138 208.133 81.3462L148.955 115.51C143.702 118.542 135.186 118.542 129.933 115.51L75.5107 84.0914C70.2581 81.0591 70.2581 76.1427 75.5107 73.1103L134.689 38.9469C139.941 35.9145 148.458 35.9145 153.71 38.9469L163.353 44.5137L160.183 46.3439L150.54 40.777Z" fill="white"/>
<path fill-rule="evenodd" clip-rule="evenodd" d="M191.226 45.3522C187.724 43.3307 182.047 43.3307 178.545 45.3522L169.563 50.5378C164.31 53.5701 164.31 58.4865 169.563 61.5189C174.815 64.5512 183.332 64.5512 188.584 61.5189L197.567 56.3333C201.068 54.3118 201.068 51.0342 197.567 49.0126L191.226 45.3522ZM175.375 43.5221C180.628 40.4897 189.144 40.4897 194.396 43.5221L200.737 47.1824C205.99 50.2148 205.99 55.1312 200.737 58.1635L191.754 63.3491C184.751 67.3922 173.396 67.3922 166.392 63.3491C159.389 59.3059 159.389 52.7507 166.392 48.7076L175.375 43.5221Z" fill="white"/>
<path fill-rule="evenodd" clip-rule="evenodd" d="M141.031 99.3427L102.988 77.3805L106.158 75.5503L144.201 97.5125L141.031 99.3427Z" fill="white"/>
<path fill-rule="evenodd" clip-rule="evenodd" d="M121.481 97.2072L95.0618 81.9557L98.2321 80.1255L124.651 95.377L121.481 97.2072Z" fill="white"/>
<path fill-rule="evenodd" clip-rule="evenodd" d="M152.934 89.4132L144.091 70.3597L148.421 69.6898L157.265 88.7433L152.934 89.4132Z" fill="white"/>
<path fill-rule="evenodd" clip-rule="evenodd" d="M141.913 58.7783C146.173 62.491 149.529 64.6753 152.168 66.3937C152.709 66.7453 153.219 67.0774 153.7 67.399C156.605 69.3386 158.538 70.9205 160.203 74.5081C161.917 78.2006 160.368 80.3487 157.754 81.6028L160.619 83.5936C164.916 81.5327 166.576 78.2372 164.534 73.8382C162.658 69.797 160.341 67.8754 157.092 65.7061C156.586 65.3684 156.06 65.0255 155.509 64.6671C152.665 62.8148 149.183 60.5473 144.599 56.4176C143.522 55.4469 141.621 55.2717 140.226 55.514C138.833 55.756 137.42 56.5042 137.434 57.6512C137.502 63.3248 136.185 66.3812 135.11 68.8739C135.045 69.0248 134.981 69.1736 134.918 69.3207C134.358 70.6325 133.856 71.9003 133.756 73.3517C133.656 74.8151 133.965 76.4085 134.9 78.4222C136.195 81.2128 138.864 83.3132 142.352 84.5494C145.839 85.7853 149.996 86.1018 154.054 85.4741L152.894 82.974C149.964 83.4271 147.083 83.1892 144.697 82.3435C142.311 81.4981 140.269 79.9896 139.231 77.7523C138.39 75.9402 138.157 74.6101 138.236 73.4542C138.316 72.2861 138.716 71.2385 139.271 69.9406C139.333 69.7962 139.396 69.6498 139.46 69.5009C140.496 67.0965 141.805 64.0593 141.913 58.7783Z" fill="white"/>
</g>
<defs>
<filter id="filter0_ddddd_1_813" x="-41.5135" y="56.6321" width="391.986" height="418.544" filterUnits="userSpaceOnUse" color-interpolation-filters="sRGB">
<feFlood flood-opacity="0" result="BackgroundImageFix"/>
<feColorMatrix in="SourceAlpha" type="matrix" values="0 0 0 0 0 0 0 0 0 0 0 0 0 0 0 0 0 0 127 0" result="hardAlpha"/>
<feOffset/>
<feColorMatrix type="matrix" values="0 0 0 0 0 0 0 0 0 0 0 0 0 0 0 0 0 0 0.1 0"/>
<feBlend mode="normal" in2="BackgroundImageFix" result="effect1_dropShadow_1_813"/>
<feColorMatrix in="SourceAlpha" type="matrix" values="0 0 0 0 0 0 0 0 0 0 0 0 0 0 0 0 0 0 127 0" result="hardAlpha"/>
<feOffset dx="1" dy="12"/>
<feGaussianBlur stdDeviation="13"/>
<feColorMatrix type="matrix" values="0 0 0 0 0 0 0 0 0 0 0 0 0 0 0 0 0 0 0.1 0"/>
<feBlend mode="normal" in2="effect1_dropShadow_1_813" result="effect2_dropShadow_1_813"/>
<feColorMatrix in="SourceAlpha" type="matrix" values="0 0 0 0 0 0 0 0 0 0 0 0 0 0 0 0 0 0 127 0" result="hardAlpha"/>
<feOffset dx="3" dy="47"/>
<feGaussianBlur stdDeviation="24"/>
<feColorMatrix type="matrix" values="0 0 0 0 0 0 0 0 0 0 0 0 0 0 0 0 0 0 0.09 0"/>
<feBlend mode="normal" in2="effect2_dropShadow_1_813" result="effect3_dropShadow_1_813"/>
<feColorMatrix in="SourceAlpha" type="matrix" values="0 0 0 0 0 0 0 0 0 0 0 0 0 0 0 0 0 0 127 0" result="hardAlpha"/>
<feOffset dx="6" dy="107"/>
<feGaussianBlur stdDeviation="32"/>
<feColorMatrix type="matrix" values="0 0 0 0 0 0 0 0 0 0 0 0 0 0 0 0 0 0 0.05 0"/>
<feBlend mode="normal" in2="effect3_dropShadow_1_813" result="effect4_dropShadow_1_813"/>
<feColorMatrix in="SourceAlpha" type="matrix" values="0 0 0 0 0 0 0 0 0 0 0 0 0 0 0 0 0 0 127 0" result="hardAlpha"/>
<feOffset dx="11" dy="190"/>
<feGaussianBlur stdDeviation="38"/>
<feColorMatrix type="matrix" values="0 0 0 0 0 0 0 0 0 0 0 0 0 0 0 0 0 0 0.01 0"/>
<feBlend mode="normal" in2="effect4_dropShadow_1_813" result="effect5_dropShadow_1_813"/>
<feBlend mode="normal" in="SourceGraphic" in2="effect5_dropShadow_1_813" result="shape"/>
</filter>
<clipPath id="clip0_1_813">
<rect width="284.342" height="243.983" fill="white" transform="translate(0.829102)"/>
</clipPath>
</defs>
</svg>
