<svg width="285" height="244" viewBox="0 0 285 244" fill="none" xmlns="http://www.w3.org/2000/svg">
<g clip-path="url(#clip0_1_886)">
<path d="M122.692 91.328C133.349 85.1755 150.628 85.1755 161.286 91.328L253.988 144.845C264.646 150.998 264.646 160.973 253.988 167.126L161.286 220.643C150.628 226.795 133.349 226.795 122.692 220.643L29.989 167.126C19.3315 160.973 19.3315 150.998 29.989 144.845L122.692 91.328Z" fill="#9EDD8E" fill-opacity="0.9"/>
<path fill-rule="evenodd" clip-rule="evenodd" d="M253.024 157.602L160.321 104.084C150.196 98.2393 133.781 98.2393 123.657 104.084L30.9539 157.602C20.8294 163.446 20.8294 172.923 30.954 178.768L123.657 232.285C133.781 238.13 150.196 238.13 160.321 232.285L253.024 178.768C263.148 172.923 263.148 163.446 253.024 157.602ZM161.286 103.527C150.628 97.3747 133.349 97.3747 122.692 103.527L29.9891 157.045C19.3316 163.197 19.3317 173.172 29.9891 179.325L122.692 232.842C133.349 238.995 150.628 238.995 161.286 232.842L253.988 179.325C264.646 173.172 264.646 163.197 253.988 157.044L161.286 103.527Z" fill="#9EDD8E"/>
<path d="M123.308 64.1883C133.966 58.0357 151.245 58.0357 161.902 64.1883L254.605 117.706C265.262 123.858 265.262 133.833 254.605 139.986L161.902 193.503C151.245 199.656 133.966 199.656 123.308 193.503L30.6056 139.986C19.9481 133.833 19.9481 123.858 30.6055 117.706L123.308 64.1883Z" fill="#66C76A" fill-opacity="0.9"/>
<g filter="url(#filter0_ddddd_1_886)">
<path fill-rule="evenodd" clip-rule="evenodd" d="M253.64 130.462L160.937 76.9446C150.813 71.0997 134.398 71.0997 124.273 76.9446L31.5704 130.462C21.4458 136.307 21.4458 145.783 31.5704 151.628L124.273 205.145C134.398 210.99 150.813 210.99 160.937 205.145L253.64 151.628C263.765 145.783 263.765 136.307 253.64 130.462ZM161.902 76.3876C151.245 70.2351 133.966 70.2351 123.308 76.3876L30.6055 129.905C19.9481 136.057 19.9481 146.033 30.6056 152.185L123.308 205.702C133.966 211.855 151.245 211.855 161.902 205.702L254.605 152.185C265.262 146.033 265.262 136.057 254.605 129.905L161.902 76.3876Z" fill="#66C76A"/>
</g>
<path d="M123.308 38.2806C133.966 32.128 151.245 32.128 161.902 38.2805L254.605 91.7978C265.262 97.9503 265.262 107.926 254.605 114.078L161.902 167.595C151.245 173.748 133.966 173.748 123.308 167.595L30.6056 114.078C19.9481 107.926 19.9481 97.9503 30.6055 91.7978L123.308 38.2806Z" fill="#38AE44" fill-opacity="0.9"/>
<path fill-rule="evenodd" clip-rule="evenodd" d="M253.64 104.554L160.937 51.0367C150.813 45.1917 134.398 45.1917 124.273 51.0367L31.5704 104.554C21.4458 110.399 21.4458 119.875 31.5704 125.72L124.273 179.237C134.398 185.082 150.813 185.082 160.937 179.237L253.64 125.72C263.765 119.875 263.765 110.399 253.64 104.554ZM161.902 50.4796C151.245 44.3271 133.966 44.3271 123.308 50.4796L30.6055 103.997C19.9481 110.149 19.9481 120.125 30.6056 126.277L123.308 179.794C133.966 185.947 151.245 185.947 161.902 179.794L254.605 126.277C265.262 120.125 265.262 110.149 254.605 103.997L161.902 50.4796Z" fill="#38AE44"/>
<path d="M123.308 11.1399C133.966 4.98738 151.245 4.98738 161.902 11.1399L254.605 64.6572C265.262 70.8097 265.262 80.785 254.605 86.9375L161.902 140.455C151.245 146.607 133.966 146.607 123.308 140.455L30.6057 86.9375C19.9482 80.785 19.9482 70.8097 30.6057 64.6572L123.308 11.1399Z" fill="#41891F"/>
<path fill-rule="evenodd" clip-rule="evenodd" d="M253.64 77.4135L160.938 23.8963C150.813 18.0514 134.398 18.0514 124.273 23.8963L31.5705 77.4135C21.446 83.2584 21.446 92.7349 31.5705 98.5798L124.273 152.097C134.398 157.942 150.813 157.942 160.938 152.097L253.64 98.5798C263.765 92.7349 263.765 83.2584 253.64 77.4135ZM161.902 23.3393C151.245 17.1867 133.966 17.1867 123.308 23.3393L30.6057 76.8565C19.9482 83.0091 19.9482 92.9843 30.6057 99.1369L123.308 152.654C133.966 158.807 151.245 158.807 161.902 152.654L254.605 99.1368C265.262 92.9843 265.262 83.0091 254.605 76.8565L161.902 23.3393Z" fill="#41891F"/>
<path fill-rule="evenodd" clip-rule="evenodd" d="M168.063 48.1223C151.273 38.4292 124.051 38.4292 107.26 48.1223C90.4699 57.8153 90.4699 73.5309 107.26 83.2239C124.051 92.917 151.273 92.917 168.063 83.2239C184.854 73.5309 184.854 57.8153 168.063 48.1223ZM104.034 46.2599C122.606 35.5383 152.717 35.5383 171.289 46.2599C189.861 56.9815 189.861 74.3647 171.289 85.0863C152.717 95.8079 122.606 95.8079 104.034 85.0863C85.4622 74.3647 85.4621 56.9815 104.034 46.2599Z" fill="white"/>
<path fill-rule="evenodd" clip-rule="evenodd" d="M151.227 48.1134C143.256 49.9141 133.941 53.5124 125.269 58.5186C116.597 63.5249 110.364 68.9024 107.245 73.5044C105.684 75.8074 104.943 77.856 104.993 79.5333C105.041 81.2018 105.861 82.4158 107.261 83.2241C108.661 84.0325 110.764 84.5054 113.654 84.5336C116.56 84.5619 120.108 84.1345 124.097 83.2333C132.069 81.4325 141.384 77.8343 150.056 72.828C158.728 67.8217 164.96 62.4443 168.08 57.8423C169.641 55.5393 170.381 53.4907 170.332 51.8134C170.283 50.1448 169.464 48.9308 168.064 48.1225C166.664 47.3142 164.561 46.8413 161.671 46.8131C158.765 46.7847 155.217 47.2122 151.227 48.1134ZM161.748 44.1796C165.449 44.2157 168.822 44.8356 171.29 46.2601C173.758 47.6846 174.831 49.6322 174.894 51.7689C174.956 53.8968 174.026 56.2972 172.328 58.802C168.93 63.8157 162.291 69.4894 153.282 74.6904C144.272 79.8914 134.445 83.7242 125.76 85.686C121.421 86.6662 117.263 87.203 113.577 87.167C109.876 87.131 106.502 86.5111 104.035 85.0865C101.567 83.662 100.493 81.7145 100.431 79.5778C100.369 77.4499 101.298 75.0495 102.996 72.5446C106.395 67.5309 113.034 61.8573 122.043 56.6562C131.052 51.4552 140.88 47.6225 149.565 45.6606C153.904 44.6805 158.062 44.1437 161.748 44.1796Z" fill="white"/>
<path fill-rule="evenodd" clip-rule="evenodd" d="M168.079 73.5041C164.96 68.9021 158.727 63.5247 150.055 58.5184C141.383 53.5121 132.068 49.9139 124.097 48.1131C120.107 47.2119 116.559 46.7845 113.653 46.8128C110.763 46.841 108.66 47.3139 107.26 48.1223C105.86 48.9306 105.041 50.1446 104.992 51.8131C104.943 53.4904 105.683 55.539 107.244 57.842C110.363 62.444 116.596 67.8215 125.268 72.8278C133.94 77.8341 143.255 81.4323 151.227 83.2331C155.216 84.1342 158.764 84.5617 161.67 84.5333C164.56 84.5052 166.663 84.0322 168.063 83.2239C169.463 82.4156 170.283 81.2016 170.331 79.5331C170.38 77.8557 169.64 75.8071 168.079 73.5041ZM174.893 79.5775C174.831 81.7143 173.757 83.6618 171.289 85.0863C168.822 86.5108 165.448 87.1307 161.747 87.1668C158.061 87.2027 153.903 86.6659 149.564 85.6858C140.879 83.7239 131.051 79.8912 122.042 74.6902C113.033 69.4891 106.394 63.8155 102.996 58.8018C101.298 56.2969 100.368 53.8965 100.43 51.7686C100.493 49.6319 101.566 47.6844 104.034 46.2599C106.502 44.8353 109.875 44.2155 113.576 44.1794C117.262 44.1434 121.42 44.6802 125.759 45.6604C134.444 47.6223 144.272 51.455 153.281 56.656C162.29 61.857 168.929 67.5307 172.328 72.5444C174.025 75.0492 174.955 77.4496 174.893 79.5775Z" fill="white"/>
<path fill-rule="evenodd" clip-rule="evenodd" d="M122.5 92.7379C123.508 92.5706 124.559 92.9063 124.849 93.4878C125.387 94.5669 125.664 97.0213 124.797 99.7818C123.92 102.573 121.826 105.833 117.355 108.414C116.614 108.842 115.412 108.842 114.671 108.414C113.93 107.986 113.93 107.292 114.671 106.864C118.427 104.696 120.273 101.901 121.062 99.3907C121.861 96.8493 121.531 94.7542 121.201 94.0937C120.912 93.5122 121.493 92.9052 122.5 92.7379Z" fill="black"/>
<path fill-rule="evenodd" clip-rule="evenodd" d="M121.96 91.6531C124.005 91.3134 126.139 91.995 126.728 93.1756C127.373 94.4703 127.623 97.1099 126.721 99.9832C125.798 102.919 123.577 106.418 118.738 109.212C117.233 110.081 114.793 110.081 113.289 109.212C111.784 108.343 111.784 106.935 113.289 106.066C116.677 104.11 118.395 101.555 119.138 99.1892C119.901 96.7606 119.544 94.8507 119.322 94.4058C118.734 93.2252 119.915 91.9928 121.96 91.6531ZM124.849 93.4878C124.559 92.9063 123.508 92.5705 122.5 92.7379C121.493 92.9052 120.912 93.5122 121.201 94.0937C121.531 94.7542 121.861 96.8492 121.062 99.3906C120.273 101.901 118.427 104.696 114.671 106.864C113.93 107.292 113.93 107.986 114.671 108.414C115.412 108.842 116.614 108.842 117.355 108.414C121.826 105.833 123.92 102.573 124.797 99.7817C125.664 97.0212 125.387 94.5668 124.849 93.4878Z" fill="#41891F"/>
<path fill-rule="evenodd" clip-rule="evenodd" d="M113.146 74.6882C117.177 78.2351 120.328 80.2865 122.809 81.9011C123.242 82.1833 123.655 82.4522 124.049 82.7134C126.824 84.555 128.649 86.0093 130.212 89.3783C131.795 92.7871 130.371 94.7958 127.916 95.9734L130.342 97.6588C134.221 95.7982 135.738 92.8181 133.879 88.8112C132.131 85.045 129.966 83.3017 126.912 81.2751C126.506 81.006 126.086 80.7319 125.648 80.4468C122.916 78.6677 119.52 76.4564 115 72.2993C114.158 71.5245 112.653 71.3703 111.536 71.5624C110.419 71.7545 109.305 72.3592 109.335 73.2738C109.517 78.9227 108.242 81.8791 107.218 84.2547C107.179 84.3453 107.14 84.4352 107.102 84.5243C106.574 85.7544 106.092 86.9283 105.985 88.2667C105.877 89.6181 106.152 91.0899 107.022 92.9655C108.201 95.5037 110.624 97.408 113.782 98.5272C116.94 99.6463 120.705 99.9336 124.385 99.3644L123.402 97.2479C120.678 97.6693 117.993 97.4485 115.768 96.6598C113.543 95.8713 111.649 94.4682 110.689 92.3984C109.899 90.6977 109.69 89.4537 109.777 88.3677C109.864 87.2687 110.257 86.2837 110.786 85.0516C110.822 84.9673 110.859 84.8822 110.896 84.7963C111.867 82.5425 113.091 79.7012 113.146 74.6882Z" fill="white"/>
<path fill-rule="evenodd" clip-rule="evenodd" d="M111.224 71.6268C110.22 71.87 109.308 72.4445 109.334 73.2737C109.516 78.9226 108.242 81.879 107.218 84.2546L107.217 84.2555C107.178 84.3458 107.14 84.4354 107.102 84.5242C106.573 85.7543 106.092 86.9282 105.985 88.2666C105.877 89.618 106.152 91.0898 107.022 92.9654C108.2 95.5036 110.624 97.4079 113.782 98.5271C116.391 99.4517 119.414 99.8085 122.462 99.5836C123.103 99.5362 123.745 99.4632 124.384 99.3643L123.402 97.2478C120.678 97.6692 117.993 97.4484 115.768 96.6597C113.542 95.8712 111.649 94.4681 110.688 92.3983C109.899 90.6976 109.689 89.4536 109.776 88.3676C109.864 87.2686 110.256 86.2836 110.786 85.0515C110.822 84.9672 110.858 84.8821 110.895 84.7962C111.733 82.8521 112.759 80.4709 113.06 76.6357C113.108 76.0248 113.138 75.377 113.145 74.6881C113.8 75.2642 114.432 75.8009 115.041 76.3026C118.183 78.8899 120.731 80.5487 122.808 81.901C123.242 82.1832 123.655 82.4521 124.048 82.7133C126.824 84.5549 128.648 86.0092 130.212 89.3782C131.794 92.787 130.371 94.7957 127.916 95.9733L130.341 97.6587C130.851 97.4143 131.319 97.1506 131.745 96.8678C134.561 94.9976 135.494 92.2917 133.878 88.8111C132.13 85.0449 129.966 83.3016 126.912 81.275C126.506 81.006 126.085 80.7321 125.648 80.447L125.647 80.4467C122.915 78.6676 119.52 76.4563 115 72.2992C114.241 71.6013 112.944 71.4069 111.878 71.5156C111.761 71.5276 111.646 71.5432 111.535 71.5623C111.431 71.5802 111.327 71.6018 111.224 71.6268ZM114.865 78.0943C117.428 80.0996 119.569 81.4934 121.345 82.65C121.78 82.933 122.187 83.1978 122.573 83.4542C123.935 84.3582 124.983 85.1147 125.884 86.0304C126.782 86.943 127.574 88.055 128.323 89.6703C129.054 91.2441 129.045 92.3974 128.681 93.2391C128.323 94.0652 127.597 94.6586 126.666 95.105L125.162 95.8264L130.087 99.2482L131.591 98.5269C136.206 96.3133 137.769 92.8318 135.767 88.5189C133.924 84.5481 131.585 82.656 128.387 80.5341C127.975 80.2609 127.549 79.9835 127.113 79.6999L127.105 79.6943C124.404 77.9353 121.09 75.7773 116.656 71.6992C115.248 70.4038 112.743 70.1768 110.977 70.4805C109.211 70.7843 107.33 71.7658 107.379 73.2947C107.557 78.7946 106.328 81.6449 105.328 83.9651L105.32 83.982C105.281 84.0725 105.242 84.1629 105.204 84.2525C104.676 85.4819 104.148 86.753 104.031 88.2146C103.912 89.7027 104.221 91.2919 105.133 93.2575C106.423 96.0368 109.12 98.1994 112.759 99.4891C116.397 100.778 120.719 101.1 124.89 100.455L126.779 100.162L124.784 95.8653L122.896 96.1574C120.664 96.5027 118.536 96.3162 116.79 95.6977C115.046 95.0794 113.425 93.9343 112.577 92.1061C111.829 90.4956 111.653 89.3689 111.729 88.4196C111.807 87.4441 112.154 86.5568 112.683 85.3231C112.719 85.2393 112.756 85.1547 112.793 85.0687C113.539 83.336 114.443 81.2348 114.865 78.0943Z" fill="#41891F"/>
<path fill-rule="evenodd" clip-rule="evenodd" d="M179.874 96.7916C173.122 98.4649 169.073 99.8984 165.887 101.027C165.33 101.224 164.799 101.412 164.285 101.59C160.66 102.847 157.861 103.63 151.842 103.932C145.752 104.237 142.574 103.077 140.994 101.477L137.696 102.561C140.193 105.091 145.012 106.473 152.17 106.115C158.899 105.778 162.25 104.851 166.239 103.469C166.769 103.285 167.31 103.093 167.872 102.894C171.383 101.651 175.747 100.107 183.626 98.2623C185.094 97.9185 185.62 97.0896 185.487 96.4213C185.354 95.7529 184.517 95.0145 182.951 94.8717C173.285 93.9902 168.464 92.7503 164.591 91.7539C164.443 91.7159 164.297 91.6782 164.151 91.6409C162.145 91.1261 160.227 90.6476 157.963 90.3534C155.676 90.0564 153.118 89.9561 149.767 90.1239C145.232 90.351 141.562 91.3967 139.102 92.9969C136.643 94.5968 135.496 96.6869 135.826 98.8778L139.607 98.6884C139.363 97.0664 140.208 95.5788 141.941 94.4512C143.674 93.3238 146.397 92.4921 150.095 92.3069C153.134 92.1547 155.292 92.2524 157.129 92.4911C158.988 92.7327 160.6 93.1275 162.609 93.6432C162.747 93.6784 162.886 93.7141 163.026 93.7501C166.701 94.6951 171.334 95.8864 179.874 96.7916Z" fill="black"/>
<path fill-rule="evenodd" clip-rule="evenodd" d="M185.431 96.2329C185.191 95.6203 184.37 95.0012 182.951 94.8718C173.284 93.9903 168.464 92.7503 164.59 91.754C164.442 91.7159 164.296 91.6783 164.151 91.641C162.145 91.1262 160.226 90.6477 157.962 90.3535C155.676 90.0565 153.117 89.9561 149.767 90.124C145.232 90.3511 141.561 91.3968 139.102 92.9969C137.07 94.3189 135.934 95.9754 135.786 97.7468C135.755 98.1194 135.768 98.4972 135.825 98.8779L139.606 98.6885C139.363 97.0664 140.207 95.5789 141.94 94.4513C143.673 93.3239 146.397 92.4922 150.095 92.3069C153.133 92.1548 155.292 92.2525 157.129 92.4912C158.988 92.7328 160.6 93.1276 162.609 93.6433C162.746 93.6785 162.885 93.7142 163.025 93.7502C166.195 94.5653 170.078 95.5637 176.567 96.4037C177.6 96.5375 178.7 96.6673 179.874 96.7916C178.777 97.0634 177.752 97.3289 176.79 97.5877C171.829 98.9226 168.555 100.082 165.886 101.027C165.329 101.224 164.799 101.412 164.285 101.59C160.66 102.847 157.861 103.63 151.842 103.932C145.752 104.237 142.574 103.078 140.993 101.477L137.696 102.562C138.024 102.894 138.392 103.206 138.8 103.498C141.499 105.424 145.951 106.426 152.17 106.115C158.899 105.778 162.249 104.851 166.239 103.469C166.768 103.285 167.309 103.094 167.872 102.894C171.383 101.652 175.747 100.107 183.625 98.2623C184.948 97.9526 185.506 97.2494 185.506 96.6243C185.506 96.5555 185.499 96.4876 185.486 96.4213C185.474 96.3589 185.455 96.296 185.431 96.2329ZM173.764 97.175C169.897 98.2825 167.146 99.2564 164.864 100.065C164.305 100.262 163.783 100.447 163.278 100.622C161.499 101.239 160.026 101.703 158.307 102.055C156.593 102.407 154.559 102.663 151.673 102.807C148.861 102.948 146.896 102.742 145.523 102.388C144.177 102.041 143.291 101.525 142.692 100.918L141.724 99.937L135.029 102.14L135.997 103.12C138.968 106.13 144.634 107.625 152.339 107.239C159.433 106.884 163.068 105.884 167.245 104.436C167.783 104.25 168.33 104.056 168.89 103.858L168.901 103.854C172.372 102.625 176.631 101.118 184.36 99.3084C186.815 98.7336 187.639 97.3493 187.429 96.2925C187.219 95.2358 185.872 93.9954 183.256 93.7569C173.844 92.8986 169.197 91.7031 165.414 90.73L165.386 90.7229C165.238 90.685 165.091 90.647 164.945 90.6095C162.94 90.095 160.864 89.5735 158.391 89.2523C155.874 88.9252 153.109 88.8235 149.598 88.9994C144.632 89.2481 140.473 90.4038 137.639 92.2477C134.805 94.0912 133.504 96.4917 133.877 98.9755L134.046 100.1L141.723 99.7155L141.554 98.5909C141.355 97.2621 142.044 96.0848 143.403 95.2005C144.762 94.3165 146.998 93.5951 150.264 93.4315C153.141 93.2874 155.094 93.3838 156.699 93.5925C158.35 93.8069 159.803 94.1584 161.815 94.6747C161.95 94.7095 162.087 94.7446 162.226 94.7803L162.23 94.7813C165.055 95.5078 168.481 96.3878 173.764 97.175Z" fill="#41891F"/>
<path fill-rule="evenodd" clip-rule="evenodd" d="M147.063 97.5646C147.121 98.1687 146.321 98.6859 145.274 98.7198C144.706 98.7382 143.297 98.9653 141.136 99.4961C139.065 100.005 136.514 100.739 133.764 101.653C128.251 103.488 122.064 106.008 117.394 108.828C116.669 109.265 115.468 109.281 114.711 108.862C113.953 108.444 113.926 107.751 114.651 107.313C119.652 104.294 126.165 101.653 131.869 99.7549C134.729 98.8035 137.417 98.0284 139.65 97.4798C141.794 96.9532 143.757 96.5742 145.062 96.532C146.108 96.4982 147.004 96.9605 147.063 97.5646Z" fill="black"/>
<path fill-rule="evenodd" clip-rule="evenodd" d="M149.015 97.5015C149.134 98.728 147.508 99.778 145.384 99.8468C145.386 99.8468 145.385 99.8468 145.382 99.847C145.368 99.848 145.288 99.8536 145.124 99.875C144.941 99.8989 144.697 99.9369 144.387 99.9929C143.768 100.105 142.937 100.28 141.902 100.535C139.914 101.023 137.434 101.735 134.741 102.631C129.325 104.433 123.307 106.891 118.807 109.608C117.336 110.496 114.897 110.527 113.359 109.678C111.821 108.829 111.767 107.421 113.237 106.533C118.409 103.411 125.09 100.708 130.893 98.7769C133.809 97.8067 136.568 97.0103 138.885 96.4412C141.022 95.9161 143.269 95.4595 144.952 95.405C147.077 95.3363 148.896 96.2749 149.015 97.5015ZM145.274 98.7198C146.321 98.6859 147.121 98.1688 147.063 97.5646C147.004 96.9605 146.108 96.4982 145.062 96.5321C143.757 96.5743 141.794 96.9532 139.65 97.4798C137.417 98.0285 134.729 98.8035 131.869 99.7549C126.165 101.653 119.652 104.294 114.651 107.313C113.926 107.751 113.953 108.444 114.71 108.862C115.468 109.281 116.669 109.265 117.394 108.828C122.064 106.008 128.251 103.488 133.764 101.653C136.514 100.739 139.065 100.005 141.136 99.4961C143.297 98.9653 144.706 98.7382 145.274 98.7198Z" fill="#41891F"/>
<path d="M109.865 93.6724C109.865 93.54 109.221 91.5411 108.656 89.8165C108.335 88.8362 108.871 87.8271 110.093 87.1216L110.248 87.0325C110.631 86.8112 110.823 81.167 111.398 80.1706C111.974 79.1743 115.041 76.9612 115.999 76.8505C116.766 76.762 121.175 79.6173 123.284 81.056L130.101 87.0623C130.411 87.3355 130.642 87.6361 130.784 87.9521L132.414 91.5579C132.709 92.2108 132.615 92.902 132.148 93.5205L130.608 95.5601C129.977 96.3958 128.724 97.0214 127.201 97.2613L122.49 98.003C121.628 98.1387 120.721 98.1433 119.852 98.0233C118.257 97.803 116.275 97.5459 115.808 97.5459C115.041 97.5459 109.865 93.8938 109.865 93.6724Z" fill="#41891F"/>
<path fill-rule="evenodd" clip-rule="evenodd" d="M122.394 92.5248C123.605 92.3237 124.869 92.7272 125.217 93.4262C125.776 94.5475 126.048 97.0382 125.174 99.8209C124.288 102.64 122.169 105.947 117.626 108.57C116.735 109.084 115.291 109.084 114.4 108.57C113.509 108.056 113.509 107.222 114.4 106.707C118.084 104.581 119.905 101.833 120.685 99.3508C121.477 96.8315 121.141 94.7727 120.833 94.1545C120.485 93.4556 121.184 92.7259 122.394 92.5248Z" fill="white"/>
<path fill-rule="evenodd" clip-rule="evenodd" d="M147.445 97.5518C147.515 98.2779 146.553 98.8996 145.295 98.9403C144.801 98.9563 143.448 99.168 141.286 99.6993C139.231 100.204 136.694 100.934 133.955 101.845C128.461 103.673 122.307 106.181 117.67 108.98C116.799 109.506 115.355 109.524 114.445 109.022C113.534 108.519 113.502 107.686 114.373 107.16C119.408 104.12 125.953 101.467 131.677 99.5627C134.548 98.6076 137.25 97.8283 139.5 97.2757C141.642 96.7495 143.66 96.3552 145.04 96.3106C146.298 96.2699 147.375 96.8256 147.445 97.5518Z" fill="white"/>
<path fill-rule="evenodd" clip-rule="evenodd" d="M113.513 75.4072C117.236 78.6067 120.19 80.5294 122.527 82.0507C123.007 82.3633 123.461 82.659 123.891 82.9453C126.559 84.7242 128.32 86.1552 129.842 89.435C131.396 92.7834 129.982 94.694 127.671 95.8026L130.587 97.8284C134.61 95.8989 136.137 92.8207 134.249 88.7533C132.511 85.0083 130.355 83.2313 127.339 81.2211C126.888 80.9202 126.419 80.6148 125.93 80.2961C123.295 78.5802 120.07 76.4796 115.807 72.6212C114.777 71.6882 112.955 71.5202 111.628 71.7503C110.302 71.9803 108.946 72.6973 108.964 73.7989C109.053 79.0814 107.836 81.9041 106.844 84.2046C106.79 84.3319 106.735 84.4577 106.682 84.5821C106.165 85.7912 105.694 86.9688 105.598 88.3175C105.5 89.6793 105.787 91.1578 106.652 93.0222C107.852 95.6077 110.329 97.5626 113.582 98.7153C116.834 99.8677 120.708 100.162 124.484 99.5776L123.303 97.0335C120.675 97.44 118.1 97.2259 115.969 96.4706C113.838 95.7155 111.998 94.363 111.059 92.3405C110.29 90.6824 110.081 89.4732 110.156 88.4258C110.232 87.3653 110.598 86.4125 111.111 85.2137C111.163 85.0926 111.216 84.9698 111.27 84.8452C112.194 82.7001 113.355 80.0046 113.513 75.4072Z" fill="white"/>
<path fill-rule="evenodd" clip-rule="evenodd" d="M178.583 96.8737C172.477 98.4321 168.682 99.7759 165.68 100.839C165.063 101.058 164.48 101.264 163.916 101.459C160.417 102.665 157.669 103.417 151.809 103.71C145.827 104.01 142.815 102.873 141.327 101.366L137.363 102.67C139.953 105.293 144.937 106.698 152.204 106.334C158.895 105.999 162.302 105.083 166.256 103.72C166.848 103.516 167.451 103.302 168.08 103.08C171.466 101.881 175.611 100.414 182.935 98.6637C184.706 98.2405 185.311 97.2343 185.149 96.4395C184.988 95.6456 184.002 94.7499 182.12 94.5684C173.094 93.6978 168.491 92.5139 164.741 91.549C164.533 91.4956 164.328 91.4428 164.125 91.3909C162.153 90.886 160.226 90.4128 157.943 90.123C155.637 89.8304 153.065 89.7354 149.734 89.9023C145.115 90.1337 141.349 91.2009 138.815 92.8488C136.283 94.4965 135.106 96.6475 135.444 98.8959L139.989 98.6682C139.754 97.1036 140.568 95.6768 142.228 94.597C143.887 93.5174 146.515 92.7072 150.128 92.5263C153.091 92.3779 155.19 92.4704 156.963 92.6954C158.759 92.9233 160.32 93.2979 162.275 93.7985C162.473 93.8491 162.673 93.9006 162.876 93.9529C166.374 94.8522 170.769 95.9824 178.583 96.8737Z" fill="white"/>
</g>
<defs>
<filter id="filter0_ddddd_1_886" x="-42.3876" y="57.7732" width="391.986" height="418.544" filterUnits="userSpaceOnUse" color-interpolation-filters="sRGB">
<feFlood flood-opacity="0" result="BackgroundImageFix"/>
<feColorMatrix in="SourceAlpha" type="matrix" values="0 0 0 0 0 0 0 0 0 0 0 0 0 0 0 0 0 0 127 0" result="hardAlpha"/>
<feOffset/>
<feColorMatrix type="matrix" values="0 0 0 0 0 0 0 0 0 0 0 0 0 0 0 0 0 0 0.1 0"/>
<feBlend mode="normal" in2="BackgroundImageFix" result="effect1_dropShadow_1_886"/>
<feColorMatrix in="SourceAlpha" type="matrix" values="0 0 0 0 0 0 0 0 0 0 0 0 0 0 0 0 0 0 127 0" result="hardAlpha"/>
<feOffset dx="1" dy="12"/>
<feGaussianBlur stdDeviation="13"/>
<feColorMatrix type="matrix" values="0 0 0 0 0 0 0 0 0 0 0 0 0 0 0 0 0 0 0.1 0"/>
<feBlend mode="normal" in2="effect1_dropShadow_1_886" result="effect2_dropShadow_1_886"/>
<feColorMatrix in="SourceAlpha" type="matrix" values="0 0 0 0 0 0 0 0 0 0 0 0 0 0 0 0 0 0 127 0" result="hardAlpha"/>
<feOffset dx="3" dy="47"/>
<feGaussianBlur stdDeviation="24"/>
<feColorMatrix type="matrix" values="0 0 0 0 0 0 0 0 0 0 0 0 0 0 0 0 0 0 0.09 0"/>
<feBlend mode="normal" in2="effect2_dropShadow_1_886" result="effect3_dropShadow_1_886"/>
<feColorMatrix in="SourceAlpha" type="matrix" values="0 0 0 0 0 0 0 0 0 0 0 0 0 0 0 0 0 0 127 0" result="hardAlpha"/>
<feOffset dx="6" dy="107"/>
<feGaussianBlur stdDeviation="32"/>
<feColorMatrix type="matrix" values="0 0 0 0 0 0 0 0 0 0 0 0 0 0 0 0 0 0 0.05 0"/>
<feBlend mode="normal" in2="effect3_dropShadow_1_886" result="effect4_dropShadow_1_886"/>
<feColorMatrix in="SourceAlpha" type="matrix" values="0 0 0 0 0 0 0 0 0 0 0 0 0 0 0 0 0 0 127 0" result="hardAlpha"/>
<feOffset dx="11" dy="190"/>
<feGaussianBlur stdDeviation="38"/>
<feColorMatrix type="matrix" values="0 0 0 0 0 0 0 0 0 0 0 0 0 0 0 0 0 0 0.01 0"/>
<feBlend mode="normal" in2="effect4_dropShadow_1_886" result="effect5_dropShadow_1_886"/>
<feBlend mode="normal" in="SourceGraphic" in2="effect5_dropShadow_1_886" result="shape"/>
</filter>
<clipPath id="clip0_1_886">
<rect width="284.342" height="243.983" fill="white" transform="translate(0.0551758)"/>
</clipPath>
</defs>
</svg>
