<svg width="287" height="245" viewBox="0 0 287 245" fill="none" xmlns="http://www.w3.org/2000/svg">
<g clip-path="url(#clip0_1429_1333)">
<path d="M123.03 91.6143C133.688 85.4617 150.967 85.4617 161.624 91.6143L254.327 145.132C264.984 151.284 264.984 161.259 254.327 167.412L161.624 220.929C150.967 227.082 133.688 227.082 123.03 220.929L30.3275 167.412C19.67 161.259 19.67 151.284 30.3275 145.132L123.03 91.6143Z" fill="#57A6F5" fill-opacity="0.9"/>
<path fill-rule="evenodd" clip-rule="evenodd" d="M253.362 157.888L160.659 104.371C150.535 98.5256 134.12 98.5256 123.995 104.371L31.2923 157.888C21.1678 163.733 21.1678 173.209 31.2923 179.054L123.995 232.571C134.12 238.416 150.535 238.416 160.659 232.571L253.362 179.054C263.487 173.209 263.487 163.733 253.362 157.888ZM161.624 103.814C150.967 97.661 133.688 97.661 123.03 103.814L30.3275 157.331C19.67 163.483 19.67 173.459 30.3275 179.611L123.03 233.128C133.688 239.281 150.967 239.281 161.624 233.128L254.327 179.611C264.984 173.459 264.984 163.483 254.327 157.331L161.624 103.814Z" fill="#57A6F5"/>
<path d="M123.647 64.4742C134.305 58.3216 151.584 58.3216 162.241 64.4742L254.944 117.991C265.601 124.144 265.601 134.119 254.944 140.272L162.241 193.789C151.584 199.942 134.305 199.942 123.647 193.789L30.9447 140.272C20.2872 134.119 20.2872 124.144 30.9447 117.991L123.647 64.4742Z" fill="#4390EB" fill-opacity="0.9"/>
<g filter="url(#filter0_ddddd_1429_1333)">
<path fill-rule="evenodd" clip-rule="evenodd" d="M253.979 130.748L161.276 77.2304C151.152 71.3855 134.737 71.3855 124.612 77.2304L31.9095 130.748C21.7849 136.593 21.7849 146.069 31.9095 151.914L124.612 205.431C134.737 211.276 151.152 211.276 161.277 205.431L253.979 151.914C264.104 146.069 264.104 136.593 253.979 130.748ZM162.241 76.6734C151.584 70.5208 134.305 70.5208 123.647 76.6734L30.9447 130.191C20.2872 136.343 20.2872 146.318 30.9447 152.471L123.647 205.988C134.305 212.141 151.584 212.141 162.241 205.988L254.944 152.471C265.601 146.318 265.601 136.343 254.944 130.191L162.241 76.6734Z" fill="#4390EB"/>
</g>
<path d="M123.647 38.5669C134.305 32.4144 151.584 32.4144 162.241 38.5669L254.944 92.0842C265.601 98.2367 265.601 108.212 254.944 114.365L162.241 167.882C151.584 174.034 134.305 174.034 123.647 167.882L30.9447 114.365C20.2872 108.212 20.2872 98.2367 30.9447 92.0842L123.647 38.5669Z" fill="#285EC6" fill-opacity="0.9"/>
<path fill-rule="evenodd" clip-rule="evenodd" d="M253.979 104.84L161.276 51.3232C151.152 45.4782 134.737 45.4782 124.612 51.3232L31.9095 104.84C21.7849 110.685 21.7849 120.162 31.9095 126.007L124.612 179.524C134.737 185.369 151.152 185.369 161.277 179.524L253.979 126.007C264.104 120.162 264.104 110.685 253.979 104.84ZM162.241 50.7661C151.584 44.6136 134.305 44.6136 123.647 50.7661L30.9447 104.283C20.2872 110.436 20.2872 120.411 30.9447 126.564L123.647 180.081C134.305 186.234 151.584 186.234 162.241 180.081L254.944 126.564C265.601 120.411 265.601 110.436 254.944 104.283L162.241 50.7661Z" fill="#3B88CF"/>
<path d="M125.692 11.4263C136.35 5.27376 153.629 5.27376 164.286 11.4263L256.989 64.9435C267.646 71.0961 267.646 81.0713 256.989 87.2239L164.286 140.741C153.629 146.894 136.35 146.894 125.692 140.741L32.9896 87.2239C22.3321 81.0713 22.3321 71.0961 32.9896 64.9436L125.692 11.4263Z" fill="#1A34BA"/>
<path fill-rule="evenodd" clip-rule="evenodd" d="M256.024 77.6998L163.321 24.1825C153.197 18.3376 136.782 18.3376 126.657 24.1825L33.9544 77.6998C23.8299 83.5447 23.8299 93.0212 33.9544 98.8661L126.657 152.383C136.782 158.228 153.197 158.228 163.321 152.383L256.024 98.8661C266.149 93.0212 266.149 83.5447 256.024 77.6998ZM164.286 23.6255C153.629 17.473 136.35 17.473 125.692 23.6255L32.9896 77.1428C22.3321 83.2953 22.3321 93.2706 32.9896 99.4231L125.692 152.94C136.35 159.093 153.629 159.093 164.286 152.94L256.989 99.4231C267.646 93.2706 267.646 83.2953 256.989 77.1428L164.286 23.6255Z" fill="#1A34BA"/>
<path fill-rule="evenodd" clip-rule="evenodd" d="M127.384 50.772C123.688 48.6386 117.697 48.6386 114.001 50.772C110.306 52.9054 110.306 56.3642 114.001 58.4976L122.254 63.2618C123.488 63.9741 124.978 64.4486 126.553 64.6852L125.522 62.4589C125.154 62.3216 124.806 62.16 124.484 61.9741L116.232 57.21C113.768 55.7878 113.768 53.4818 116.232 52.0596C118.695 50.6373 122.69 50.6373 125.153 52.0596L133.406 56.8237C135.352 57.9475 135.761 59.623 134.631 60.9784L135.677 63.2378C139.331 61.1025 139.318 57.6615 135.636 55.5361L127.384 50.772Z" fill="white"/>
<path fill-rule="evenodd" clip-rule="evenodd" d="M183.813 83.3486C187.508 85.4819 187.508 88.9408 183.813 91.0742C180.117 93.2076 174.126 93.2076 170.43 91.0742L162.178 86.31C160.944 85.5977 160.122 84.7375 159.712 83.8283L163.569 84.4234C163.806 84.6356 164.086 84.8366 164.408 85.0224L172.661 89.7866C175.124 91.2088 179.119 91.2088 181.582 89.7866C184.046 88.3643 184.046 86.0584 181.582 84.6362L173.33 79.872C171.383 78.7482 168.481 78.5124 166.133 79.1646L162.219 78.5606C165.918 76.4511 171.879 76.459 175.56 78.5844L183.813 83.3486Z" fill="white"/>
<path fill-rule="evenodd" clip-rule="evenodd" d="M145.154 81.5815C143.49 81.6041 141.813 81.2489 140.543 80.5158L132.291 75.7517C131.021 75.0186 130.405 74.0507 130.445 73.0901L129.024 70.0219C126.405 72.1546 126.75 75.1286 130.06 77.0393L138.313 81.8034C141.622 83.7141 146.774 83.9136 150.468 82.4017L145.154 81.5815ZM154.413 77.3557L151.014 76.8312C150.718 76.2951 150.201 75.7907 149.465 75.3654L141.212 70.6013C140.475 70.1759 139.602 69.8778 138.673 69.7069L137.765 67.7448C139.838 67.873 141.853 68.396 143.443 69.3137L151.695 74.0778C153.285 74.9955 154.191 76.1585 154.413 77.3557Z" fill="white"/>
<path fill-rule="evenodd" clip-rule="evenodd" d="M133.444 72.8995L127.645 60.5385L130.689 60.0625L136.488 72.4235L133.444 72.8995Z" fill="white"/>
<path fill-rule="evenodd" clip-rule="evenodd" d="M145.482 79.8488L166.894 83.1966L167.719 81.439L146.307 78.0912L145.482 79.8488Z" fill="white"/>
<path fill-rule="evenodd" clip-rule="evenodd" d="M205.006 86.7321C207.042 85.5565 207.042 83.6506 205.006 82.4751L207.236 81.1875C210.504 83.0741 210.504 86.133 207.236 88.0197L170.687 109.12C167.419 111.006 162.12 111.006 158.852 109.12L161.082 107.832C163.119 109.008 166.42 109.008 168.456 107.832L205.006 86.7321Z" fill="white"/>
<path fill-rule="evenodd" clip-rule="evenodd" d="M121.523 38.5371C123.559 37.3616 126.86 37.3616 128.897 38.5371L131.127 37.2495C127.859 35.3629 122.56 35.3629 119.292 37.2495L82.7427 58.3496C79.4747 60.2362 79.4747 63.2951 82.7427 65.1817L84.9731 63.8941C82.9369 62.7186 82.9369 60.8127 84.9731 59.6372L121.523 38.5371Z" fill="white"/>
<path fill-rule="evenodd" clip-rule="evenodd" d="M204.596 76.4624L139.312 38.7739L131.537 43.2623L196.821 80.9507L204.596 76.4624ZM141.542 37.4863C140.31 36.7752 138.313 36.7752 137.081 37.4863L129.306 41.9747C128.075 42.6858 128.075 43.8387 129.306 44.5499L194.59 82.2383C195.822 82.9494 197.819 82.9494 199.051 82.2383L206.826 77.75C208.058 77.0389 208.058 75.8859 206.826 75.1748L141.542 37.4863Z" fill="white"/>
<path fill-rule="evenodd" clip-rule="evenodd" d="M158.441 103.107L93.1572 65.4185L85.3826 69.9068L150.667 107.595L158.441 103.107ZM95.3876 64.1309C94.1558 63.4197 92.1586 63.4197 90.9268 64.1309L83.1522 68.6192C81.9204 69.3303 81.9204 70.4833 83.1522 71.1944L148.436 108.883C149.668 109.594 151.665 109.594 152.897 108.883L160.672 104.395C161.903 103.683 161.903 102.53 160.672 101.819L95.3876 64.1309Z" fill="white"/>
</g>
<defs>
<filter id="filter0_ddddd_1429_1333" x="-42.0488" y="58.0591" width="391.986" height="418.543" filterUnits="userSpaceOnUse" color-interpolation-filters="sRGB">
<feFlood flood-opacity="0" result="BackgroundImageFix"/>
<feColorMatrix in="SourceAlpha" type="matrix" values="0 0 0 0 0 0 0 0 0 0 0 0 0 0 0 0 0 0 127 0" result="hardAlpha"/>
<feOffset/>
<feColorMatrix type="matrix" values="0 0 0 0 0 0 0 0 0 0 0 0 0 0 0 0 0 0 0.1 0"/>
<feBlend mode="normal" in2="BackgroundImageFix" result="effect1_dropShadow_1429_1333"/>
<feColorMatrix in="SourceAlpha" type="matrix" values="0 0 0 0 0 0 0 0 0 0 0 0 0 0 0 0 0 0 127 0" result="hardAlpha"/>
<feOffset dx="1" dy="12"/>
<feGaussianBlur stdDeviation="13"/>
<feColorMatrix type="matrix" values="0 0 0 0 0 0 0 0 0 0 0 0 0 0 0 0 0 0 0.1 0"/>
<feBlend mode="normal" in2="effect1_dropShadow_1429_1333" result="effect2_dropShadow_1429_1333"/>
<feColorMatrix in="SourceAlpha" type="matrix" values="0 0 0 0 0 0 0 0 0 0 0 0 0 0 0 0 0 0 127 0" result="hardAlpha"/>
<feOffset dx="3" dy="47"/>
<feGaussianBlur stdDeviation="24"/>
<feColorMatrix type="matrix" values="0 0 0 0 0 0 0 0 0 0 0 0 0 0 0 0 0 0 0.09 0"/>
<feBlend mode="normal" in2="effect2_dropShadow_1429_1333" result="effect3_dropShadow_1429_1333"/>
<feColorMatrix in="SourceAlpha" type="matrix" values="0 0 0 0 0 0 0 0 0 0 0 0 0 0 0 0 0 0 127 0" result="hardAlpha"/>
<feOffset dx="6" dy="107"/>
<feGaussianBlur stdDeviation="32"/>
<feColorMatrix type="matrix" values="0 0 0 0 0 0 0 0 0 0 0 0 0 0 0 0 0 0 0.05 0"/>
<feBlend mode="normal" in2="effect3_dropShadow_1429_1333" result="effect4_dropShadow_1429_1333"/>
<feColorMatrix in="SourceAlpha" type="matrix" values="0 0 0 0 0 0 0 0 0 0 0 0 0 0 0 0 0 0 127 0" result="hardAlpha"/>
<feOffset dx="11" dy="190"/>
<feGaussianBlur stdDeviation="38"/>
<feColorMatrix type="matrix" values="0 0 0 0 0 0 0 0 0 0 0 0 0 0 0 0 0 0 0.01 0"/>
<feBlend mode="normal" in2="effect4_dropShadow_1429_1333" result="effect5_dropShadow_1429_1333"/>
<feBlend mode="normal" in="SourceGraphic" in2="effect5_dropShadow_1429_1333" result="shape"/>
</filter>
<clipPath id="clip0_1429_1333">
<rect width="286.387" height="243.983" fill="white" transform="translate(0.464844 0.286133)"/>
</clipPath>
</defs>
</svg>
