<svg width="285" height="245" viewBox="0 0 285 245" fill="none" xmlns="http://www.w3.org/2000/svg">
<g clip-path="url(#clip0_1_1841)">
<path d="M123.048 91.8369C133.705 85.6844 150.984 85.6844 161.642 91.8369L254.344 145.354C265.002 151.507 265.002 161.482 254.344 167.635L161.642 221.152C150.984 227.304 133.705 227.304 123.048 221.152L30.3451 167.635C19.6876 161.482 19.6876 151.507 30.345 145.354L123.048 91.8369Z" fill="#E3DEE6" fill-opacity="0.9"/>
<path fill-rule="evenodd" clip-rule="evenodd" d="M253.38 158.11L160.677 104.593C150.552 98.7483 134.137 98.7483 124.013 104.593L31.31 158.11C21.1854 163.955 21.1854 173.432 31.31 179.277L124.013 232.794C134.137 238.639 150.552 238.639 160.677 232.794L253.38 179.277C263.504 173.432 263.504 163.955 253.38 158.11ZM161.642 104.036C150.984 97.8836 133.705 97.8836 123.048 104.036L30.3451 157.553C19.6877 163.706 19.6877 173.681 30.3451 179.834L123.048 233.351C133.705 239.504 150.984 239.504 161.642 233.351L254.344 179.834C265.002 173.681 265.002 163.706 254.344 157.553L161.642 104.036Z" fill="#E5E0E7"/>
<path d="M123.664 64.6968C134.322 58.5443 151.601 58.5443 162.258 64.6968L254.961 118.214C265.618 124.367 265.618 134.342 254.961 140.494L162.258 194.012C151.601 200.164 134.322 200.164 123.664 194.012L30.9616 140.494C20.3041 134.342 20.3041 124.367 30.9616 118.214L123.664 64.6968Z" fill="#D3C6DA"/>
<g filter="url(#filter0_ddddd_1_1841)">
<path fill-rule="evenodd" clip-rule="evenodd" d="M253.996 130.97L161.293 77.453C151.169 71.6081 134.754 71.6081 124.629 77.453L31.9264 130.97C21.8019 136.815 21.8019 146.292 31.9264 152.137L124.629 205.654C134.754 211.499 151.169 211.499 161.293 205.654L253.996 152.137C264.121 146.292 264.121 136.815 253.996 130.97ZM162.258 76.896C151.601 70.7435 134.322 70.7435 123.664 76.896L30.9616 130.413C20.3041 136.566 20.3041 146.541 30.9616 152.694L123.664 206.211C134.322 212.363 151.601 212.363 162.258 206.211L254.961 152.694C265.618 146.541 265.618 136.566 254.961 130.413L162.258 76.896Z" fill="#D3C6DA"/>
</g>
<path d="M123.664 38.7896C134.322 32.637 151.601 32.637 162.258 38.7896L254.961 92.3068C265.618 98.4594 265.618 108.435 254.961 114.587L162.258 168.104C151.601 174.257 134.322 174.257 123.664 168.104L30.9616 114.587C20.3041 108.435 20.3041 98.4594 30.9616 92.3068L123.664 38.7896Z" fill="#C1ACCE"/>
<path fill-rule="evenodd" clip-rule="evenodd" d="M253.996 105.063L161.293 51.5458C151.169 45.7009 134.754 45.7009 124.629 51.5458L31.9265 105.063C21.8019 110.908 21.8019 120.384 31.9265 126.229L124.629 179.747C134.754 185.592 151.169 185.592 161.293 179.747L253.996 126.229C264.121 120.384 264.121 110.908 253.996 105.063ZM162.258 50.9888C151.601 44.8363 134.322 44.8363 123.664 50.9888L30.9616 104.506C20.3042 110.659 20.3042 120.634 30.9616 126.786L123.664 180.304C134.322 186.456 151.601 186.456 162.258 180.304L254.961 126.786C265.618 120.634 265.618 110.659 254.961 104.506L162.258 50.9888Z" fill="#C1ACCE"/>
<path d="M123.665 11.649C134.322 5.49642 151.601 5.49641 162.259 11.649L254.961 65.1662C265.619 71.3187 265.619 81.294 254.961 87.4465L162.259 140.964C151.601 147.116 134.322 147.116 123.665 140.964L30.962 87.4465C20.3046 81.294 20.3045 71.3188 30.962 65.1662L123.665 11.649Z" fill="#A883BB"/>
<path fill-rule="evenodd" clip-rule="evenodd" d="M253.996 77.9224L161.294 24.4052C151.169 18.5603 134.754 18.5603 124.629 24.4052L31.9268 77.9224C21.8023 83.7673 21.8023 93.2438 31.9269 99.0888L124.63 152.606C134.754 158.451 151.169 158.451 161.294 152.606L253.996 99.0888C264.121 93.2438 264.121 83.7673 253.996 77.9224ZM162.259 23.8482C151.601 17.6956 134.322 17.6956 123.665 23.8482L30.962 77.3654C20.3045 83.518 20.3046 93.4932 30.962 99.6458L123.665 153.163C134.322 159.316 151.601 159.316 162.259 153.163L254.961 99.6458C265.619 93.4932 265.619 83.518 254.961 77.3654L162.259 23.8482Z" fill="#A883BB"/>
<path fill-rule="evenodd" clip-rule="evenodd" d="M145.758 93.5464L145.758 97.454C145.758 99.3986 148.488 100.975 151.857 100.975H180.325C183.694 100.975 186.425 99.3986 186.425 97.454L186.425 81.0192C186.425 79.0746 183.694 77.4981 180.325 77.4981L173.379 77.4981L173.379 79.8455L180.325 79.8455C181.448 79.8455 182.358 80.371 182.358 81.0192L182.358 97.454C182.358 98.1022 181.448 98.6277 180.325 98.6277H151.857C150.734 98.6277 149.824 98.1022 149.824 97.454L149.824 93.5464L145.758 93.5464ZM169.313 79.8455L169.313 77.4981H169.312L169.312 79.8455H169.313ZM145.758 91.199L145.758 91.1987L149.824 91.1987L149.824 91.199H145.758ZM151.857 77.4981L161.18 77.4981V79.8455L151.857 79.8455C150.734 79.8455 149.824 80.371 149.824 81.0192L149.824 86.504L145.758 86.5039L145.758 81.0192C145.758 79.0746 148.488 77.4981 151.857 77.4981Z" fill="white"/>
<path fill-rule="evenodd" clip-rule="evenodd" d="M110.963 73.4577L104.193 73.4577C100.824 73.4577 98.0935 71.8813 98.0935 69.9366V53.5019C98.0935 51.5572 100.824 49.9808 104.193 49.9808L132.661 49.9808C136.03 49.9808 138.76 51.5572 138.76 53.5019L138.76 57.513H134.694L134.694 53.5019C134.694 52.8536 133.784 52.3282 132.661 52.3282L104.193 52.3282C103.07 52.3282 102.16 52.8536 102.16 53.5019V69.9366C102.16 70.5848 103.07 71.1103 104.193 71.1103L110.963 71.1103L110.963 73.4577ZM138.76 69.9366L138.76 64.5544L134.694 64.5544V69.9366C134.694 70.5848 133.784 71.1103 132.661 71.1103L123.16 71.1103L123.16 73.4577L132.661 73.4577C136.03 73.4577 138.76 71.8813 138.76 69.9366Z" fill="white"/>
<path fill-rule="evenodd" clip-rule="evenodd" d="M165.247 87.208V63.8866C165.247 62.9791 163.973 62.2434 162.401 62.2434H122.003C120.432 62.2434 119.157 62.9791 119.157 63.8866V87.208C119.157 88.1155 120.432 88.8512 122.003 88.8512H162.401C163.973 88.8512 165.247 88.1155 165.247 87.208ZM169.313 63.8866C169.313 61.6826 166.219 59.896 162.401 59.896H122.003C118.186 59.896 115.091 61.6826 115.091 63.8866V87.208C115.091 89.412 118.186 91.1986 122.003 91.1986H162.401C166.219 91.1986 169.313 89.412 169.313 87.208V63.8866Z" fill="white"/>
</g>
<defs>
<filter id="filter0_ddddd_1_1841" x="-42.0315" y="58.2817" width="391.985" height="418.543" filterUnits="userSpaceOnUse" color-interpolation-filters="sRGB">
<feFlood flood-opacity="0" result="BackgroundImageFix"/>
<feColorMatrix in="SourceAlpha" type="matrix" values="0 0 0 0 0 0 0 0 0 0 0 0 0 0 0 0 0 0 127 0" result="hardAlpha"/>
<feOffset/>
<feColorMatrix type="matrix" values="0 0 0 0 0 0 0 0 0 0 0 0 0 0 0 0 0 0 0.1 0"/>
<feBlend mode="normal" in2="BackgroundImageFix" result="effect1_dropShadow_1_1841"/>
<feColorMatrix in="SourceAlpha" type="matrix" values="0 0 0 0 0 0 0 0 0 0 0 0 0 0 0 0 0 0 127 0" result="hardAlpha"/>
<feOffset dx="1" dy="12"/>
<feGaussianBlur stdDeviation="13"/>
<feColorMatrix type="matrix" values="0 0 0 0 0 0 0 0 0 0 0 0 0 0 0 0 0 0 0.1 0"/>
<feBlend mode="normal" in2="effect1_dropShadow_1_1841" result="effect2_dropShadow_1_1841"/>
<feColorMatrix in="SourceAlpha" type="matrix" values="0 0 0 0 0 0 0 0 0 0 0 0 0 0 0 0 0 0 127 0" result="hardAlpha"/>
<feOffset dx="3" dy="47"/>
<feGaussianBlur stdDeviation="24"/>
<feColorMatrix type="matrix" values="0 0 0 0 0 0 0 0 0 0 0 0 0 0 0 0 0 0 0.09 0"/>
<feBlend mode="normal" in2="effect2_dropShadow_1_1841" result="effect3_dropShadow_1_1841"/>
<feColorMatrix in="SourceAlpha" type="matrix" values="0 0 0 0 0 0 0 0 0 0 0 0 0 0 0 0 0 0 127 0" result="hardAlpha"/>
<feOffset dx="6" dy="107"/>
<feGaussianBlur stdDeviation="32"/>
<feColorMatrix type="matrix" values="0 0 0 0 0 0 0 0 0 0 0 0 0 0 0 0 0 0 0.05 0"/>
<feBlend mode="normal" in2="effect3_dropShadow_1_1841" result="effect4_dropShadow_1_1841"/>
<feColorMatrix in="SourceAlpha" type="matrix" values="0 0 0 0 0 0 0 0 0 0 0 0 0 0 0 0 0 0 127 0" result="hardAlpha"/>
<feOffset dx="11" dy="190"/>
<feGaussianBlur stdDeviation="38"/>
<feColorMatrix type="matrix" values="0 0 0 0 0 0 0 0 0 0 0 0 0 0 0 0 0 0 0.01 0"/>
<feBlend mode="normal" in2="effect4_dropShadow_1_1841" result="effect5_dropShadow_1_1841"/>
<feBlend mode="normal" in="SourceGraphic" in2="effect5_dropShadow_1_1841" result="shape"/>
</filter>
<clipPath id="clip0_1_1841">
<rect width="284.342" height="243.983" fill="white" transform="translate(-0.000244141 0.508789)"/>
</clipPath>
</defs>
</svg>
