<svg width="285" height="244" viewBox="0 0 285 244" fill="none" xmlns="http://www.w3.org/2000/svg">
<g clip-path="url(#clip0_1_849)">
<path d="M122.249 90.1874C132.907 84.0349 150.186 84.0349 160.843 90.1874L253.546 143.705C264.203 149.857 264.203 159.832 253.546 165.985L160.843 219.502C150.186 225.655 132.907 225.655 122.249 219.502L29.5467 165.985C18.8892 159.832 18.8892 149.857 29.5467 143.705L122.249 90.1874Z" fill="#87E8D8" fill-opacity="0.9"/>
<path fill-rule="evenodd" clip-rule="evenodd" d="M252.581 156.461L159.879 102.944C149.754 97.0987 133.339 97.0987 123.214 102.944L30.5116 156.461C20.387 162.306 20.387 171.782 30.5116 177.627L123.214 231.144C133.339 236.989 149.754 236.989 159.879 231.144L252.581 177.627C262.706 171.782 262.706 162.306 252.581 156.461ZM160.843 102.387C150.186 96.2341 132.907 96.2341 122.249 102.387L29.5468 155.904C18.8893 162.056 18.8893 172.032 29.5468 178.184L122.249 231.701C132.907 237.854 150.186 237.854 160.843 231.701L253.546 178.184C264.204 172.032 264.204 162.056 253.546 155.904L160.843 102.387Z" fill="#93E9DA"/>
<path d="M122.866 63.0472C133.523 56.8946 150.802 56.8946 161.46 63.0471L254.163 116.564C264.82 122.717 264.82 132.692 254.163 138.845L161.46 192.362C150.802 198.515 133.523 198.515 122.866 192.362L30.1632 138.845C19.5058 132.692 19.5058 122.717 30.1632 116.564L122.866 63.0472Z" fill="#75D0C1"/>
<g filter="url(#filter0_ddddd_1_849)">
<path fill-rule="evenodd" clip-rule="evenodd" d="M253.198 129.321L160.495 75.8035C150.37 69.9586 133.955 69.9586 123.831 75.8035L31.1281 129.321C21.0035 135.166 21.0035 144.642 31.1281 150.487L123.831 204.004C133.955 209.849 150.371 209.849 160.495 204.004L253.198 150.487C263.322 144.642 263.322 135.166 253.198 129.321ZM161.46 75.2465C150.802 69.0939 133.523 69.094 122.866 75.2465L30.1632 128.764C19.5058 134.916 19.5058 144.892 30.1632 151.044L122.866 204.561C133.523 210.714 150.802 210.714 161.46 204.561L254.163 151.044C264.82 144.892 264.82 134.916 254.163 128.764L161.46 75.2465Z" fill="#75D0C1"/>
</g>
<path d="M122.866 37.1399C133.523 30.9874 150.802 30.9874 161.46 37.1399L254.163 90.6572C264.82 96.8097 264.82 106.785 254.163 112.938L161.46 166.455C150.802 172.607 133.523 172.607 122.866 166.455L30.1632 112.938C19.5058 106.785 19.5058 96.8097 30.1632 90.6572L122.866 37.1399Z" fill="#51A284"/>
<path fill-rule="evenodd" clip-rule="evenodd" d="M253.198 103.413L160.495 49.896C150.371 44.0511 133.955 44.0511 123.831 49.896L31.1281 103.413C21.0036 109.258 21.0036 118.735 31.1281 124.58L123.831 178.097C133.955 183.942 150.371 183.942 160.495 178.097L253.198 124.58C263.322 118.735 263.322 109.258 253.198 103.413ZM161.46 49.339C150.803 43.1865 133.523 43.1865 122.866 49.339L30.1633 102.856C19.5058 109.009 19.5058 118.984 30.1633 125.137L122.866 178.654C133.523 184.806 150.803 184.806 161.46 178.654L254.163 125.137C264.82 118.984 264.82 109.009 254.163 102.856L161.46 49.339Z" fill="#51A284"/>
<path d="M122.866 11.1399C133.524 4.98738 150.803 4.98738 161.46 11.1399L254.163 64.6572C264.82 70.8097 264.82 80.785 254.163 86.9375L161.46 140.455C150.803 146.607 133.524 146.607 122.866 140.455L30.1634 86.9375C19.506 80.785 19.506 70.8097 30.1634 64.6572L122.866 11.1399Z" fill="#34826E"/>
<path fill-rule="evenodd" clip-rule="evenodd" d="M253.198 77.4135L160.495 23.8963C150.371 18.0514 133.956 18.0514 123.831 23.8963L31.1283 77.4135C21.0037 83.2584 21.0037 92.7349 31.1283 98.5798L123.831 152.097C133.956 157.942 150.371 157.942 160.495 152.097L253.198 98.5798C263.323 92.7349 263.323 83.2584 253.198 77.4135ZM161.46 23.3393C150.803 17.1867 133.524 17.1867 122.866 23.3393L30.1634 76.8565C19.506 83.0091 19.506 92.9843 30.1634 99.1369L122.866 152.654C133.524 158.807 150.803 158.807 161.46 152.654L254.163 99.1368C264.82 92.9843 264.82 83.0091 254.163 76.8565L161.46 23.3393Z" fill="#34826E"/>
<path fill-rule="evenodd" clip-rule="evenodd" d="M153.536 80.9462L153.222 81.248C151.166 82.5789 150.877 84.7508 153.445 86.2333C155.889 87.6442 155.893 89.9345 153.449 91.3454L148.857 93.9964C146.469 95.3752 142.597 95.3752 140.208 93.9964C136.355 91.7721 129.767 93.3793 129.767 96.5248C129.767 98.4851 127.015 100.088 123.619 100.088L117.252 100.088C113.744 100.088 110.899 98.4368 110.899 96.4112C110.899 93.1546 104.079 91.5028 100.09 93.8056C97.6171 95.2331 93.6079 95.2331 91.1351 93.8056L86.6438 91.2128C84.2285 89.8184 84.2285 87.5578 86.6438 86.1635C90.5399 83.9142 87.7619 80.0684 82.252 80.0684C78.8303 80.0684 76.0488 78.4671 76.0488 76.4918L76.0488 72.7545L79.9498 72.7545V76.4918C79.9498 77.2197 80.9785 77.8164 82.252 77.8164C91.2123 77.8164 95.7735 84.0778 89.4022 87.7559C88.5104 88.2708 88.5104 89.1055 89.4022 89.6203L93.8935 92.2131C94.8429 92.7612 96.3821 92.7612 97.3314 92.2131C103.811 88.4722 114.8 91.1756 114.8 96.4112C114.8 97.2 115.91 97.8355 117.252 97.8355H123.619C124.841 97.8355 125.866 97.2523 125.866 96.5249C125.866 91.4162 136.603 88.7304 142.967 92.4039C143.832 92.9033 145.234 92.9033 146.099 92.4039L150.691 89.753C151.608 89.2238 151.611 88.3594 150.686 87.8257C144.509 84.2597 148.515 78.2138 157.006 77.8351L155.389 79.3911L153.703 80.7966L153.615 80.8698L153.536 80.9462ZM79.9498 72.7545L76.0488 72.7545C76.0488 70.7781 78.8309 69.1758 82.2546 69.1758C87.769 69.1758 90.5467 65.3269 86.6475 63.0758C84.2303 61.6804 84.2303 59.4179 86.6475 58.0224L91.1353 55.4316C93.608 54.0041 97.6334 54.0135 100.106 55.441C104.075 57.732 110.899 56.132 110.899 52.892C110.899 50.8835 113.72 49.2552 117.199 49.2552H123.673C127.039 49.2552 129.767 50.8305 129.767 52.7737C129.767 55.9084 136.358 57.4635 140.197 55.247C141.987 54.2136 144.617 53.9513 146.827 54.465C146.603 55.3416 146.34 56.1123 146.068 56.816C145.209 56.339 143.819 56.3409 142.956 56.8394C136.694 60.4545 125.866 57.9432 125.866 52.7737C125.866 52.0743 124.884 51.5073 123.673 51.5073L117.199 51.5073C115.874 51.5073 114.8 52.1272 114.8 52.892C114.8 58.1803 103.722 60.7134 97.3477 57.0335C96.3854 56.4779 94.83 56.4835 93.8937 57.0241L89.4059 59.6149C88.5122 60.1308 88.5122 60.9674 89.4059 61.4834C95.7781 65.162 91.2227 71.4279 82.2546 71.4279C80.9799 71.4279 79.9498 72.025 79.9498 72.7545ZM136.23 83.8948C127.355 89.0178 112.968 89.0178 104.093 83.8948C95.2193 78.7717 95.2193 70.4656 104.093 65.3425C112.968 60.2195 127.355 60.2195 136.23 65.3425C145.104 70.4656 145.104 78.7717 136.23 83.8948ZM133.471 82.3023C126.12 86.5459 114.203 86.5459 106.852 82.3023C99.5011 78.0587 99.5011 71.1786 106.852 66.935C114.203 62.6914 126.12 62.6914 133.471 66.935C140.822 71.1786 140.822 78.0587 133.471 82.3023Z" fill="white"/>
<path fill-rule="evenodd" clip-rule="evenodd" d="M163.689 67.6288C164.724 67.4568 165.805 67.8019 166.103 68.3995C166.656 69.5086 166.941 72.0312 166.049 74.8684C165.148 77.7371 162.996 81.0875 158.401 83.7403C157.639 84.1801 156.404 84.1801 155.642 83.7403C154.881 83.3006 154.881 82.5876 155.642 82.1479C159.503 79.9193 161.4 77.047 162.211 74.4664C163.032 71.8544 162.692 69.7011 162.354 69.0223C162.056 68.4247 162.654 67.8008 163.689 67.6288Z" fill="white"/>
<path fill-rule="evenodd" clip-rule="evenodd" d="M188.934 72.5892C188.994 73.2101 188.171 73.7417 187.096 73.7765C186.511 73.7954 185.064 74.0288 182.843 74.5743C180.714 75.0973 178.092 75.8514 175.266 76.7916C169.599 78.677 163.24 81.2675 158.44 84.1653C157.696 84.6148 156.461 84.6307 155.682 84.2009C154.904 83.7711 154.876 83.0583 155.621 82.6088C160.761 79.5056 167.455 76.791 173.318 74.8404C176.257 73.8625 179.02 73.0659 181.315 72.502C183.519 71.9608 185.536 71.5713 186.877 71.5279C187.953 71.4931 188.874 71.9683 188.934 72.5892Z" fill="white"/>
<path fill-rule="evenodd" clip-rule="evenodd" d="M154.074 49.0768C158.218 52.7222 161.457 54.8307 164.006 56.4902C164.451 56.7802 164.876 57.0565 165.28 57.325C168.133 59.2177 170.008 60.7125 171.615 64.1751C173.241 67.6786 171.778 69.7432 169.255 70.9535L171.748 72.6857C175.735 70.7734 177.295 67.7105 175.383 63.5922C173.587 59.7214 171.362 57.9297 168.223 55.8468C167.806 55.5701 167.374 55.2885 166.924 54.9954C164.116 53.1668 160.626 50.8941 155.98 46.6215C155.115 45.8251 153.567 45.6666 152.419 45.8641C151.272 46.0615 150.127 46.6831 150.157 47.6231C150.344 53.4289 149.034 56.4675 147.982 58.9091C147.942 59.0023 147.902 59.0946 147.863 59.1862C147.32 60.4505 146.825 61.657 146.715 63.0326C146.604 64.4216 146.886 65.9343 147.781 67.862C148.992 70.4708 151.483 72.4279 154.729 73.5783C157.974 74.7285 161.844 75.0237 165.626 74.4387L164.616 72.2634C161.816 72.6965 159.057 72.4696 156.769 71.659C154.483 70.8485 152.536 69.4064 151.549 67.2791C150.738 65.5312 150.522 64.2526 150.611 63.1364C150.702 62.0069 151.105 60.9946 151.649 59.7281C151.686 59.6415 151.724 59.5541 151.762 59.4658C152.76 57.1493 154.018 54.2291 154.074 49.0768Z" fill="white"/>
<path fill-rule="evenodd" clip-rule="evenodd" d="M222.657 71.7943C215.717 73.5141 211.556 74.9875 208.281 76.1472C207.709 76.3499 207.163 76.543 206.635 76.7261C202.909 78.0177 200.033 78.8231 193.846 79.133C187.587 79.4465 184.32 78.2549 182.696 76.6095L179.307 77.7246C181.873 80.3244 186.826 81.7452 194.183 81.3766C201.099 81.0303 204.543 80.0782 208.643 78.6569C209.188 78.4681 209.743 78.2714 210.322 78.0666C213.93 76.7893 218.415 75.2016 226.513 73.3059C228.022 72.9525 228.562 72.1007 228.426 71.4137C228.289 70.7268 227.428 69.9678 225.82 69.8211C215.884 68.9152 210.93 67.6407 206.949 66.6167C206.797 66.5776 206.646 66.5388 206.497 66.5005C204.435 65.9714 202.464 65.4796 200.137 65.1773C197.787 64.872 195.157 64.7689 191.713 64.9414C187.053 65.1748 183.28 66.2495 180.752 67.8942C178.224 69.5386 177.046 71.6868 177.384 73.9386L181.271 73.7439C181.02 72.0768 181.888 70.5478 183.67 69.3889C185.451 68.2302 188.25 67.3754 192.051 67.185C195.173 67.0286 197.392 67.1291 199.28 67.3744C201.191 67.6227 202.847 68.0284 204.913 68.5584C205.054 68.5947 205.196 68.6313 205.34 68.6683C209.117 69.6396 213.879 70.864 222.657 71.7943Z" fill="white"/>
</g>
<defs>
<filter id="filter0_ddddd_1_849" x="-42.8299" y="56.6321" width="391.986" height="418.544" filterUnits="userSpaceOnUse" color-interpolation-filters="sRGB">
<feFlood flood-opacity="0" result="BackgroundImageFix"/>
<feColorMatrix in="SourceAlpha" type="matrix" values="0 0 0 0 0 0 0 0 0 0 0 0 0 0 0 0 0 0 127 0" result="hardAlpha"/>
<feOffset/>
<feColorMatrix type="matrix" values="0 0 0 0 0 0 0 0 0 0 0 0 0 0 0 0 0 0 0.1 0"/>
<feBlend mode="normal" in2="BackgroundImageFix" result="effect1_dropShadow_1_849"/>
<feColorMatrix in="SourceAlpha" type="matrix" values="0 0 0 0 0 0 0 0 0 0 0 0 0 0 0 0 0 0 127 0" result="hardAlpha"/>
<feOffset dx="1" dy="12"/>
<feGaussianBlur stdDeviation="13"/>
<feColorMatrix type="matrix" values="0 0 0 0 0 0 0 0 0 0 0 0 0 0 0 0 0 0 0.1 0"/>
<feBlend mode="normal" in2="effect1_dropShadow_1_849" result="effect2_dropShadow_1_849"/>
<feColorMatrix in="SourceAlpha" type="matrix" values="0 0 0 0 0 0 0 0 0 0 0 0 0 0 0 0 0 0 127 0" result="hardAlpha"/>
<feOffset dx="3" dy="47"/>
<feGaussianBlur stdDeviation="24"/>
<feColorMatrix type="matrix" values="0 0 0 0 0 0 0 0 0 0 0 0 0 0 0 0 0 0 0.09 0"/>
<feBlend mode="normal" in2="effect2_dropShadow_1_849" result="effect3_dropShadow_1_849"/>
<feColorMatrix in="SourceAlpha" type="matrix" values="0 0 0 0 0 0 0 0 0 0 0 0 0 0 0 0 0 0 127 0" result="hardAlpha"/>
<feOffset dx="6" dy="107"/>
<feGaussianBlur stdDeviation="32"/>
<feColorMatrix type="matrix" values="0 0 0 0 0 0 0 0 0 0 0 0 0 0 0 0 0 0 0.05 0"/>
<feBlend mode="normal" in2="effect3_dropShadow_1_849" result="effect4_dropShadow_1_849"/>
<feColorMatrix in="SourceAlpha" type="matrix" values="0 0 0 0 0 0 0 0 0 0 0 0 0 0 0 0 0 0 127 0" result="hardAlpha"/>
<feOffset dx="11" dy="190"/>
<feGaussianBlur stdDeviation="38"/>
<feColorMatrix type="matrix" values="0 0 0 0 0 0 0 0 0 0 0 0 0 0 0 0 0 0 0.01 0"/>
<feBlend mode="normal" in2="effect4_dropShadow_1_849" result="effect5_dropShadow_1_849"/>
<feBlend mode="normal" in="SourceGraphic" in2="effect5_dropShadow_1_849" result="shape"/>
</filter>
<clipPath id="clip0_1_849">
<rect width="284.342" height="243.983" fill="white" transform="translate(0.0128174)"/>
</clipPath>
</defs>
</svg>
