<svg width="285" height="244" viewBox="0 0 285 244" fill="none" xmlns="http://www.w3.org/2000/svg">
<g clip-path="url(#clip0_1_1213)">
<path d="M122.566 91.3279C133.223 85.1754 150.502 85.1754 161.16 91.3279L253.862 144.845C264.52 150.998 264.52 160.973 253.862 167.125L161.16 220.643C150.502 226.795 133.223 226.795 122.566 220.643L29.863 167.126C19.2055 160.973 19.2055 150.998 29.863 144.845L122.566 91.3279Z" fill="#F87400"/>
<path fill-rule="evenodd" clip-rule="evenodd" d="M252.898 157.601L160.195 104.084C150.07 98.2392 133.655 98.2392 123.531 104.084L30.8279 157.601C20.7033 163.446 20.7033 172.923 30.8279 178.768L123.531 232.285C133.655 238.13 150.07 238.13 160.195 232.285L252.898 178.768C263.022 172.923 263.022 163.446 252.898 157.601ZM161.16 103.527C150.502 97.3746 133.223 97.3746 122.566 103.527L29.8631 157.044C19.2056 163.197 19.2056 173.172 29.8631 179.325L122.566 232.842C133.223 238.995 150.502 238.995 161.16 232.842L253.862 179.325C264.52 173.172 264.52 163.197 253.862 157.044L161.16 103.527Z" fill="#F87400"/>
<path d="M123.182 64.1883C133.84 58.0357 151.119 58.0357 161.776 64.1883L254.479 117.706C265.136 123.858 265.136 133.833 254.479 139.986L161.776 193.503C151.119 199.656 133.84 199.656 123.182 193.503L30.4795 139.986C19.8221 133.833 19.8221 123.858 30.4795 117.706L123.182 64.1883Z" fill="#F4610E"/>
<g filter="url(#filter0_ddddd_1_1213)">
<path fill-rule="evenodd" clip-rule="evenodd" d="M253.514 130.462L160.811 76.9447C150.687 71.0998 134.272 71.0998 124.147 76.9447L31.4444 130.462C21.3198 136.307 21.3198 145.783 31.4444 151.628L124.147 205.146C134.272 210.99 150.687 210.99 160.811 205.146L253.514 151.628C263.639 145.783 263.639 136.307 253.514 130.462ZM161.776 76.3877C151.119 70.2352 133.84 70.2352 123.182 76.3877L30.4795 129.905C19.8221 136.058 19.8221 146.033 30.4795 152.185L123.182 205.703C133.84 211.855 151.119 211.855 161.776 205.703L254.479 152.185C265.136 146.033 265.136 136.058 254.479 129.905L161.776 76.3877Z" fill="#F4610E"/>
</g>
<path d="M123.182 38.2806C133.84 32.128 151.119 32.128 161.776 38.2805L254.479 91.7978C265.136 97.9503 265.136 107.926 254.479 114.078L161.776 167.595C151.119 173.748 133.84 173.748 123.182 167.595L30.4795 114.078C19.8221 107.926 19.8221 97.9503 30.4795 91.7978L123.182 38.2806Z" fill="#ED8E59"/>
<path fill-rule="evenodd" clip-rule="evenodd" d="M253.514 104.554L160.811 51.0368C150.687 45.1919 134.272 45.1919 124.147 51.0368L31.4444 104.554C21.3198 110.399 21.3198 119.875 31.4444 125.72L124.147 179.238C134.272 185.083 150.687 185.083 160.811 179.238L253.514 125.72C263.639 119.875 263.639 110.399 253.514 104.554ZM161.776 50.4798C151.119 44.3272 133.84 44.3272 123.182 50.4798L30.4795 103.997C19.8221 110.15 19.8221 120.125 30.4795 126.277L123.182 179.795C133.84 185.947 151.119 185.947 161.776 179.795L254.479 126.277C265.136 120.125 265.136 110.15 254.479 103.997L161.776 50.4798Z" fill="#ED8E59"/>
<path d="M123.183 11.1399C133.84 4.98738 151.119 4.98738 161.777 11.1399L254.479 64.6572C265.137 70.8097 265.137 80.785 254.479 86.9375L161.777 140.455C151.119 146.607 133.84 146.607 123.183 140.455L30.48 86.9375C19.8225 80.785 19.8225 70.8097 30.48 64.6572L123.183 11.1399Z" fill="#F37630"/>
<path fill-rule="evenodd" clip-rule="evenodd" d="M253.514 77.4136L160.812 23.8964C150.687 18.0515 134.272 18.0515 124.147 23.8964L31.4448 77.4136C21.3203 83.2586 21.3203 92.7351 31.4448 98.58L124.147 152.097C134.272 157.942 150.687 157.942 160.812 152.097L253.514 98.58C263.639 92.735 263.639 83.2586 253.514 77.4136ZM161.777 23.3394C151.119 17.1868 133.84 17.1868 123.183 23.3394L30.48 76.8566C19.8225 83.0092 19.8225 92.9844 30.48 99.137L123.183 152.654C133.84 158.807 151.119 158.807 161.777 152.654L254.479 99.137C265.137 92.9844 265.137 83.0092 254.479 76.8566L161.777 23.3394Z" fill="#F37630"/>
<path fill-rule="evenodd" clip-rule="evenodd" d="M105.494 46.688C128.209 37.0439 159.66 37.3845 181.759 47.7097L179.118 49.2342C158.322 39.65 128.876 39.389 107.608 48.451L113.195 48.0549C114.305 47.9762 115.316 48.432 115.452 49.073C115.588 49.714 114.799 50.2974 113.688 50.3762L104.03 51.0609C102.2 51.1907 100.645 50.2932 100.87 49.2365L102.056 43.6608C102.192 43.0198 103.203 42.564 104.313 42.6427C105.424 42.7214 106.213 43.3049 106.077 43.9459L105.494 46.688ZM93.8253 53.122C76.0633 65.7918 75.3595 83.7867 91.7137 96.8786L87.0006 96.5444C85.8902 96.4657 84.8796 96.9215 84.7432 97.5625C84.6069 98.2035 85.3964 98.787 86.5068 98.8657L96.165 99.5504C97.9954 99.6802 99.5501 98.7827 99.3253 97.726L98.1392 92.1503C98.0028 91.5093 96.9922 91.0535 95.8818 91.1322C94.7715 91.2109 93.9819 91.7944 94.1183 92.4354L94.8114 95.6936C79.4191 83.4347 79.9706 66.5758 96.466 54.6465L93.8253 53.122ZM176.729 103.406C155.513 112.2 126.436 111.852 105.841 102.361L103.201 103.886C125.288 114.206 156.718 114.551 179.431 104.922L178.804 107.872C178.667 108.513 179.457 109.097 180.567 109.176C181.678 109.254 182.688 108.798 182.825 108.157L184.011 102.582C184.235 101.525 182.681 100.628 180.85 100.757L171.192 101.442C170.082 101.521 169.292 102.104 169.429 102.745C169.565 103.386 170.576 103.842 171.686 103.763L176.729 103.406ZM191.134 98.4737C208.83 85.8513 209.595 67.9436 193.429 54.8642L197.974 55.1864C199.084 55.2651 200.095 54.8093 200.231 54.1683C200.367 53.5273 199.578 52.9438 198.467 52.8651L188.809 52.1804C186.979 52.0506 185.424 52.9481 185.649 54.0048L186.835 59.5805C186.971 60.2215 187.982 60.6773 189.092 60.5986C190.203 60.5199 190.992 59.9364 190.856 59.2954L190.131 55.8882C205.541 68.1484 204.995 85.0155 188.493 96.9493L191.134 98.4737ZM140.011 62.0792C132.277 62.0792 126.008 65.6986 126.008 70.1632C126.008 74.6279 132.277 78.2473 140.011 78.2473C147.745 78.2473 154.014 74.6279 154.014 70.1632C154.014 65.6986 147.745 62.0792 140.011 62.0792ZM119.526 70.1632C119.526 63.632 128.698 58.3373 140.011 58.3373C151.325 58.3373 160.496 63.632 160.496 70.1632C160.496 76.0568 153.028 80.9434 143.258 81.8415L143.28 94.4124L136.798 94.4162L136.776 81.8425C127 80.9471 119.526 76.059 119.526 70.1632Z" fill="white"/>
</g>
<defs>
<filter id="filter0_ddddd_1_1213" x="-42.5135" y="57.7734" width="391.986" height="418.543" filterUnits="userSpaceOnUse" color-interpolation-filters="sRGB">
<feFlood flood-opacity="0" result="BackgroundImageFix"/>
<feColorMatrix in="SourceAlpha" type="matrix" values="0 0 0 0 0 0 0 0 0 0 0 0 0 0 0 0 0 0 127 0" result="hardAlpha"/>
<feOffset/>
<feColorMatrix type="matrix" values="0 0 0 0 0 0 0 0 0 0 0 0 0 0 0 0 0 0 0.1 0"/>
<feBlend mode="normal" in2="BackgroundImageFix" result="effect1_dropShadow_1_1213"/>
<feColorMatrix in="SourceAlpha" type="matrix" values="0 0 0 0 0 0 0 0 0 0 0 0 0 0 0 0 0 0 127 0" result="hardAlpha"/>
<feOffset dx="1" dy="12"/>
<feGaussianBlur stdDeviation="13"/>
<feColorMatrix type="matrix" values="0 0 0 0 0 0 0 0 0 0 0 0 0 0 0 0 0 0 0.1 0"/>
<feBlend mode="normal" in2="effect1_dropShadow_1_1213" result="effect2_dropShadow_1_1213"/>
<feColorMatrix in="SourceAlpha" type="matrix" values="0 0 0 0 0 0 0 0 0 0 0 0 0 0 0 0 0 0 127 0" result="hardAlpha"/>
<feOffset dx="3" dy="47"/>
<feGaussianBlur stdDeviation="24"/>
<feColorMatrix type="matrix" values="0 0 0 0 0 0 0 0 0 0 0 0 0 0 0 0 0 0 0.09 0"/>
<feBlend mode="normal" in2="effect2_dropShadow_1_1213" result="effect3_dropShadow_1_1213"/>
<feColorMatrix in="SourceAlpha" type="matrix" values="0 0 0 0 0 0 0 0 0 0 0 0 0 0 0 0 0 0 127 0" result="hardAlpha"/>
<feOffset dx="6" dy="107"/>
<feGaussianBlur stdDeviation="32"/>
<feColorMatrix type="matrix" values="0 0 0 0 0 0 0 0 0 0 0 0 0 0 0 0 0 0 0.05 0"/>
<feBlend mode="normal" in2="effect3_dropShadow_1_1213" result="effect4_dropShadow_1_1213"/>
<feColorMatrix in="SourceAlpha" type="matrix" values="0 0 0 0 0 0 0 0 0 0 0 0 0 0 0 0 0 0 127 0" result="hardAlpha"/>
<feOffset dx="11" dy="190"/>
<feGaussianBlur stdDeviation="38"/>
<feColorMatrix type="matrix" values="0 0 0 0 0 0 0 0 0 0 0 0 0 0 0 0 0 0 0.01 0"/>
<feBlend mode="normal" in2="effect4_dropShadow_1_1213" result="effect5_dropShadow_1_1213"/>
<feBlend mode="normal" in="SourceGraphic" in2="effect5_dropShadow_1_1213" result="shape"/>
</filter>
<clipPath id="clip0_1_1213">
<rect width="284.342" height="243.983" fill="white"/>
</clipPath>
</defs>
</svg>
