<svg width="285" height="244" viewBox="0 0 285 244" fill="none" xmlns="http://www.w3.org/2000/svg">
<g clip-path="url(#clip0_1_1315)">
<path d="M122.718 91.3279C133.375 85.1754 150.655 85.1754 161.312 91.3279L254.015 144.845C264.672 150.998 264.672 160.973 254.015 167.125L161.312 220.643C150.655 226.795 133.375 226.795 122.718 220.643L30.0153 167.126C19.3579 160.973 19.3579 150.998 30.0153 144.845L122.718 91.3279Z" fill="#FB8442"/>
<path fill-rule="evenodd" clip-rule="evenodd" d="M253.05 157.601L160.347 104.084C150.223 98.2392 133.808 98.2392 123.683 104.084L30.9803 157.601C20.8557 163.446 20.8557 172.923 30.9803 178.768L123.683 232.285C133.808 238.13 150.223 238.13 160.347 232.285L253.05 178.768C263.175 172.923 263.175 163.446 253.05 157.601ZM161.312 103.527C150.655 97.3746 133.376 97.3746 122.718 103.527L30.0155 157.044C19.358 163.197 19.358 173.172 30.0155 179.325L122.718 232.842C133.376 238.995 150.655 238.995 161.312 232.842L254.015 179.325C264.672 173.172 264.672 163.197 254.015 157.044L161.312 103.527Z" fill="#FB8442"/>
<path d="M123.335 64.1883C133.992 58.0357 151.271 58.0357 161.929 64.1883L254.631 117.706C265.289 123.858 265.289 133.833 254.631 139.986L161.929 193.503C151.271 199.656 133.992 199.656 123.335 193.503L30.6319 139.986C19.9745 133.833 19.9745 123.858 30.6319 117.706L123.335 64.1883Z" fill="#F36515"/>
<g filter="url(#filter0_ddddd_1_1315)">
<path fill-rule="evenodd" clip-rule="evenodd" d="M253.666 130.462L160.964 76.9447C150.839 71.0998 134.424 71.0998 124.299 76.9447L31.5968 130.462C21.4722 136.307 21.4722 145.783 31.5968 151.628L124.299 205.146C134.424 210.99 150.839 210.99 160.964 205.146L253.666 151.628C263.791 145.783 263.791 136.307 253.666 130.462ZM161.929 76.3877C151.271 70.2352 133.992 70.2352 123.335 76.3877L30.6319 129.905C19.9745 136.058 19.9745 146.033 30.6319 152.185L123.335 205.703C133.992 211.855 151.271 211.855 161.929 205.703L254.631 152.185C265.289 146.033 265.289 136.058 254.631 129.905L161.929 76.3877Z" fill="#F36515"/>
</g>
<path d="M123.335 38.2806C133.992 32.128 151.271 32.128 161.929 38.2805L254.631 91.7978C265.289 97.9503 265.289 107.926 254.631 114.078L161.929 167.595C151.271 173.748 133.992 173.748 123.335 167.595L30.6319 114.078C19.9745 107.926 19.9745 97.9503 30.6319 91.7978L123.335 38.2806Z" fill="#ED8E59"/>
<path fill-rule="evenodd" clip-rule="evenodd" d="M253.666 104.554L160.964 51.0368C150.839 45.1919 134.424 45.1919 124.299 51.0368L31.5968 104.554C21.4722 110.399 21.4722 119.875 31.5968 125.72L124.299 179.238C134.424 185.083 150.839 185.083 160.964 179.238L253.666 125.72C263.791 119.875 263.791 110.399 253.666 104.554ZM161.929 50.4798C151.271 44.3272 133.992 44.3272 123.335 50.4798L30.6319 103.997C19.9745 110.15 19.9745 120.125 30.6319 126.277L123.335 179.795C133.992 185.947 151.271 185.947 161.929 179.795L254.631 126.277C265.289 120.125 265.289 110.15 254.631 103.997L161.929 50.4798Z" fill="#ED8E59"/>
<path d="M123.335 11.1399C133.992 4.98738 151.272 4.98738 161.929 11.1399L254.632 64.6572C265.289 70.8097 265.289 80.785 254.632 86.9375L161.929 140.455C151.272 146.607 133.992 146.607 123.335 140.455L30.6323 86.9375C19.9748 80.785 19.9748 70.8097 30.6323 64.6572L123.335 11.1399Z" fill="#F45D3C"/>
<path fill-rule="evenodd" clip-rule="evenodd" d="M253.667 77.4136L160.964 23.8964C150.84 18.0515 134.424 18.0515 124.3 23.8964L31.5971 77.4136C21.4726 83.2586 21.4726 92.7351 31.5971 98.58L124.3 152.097C134.424 157.942 150.84 157.942 160.964 152.097L253.667 98.58C263.791 92.735 263.791 83.2586 253.667 77.4136ZM161.929 23.3394C151.272 17.1868 133.992 17.1868 123.335 23.3394L30.6323 76.8566C19.9748 83.0092 19.9748 92.9844 30.6323 99.137L123.335 152.654C133.992 158.807 151.272 158.807 161.929 152.654L254.632 99.137C265.289 92.9844 265.289 83.0092 254.632 76.8566L161.929 23.3394Z" fill="#F45D3C"/>
<path fill-rule="evenodd" clip-rule="evenodd" d="M131.625 113.657C134.38 115.248 138.847 115.248 141.602 113.657C144.356 112.067 144.356 109.488 141.602 107.898C138.847 106.308 134.38 106.308 131.625 107.898C128.871 109.488 128.871 112.067 131.625 113.657ZM127.931 115.79C132.726 118.559 140.501 118.559 145.296 115.79C150.092 113.022 150.092 108.533 145.296 105.765C140.501 102.997 132.726 102.997 127.931 105.765C123.135 108.533 123.135 113.022 127.931 115.79Z" fill="white"/>
<path fill-rule="evenodd" clip-rule="evenodd" d="M136.429 41.7735C139.184 43.3639 143.65 43.3639 146.405 41.7735C149.16 40.1832 149.16 37.6047 146.405 36.0143C143.65 34.424 139.184 34.424 136.429 36.0143C133.674 37.6047 133.674 40.1832 136.429 41.7735ZM132.734 43.9066C137.529 46.675 145.304 46.675 150.1 43.9066C154.895 41.1382 154.895 36.6497 150.1 33.8813C145.304 31.1129 137.529 31.1129 132.734 33.8813C127.939 36.6497 127.939 41.1382 132.734 43.9066Z" fill="white"/>
<path fill-rule="evenodd" clip-rule="evenodd" d="M111.85 53.9518L127.419 44.9638C127.908 45.3387 128.448 45.6983 129.039 46.0396C129.704 46.4233 130.408 46.7696 131.145 47.0786L115.555 56.0791L115.596 56.1028C115.581 56.1114 114.07 57.0133 113.381 58.2893C112.546 59.8313 113.272 61.2339 115.599 62.5772L131.922 72.0006L130.16 73.0176C129.407 73.4528 128.948 73.9557 128.743 74.4731L111.868 64.731C108.109 62.5606 106.882 59.8997 108.414 57.2391C109.509 55.3358 111.611 54.0858 111.846 53.9498L111.85 53.9518ZM133.13 41.6665L131.167 42.8001C131.615 43.1911 132.137 43.5622 132.734 43.9066C133.405 44.2943 134.135 44.6276 134.907 44.9067L136.825 43.7996L133.13 41.6665ZM135.071 78.1263L156.741 90.6359C159.068 91.9793 159.793 93.3819 158.959 94.9239C158.269 96.1998 156.759 97.1017 156.754 97.1046L156.784 97.1219L147.127 102.696C147.777 102.979 148.4 103.291 148.991 103.632C149.656 104.015 150.255 104.422 150.791 104.848L160.478 99.255L160.493 99.2634C160.729 99.1274 162.83 97.8774 163.925 95.9741C165.457 93.3135 164.231 90.6525 160.471 88.4822L142.056 77.8508L135.071 78.1263ZM147.029 107.02C146.545 106.574 145.968 106.153 145.296 105.765C144.7 105.42 144.057 105.119 143.379 104.86L142.736 105.231L146.431 107.364L147.029 107.02Z" fill="white"/>
<path fill-rule="evenodd" clip-rule="evenodd" d="M151.499 55.2023C154.356 53.5531 158.988 53.5531 161.845 55.2023L186.094 69.2013C188.951 70.8505 188.951 73.5245 186.094 75.1738L170.943 83.9201C168.086 85.5693 163.455 85.5693 160.598 83.9201L147.12 76.1392L134.034 76.6553C131.625 76.7503 130.301 75.0697 132.008 74.084L137.784 70.7497L136.349 69.9211C133.492 68.2719 133.492 65.5979 136.349 63.9486L151.499 55.2023ZM158.889 56.9088C157.664 56.2019 155.679 56.2019 154.455 56.9088L139.305 65.655C138.08 66.3619 138.08 67.5079 139.305 68.2147L141.479 69.4699C142.703 70.1767 142.703 71.3227 141.479 72.0295L137.922 74.0831L147.309 73.7128C148.213 73.6772 149.099 73.869 149.739 74.2387L163.554 82.2136C164.778 82.9205 166.763 82.9205 167.987 82.2136L183.138 73.4673C184.362 72.7605 184.362 71.6145 183.138 70.9077L158.889 56.9088Z" fill="white"/>
<path fill-rule="evenodd" clip-rule="evenodd" d="M168.451 65.3155C169.267 65.7867 169.267 66.5507 168.451 67.0219L161.505 71.0317C160.689 71.5029 159.365 71.5029 158.549 71.0317C157.733 70.5605 157.733 69.7965 158.549 69.3252L165.495 65.3155C166.311 64.8443 167.634 64.8443 168.451 65.3155Z" fill="white"/>
<path d="M157.131 73.5755C156.306 74.0519 154.968 74.0519 154.143 73.5755C153.317 73.0991 153.317 72.3268 154.143 71.8504C154.968 71.374 156.306 71.374 157.131 71.8504C157.956 72.3268 157.956 73.0991 157.131 73.5755Z" fill="white"/>
</g>
<defs>
<filter id="filter0_ddddd_1_1315" x="-42.3612" y="57.7734" width="391.986" height="418.543" filterUnits="userSpaceOnUse" color-interpolation-filters="sRGB">
<feFlood flood-opacity="0" result="BackgroundImageFix"/>
<feColorMatrix in="SourceAlpha" type="matrix" values="0 0 0 0 0 0 0 0 0 0 0 0 0 0 0 0 0 0 127 0" result="hardAlpha"/>
<feOffset/>
<feColorMatrix type="matrix" values="0 0 0 0 0 0 0 0 0 0 0 0 0 0 0 0 0 0 0.1 0"/>
<feBlend mode="normal" in2="BackgroundImageFix" result="effect1_dropShadow_1_1315"/>
<feColorMatrix in="SourceAlpha" type="matrix" values="0 0 0 0 0 0 0 0 0 0 0 0 0 0 0 0 0 0 127 0" result="hardAlpha"/>
<feOffset dx="1" dy="12"/>
<feGaussianBlur stdDeviation="13"/>
<feColorMatrix type="matrix" values="0 0 0 0 0 0 0 0 0 0 0 0 0 0 0 0 0 0 0.1 0"/>
<feBlend mode="normal" in2="effect1_dropShadow_1_1315" result="effect2_dropShadow_1_1315"/>
<feColorMatrix in="SourceAlpha" type="matrix" values="0 0 0 0 0 0 0 0 0 0 0 0 0 0 0 0 0 0 127 0" result="hardAlpha"/>
<feOffset dx="3" dy="47"/>
<feGaussianBlur stdDeviation="24"/>
<feColorMatrix type="matrix" values="0 0 0 0 0 0 0 0 0 0 0 0 0 0 0 0 0 0 0.09 0"/>
<feBlend mode="normal" in2="effect2_dropShadow_1_1315" result="effect3_dropShadow_1_1315"/>
<feColorMatrix in="SourceAlpha" type="matrix" values="0 0 0 0 0 0 0 0 0 0 0 0 0 0 0 0 0 0 127 0" result="hardAlpha"/>
<feOffset dx="6" dy="107"/>
<feGaussianBlur stdDeviation="32"/>
<feColorMatrix type="matrix" values="0 0 0 0 0 0 0 0 0 0 0 0 0 0 0 0 0 0 0.05 0"/>
<feBlend mode="normal" in2="effect3_dropShadow_1_1315" result="effect4_dropShadow_1_1315"/>
<feColorMatrix in="SourceAlpha" type="matrix" values="0 0 0 0 0 0 0 0 0 0 0 0 0 0 0 0 0 0 127 0" result="hardAlpha"/>
<feOffset dx="11" dy="190"/>
<feGaussianBlur stdDeviation="38"/>
<feColorMatrix type="matrix" values="0 0 0 0 0 0 0 0 0 0 0 0 0 0 0 0 0 0 0.01 0"/>
<feBlend mode="normal" in2="effect4_dropShadow_1_1315" result="effect5_dropShadow_1_1315"/>
<feBlend mode="normal" in="SourceGraphic" in2="effect5_dropShadow_1_1315" result="shape"/>
</filter>
<clipPath id="clip0_1_1315">
<rect width="284.342" height="243.983" fill="white" transform="translate(0.152344)"/>
</clipPath>
</defs>
</svg>
