<svg width="605" height="340" xmlns="http://www.w3.org/2000/svg" xmlns:xlink="http://www.w3.org/1999/xlink" xml:space="preserve" overflow="hidden"><defs><clipPath id="clip0"><rect x="0" y="0" width="605" height="340"/></clipPath><clipPath id="clip1"><rect x="0" y="0" width="605" height="340"/></clipPath></defs><g clip-path="url(#clip0)"><g clip-path="url(#clip1)"><path d="M0 0 604.444 0 604.444 339.989 0 339.989Z" fill="#FFFFFF" fill-rule="nonzero" fill-opacity="1" transform="scale(1.00092 1)"/><path d="M15.7274 11.7849 15.7274 9.60849C15.7336 9.40956 15.5774 9.2473 15.3785 9.24117 15.302 9.24117 15.2285 9.25957 15.1673 9.30242L6.52913 15.2775C5.85266 15.7458 4.9221 15.5774 4.45377 14.8979 4.28235 14.65 4.19052 14.3531 4.19052 14.0531L4.19052 11.1727C4.19358 10.1932 4.67724 9.27793 5.48533 8.72389L8.05352 6.94847C8.45756 6.67298 8.69326 6.21385 8.69019 5.7241L8.69019 1.73559C8.69633 1.53662 8.54327 1.37133 8.34429 1.36521 8.26779 1.36521 8.19124 1.38358 8.12696 1.42949L6.32712 2.6845C5.9261 2.96305 5.68734 3.42221 5.6904 3.90891L5.6904 4.95579 3.48649 6.48627C2.06006 7.46885 1.20604 9.08815 1.19992 10.8207L1.19992 14.047C1.19685 16.5233 3.20182 18.5344 5.67818 18.5375 6.59341 18.5375 7.48721 18.2589 8.24023 17.7386L15.0908 13.0093C15.4917 12.7307 15.7305 12.2716 15.7274 11.7849Z" fill="#FFA600" fill-rule="nonzero" fill-opacity="1" transform="matrix(1 0 0 1.00559 568.868 16.3698)"/><path d="M13.1777 5.23434 6.32099 9.96666C5.91694 10.2452 5.67818 10.7013 5.68124 11.191L5.68124 13.3674C5.67818 13.5664 5.83733 13.7317 6.0363 13.7348 6.10979 13.7348 6.18323 13.7133 6.24444 13.6735L14.8826 7.69539C15.5591 7.22702 16.4897 7.39541 16.958 8.07494 17.1294 8.32287 17.2212 8.61978 17.2212 8.91976L17.2212 11.7849C17.2212 12.7644 16.7376 13.6766 15.9325 14.2337L13.6368 15.8193 13.3735 15.9999C12.9725 16.2785 12.7338 16.7345 12.7368 17.2243L12.7368 21.2189C12.7307 21.4179 12.8838 21.5832 13.0827 21.5893 13.1593 21.5893 13.2358 21.5709 13.3001 21.525L15.103 20.2822C15.504 20.0037 15.7428 19.5445 15.7397 19.0578L15.7397 18.0232 17.9375 16.4927C19.37 15.504 20.2241 13.8755 20.2241 12.1369L20.2241 8.92283C20.2271 6.44649 18.2252 4.43541 15.7489 4.42927 14.8306 4.42927 13.9337 4.70782 13.1777 5.23434Z" fill="#B3CB2D" fill-rule="nonzero" fill-opacity="1" transform="matrix(1 0 0 1.00559 568.868 16.3698)"/><path d="M106.198 47.4304 456.691 47.4304 456.691 153.625 106.198 153.625Z" fill="#F6F6F6" fill-rule="nonzero" fill-opacity="1" transform="scale(1.00092 1)"/><path d="M106.198 159.501 456.691 159.501 456.691 295.497 106.198 295.497Z" fill="#F6F6F6" fill-rule="nonzero" fill-opacity="1" transform="scale(1.00092 1)"/><path d="M460.889 47.4304 598.568 47.4304 598.568 295.497 460.889 295.497Z" fill="#F6F6F6" fill-rule="nonzero" fill-opacity="1" transform="scale(1.00092 1)"/><path d="M6.2963 47.8502 91.9259 47.8502 91.9259 295.916 6.2963 295.916Z" fill="#F6F6F6" fill-rule="nonzero" fill-opacity="1" transform="scale(1.00092 1)"/><text fill="#242424" fill-opacity="1" font-family="Calibri,Calibri_MSFontService,sans-serif" font-style="normal" font-variant="normal" font-weight="700" font-stretch="normal" font-size="42" text-anchor="start" direction="ltr" writing-mode="lr-tb" unicode-bidi="normal" text-decoration="none" transform="matrix(0.420139 0 0 0.41974 23.0292 31)">Architecture Overview (Assumption: 100% on premise operation)</text><text fill="#000000" fill-opacity="1" font-family="Arial,Arial_MSFontService,sans-serif" font-style="normal" font-variant="normal" font-weight="400" font-stretch="normal" font-size="20" text-anchor="start" direction="ltr" writing-mode="lr-tb" unicode-bidi="normal" text-decoration="none" transform="matrix(0.420139 0 0 0.41974 113.587 143)">Certificate</text><text fill="#000000" fill-opacity="1" font-family="Arial,Arial_MSFontService,sans-serif" font-style="normal" font-variant="normal" font-weight="400" font-stretch="normal" font-size="20" text-anchor="start" direction="ltr" writing-mode="lr-tb" unicode-bidi="normal" text-decoration="none" transform="matrix(0.420139 0 0 0.41974 121.03 153)">Issuer</text><text fill="#000000" fill-opacity="1" font-family="Arial,Arial_MSFontService,sans-serif" font-style="normal" font-variant="normal" font-weight="400" font-stretch="normal" font-size="20" text-anchor="start" direction="ltr" writing-mode="lr-tb" unicode-bidi="normal" text-decoration="none" transform="matrix(0.420139 0 0 0.41974 543.593 282)">Certificate</text><text fill="#000000" fill-opacity="1" font-family="Arial,Arial_MSFontService,sans-serif" font-style="normal" font-variant="normal" font-weight="400" font-stretch="normal" font-size="20" text-anchor="start" direction="ltr" writing-mode="lr-tb" unicode-bidi="normal" text-decoration="none" transform="matrix(0.420139 0 0 0.41974 526.606 292)">Receiver/Customer</text><path d="M255 102.626 312.086 102.626 312.086 122.774 255 122.774Z" stroke="#000000" stroke-width="0.524842" stroke-linecap="butt" stroke-linejoin="round" stroke-miterlimit="10" stroke-opacity="1" fill="#FFFFFF" fill-rule="nonzero" fill-opacity="1" transform="scale(1.00092 1)"/><text fill="#000000" fill-opacity="1" font-family="Arial,Arial_MSFontService,sans-serif" font-style="normal" font-variant="normal" font-weight="400" font-stretch="normal" font-size="20" text-anchor="start" direction="ltr" writing-mode="lr-tb" unicode-bidi="normal" text-decoration="none" transform="matrix(0.420139 0 0 0.41974 271.748 115)">E</text><text fill="#000000" fill-opacity="1" font-family="Arial,Arial_MSFontService,sans-serif" font-style="normal" font-variant="normal" font-weight="400" font-stretch="normal" font-size="20" text-anchor="start" direction="ltr" writing-mode="lr-tb" unicode-bidi="normal" text-decoration="none" transform="matrix(0.420139 0 0 0.41974 277.351 115)">-</text><text fill="#000000" fill-opacity="1" font-family="Arial,Arial_MSFontService,sans-serif" font-style="normal" font-variant="normal" font-weight="400" font-stretch="normal" font-size="20" text-anchor="start" direction="ltr" writing-mode="lr-tb" unicode-bidi="normal" text-decoration="none" transform="matrix(0.420139 0 0 0.41974 280.153 115)">Mail</text><text fill="#000000" fill-opacity="1" font-family="Arial,Arial_MSFontService,sans-serif" font-style="normal" font-variant="normal" font-weight="400" font-stretch="normal" font-size="20" text-anchor="start" direction="ltr" writing-mode="lr-tb" unicode-bidi="normal" text-decoration="none" transform="matrix(0.420139 0 0 0.41974 347.545 282)">Certificate Provider/Receiver</text><text fill="#000000" fill-opacity="1" font-family="Arial,Arial_MSFontService,sans-serif" font-style="normal" font-variant="normal" font-weight="400" font-stretch="normal" font-size="20" text-anchor="start" direction="ltr" writing-mode="lr-tb" unicode-bidi="normal" text-decoration="none" transform="matrix(0.420139 0 0 0.41974 370.991 292)">(Tier 1 Supplier)</text><path d="M243.667 222.252 325.938 222.252 325.938 293.608 243.667 293.608Z" stroke="#000000" stroke-width="0.524842" stroke-linecap="butt" stroke-linejoin="round" stroke-miterlimit="10" stroke-opacity="1" fill="#FFFFFF" fill-rule="nonzero" fill-opacity="1" transform="scale(1.00092 1)"/><text fill="#000000" fill-opacity="1" font-family="Arial,Arial_MSFontService,sans-serif" font-style="normal" font-variant="normal" font-weight="400" font-stretch="normal" font-size="20" text-anchor="start" direction="ltr" writing-mode="lr-tb" unicode-bidi="normal" text-decoration="none" transform="matrix(0.420139 0 0 0.41974 276.141 233)">EDC</text><path d="M255.839 239.531C255.839 237.638 257.374 236.104 259.268 236.104L308.658 236.104C310.552 236.104 312.086 237.638 312.086 239.531L312.086 253.243C312.086 255.136 310.552 256.671 308.658 256.671L259.268 256.671C257.374 256.671 255.839 255.136 255.839 253.243Z" stroke="#000000" stroke-width="0.174948" stroke-linecap="butt" stroke-linejoin="miter" stroke-miterlimit="8" stroke-opacity="1" fill="#FFFFFF" fill-rule="evenodd" fill-opacity="1" transform="scale(1.00092 1)"/><text fill="#000000" fill-opacity="1" font-family="Arial,Arial_MSFontService,sans-serif" font-style="normal" font-variant="normal" font-weight="400" font-stretch="normal" font-size="13" text-anchor="start" direction="ltr" writing-mode="lr-tb" unicode-bidi="normal" text-decoration="none" transform="matrix(0.420139 0 0 0.41974 272.571 241)">Connector</text><text fill="#000000" fill-opacity="1" font-family="Arial,Arial_MSFontService,sans-serif" font-style="normal" font-variant="normal" font-weight="400" font-stretch="normal" font-size="13" text-anchor="start" direction="ltr" writing-mode="lr-tb" unicode-bidi="normal" text-decoration="none" transform="matrix(0.420139 0 0 0.41974 263.64 248)">(</text><text fill="#000000" fill-opacity="1" font-family="Arial,Arial_MSFontService,sans-serif" font-style="normal" font-variant="normal" font-weight="400" font-stretch="normal" font-size="13" text-anchor="start" direction="ltr" writing-mode="lr-tb" unicode-bidi="normal" text-decoration="none" transform="matrix(0.420139 0 0 0.41974 265.479 248)">contains</text><text fill="#000000" fill-opacity="1" font-family="Arial,Arial_MSFontService,sans-serif" font-style="normal" font-variant="normal" font-weight="400" font-stretch="normal" font-size="13" text-anchor="start" direction="ltr" writing-mode="lr-tb" unicode-bidi="normal" text-decoration="none" transform="matrix(0.420139 0 0 0.41974 288.068 248)">Catalog</text><text fill="#000000" fill-opacity="1" font-family="Arial,Arial_MSFontService,sans-serif" font-style="normal" font-variant="normal" font-weight="400" font-stretch="normal" font-size="13" text-anchor="start" direction="ltr" writing-mode="lr-tb" unicode-bidi="normal" text-decoration="none" transform="matrix(0.420139 0 0 0.41974 276.381 255)">Server)</text><path d="M256.679 269.753C256.679 267.86 258.214 266.325 260.107 266.325L309.918 266.325C311.811 266.325 313.346 267.86 313.346 269.753L313.346 283.464C313.346 285.357 311.811 286.892 309.918 286.892L260.107 286.892C258.214 286.892 256.679 285.357 256.679 283.464Z" stroke="#000000" stroke-width="0.174948" stroke-linecap="butt" stroke-linejoin="miter" stroke-miterlimit="8" stroke-opacity="1" fill="#FFFFFF" fill-rule="evenodd" fill-opacity="1" transform="scale(1.00092 1)"/><text fill="#000000" fill-opacity="1" font-family="Arial,Arial_MSFontService,sans-serif" font-style="normal" font-variant="normal" font-weight="400" font-stretch="normal" font-size="13" text-anchor="start" direction="ltr" writing-mode="lr-tb" unicode-bidi="normal" text-decoration="none" transform="matrix(0.420139 0 0 0.41974 268.827 272)">Digital Identity</text><text fill="#000000" fill-opacity="1" font-family="Arial,Arial_MSFontService,sans-serif" font-style="normal" font-variant="normal" font-weight="400" font-stretch="normal" font-size="13" text-anchor="start" direction="ltr" writing-mode="lr-tb" unicode-bidi="normal" text-decoration="none" transform="matrix(0.420139 0 0 0.41974 268.039 279)">Wallet/ Identity</text><text fill="#000000" fill-opacity="1" font-family="Arial,Arial_MSFontService,sans-serif" font-style="normal" font-variant="normal" font-weight="400" font-stretch="normal" font-size="13" text-anchor="start" direction="ltr" writing-mode="lr-tb" unicode-bidi="normal" text-decoration="none" transform="matrix(0.420139 0 0 0.41974 281.347 285)">Hub</text><text fill="#000000" fill-opacity="1" font-family="Arial,Arial_MSFontService,sans-serif" font-style="normal" font-variant="normal" font-weight="400" font-stretch="normal" font-size="20" text-anchor="start" direction="ltr" writing-mode="lr-tb" unicode-bidi="normal" text-decoration="none" transform="matrix(0.420139 0 0 0.41974 29.4172 272)">Certificate</text><text fill="#000000" fill-opacity="1" font-family="Arial,Arial_MSFontService,sans-serif" font-style="normal" font-variant="normal" font-weight="400" font-stretch="normal" font-size="20" text-anchor="start" direction="ltr" writing-mode="lr-tb" unicode-bidi="normal" text-decoration="none" transform="matrix(0.420139 0 0 0.41974 15.0127 282)">Provider/Receiver</text><text fill="#000000" fill-opacity="1" font-family="Arial,Arial_MSFontService,sans-serif" font-style="normal" font-variant="normal" font-weight="400" font-stretch="normal" font-size="20" text-anchor="start" direction="ltr" writing-mode="lr-tb" unicode-bidi="normal" text-decoration="none" transform="matrix(0.420139 0 0 0.41974 18.4099 292)">(Tier 2 Supplier)</text><path d="M113.963 166.427 228.556 166.427 228.556 189.093 113.963 189.093Z" stroke="#000000" stroke-width="0.524842" stroke-linecap="butt" stroke-linejoin="round" stroke-miterlimit="10" stroke-opacity="1" fill="#FFFFFF" fill-rule="nonzero" fill-opacity="1" transform="scale(1.00092 1)"/><text fill="#000000" fill-opacity="1" font-family="Arial,Arial_MSFontService,sans-serif" font-style="normal" font-variant="normal" font-weight="400" font-stretch="normal" font-size="20" text-anchor="start" direction="ltr" writing-mode="lr-tb" unicode-bidi="normal" text-decoration="none" transform="matrix(0.420139 0 0 0.41974 131.817 175)">Supplier Relationship</text><text fill="#000000" fill-opacity="1" font-family="Arial,Arial_MSFontService,sans-serif" font-style="normal" font-variant="normal" font-weight="400" font-stretch="normal" font-size="20" text-anchor="start" direction="ltr" writing-mode="lr-tb" unicode-bidi="normal" text-decoration="none" transform="matrix(0.420139 0 0 0.41974 131.688 186)">Management</text><text fill="#000000" fill-opacity="1" font-family="Arial,Arial_MSFontService,sans-serif" font-style="normal" font-variant="normal" font-weight="400" font-stretch="normal" font-size="20" text-anchor="start" direction="ltr" writing-mode="lr-tb" unicode-bidi="normal" text-decoration="none" transform="matrix(0.420139 0 0 0.41974 182.907 186)">System</text><path d="M351.543 176.081 455.222 176.081 455.222 198.747 351.543 198.747Z" stroke="#000000" stroke-width="0.524842" stroke-linecap="butt" stroke-linejoin="round" stroke-miterlimit="10" stroke-opacity="1" fill="#FFFFFF" fill-rule="nonzero" fill-opacity="1" transform="scale(1.00092 1)"/><text fill="#000000" fill-opacity="1" font-family="Arial,Arial_MSFontService,sans-serif" font-style="normal" font-variant="normal" font-weight="400" font-stretch="normal" font-size="20" text-anchor="start" direction="ltr" writing-mode="lr-tb" unicode-bidi="normal" text-decoration="none" transform="matrix(0.420139 0 0 0.41974 365.602 185)">Company</text><text fill="#000000" fill-opacity="1" font-family="Arial,Arial_MSFontService,sans-serif" font-style="normal" font-variant="normal" font-weight="400" font-stretch="normal" font-size="20" text-anchor="start" direction="ltr" writing-mode="lr-tb" unicode-bidi="normal" text-decoration="none" transform="matrix(0.420139 0 0 0.41974 403.775 185)">Certificate</text><text fill="#000000" fill-opacity="1" font-family="Arial,Arial_MSFontService,sans-serif" font-style="normal" font-variant="normal" font-weight="400" font-stretch="normal" font-size="20" text-anchor="start" direction="ltr" writing-mode="lr-tb" unicode-bidi="normal" text-decoration="none" transform="matrix(0.420139 0 0 0.41974 363.938 195)">Management</text><text fill="#000000" fill-opacity="1" font-family="Arial,Arial_MSFontService,sans-serif" font-style="normal" font-variant="normal" font-weight="400" font-stretch="normal" font-size="20" text-anchor="start" direction="ltr" writing-mode="lr-tb" unicode-bidi="normal" text-decoration="none" transform="matrix(0.420139 0 0 0.41974 415.157 195)">System</text><path d="M318.802 69.0473 364.136 69.0473 364.136 122.354 318.802 122.354Z" stroke="#000000" stroke-width="0.524842" stroke-linecap="butt" stroke-linejoin="round" stroke-miterlimit="10" stroke-opacity="1" fill="#FFFFFF" fill-rule="nonzero" fill-opacity="1" transform="scale(1.00092 1)"/><text fill="#000000" fill-opacity="1" font-family="Arial,Arial_MSFontService,sans-serif" font-style="normal" font-variant="normal" font-weight="400" font-stretch="normal" font-size="20" text-anchor="start" direction="ltr" writing-mode="lr-tb" unicode-bidi="normal" text-decoration="none" transform="matrix(0.420139 0 0 0.41974 324.112 93)">Authentic</text><text fill="#000000" fill-opacity="1" font-family="Arial,Arial_MSFontService,sans-serif" font-style="normal" font-variant="normal" font-weight="400" font-stretch="normal" font-size="20" text-anchor="start" direction="ltr" writing-mode="lr-tb" unicode-bidi="normal" text-decoration="none" transform="matrix(0.420139 0 0 0.41974 328.315 103)">Source</text><path d="M255 69.467 311.667 69.467 311.667 97.5896 255 97.5896Z" stroke="#000000" stroke-width="0.524842" stroke-linecap="butt" stroke-linejoin="round" stroke-miterlimit="10" stroke-opacity="1" fill="#FFFFFF" fill-rule="nonzero" fill-opacity="1" transform="scale(1.00092 1)"/><text fill="#000000" fill-opacity="1" font-family="Arial,Arial_MSFontService,sans-serif" font-style="normal" font-variant="normal" font-weight="400" font-stretch="normal" font-size="20" text-anchor="start" direction="ltr" writing-mode="lr-tb" unicode-bidi="normal" text-decoration="none" transform="matrix(0.420139 0 0 0.41974 269.358 76)">Internal</text><text fill="#000000" fill-opacity="1" font-family="Arial,Arial_MSFontService,sans-serif" font-style="normal" font-variant="normal" font-weight="400" font-stretch="normal" font-size="20" text-anchor="start" direction="ltr" writing-mode="lr-tb" unicode-bidi="normal" text-decoration="none" transform="matrix(0.420139 0 0 0.41974 270.058 86)">Issuing</text><text fill="#000000" fill-opacity="1" font-family="Arial,Arial_MSFontService,sans-serif" font-style="normal" font-variant="normal" font-weight="400" font-stretch="normal" font-size="20" text-anchor="start" direction="ltr" writing-mode="lr-tb" unicode-bidi="normal" text-decoration="none" transform="matrix(0.420139 0 0 0.41974 269.312 96)">System</text><path d="M3.49886-0.69977 69.7046-0.69977 69.7046 69.0108 68.3052 69.0108 68.3052 0 69.0049 0.69977 3.49886 0.69977ZM4.19862 2.09931 0 0 4.19862-2.09931ZM71.1045 68.311 69.0049 72.5098 66.9057 68.311Z" fill="#000000" fill-rule="nonzero" fill-opacity="1" transform="matrix(1.83872e-16 1 1.00095 -1.83697e-16 171.627 189.093)"/><path d="M404.04 202.245 404.04 258.7 329.437 258.7 329.437 257.3 403.34 257.3 402.641 258 402.641 202.245ZM401.241 202.945 403.34 198.747 405.44 202.945ZM330.137 260.099 325.938 258 330.137 255.901Z" fill="#000000" fill-rule="nonzero" fill-opacity="1" transform="scale(1.00092 1)"/><path d="M255 165.167 312.086 165.167 312.086 184.056 255 184.056Z" stroke="#000000" stroke-width="0.524842" stroke-linecap="butt" stroke-linejoin="round" stroke-miterlimit="10" stroke-opacity="1" fill="#FFFFFF" fill-rule="nonzero" fill-opacity="1" transform="scale(1.00092 1)"/><text fill="#000000" fill-opacity="1" font-family="Arial,Arial_MSFontService,sans-serif" font-style="normal" font-variant="normal" font-weight="400" font-stretch="normal" font-size="20" text-anchor="start" direction="ltr" writing-mode="lr-tb" unicode-bidi="normal" text-decoration="none" transform="matrix(0.420139 0 0 0.41974 271.706 177)">E</text><text fill="#000000" fill-opacity="1" font-family="Arial,Arial_MSFontService,sans-serif" font-style="normal" font-variant="normal" font-weight="400" font-stretch="normal" font-size="20" text-anchor="start" direction="ltr" writing-mode="lr-tb" unicode-bidi="normal" text-decoration="none" transform="matrix(0.420139 0 0 0.41974 277.31 177)">-</text><text fill="#000000" fill-opacity="1" font-family="Arial,Arial_MSFontService,sans-serif" font-style="normal" font-variant="normal" font-weight="400" font-stretch="normal" font-size="20" text-anchor="start" direction="ltr" writing-mode="lr-tb" unicode-bidi="normal" text-decoration="none" transform="matrix(0.420139 0 0 0.41974 280.111 177)">Mail</text><path d="M244.086 196.648 325.938 196.648 325.938 215.536 244.086 215.536Z" stroke="#000000" stroke-width="0.524842" stroke-linecap="butt" stroke-linejoin="round" stroke-miterlimit="10" stroke-opacity="1" fill="#FFFFFF" fill-rule="nonzero" fill-opacity="1" transform="scale(1.00092 1)"/><text fill="#000000" fill-opacity="1" font-family="Arial,Arial_MSFontService,sans-serif" font-style="normal" font-variant="normal" font-weight="400" font-stretch="normal" font-size="20" text-anchor="start" direction="ltr" writing-mode="lr-tb" unicode-bidi="normal" text-decoration="none" transform="matrix(0.420139 0 0 0.41974 252.828 204)">Internal own</text><text fill="#000000" fill-opacity="1" font-family="Arial,Arial_MSFontService,sans-serif" font-style="normal" font-variant="normal" font-weight="400" font-stretch="normal" font-size="20" text-anchor="start" direction="ltr" writing-mode="lr-tb" unicode-bidi="normal" text-decoration="none" transform="matrix(0.420139 0 0 0.41974 300.808 204)">cert</text><text fill="#000000" fill-opacity="1" font-family="Arial,Arial_MSFontService,sans-serif" font-style="normal" font-variant="normal" font-weight="400" font-stretch="normal" font-size="20" text-anchor="start" direction="ltr" writing-mode="lr-tb" unicode-bidi="normal" text-decoration="none" transform="matrix(0.420139 0 0 0.41974 314.817 204)">.</text><text fill="#000000" fill-opacity="1" font-family="Arial,Arial_MSFontService,sans-serif" font-style="normal" font-variant="normal" font-weight="400" font-stretch="normal" font-size="20" text-anchor="start" direction="ltr" writing-mode="lr-tb" unicode-bidi="normal" text-decoration="none" transform="matrix(0.420139 0 0 0.41974 256.548 214)">s</text><text fill="#000000" fill-opacity="1" font-family="Arial,Arial_MSFontService,sans-serif" font-style="normal" font-variant="normal" font-weight="400" font-stretch="normal" font-size="20" text-anchor="start" direction="ltr" writing-mode="lr-tb" unicode-bidi="normal" text-decoration="none" transform="matrix(0.420139 0 0 0.41974 260.75 214)">torage</text><text fill="#000000" fill-opacity="1" font-family="Arial,Arial_MSFontService,sans-serif" font-style="normal" font-variant="normal" font-weight="400" font-stretch="normal" font-size="20" text-anchor="start" direction="ltr" writing-mode="lr-tb" unicode-bidi="normal" text-decoration="none" transform="matrix(0.420139 0 0 0.41974 286.841 214)">system</text><path d="M7.76543 186.155 90.037 186.155 90.037 257.93 7.76543 257.93Z" stroke="#000000" stroke-width="0.524842" stroke-linecap="butt" stroke-linejoin="round" stroke-miterlimit="10" stroke-opacity="1" fill="#FFFFFF" fill-rule="nonzero" fill-opacity="1" transform="scale(1.00092 1)"/><text fill="#000000" fill-opacity="1" font-family="Arial,Arial_MSFontService,sans-serif" font-style="normal" font-variant="normal" font-weight="400" font-stretch="normal" font-size="20" text-anchor="start" direction="ltr" writing-mode="lr-tb" unicode-bidi="normal" text-decoration="none" transform="matrix(0.420139 0 0 0.41974 39.9261 196)">EDC</text><path d="M19.9383 203.854C19.9383 201.96 21.473 200.426 23.3663 200.426L72.7571 200.426C74.6506 200.426 76.1852 201.96 76.1852 203.854L76.1852 217.565C76.1852 219.458 74.6506 220.993 72.7571 220.993L23.3663 220.993C21.473 220.993 19.9383 219.458 19.9383 217.565Z" stroke="#000000" stroke-width="0.174948" stroke-linecap="butt" stroke-linejoin="miter" stroke-miterlimit="8" stroke-opacity="1" fill="#FFFFFF" fill-rule="evenodd" fill-opacity="1" transform="scale(1.00092 1)"/><text fill="#000000" fill-opacity="1" font-family="Arial,Arial_MSFontService,sans-serif" font-style="normal" font-variant="normal" font-weight="400" font-stretch="normal" font-size="13" text-anchor="start" direction="ltr" writing-mode="lr-tb" unicode-bidi="normal" text-decoration="none" transform="matrix(0.420139 0 0 0.41974 36.3556 206)">Connector</text><text fill="#000000" fill-opacity="1" font-family="Arial,Arial_MSFontService,sans-serif" font-style="normal" font-variant="normal" font-weight="400" font-stretch="normal" font-size="13" text-anchor="start" direction="ltr" writing-mode="lr-tb" unicode-bidi="normal" text-decoration="none" transform="matrix(0.420139 0 0 0.41974 27.4251 212)">(</text><text fill="#000000" fill-opacity="1" font-family="Arial,Arial_MSFontService,sans-serif" font-style="normal" font-variant="normal" font-weight="400" font-stretch="normal" font-size="13" text-anchor="start" direction="ltr" writing-mode="lr-tb" unicode-bidi="normal" text-decoration="none" transform="matrix(0.420139 0 0 0.41974 29.2637 212)">contains</text><text fill="#000000" fill-opacity="1" font-family="Arial,Arial_MSFontService,sans-serif" font-style="normal" font-variant="normal" font-weight="400" font-stretch="normal" font-size="13" text-anchor="start" direction="ltr" writing-mode="lr-tb" unicode-bidi="normal" text-decoration="none" transform="matrix(0.420139 0 0 0.41974 51.8527 212)">Catalog</text><text fill="#000000" fill-opacity="1" font-family="Arial,Arial_MSFontService,sans-serif" font-style="normal" font-variant="normal" font-weight="400" font-stretch="normal" font-size="13" text-anchor="start" direction="ltr" writing-mode="lr-tb" unicode-bidi="normal" text-decoration="none" transform="matrix(0.420139 0 0 0.41974 40.166 219)">Server)</text><path d="M20.7778 234.075C20.7778 232.182 22.3126 230.647 24.2058 230.647L73.5966 230.647C75.4901 230.647 77.0247 232.182 77.0247 234.075L77.0247 247.786C77.0247 249.679 75.4901 251.214 73.5966 251.214L24.2058 251.214C22.3126 251.214 20.7778 249.679 20.7778 247.786Z" stroke="#000000" stroke-width="0.174948" stroke-linecap="butt" stroke-linejoin="miter" stroke-miterlimit="8" stroke-opacity="1" fill="#FFFFFF" fill-rule="evenodd" fill-opacity="1" transform="scale(1.00092 1)"/><text fill="#000000" fill-opacity="1" font-family="Arial,Arial_MSFontService,sans-serif" font-style="normal" font-variant="normal" font-weight="400" font-stretch="normal" font-size="13" text-anchor="start" direction="ltr" writing-mode="lr-tb" unicode-bidi="normal" text-decoration="none" transform="matrix(0.420139 0 0 0.41974 32.6119 236)">Digital Identity</text><text fill="#000000" fill-opacity="1" font-family="Arial,Arial_MSFontService,sans-serif" font-style="normal" font-variant="normal" font-weight="400" font-stretch="normal" font-size="13" text-anchor="start" direction="ltr" writing-mode="lr-tb" unicode-bidi="normal" text-decoration="none" transform="matrix(0.420139 0 0 0.41974 31.8239 243)">Wallet/ Identity</text><text fill="#000000" fill-opacity="1" font-family="Arial,Arial_MSFontService,sans-serif" font-style="normal" font-variant="normal" font-weight="400" font-stretch="normal" font-size="13" text-anchor="start" direction="ltr" writing-mode="lr-tb" unicode-bidi="normal" text-decoration="none" transform="matrix(0.420139 0 0 0.41974 45.1322 249)">Hub</text><path d="M495.938 183.636 578.21 183.636 578.21 254.992 495.938 254.992Z" stroke="#000000" stroke-width="0.524842" stroke-linecap="butt" stroke-linejoin="round" stroke-miterlimit="10" stroke-opacity="1" fill="#FFFFFF" fill-rule="nonzero" fill-opacity="1" transform="scale(1.00092 1)"/><text fill="#000000" fill-opacity="1" font-family="Arial,Arial_MSFontService,sans-serif" font-style="normal" font-variant="normal" font-weight="400" font-stretch="normal" font-size="20" text-anchor="start" direction="ltr" writing-mode="lr-tb" unicode-bidi="normal" text-decoration="none" transform="matrix(0.420139 0 0 0.41974 528.585 194)">EDC</text><path d="M508.111 200.915C508.111 199.022 509.647 197.488 511.54 197.488L560.929 197.488C562.822 197.488 564.358 199.022 564.358 200.915L564.358 214.627C564.358 216.52 562.822 218.055 560.929 218.055L511.54 218.055C509.647 218.055 508.111 216.52 508.111 214.627Z" stroke="#000000" stroke-width="0.174948" stroke-linecap="butt" stroke-linejoin="miter" stroke-miterlimit="8" stroke-opacity="1" fill="#FFFFFF" fill-rule="evenodd" fill-opacity="1" transform="scale(1.00092 1)"/><text fill="#000000" fill-opacity="1" font-family="Arial,Arial_MSFontService,sans-serif" font-style="normal" font-variant="normal" font-weight="400" font-stretch="normal" font-size="13" text-anchor="start" direction="ltr" writing-mode="lr-tb" unicode-bidi="normal" text-decoration="none" transform="matrix(0.420139 0 0 0.41974 525.014 203)">Connector</text><text fill="#000000" fill-opacity="1" font-family="Arial,Arial_MSFontService,sans-serif" font-style="normal" font-variant="normal" font-weight="400" font-stretch="normal" font-size="13" text-anchor="start" direction="ltr" writing-mode="lr-tb" unicode-bidi="normal" text-decoration="none" transform="matrix(0.420139 0 0 0.41974 516.082 209)">(</text><text fill="#000000" fill-opacity="1" font-family="Arial,Arial_MSFontService,sans-serif" font-style="normal" font-variant="normal" font-weight="400" font-stretch="normal" font-size="13" text-anchor="start" direction="ltr" writing-mode="lr-tb" unicode-bidi="normal" text-decoration="none" transform="matrix(0.420139 0 0 0.41974 517.922 209)">contains</text><text fill="#000000" fill-opacity="1" font-family="Arial,Arial_MSFontService,sans-serif" font-style="normal" font-variant="normal" font-weight="400" font-stretch="normal" font-size="13" text-anchor="start" direction="ltr" writing-mode="lr-tb" unicode-bidi="normal" text-decoration="none" transform="matrix(0.420139 0 0 0.41974 540.509 209)">Catalog</text><text fill="#000000" fill-opacity="1" font-family="Arial,Arial_MSFontService,sans-serif" font-style="normal" font-variant="normal" font-weight="400" font-stretch="normal" font-size="13" text-anchor="start" direction="ltr" writing-mode="lr-tb" unicode-bidi="normal" text-decoration="none" transform="matrix(0.420139 0 0 0.41974 528.825 216)">Server)</text><path d="M508.951 231.137C508.951 229.244 510.487 227.709 512.38 227.709L561.768 227.709C563.661 227.709 565.198 229.244 565.198 231.137L565.198 244.848C565.198 246.741 563.661 248.276 561.768 248.276L512.38 248.276C510.487 248.276 508.951 246.741 508.951 244.848Z" stroke="#000000" stroke-width="0.174948" stroke-linecap="butt" stroke-linejoin="miter" stroke-miterlimit="8" stroke-opacity="1" fill="#FFFFFF" fill-rule="evenodd" fill-opacity="1" transform="scale(1.00092 1)"/><text fill="#000000" fill-opacity="1" font-family="Arial,Arial_MSFontService,sans-serif" font-style="normal" font-variant="normal" font-weight="400" font-stretch="normal" font-size="13" text-anchor="start" direction="ltr" writing-mode="lr-tb" unicode-bidi="normal" text-decoration="none" transform="matrix(0.420139 0 0 0.41974 521.271 233)">Digital Identity</text><text fill="#000000" fill-opacity="1" font-family="Arial,Arial_MSFontService,sans-serif" font-style="normal" font-variant="normal" font-weight="400" font-stretch="normal" font-size="13" text-anchor="start" direction="ltr" writing-mode="lr-tb" unicode-bidi="normal" text-decoration="none" transform="matrix(0.420139 0 0 0.41974 520.481 240)">Wallet/ Identity</text><text fill="#000000" fill-opacity="1" font-family="Arial,Arial_MSFontService,sans-serif" font-style="normal" font-variant="normal" font-weight="400" font-stretch="normal" font-size="13" text-anchor="start" direction="ltr" writing-mode="lr-tb" unicode-bidi="normal" text-decoration="none" transform="matrix(0.420139 0 0 0.41974 533.791 247)">Hub</text><path d="M93.5361 221.552 112.075 221.552 112.075 257.965 111.376 257.265 240.063 257.265 240.063 258.664 110.675 258.664 110.675 222.252 111.376 222.952 93.5361 222.952ZM94.2358 224.351 90.037 222.252 94.2358 220.153ZM239.363 255.866 243.562 257.965 239.363 260.064Z" fill="#000000" fill-rule="nonzero" fill-opacity="1" transform="scale(1.00092 1)"/><path d="M3.49883-0.69977 43.6031-0.69977 43.6031 38.6585 42.9034 37.9587 166.584 37.9587 166.584 39.3582 42.2037 39.3582 42.2037 0 42.9034 0.69977 3.49883 0.69977ZM4.19862 2.09931 0 0 4.19862-2.09931ZM165.884 36.5592 170.083 38.6585 165.884 40.7578Z" fill="#000000" fill-rule="nonzero" fill-opacity="1" transform="matrix(-1.00095 1.22465e-16 1.22582e-16 1 496.482 219.314)"/><path d="M9.42665 9.67149 9.42665 2.32605C9.42665 1.61037 7.59749 1.22424 5.87633 1.22424 4.15519 1.22424 2.32605 1.61037 2.32605 2.32605L2.32605 9.67149C2.32605 10.3872 4.15519 10.7733 5.87633 10.7733 7.59749 10.7733 9.42665 10.3872 9.42665 9.67149ZM5.87633 1.46909C7.76816 1.46909 9.1818 1.92205 9.1818 2.32605 9.1818 2.73005 7.76816 3.18302 5.87633 3.18302 3.98453 3.18302 2.5709 2.73005 2.5709 2.32605 2.5709 1.92205 3.98453 1.46909 5.87633 1.46909ZM2.5709 2.74964C3.12536 3.19281 4.53371 3.42787 5.87633 3.42787 7.21896 3.42787 8.62735 3.19281 9.1818 2.74964L9.1818 4.77452C9.1818 5.17854 7.76816 5.63149 5.87633 5.63149 3.98453 5.63149 2.5709 5.17854 2.5709 4.77452ZM2.5709 5.19814C3.12536 5.64131 4.53371 5.87633 5.87633 5.87633 7.21896 5.87633 8.62735 5.64131 9.1818 5.19814L9.1818 7.22303C9.1818 7.627 7.76816 8.07999 5.87633 8.07999 3.98453 8.07999 2.5709 7.627 2.5709 7.22303ZM2.5709 9.67149 2.5709 7.6466C3.12536 8.08978 4.53371 8.32484 5.87633 8.32484 7.21896 8.32484 8.62735 8.08978 9.1818 7.6466L9.1818 9.67149C9.1818 10.0755 7.76816 10.5285 5.87633 10.5285 3.98453 10.5285 2.5709 10.0755 2.5709 9.67149Z" fill="#000000" fill-rule="nonzero" fill-opacity="1" transform="matrix(1.00095 0 0 1 244.521 198.537)"/><path d="M8.56968 4.40728C8.56968 4.54248 8.46004 4.65212 8.32484 4.65212 8.18959 4.65212 8.07999 4.54248 8.07999 4.40728 8.07999 4.27204 8.18959 4.16241 8.32484 4.16241 8.46004 4.16241 8.56968 4.27204 8.56968 4.40728Z" fill="#000000" fill-rule="nonzero" fill-opacity="1" transform="matrix(1.00095 0 0 1 244.521 198.537)"/><path d="M8.56968 6.85574C8.56968 6.99095 8.46004 7.10058 8.32484 7.10058 8.18959 7.10058 8.07999 6.99095 8.07999 6.85574 8.07999 6.7205 8.18959 6.6109 8.32484 6.6109 8.46004 6.6109 8.56968 6.7205 8.56968 6.85574Z" fill="#000000" fill-rule="nonzero" fill-opacity="1" transform="matrix(1.00095 0 0 1 244.521 198.537)"/><path d="M8.56968 9.3042C8.56968 9.43945 8.46004 9.54905 8.32484 9.54905 8.18959 9.54905 8.07999 9.43945 8.07999 9.3042 8.07999 9.169 8.18959 9.05936 8.32484 9.05936 8.46004 9.05936 8.56968 9.169 8.56968 9.3042Z" fill="#000000" fill-rule="nonzero" fill-opacity="1" transform="matrix(1.00095 0 0 1 244.521 198.537)"/><path d="M3.49883-0.69977 21.9028-0.69977 21.9028 0.483169 21.2031-0.216598 38.9073-0.216598 38.9073 1.18294 20.5033 1.18294 20.5033 0 21.2031 0.69977 3.49883 0.69977ZM4.19862 2.09931 0 0 4.19862-2.09931ZM38.2076-1.61613 42.4064 0.483169 38.2076 2.58248Z" fill="#000000" fill-rule="nonzero" fill-opacity="1" transform="matrix(1.83872e-16 1 1.00095 -1.83697e-16 282.964 122.774)"/><path d="M3.49884-0.69977 13.476-0.69977 13.476 18.6663 12.7762 17.9665 22.0536 17.9665 22.0536 19.3661 12.0765 19.3661 12.0765 0 12.7762 0.69977 3.49884 0.69977ZM4.19862 2.09931 0 0 4.19862-2.09931ZM21.3538 16.567 25.5525 18.6663 21.3538 20.7656Z" fill="#000000" fill-rule="nonzero" fill-opacity="1" transform="matrix(-1.00095 1.22465e-16 1.22582e-16 1 351.815 187.414)"/><path d="M508.951 153.415 566.457 153.415 566.457 172.303 508.951 172.303Z" stroke="#000000" stroke-width="0.524842" stroke-linecap="butt" stroke-linejoin="round" stroke-miterlimit="10" stroke-opacity="1" fill="#FFFFFF" fill-rule="nonzero" fill-opacity="1" transform="scale(1.00092 1)"/><text fill="#000000" fill-opacity="1" font-family="Arial,Arial_MSFontService,sans-serif" font-style="normal" font-variant="normal" font-weight="400" font-stretch="normal" font-size="20" text-anchor="start" direction="ltr" writing-mode="lr-tb" unicode-bidi="normal" text-decoration="none" transform="matrix(0.420139 0 0 0.41974 525.997 165)">E</text><text fill="#000000" fill-opacity="1" font-family="Arial,Arial_MSFontService,sans-serif" font-style="normal" font-variant="normal" font-weight="400" font-stretch="normal" font-size="20" text-anchor="start" direction="ltr" writing-mode="lr-tb" unicode-bidi="normal" text-decoration="none" transform="matrix(0.420139 0 0 0.41974 531.598 165)">-</text><text fill="#000000" fill-opacity="1" font-family="Arial,Arial_MSFontService,sans-serif" font-style="normal" font-variant="normal" font-weight="400" font-stretch="normal" font-size="20" text-anchor="start" direction="ltr" writing-mode="lr-tb" unicode-bidi="normal" text-decoration="none" transform="matrix(0.420139 0 0 0.41974 534.4 165)">Mail</text><path d="M3.4987-0.69977 185.112-0.69977 185.112 11.7404 184.412 11.0406 193.18 11.0406 193.18 12.4402 183.712 12.4402 183.712 0 184.412 0.69977 3.4987 0.69977ZM4.19862 2.09931 0 0 4.19862-2.09931ZM192.48 9.6411 196.679 11.7404 192.48 13.8397Z" fill="#000000" fill-rule="nonzero" fill-opacity="1" transform="matrix(-1.00095 1.22465e-16 1.22582e-16 1 509.238 162.649)"/><path d="M251.498 175.032 241.519 175.032 241.519 163.069 242.219 163.769 81.7826 163.769 81.7826 162.369 242.918 162.369 242.918 174.332 242.219 173.632 251.498 173.632ZM250.798 172.232 254.997 174.332 250.798 176.431ZM82.4827 165.168 78.284 163.069 82.4827 160.969Z" fill="#000000" fill-rule="nonzero" fill-opacity="1" transform="scale(1.00092 1)"/><path d="M20.7778 153.834 78.284 153.834 78.284 172.723 20.7778 172.723Z" stroke="#000000" stroke-width="0.524842" stroke-linecap="butt" stroke-linejoin="round" stroke-miterlimit="10" stroke-opacity="1" fill="#FFFFFF" fill-rule="nonzero" fill-opacity="1" transform="scale(1.00092 1)"/><text fill="#000000" fill-opacity="1" font-family="Arial,Arial_MSFontService,sans-serif" font-style="normal" font-variant="normal" font-weight="400" font-stretch="normal" font-size="20" text-anchor="start" direction="ltr" writing-mode="lr-tb" unicode-bidi="normal" text-decoration="none" transform="matrix(0.420139 0 0 0.41974 37.4072 166)">E</text><text fill="#000000" fill-opacity="1" font-family="Arial,Arial_MSFontService,sans-serif" font-style="normal" font-variant="normal" font-weight="400" font-stretch="normal" font-size="20" text-anchor="start" direction="ltr" writing-mode="lr-tb" unicode-bidi="normal" text-decoration="none" transform="matrix(0.420139 0 0 0.41974 43.0109 166)">-</text><text fill="#000000" fill-opacity="1" font-family="Arial,Arial_MSFontService,sans-serif" font-style="normal" font-variant="normal" font-weight="400" font-stretch="normal" font-size="20" text-anchor="start" direction="ltr" writing-mode="lr-tb" unicode-bidi="normal" text-decoration="none" transform="matrix(0.420139 0 0 0.41974 45.8124 166)">Mail</text><path d="M3.49875-0.69977 7.69735-0.69977 7.69735 0.69977 3.49875 0.69977ZM9.09689-0.69977 13.2955-0.69977 13.2955 0.69977 9.09689 0.69977ZM14.6951-0.69977 18.8937-0.69977 18.8937 0.69977 14.6951 0.69977ZM20.2932-0.69977 24.4918-0.69977 24.4918 0.69977 20.2932 0.69977ZM25.8913-0.69977 30.09-0.69977 30.09 0.69977 25.8913 0.69977ZM31.4895-0.69977 35.6881-0.69977 35.6881 0.69977 31.4895 0.69977ZM37.0876-0.69977 41.2862-0.69977 41.2862 0.69977 37.0876 0.69977ZM42.686-0.69977 46.8843-0.69977 46.8843 0.69977 42.686 0.69977ZM48.2838-0.69977 52.4826-0.69977 52.4826 0.69977 48.2838 0.69977ZM53.882-0.69977 58.0808-0.69977 58.0808 0.69977 53.882 0.69977ZM59.4803-0.69977 63.6786-0.69977 63.6786 0.69977 59.4803 0.69977ZM65.0785-0.69977 69.2769-0.69977 69.2769 0.69977 65.0785 0.69977ZM70.6763-0.69977 74.8751-0.69977 74.8751 0.69977 70.6763 0.69977ZM76.2746-0.69977 80.4734-0.69977 80.4734 0.69977 76.2746 0.69977ZM81.2084 1.36418 81.2084 5.56278 79.8089 5.56278 79.8089 1.36418ZM81.2084 6.96232 81.2084 11.1609 79.8089 11.1609 79.8089 6.96232ZM81.2084 12.5605 81.2084 16.7591 79.8089 16.7591 79.8089 12.5605ZM81.2084 18.1586 81.2084 22.3572 79.8089 22.3572 79.8089 18.1586ZM81.2084 23.7568 81.2084 27.9554 79.8089 27.9554 79.8089 23.7568ZM81.2084 29.3549 81.2084 33.5536 79.8089 33.5536 79.8089 29.3549ZM81.2084 34.953 81.2084 35.7164 79.8089 35.7164 79.8089 34.953ZM4.19862 2.09931 0 0 4.19862-2.09931ZM82.6078 35.0166 80.5086 39.2152 78.4095 35.0166Z" fill="#000000" fill-rule="nonzero" fill-opacity="1" transform="matrix(-1.83872e-16 -1 -1.00095 1.83697e-16 403.723 176)"/><path d="M347.865 188.211 343.667 188.211 343.667 186.812 347.865 186.812ZM342.267 188.211 338.068 188.211 338.068 186.812 342.267 186.812ZM336.668 188.211 332.47 188.211 332.47 186.812 336.668 186.812ZM331.07 188.211 326.871 188.211 326.871 186.812 331.07 186.812ZM325.472 188.211 321.273 188.211 321.273 186.812 325.472 186.812ZM319.874 188.211 315.675 188.211 315.675 186.812 319.874 186.812ZM314.275 188.211 310.076 188.211 310.076 186.812 314.275 186.812ZM308.677 188.211 304.478 188.211 304.478 186.812 308.677 186.812ZM303.078 188.211 298.88 188.211 298.88 186.812 303.078 186.812ZM297.48 188.211 293.281 188.211 293.281 186.812 297.48 186.812ZM291.882 188.211 287.683 188.211 287.683 186.812 291.882 186.812ZM286.283 188.211 282.085 188.211 282.085 186.812 286.283 186.812ZM280.685 188.211 276.486 188.211 276.486 186.812 280.685 186.812ZM275.087 188.211 270.888 188.211 270.888 186.812 275.087 186.812ZM269.489 188.211 265.29 188.211 265.29 186.812 269.489 186.812ZM263.89 188.211 259.692 188.211 259.692 186.812 263.89 186.812ZM258.292 188.211 254.093 188.211 254.093 186.812 258.292 186.812ZM252.693 188.211 248.495 188.211 248.495 186.812 252.693 186.812ZM247.095 188.211 242.896 188.211 242.896 186.812 247.095 186.812ZM241.497 188.211 239.4 188.211 239.4 184.71 240.799 184.71 240.799 187.512 240.1 186.812 241.497 186.812ZM239.4 183.311 239.4 179.112 240.799 179.112 240.799 183.311ZM240.052 178.459 235.854 178.459 235.854 177.06 240.052 177.06ZM234.454 178.459 232.055 178.459 232.055 177.06 234.454 177.06ZM347.165 185.412 351.364 187.512 347.165 189.611ZM232.754 179.859 228.556 177.76 232.754 175.66Z" fill="#000000" fill-rule="nonzero" fill-opacity="1" transform="scale(1.00092 1)"/></g></g></svg>