<svg width="4254" height="2076" xmlns="http://www.w3.org/2000/svg" xmlns:xlink="http://www.w3.org/1999/xlink" xml:space="preserve" overflow="hidden"><g transform="translate(-91 -110)"><g><rect x="93.0002" y="112" width="4250" height="2070" fill="#000000" fill-opacity="1"/><rect x="121.5" y="201.5" width="2079" height="1757" stroke="#FFFFFF" stroke-width="4.58333" stroke-linecap="butt" stroke-linejoin="miter" stroke-miterlimit="8" stroke-opacity="1" fill="none"/><path d="M228 157.167C228 144.372 238.372 134 251.167 134L1302.83 134C1315.63 134 1326 144.372 1326 157.167L1326 249.833C1326 262.628 1315.63 273 1302.83 273L251.167 273C238.372 273 228 262.628 228 249.833Z" fill="#FFA600" fill-rule="evenodd" fill-opacity="1"/><text fill="#000000" fill-opacity="1" font-family="Calibri,Calibri_MSFontService,sans-serif" font-style="normal" font-variant="normal" font-weight="400" font-stretch="normal" font-size="83" text-anchor="start" direction="ltr" writing-mode="lr-tb" unicode-bidi="normal" text-decoration="none" transform="matrix(1 0 0 1 362.837 231)">Bottleneck Management</text><rect x="2229.5" y="201.5" width="2078" height="1757" stroke="#FFFFFF" stroke-width="4.58333" stroke-linecap="butt" stroke-linejoin="miter" stroke-miterlimit="8" stroke-opacity="1" fill="none"/><path d="M3091 155C3091 142.297 3101.3 132 3114 132L4166 132C4178.7 132 4189 142.297 4189 155L4189 247C4189 259.702 4178.7 270 4166 270L3114 270C3101.3 270 3091 259.702 3091 247Z" fill="#FFA600" fill-rule="evenodd" fill-opacity="1"/><text fill="#000000" fill-opacity="1" font-family="Calibri,Calibri_MSFontService,sans-serif" font-style="normal" font-variant="normal" font-weight="400" font-stretch="normal" font-size="83" text-anchor="start" direction="ltr" writing-mode="lr-tb" unicode-bidi="normal" text-decoration="none" transform="matrix(1 0 0 1 3451.97 229)">Monitoring</text><path d="M1380 386.834C1380 375.88 1388.88 367 1399.83 367L1977.17 367C1988.12 367 1997 375.88 1997 386.834L1997 466.166C1997 477.12 1988.12 486 1977.17 486L1399.83 486C1388.88 486 1380 477.12 1380 466.166Z" fill="#B3CB2D" fill-rule="evenodd" fill-opacity="1"/><text fill="#000000" fill-opacity="1" font-family="Calibri,Calibri_MSFontService,sans-serif" font-style="normal" font-variant="normal" font-weight="400" font-stretch="normal" font-size="55" text-anchor="start" direction="ltr" writing-mode="lr-tb" unicode-bidi="normal" text-decoration="none" transform="matrix(1 0 0 1 1430.52 444)">Supply Chain </text><text fill="#000000" fill-opacity="1" font-family="Calibri,Calibri_MSFontService,sans-serif" font-style="normal" font-variant="normal" font-weight="400" font-stretch="normal" font-size="55" text-anchor="start" direction="ltr" writing-mode="lr-tb" unicode-bidi="normal" text-decoration="none" transform="matrix(1 0 0 1 1729.59 444)">Condition</text><path d="M1476 1123C1476 1111.95 1484.95 1103 1496 1103L1887 1103C1898.05 1103 1907 1111.95 1907 1123L1907 1203C1907 1214.05 1898.05 1223 1887 1223L1496 1223C1484.95 1223 1476 1214.05 1476 1203Z" fill="#B3CB2D" fill-rule="evenodd" fill-opacity="1"/><text fill="#000000" fill-opacity="1" font-family="Calibri,Calibri_MSFontService,sans-serif" font-style="normal" font-variant="normal" font-weight="400" font-stretch="normal" font-size="55" text-anchor="start" direction="ltr" writing-mode="lr-tb" unicode-bidi="normal" text-decoration="none" transform="matrix(1 0 0 1 1489.01 1181)">Normal Operation </text><path d="M672 755C672 743.954 680.955 735 692.001 735L1186 735C1197.05 735 1206 743.954 1206 755L1206 834.999C1206 846.045 1197.05 855 1186 855L692.001 855C680.955 855 672 846.045 672 834.999Z" fill="#9B9B9B" fill-rule="evenodd" fill-opacity="1"/><text fill="#000000" fill-opacity="1" font-family="Calibri,Calibri_MSFontService,sans-serif" font-style="normal" font-variant="normal" font-weight="400" font-stretch="normal" font-size="55" text-anchor="start" direction="ltr" writing-mode="lr-tb" unicode-bidi="normal" text-decoration="none" transform="matrix(1 0 0 1 819.242 813)">Bottleneck</text><path d="M984 1123.83C984 1112.88 992.88 1104 1003.83 1104L1394.17 1104C1405.12 1104 1414 1112.88 1414 1123.83L1414 1203.17C1414 1214.12 1405.12 1223 1394.17 1223L1003.83 1223C992.88 1223 984 1214.12 984 1203.17Z" fill="#9B9B9B" fill-rule="evenodd" fill-opacity="1"/><text fill="#000000" fill-opacity="1" font-family="Calibri,Calibri_MSFontService,sans-serif" font-style="normal" font-variant="normal" font-weight="400" font-stretch="normal" font-size="55" text-anchor="start" direction="ltr" writing-mode="lr-tb" unicode-bidi="normal" text-decoration="none" transform="matrix(1 0 0 1 1111.03 1181)">isolated</text><path d="M490 1122.83C490 1111.88 498.88 1103 509.834 1103L901.166 1103C912.12 1103 921 1111.88 921 1122.83L921 1202.17C921 1213.12 912.12 1222 901.166 1222L509.834 1222C498.88 1222 490 1213.12 490 1202.17Z" fill="#9B9B9B" fill-rule="evenodd" fill-opacity="1"/><text fill="#000000" fill-opacity="1" font-family="Calibri,Calibri_MSFontService,sans-serif" font-style="normal" font-variant="normal" font-weight="400" font-stretch="normal" font-size="55" text-anchor="start" direction="ltr" writing-mode="lr-tb" unicode-bidi="normal" text-decoration="none" transform="matrix(1 0 0 1 576.094 1180)">widespread</text><path d="M1744.79 798.782 1229.41 797.834 1229.42 793.25 1744.8 794.199ZM1233.97 809.301 1206.5 795.5 1234.03 781.801Z" fill="#FFFFFF" fill-rule="nonzero" fill-opacity="1"/><path d="M885 981 939 927 993 981 939 1035Z" fill="#9B9B9B" fill-rule="evenodd" fill-opacity="1"/><path d="M1691.79 486.484 1693.45 719.6 1688.86 719.632 1687.21 486.516ZM1704.87 714.935 1691.32 742.532 1677.37 715.13Z" fill="#FFFFFF" fill-rule="nonzero" fill-opacity="1"/><path d="M1692.79 850.492 1693.57 1081.28 1688.99 1081.29 1688.21 850.508ZM1705.01 1076.66 1691.36 1104.2 1677.51 1076.75Z" fill="#FFFFFF" fill-rule="nonzero" fill-opacity="1"/><path d="M941.792 855.5 941.792 905.112 937.208 905.112 937.208 855.5ZM953.25 900.529 939.5 928.029 925.75 900.529Z" fill="#FFFFFF" fill-rule="nonzero" fill-opacity="1"/><path d="M993.5 979.208 1201.8 979.208 1201.8 1081.42 1197.21 1081.42 1197.21 981.5 1199.5 983.792 993.5 983.792ZM1213.25 1076.83 1199.5 1104.33 1185.75 1076.83Z" fill="#FFFFFF" fill-rule="nonzero" fill-opacity="1"/><path d="M0-2.29167 181.848-2.29167 181.848 98.9426 177.264 98.9426 177.264 0 179.556 2.29167 0 2.29167ZM193.306 94.3593 179.556 121.859 165.806 94.3593Z" fill="#FFFFFF" fill-rule="nonzero" fill-opacity="1" transform="matrix(-1 1.22465e-16 1.22465e-16 1 886.056 981.5)"/><text fill="#FFFFFF" fill-opacity="1" font-family="Calibri,Calibri_MSFontService,sans-serif" font-style="normal" font-variant="normal" font-weight="400" font-stretch="normal" font-size="48" text-anchor="start" direction="ltr" writing-mode="lr-tb" unicode-bidi="normal" text-decoration="none" transform="matrix(1 0 0 1 1274.71 761)">P(</text><text fill="#FFFFFF" fill-opacity="1" font-family="Calibri,Calibri_MSFontService,sans-serif" font-style="normal" font-variant="normal" font-weight="400" font-stretch="normal" font-size="48" text-anchor="start" direction="ltr" writing-mode="lr-tb" unicode-bidi="normal" text-decoration="none" transform="matrix(1 0 0 1 1313.67 761)">bottleneck</text><text fill="#FFFFFF" fill-opacity="1" font-family="Calibri,Calibri_MSFontService,sans-serif" font-style="normal" font-variant="normal" font-weight="400" font-stretch="normal" font-size="48" text-anchor="start" direction="ltr" writing-mode="lr-tb" unicode-bidi="normal" text-decoration="none" transform="matrix(1 0 0 1 1522.79 761)">)= a</text><text fill="#FFFFFF" fill-opacity="1" font-family="Calibri,Calibri_MSFontService,sans-serif" font-style="normal" font-variant="normal" font-weight="400" font-stretch="normal" font-size="46" text-anchor="start" direction="ltr" writing-mode="lr-tb" unicode-bidi="normal" text-decoration="none" transform="matrix(1 0 0 1 294.905 1036)">P(</text><text fill="#FFFFFF" fill-opacity="1" font-family="Calibri,Calibri_MSFontService,sans-serif" font-style="normal" font-variant="normal" font-weight="400" font-stretch="normal" font-size="46" text-anchor="start" direction="ltr" writing-mode="lr-tb" unicode-bidi="normal" text-decoration="none" transform="matrix(1 0 0 1 332.145 1036)">widespread</text><text fill="#FFFFFF" fill-opacity="1" font-family="Calibri,Calibri_MSFontService,sans-serif" font-style="normal" font-variant="normal" font-weight="400" font-stretch="normal" font-size="46" text-anchor="start" direction="ltr" writing-mode="lr-tb" unicode-bidi="normal" text-decoration="none" transform="matrix(1 0 0 1 548.707 1036)">)= a x b</text><path d="M2411 386.001C2411 374.955 2419.95 366 2431 366L3008 366C3019.05 366 3028 374.955 3028 386.001L3028 466C3028 477.046 3019.05 486 3008 486L2431 486C2419.95 486 2411 477.046 2411 466Z" fill="#B3CB2D" fill-rule="evenodd" fill-opacity="1"/><text fill="#000000" fill-opacity="1" font-family="Calibri,Calibri_MSFontService,sans-serif" font-style="normal" font-variant="normal" font-weight="400" font-stretch="normal" font-size="55" text-anchor="start" direction="ltr" writing-mode="lr-tb" unicode-bidi="normal" text-decoration="none" transform="matrix(1 0 0 1 2461.34 444)">Supply Chain </text><text fill="#000000" fill-opacity="1" font-family="Calibri,Calibri_MSFontService,sans-serif" font-style="normal" font-variant="normal" font-weight="400" font-stretch="normal" font-size="55" text-anchor="start" direction="ltr" writing-mode="lr-tb" unicode-bidi="normal" text-decoration="none" transform="matrix(1 0 0 1 2760.4 444)">Condition</text><path d="M2506 1123C2506 1111.95 2514.95 1103 2526 1103L2916 1103C2927.05 1103 2936 1111.95 2936 1123L2936 1203C2936 1214.05 2927.05 1223 2916 1223L2526 1223C2514.95 1223 2506 1214.05 2506 1203Z" fill="#B3CB2D" fill-rule="evenodd" fill-opacity="1"/><text fill="#000000" fill-opacity="1" font-family="Calibri,Calibri_MSFontService,sans-serif" font-style="normal" font-variant="normal" font-weight="400" font-stretch="normal" font-size="55" text-anchor="start" direction="ltr" writing-mode="lr-tb" unicode-bidi="normal" text-decoration="none" transform="matrix(1 0 0 1 2518.64 1181)">Normal Operation </text><path d="M3203 754.833C3203 743.88 3211.88 735 3222.83 735L3717.17 735C3728.12 735 3737 743.88 3737 754.833L3737 834.166C3737 845.12 3728.12 854 3717.17 854L3222.83 854C3211.88 854 3203 845.12 3203 834.166Z" fill="#9B9B9B" fill-rule="evenodd" fill-opacity="1"/><text fill="#000000" fill-opacity="1" font-family="Calibri,Calibri_MSFontService,sans-serif" font-style="normal" font-variant="normal" font-weight="400" font-stretch="normal" font-size="55" text-anchor="start" direction="ltr" writing-mode="lr-tb" unicode-bidi="normal" text-decoration="none" transform="matrix(1 0 0 1 3349.9 813)">Bottleneck</text><path d="M3002 1125C3002 1113.95 3010.95 1105 3022 1105L3412 1105C3423.05 1105 3432 1113.95 3432 1125L3432 1205C3432 1216.05 3423.05 1225 3412 1225L3022 1225C3010.95 1225 3002 1216.05 3002 1205Z" fill="#9B9B9B" fill-rule="evenodd" fill-opacity="1"/><text fill="#000000" fill-opacity="1" font-family="Calibri,Calibri_MSFontService,sans-serif" font-style="normal" font-variant="normal" font-weight="400" font-stretch="normal" font-size="55" text-anchor="start" direction="ltr" writing-mode="lr-tb" unicode-bidi="normal" text-decoration="none" transform="matrix(1 0 0 1 3128.51 1183)">Isolated</text><path d="M3498 1125C3498 1113.95 3506.95 1105 3518 1105L3908 1105C3919.05 1105 3928 1113.95 3928 1125L3928 1205C3928 1216.05 3919.05 1225 3908 1225L3518 1225C3506.95 1225 3498 1216.05 3498 1205Z" fill="#9B9B9B" fill-rule="evenodd" fill-opacity="1"/><text fill="#000000" fill-opacity="1" font-family="Calibri,Calibri_MSFontService,sans-serif" font-style="normal" font-variant="normal" font-weight="400" font-stretch="normal" font-size="55" text-anchor="start" direction="ltr" writing-mode="lr-tb" unicode-bidi="normal" text-decoration="none" transform="matrix(1 0 0 1 3583.49 1183)">widespread</text><path d="M2667 794.5 2721 741 2775 794.5 2721 848Z" fill="#B3CB2D" fill-rule="evenodd" fill-opacity="1"/><path d="M3416 979 3470 925 3524 979 3470 1033Z" fill="#9B9B9B" fill-rule="evenodd" fill-opacity="1"/><path d="M2721.79 486.487 2723.15 718.612 2718.56 718.639 2717.21 486.513ZM2734.58 713.962 2720.99 741.542 2707.08 714.123Z" fill="#FFFFFF" fill-rule="nonzero" fill-opacity="1"/><path d="M2723.79 848.5 2723.79 1080.63 2719.21 1080.63 2719.21 848.5ZM2735.25 1076.04 2721.5 1103.54 2707.75 1076.04Z" fill="#FFFFFF" fill-rule="nonzero" fill-opacity="1"/><path d="M2775.5 793.208 3180.83 793.209 3180.83 797.792 2775.5 797.792ZM3176.25 781.75 3203.75 795.5 3176.25 809.25Z" fill="#FFFFFF" fill-rule="nonzero" fill-opacity="1"/><path d="M3472.79 854.5 3472.79 902.349 3468.21 902.349 3468.21 854.5ZM3484.25 897.766 3470.5 925.266 3456.75 897.766Z" fill="#FFFFFF" fill-rule="nonzero" fill-opacity="1"/><path d="M3524.5 977.208 3716.32 977.208 3716.32 1082.93 3711.74 1082.93 3711.74 979.5 3714.03 981.792 3524.5 981.792ZM3727.78 1078.35 3714.03 1105.85 3700.28 1078.35Z" fill="#FFFFFF" fill-rule="nonzero" fill-opacity="1"/><path d="M0-2.29167 201.229-2.29167 201.229 103.434 196.645 103.434 196.645 0 198.937 2.29167 0 2.29167ZM212.687 98.851 198.937 126.351 185.187 98.851Z" fill="#FFFFFF" fill-rule="nonzero" fill-opacity="1" transform="matrix(-1 1.22465e-16 1.22465e-16 1 3416.44 979.5)"/><text fill="#FFFFFF" fill-opacity="1" font-family="Calibri,Calibri_MSFontService,sans-serif" font-style="normal" font-variant="normal" font-weight="400" font-stretch="normal" font-size="48" text-anchor="start" direction="ltr" writing-mode="lr-tb" unicode-bidi="normal" text-decoration="none" transform="matrix(1 0 0 1 2772.02 768)">P(</text><text fill="#FFFFFF" fill-opacity="1" font-family="Calibri,Calibri_MSFontService,sans-serif" font-style="normal" font-variant="normal" font-weight="400" font-stretch="normal" font-size="48" text-anchor="start" direction="ltr" writing-mode="lr-tb" unicode-bidi="normal" text-decoration="none" transform="matrix(1 0 0 1 2810.98 768)">bottleneck</text><text fill="#FFFFFF" fill-opacity="1" font-family="Calibri,Calibri_MSFontService,sans-serif" font-style="normal" font-variant="normal" font-weight="400" font-stretch="normal" font-size="48" text-anchor="start" direction="ltr" writing-mode="lr-tb" unicode-bidi="normal" text-decoration="none" transform="matrix(1 0 0 1 3020.09 768)">)= a </text><text fill="#FFFFFF" fill-opacity="1" font-family="Calibri,Calibri_MSFontService,sans-serif" font-style="normal" font-variant="normal" font-weight="400" font-stretch="normal" font-size="48" text-anchor="start" direction="ltr" writing-mode="lr-tb" unicode-bidi="normal" text-decoration="none" transform="matrix(1 0 0 1 3103.16 768)">-</text><text fill="#FFFFFF" fill-opacity="1" font-family="Calibri,Calibri_MSFontService,sans-serif" font-style="normal" font-variant="normal" font-weight="700" font-stretch="normal" font-size="48" text-anchor="start" direction="ltr" writing-mode="lr-tb" unicode-bidi="normal" text-decoration="none" transform="matrix(1 0 0 1 3128.95 768)">m</text><text fill="#FFFFFF" fill-opacity="1" font-family="Calibri,Calibri_MSFontService,sans-serif" font-style="normal" font-variant="normal" font-weight="400" font-stretch="normal" font-size="46" text-anchor="start" direction="ltr" writing-mode="lr-tb" unicode-bidi="normal" text-decoration="none" transform="matrix(1 0 0 1 3750.83 1048)">P(</text><text fill="#FFFFFF" fill-opacity="1" font-family="Calibri,Calibri_MSFontService,sans-serif" font-style="normal" font-variant="normal" font-weight="400" font-stretch="normal" font-size="46" text-anchor="start" direction="ltr" writing-mode="lr-tb" unicode-bidi="normal" text-decoration="none" transform="matrix(1 0 0 1 3788.07 1048)">widespread</text><text fill="#FFFFFF" fill-opacity="1" font-family="Calibri,Calibri_MSFontService,sans-serif" font-style="normal" font-variant="normal" font-weight="400" font-stretch="normal" font-size="46" text-anchor="start" direction="ltr" writing-mode="lr-tb" unicode-bidi="normal" text-decoration="none" transform="matrix(1 0 0 1 4004.64 1048)">)= (a</text><text fill="#FFFFFF" fill-opacity="1" font-family="Calibri,Calibri_MSFontService,sans-serif" font-style="normal" font-variant="normal" font-weight="400" font-stretch="normal" font-size="46" text-anchor="start" direction="ltr" writing-mode="lr-tb" unicode-bidi="normal" text-decoration="none" transform="matrix(1 0 0 1 4087.14 1048)">-</text><text fill="#FFFFFF" fill-opacity="1" font-family="Calibri,Calibri_MSFontService,sans-serif" font-style="normal" font-variant="normal" font-weight="700" font-stretch="normal" font-size="46" text-anchor="start" direction="ltr" writing-mode="lr-tb" unicode-bidi="normal" text-decoration="none" transform="matrix(1 0 0 1 4100.89 1048)">m</text><text fill="#FFFFFF" fill-opacity="1" font-family="Calibri,Calibri_MSFontService,sans-serif" font-style="normal" font-variant="normal" font-weight="400" font-stretch="normal" font-size="46" text-anchor="start" direction="ltr" writing-mode="lr-tb" unicode-bidi="normal" text-decoration="none" transform="matrix(1 0 0 1 4138.13 1048)">) x (b</text><text fill="#FFFFFF" fill-opacity="1" font-family="Calibri,Calibri_MSFontService,sans-serif" font-style="normal" font-variant="normal" font-weight="400" font-stretch="normal" font-size="46" text-anchor="start" direction="ltr" writing-mode="lr-tb" unicode-bidi="normal" text-decoration="none" transform="matrix(1 0 0 1 4230.37 1048)">-</text><text fill="#FFFFFF" fill-opacity="1" font-family="Calibri,Calibri_MSFontService,sans-serif" font-style="normal" font-variant="normal" font-weight="700" font-stretch="normal" font-size="46" text-anchor="start" direction="ltr" writing-mode="lr-tb" unicode-bidi="normal" text-decoration="none" transform="matrix(1 0 0 1 4244.12 1048)">n</text><text fill="#FFFFFF" fill-opacity="1" font-family="Calibri,Calibri_MSFontService,sans-serif" font-style="normal" font-variant="normal" font-weight="400" font-stretch="normal" font-size="46" text-anchor="start" direction="ltr" writing-mode="lr-tb" unicode-bidi="normal" text-decoration="none" transform="matrix(1 0 0 1 4268.75 1048)">)</text><path d="M482.655 1434.03 946.794 1434.03 946.794 1588.03 482.655 1588.03Z" fill="#9B9B9B" fill-rule="evenodd" fill-opacity="1"/><path d="M946.794 1434.03 1442.96 1434.03 1442.96 1588.03 946.794 1588.03Z" fill="#9B9B9B" fill-rule="evenodd" fill-opacity="1"/><path d="M1442.96 1434.03 1918.07 1434.03 1918.07 1588.03 1442.96 1588.03Z" fill="#CBD4DE" fill-rule="evenodd" fill-opacity="1"/><path d="M1918.07 1434.03 2500.84 1434.03 2500.84 1588.03 1918.07 1588.03Z" fill="#046B99" fill-rule="evenodd" fill-opacity="1"/><path d="M2500.84 1434.03 2971.26 1434.03 2971.26 1588.03 2500.84 1588.03Z" fill="#CBD4DE" fill-rule="evenodd" fill-opacity="1"/><path d="M2971.26 1434.03 3469.77 1434.03 3469.77 1588.03 2971.26 1588.03Z" fill="#9B9B9B" fill-rule="evenodd" fill-opacity="1"/><path d="M3469.77 1434.03 3928.49 1434.03 3928.49 1588.03 3469.77 1588.03Z" fill="#9B9B9B" fill-rule="evenodd" fill-opacity="1"/><path d="M482.655 1588.03 946.794 1588.03 946.794 1742.03 482.655 1742.03Z" fill="#9B9B9B" fill-rule="evenodd" fill-opacity="1"/><path d="M946.794 1588.03 1442.96 1588.03 1442.96 1742.03 946.794 1742.03Z" fill="#9B9B9B" fill-rule="evenodd" fill-opacity="1"/><path d="M1442.96 1588.03 1918.07 1588.03 1918.07 1742.03 1442.96 1742.03Z" fill="#E7EBEF" fill-rule="evenodd" fill-opacity="1"/><path d="M1918.07 1588.03 2500.84 1588.03 2500.84 1742.03 1918.07 1742.03Z" fill="#046B99" fill-rule="evenodd" fill-opacity="1"/><path d="M2500.84 1588.03 2971.26 1588.03 2971.26 1742.03 2500.84 1742.03Z" fill="#E7EBEF" fill-rule="evenodd" fill-opacity="1"/><path d="M2971.26 1588.03 3469.77 1588.03 3469.77 1742.03 2971.26 1742.03Z" fill="#9B9B9B" fill-rule="evenodd" fill-opacity="1"/><path d="M3469.77 1588.03 3928.49 1588.03 3928.49 1742.03 3469.77 1742.03Z" fill="#9B9B9B" fill-rule="evenodd" fill-opacity="1"/><path d="M482.655 1742.03 946.794 1742.03 946.794 1896.03 482.655 1896.03Z" fill="#9B9B9B" fill-rule="evenodd" fill-opacity="1"/><path d="M946.794 1742.03 1442.96 1742.03 1442.96 1896.03 946.794 1896.03Z" fill="#9B9B9B" fill-rule="evenodd" fill-opacity="1"/><path d="M1442.96 1742.03 1918.07 1742.03 1918.07 1896.03 1442.96 1896.03Z" fill="#CBD4DE" fill-rule="evenodd" fill-opacity="1"/><path d="M1918.07 1742.03 2500.84 1742.03 2500.84 1896.03 1918.07 1896.03Z" fill="#046B99" fill-rule="evenodd" fill-opacity="1"/><path d="M2500.84 1742.03 2971.26 1742.03 2971.26 1896.03 2500.84 1896.03Z" fill="#CBD4DE" fill-rule="evenodd" fill-opacity="1"/><path d="M2971.26 1742.03 3469.77 1742.03 3469.77 1896.03 2971.26 1896.03Z" fill="#9B9B9B" fill-rule="evenodd" fill-opacity="1"/><path d="M3469.77 1742.03 3928.49 1742.03 3928.49 1896.03 3469.77 1896.03Z" fill="#9B9B9B" fill-rule="evenodd" fill-opacity="1"/><path d="M946.794 1431.73 946.794 1898.32" stroke="#FFFFFF" stroke-width="4.58333" stroke-linecap="butt" stroke-linejoin="round" stroke-miterlimit="10" stroke-opacity="1" fill="none" fill-rule="evenodd"/><path d="M1442.96 1431.73 1442.96 1898.32" stroke="#FFFFFF" stroke-width="4.58333" stroke-linecap="butt" stroke-linejoin="round" stroke-miterlimit="10" stroke-opacity="1" fill="none" fill-rule="evenodd"/><path d="M1918.07 1431.73 1918.07 1898.32" stroke="#FFFFFF" stroke-width="4.58333" stroke-linecap="butt" stroke-linejoin="round" stroke-miterlimit="10" stroke-opacity="1" fill="none" fill-rule="evenodd"/><path d="M2500.84 1431.73 2500.84 1898.32" stroke="#FFFFFF" stroke-width="4.58333" stroke-linecap="butt" stroke-linejoin="round" stroke-miterlimit="10" stroke-opacity="1" fill="none" fill-rule="evenodd"/><path d="M2971.26 1431.73 2971.26 1898.32" stroke="#FFFFFF" stroke-width="4.58333" stroke-linecap="butt" stroke-linejoin="round" stroke-miterlimit="10" stroke-opacity="1" fill="none" fill-rule="evenodd"/><path d="M3469.77 1431.73 3469.77 1898.32" stroke="#FFFFFF" stroke-width="4.58333" stroke-linecap="butt" stroke-linejoin="round" stroke-miterlimit="10" stroke-opacity="1" fill="none" fill-rule="evenodd"/><path d="M480.364 1588.03 3930.79 1588.03" stroke="#FFFFFF" stroke-width="4.58333" stroke-linecap="butt" stroke-linejoin="round" stroke-miterlimit="10" stroke-opacity="1" fill="none" fill-rule="evenodd"/><path d="M480.364 1742.03 3930.79 1742.03" stroke="#FFFFFF" stroke-width="4.58333" stroke-linecap="butt" stroke-linejoin="round" stroke-miterlimit="10" stroke-opacity="1" fill="none" fill-rule="evenodd"/><path d="M482.655 1431.73 482.655 1898.32" stroke="#FFFFFF" stroke-width="4.58333" stroke-linecap="butt" stroke-linejoin="round" stroke-miterlimit="10" stroke-opacity="1" fill="none" fill-rule="evenodd"/><path d="M3928.49 1431.73 3928.49 1898.32" stroke="#FFFFFF" stroke-width="4.58333" stroke-linecap="butt" stroke-linejoin="round" stroke-miterlimit="10" stroke-opacity="1" fill="none" fill-rule="evenodd"/><path d="M480.364 1434.03 3930.79 1434.03" stroke="#FFFFFF" stroke-width="4.58333" stroke-linecap="butt" stroke-linejoin="round" stroke-miterlimit="10" stroke-opacity="1" fill="none" fill-rule="evenodd"/><path d="M480.364 1896.03 3930.79 1896.03" stroke="#FFFFFF" stroke-width="4.58333" stroke-linecap="butt" stroke-linejoin="round" stroke-miterlimit="10" stroke-opacity="1" fill="none" fill-rule="evenodd"/><text fill="#FFFFFF" fill-opacity="1" font-family="Calibri,Calibri_MSFontService,sans-serif" font-style="normal" font-variant="normal" font-weight="700" font-stretch="normal" font-size="50" text-anchor="start" direction="ltr" writing-mode="lr-tb" unicode-bidi="normal" text-decoration="none" transform="matrix(1 0 0 1 1992.6 1528)">Administrative Costs</text><text fill="#FFFFFF" fill-opacity="1" font-family="Calibri,Calibri_MSFontService,sans-serif" font-style="normal" font-variant="normal" font-weight="700" font-stretch="normal" font-size="50" text-anchor="start" direction="ltr" writing-mode="lr-tb" unicode-bidi="normal" text-decoration="none" transform="matrix(1 0 0 1 1965.68 1652)">Operational Bottleneck </text><text fill="#FFFFFF" fill-opacity="1" font-family="Calibri,Calibri_MSFontService,sans-serif" font-style="normal" font-variant="normal" font-weight="700" font-stretch="normal" font-size="50" text-anchor="start" direction="ltr" writing-mode="lr-tb" unicode-bidi="normal" text-decoration="none" transform="matrix(1 0 0 1 2153.59 1713)">Costs</text><text fill="#FFFFFF" fill-opacity="1" font-family="Calibri,Calibri_MSFontService,sans-serif" font-style="normal" font-variant="normal" font-weight="700" font-stretch="normal" font-size="50" text-anchor="start" direction="ltr" writing-mode="lr-tb" unicode-bidi="normal" text-decoration="none" transform="matrix(1 0 0 1 1970.83 1836)">Optimization</text><text fill="#FFFFFF" fill-opacity="1" font-family="Calibri,Calibri_MSFontService,sans-serif" font-style="normal" font-variant="normal" font-weight="700" font-stretch="normal" font-size="50" text-anchor="start" direction="ltr" writing-mode="lr-tb" unicode-bidi="normal" text-decoration="none" transform="matrix(1 0 0 1 2256.72 1836)">Potential </text><path d="M750 1315 750 1340.5 705.5 1366 661 1340.5 661 1315 705.5 1340.5Z" fill="#FFFFFF" fill-rule="evenodd" fill-opacity="1"/><path d="M731 1298 731 1315.5 705.5 1333 680 1315.5 680 1298 705.5 1315.5Z" fill="#FFFFFF" fill-rule="evenodd" fill-opacity="1"/><path d="M1244 1321 1244 1346.5 1199 1372 1154 1346.5 1154 1321 1199 1346.5Z" fill="#FFFFFF" fill-rule="evenodd" fill-opacity="1"/><path d="M1224 1303 1224 1320.5 1199 1338 1174 1320.5 1174 1303 1199 1320.5Z" fill="#FFFFFF" fill-rule="evenodd" fill-opacity="1"/><path d="M1735 1315 1735 1340.5 1690.5 1366 1646 1340.5 1646 1315 1690.5 1340.5Z" fill="#FFFFFF" fill-rule="evenodd" fill-opacity="1"/><path d="M1716 1298 1716 1315.5 1690.5 1333 1665 1315.5 1665 1298 1690.5 1315.5Z" fill="#FFFFFF" fill-rule="evenodd" fill-opacity="1"/><path d="M2765 1312 2765 1337.5 2720.5 1363 2676 1337.5 2676 1312 2720.5 1337.5Z" fill="#FFFFFF" fill-rule="evenodd" fill-opacity="1"/><path d="M2746 1295 2746 1312.5 2720.5 1330 2695 1312.5 2695 1295 2720.5 1312.5Z" fill="#FFFFFF" fill-rule="evenodd" fill-opacity="1"/><path d="M3259 1318 3259 1343.5 3214.5 1369 3170 1343.5 3170 1318 3214.5 1343.5Z" fill="#FFFFFF" fill-rule="evenodd" fill-opacity="1"/><path d="M3240 1300 3240 1317.5 3214.5 1335 3189 1317.5 3189 1300 3214.5 1317.5Z" fill="#FFFFFF" fill-rule="evenodd" fill-opacity="1"/><path d="M3751 1312 3751 1337.5 3706.5 1363 3662 1337.5 3662 1312 3706.5 1337.5Z" fill="#FFFFFF" fill-rule="evenodd" fill-opacity="1"/><path d="M3732 1295 3732 1312.5 3706.5 1330 3681 1312.5 3681 1295 3706.5 1312.5Z" fill="#FFFFFF" fill-rule="evenodd" fill-opacity="1"/><text fill="#FFFFFF" fill-opacity="1" font-family="Calibri,Calibri_MSFontService,sans-serif" font-style="normal" font-variant="normal" font-weight="400" font-stretch="normal" font-size="83" text-anchor="start" direction="ltr" writing-mode="lr-tb" unicode-bidi="normal" text-decoration="none" transform="matrix(1 0 0 1 497.932 1414)">1.3</text><text fill="#FFFFFF" fill-opacity="1" font-family="Calibri,Calibri_MSFontService,sans-serif" font-style="normal" font-variant="normal" font-weight="400" font-stretch="normal" font-size="83" text-anchor="start" direction="ltr" writing-mode="lr-tb" unicode-bidi="normal" text-decoration="none" transform="matrix(1 0 0 1 971.364 1412)">1.2</text><text fill="#FFFFFF" fill-opacity="1" font-family="Calibri,Calibri_MSFontService,sans-serif" font-style="normal" font-variant="normal" font-weight="400" font-stretch="normal" font-size="83" text-anchor="start" direction="ltr" writing-mode="lr-tb" unicode-bidi="normal" text-decoration="none" transform="matrix(1 0 0 1 1471.41 1412)">1.1</text><text fill="#FFFFFF" fill-opacity="1" font-family="Calibri,Calibri_MSFontService,sans-serif" font-style="normal" font-variant="normal" font-weight="400" font-stretch="normal" font-size="83" text-anchor="start" direction="ltr" writing-mode="lr-tb" unicode-bidi="normal" text-decoration="none" transform="matrix(1 0 0 1 2513.61 1409)">2.1</text><text fill="#FFFFFF" fill-opacity="1" font-family="Calibri,Calibri_MSFontService,sans-serif" font-style="normal" font-variant="normal" font-weight="400" font-stretch="normal" font-size="83" text-anchor="start" direction="ltr" writing-mode="lr-tb" unicode-bidi="normal" text-decoration="none" transform="matrix(1 0 0 1 2980.81 1414)">2.2</text><text fill="#FFFFFF" fill-opacity="1" font-family="Calibri,Calibri_MSFontService,sans-serif" font-style="normal" font-variant="normal" font-weight="400" font-stretch="normal" font-size="83" text-anchor="start" direction="ltr" writing-mode="lr-tb" unicode-bidi="normal" text-decoration="none" transform="matrix(1 0 0 1 3467.21 1423)">2.3</text><path d="M1637 796 1690.5 742 1744 796 1690.5 850Z" fill="#B3CB2D" fill-rule="evenodd" fill-opacity="1"/><path d="M518.124 1472 518.124 1521.5 533 1521.5 510.501 1544 488.001 1521.5 502.877 1521.5 502.877 1472Z" fill="#00B050" fill-rule="evenodd" fill-opacity="1"/><path d="M2515 1819.12 2546.12 1819.12 2546.12 1788 2556.88 1788 2556.88 1819.12 2588 1819.12 2588 1829.88 2556.88 1829.88 2556.88 1861 2546.12 1861 2546.12 1829.88 2515 1829.88Z" fill="#00B050" fill-rule="evenodd" fill-opacity="1"/><text fill="#262626" fill-opacity="1" font-family="Calibri,Calibri_MSFontService,sans-serif" font-style="italic" font-variant="normal" font-weight="400" font-stretch="normal" font-size="50" text-anchor="start" direction="ltr" writing-mode="lr-tb" unicode-bidi="normal" text-decoration="none" transform="matrix(1 0 0 1 587.307 1515)">Reduced</text><text fill="#262626" fill-opacity="1" font-family="Calibri,Calibri_MSFontService,sans-serif" font-style="italic" font-variant="normal" font-weight="400" font-stretch="normal" font-size="50" text-anchor="start" direction="ltr" writing-mode="lr-tb" unicode-bidi="normal" text-decoration="none" transform="matrix(1 0 0 1 585.225 1687)">Reduced</text><text fill="#262626" fill-opacity="1" font-family="Calibri,Calibri_MSFontService,sans-serif" font-style="italic" font-variant="normal" font-weight="400" font-stretch="normal" font-size="50" text-anchor="start" direction="ltr" writing-mode="lr-tb" unicode-bidi="normal" text-decoration="none" transform="matrix(1 0 0 1 1067.35 1680)">Reduced</text><text fill="#262626" fill-opacity="1" font-family="Calibri,Calibri_MSFontService,sans-serif" font-style="italic" font-variant="normal" font-weight="400" font-stretch="normal" font-size="50" text-anchor="start" direction="ltr" writing-mode="lr-tb" unicode-bidi="normal" text-decoration="none" transform="matrix(1 0 0 1 1063.53 1522)">Reduced</text><text fill="#262626" fill-opacity="1" font-family="Calibri,Calibri_MSFontService,sans-serif" font-style="italic" font-variant="normal" font-weight="400" font-stretch="normal" font-size="50" text-anchor="start" direction="ltr" writing-mode="lr-tb" unicode-bidi="normal" text-decoration="none" transform="matrix(1 0 0 1 2617.92 1517)">Reduced</text><text fill="#262626" fill-opacity="1" font-family="Calibri,Calibri_MSFontService,sans-serif" font-style="italic" font-variant="normal" font-weight="400" font-stretch="normal" font-size="50" text-anchor="start" direction="ltr" writing-mode="lr-tb" unicode-bidi="normal" text-decoration="none" transform="matrix(1 0 0 1 3127.25 1512)">Reduced</text><path d="M519.124 1639 519.124 1688.5 534 1688.5 511.5 1711 489.001 1688.5 503.876 1688.5 503.876 1639Z" fill="#00B050" fill-rule="evenodd" fill-opacity="1"/><path d="M990.124 1474 990.124 1523.5 1005 1523.5 982.5 1546 960 1523.5 974.876 1523.5 974.876 1474Z" fill="#00B050" fill-rule="evenodd" fill-opacity="1"/><path d="M988.793 1634 988.793 1683 1004 1683 981 1706 958 1683 973.207 1683 973.207 1634Z" fill="#00B050" fill-rule="evenodd" fill-opacity="1"/><path d="M2545.79 1471 2545.79 1519 2561 1519 2538 1542 2515 1519 2530.21 1519 2530.21 1471Z" fill="#00B050" fill-rule="evenodd" fill-opacity="1"/><path d="M3015.79 1473 3015.79 1522 3031 1522 3008 1545 2985 1522 3000.21 1522 3000.21 1473Z" fill="#00B050" fill-rule="evenodd" fill-opacity="1"/><path d="M3015.79 1641 3015.79 1690 3031 1690 3008 1713 2985 1690 3000.21 1690 3000.21 1641Z" fill="#00B050" fill-rule="evenodd" fill-opacity="1"/><path d="M3065.12 1642 3065.12 1691.5 3080 1691.5 3057.5 1714 3035 1691.5 3049.88 1691.5 3049.88 1642Z" fill="#00B050" fill-rule="evenodd" fill-opacity="1"/><path d="M3515.12 1478 3515.12 1527.5 3530 1527.5 3507.5 1550 3485 1527.5 3499.88 1527.5 3499.88 1478Z" fill="#00B050" fill-rule="evenodd" fill-opacity="1"/><path d="M3563.12 1478 3563.12 1527.5 3578 1527.5 3555.5 1550 3533 1527.5 3547.88 1527.5 3547.88 1478Z" fill="#00B050" fill-rule="evenodd" fill-opacity="1"/><path d="M3509.79 1641 3509.79 1690 3525 1690 3502 1713 3479 1690 3494.21 1690 3494.21 1641Z" fill="#00B050" fill-rule="evenodd" fill-opacity="1"/><path d="M3559.12 1641 3559.12 1690.5 3574 1690.5 3551.5 1713 3529 1690.5 3543.88 1690.5 3543.88 1641Z" fill="#00B050" fill-rule="evenodd" fill-opacity="1"/><path d="M3608.79 1641 3608.79 1690 3624 1690 3601 1713 3578 1690 3593.21 1690 3593.21 1641Z" fill="#00B050" fill-rule="evenodd" fill-opacity="1"/><text fill="#262626" fill-opacity="1" font-family="Calibri,Calibri_MSFontService,sans-serif" font-style="italic" font-variant="normal" font-weight="400" font-stretch="normal" font-size="50" text-anchor="start" direction="ltr" writing-mode="lr-tb" unicode-bidi="normal" text-decoration="none" transform="matrix(1 0 0 1 3653.52 1652)">Significantly</text><text fill="#262626" fill-opacity="1" font-family="Calibri,Calibri_MSFontService,sans-serif" font-style="italic" font-variant="normal" font-weight="400" font-stretch="normal" font-size="50" text-anchor="start" direction="ltr" writing-mode="lr-tb" unicode-bidi="normal" text-decoration="none" transform="matrix(1 0 0 1 3690.18 1707)">Reduced</text><text fill="#262626" fill-opacity="1" font-family="Calibri,Calibri_MSFontService,sans-serif" font-style="italic" font-variant="normal" font-weight="400" font-stretch="normal" font-size="50" text-anchor="start" direction="ltr" writing-mode="lr-tb" unicode-bidi="normal" text-decoration="none" transform="matrix(1 0 0 1 3655.38 1492)">Noticeably</text><text fill="#262626" fill-opacity="1" font-family="Calibri,Calibri_MSFontService,sans-serif" font-style="italic" font-variant="normal" font-weight="400" font-stretch="normal" font-size="50" text-anchor="start" direction="ltr" writing-mode="lr-tb" unicode-bidi="normal" text-decoration="none" transform="matrix(1 0 0 1 3676.88 1547)">Reduced</text><text fill="#262626" fill-opacity="1" font-family="Calibri,Calibri_MSFontService,sans-serif" font-style="italic" font-variant="normal" font-weight="400" font-stretch="normal" font-size="50" text-anchor="start" direction="ltr" writing-mode="lr-tb" unicode-bidi="normal" text-decoration="none" transform="matrix(1 0 0 1 3137.89 1658)">Noticeably</text><text fill="#262626" fill-opacity="1" font-family="Calibri,Calibri_MSFontService,sans-serif" font-style="italic" font-variant="normal" font-weight="400" font-stretch="normal" font-size="50" text-anchor="start" direction="ltr" writing-mode="lr-tb" unicode-bidi="normal" text-decoration="none" transform="matrix(1 0 0 1 3159.39 1713)">Reduced</text><text fill="#262626" fill-opacity="1" font-family="Calibri,Calibri_MSFontService,sans-serif" font-style="italic" font-variant="normal" font-weight="400" font-stretch="normal" font-size="50" text-anchor="start" direction="ltr" writing-mode="lr-tb" unicode-bidi="normal" text-decoration="none" transform="matrix(1 0 0 1 2616.42 1837)">Increased</text><text fill="#FFFFFF" fill-opacity="1" font-family="Calibri,Calibri_MSFontService,sans-serif" font-style="normal" font-variant="normal" font-weight="400" font-stretch="normal" font-size="50" text-anchor="start" direction="ltr" writing-mode="lr-tb" unicode-bidi="normal" text-decoration="none" transform="matrix(1 0 0 1 159.726 2039)">a = </text><text fill="#FFFFFF" fill-opacity="1" font-family="Calibri,Calibri_MSFontService,sans-serif" font-style="normal" font-variant="normal" font-weight="400" font-stretch="normal" font-size="50" text-anchor="start" direction="ltr" writing-mode="lr-tb" unicode-bidi="normal" text-decoration="none" transform="matrix(1 0 0 1 231.913 2039)">Probability of a general bottleneck occurring</text><text fill="#FFFFFF" fill-opacity="1" font-family="Calibri,Calibri_MSFontService,sans-serif" font-style="normal" font-variant="normal" font-weight="400" font-stretch="normal" font-size="50" text-anchor="start" direction="ltr" writing-mode="lr-tb" unicode-bidi="normal" text-decoration="none" transform="matrix(1 0 0 1 159.726 2139)">b = </text><text fill="#FFFFFF" fill-opacity="1" font-family="Calibri,Calibri_MSFontService,sans-serif" font-style="normal" font-variant="normal" font-weight="400" font-stretch="normal" font-size="50" text-anchor="start" direction="ltr" writing-mode="lr-tb" unicode-bidi="normal" text-decoration="none" transform="matrix(1 0 0 1 234.205 2139)">Conditional</text><text fill="#FFFFFF" fill-opacity="1" font-family="Calibri,Calibri_MSFontService,sans-serif" font-style="normal" font-variant="normal" font-weight="400" font-stretch="normal" font-size="50" text-anchor="start" direction="ltr" writing-mode="lr-tb" unicode-bidi="normal" text-decoration="none" transform="matrix(1 0 0 1 479.413 2139)">probability</text><text fill="#FFFFFF" fill-opacity="1" font-family="Calibri,Calibri_MSFontService,sans-serif" font-style="normal" font-variant="normal" font-weight="400" font-stretch="normal" font-size="50" text-anchor="start" direction="ltr" writing-mode="lr-tb" unicode-bidi="normal" text-decoration="none" transform="matrix(1 0 0 1 712.018 2139)">of</text><text fill="#FFFFFF" fill-opacity="1" font-family="Calibri,Calibri_MSFontService,sans-serif" font-style="normal" font-variant="normal" font-weight="400" font-stretch="normal" font-size="50" text-anchor="start" direction="ltr" writing-mode="lr-tb" unicode-bidi="normal" text-decoration="none" transform="matrix(1 0 0 1 765.299 2139)">a </text><text fill="#FFFFFF" fill-opacity="1" font-family="Calibri,Calibri_MSFontService,sans-serif" font-style="normal" font-variant="normal" font-weight="400" font-stretch="normal" font-size="50" text-anchor="start" direction="ltr" writing-mode="lr-tb" unicode-bidi="normal" text-decoration="none" transform="matrix(1 0 0 1 800.82 2139)">widespread</text><text fill="#FFFFFF" fill-opacity="1" font-family="Calibri,Calibri_MSFontService,sans-serif" font-style="normal" font-variant="normal" font-weight="400" font-stretch="normal" font-size="50" text-anchor="start" direction="ltr" writing-mode="lr-tb" unicode-bidi="normal" text-decoration="none" transform="matrix(1 0 0 1 1050.61 2139)">bottleneck</text><text fill="#FFFFFF" fill-opacity="1" font-family="Calibri,Calibri_MSFontService,sans-serif" font-style="normal" font-variant="normal" font-weight="400" font-stretch="normal" font-size="50" text-anchor="start" direction="ltr" writing-mode="lr-tb" unicode-bidi="normal" text-decoration="none" transform="matrix(1 0 0 1 1280.35 2139)">given</text><text fill="#FFFFFF" fill-opacity="1" font-family="Calibri,Calibri_MSFontService,sans-serif" font-style="normal" font-variant="normal" font-weight="400" font-stretch="normal" font-size="50" text-anchor="start" direction="ltr" writing-mode="lr-tb" unicode-bidi="normal" text-decoration="none" transform="matrix(1 0 0 1 1401.24 2139)">Bottleneck</text><text fill="#FFFFFF" fill-opacity="1" font-family="Calibri,Calibri_MSFontService,sans-serif" font-style="normal" font-variant="normal" font-weight="400" font-stretch="normal" font-size="50" text-anchor="start" direction="ltr" writing-mode="lr-tb" unicode-bidi="normal" text-decoration="none" transform="matrix(1 0 0 1 2247.48 2039)">m = </text><text fill="#FFFFFF" fill-opacity="1" font-family="Calibri,Calibri_MSFontService,sans-serif" font-style="normal" font-variant="normal" font-weight="400" font-stretch="normal" font-size="50" text-anchor="start" direction="ltr" writing-mode="lr-tb" unicode-bidi="normal" text-decoration="none" transform="matrix(1 0 0 1 2335.71 2039)">Reduction</text><text fill="#FFFFFF" fill-opacity="1" font-family="Calibri,Calibri_MSFontService,sans-serif" font-style="normal" font-variant="normal" font-weight="400" font-stretch="normal" font-size="50" text-anchor="start" direction="ltr" writing-mode="lr-tb" unicode-bidi="normal" text-decoration="none" transform="matrix(1 0 0 1 2554.56 2039)">Parameter </text><text fill="#FFFFFF" fill-opacity="1" font-family="Calibri,Calibri_MSFontService,sans-serif" font-style="normal" font-variant="normal" font-weight="400" font-stretch="normal" font-size="50" text-anchor="start" direction="ltr" writing-mode="lr-tb" unicode-bidi="normal" text-decoration="none" transform="matrix(1 0 0 1 2782.58 2039)">of a general bottleneck occurring</text><text fill="#FFFFFF" fill-opacity="1" font-family="Calibri,Calibri_MSFontService,sans-serif" font-style="normal" font-variant="normal" font-weight="400" font-stretch="normal" font-size="50" text-anchor="start" direction="ltr" writing-mode="lr-tb" unicode-bidi="normal" text-decoration="none" transform="matrix(1 0 0 1 2247.48 2139)">n = </text><text fill="#FFFFFF" fill-opacity="1" font-family="Calibri,Calibri_MSFontService,sans-serif" font-style="normal" font-variant="normal" font-weight="400" font-stretch="normal" font-size="50" text-anchor="start" direction="ltr" writing-mode="lr-tb" unicode-bidi="normal" text-decoration="none" transform="matrix(1 0 0 1 2321.96 2139)">Reduction</text><text fill="#FFFFFF" fill-opacity="1" font-family="Calibri,Calibri_MSFontService,sans-serif" font-style="normal" font-variant="normal" font-weight="400" font-stretch="normal" font-size="50" text-anchor="start" direction="ltr" writing-mode="lr-tb" unicode-bidi="normal" text-decoration="none" transform="matrix(1 0 0 1 2540.81 2139)">Parameter </text><text fill="#FFFFFF" fill-opacity="1" font-family="Calibri,Calibri_MSFontService,sans-serif" font-style="normal" font-variant="normal" font-weight="400" font-stretch="normal" font-size="50" text-anchor="start" direction="ltr" writing-mode="lr-tb" unicode-bidi="normal" text-decoration="none" transform="matrix(1 0 0 1 2768.83 2139)">of a </text><text fill="#FFFFFF" fill-opacity="1" font-family="Calibri,Calibri_MSFontService,sans-serif" font-style="normal" font-variant="normal" font-weight="400" font-stretch="normal" font-size="50" text-anchor="start" direction="ltr" writing-mode="lr-tb" unicode-bidi="normal" text-decoration="none" transform="matrix(1 0 0 1 2857.64 2139)">a </text><text fill="#FFFFFF" fill-opacity="1" font-family="Calibri,Calibri_MSFontService,sans-serif" font-style="normal" font-variant="normal" font-weight="400" font-stretch="normal" font-size="50" text-anchor="start" direction="ltr" writing-mode="lr-tb" unicode-bidi="normal" text-decoration="none" transform="matrix(1 0 0 1 2893.16 2139)">widespread</text><text fill="#FFFFFF" fill-opacity="1" font-family="Calibri,Calibri_MSFontService,sans-serif" font-style="normal" font-variant="normal" font-weight="400" font-stretch="normal" font-size="50" text-anchor="start" direction="ltr" writing-mode="lr-tb" unicode-bidi="normal" text-decoration="none" transform="matrix(1 0 0 1 3142.95 2139)">bottleneck</text><text fill="#FFFFFF" fill-opacity="1" font-family="Calibri,Calibri_MSFontService,sans-serif" font-style="normal" font-variant="normal" font-weight="400" font-stretch="normal" font-size="50" text-anchor="start" direction="ltr" writing-mode="lr-tb" unicode-bidi="normal" text-decoration="none" transform="matrix(1 0 0 1 3372.69 2139)">given</text><text fill="#FFFFFF" fill-opacity="1" font-family="Calibri,Calibri_MSFontService,sans-serif" font-style="normal" font-variant="normal" font-weight="400" font-stretch="normal" font-size="50" text-anchor="start" direction="ltr" writing-mode="lr-tb" unicode-bidi="normal" text-decoration="none" transform="matrix(1 0 0 1 3493.57 2139)">Bottleneck</text></g></g></svg>