<svg width="4176" height="1599" xmlns="http://www.w3.org/2000/svg" xmlns:xlink="http://www.w3.org/1999/xlink" xml:space="preserve" overflow="hidden"><g transform="translate(-146 -183)"><g><rect x="238" y="254" width="4043" height="1519" fill="#000000" fill-opacity="1"/><text fill="#FFA600" fill-opacity="1" font-family="Calibri,Calibri_MSFontService,sans-serif" font-style="normal" font-variant="normal" font-weight="400" font-stretch="normal" font-size="160" text-anchor="start" direction="ltr" writing-mode="lr-tb" unicode-bidi="normal" text-decoration="none" transform="matrix(1 0 0 1 248.158 386)">Options to Participate in PURIS</text><g><g><g><path d="M668.5 111.417 95.5 111.417C77.9408 111.469 63.7191 125.691 63.6667 143.25L63.6667 525.369C63.7235 542.927 77.9425 557.146 95.5 557.203L326.292 557.203 326.292 636.786 238.75 636.786 238.75 652.703 525.25 652.703 525.25 636.786 437.708 636.786 437.708 557.203 668.5 557.203C686.058 557.146 700.277 542.927 700.333 525.369L700.333 143.25C700.281 125.691 686.059 111.469 668.5 111.417ZM421.792 636.818 342.208 636.818 342.208 557.235 421.792 557.235ZM684.417 525.401C684.417 534.192 677.291 541.318 668.5 541.318L95.5 541.318C86.7092 541.318 79.5834 534.192 79.5834 525.401L79.5834 143.25C79.5834 134.459 86.7092 127.333 95.5 127.333L668.5 127.333C677.291 127.333 684.417 134.459 684.417 143.25Z" fill="#FFFFFF" fill-rule="nonzero" fill-opacity="1" transform="matrix(1.00131 0 0 1 299 523)"/><path d="M119.375 151.208 103.458 151.208 103.458 517.403 660.542 517.403 660.542 151.208 119.375 151.208ZM644.625 501.487 119.375 501.487 119.375 167.125 644.625 167.125Z" fill="#FFFFFF" fill-rule="nonzero" fill-opacity="1" transform="matrix(1.00131 0 0 1 299 523)"/></g></g></g><g><g><g><path d="M898.708 790.792 818.292 790.792 818.292 742.542 898.708 742.542 898.708 790.792ZM898.708 855.125 818.292 855.125 818.292 806.875 898.708 806.875 898.708 855.125ZM898.708 919.458 818.292 919.458 818.292 871.208 898.708 871.208 898.708 919.458ZM721.792 919.458 721.792 871.208 802.208 871.208 802.208 919.458 721.792 919.458ZM625.292 919.458 625.292 871.208 705.708 871.208 705.708 919.458 625.292 919.458ZM625.292 806.875 705.708 806.875 705.708 855.125 625.292 855.125 625.292 806.875ZM625.292 742.542 705.708 742.542 705.708 790.792 625.292 790.792 625.292 742.542ZM802.208 806.875 802.208 855.125 721.792 855.125 721.792 806.875 802.208 806.875ZM802.208 742.542 802.208 790.792 721.792 790.792 721.792 742.542 802.208 742.542ZM601.167 718.417 601.167 943.583 922.833 943.583 922.833 718.417 601.167 718.417Z" fill="#FFFFFF" fill-rule="nonzero" fill-opacity="1"/></g></g></g><g><g><g><path d="M430.187 911.469 560.812 911.469 560.812 823.813 430.187 823.813ZM433.625 908.031 433.625 883.969 473.156 883.969 473.156 908.031ZM514.406 856.469 514.406 880.531 476.594 880.531 476.594 856.469ZM476.594 853.031 476.594 827.25 514.406 827.25 514.406 853.031ZM517.844 856.469 557.375 856.469 557.375 880.531 517.844 880.531ZM473.156 880.531 433.625 880.531 433.625 856.469 473.156 856.469ZM476.594 908.031 476.594 883.969 514.406 883.969 514.406 908.031ZM517.844 908.031 517.844 883.969 557.375 883.969 557.375 908.031ZM557.375 853.031 517.844 853.031 517.844 827.25 557.375 827.25ZM473.156 827.25 473.156 853.031 433.625 853.031 433.625 827.25Z" fill="#FFFFFF" fill-rule="nonzero" fill-opacity="1"/></g></g></g><g><g><g><path d="M430.187 803.469 560.812 803.469 560.812 715.812 430.187 715.812ZM433.625 800.031 433.625 775.969 473.156 775.969 473.156 800.031ZM514.406 748.469 514.406 772.531 476.594 772.531 476.594 748.469ZM476.594 745.031 476.594 719.25 514.406 719.25 514.406 745.031ZM517.844 748.469 557.375 748.469 557.375 772.531 517.844 772.531ZM473.156 772.531 433.625 772.531 433.625 748.469 473.156 748.469ZM476.594 800.031 476.594 775.969 514.406 775.969 514.406 800.031ZM517.844 800.031 517.844 775.969 557.375 775.969 557.375 800.031ZM557.375 745.031 517.844 745.031 517.844 719.25 557.375 719.25ZM473.156 719.25 473.156 745.031 433.625 745.031 433.625 719.25Z" fill="#FFFFFF" fill-rule="nonzero" fill-opacity="1"/></g></g></g><g><g><g><path d="M669.375 111.562 95.625 111.562C78.0427 111.615 63.8025 125.855 63.75 143.437L63.75 526.057C63.8069 543.638 78.0445 557.875 95.625 557.932L326.719 557.932 326.719 637.619 239.062 637.619 239.062 653.557 525.937 653.557 525.937 637.619 438.281 637.619 438.281 557.932 669.375 557.932C686.956 557.875 701.193 543.638 701.25 526.057L701.25 143.437C701.197 125.855 686.957 111.615 669.375 111.562ZM422.344 637.651 342.656 637.651 342.656 557.964 422.344 557.964ZM685.312 526.089C685.312 534.891 678.177 542.026 669.375 542.026L95.625 542.026C86.8227 542.026 79.6875 534.891 79.6875 526.089L79.6875 143.437C79.6875 134.635 86.8227 127.5 95.625 127.5L669.375 127.5C678.177 127.5 685.312 134.635 685.312 143.437Z" fill="#FFFFFF" fill-rule="nonzero" fill-opacity="1" transform="matrix(1 0 0 1 1746 553)"/><path d="M119.531 151.406 103.594 151.406 103.594 518.08 661.406 518.08 661.406 151.406 119.531 151.406ZM645.469 502.143 119.531 502.143 119.531 167.344 645.469 167.344Z" fill="#FFFFFF" fill-rule="nonzero" fill-opacity="1" transform="matrix(1 0 0 1 1746 553)"/></g></g></g><g><g><g><path d="M1876.19 941.469 2006.81 941.469 2006.81 853.813 1876.19 853.813ZM1879.62 938.031 1879.62 913.969 1919.16 913.969 1919.16 938.031ZM1960.41 886.469 1960.41 910.531 1922.59 910.531 1922.59 886.469ZM1922.59 883.031 1922.59 857.25 1960.41 857.25 1960.41 883.031ZM1963.84 886.469 2003.38 886.469 2003.38 910.531 1963.84 910.531ZM1919.16 910.531 1879.62 910.531 1879.62 886.469 1919.16 886.469ZM1922.59 938.031 1922.59 913.969 1960.41 913.969 1960.41 938.031ZM1963.84 938.031 1963.84 913.969 2003.38 913.969 2003.38 938.031ZM2003.38 883.031 1963.84 883.031 1963.84 857.25 2003.38 857.25ZM1919.16 857.25 1919.16 883.031 1879.62 883.031 1879.62 857.25Z" fill="#FFFFFF" fill-rule="nonzero" fill-opacity="1"/></g></g></g><g><g><g><path d="M1876.19 833.469 2006.81 833.469 2006.81 745.813 1876.19 745.813ZM1879.62 830.031 1879.62 805.969 1919.16 805.969 1919.16 830.031ZM1960.41 778.469 1960.41 802.531 1922.59 802.531 1922.59 778.469ZM1922.59 775.031 1922.59 749.25 1960.41 749.25 1960.41 775.031ZM1963.84 778.469 2003.38 778.469 2003.38 802.531 1963.84 802.531ZM1919.16 802.531 1879.62 802.531 1879.62 778.469 1919.16 778.469ZM1922.59 830.031 1922.59 805.969 1960.41 805.969 1960.41 830.031ZM1963.84 830.031 1963.84 805.969 2003.38 805.969 2003.38 830.031ZM2003.38 775.031 1963.84 775.031 1963.84 749.25 2003.38 749.25ZM1919.16 749.25 1919.16 775.031 1879.62 775.031 1879.62 749.25Z" fill="#FFFFFF" fill-rule="nonzero" fill-opacity="1"/></g></g></g><g><g><g><path d="M209.052 143.693 209.052 126.313C209.052 114.563 190.203 106.729 167.438 103.547L167.438 89.5938C167.438 85.6771 165.234 80.2917 155.198 75.1511L155.198 57.7709C155.198 41.8594 121.172 33.2917 89.1042 33.2917 57.0365 33.2917 23.0104 41.8594 23.0104 57.7709L23.0104 77.3542C23.0104 83.2292 27.6615 88.125 35.25 92.0417L35.25 109.177C35.25 109.177 35.25 109.177 35.25 109.422 25.2136 114.563 23.0104 120.193 23.0104 123.865L23.0104 143.448C23.0104 159.359 57.0365 167.927 89.1042 167.927L89.1042 177.719C89.1042 193.63 123.13 202.198 155.198 202.198 187.266 202.198 221.292 193.63 221.292 177.719L221.292 158.135C221.292 154.464 219.089 148.833 209.052 143.693ZM216.396 158.38C216.396 167.682 191.182 177.964 155.198 177.964 126.557 177.964 104.771 171.354 96.9375 164.01 96.9375 164.01 96.9375 164.01 96.9375 164.01 111.87 168.662 127.292 170.865 142.714 170.62 172.578 170.62 204.401 163.031 208.318 149.323 213.703 152.016 216.396 155.198 216.396 158.38ZM174.781 181.635 174.781 196.323C171.599 196.568 168.417 197.057 164.99 197.057L164.99 182.37C168.417 182.37 171.599 182.125 174.781 181.635ZM179.677 181.146C183.104 180.656 186.287 180.167 189.469 179.432L189.469 193.875C186.531 194.609 183.104 195.099 179.677 195.589L179.677 181.146ZM194.365 178.208C197.792 177.474 200.974 176.25 204.156 175.026L204.156 189.224C200.974 190.693 197.792 191.672 194.365 192.651L194.365 178.208ZM116.031 192.651C112.604 191.672 109.422 190.693 106.24 189.224L106.24 175.026C109.422 176.25 112.604 177.229 116.031 178.208L116.031 192.651ZM120.927 179.432C124.109 180.167 127.292 180.656 130.719 181.146L130.719 195.833C127.292 195.344 123.865 194.609 120.927 194.12L120.927 179.432ZM135.615 181.635C138.797 181.88 142.224 182.37 145.406 182.37L145.406 197.057C141.979 196.813 138.797 196.568 135.615 196.323L135.615 181.635ZM76.8646 126.557 76.8646 127.292C73.4375 126.802 70.0105 126.068 67.073 125.578L67.073 111.135C70.2552 111.87 73.4375 112.359 76.8646 112.849L76.8646 126.557ZM81.7605 146.141 81.7605 136.349C83.9636 138.307 86.4115 140.021 89.1042 141.245L89.1042 155.198C84.4532 152.016 81.7605 149.078 81.7605 146.141ZM204.156 146.141C204.156 149.078 201.464 152.26 196.813 154.953L196.813 141C199.505 139.776 201.953 138.063 204.156 136.104L204.156 146.141ZM191.917 157.401C188.734 158.87 185.552 159.849 182.125 160.828L182.125 146.385C185.552 145.651 188.734 144.427 191.917 143.203L191.917 157.401ZM177.229 162.052C174.292 162.787 170.865 163.276 167.438 163.766L167.438 149.078C170.865 148.589 174.047 148.099 177.229 147.365L177.229 162.052ZM162.542 164.5C159.359 164.745 156.177 165.234 152.75 165.234L152.75 150.547C155.932 150.302 159.359 150.057 162.542 149.813L162.542 164.5ZM147.854 165.479C146.141 165.479 144.672 165.479 142.958 165.479 141.245 165.479 139.776 165.479 138.063 165.479L138.063 150.792C139.776 150.792 141.245 150.792 142.958 150.792 144.672 150.792 146.141 150.792 147.854 150.792L147.854 165.479ZM133.167 165.479C129.74 165.234 126.557 164.99 123.375 164.745L123.375 150.057C126.557 150.302 129.984 150.792 133.167 150.792L133.167 165.479ZM118.479 164.01C115.052 163.521 111.625 162.787 108.688 162.297L108.688 147.854C111.87 148.589 115.052 149.078 118.479 149.568L118.479 164.01ZM103.792 160.828C100.365 159.849 97.1823 158.87 94.0001 157.401L94.0001 143.203C97.1823 144.427 100.365 145.406 103.792 146.385L103.792 160.828ZM204.156 126.557C204.156 135.859 178.943 146.141 142.958 146.141 106.974 146.141 81.7605 135.859 81.7605 126.557 81.7605 117.255 106.974 106.974 142.958 106.974 178.943 106.974 204.156 117.255 204.156 126.557ZM81.7605 116.766 81.7605 113.094C83.2292 113.339 84.698 113.339 86.1667 113.583 84.698 114.563 83.2292 115.542 81.7605 116.766ZM158.38 102.568C159.849 101.589 161.318 100.609 162.787 99.3855L162.787 103.057C161.073 102.813 159.849 102.813 158.38 102.568ZM154.708 80.5365C159.849 83.474 162.542 86.6563 162.542 89.5938 162.542 93.7553 157.156 98.4063 148.099 101.833 146.385 101.833 144.672 101.833 142.958 101.833 125.823 101.833 107.953 104.281 95.224 109.177 69.5209 108.443 50.4271 102.323 43.3281 95.4688 43.3281 95.4688 43.3281 95.4688 43.3281 95.4688 58.2604 100.12 73.6823 102.323 89.1042 102.078 118.969 102.078 150.792 94.4896 154.708 80.5365ZM62.1771 109.667 62.1771 124.109C58.75 123.13 55.5677 122.151 52.3854 120.682L52.3854 106.484C55.5677 107.708 58.9948 108.932 62.1771 109.667ZM47.4896 104.281 47.4896 118.234C42.8386 115.297 40.1459 112.359 40.1459 109.422L40.1459 99.6303C42.349 101.344 44.7969 103.057 47.4896 104.281ZM40.1459 88.8594 40.1459 74.6615C43.3281 75.8855 46.5104 76.8646 49.9375 77.8438L49.9375 92.2865C46.7552 91.3073 43.3281 90.3282 40.1459 88.8594ZM54.8334 93.5105 54.8334 79.0677C58.0157 79.8021 61.1979 80.2917 64.625 80.7813L64.625 95.4688C61.1979 94.9792 58.0157 94.2448 54.8334 93.5105ZM69.5209 95.9584 69.5209 81.2709C72.7032 81.5157 76.1302 82.0052 79.3125 82.0052L79.3125 96.6928C75.8855 96.6928 72.7032 96.448 69.5209 95.9584ZM84.2084 96.9375 84.2084 82.25C85.9219 82.25 87.3907 82.25 89.1042 82.25 90.8177 82.25 92.2865 82.25 94.0001 82.25L94.0001 96.9375C92.2865 96.9375 90.8177 96.9375 89.1042 96.9375 87.3907 96.9375 85.9219 97.1823 84.2084 96.9375ZM98.8959 96.9375 98.8959 82.25C102.078 82.0052 105.505 81.7605 108.688 81.5157L108.688 96.2032C105.505 96.448 102.323 96.6928 98.8959 96.9375ZM113.583 95.4688 113.583 80.7813C117.01 80.2917 120.193 79.8021 123.375 79.0677L123.375 93.5105C120.438 94.2448 117.01 94.9792 113.583 95.4688ZM128.271 92.2865 128.271 77.8438C131.698 77.1094 134.88 75.8855 138.063 74.6615L138.063 88.8594C134.88 90.3282 131.698 91.3073 128.271 92.2865ZM142.958 86.4115 142.958 72.4584C145.651 71.2344 148.099 69.5209 150.302 67.5625L150.302 77.3542C150.302 80.5365 147.854 83.474 142.958 86.4115ZM35.25 86.4115C30.599 83.474 27.9063 80.5365 27.9063 77.599L27.9063 67.8073C30.1094 69.7657 32.5573 71.4792 35.25 72.7032L35.25 86.4115ZM27.9063 58.0157C27.9063 48.7136 53.1198 38.4323 89.1042 38.4323 125.089 38.4323 150.302 48.7136 150.302 58.0157 150.302 67.3177 125.089 77.599 89.1042 77.599 53.1198 77.599 27.9063 67.073 27.9063 58.0157ZM36.474 114.318C40.8802 123.375 57.5261 129.25 76.8646 131.943L76.8646 142.958C47.4896 141 27.9063 131.943 27.9063 123.865 27.9063 120.682 31.0886 117.5 36.474 114.318ZM35.25 152.505C30.599 149.568 27.9063 146.63 27.9063 143.693L27.9063 133.901C30.1094 135.859 32.5573 137.573 35.25 138.797L35.25 152.505ZM49.9375 158.38C46.5104 157.401 43.3281 156.422 40.1459 154.953L40.1459 140.755C43.3281 141.979 46.5104 142.958 49.9375 143.938L49.9375 158.38ZM64.625 161.563C61.1979 161.073 57.7709 160.339 54.8334 159.849L54.8334 145.406C58.0157 146.141 61.1979 146.63 64.625 147.12L64.625 161.563ZM69.5209 147.365C71.9688 147.609 74.4167 147.854 77.1094 148.099 77.3542 149.813 78.3334 151.526 79.3125 153.24L79.3125 163.031C75.8855 162.787 72.7032 162.542 69.5209 162.297L69.5209 147.365ZM84.2084 157.646C85.6771 158.625 87.3907 159.604 89.1042 160.583L89.1042 163.031C87.3907 163.031 85.9219 163.031 84.2084 163.031L84.2084 157.646ZM94.0001 177.964 94.0001 168.172C96.2032 170.13 98.6511 171.844 101.344 173.068L101.344 187.021C96.6928 183.839 94.0001 180.901 94.0001 177.964ZM150.302 182.615C152.016 182.615 153.484 182.615 155.198 182.615 156.912 182.615 158.38 182.615 160.094 182.615L160.094 197.302C158.38 197.302 156.912 197.302 155.198 197.302 153.484 197.302 152.016 197.302 150.302 197.302L150.302 182.615ZM209.052 172.823C211.745 171.599 214.193 169.886 216.396 167.927L216.396 177.719C216.396 180.656 213.703 183.839 209.052 186.531L209.052 172.823Z" stroke="#FFFFFF" stroke-width="2.44792" stroke-linecap="butt" stroke-linejoin="miter" stroke-miterlimit="4" stroke-opacity="1" fill="#FFFFFF" fill-rule="nonzero" fill-opacity="1" transform="matrix(1 0 0 1.00425 1012 642)"/></g></g></g><g><g><g><path d="M2614 767.88C2623.5 767.88 2631.2 775.584 2631.2 785.088 2631.2 794.592 2623.5 802.296 2614 802.296 2604.49 802.296 2596.79 794.592 2596.79 785.088 2596.8 775.59 2604.5 767.893 2614 767.88M2614 762.963C2601.78 762.963 2591.87 772.868 2591.87 785.088 2591.87 797.307 2601.78 807.213 2614 807.213 2626.22 807.213 2636.12 797.307 2636.12 785.088 2636.12 772.868 2626.22 762.963 2614 762.963Z" stroke="#FFFFFF" stroke-width="2.45833" stroke-linecap="butt" stroke-linejoin="miter" stroke-miterlimit="4" stroke-opacity="1" fill="#FFFFFF" fill-rule="nonzero" fill-opacity="1"/><path d="M2658.3 857.387 2653.38 857.387 2653.38 836.462C2653.46 833.946 2652.28 831.556 2650.23 830.095 2644.47 825.58 2637.78 822.381 2630.65 820.721 2625.22 819.083 2619.6 818.166 2613.93 817.993 2608.37 818.017 2602.85 818.917 2597.57 820.66 2590.46 822.594 2583.76 825.787 2577.78 830.088 2575.8 831.616 2574.63 833.975 2574.62 836.479L2574.62 857.395 2569.7 857.395 2569.7 836.462C2569.73 832.407 2571.64 828.593 2574.86 826.137 2581.3 821.499 2588.51 818.052 2596.16 815.96 2601.91 814.069 2607.92 813.099 2613.98 813.083 2620.05 813.257 2626.08 814.23 2631.9 815.977 2639.64 817.788 2646.9 821.263 2653.16 826.162 2656.49 828.554 2658.41 832.438 2658.29 836.531Z" stroke="#FFFFFF" stroke-width="2.45833" stroke-linecap="butt" stroke-linejoin="miter" stroke-miterlimit="4" stroke-opacity="1" fill="#FFFFFF" fill-rule="nonzero" fill-opacity="1"/><path d="M2553.81 733.401C2563.32 733.401 2571.02 741.106 2571.02 750.61 2571.02 760.114 2563.32 767.818 2553.81 767.818 2544.31 767.818 2536.6 760.114 2536.6 750.61 2536.62 741.112 2544.31 733.415 2553.81 733.401M2553.81 728.485C2541.59 728.485 2531.69 738.39 2531.69 750.61 2531.69 762.829 2541.59 772.735 2553.81 772.735 2566.03 772.735 2575.94 762.829 2575.94 750.61 2575.94 738.39 2566.03 728.485 2553.81 728.485Z" stroke="#FFFFFF" stroke-width="2.45833" stroke-linecap="butt" stroke-linejoin="miter" stroke-miterlimit="4" stroke-opacity="1" fill="#FFFFFF" fill-rule="nonzero" fill-opacity="1"/><path d="M2587.09 787.681C2582.31 784.845 2577.13 782.759 2571.72 781.496 2565.9 779.747 2559.88 778.773 2553.8 778.6 2547.74 778.614 2541.72 779.586 2535.96 781.479 2528.31 783.568 2521.1 787.014 2514.66 791.654 2511.44 794.11 2509.53 797.924 2509.5 801.979L2509.5 822.917 2514.42 822.917 2514.42 801.996C2514.43 799.492 2515.59 797.133 2517.58 795.605 2523.56 791.305 2530.26 788.113 2537.37 786.179 2542.65 784.435 2548.18 783.536 2553.75 783.515 2559.42 783.688 2565.04 784.606 2570.47 786.246 2577.06 787.787 2583.27 790.644 2588.73 794.646 2587.87 792.408 2587.32 790.066 2587.09 787.681Z" stroke="#FFFFFF" stroke-width="2.45833" stroke-linecap="butt" stroke-linejoin="miter" stroke-miterlimit="4" stroke-opacity="1" fill="#FFFFFF" fill-rule="nonzero" fill-opacity="1"/><path d="M2679.97 665.583C2680.11 665.589 2680.23 665.71 2680.23 665.856L2680.23 729.254C2680.23 729.387 2680.14 729.502 2680.01 729.525L2620.22 729.525 2618.78 731 2606.82 743.168 2606.82 729.52 2587.18 729.52C2587.07 729.52 2586.94 729.385 2586.94 729.176L2586.94 665.829C2586.94 665.711 2587.02 665.607 2587.13 665.583L2679.97 665.583M2680.01 660.667 2587.15 660.667C2584.31 660.694 2582.02 663.014 2582.04 665.856L2582.04 729.176C2581.98 732.026 2584.25 734.381 2587.1 734.436L2601.9 734.436 2601.9 755.192 2622.28 734.436 2680.01 734.436C2682.85 734.409 2685.15 732.095 2685.15 729.249L2685.15 665.856C2685.15 663.01 2682.85 660.695 2680.01 660.667Z" stroke="#FFFFFF" stroke-width="2.45833" stroke-linecap="butt" stroke-linejoin="miter" stroke-miterlimit="4" stroke-opacity="1" fill="#FFFFFF" fill-rule="nonzero" fill-opacity="1"/><path d="M2633.34 672.671 2633.1 672.671C2632.52 672.638 2631.95 672.638 2631.38 672.671 2623.59 673.138 2617.56 679.687 2617.75 687.49L2617.75 687.79 2622.69 687.79 2622.69 687.477C2622.68 687.106 2622.69 686.734 2622.73 686.364 2623.16 681.399 2627.33 677.595 2632.31 677.615 2632.58 677.612 2632.85 677.624 2633.11 677.651L2633.51 677.651C2639.16 677.75 2643.67 682.41 2643.58 688.067 2643.58 693.751 2639.39 697.571 2633.15 697.571L2630.69 697.571 2630.69 709.661 2635.64 709.661 2635.64 702.37 2636.4 702.276C2643.53 701.399 2648.8 695.222 2648.55 688.048L2648.55 687.708C2648.43 679.388 2641.66 672.698 2633.34 672.671Z" stroke="#FFFFFF" stroke-width="2.45833" stroke-linecap="butt" stroke-linejoin="miter" stroke-miterlimit="4" stroke-opacity="1" fill="#FFFFFF" fill-rule="nonzero" fill-opacity="1"/><path d="M2633.15 722.125C2630.92 722.126 2629.12 720.32 2629.12 718.09 2629.11 715.861 2630.92 714.053 2633.15 714.052 2635.36 714.051 2637.16 715.824 2637.19 718.032 2637.23 720.247 2635.47 722.08 2633.26 722.125 2633.25 722.125 2633.25 722.125 2633.25 722.125Z" stroke="#FFFFFF" stroke-width="2.45833" stroke-linecap="butt" stroke-linejoin="miter" stroke-miterlimit="4" stroke-opacity="1" fill="#FFFFFF" fill-rule="nonzero" fill-opacity="1"/></g></g></g><g><g><g><path d="M2659.54 964.399C2660.59 964.396 2661.63 964.45 2662.66 964.562L2647.38 979.847 2652.61 999.383 2672.16 1004.62 2687.21 989.407C2688.79 1004.69 2677.68 1018.36 2662.4 1019.94 2661.47 1020.04 2660.54 1020.09 2659.61 1020.09 2657.22 1020.09 2654.83 1019.78 2652.53 1019.15L2650.18 1018.51 2565.47 1103.21 2566.17 1105.6C2568.99 1115.62 2565.89 1126.38 2558.16 1133.36 2553.04 1138.02 2546.37 1140.6 2539.46 1140.6 2538.41 1140.6 2537.37 1140.55 2536.34 1140.44L2551.62 1125.15 2546.4 1105.62 2527.07 1100.39 2511.8 1115.64C2510.19 1100.36 2521.28 1086.67 2536.56 1085.06 2537.5 1084.96 2538.45 1084.91 2539.39 1084.91 2541.78 1084.91 2544.17 1085.22 2546.47 1085.85L2548.82 1086.49 2633.53 1001.79 2632.83 999.404C2630.01 989.381 2633.11 978.622 2640.84 971.641 2645.96 966.983 2652.63 964.401 2659.54 964.399M2659.54 960.211C2641.96 960.186 2627.68 974.423 2627.65 992.011 2627.65 994.905 2628.04 997.786 2628.81 1000.57L2547.57 1081.81C2544.91 1081.09 2542.16 1080.72 2539.39 1080.72 2521.71 1080.76 2507.42 1095.13 2507.46 1112.81 2507.47 1116.59 2508.15 1120.35 2509.47 1123.9L2528.31 1105.05 2542.97 1109.03 2546.95 1123.9 2528.1 1142.74C2531.74 1144.09 2535.58 1144.78 2539.46 1144.79 2557.04 1144.81 2571.32 1130.58 2571.35 1112.99 2571.35 1110.09 2570.96 1107.21 2570.19 1104.42L2651.43 1023.19C2654.09 1023.91 2656.84 1024.28 2659.61 1024.28 2677.29 1024.24 2691.58 1009.87 2691.54 992.192 2691.53 988.406 2690.85 984.651 2689.53 981.103L2670.9 999.947 2656.03 995.969 2652.05 981.103 2670.9 962.259C2667.26 960.908 2663.42 960.215 2659.54 960.211Z" stroke="#FFFFFF" stroke-width="2.09375" stroke-linecap="butt" stroke-linejoin="miter" stroke-miterlimit="4" stroke-opacity="1" fill="#FFFFFF" fill-rule="nonzero" fill-opacity="1"/></g></g></g><g><g><g><path d="M2158 897.844 2158 1007.88 2158 1007.95 2206.12 1007.95 2206.12 897.923 2206.12 897.844ZM2164.88 904.798 2199.25 904.798 2199.25 1001 2164.88 1001Z" fill="#FFFFFF" fill-rule="nonzero" fill-opacity="1"/><path d="M2219.88 835.952 2219.88 1007.88 2219.88 1007.95 2268 1007.95 2268 836.031 2268 835.952ZM2226.75 842.906 2261.12 842.906 2261.12 1001 2226.75 1001Z" fill="#FFFFFF" fill-rule="nonzero" fill-opacity="1"/><path d="M2329.88 774.06 2281.75 774.06 2281.75 1007.88 2281.75 1007.95 2329.88 1007.95 2329.88 774.125ZM2288.62 781 2323 781 2323 1001 2288.62 1001Z" fill="#FFFFFF" fill-rule="nonzero" fill-opacity="1"/><path d="M2096.12 959.75 2096.12 1007.88 2096.12 1007.95 2144.25 1007.95 2144.25 959.829 2144.25 959.75ZM2103 966.704 2137.38 966.704 2137.38 1001 2103 1001Z" fill="#FFFFFF" fill-rule="nonzero" fill-opacity="1"/></g></g></g><g><g><g><path d="M669.375 111.562 95.625 111.562C78.0427 111.615 63.8025 125.855 63.75 143.437L63.75 526.057C63.8069 543.638 78.0445 557.875 95.625 557.932L326.719 557.932 326.719 637.619 239.062 637.619 239.062 653.557 525.937 653.557 525.937 637.619 438.281 637.619 438.281 557.932 669.375 557.932C686.956 557.875 701.193 543.638 701.25 526.057L701.25 143.437C701.197 125.855 686.957 111.615 669.375 111.562ZM422.344 637.651 342.656 637.651 342.656 557.964 422.344 557.964ZM685.312 526.089C685.312 534.891 678.177 542.026 669.375 542.026L95.625 542.026C86.8227 542.026 79.6875 534.891 79.6875 526.089L79.6875 143.437C79.6875 134.635 86.8227 127.5 95.625 127.5L669.375 127.5C678.177 127.5 685.312 134.635 685.312 143.437Z" fill="#FFFFFF" fill-rule="nonzero" fill-opacity="1" transform="matrix(1 0 0 1 3135 546)"/><path d="M119.531 151.406 103.594 151.406 103.594 518.08 661.406 518.08 661.406 151.406 119.531 151.406ZM645.469 502.143 119.531 502.143 119.531 167.344 645.469 167.344Z" fill="#FFFFFF" fill-rule="nonzero" fill-opacity="1" transform="matrix(1 0 0 1 3135 546)"/></g></g></g><g><g><g><path d="M3265.19 934.469 3395.81 934.469 3395.81 846.812 3265.19 846.812ZM3268.62 931.031 3268.62 906.969 3308.16 906.969 3308.16 931.031ZM3349.41 879.469 3349.41 903.531 3311.59 903.531 3311.59 879.469ZM3311.59 876.031 3311.59 850.25 3349.41 850.25 3349.41 876.031ZM3352.84 879.469 3392.38 879.469 3392.38 903.531 3352.84 903.531ZM3308.16 903.531 3268.62 903.531 3268.62 879.469 3308.16 879.469ZM3311.59 931.031 3311.59 906.969 3349.41 906.969 3349.41 931.031ZM3352.84 931.031 3352.84 906.969 3392.38 906.969 3392.38 931.031ZM3392.38 876.031 3352.84 876.031 3352.84 850.25 3392.38 850.25ZM3308.16 850.25 3308.16 876.031 3268.62 876.031 3268.62 850.25Z" fill="#FFFFFF" fill-rule="nonzero" fill-opacity="1"/></g></g></g><g><g><g><path d="M3265.19 826.469 3395.81 826.469 3395.81 738.812 3265.19 738.812ZM3268.62 823.031 3268.62 798.969 3308.16 798.969 3308.16 823.031ZM3349.41 771.469 3349.41 795.531 3311.59 795.531 3311.59 771.469ZM3311.59 768.031 3311.59 742.25 3349.41 742.25 3349.41 768.031ZM3352.84 771.469 3392.38 771.469 3392.38 795.531 3352.84 795.531ZM3308.16 795.531 3268.62 795.531 3268.62 771.469 3308.16 771.469ZM3311.59 823.031 3311.59 798.969 3349.41 798.969 3349.41 823.031ZM3352.84 823.031 3352.84 798.969 3392.38 798.969 3392.38 823.031ZM3392.38 768.031 3352.84 768.031 3352.84 742.25 3392.38 742.25ZM3308.16 742.25 3308.16 768.031 3268.62 768.031 3268.62 742.25Z" fill="#FFFFFF" fill-rule="nonzero" fill-opacity="1"/></g></g></g><g><g><g><path d="M117 24.375C65.8447 24.375 24.375 65.8447 24.375 117 24.375 168.155 65.8447 209.625 117 209.625 168.155 209.625 209.625 168.155 209.625 117 209.625 65.8447 168.155 24.375 117 24.375ZM204.689 114.563 119.438 114.563 119.438 29.3109C165.952 30.6564 203.344 68.0482 204.689 114.563ZM29.25 117C29.3095 69.5151 67.0971 30.6747 114.563 29.3109L114.563 118.009 177.255 180.702C142.111 214.017 86.6142 212.535 53.2984 177.392 37.8407 161.086 29.2325 139.468 29.25 117ZM180.702 177.255 122.933 119.486C122.911 119.464 122.918 119.445 122.95 119.445L204.689 119.445C204.104 141.015 195.559 161.607 180.702 177.255Z" fill="#FFFFFF" fill-rule="nonzero" fill-opacity="1" transform="matrix(1 0 0 1.00427 3400 711)"/></g></g></g><g><g><g><path d="M3589 915.844 3589 1025.87 3589 1025.95 3637.12 1025.95 3637.12 915.923 3637.12 915.844ZM3595.88 922.798 3630.25 922.798 3630.25 1019 3595.88 1019Z" fill="#FFFFFF" fill-rule="nonzero" fill-opacity="1"/><path d="M3650.88 853.952 3650.88 1025.87 3650.88 1025.95 3699 1025.95 3699 854.031 3699 853.952ZM3657.75 860.906 3692.12 860.906 3692.12 1019 3657.75 1019Z" fill="#FFFFFF" fill-rule="nonzero" fill-opacity="1"/><path d="M3760.88 792.06 3712.75 792.06 3712.75 1025.87 3712.75 1025.95 3760.88 1025.95 3760.88 792.125ZM3719.62 799 3754 799 3754 1019 3719.62 1019Z" fill="#FFFFFF" fill-rule="nonzero" fill-opacity="1"/><path d="M3527.12 977.75 3527.12 1025.87 3527.12 1025.95 3575.25 1025.95 3575.25 977.829 3575.25 977.75ZM3534 984.704 3568.38 984.704 3568.38 1019 3534 1019Z" fill="#FFFFFF" fill-rule="nonzero" fill-opacity="1"/></g></g></g><g><g><g><path d="M4078.5 762.408 4078.5 714.283 3985.3 762.611 3975.13 623.687 3941.24 623.687 3930.69 768.062 3930.69 864.312 4171.31 864.312 4171.31 714.283ZM3968.74 630.562 3970 647.75 3946.38 647.75 3947.63 630.562ZM3945.87 654.625 3970.5 654.625 3978.55 764.625 3937.82 764.625ZM3983.28 771.393 4071.62 725.592 4071.62 773.717 4164.44 725.592 4164.44 857.437 3937.56 857.437 3937.56 771.5 3979.05 771.5Z" stroke="#FFFFFF" stroke-width="3.4375" stroke-linecap="butt" stroke-linejoin="miter" stroke-miterlimit="4" stroke-opacity="1" fill="#FFFFFF" fill-rule="nonzero" fill-opacity="1"/><path d="M3954.75 836.812 4009.75 836.812 4009.75 802.437 3954.75 802.437ZM4002.88 829.937 3985.69 829.937 3985.69 809.312 4002.88 809.312ZM3961.62 809.312 3978.81 809.312 3978.81 829.937 3961.62 829.937Z" stroke="#FFFFFF" stroke-width="3.4375" stroke-linecap="butt" stroke-linejoin="miter" stroke-miterlimit="4" stroke-opacity="1" fill="#FFFFFF" fill-rule="nonzero" fill-opacity="1"/><path d="M4023.5 836.812 4078.5 836.812 4078.5 802.437 4023.5 802.437ZM4071.62 829.937 4054.44 829.937 4054.44 809.312 4071.62 809.312ZM4030.38 809.312 4047.56 809.312 4047.56 829.937 4030.38 829.937Z" stroke="#FFFFFF" stroke-width="3.4375" stroke-linecap="butt" stroke-linejoin="miter" stroke-miterlimit="4" stroke-opacity="1" fill="#FFFFFF" fill-rule="nonzero" fill-opacity="1"/><path d="M4147.25 802.437 4092.25 802.437 4092.25 836.812 4147.25 836.812ZM4099.12 809.312 4116.31 809.312 4116.31 829.937 4099.12 829.937ZM4140.38 829.937 4123.19 829.937 4123.19 809.312 4140.38 809.312Z" stroke="#FFFFFF" stroke-width="3.4375" stroke-linecap="butt" stroke-linejoin="miter" stroke-miterlimit="4" stroke-opacity="1" fill="#FFFFFF" fill-rule="nonzero" fill-opacity="1"/></g></g></g><g><g><g><path d="M4127.32 1208.55 4127.32 1051.68C4127.32 1036.39 4088.26 1028.15 4051.5 1028.15 4014.74 1028.15 3975.68 1036.39 3975.68 1051.68L3975.68 1208.55C3975.68 1223.84 4014.74 1232.08 4051.5 1232.08 4088.26 1232.08 4127.32 1223.84 4127.32 1208.55ZM4051.5 1033.38C4091.9 1033.38 4122.09 1043.05 4122.09 1051.68 4122.09 1060.31 4091.9 1069.98 4051.5 1069.98 4011.1 1069.98 3980.91 1060.31 3980.91 1051.68 3980.91 1043.05 4011.1 1033.38 4051.5 1033.38ZM3980.91 1060.72C3992.75 1070.19 4022.83 1075.21 4051.5 1075.21 4080.17 1075.21 4110.25 1070.19 4122.09 1060.72L4122.09 1103.97C4122.09 1112.6 4091.9 1122.27 4051.5 1122.27 4011.1 1122.27 3980.91 1112.6 3980.91 1103.97ZM3980.91 1113.02C3992.75 1122.48 4022.83 1127.5 4051.5 1127.5 4080.17 1127.5 4110.25 1122.48 4122.09 1113.02L4122.09 1156.26C4122.09 1164.89 4091.9 1174.56 4051.5 1174.56 4011.1 1174.56 3980.91 1164.89 3980.91 1156.26ZM3980.91 1208.55 3980.91 1165.31C3992.75 1174.77 4022.83 1179.79 4051.5 1179.79 4080.17 1179.79 4110.25 1174.77 4122.09 1165.31L4122.09 1208.55C4122.09 1217.18 4091.9 1226.85 4051.5 1226.85 4011.1 1226.85 3980.91 1217.18 3980.91 1208.55Z" stroke="#FFFFFF" stroke-width="2.61458" stroke-linecap="butt" stroke-linejoin="miter" stroke-miterlimit="4" stroke-opacity="1" fill="#FFFFFF" fill-rule="nonzero" fill-opacity="1"/><path d="M4109.02 1096.12C4109.02 1099.01 4106.68 1101.35 4103.79 1101.35 4100.9 1101.35 4098.56 1099.01 4098.56 1096.12 4098.56 1093.24 4100.9 1090.9 4103.79 1090.9 4106.68 1090.9 4109.02 1093.24 4109.02 1096.12Z" stroke="#FFFFFF" stroke-width="2.61458" stroke-linecap="butt" stroke-linejoin="miter" stroke-miterlimit="4" stroke-opacity="1" fill="#FFFFFF" fill-rule="nonzero" fill-opacity="1"/><path d="M4109.02 1148.42C4109.02 1151.3 4106.68 1153.65 4103.79 1153.65 4100.9 1153.65 4098.56 1151.3 4098.56 1148.42 4098.56 1145.53 4100.9 1143.19 4103.79 1143.19 4106.68 1143.19 4109.02 1145.53 4109.02 1148.42Z" stroke="#FFFFFF" stroke-width="2.61458" stroke-linecap="butt" stroke-linejoin="miter" stroke-miterlimit="4" stroke-opacity="1" fill="#FFFFFF" fill-rule="nonzero" fill-opacity="1"/><path d="M4109.02 1200.71C4109.02 1203.6 4106.68 1205.94 4103.79 1205.94 4100.9 1205.94 4098.56 1203.6 4098.56 1200.71 4098.56 1197.82 4100.9 1195.48 4103.79 1195.48 4106.68 1195.48 4109.02 1197.82 4109.02 1200.71Z" stroke="#FFFFFF" stroke-width="2.61458" stroke-linecap="butt" stroke-linejoin="miter" stroke-miterlimit="4" stroke-opacity="1" fill="#FFFFFF" fill-rule="nonzero" fill-opacity="1"/></g></g></g><path d="M4052.15 899.917 4052.15 992.097 4049.85 992.097 4049.85 899.917ZM4037.25 904.5 4051 877 4064.75 904.5ZM4064.75 987.513 4051 1015.01 4037.25 987.513Z" fill="#FFFFFF" fill-rule="nonzero" fill-opacity="1"/><path d="M22.9166-1.1458 196.468-1.14551 196.468 1.14616 22.9166 1.14587ZM27.5 13.75 0 0 27.5-13.75ZM191.885-13.7497 219.385 0.000360892 191.885 13.7503Z" fill="#FFFFFF" fill-rule="nonzero" fill-opacity="1" transform="matrix(-1 0 0 1 3926.39 1193)"/><g><g><g><path d="M179.569 152.648C186.452 152.648 191.86 148.714 191.86 144.043 191.86 139.373 186.452 135.439 179.569 135.439 172.685 135.439 167.277 139.373 167.277 144.043 167.277 148.714 172.683 152.648 179.569 152.648ZM179.569 140.356C183.994 140.356 186.944 142.568 186.944 144.043 186.944 145.518 183.994 147.731 179.569 147.731 175.144 147.731 172.194 145.518 172.194 144.043 172.194 142.568 175.134 140.351 179.569 140.351Z" stroke="#FFFFFF" stroke-width="2.45833" stroke-linecap="butt" stroke-linejoin="miter" stroke-miterlimit="4" stroke-opacity="1" fill="#FFFFFF" fill-rule="nonzero" fill-opacity="1" transform="matrix(1 0 0 1 1006 913)"/><path d="M83.689 152.648C76.8056 152.648 71.3973 156.581 71.3973 161.252 71.3973 165.923 76.8056 169.856 83.689 169.856 90.5723 169.856 95.9806 165.923 95.9806 161.252 95.9806 156.581 90.5723 152.648 83.689 152.648ZM83.689 164.939C79.264 164.939 76.314 162.727 76.314 161.252 76.314 159.777 79.264 157.564 83.689 157.564 88.114 157.564 91.064 159.777 91.064 161.252 91.064 162.727 88.1213 164.954 83.689 164.954Z" stroke="#FFFFFF" stroke-width="2.45833" stroke-linecap="butt" stroke-linejoin="miter" stroke-miterlimit="4" stroke-opacity="1" fill="#FFFFFF" fill-rule="nonzero" fill-opacity="1" transform="matrix(1 0 0 1 1006 913)"/><path d="M179.569 101.008C186.452 101.008 191.86 97.0746 191.86 92.4038 191.86 87.7329 186.452 83.7996 179.569 83.7996 172.685 83.7996 167.277 87.7329 167.277 92.4038 167.277 97.0746 172.683 101.008 179.569 101.008ZM179.569 88.7163C183.994 88.7163 186.944 90.9288 186.944 92.4038 186.944 93.8788 183.994 96.0913 179.569 96.0913 175.144 96.0913 172.194 93.8788 172.194 92.4038 172.194 90.9288 175.134 88.7113 179.569 88.7113Z" stroke="#FFFFFF" stroke-width="2.45833" stroke-linecap="butt" stroke-linejoin="miter" stroke-miterlimit="4" stroke-opacity="1" fill="#FFFFFF" fill-rule="nonzero" fill-opacity="1" transform="matrix(1 0 0 1 1006 913)"/><path d="M179.569 116.992C179.569 121.663 184.977 125.596 191.86 125.596 198.744 125.596 204.152 121.663 204.152 116.992 204.152 112.321 198.744 108.388 191.86 108.388 184.977 108.388 179.569 112.321 179.569 116.992ZM199.235 116.992C199.235 118.467 196.285 120.679 191.86 120.679 187.435 120.679 184.485 118.467 184.485 116.992 184.485 115.517 187.435 113.304 191.86 113.304 196.285 113.304 199.235 115.522 199.235 116.992Z" stroke="#FFFFFF" stroke-width="2.45833" stroke-linecap="butt" stroke-linejoin="miter" stroke-miterlimit="4" stroke-opacity="1" fill="#FFFFFF" fill-rule="nonzero" fill-opacity="1" transform="matrix(1 0 0 1 1006 913)"/><path d="M152.525 83.7947C159.408 83.7947 164.816 79.8614 164.816 75.1905 164.816 70.5197 159.408 66.5864 152.525 66.5864 145.641 66.5864 140.233 70.5197 140.233 75.1905 140.233 79.8614 145.641 83.7947 152.525 83.7947ZM152.525 71.503C156.95 71.503 159.9 73.7155 159.9 75.1905 159.9 76.6655 156.95 78.878 152.525 78.878 148.1 78.878 145.15 76.6655 145.15 75.1905 145.15 73.7155 148.09 71.4981 152.525 71.4981Z" stroke="#FFFFFF" stroke-width="2.45833" stroke-linecap="butt" stroke-linejoin="miter" stroke-miterlimit="4" stroke-opacity="1" fill="#FFFFFF" fill-rule="nonzero" fill-opacity="1" transform="matrix(1 0 0 1 1006 913)"/><path d="M152.525 167.412C159.408 167.412 164.816 163.479 164.816 158.808 164.816 154.137 159.408 150.204 152.525 150.204 145.641 150.204 140.233 154.137 140.233 158.808 140.233 163.479 145.641 167.412 152.525 167.412ZM152.525 155.121C156.95 155.121 159.9 157.333 159.9 158.808 159.9 160.283 156.95 162.496 152.525 162.496 148.1 162.496 145.15 160.283 145.15 158.808 145.15 157.333 148.09 155.106 152.525 155.106Z" stroke="#FFFFFF" stroke-width="2.45833" stroke-linecap="butt" stroke-linejoin="miter" stroke-miterlimit="4" stroke-opacity="1" fill="#FFFFFF" fill-rule="nonzero" fill-opacity="1" transform="matrix(1 0 0 1 1006 913)"/><path d="M118.106 174.787C124.989 174.787 130.397 170.854 130.397 166.183 130.397 161.512 124.989 157.579 118.106 157.579 111.222 157.579 105.814 161.512 105.814 166.183 105.814 170.854 111.222 174.787 118.106 174.787ZM118.106 162.496C122.531 162.496 125.481 164.708 125.481 166.183 125.481 167.658 122.531 169.871 118.106 169.871 113.681 169.871 110.731 167.658 110.731 166.183 110.731 164.708 113.673 162.496 118.106 162.496Z" stroke="#FFFFFF" stroke-width="2.45833" stroke-linecap="butt" stroke-linejoin="miter" stroke-miterlimit="4" stroke-opacity="1" fill="#FFFFFF" fill-rule="nonzero" fill-opacity="1" transform="matrix(1 0 0 1 1006 913)"/><path d="M82.8949 102.938C81.3518 102.933 79.8264 102.611 78.4134 101.991L47.6842 88.7163C45.0236 87.4891 42.1397 86.8199 39.2104 86.7496 24.5194 86.7496 20.3943 107.51 20.3943 118.216 20.3943 156.32 64.3984 187.069 118.728 187.069 173.057 187.069 217.061 156.34 217.061 118.216 217.061 80.0924 173.057 49.3633 118.728 49.3633 62.9235 49.3633 71.7734 71.2424 76.9359 76.4049L89.2276 88.6966C95.7938 95.484 90.2208 102.938 82.8949 102.938ZM92.7086 85.2377 80.4169 72.9461C78.3296 70.8088 77.5704 67.7051 78.4355 64.8459 79.4606 62.3703 85.3975 54.2898 118.732 54.2898 170.244 54.2898 212.149 82.9711 212.149 118.226 212.149 153.481 170.244 182.162 118.737 182.162 67.2304 182.162 25.3208 153.481 25.3208 118.226 25.3326 112.131 26.5151 106.096 28.8043 100.447 32.654 91.6859 37.5756 91.6687 39.2104 91.6687 41.4676 91.7449 43.686 92.2767 45.7323 93.2322L76.4615 106.507C78.4908 107.393 80.6807 107.853 82.8949 107.857 88.5464 107.966 93.7313 104.734 96.1208 99.6116 98.0677 94.5759 96.711 88.8611 92.7086 85.2377Z" stroke="#FFFFFF" stroke-width="2.45833" stroke-linecap="butt" stroke-linejoin="miter" stroke-miterlimit="4" stroke-opacity="1" fill="#FFFFFF" fill-rule="nonzero" fill-opacity="1" transform="matrix(1 0 0 1 1006 913)"/></g></g></g><path d="M1191 649.893 1219.89 649.893 1219.89 621 1245.11 621 1245.11 649.893 1274 649.893 1274 675.107 1245.11 675.107 1245.11 704 1219.89 704 1219.89 675.107 1191 675.107Z" fill="#D3E27E" fill-rule="evenodd" fill-opacity="1"/><path d="M1189 920.241 1218.24 920.241 1218.24 891 1243.76 891 1243.76 920.241 1273 920.241 1273 945.759 1243.76 945.759 1243.76 975 1218.24 975 1218.24 945.759 1189 945.759Z" fill="#D3E27E" fill-rule="evenodd" fill-opacity="1"/><path d="M2700 624.241 2729.24 624.241 2729.24 595 2754.76 595 2754.76 624.241 2784 624.241 2784 649.759 2754.76 649.759 2754.76 679 2729.24 679 2729.24 649.759 2700 649.759Z" fill="#D3E27E" fill-rule="evenodd" fill-opacity="1"/><path d="M2700 920.241 2729.24 920.241 2729.24 891 2754.76 891 2754.76 920.241 2784 920.241 2784 945.759 2754.76 945.759 2754.76 975 2729.24 975 2729.24 945.759 2700 945.759Z" fill="#D3E27E" fill-rule="evenodd" fill-opacity="1"/><path d="M4175 641.893 4203.89 641.893 4203.89 613 4229.11 613 4229.11 641.893 4258 641.893 4258 668.107 4229.11 668.107 4229.11 697 4203.89 697 4203.89 668.107 4175 668.107Z" fill="#D3E27E" fill-rule="evenodd" fill-opacity="1"/><text fill="#FFFFFF" fill-opacity="1" font-family="Segoe UI,Segoe UI_MSFontService,sans-serif" font-style="normal" font-variant="normal" font-weight="700" font-stretch="normal" font-size="73" text-anchor="start" direction="ltr" writing-mode="lr-tb" unicode-bidi="normal" text-decoration="none" transform="matrix(1 0 0 1 294.822 1371)">Self</text><text fill="#FFFFFF" fill-opacity="1" font-family="Segoe UI,Segoe UI_MSFontService,sans-serif" font-style="normal" font-variant="normal" font-weight="700" font-stretch="normal" font-size="73" text-anchor="start" direction="ltr" writing-mode="lr-tb" unicode-bidi="normal" text-decoration="none" transform="matrix(1 0 0 1 421.368 1371)">-</text><text fill="#FFFFFF" fill-opacity="1" font-family="Segoe UI,Segoe UI_MSFontService,sans-serif" font-style="normal" font-variant="normal" font-weight="700" font-stretch="normal" font-size="73" text-anchor="start" direction="ltr" writing-mode="lr-tb" unicode-bidi="normal" text-decoration="none" transform="matrix(1 0 0 1 451.16 1371)">Hosting PURIS FOSS</text><text fill="#FFFFFF" fill-opacity="1" font-family="Segoe UI,Segoe UI_MSFontService,sans-serif" font-style="normal" font-variant="normal" font-weight="700" font-stretch="normal" font-size="73" text-anchor="start" direction="ltr" writing-mode="lr-tb" unicode-bidi="normal" text-decoration="none" transform="matrix(1 0 0 1 1817.06 1367)">Software as a Service</text><text fill="#FFFFFF" fill-opacity="1" font-family="Segoe UI,Segoe UI_MSFontService,sans-serif" font-style="normal" font-variant="normal" font-weight="700" font-stretch="normal" font-size="73" text-anchor="start" direction="ltr" writing-mode="lr-tb" unicode-bidi="normal" text-decoration="none" transform="matrix(1 0 0 1 3217.84 1367)">Individual Enterprise Solution</text><text fill="#FFFFFF" fill-opacity="1" font-family="Arial,Arial_MSFontService,sans-serif" font-style="normal" font-variant="normal" font-weight="400" font-stretch="normal" font-size="73" text-anchor="start" direction="ltr" writing-mode="lr-tb" unicode-bidi="normal" text-decoration="none" transform="matrix(1 0 0 1 283.633 1530)">•</text><text fill="#FFFFFF" fill-opacity="1" font-family="Segoe UI,Segoe UI_MSFontService,sans-serif" font-style="normal" font-variant="normal" font-weight="400" font-stretch="normal" font-size="73" text-anchor="start" direction="ltr" writing-mode="lr-tb" unicode-bidi="normal" text-decoration="none" transform="matrix(1 0 0 1 386.758 1530)">Free</text><text fill="#FFFFFF" fill-opacity="1" font-family="Segoe UI,Segoe UI_MSFontService,sans-serif" font-style="normal" font-variant="normal" font-weight="400" font-stretch="normal" font-size="73" text-anchor="start" direction="ltr" writing-mode="lr-tb" unicode-bidi="normal" text-decoration="none" transform="matrix(1 0 0 1 544.494 1530)">to</text><text fill="#FFFFFF" fill-opacity="1" font-family="Segoe UI,Segoe UI_MSFontService,sans-serif" font-style="normal" font-variant="normal" font-weight="400" font-stretch="normal" font-size="73" text-anchor="start" direction="ltr" writing-mode="lr-tb" unicode-bidi="normal" text-decoration="none" transform="matrix(1 0 0 1 631.577 1530)">use</text><text fill="#FFFFFF" fill-opacity="1" font-family="Arial,Arial_MSFontService,sans-serif" font-style="normal" font-variant="normal" font-weight="400" font-stretch="normal" font-size="73" text-anchor="start" direction="ltr" writing-mode="lr-tb" unicode-bidi="normal" text-decoration="none" transform="matrix(1 0 0 1 283.633 1618)">•</text><text fill="#FFFFFF" fill-opacity="1" font-family="Segoe UI,Segoe UI_MSFontService,sans-serif" font-style="normal" font-variant="normal" font-weight="400" font-stretch="normal" font-size="73" text-anchor="start" direction="ltr" writing-mode="lr-tb" unicode-bidi="normal" text-decoration="none" transform="matrix(1 0 0 1 386.758 1618)">Flexibility and customizability</text><text fill="#FFFFFF" fill-opacity="1" font-family="Arial,Arial_MSFontService,sans-serif" font-style="normal" font-variant="normal" font-weight="400" font-stretch="normal" font-size="73" text-anchor="start" direction="ltr" writing-mode="lr-tb" unicode-bidi="normal" text-decoration="none" transform="matrix(1 0 0 1 283.633 1706)">•</text><text fill="#FFFFFF" fill-opacity="1" font-family="Segoe UI,Segoe UI_MSFontService,sans-serif" font-style="normal" font-variant="normal" font-weight="400" font-stretch="normal" font-size="73" text-anchor="start" direction="ltr" writing-mode="lr-tb" unicode-bidi="normal" text-decoration="none" transform="matrix(1 0 0 1 386.758 1706)">Community support</text><text fill="#FFFFFF" fill-opacity="1" font-family="Arial,Arial_MSFontService,sans-serif" font-style="normal" font-variant="normal" font-weight="400" font-stretch="normal" font-size="73" text-anchor="start" direction="ltr" writing-mode="lr-tb" unicode-bidi="normal" text-decoration="none" transform="matrix(1 0 0 1 1815.56 1531)">•</text><text fill="#FFFFFF" fill-opacity="1" font-family="Segoe UI,Segoe UI_MSFontService,sans-serif" font-style="normal" font-variant="normal" font-weight="400" font-stretch="normal" font-size="73" text-anchor="start" direction="ltr" writing-mode="lr-tb" unicode-bidi="normal" text-decoration="none" transform="matrix(1 0 0 1 1918.69 1531)">Time</text><text fill="#FFFFFF" fill-opacity="1" font-family="Segoe UI,Segoe UI_MSFontService,sans-serif" font-style="normal" font-variant="normal" font-weight="400" font-stretch="normal" font-size="73" text-anchor="start" direction="ltr" writing-mode="lr-tb" unicode-bidi="normal" text-decoration="none" transform="matrix(1 0 0 1 2096.29 1531)">efficient</text><text fill="#FFFFFF" fill-opacity="1" font-family="Segoe UI,Segoe UI_MSFontService,sans-serif" font-style="normal" font-variant="normal" font-weight="400" font-stretch="normal" font-size="73" text-anchor="start" direction="ltr" writing-mode="lr-tb" unicode-bidi="normal" text-decoration="none" transform="matrix(1 0 0 1 2374.16 1531)">integration</text><text fill="#FFFFFF" fill-opacity="1" font-family="Arial,Arial_MSFontService,sans-serif" font-style="normal" font-variant="normal" font-weight="400" font-stretch="normal" font-size="73" text-anchor="start" direction="ltr" writing-mode="lr-tb" unicode-bidi="normal" text-decoration="none" transform="matrix(1 0 0 1 1815.56 1619)">•</text><text fill="#FFFFFF" fill-opacity="1" font-family="Segoe UI,Segoe UI_MSFontService,sans-serif" font-style="normal" font-variant="normal" font-weight="400" font-stretch="normal" font-size="73" text-anchor="start" direction="ltr" writing-mode="lr-tb" unicode-bidi="normal" text-decoration="none" transform="matrix(1 0 0 1 1918.69 1619)">Advanced</text><text fill="#FFFFFF" fill-opacity="1" font-family="Segoe UI,Segoe UI_MSFontService,sans-serif" font-style="normal" font-variant="normal" font-weight="400" font-stretch="normal" font-size="73" text-anchor="start" direction="ltr" writing-mode="lr-tb" unicode-bidi="normal" text-decoration="none" transform="matrix(1 0 0 1 2256.53 1619)">features</text><text fill="#FFFFFF" fill-opacity="1" font-family="Arial,Arial_MSFontService,sans-serif" font-style="normal" font-variant="normal" font-weight="400" font-stretch="normal" font-size="73" text-anchor="start" direction="ltr" writing-mode="lr-tb" unicode-bidi="normal" text-decoration="none" transform="matrix(1 0 0 1 1815.56 1707)">•</text><text fill="#FFFFFF" fill-opacity="1" font-family="Segoe UI,Segoe UI_MSFontService,sans-serif" font-style="normal" font-variant="normal" font-weight="400" font-stretch="normal" font-size="73" text-anchor="start" direction="ltr" writing-mode="lr-tb" unicode-bidi="normal" text-decoration="none" transform="matrix(1 0 0 1 1918.69 1707)">External</text><text fill="#FFFFFF" fill-opacity="1" font-family="Segoe UI,Segoe UI_MSFontService,sans-serif" font-style="normal" font-variant="normal" font-weight="400" font-stretch="normal" font-size="73" text-anchor="start" direction="ltr" writing-mode="lr-tb" unicode-bidi="normal" text-decoration="none" transform="matrix(1 0 0 1 2194.12 1707)">support</text><text fill="#FFFFFF" fill-opacity="1" font-family="Arial,Arial_MSFontService,sans-serif" font-style="normal" font-variant="normal" font-weight="400" font-stretch="normal" font-size="73" text-anchor="start" direction="ltr" writing-mode="lr-tb" unicode-bidi="normal" text-decoration="none" transform="matrix(1 0 0 1 3239.08 1541)">•</text><text fill="#FFFFFF" fill-opacity="1" font-family="Segoe UI,Segoe UI_MSFontService,sans-serif" font-style="normal" font-variant="normal" font-weight="400" font-stretch="normal" font-size="73" text-anchor="start" direction="ltr" writing-mode="lr-tb" unicode-bidi="normal" text-decoration="none" transform="matrix(1 0 0 1 3342.21 1541)">Customization</text><text fill="#FFFFFF" fill-opacity="1" font-family="Segoe UI,Segoe UI_MSFontService,sans-serif" font-style="normal" font-variant="normal" font-weight="400" font-stretch="normal" font-size="73" text-anchor="start" direction="ltr" writing-mode="lr-tb" unicode-bidi="normal" text-decoration="none" transform="matrix(1 0 0 1 3824.6 1541)">to</text><text fill="#FFFFFF" fill-opacity="1" font-family="Segoe UI,Segoe UI_MSFontService,sans-serif" font-style="normal" font-variant="normal" font-weight="400" font-stretch="normal" font-size="73" text-anchor="start" direction="ltr" writing-mode="lr-tb" unicode-bidi="normal" text-decoration="none" transform="matrix(1 0 0 1 3911.69 1541)">own</text><text fill="#FFFFFF" fill-opacity="1" font-family="Segoe UI,Segoe UI_MSFontService,sans-serif" font-style="normal" font-variant="normal" font-weight="400" font-stretch="normal" font-size="73" text-anchor="start" direction="ltr" writing-mode="lr-tb" unicode-bidi="normal" text-decoration="none" transform="matrix(1 0 0 1 4069.24 1541)">needs</text><text fill="#FFFFFF" fill-opacity="1" font-family="Arial,Arial_MSFontService,sans-serif" font-style="normal" font-variant="normal" font-weight="400" font-stretch="normal" font-size="73" text-anchor="start" direction="ltr" writing-mode="lr-tb" unicode-bidi="normal" text-decoration="none" transform="matrix(1 0 0 1 3239.08 1629)">•</text><text fill="#FFFFFF" fill-opacity="1" font-family="Segoe UI,Segoe UI_MSFontService,sans-serif" font-style="normal" font-variant="normal" font-weight="400" font-stretch="normal" font-size="73" text-anchor="start" direction="ltr" writing-mode="lr-tb" unicode-bidi="normal" text-decoration="none" transform="matrix(1 0 0 1 3342.21 1629)">Full</text><text fill="#FFFFFF" fill-opacity="1" font-family="Segoe UI,Segoe UI_MSFontService,sans-serif" font-style="normal" font-variant="normal" font-weight="400" font-stretch="normal" font-size="73" text-anchor="start" direction="ltr" writing-mode="lr-tb" unicode-bidi="normal" text-decoration="none" transform="matrix(1 0 0 1 3475.12 1629)">automatic</text><text fill="#FFFFFF" fill-opacity="1" font-family="Segoe UI,Segoe UI_MSFontService,sans-serif" font-style="normal" font-variant="normal" font-weight="400" font-stretch="normal" font-size="73" text-anchor="start" direction="ltr" writing-mode="lr-tb" unicode-bidi="normal" text-decoration="none" transform="matrix(1 0 0 1 3817.16 1629)">integration</text><text fill="#FFFFFF" fill-opacity="1" font-family="Arial,Arial_MSFontService,sans-serif" font-style="normal" font-variant="normal" font-weight="400" font-stretch="normal" font-size="73" text-anchor="start" direction="ltr" writing-mode="lr-tb" unicode-bidi="normal" text-decoration="none" transform="matrix(1 0 0 1 3239.08 1717)">•</text><text fill="#FFFFFF" fill-opacity="1" font-family="Segoe UI,Segoe UI_MSFontService,sans-serif" font-style="normal" font-variant="normal" font-weight="400" font-stretch="normal" font-size="73" text-anchor="start" direction="ltr" writing-mode="lr-tb" unicode-bidi="normal" text-decoration="none" transform="matrix(1 0 0 1 3342.21 1717)">Complete</text><text fill="#FFFFFF" fill-opacity="1" font-family="Segoe UI,Segoe UI_MSFontService,sans-serif" font-style="normal" font-variant="normal" font-weight="400" font-stretch="normal" font-size="73" text-anchor="start" direction="ltr" writing-mode="lr-tb" unicode-bidi="normal" text-decoration="none" transform="matrix(1 0 0 1 3675.07 1717)">control</text></g></g></svg>