<svg width="4262" height="2076" xmlns="http://www.w3.org/2000/svg" xmlns:xlink="http://www.w3.org/1999/xlink" xml:space="preserve" overflow="hidden"><g transform="translate(-87 -110)"><g><rect x="90.0001" y="110" width="4257" height="2073" fill="#000000" fill-opacity="1"/><rect x="124.5" y="202.5" width="2079" height="1757" stroke="#FFFFFF" stroke-width="4.58333" stroke-linecap="butt" stroke-linejoin="miter" stroke-miterlimit="8" stroke-opacity="1" fill="none"/><path d="M231 158C231 145.298 241.297 135 254 135L1306 135C1318.7 135 1329 145.298 1329 158L1329 250C1329 262.702 1318.7 273 1306 273L254 273C241.297 273 231 262.702 231 250Z" fill="#FFA600" fill-rule="evenodd" fill-opacity="1"/><text fill="#000000" fill-opacity="1" font-family="Calibri,Calibri_MSFontService,sans-serif" font-style="normal" font-variant="normal" font-weight="400" font-stretch="normal" font-size="83" text-anchor="start" direction="ltr" writing-mode="lr-tb" unicode-bidi="normal" text-decoration="none" transform="matrix(1 0 0 1 365.825 231)">Bottleneck Management</text><rect x="2232.5" y="202.5" width="2078" height="1757" stroke="#FFFFFF" stroke-width="4.58333" stroke-linecap="butt" stroke-linejoin="miter" stroke-miterlimit="8" stroke-opacity="1" fill="none"/><path d="M3094 155.167C3094 142.372 3104.37 132 3117.17 132L4168.83 132C4181.63 132 4192 142.372 4192 155.167L4192 247.833C4192 260.628 4181.63 271 4168.83 271L3117.17 271C3104.37 271 3094 260.628 3094 247.833Z" fill="#FFA600" fill-rule="evenodd" fill-opacity="1"/><text fill="#000000" fill-opacity="1" font-family="Calibri,Calibri_MSFontService,sans-serif" font-style="normal" font-variant="normal" font-weight="400" font-stretch="normal" font-size="83" text-anchor="start" direction="ltr" writing-mode="lr-tb" unicode-bidi="normal" text-decoration="none" transform="matrix(1 0 0 1 3454.96 229)">Monitoring</text><path d="M1383 386.834C1383 375.88 1391.88 367 1402.83 367L1980.17 367C1991.12 367 2000 375.88 2000 386.834L2000 466.166C2000 477.12 1991.12 486 1980.17 486L1402.83 486C1391.88 486 1383 477.12 1383 466.166Z" fill="#B3CB2D" fill-rule="evenodd" fill-opacity="1"/><text fill="#000000" fill-opacity="1" font-family="Calibri,Calibri_MSFontService,sans-serif" font-style="normal" font-variant="normal" font-weight="400" font-stretch="normal" font-size="55" text-anchor="start" direction="ltr" writing-mode="lr-tb" unicode-bidi="normal" text-decoration="none" transform="matrix(1 0 0 1 1433.51 445)">Supply Chain </text><text fill="#000000" fill-opacity="1" font-family="Calibri,Calibri_MSFontService,sans-serif" font-style="normal" font-variant="normal" font-weight="400" font-stretch="normal" font-size="55" text-anchor="start" direction="ltr" writing-mode="lr-tb" unicode-bidi="normal" text-decoration="none" transform="matrix(1 0 0 1 1732.58 445)">Condition</text><path d="M1479 1123.83C1479 1112.88 1487.88 1104 1498.83 1104L1890.17 1104C1901.12 1104 1910 1112.88 1910 1123.83L1910 1203.17C1910 1214.12 1901.12 1223 1890.17 1223L1498.83 1223C1487.88 1223 1479 1214.12 1479 1203.17Z" fill="#9B9B9B" fill-rule="evenodd" fill-opacity="1"/><text fill="#000000" fill-opacity="1" font-family="Calibri,Calibri_MSFontService,sans-serif" font-style="normal" font-variant="normal" font-weight="400" font-stretch="normal" font-size="55" text-anchor="start" direction="ltr" writing-mode="lr-tb" unicode-bidi="normal" text-decoration="none" transform="matrix(1 0 0 1 1492 1181)">Normal Operation </text><path d="M675 755.833C675 744.88 683.88 736 694.834 736L1189.17 736C1200.12 736 1209 744.88 1209 755.833L1209 835.166C1209 846.12 1200.12 855 1189.17 855L694.834 855C683.88 855 675 846.12 675 835.166Z" fill="#B3CB2D" fill-rule="evenodd" fill-opacity="1"/><text fill="#000000" fill-opacity="1" font-family="Calibri,Calibri_MSFontService,sans-serif" font-style="normal" font-variant="normal" font-weight="400" font-stretch="normal" font-size="55" text-anchor="start" direction="ltr" writing-mode="lr-tb" unicode-bidi="normal" text-decoration="none" transform="matrix(1 0 0 1 822.23 813)">Bottleneck</text><path d="M987 1124C987 1112.95 995.954 1104 1007 1104L1397 1104C1408.05 1104 1417 1112.95 1417 1124L1417 1204C1417 1215.05 1408.05 1224 1397 1224L1007 1224C995.954 1224 987 1215.05 987 1204Z" fill="#9B9B9B" fill-rule="evenodd" fill-opacity="1"/><text fill="#000000" fill-opacity="1" font-family="Calibri,Calibri_MSFontService,sans-serif" font-style="normal" font-variant="normal" font-weight="400" font-stretch="normal" font-size="55" text-anchor="start" direction="ltr" writing-mode="lr-tb" unicode-bidi="normal" text-decoration="none" transform="matrix(1 0 0 1 1114.02 1182)">isolated</text><path d="M493 1123C493 1111.95 501.954 1103 513 1103L904 1103C915.046 1103 924 1111.95 924 1123L924 1203C924 1214.05 915.046 1223 904 1223L513 1223C501.954 1223 493 1214.05 493 1203Z" fill="#B3CB2D" fill-rule="evenodd" fill-opacity="1"/><text fill="#000000" fill-opacity="1" font-family="Calibri,Calibri_MSFontService,sans-serif" font-style="normal" font-variant="normal" font-weight="400" font-stretch="normal" font-size="55" text-anchor="start" direction="ltr" writing-mode="lr-tb" unicode-bidi="normal" text-decoration="none" transform="matrix(1 0 0 1 579.082 1181)">widespread</text><path d="M1747.79 798.782 1232.41 797.834 1232.42 793.25 1747.8 794.199ZM1236.97 809.301 1209.5 795.5 1237.03 781.801Z" fill="#FFFFFF" fill-rule="nonzero" fill-opacity="1"/><path d="M888 981.5 942 928 996 981.5 942 1035Z" fill="#B3CB2D" fill-rule="evenodd" fill-opacity="1"/><path d="M1694.79 486.484 1696.45 719.6 1691.86 719.632 1690.21 486.516ZM1707.87 714.935 1694.32 742.532 1680.37 715.13Z" fill="#FFFFFF" fill-rule="nonzero" fill-opacity="1"/><path d="M1695.79 850.492 1696.57 1081.28 1691.99 1081.29 1691.21 850.508ZM1708.01 1076.66 1694.36 1104.2 1680.51 1076.75Z" fill="#FFFFFF" fill-rule="nonzero" fill-opacity="1"/><path d="M944.792 855.5 944.792 905.112 940.209 905.112 940.208 855.5ZM956.25 900.529 942.5 928.029 928.75 900.529Z" fill="#FFFFFF" fill-rule="nonzero" fill-opacity="1"/><path d="M996.5 979.208 1204.8 979.208 1204.8 1081.42 1200.21 1081.42 1200.21 981.5 1202.5 983.792 996.5 983.792ZM1216.25 1076.83 1202.5 1104.33 1188.75 1076.83Z" fill="#FFFFFF" fill-rule="nonzero" fill-opacity="1"/><path d="M0-2.29167 181.848-2.29167 181.848 98.9426 177.264 98.9426 177.264 0 179.556 2.29167 0 2.29167ZM193.306 94.3593 179.556 121.859 165.806 94.3593Z" fill="#FFFFFF" fill-rule="nonzero" fill-opacity="1" transform="matrix(-1 1.22465e-16 1.22465e-16 1 889.056 981.5)"/><text fill="#FFFFFF" fill-opacity="1" font-family="Calibri,Calibri_MSFontService,sans-serif" font-style="normal" font-variant="normal" font-weight="400" font-stretch="normal" font-size="48" text-anchor="start" direction="ltr" writing-mode="lr-tb" unicode-bidi="normal" text-decoration="none" transform="matrix(1 0 0 1 1277.7 761)">P(</text><text fill="#FFFFFF" fill-opacity="1" font-family="Calibri,Calibri_MSFontService,sans-serif" font-style="normal" font-variant="normal" font-weight="400" font-stretch="normal" font-size="48" text-anchor="start" direction="ltr" writing-mode="lr-tb" unicode-bidi="normal" text-decoration="none" transform="matrix(1 0 0 1 1316.66 761)">bottleneck</text><text fill="#FFFFFF" fill-opacity="1" font-family="Calibri,Calibri_MSFontService,sans-serif" font-style="normal" font-variant="normal" font-weight="400" font-stretch="normal" font-size="48" text-anchor="start" direction="ltr" writing-mode="lr-tb" unicode-bidi="normal" text-decoration="none" transform="matrix(1 0 0 1 1525.78 761)">)= a</text><text fill="#FFFFFF" fill-opacity="1" font-family="Calibri,Calibri_MSFontService,sans-serif" font-style="normal" font-variant="normal" font-weight="400" font-stretch="normal" font-size="46" text-anchor="start" direction="ltr" writing-mode="lr-tb" unicode-bidi="normal" text-decoration="none" transform="matrix(1 0 0 1 297.893 1036)">P(</text><text fill="#FFFFFF" fill-opacity="1" font-family="Calibri,Calibri_MSFontService,sans-serif" font-style="normal" font-variant="normal" font-weight="400" font-stretch="normal" font-size="46" text-anchor="start" direction="ltr" writing-mode="lr-tb" unicode-bidi="normal" text-decoration="none" transform="matrix(1 0 0 1 335.132 1036)">widespread</text><text fill="#FFFFFF" fill-opacity="1" font-family="Calibri,Calibri_MSFontService,sans-serif" font-style="normal" font-variant="normal" font-weight="400" font-stretch="normal" font-size="46" text-anchor="start" direction="ltr" writing-mode="lr-tb" unicode-bidi="normal" text-decoration="none" transform="matrix(1 0 0 1 551.695 1036)">)= a x b</text><path d="M2414 386.834C2414 375.88 2422.88 367 2433.83 367L3011.17 367C3022.12 367 3031 375.88 3031 386.834L3031 466.166C3031 477.12 3022.12 486 3011.17 486L2433.83 486C2422.88 486 2414 477.12 2414 466.166Z" fill="#B3CB2D" fill-rule="evenodd" fill-opacity="1"/><text fill="#000000" fill-opacity="1" font-family="Calibri,Calibri_MSFontService,sans-serif" font-style="normal" font-variant="normal" font-weight="400" font-stretch="normal" font-size="55" text-anchor="start" direction="ltr" writing-mode="lr-tb" unicode-bidi="normal" text-decoration="none" transform="matrix(1 0 0 1 2464.33 444)">Supply Chain </text><text fill="#000000" fill-opacity="1" font-family="Calibri,Calibri_MSFontService,sans-serif" font-style="normal" font-variant="normal" font-weight="400" font-stretch="normal" font-size="55" text-anchor="start" direction="ltr" writing-mode="lr-tb" unicode-bidi="normal" text-decoration="none" transform="matrix(1 0 0 1 2763.39 444)">Condition</text><path d="M2509 1123.83C2509 1112.88 2517.88 1104 2528.83 1104L2919.17 1104C2930.12 1104 2939 1112.88 2939 1123.83L2939 1203.17C2939 1214.12 2930.12 1223 2919.17 1223L2528.83 1223C2517.88 1223 2509 1214.12 2509 1203.17Z" fill="#9B9B9B" fill-rule="evenodd" fill-opacity="1"/><text fill="#000000" fill-opacity="1" font-family="Calibri,Calibri_MSFontService,sans-serif" font-style="normal" font-variant="normal" font-weight="400" font-stretch="normal" font-size="55" text-anchor="start" direction="ltr" writing-mode="lr-tb" unicode-bidi="normal" text-decoration="none" transform="matrix(1 0 0 1 2521.63 1181)">Normal Operation </text><path d="M3206 755C3206 743.954 3214.95 735 3226 735L3720 735C3731.05 735 3740 743.954 3740 755L3740 834.999C3740 846.045 3731.05 855 3720 855L3226 855C3214.95 855 3206 846.045 3206 834.999Z" fill="#B3CB2D" fill-rule="evenodd" fill-opacity="1"/><text fill="#000000" fill-opacity="1" font-family="Calibri,Calibri_MSFontService,sans-serif" font-style="normal" font-variant="normal" font-weight="400" font-stretch="normal" font-size="55" text-anchor="start" direction="ltr" writing-mode="lr-tb" unicode-bidi="normal" text-decoration="none" transform="matrix(1 0 0 1 3352.88 813)">Bottleneck</text><path d="M3005 1125.83C3005 1114.88 3013.88 1106 3024.83 1106L3415.17 1106C3426.12 1106 3435 1114.88 3435 1125.83L3435 1205.17C3435 1216.12 3426.12 1225 3415.17 1225L3024.83 1225C3013.88 1225 3005 1216.12 3005 1205.17Z" fill="#9B9B9B" fill-rule="evenodd" fill-opacity="1"/><text fill="#000000" fill-opacity="1" font-family="Calibri,Calibri_MSFontService,sans-serif" font-style="normal" font-variant="normal" font-weight="400" font-stretch="normal" font-size="55" text-anchor="start" direction="ltr" writing-mode="lr-tb" unicode-bidi="normal" text-decoration="none" transform="matrix(1 0 0 1 3131.5 1183)">Isolated</text><path d="M3501 1125.83C3501 1114.88 3509.88 1106 3520.83 1106L3911.17 1106C3922.12 1106 3931 1114.88 3931 1125.83L3931 1205.17C3931 1216.12 3922.12 1225 3911.17 1225L3520.83 1225C3509.88 1225 3501 1216.12 3501 1205.17Z" fill="#B3CB2D" fill-rule="evenodd" fill-opacity="1"/><text fill="#000000" fill-opacity="1" font-family="Calibri,Calibri_MSFontService,sans-serif" font-style="normal" font-variant="normal" font-weight="400" font-stretch="normal" font-size="55" text-anchor="start" direction="ltr" writing-mode="lr-tb" unicode-bidi="normal" text-decoration="none" transform="matrix(1 0 0 1 3586.48 1183)">widespread</text><path d="M2670 795 2724 741 2778 795 2724 849Z" fill="#B3CB2D" fill-rule="evenodd" fill-opacity="1"/><path d="M3419 979 3473 925 3527 979 3473 1033Z" fill="#B3CB2D" fill-rule="evenodd" fill-opacity="1"/><path d="M2724.79 486.487 2726.15 718.612 2721.56 718.639 2720.21 486.513ZM2737.58 713.962 2723.99 741.542 2710.08 714.123Z" fill="#FFFFFF" fill-rule="nonzero" fill-opacity="1"/><path d="M2726.79 849.5 2726.79 1081.63 2722.21 1081.63 2722.21 849.5ZM2738.25 1077.04 2724.5 1104.54 2710.75 1077.04Z" fill="#FFFFFF" fill-rule="nonzero" fill-opacity="1"/><path d="M2778.5 793.208 3183.83 793.209 3183.83 797.792 2778.5 797.792ZM3179.25 781.75 3206.75 795.5 3179.25 809.25Z" fill="#FFFFFF" fill-rule="nonzero" fill-opacity="1"/><path d="M3475.79 855.5 3475.79 903.349 3471.21 903.349 3471.21 855.5ZM3487.25 898.766 3473.5 926.266 3459.75 898.766Z" fill="#FFFFFF" fill-rule="nonzero" fill-opacity="1"/><path d="M3527.5 977.208 3719.32 977.208 3719.32 1082.93 3714.74 1082.93 3714.74 979.5 3717.03 981.792 3527.5 981.792ZM3730.78 1078.35 3717.03 1105.85 3703.28 1078.35Z" fill="#FFFFFF" fill-rule="nonzero" fill-opacity="1"/><path d="M0-2.29167 201.229-2.29167 201.229 103.434 196.645 103.434 196.645 0 198.937 2.29167 0 2.29167ZM212.687 98.851 198.937 126.351 185.187 98.851Z" fill="#FFFFFF" fill-rule="nonzero" fill-opacity="1" transform="matrix(-1 1.22465e-16 1.22465e-16 1 3419.44 979.5)"/><text fill="#FFFFFF" fill-opacity="1" font-family="Calibri,Calibri_MSFontService,sans-serif" font-style="normal" font-variant="normal" font-weight="400" font-stretch="normal" font-size="48" text-anchor="start" direction="ltr" writing-mode="lr-tb" unicode-bidi="normal" text-decoration="none" transform="matrix(1 0 0 1 2775.01 769)">P(</text><text fill="#FFFFFF" fill-opacity="1" font-family="Calibri,Calibri_MSFontService,sans-serif" font-style="normal" font-variant="normal" font-weight="400" font-stretch="normal" font-size="48" text-anchor="start" direction="ltr" writing-mode="lr-tb" unicode-bidi="normal" text-decoration="none" transform="matrix(1 0 0 1 2813.96 769)">bottleneck</text><text fill="#FFFFFF" fill-opacity="1" font-family="Calibri,Calibri_MSFontService,sans-serif" font-style="normal" font-variant="normal" font-weight="400" font-stretch="normal" font-size="48" text-anchor="start" direction="ltr" writing-mode="lr-tb" unicode-bidi="normal" text-decoration="none" transform="matrix(1 0 0 1 3023.08 769)">)= a </text><text fill="#FFFFFF" fill-opacity="1" font-family="Calibri,Calibri_MSFontService,sans-serif" font-style="normal" font-variant="normal" font-weight="400" font-stretch="normal" font-size="48" text-anchor="start" direction="ltr" writing-mode="lr-tb" unicode-bidi="normal" text-decoration="none" transform="matrix(1 0 0 1 3106.15 769)">-</text><text fill="#FFFFFF" fill-opacity="1" font-family="Calibri,Calibri_MSFontService,sans-serif" font-style="normal" font-variant="normal" font-weight="700" font-stretch="normal" font-size="48" text-anchor="start" direction="ltr" writing-mode="lr-tb" unicode-bidi="normal" text-decoration="none" transform="matrix(1 0 0 1 3131.93 769)">m</text><text fill="#FFFFFF" fill-opacity="1" font-family="Calibri,Calibri_MSFontService,sans-serif" font-style="normal" font-variant="normal" font-weight="400" font-stretch="normal" font-size="46" text-anchor="start" direction="ltr" writing-mode="lr-tb" unicode-bidi="normal" text-decoration="none" transform="matrix(1 0 0 1 3753.82 1048)">P(</text><text fill="#FFFFFF" fill-opacity="1" font-family="Calibri,Calibri_MSFontService,sans-serif" font-style="normal" font-variant="normal" font-weight="400" font-stretch="normal" font-size="46" text-anchor="start" direction="ltr" writing-mode="lr-tb" unicode-bidi="normal" text-decoration="none" transform="matrix(1 0 0 1 3791.06 1048)">widespread</text><text fill="#FFFFFF" fill-opacity="1" font-family="Calibri,Calibri_MSFontService,sans-serif" font-style="normal" font-variant="normal" font-weight="400" font-stretch="normal" font-size="46" text-anchor="start" direction="ltr" writing-mode="lr-tb" unicode-bidi="normal" text-decoration="none" transform="matrix(1 0 0 1 4007.62 1048)">)= (a</text><text fill="#FFFFFF" fill-opacity="1" font-family="Calibri,Calibri_MSFontService,sans-serif" font-style="normal" font-variant="normal" font-weight="400" font-stretch="normal" font-size="46" text-anchor="start" direction="ltr" writing-mode="lr-tb" unicode-bidi="normal" text-decoration="none" transform="matrix(1 0 0 1 4090.12 1048)">-</text><text fill="#FFFFFF" fill-opacity="1" font-family="Calibri,Calibri_MSFontService,sans-serif" font-style="normal" font-variant="normal" font-weight="700" font-stretch="normal" font-size="46" text-anchor="start" direction="ltr" writing-mode="lr-tb" unicode-bidi="normal" text-decoration="none" transform="matrix(1 0 0 1 4103.88 1048)">m</text><text fill="#FFFFFF" fill-opacity="1" font-family="Calibri,Calibri_MSFontService,sans-serif" font-style="normal" font-variant="normal" font-weight="400" font-stretch="normal" font-size="46" text-anchor="start" direction="ltr" writing-mode="lr-tb" unicode-bidi="normal" text-decoration="none" transform="matrix(1 0 0 1 4141.11 1048)">) x (b</text><text fill="#FFFFFF" fill-opacity="1" font-family="Calibri,Calibri_MSFontService,sans-serif" font-style="normal" font-variant="normal" font-weight="400" font-stretch="normal" font-size="46" text-anchor="start" direction="ltr" writing-mode="lr-tb" unicode-bidi="normal" text-decoration="none" transform="matrix(1 0 0 1 4233.35 1048)">-</text><text fill="#FFFFFF" fill-opacity="1" font-family="Calibri,Calibri_MSFontService,sans-serif" font-style="normal" font-variant="normal" font-weight="700" font-stretch="normal" font-size="46" text-anchor="start" direction="ltr" writing-mode="lr-tb" unicode-bidi="normal" text-decoration="none" transform="matrix(1 0 0 1 4247.1 1048)">n</text><text fill="#FFFFFF" fill-opacity="1" font-family="Calibri,Calibri_MSFontService,sans-serif" font-style="normal" font-variant="normal" font-weight="400" font-stretch="normal" font-size="46" text-anchor="start" direction="ltr" writing-mode="lr-tb" unicode-bidi="normal" text-decoration="none" transform="matrix(1 0 0 1 4271.74 1048)">)</text><path d="M485.643 1434.46 949.782 1434.46 949.782 1588.46 485.643 1588.46Z" fill="#CBD4DE" fill-rule="evenodd" fill-opacity="1"/><path d="M949.782 1434.46 1445.95 1434.46 1445.95 1588.46 949.782 1588.46Z" fill="#9B9B9B" fill-rule="evenodd" fill-opacity="1"/><path d="M1445.95 1434.46 1921.06 1434.46 1921.06 1588.46 1445.95 1588.46Z" fill="#9B9B9B" fill-rule="evenodd" fill-opacity="1"/><path d="M1921.06 1434.46 2503.82 1434.46 2503.82 1588.46 1921.06 1588.46Z" fill="#046B99" fill-rule="evenodd" fill-opacity="1"/><path d="M2503.82 1434.46 2974.25 1434.46 2974.25 1588.46 2503.82 1588.46Z" fill="#9B9B9B" fill-rule="evenodd" fill-opacity="1"/><path d="M2974.25 1434.46 3472.76 1434.46 3472.76 1588.46 2974.25 1588.46Z" fill="#9B9B9B" fill-rule="evenodd" fill-opacity="1"/><path d="M3472.76 1434.46 3931.48 1434.46 3931.48 1588.46 3472.76 1588.46Z" fill="#CBD4DE" fill-rule="evenodd" fill-opacity="1"/><path d="M485.643 1588.46 949.782 1588.46 949.782 1742.46 485.643 1742.46Z" fill="#E7EBEF" fill-rule="evenodd" fill-opacity="1"/><path d="M949.782 1588.46 1445.95 1588.46 1445.95 1742.46 949.782 1742.46Z" fill="#9B9B9B" fill-rule="evenodd" fill-opacity="1"/><path d="M1445.95 1588.46 1921.06 1588.46 1921.06 1742.46 1445.95 1742.46Z" fill="#9B9B9B" fill-rule="evenodd" fill-opacity="1"/><path d="M1921.06 1588.46 2503.82 1588.46 2503.82 1742.46 1921.06 1742.46Z" fill="#046B99" fill-rule="evenodd" fill-opacity="1"/><path d="M2503.82 1588.46 2974.25 1588.46 2974.25 1742.46 2503.82 1742.46Z" fill="#9B9B9B" fill-rule="evenodd" fill-opacity="1"/><path d="M2974.25 1588.46 3472.76 1588.46 3472.76 1742.46 2974.25 1742.46Z" fill="#9B9B9B" fill-rule="evenodd" fill-opacity="1"/><path d="M3472.76 1588.46 3931.48 1588.46 3931.48 1742.46 3472.76 1742.46Z" fill="#E7EBEF" fill-rule="evenodd" fill-opacity="1"/><path d="M485.643 1742.46 949.782 1742.46 949.782 1896.46 485.643 1896.46Z" fill="#CBD4DE" fill-rule="evenodd" fill-opacity="1"/><path d="M949.782 1742.46 1445.95 1742.46 1445.95 1896.46 949.782 1896.46Z" fill="#9B9B9B" fill-rule="evenodd" fill-opacity="1"/><path d="M1445.95 1742.46 1921.06 1742.46 1921.06 1896.46 1445.95 1896.46Z" fill="#9B9B9B" fill-rule="evenodd" fill-opacity="1"/><path d="M1921.06 1742.46 2503.82 1742.46 2503.82 1896.46 1921.06 1896.46Z" fill="#046B99" fill-rule="evenodd" fill-opacity="1"/><path d="M2503.82 1742.46 2974.25 1742.46 2974.25 1896.46 2503.82 1896.46Z" fill="#9B9B9B" fill-rule="evenodd" fill-opacity="1"/><path d="M2974.25 1742.46 3472.76 1742.46 3472.76 1896.46 2974.25 1896.46Z" fill="#9B9B9B" fill-rule="evenodd" fill-opacity="1"/><path d="M3472.76 1742.46 3931.48 1742.46 3931.48 1896.46 3472.76 1896.46Z" fill="#CBD4DE" fill-rule="evenodd" fill-opacity="1"/><path d="M949.782 1432.17 949.782 1898.76" stroke="#FFFFFF" stroke-width="4.58333" stroke-linecap="butt" stroke-linejoin="round" stroke-miterlimit="10" stroke-opacity="1" fill="none" fill-rule="evenodd"/><path d="M1445.95 1432.17 1445.95 1898.76" stroke="#FFFFFF" stroke-width="4.58333" stroke-linecap="butt" stroke-linejoin="round" stroke-miterlimit="10" stroke-opacity="1" fill="none" fill-rule="evenodd"/><path d="M1921.06 1432.17 1921.06 1898.76" stroke="#FFFFFF" stroke-width="4.58333" stroke-linecap="butt" stroke-linejoin="round" stroke-miterlimit="10" stroke-opacity="1" fill="none" fill-rule="evenodd"/><path d="M2503.82 1432.17 2503.82 1898.76" stroke="#FFFFFF" stroke-width="4.58333" stroke-linecap="butt" stroke-linejoin="round" stroke-miterlimit="10" stroke-opacity="1" fill="none" fill-rule="evenodd"/><path d="M2974.25 1432.17 2974.25 1898.76" stroke="#FFFFFF" stroke-width="4.58333" stroke-linecap="butt" stroke-linejoin="round" stroke-miterlimit="10" stroke-opacity="1" fill="none" fill-rule="evenodd"/><path d="M3472.76 1432.17 3472.76 1898.76" stroke="#FFFFFF" stroke-width="4.58333" stroke-linecap="butt" stroke-linejoin="round" stroke-miterlimit="10" stroke-opacity="1" fill="none" fill-rule="evenodd"/><path d="M483.352 1588.46 3933.77 1588.46" stroke="#FFFFFF" stroke-width="4.58333" stroke-linecap="butt" stroke-linejoin="round" stroke-miterlimit="10" stroke-opacity="1" fill="none" fill-rule="evenodd"/><path d="M483.352 1742.46 3933.77 1742.46" stroke="#FFFFFF" stroke-width="4.58333" stroke-linecap="butt" stroke-linejoin="round" stroke-miterlimit="10" stroke-opacity="1" fill="none" fill-rule="evenodd"/><path d="M485.643 1432.17 485.643 1898.76" stroke="#FFFFFF" stroke-width="4.58333" stroke-linecap="butt" stroke-linejoin="round" stroke-miterlimit="10" stroke-opacity="1" fill="none" fill-rule="evenodd"/><path d="M3931.48 1432.17 3931.48 1898.76" stroke="#FFFFFF" stroke-width="4.58333" stroke-linecap="butt" stroke-linejoin="round" stroke-miterlimit="10" stroke-opacity="1" fill="none" fill-rule="evenodd"/><path d="M483.352 1434.46 3933.77 1434.46" stroke="#FFFFFF" stroke-width="4.58333" stroke-linecap="butt" stroke-linejoin="round" stroke-miterlimit="10" stroke-opacity="1" fill="none" fill-rule="evenodd"/><path d="M483.352 1896.46 3933.77 1896.46" stroke="#FFFFFF" stroke-width="4.58333" stroke-linecap="butt" stroke-linejoin="round" stroke-miterlimit="10" stroke-opacity="1" fill="none" fill-rule="evenodd"/><text fill="#FFFFFF" fill-opacity="1" font-family="Calibri,Calibri_MSFontService,sans-serif" font-style="normal" font-variant="normal" font-weight="700" font-stretch="normal" font-size="50" text-anchor="start" direction="ltr" writing-mode="lr-tb" unicode-bidi="normal" text-decoration="none" transform="matrix(1 0 0 1 1995.59 1528)">Administrative Costs</text><text fill="#FFFFFF" fill-opacity="1" font-family="Calibri,Calibri_MSFontService,sans-serif" font-style="normal" font-variant="normal" font-weight="700" font-stretch="normal" font-size="50" text-anchor="start" direction="ltr" writing-mode="lr-tb" unicode-bidi="normal" text-decoration="none" transform="matrix(1 0 0 1 1968.67 1652)">Operational Bottleneck </text><text fill="#FFFFFF" fill-opacity="1" font-family="Calibri,Calibri_MSFontService,sans-serif" font-style="normal" font-variant="normal" font-weight="700" font-stretch="normal" font-size="50" text-anchor="start" direction="ltr" writing-mode="lr-tb" unicode-bidi="normal" text-decoration="none" transform="matrix(1 0 0 1 2156.58 1713)">Costs</text><text fill="#FFFFFF" fill-opacity="1" font-family="Calibri,Calibri_MSFontService,sans-serif" font-style="normal" font-variant="normal" font-weight="700" font-stretch="normal" font-size="50" text-anchor="start" direction="ltr" writing-mode="lr-tb" unicode-bidi="normal" text-decoration="none" transform="matrix(1 0 0 1 1973.82 1836)">Optimization</text><text fill="#FFFFFF" fill-opacity="1" font-family="Calibri,Calibri_MSFontService,sans-serif" font-style="normal" font-variant="normal" font-weight="700" font-stretch="normal" font-size="50" text-anchor="start" direction="ltr" writing-mode="lr-tb" unicode-bidi="normal" text-decoration="none" transform="matrix(1 0 0 1 2259.71 1836)">Potential </text><path d="M753 1316 753 1341.5 708.5 1367 664 1341.5 664 1316 708.5 1341.5Z" fill="#FFFFFF" fill-rule="evenodd" fill-opacity="1"/><path d="M734 1298 734 1315.5 708.5 1333 683 1315.5 683 1298 708.5 1315.5Z" fill="#FFFFFF" fill-rule="evenodd" fill-opacity="1"/><path d="M1246 1321 1246 1346.5 1201.5 1372 1157 1346.5 1157 1321 1201.5 1346.5Z" fill="#FFFFFF" fill-rule="evenodd" fill-opacity="1"/><path d="M1227 1303 1227 1321 1202 1339 1177 1321 1177 1303 1202 1321Z" fill="#FFFFFF" fill-rule="evenodd" fill-opacity="1"/><path d="M1738 1316 1738 1341.5 1693.5 1367 1649 1341.5 1649 1316 1693.5 1341.5Z" fill="#FFFFFF" fill-rule="evenodd" fill-opacity="1"/><path d="M1719 1298 1719 1316 1693.5 1334 1668 1316 1668 1298 1693.5 1316Z" fill="#FFFFFF" fill-rule="evenodd" fill-opacity="1"/><path d="M2768 1313 2768 1338.5 2723.5 1364 2679 1338.5 2679 1313 2723.5 1338.5Z" fill="#FFFFFF" fill-rule="evenodd" fill-opacity="1"/><path d="M2749 1295 2749 1312.5 2723.5 1330 2698 1312.5 2698 1295 2723.5 1312.5Z" fill="#FFFFFF" fill-rule="evenodd" fill-opacity="1"/><path d="M3262 1318 3262 1343.5 3217.5 1369 3173 1343.5 3173 1318 3217.5 1343.5Z" fill="#FFFFFF" fill-rule="evenodd" fill-opacity="1"/><path d="M3243 1300 3243 1318 3217.5 1336 3192 1318 3192 1300 3217.5 1318Z" fill="#FFFFFF" fill-rule="evenodd" fill-opacity="1"/><path d="M3754 1313 3754 1338.5 3709.5 1364 3665 1338.5 3665 1313 3709.5 1338.5Z" fill="#FFFFFF" fill-rule="evenodd" fill-opacity="1"/><path d="M3735 1295 3735 1312.5 3709.5 1330 3684 1312.5 3684 1295 3709.5 1312.5Z" fill="#FFFFFF" fill-rule="evenodd" fill-opacity="1"/><text fill="#FFFFFF" fill-opacity="1" font-family="Calibri,Calibri_MSFontService,sans-serif" font-style="normal" font-variant="normal" font-weight="700" font-stretch="normal" font-size="83" text-anchor="start" direction="ltr" writing-mode="lr-tb" unicode-bidi="normal" text-decoration="none" transform="matrix(1 0 0 1 500.92 1415)">1.3</text><text fill="#FFFFFF" fill-opacity="1" font-family="Calibri,Calibri_MSFontService,sans-serif" font-style="normal" font-variant="normal" font-weight="400" font-stretch="normal" font-size="83" text-anchor="start" direction="ltr" writing-mode="lr-tb" unicode-bidi="normal" text-decoration="none" transform="matrix(1 0 0 1 974.352 1412)">1.2</text><text fill="#FFFFFF" fill-opacity="1" font-family="Calibri,Calibri_MSFontService,sans-serif" font-style="normal" font-variant="normal" font-weight="400" font-stretch="normal" font-size="83" text-anchor="start" direction="ltr" writing-mode="lr-tb" unicode-bidi="normal" text-decoration="none" transform="matrix(1 0 0 1 1474.4 1412)">1.1</text><text fill="#FFFFFF" fill-opacity="1" font-family="Calibri,Calibri_MSFontService,sans-serif" font-style="normal" font-variant="normal" font-weight="400" font-stretch="normal" font-size="83" text-anchor="start" direction="ltr" writing-mode="lr-tb" unicode-bidi="normal" text-decoration="none" transform="matrix(1 0 0 1 2516.6 1409)">2.1</text><text fill="#FFFFFF" fill-opacity="1" font-family="Calibri,Calibri_MSFontService,sans-serif" font-style="normal" font-variant="normal" font-weight="400" font-stretch="normal" font-size="83" text-anchor="start" direction="ltr" writing-mode="lr-tb" unicode-bidi="normal" text-decoration="none" transform="matrix(1 0 0 1 2983.8 1415)">2.2</text><text fill="#FFFFFF" fill-opacity="1" font-family="Calibri,Calibri_MSFontService,sans-serif" font-style="normal" font-variant="normal" font-weight="700" font-stretch="normal" font-size="83" text-anchor="start" direction="ltr" writing-mode="lr-tb" unicode-bidi="normal" text-decoration="none" transform="matrix(1 0 0 1 3470.19 1424)">2.3</text><path d="M1640 796 1693.5 742 1747 796 1693.5 850Z" fill="#B3CB2D" fill-rule="evenodd" fill-opacity="1"/><path d="M521.124 1472 521.124 1521.5 536 1521.5 513.5 1544 491 1521.5 505.876 1521.5 505.876 1472Z" fill="#00B050" fill-rule="evenodd" fill-opacity="1"/><path d="M2518 1819.69 2548.69 1819.69 2548.69 1789 2560.31 1789 2560.31 1819.69 2591 1819.69 2591 1830.31 2560.31 1830.31 2560.31 1861 2548.69 1861 2548.69 1830.31 2518 1830.31Z" fill="#00B050" fill-rule="evenodd" fill-opacity="1"/><text fill="#262626" fill-opacity="1" font-family="Calibri,Calibri_MSFontService,sans-serif" font-style="italic" font-variant="normal" font-weight="400" font-stretch="normal" font-size="50" text-anchor="start" direction="ltr" writing-mode="lr-tb" unicode-bidi="normal" text-decoration="none" transform="matrix(1 0 0 1 590.294 1515)">Reduced</text><text fill="#262626" fill-opacity="1" font-family="Calibri,Calibri_MSFontService,sans-serif" font-style="italic" font-variant="normal" font-weight="400" font-stretch="normal" font-size="50" text-anchor="start" direction="ltr" writing-mode="lr-tb" unicode-bidi="normal" text-decoration="none" transform="matrix(1 0 0 1 588.213 1687)">Reduced</text><text fill="#262626" fill-opacity="1" font-family="Calibri,Calibri_MSFontService,sans-serif" font-style="italic" font-variant="normal" font-weight="400" font-stretch="normal" font-size="50" text-anchor="start" direction="ltr" writing-mode="lr-tb" unicode-bidi="normal" text-decoration="none" transform="matrix(1 0 0 1 1070.34 1681)">Reduced</text><text fill="#262626" fill-opacity="1" font-family="Calibri,Calibri_MSFontService,sans-serif" font-style="italic" font-variant="normal" font-weight="400" font-stretch="normal" font-size="50" text-anchor="start" direction="ltr" writing-mode="lr-tb" unicode-bidi="normal" text-decoration="none" transform="matrix(1 0 0 1 1066.52 1523)">Reduced</text><text fill="#262626" fill-opacity="1" font-family="Calibri,Calibri_MSFontService,sans-serif" font-style="italic" font-variant="normal" font-weight="400" font-stretch="normal" font-size="50" text-anchor="start" direction="ltr" writing-mode="lr-tb" unicode-bidi="normal" text-decoration="none" transform="matrix(1 0 0 1 2620.91 1517)">Reduced</text><text fill="#262626" fill-opacity="1" font-family="Calibri,Calibri_MSFontService,sans-serif" font-style="italic" font-variant="normal" font-weight="400" font-stretch="normal" font-size="50" text-anchor="start" direction="ltr" writing-mode="lr-tb" unicode-bidi="normal" text-decoration="none" transform="matrix(1 0 0 1 3130.23 1512)">Reduced</text><path d="M522.124 1640 522.124 1688.5 537 1688.5 514.5 1711 492 1688.5 506.876 1688.5 506.876 1640Z" fill="#00B050" fill-rule="evenodd" fill-opacity="1"/><path d="M993.124 1474 993.124 1523.5 1008 1523.5 985.5 1546 963 1523.5 977.876 1523.5 977.876 1474Z" fill="#00B050" fill-rule="evenodd" fill-opacity="1"/><path d="M991.793 1634 991.793 1683 1007 1683 984 1706 961 1683 976.207 1683 976.207 1634Z" fill="#00B050" fill-rule="evenodd" fill-opacity="1"/><path d="M2548.79 1471 2548.79 1520 2564 1520 2541 1543 2518 1520 2533.21 1520 2533.21 1471Z" fill="#00B050" fill-rule="evenodd" fill-opacity="1"/><path d="M3018.79 1473 3018.79 1522 3034 1522 3011 1545 2988 1522 3003.21 1522 3003.21 1473Z" fill="#00B050" fill-rule="evenodd" fill-opacity="1"/><path d="M3018.79 1642 3018.79 1691 3034 1691 3011 1714 2988 1691 3003.21 1691 3003.21 1642Z" fill="#00B050" fill-rule="evenodd" fill-opacity="1"/><path d="M3068.12 1642 3068.12 1691.5 3083 1691.5 3060.5 1714 3038 1691.5 3052.88 1691.5 3052.88 1642Z" fill="#00B050" fill-rule="evenodd" fill-opacity="1"/><path d="M3518.12 1479 3518.12 1528.5 3533 1528.5 3510.5 1551 3488 1528.5 3502.88 1528.5 3502.88 1479Z" fill="#00B050" fill-rule="evenodd" fill-opacity="1"/><path d="M3566.12 1479 3566.12 1528.5 3581 1528.5 3558.5 1551 3536 1528.5 3550.88 1528.5 3550.88 1479Z" fill="#00B050" fill-rule="evenodd" fill-opacity="1"/><path d="M3512.79 1642 3512.79 1691 3528 1691 3505 1714 3482 1691 3497.21 1691 3497.21 1642Z" fill="#00B050" fill-rule="evenodd" fill-opacity="1"/><path d="M3562.12 1642 3562.12 1691.5 3577 1691.5 3554.5 1714 3532 1691.5 3546.88 1691.5 3546.88 1642Z" fill="#00B050" fill-rule="evenodd" fill-opacity="1"/><path d="M3611.79 1642 3611.79 1691 3627 1691 3604 1714 3581 1691 3596.21 1691 3596.21 1642Z" fill="#00B050" fill-rule="evenodd" fill-opacity="1"/><text fill="#262626" fill-opacity="1" font-family="Calibri,Calibri_MSFontService,sans-serif" font-style="italic" font-variant="normal" font-weight="400" font-stretch="normal" font-size="50" text-anchor="start" direction="ltr" writing-mode="lr-tb" unicode-bidi="normal" text-decoration="none" transform="matrix(1 0 0 1 3656.5 1652)">Significantly</text><text fill="#262626" fill-opacity="1" font-family="Calibri,Calibri_MSFontService,sans-serif" font-style="italic" font-variant="normal" font-weight="400" font-stretch="normal" font-size="50" text-anchor="start" direction="ltr" writing-mode="lr-tb" unicode-bidi="normal" text-decoration="none" transform="matrix(1 0 0 1 3693.17 1707)">Reduced</text><text fill="#262626" fill-opacity="1" font-family="Calibri,Calibri_MSFontService,sans-serif" font-style="italic" font-variant="normal" font-weight="400" font-stretch="normal" font-size="50" text-anchor="start" direction="ltr" writing-mode="lr-tb" unicode-bidi="normal" text-decoration="none" transform="matrix(1 0 0 1 3658.37 1492)">Noticeably</text><text fill="#262626" fill-opacity="1" font-family="Calibri,Calibri_MSFontService,sans-serif" font-style="italic" font-variant="normal" font-weight="400" font-stretch="normal" font-size="50" text-anchor="start" direction="ltr" writing-mode="lr-tb" unicode-bidi="normal" text-decoration="none" transform="matrix(1 0 0 1 3679.87 1547)">Reduced</text><text fill="#262626" fill-opacity="1" font-family="Calibri,Calibri_MSFontService,sans-serif" font-style="italic" font-variant="normal" font-weight="400" font-stretch="normal" font-size="50" text-anchor="start" direction="ltr" writing-mode="lr-tb" unicode-bidi="normal" text-decoration="none" transform="matrix(1 0 0 1 3140.88 1658)">Noticeably</text><text fill="#262626" fill-opacity="1" font-family="Calibri,Calibri_MSFontService,sans-serif" font-style="italic" font-variant="normal" font-weight="400" font-stretch="normal" font-size="50" text-anchor="start" direction="ltr" writing-mode="lr-tb" unicode-bidi="normal" text-decoration="none" transform="matrix(1 0 0 1 3162.38 1713)">Reduced</text><text fill="#262626" fill-opacity="1" font-family="Calibri,Calibri_MSFontService,sans-serif" font-style="italic" font-variant="normal" font-weight="400" font-stretch="normal" font-size="50" text-anchor="start" direction="ltr" writing-mode="lr-tb" unicode-bidi="normal" text-decoration="none" transform="matrix(1 0 0 1 2619.4 1838)">Increased</text><text fill="#FFFFFF" fill-opacity="1" font-family="Calibri,Calibri_MSFontService,sans-serif" font-style="normal" font-variant="normal" font-weight="400" font-stretch="normal" font-size="50" text-anchor="start" direction="ltr" writing-mode="lr-tb" unicode-bidi="normal" text-decoration="none" transform="matrix(1 0 0 1 162.714 2040)">a = </text><text fill="#FFFFFF" fill-opacity="1" font-family="Calibri,Calibri_MSFontService,sans-serif" font-style="normal" font-variant="normal" font-weight="400" font-stretch="normal" font-size="50" text-anchor="start" direction="ltr" writing-mode="lr-tb" unicode-bidi="normal" text-decoration="none" transform="matrix(1 0 0 1 234.901 2040)">Probability of a general bottleneck occurring</text><text fill="#FFFFFF" fill-opacity="1" font-family="Calibri,Calibri_MSFontService,sans-serif" font-style="normal" font-variant="normal" font-weight="400" font-stretch="normal" font-size="50" text-anchor="start" direction="ltr" writing-mode="lr-tb" unicode-bidi="normal" text-decoration="none" transform="matrix(1 0 0 1 162.714 2139)">b = </text><text fill="#FFFFFF" fill-opacity="1" font-family="Calibri,Calibri_MSFontService,sans-serif" font-style="normal" font-variant="normal" font-weight="400" font-stretch="normal" font-size="50" text-anchor="start" direction="ltr" writing-mode="lr-tb" unicode-bidi="normal" text-decoration="none" transform="matrix(1 0 0 1 237.193 2139)">Conditional</text><text fill="#FFFFFF" fill-opacity="1" font-family="Calibri,Calibri_MSFontService,sans-serif" font-style="normal" font-variant="normal" font-weight="400" font-stretch="normal" font-size="50" text-anchor="start" direction="ltr" writing-mode="lr-tb" unicode-bidi="normal" text-decoration="none" transform="matrix(1 0 0 1 482.401 2139)">probability</text><text fill="#FFFFFF" fill-opacity="1" font-family="Calibri,Calibri_MSFontService,sans-serif" font-style="normal" font-variant="normal" font-weight="400" font-stretch="normal" font-size="50" text-anchor="start" direction="ltr" writing-mode="lr-tb" unicode-bidi="normal" text-decoration="none" transform="matrix(1 0 0 1 715.005 2139)">of</text><text fill="#FFFFFF" fill-opacity="1" font-family="Calibri,Calibri_MSFontService,sans-serif" font-style="normal" font-variant="normal" font-weight="400" font-stretch="normal" font-size="50" text-anchor="start" direction="ltr" writing-mode="lr-tb" unicode-bidi="normal" text-decoration="none" transform="matrix(1 0 0 1 768.287 2139)">a </text><text fill="#FFFFFF" fill-opacity="1" font-family="Calibri,Calibri_MSFontService,sans-serif" font-style="normal" font-variant="normal" font-weight="400" font-stretch="normal" font-size="50" text-anchor="start" direction="ltr" writing-mode="lr-tb" unicode-bidi="normal" text-decoration="none" transform="matrix(1 0 0 1 803.807 2139)">widespread</text><text fill="#FFFFFF" fill-opacity="1" font-family="Calibri,Calibri_MSFontService,sans-serif" font-style="normal" font-variant="normal" font-weight="400" font-stretch="normal" font-size="50" text-anchor="start" direction="ltr" writing-mode="lr-tb" unicode-bidi="normal" text-decoration="none" transform="matrix(1 0 0 1 1053.6 2139)">bottleneck</text><text fill="#FFFFFF" fill-opacity="1" font-family="Calibri,Calibri_MSFontService,sans-serif" font-style="normal" font-variant="normal" font-weight="400" font-stretch="normal" font-size="50" text-anchor="start" direction="ltr" writing-mode="lr-tb" unicode-bidi="normal" text-decoration="none" transform="matrix(1 0 0 1 1283.34 2139)">given</text><text fill="#FFFFFF" fill-opacity="1" font-family="Calibri,Calibri_MSFontService,sans-serif" font-style="normal" font-variant="normal" font-weight="400" font-stretch="normal" font-size="50" text-anchor="start" direction="ltr" writing-mode="lr-tb" unicode-bidi="normal" text-decoration="none" transform="matrix(1 0 0 1 1404.22 2139)">Bottleneck</text><text fill="#FFFFFF" fill-opacity="1" font-family="Calibri,Calibri_MSFontService,sans-serif" font-style="normal" font-variant="normal" font-weight="400" font-stretch="normal" font-size="50" text-anchor="start" direction="ltr" writing-mode="lr-tb" unicode-bidi="normal" text-decoration="none" transform="matrix(1 0 0 1 2250.47 2040)">m = </text><text fill="#FFFFFF" fill-opacity="1" font-family="Calibri,Calibri_MSFontService,sans-serif" font-style="normal" font-variant="normal" font-weight="400" font-stretch="normal" font-size="50" text-anchor="start" direction="ltr" writing-mode="lr-tb" unicode-bidi="normal" text-decoration="none" transform="matrix(1 0 0 1 2338.7 2040)">Reduction</text><text fill="#FFFFFF" fill-opacity="1" font-family="Calibri,Calibri_MSFontService,sans-serif" font-style="normal" font-variant="normal" font-weight="400" font-stretch="normal" font-size="50" text-anchor="start" direction="ltr" writing-mode="lr-tb" unicode-bidi="normal" text-decoration="none" transform="matrix(1 0 0 1 2557.55 2040)">Parameter </text><text fill="#FFFFFF" fill-opacity="1" font-family="Calibri,Calibri_MSFontService,sans-serif" font-style="normal" font-variant="normal" font-weight="400" font-stretch="normal" font-size="50" text-anchor="start" direction="ltr" writing-mode="lr-tb" unicode-bidi="normal" text-decoration="none" transform="matrix(1 0 0 1 2785.57 2040)">of a general bottleneck occurring</text><text fill="#FFFFFF" fill-opacity="1" font-family="Calibri,Calibri_MSFontService,sans-serif" font-style="normal" font-variant="normal" font-weight="400" font-stretch="normal" font-size="50" text-anchor="start" direction="ltr" writing-mode="lr-tb" unicode-bidi="normal" text-decoration="none" transform="matrix(1 0 0 1 2250.47 2139)">n = </text><text fill="#FFFFFF" fill-opacity="1" font-family="Calibri,Calibri_MSFontService,sans-serif" font-style="normal" font-variant="normal" font-weight="400" font-stretch="normal" font-size="50" text-anchor="start" direction="ltr" writing-mode="lr-tb" unicode-bidi="normal" text-decoration="none" transform="matrix(1 0 0 1 2324.95 2139)">Reduction</text><text fill="#FFFFFF" fill-opacity="1" font-family="Calibri,Calibri_MSFontService,sans-serif" font-style="normal" font-variant="normal" font-weight="400" font-stretch="normal" font-size="50" text-anchor="start" direction="ltr" writing-mode="lr-tb" unicode-bidi="normal" text-decoration="none" transform="matrix(1 0 0 1 2543.8 2139)">Parameter </text><text fill="#FFFFFF" fill-opacity="1" font-family="Calibri,Calibri_MSFontService,sans-serif" font-style="normal" font-variant="normal" font-weight="400" font-stretch="normal" font-size="50" text-anchor="start" direction="ltr" writing-mode="lr-tb" unicode-bidi="normal" text-decoration="none" transform="matrix(1 0 0 1 2771.82 2139)">of a </text><text fill="#FFFFFF" fill-opacity="1" font-family="Calibri,Calibri_MSFontService,sans-serif" font-style="normal" font-variant="normal" font-weight="400" font-stretch="normal" font-size="50" text-anchor="start" direction="ltr" writing-mode="lr-tb" unicode-bidi="normal" text-decoration="none" transform="matrix(1 0 0 1 2860.62 2139)">a </text><text fill="#FFFFFF" fill-opacity="1" font-family="Calibri,Calibri_MSFontService,sans-serif" font-style="normal" font-variant="normal" font-weight="400" font-stretch="normal" font-size="50" text-anchor="start" direction="ltr" writing-mode="lr-tb" unicode-bidi="normal" text-decoration="none" transform="matrix(1 0 0 1 2896.15 2139)">widespread</text><text fill="#FFFFFF" fill-opacity="1" font-family="Calibri,Calibri_MSFontService,sans-serif" font-style="normal" font-variant="normal" font-weight="400" font-stretch="normal" font-size="50" text-anchor="start" direction="ltr" writing-mode="lr-tb" unicode-bidi="normal" text-decoration="none" transform="matrix(1 0 0 1 3145.94 2139)">bottleneck</text><text fill="#FFFFFF" fill-opacity="1" font-family="Calibri,Calibri_MSFontService,sans-serif" font-style="normal" font-variant="normal" font-weight="400" font-stretch="normal" font-size="50" text-anchor="start" direction="ltr" writing-mode="lr-tb" unicode-bidi="normal" text-decoration="none" transform="matrix(1 0 0 1 3375.68 2139)">given</text><text fill="#FFFFFF" fill-opacity="1" font-family="Calibri,Calibri_MSFontService,sans-serif" font-style="normal" font-variant="normal" font-weight="400" font-stretch="normal" font-size="50" text-anchor="start" direction="ltr" writing-mode="lr-tb" unicode-bidi="normal" text-decoration="none" transform="matrix(1 0 0 1 3496.56 2139)">Bottleneck</text></g></g></svg>