<svg width="2525" height="1485" xmlns="http://www.w3.org/2000/svg" xmlns:xlink="http://www.w3.org/1999/xlink" xml:space="preserve" overflow="hidden"><g transform="translate(-770 -527)"><g><rect x="798.5" y="531.5" width="2439" height="1445" stroke="#000000" stroke-width="3.4375" stroke-linecap="butt" stroke-linejoin="round" stroke-miterlimit="10" stroke-opacity="1" fill="#000000" fill-opacity="1"/><text fill="#FFFFFF" fill-opacity="1" font-family="1 Light,1 Light_MSFontService,sans-serif" font-style="normal" font-variant="normal" font-weight="300" font-stretch="normal" font-size="55" text-anchor="start" direction="ltr" writing-mode="lr-tb" unicode-bidi="normal" text-decoration="none" transform="matrix(1 0 0 1 2745.16 1215)">Short Term Material </text><text fill="#FFFFFF" fill-opacity="1" font-family="1 Light,1 Light_MSFontService,sans-serif" font-style="normal" font-variant="normal" font-weight="300" font-stretch="normal" font-size="55" text-anchor="start" direction="ltr" writing-mode="lr-tb" unicode-bidi="normal" text-decoration="none" transform="matrix(1 0 0 1 2745.16 1281)">Demand</text><text fill="#FFFFFF" fill-opacity="1" font-family="1 Light,1 Light_MSFontService,sans-serif" font-style="normal" font-variant="normal" font-weight="300" font-stretch="normal" font-size="55" text-anchor="start" direction="ltr" writing-mode="lr-tb" unicode-bidi="normal" text-decoration="none" transform="matrix(1 0 0 1 2747.88 1462)">Delivery Information</text><text fill="#FFFFFF" fill-opacity="1" font-family="1 Light,1 Light_MSFontService,sans-serif" font-style="normal" font-variant="normal" font-weight="300" font-stretch="normal" font-size="55" text-anchor="start" direction="ltr" writing-mode="lr-tb" unicode-bidi="normal" text-decoration="none" transform="matrix(1 0 0 1 2738.45 1870)">SC Disruption </text><text fill="#FFFFFF" fill-opacity="1" font-family="1 Light,1 Light_MSFontService,sans-serif" font-style="normal" font-variant="normal" font-weight="300" font-stretch="normal" font-size="55" text-anchor="start" direction="ltr" writing-mode="lr-tb" unicode-bidi="normal" text-decoration="none" transform="matrix(1 0 0 1 2738.45 1936)">Notifications</text><text fill="#FFFFFF" fill-opacity="1" font-family="1 Light,1 Light_MSFontService,sans-serif" font-style="normal" font-variant="normal" font-weight="300" font-stretch="normal" font-size="55" text-anchor="start" direction="ltr" writing-mode="lr-tb" unicode-bidi="normal" text-decoration="none" transform="matrix(1 0 0 1 1040.23 1012)">Item stock</text><text fill="#FFFFFF" fill-opacity="1" font-family="1 Light,1 Light_MSFontService,sans-serif" font-style="normal" font-variant="normal" font-weight="300" font-stretch="normal" font-size="55" text-anchor="start" direction="ltr" writing-mode="lr-tb" unicode-bidi="normal" text-decoration="none" transform="matrix(1 0 0 1 810.764 1215)">Planned Production </text><text fill="#FFFFFF" fill-opacity="1" font-family="1 Light,1 Light_MSFontService,sans-serif" font-style="normal" font-variant="normal" font-weight="300" font-stretch="normal" font-size="55" text-anchor="start" direction="ltr" writing-mode="lr-tb" unicode-bidi="normal" text-decoration="none" transform="matrix(1 0 0 1 1121.86 1281)">Output</text><text fill="#FFFFFF" fill-opacity="1" font-family="1 Light,1 Light_MSFontService,sans-serif" font-style="normal" font-variant="normal" font-weight="300" font-stretch="normal" font-size="55" text-anchor="start" direction="ltr" writing-mode="lr-tb" unicode-bidi="normal" text-decoration="none" transform="matrix(1 0 0 1 806.241 1462)">Delivery Information</text><text fill="#FFFFFF" fill-opacity="1" font-family="1 Light,1 Light_MSFontService,sans-serif" font-style="normal" font-variant="normal" font-weight="300" font-stretch="normal" font-size="55" text-anchor="start" direction="ltr" writing-mode="lr-tb" unicode-bidi="normal" text-decoration="none" transform="matrix(1 0 0 1 954.194 1870)">SC Disruption </text><text fill="#FFFFFF" fill-opacity="1" font-family="1 Light,1 Light_MSFontService,sans-serif" font-style="normal" font-variant="normal" font-weight="300" font-stretch="normal" font-size="55" text-anchor="start" direction="ltr" writing-mode="lr-tb" unicode-bidi="normal" text-decoration="none" transform="matrix(1 0 0 1 975.392 1936)">Notifications</text><text fill="#FFFFFF" fill-opacity="1" font-family="1 Light,1 Light_MSFontService,sans-serif" font-style="normal" font-variant="normal" font-weight="300" font-stretch="normal" font-size="55" text-anchor="start" direction="ltr" writing-mode="lr-tb" unicode-bidi="normal" text-decoration="none" transform="matrix(1 0 0 1 929.394 1677)">Days of Supply</text><text fill="#FFFFFF" fill-opacity="1" font-family="1 Light,1 Light_MSFontService,sans-serif" font-style="normal" font-variant="normal" font-weight="300" font-stretch="normal" font-size="55" text-anchor="start" direction="ltr" writing-mode="lr-tb" unicode-bidi="normal" text-decoration="none" transform="matrix(1 0 0 1 2745.16 1012)">Item stock</text><text fill="#FFFFFF" fill-opacity="1" font-family="5 SemiBold,5 SemiBold_MSFontService,sans-serif" font-style="normal" font-variant="normal" font-weight="600" font-stretch="normal" font-size="55" text-anchor="start" direction="ltr" writing-mode="lr-tb" unicode-bidi="normal" text-decoration="underline" transform="matrix(1 0 0 1 2459.42 845)">Customer</text><text fill="#FFFFFF" fill-opacity="1" font-family="1 Light,1 Light_MSFontService,sans-serif" font-style="normal" font-variant="normal" font-weight="300" font-stretch="normal" font-size="55" text-anchor="start" direction="ltr" writing-mode="lr-tb" unicode-bidi="normal" text-decoration="none" transform="matrix(1 0 0 1 2738.45 1677)">Days of Supply</text><path d="M2499 1393.27C2499 1371.03 2517.03 1353 2539.27 1353L2650.73 1353C2672.97 1353 2691 1371.03 2691 1393.27L2691 1496.73C2691 1518.97 2672.97 1537 2650.73 1537L2539.27 1537C2517.03 1537 2499 1518.97 2499 1496.73Z" fill="#E1D0E3" fill-rule="evenodd" fill-opacity="1"/><path d="M2586.49 1429.46 2588.94 1438.06C2591.24 1446.16 2592.39 1450.22 2595.77 1452.06 2599.16 1453.91 2603.45 1452.82 2612.05 1450.65L2621.16 1448.34C2629.75 1446.17 2634.05 1445.08 2636 1441.89 2637.96 1438.7 2636.81 1434.64 2634.5 1426.54L2632.06 1417.94C2629.76 1409.84 2628.61 1405.78 2625.23 1403.94 2621.84 1402.09 2617.54 1403.18 2608.95 1405.36L2599.84 1407.66C2591.24 1409.83 2586.95 1410.92 2585 1414.11 2583.04 1417.3 2584.19 1421.36 2586.49 1429.46Z" fill="#FFFFFF" fill-rule="evenodd" fill-opacity="1"/><path d="M2550.13 1413.49C2550.26 1413.06 2550.48 1412.66 2550.77 1412.31 2551.07 1411.96 2551.44 1411.66 2551.85 1411.44 2552.27 1411.22 2552.73 1411.08 2553.21 1411.03 2553.68 1410.97 2554.17 1411 2554.63 1411.12L2562.91 1413.27C2565.11 1413.82 2567.11 1414.9 2568.73 1416.4 2570.34 1417.89 2571.52 1419.75 2572.14 1421.79L2582.6 1457.14 2583.37 1459.62C2586.47 1460.69 2589.09 1462.72 2590.77 1465.37L2592.28 1464.93 2635.43 1454.47C2635.9 1454.36 2636.38 1454.33 2636.85 1454.39 2637.33 1454.46 2637.78 1454.6 2638.2 1454.83 2638.61 1455.06 2638.97 1455.36 2639.26 1455.71 2639.55 1456.07 2639.76 1456.48 2639.88 1456.91 2640 1457.34 2640.03 1457.79 2639.97 1458.23 2639.9 1458.68 2639.74 1459.1 2639.5 1459.49 2639.26 1459.88 2638.93 1460.21 2638.55 1460.48 2638.17 1460.75 2637.73 1460.95 2637.27 1461.06L2594.28 1471.48 2592.67 1471.95C2592.65 1477.71 2588.38 1482.99 2581.92 1484.55 2574.19 1486.43 2566.23 1482.27 2564.16 1475.27 2562.09 1468.27 2566.68 1461.07 2574.42 1459.19 2574.8 1459.1 2575.18 1459.02 2575.57 1458.96L2565.1 1423.6C2564.82 1422.7 2564.29 1421.87 2563.57 1421.21 2562.84 1420.55 2561.95 1420.07 2560.97 1419.83L2552.68 1417.68C2552.21 1417.57 2551.78 1417.36 2551.4 1417.09 2551.03 1416.81 2550.71 1416.47 2550.47 1416.08 2550.24 1415.69 2550.09 1415.26 2550.03 1414.82 2549.97 1414.38 2550 1413.93 2550.13 1413.49Z" fill="#FFFFFF" fill-rule="evenodd" fill-opacity="1"/><path d="M2499 1174.27C2499 1152.03 2517.03 1134 2539.27 1134L2650.73 1134C2672.97 1134 2691 1152.03 2691 1174.27L2691 1277.73C2691 1299.97 2672.97 1318 2650.73 1318L2539.27 1318C2517.03 1318 2499 1299.97 2499 1277.73Z" fill="#DEC1E2" fill-rule="evenodd" fill-opacity="1"/><path d="M2594.5 1188C2616.32 1188 2634 1204.79 2634 1225.5 2634 1246.21 2616.32 1263 2594.5 1263 2572.68 1263 2555 1246.21 2555 1225.5 2555 1204.79 2572.68 1188 2594.5 1188ZM2594.5 1195.5C2586.12 1195.5 2578.08 1198.66 2572.16 1204.29 2566.23 1209.91 2562.9 1217.54 2562.9 1225.5 2562.9 1233.46 2566.23 1241.09 2572.16 1246.71 2578.08 1252.34 2586.12 1255.5 2594.5 1255.5 2602.88 1255.5 2610.92 1252.34 2616.84 1246.71 2622.77 1241.09 2626.1 1233.46 2626.1 1225.5 2626.1 1217.54 2622.77 1209.91 2616.84 1204.29 2610.92 1198.66 2602.88 1195.5 2594.5 1195.5ZM2594.5 1203C2595.47 1203 2596.4 1203.34 2597.12 1203.95 2597.85 1204.56 2598.31 1205.4 2598.42 1206.31L2598.45 1206.75 2598.45 1223.95 2609.14 1234.1C2609.85 1234.77 2610.26 1235.68 2610.29 1236.63 2610.32 1237.58 2609.97 1238.51 2609.31 1239.23 2608.64 1239.94 2607.72 1240.39 2606.72 1240.48 2605.72 1240.57 2604.72 1240.3 2603.93 1239.71L2603.56 1239.4 2591.71 1228.15C2591.09 1227.57 2590.7 1226.81 2590.59 1225.99L2590.55 1225.5 2590.55 1206.75C2590.55 1205.76 2590.97 1204.8 2591.71 1204.1 2592.45 1203.4 2593.45 1203 2594.5 1203Z" fill="#FFFFFF" fill-rule="evenodd" fill-opacity="1"/><path d="M2499 1833.06C2499 1810.93 2516.93 1793 2539.05 1793L2650.94 1793C2673.07 1793 2691 1810.93 2691 1833.06L2691 1935.94C2691 1958.07 2673.07 1976 2650.94 1976L2539.05 1976C2516.93 1976 2499 1958.07 2499 1935.94Z" fill="#ECEBED" fill-rule="evenodd" fill-opacity="1"/><path d="M2583.82 1855.95 2583.81 1855.95 2557.54 1900.9C2553.05 1908.58 2558.93 1918 2568.22 1918L2620.78 1918C2630.07 1918 2635.96 1908.58 2631.46 1900.9 2631.46 1900.9 2631.46 1900.9 2631.46 1900.9L2605.18 1855.95 2605.18 1855.95C2600.54 1848.02 2588.46 1848.02 2583.82 1855.95Z" stroke="#FFFFFF" stroke-width="22.4547" stroke-linecap="butt" stroke-linejoin="miter" stroke-miterlimit="8" stroke-opacity="1" fill="none" fill-rule="evenodd"/><path d="M2597 1904.02C2597 1904.81 2596.68 1905.57 2596.12 1906.13 2595.56 1906.69 2594.8 1907 2594 1907 2593.2 1907 2592.44 1906.69 2591.88 1906.13 2591.32 1905.57 2591 1904.81 2591 1904.02 2591 1903.23 2591.32 1902.47 2591.88 1901.91 2592.44 1901.35 2593.2 1901.04 2594 1901.04 2594.8 1901.04 2595.56 1901.35 2596.12 1901.91 2596.68 1902.47 2597 1903.23 2597 1904.02ZM2594 1873C2594.64 1873 2595.25 1873.25 2595.7 1873.7 2596.15 1874.15 2596.4 1874.75 2596.4 1875.39L2596.4 1894.47C2596.4 1895.11 2596.15 1895.71 2595.7 1896.16 2595.25 1896.61 2594.64 1896.86 2594 1896.86 2593.36 1896.86 2592.75 1896.61 2592.3 1896.16 2591.85 1895.71 2591.6 1895.11 2591.6 1894.47L2591.6 1875.39C2591.6 1874.75 2591.85 1874.15 2592.3 1873.7 2592.75 1873.25 2593.36 1873 2594 1873Z" fill="#FFFFFF" fill-rule="evenodd" fill-opacity="1"/><path d="M2499 1613.27C2499 1591.03 2517.03 1573 2539.27 1573L2650.73 1573C2672.97 1573 2691 1591.03 2691 1613.27L2691 1716.73C2691 1738.97 2672.97 1757 2650.73 1757L2539.27 1757C2517.03 1757 2499 1738.97 2499 1716.73Z" fill="#E4DFE6" fill-rule="evenodd" fill-opacity="1"/><path d="M2625.08 1633.69 2616.21 1633.69 2616.21 1630.85C2616.21 1630.09 2615.9 1629.37 2615.34 1628.83 2614.79 1628.3 2614.03 1628 2613.25 1628 2612.47 1628 2611.71 1628.3 2611.16 1628.83 2610.6 1629.37 2610.29 1630.09 2610.29 1630.85L2610.29 1633.69 2580.71 1633.69 2580.71 1630.85C2580.71 1630.09 2580.4 1629.37 2579.84 1628.83 2579.29 1628.3 2578.53 1628 2577.75 1628 2576.97 1628 2576.21 1628.3 2575.66 1628.83 2575.1 1629.37 2574.79 1630.09 2574.79 1630.85L2574.79 1633.69 2565.92 1633.69C2564.35 1633.69 2562.84 1634.29 2561.73 1635.36 2560.62 1636.43 2560 1637.87 2560 1639.38L2560 1696.31C2560 1697.82 2560.62 1699.27 2561.73 1700.33 2562.84 1701.4 2564.35 1702 2565.92 1702L2625.08 1702C2626.65 1702 2628.16 1701.4 2629.27 1700.33 2630.38 1699.27 2631 1697.82 2631 1696.31L2631 1639.38C2631 1637.87 2630.38 1636.43 2629.27 1635.36 2628.16 1634.29 2626.65 1633.69 2625.08 1633.69ZM2589.58 1687.77C2589.58 1688.52 2589.27 1689.25 2588.72 1689.78 2588.16 1690.32 2587.41 1690.62 2586.63 1690.62 2585.84 1690.62 2585.09 1690.32 2584.53 1689.78 2583.98 1689.25 2583.67 1688.52 2583.67 1687.77L2583.67 1669.6 2582.03 1670.39C2581.33 1670.73 2580.52 1670.79 2579.77 1670.55 2579.03 1670.31 2578.41 1669.8 2578.06 1669.12 2577.71 1668.44 2577.65 1667.66 2577.9 1666.95 2578.15 1666.23 2578.68 1665.64 2579.38 1665.3L2585.3 1662.45C2585.75 1662.24 2586.25 1662.13 2586.76 1662.15 2587.26 1662.18 2587.75 1662.32 2588.18 1662.58 2588.61 1662.83 2588.96 1663.19 2589.21 1663.61 2589.46 1664.04 2589.58 1664.51 2589.58 1665L2589.58 1687.77ZM2610.29 1684.92C2611.08 1684.92 2611.83 1685.22 2612.38 1685.76 2612.94 1686.29 2613.25 1687.01 2613.25 1687.77 2613.25 1688.52 2612.94 1689.25 2612.38 1689.78 2611.83 1690.32 2611.08 1690.62 2610.29 1690.62L2598.46 1690.62C2597.91 1690.62 2597.37 1690.47 2596.9 1690.19 2596.44 1689.91 2596.06 1689.51 2595.81 1689.04 2595.57 1688.57 2595.46 1688.04 2595.51 1687.51 2595.56 1686.99 2595.76 1686.48 2596.09 1686.06L2606.73 1672.41C2606.98 1672.1 2607.15 1671.75 2607.24 1671.37 2607.34 1670.99 2607.35 1670.6 2607.28 1670.22 2607.22 1669.84 2607.07 1669.47 2606.85 1669.15 2606.63 1668.82 2606.34 1668.54 2606 1668.33 2605.67 1668.12 2605.29 1667.97 2604.89 1667.9 2604.5 1667.83 2604.09 1667.84 2603.7 1667.93 2603.31 1668.02 2602.94 1668.18 2602.61 1668.41 2602.29 1668.64 2602.02 1668.93 2601.81 1669.27 2601.62 1669.6 2601.37 1669.9 2601.06 1670.13 2600.75 1670.37 2600.4 1670.55 2600.02 1670.65 2599.64 1670.75 2599.24 1670.78 2598.85 1670.74 2598.45 1670.69 2598.07 1670.57 2597.73 1670.38 2597.39 1670.19 2597.09 1669.93 2596.85 1669.63 2596.61 1669.33 2596.44 1668.98 2596.35 1668.61 2596.25 1668.24 2596.23 1667.86 2596.29 1667.48 2596.35 1667.11 2596.48 1666.75 2596.69 1666.42 2597.67 1664.8 2599.18 1663.52 2600.98 1662.81 2602.78 1662.09 2604.79 1661.96 2606.67 1662.45 2608.56 1662.93 2610.23 1664.01 2611.42 1665.5 2612.6 1666.99 2613.25 1668.81 2613.25 1670.69 2613.26 1672.55 2612.63 1674.36 2611.46 1675.83L2604.38 1684.92 2610.29 1684.92ZM2565.92 1650.77 2565.92 1639.38 2574.79 1639.38 2574.79 1642.23C2574.79 1642.99 2575.1 1643.71 2575.66 1644.24 2576.21 1644.78 2576.97 1645.08 2577.75 1645.08 2578.53 1645.08 2579.29 1644.78 2579.84 1644.24 2580.4 1643.71 2580.71 1642.99 2580.71 1642.23L2580.71 1639.38 2610.29 1639.38 2610.29 1642.23C2610.29 1642.99 2610.6 1643.71 2611.16 1644.24 2611.71 1644.78 2612.47 1645.08 2613.25 1645.08 2614.03 1645.08 2614.79 1644.78 2615.34 1644.24 2615.9 1643.71 2616.21 1642.99 2616.21 1642.23L2616.21 1639.38 2625.08 1639.38 2625.08 1650.77 2565.92 1650.77Z" fill="#FFFFFF" fill-rule="evenodd" fill-opacity="1"/><path d="M2499 954.274C2499 932.031 2517.03 914 2539.27 914L2650.73 914C2672.97 914 2691 932.031 2691 954.274L2691 1057.73C2691 1079.97 2672.97 1098 2650.73 1098L2539.27 1098C2517.03 1098 2499 1079.97 2499 1057.73Z" fill="#FFC9F6" fill-rule="evenodd" fill-opacity="1"/><path d="M2581.18 1017.59C2582.91 1018.13 2584.77 1018.16 2586.52 1017.69 2588.28 1017.23 2589.84 1016.27 2591 1014.96L2591 1040 2560 1029.09 2560 1011 2581.18 1017.59Z" fill="#FFFFFF" fill-rule="evenodd" fill-opacity="1"/><path d="M2629.67 1028.62 2597.67 1040 2597.67 1013.87C2598.87 1015.24 2600.48 1016.23 2602.29 1016.72 2604.1 1017.21 2606.02 1017.17 2607.8 1016.61L2629.67 1009.74 2629.67 1028.62ZM2619.84 1023.46C2620.51 1023.25 2621.07 1022.79 2621.38 1022.2 2621.7 1021.6 2621.75 1020.91 2621.53 1020.27 2621.31 1019.64 2620.82 1019.12 2620.19 1018.82 2619.56 1018.52 2618.83 1018.47 2618.16 1018.68L2606.16 1022.46C2605.49 1022.67 2604.93 1023.12 2604.61 1023.72 2604.3 1024.31 2604.24 1025.01 2604.47 1025.64 2604.69 1026.27 2605.17 1026.8 2605.81 1027.09 2606.44 1027.39 2607.17 1027.44 2607.84 1027.23L2619.84 1023.46ZM2595.87 972.138C2595.31 971.954 2594.69 971.954 2594.13 972.138L2559.47 983.462 2559.4 983.48C2558.94 983.643 2558.53 983.927 2558.23 984.298L2547.59 996.849C2547.32 997.166 2547.13 997.539 2547.05 997.937 2546.97 998.334 2546.99 998.745 2547.11 999.134 2547.23 999.523 2547.45 999.879 2547.75 1000.17 2548.05 1000.46 2548.42 1000.68 2548.82 1000.81L2584.82 1012.13C2585.37 1012.3 2585.96 1012.3 2586.5 1012.13 2587.05 1011.96 2587.52 1011.63 2587.85 1011.19L2595 1001.55 2602.15 1011.19C2602.47 1011.63 2602.95 1011.96 2603.49 1012.14 2604.04 1012.31 2604.63 1012.31 2605.17 1012.13L2641.18 1000.81C2641.58 1000.68 2641.95 1000.46 2642.25 1000.17 2642.55 999.88 2642.77 999.524 2642.89 999.135 2643.01 998.746 2643.03 998.335 2642.95 997.937 2642.87 997.539 2642.68 997.166 2642.41 996.849L2631.77 984.298C2631.46 983.91 2631.02 983.619 2630.53 983.46L2595.87 972.138ZM2595 994.501 2621.51 985.84 2595 977.179 2568.48 985.84 2595 994.501Z" fill="#FFFFFF" fill-rule="evenodd" fill-opacity="1"/><path d="M2298 1519.5 2263.1 1501 2263.1 1538 2298 1519.5ZM1748 1522.7 2266.59 1522.7 2266.59 1516.3 1748 1516.3 1748 1522.7Z" fill="#B3CB2E" fill-rule="evenodd" fill-opacity="1"/><path d="M1748 1373.5 1782.9 1355 1782.9 1392 1748 1373.5ZM2298 1376.7 1779.41 1376.7 1779.41 1370.3 2298 1370.3 2298 1376.7Z" fill="#B3CB2E" fill-rule="evenodd" fill-opacity="1"/><text fill="#FFFFFF" fill-opacity="1" font-family="5 SemiBold,5 SemiBold_MSFontService,sans-serif" font-style="normal" font-variant="normal" font-weight="600" font-stretch="normal" font-size="55" text-anchor="start" direction="ltr" writing-mode="lr-tb" unicode-bidi="normal" text-decoration="underline" transform="matrix(1 0 0 1 1347.71 845)">Supplier</text><path d="M1355 1393.27C1355 1371.03 1373.03 1353 1395.27 1353L1507.73 1353C1529.97 1353 1548 1371.03 1548 1393.27L1548 1496.73C1548 1518.97 1529.97 1537 1507.73 1537L1395.27 1537C1373.03 1537 1355 1518.97 1355 1496.73Z" fill="#E1D0E3" fill-rule="evenodd" fill-opacity="1"/><path d="M1442.54 1429.46 1445.03 1438.06C1447.38 1446.16 1448.55 1450.22 1451.99 1452.06 1455.44 1453.91 1459.82 1452.82 1468.57 1450.65L1477.86 1448.34C1486.62 1446.17 1490.99 1445.08 1492.99 1441.89 1494.98 1438.7 1493.81 1434.64 1491.46 1426.54L1488.97 1417.94C1486.62 1409.84 1485.45 1405.78 1482.01 1403.94 1478.55 1402.09 1474.18 1403.18 1465.42 1405.36L1456.13 1407.66C1447.38 1409.83 1443 1410.92 1441.02 1414.11 1439.02 1417.3 1440.19 1421.36 1442.54 1429.46Z" fill="#FFFFFF" fill-rule="evenodd" fill-opacity="1"/><path d="M1407.13 1413.49C1407.26 1413.06 1407.48 1412.66 1407.77 1412.31 1408.07 1411.96 1408.44 1411.66 1408.85 1411.44 1409.27 1411.22 1409.73 1411.08 1410.21 1411.03 1410.68 1410.97 1411.17 1411 1411.63 1411.12L1419.91 1413.27C1422.11 1413.82 1424.11 1414.9 1425.73 1416.4 1427.34 1417.89 1428.52 1419.75 1429.14 1421.79L1439.6 1457.14 1440.37 1459.62C1443.47 1460.69 1446.09 1462.72 1447.77 1465.37L1449.28 1464.93 1492.43 1454.47C1492.9 1454.36 1493.38 1454.33 1493.85 1454.39 1494.33 1454.46 1494.78 1454.6 1495.2 1454.83 1495.61 1455.06 1495.97 1455.36 1496.26 1455.71 1496.55 1456.07 1496.76 1456.48 1496.88 1456.91 1497 1457.34 1497.03 1457.79 1496.97 1458.23 1496.9 1458.68 1496.74 1459.1 1496.5 1459.49 1496.26 1459.88 1495.93 1460.21 1495.55 1460.48 1495.17 1460.75 1494.73 1460.95 1494.27 1461.06L1451.28 1471.48 1449.67 1471.95C1449.65 1477.71 1445.38 1482.99 1438.92 1484.55 1431.19 1486.43 1423.23 1482.27 1421.16 1475.27 1419.09 1468.27 1423.68 1461.07 1431.42 1459.19 1431.8 1459.1 1432.18 1459.02 1432.57 1458.96L1422.1 1423.6C1421.82 1422.7 1421.29 1421.87 1420.57 1421.21 1419.84 1420.55 1418.95 1420.07 1417.97 1419.83L1409.68 1417.68C1409.21 1417.57 1408.78 1417.36 1408.4 1417.09 1408.03 1416.81 1407.71 1416.47 1407.47 1416.08 1407.24 1415.69 1407.09 1415.26 1407.03 1414.82 1406.97 1414.38 1407 1413.93 1407.13 1413.49Z" fill="#FFFFFF" fill-rule="evenodd" fill-opacity="1"/><path d="M1355 1174.27C1355 1152.03 1373.03 1134 1395.27 1134L1507.73 1134C1529.97 1134 1548 1152.03 1548 1174.27L1548 1277.73C1548 1299.97 1529.97 1318 1507.73 1318L1395.27 1318C1373.03 1318 1355 1299.97 1355 1277.73Z" fill="#DEC1E2" fill-rule="evenodd" fill-opacity="1"/><path d="M1451.5 1188C1473.32 1188 1491 1204.79 1491 1225.5 1491 1246.21 1473.32 1263 1451.5 1263 1429.68 1263 1412 1246.21 1412 1225.5 1412 1204.79 1429.68 1188 1451.5 1188ZM1451.5 1195.5C1443.12 1195.5 1435.08 1198.66 1429.16 1204.29 1423.23 1209.91 1419.9 1217.54 1419.9 1225.5 1419.9 1233.46 1423.23 1241.09 1429.16 1246.71 1435.08 1252.34 1443.12 1255.5 1451.5 1255.5 1459.88 1255.5 1467.92 1252.34 1473.84 1246.71 1479.77 1241.09 1483.1 1233.46 1483.1 1225.5 1483.1 1217.54 1479.77 1209.91 1473.84 1204.29 1467.92 1198.66 1459.88 1195.5 1451.5 1195.5ZM1451.5 1203C1452.47 1203 1453.4 1203.34 1454.12 1203.95 1454.85 1204.56 1455.31 1205.4 1455.42 1206.31L1455.45 1206.75 1455.45 1223.95 1466.14 1234.1C1466.85 1234.77 1467.26 1235.68 1467.29 1236.63 1467.32 1237.58 1466.97 1238.51 1466.31 1239.23 1465.64 1239.94 1464.72 1240.39 1463.72 1240.48 1462.72 1240.57 1461.72 1240.3 1460.93 1239.71L1460.56 1239.4 1448.71 1228.15C1448.09 1227.57 1447.7 1226.81 1447.59 1225.99L1447.55 1225.5 1447.55 1206.75C1447.55 1205.76 1447.97 1204.8 1448.71 1204.1 1449.45 1203.4 1450.45 1203 1451.5 1203Z" fill="#FFFFFF" fill-rule="evenodd" fill-opacity="1"/><path d="M1355 1833.06C1355 1810.93 1372.93 1793 1395.06 1793L1507.94 1793C1530.07 1793 1548 1810.93 1548 1833.06L1548 1935.94C1548 1958.07 1530.07 1976 1507.94 1976L1395.06 1976C1372.93 1976 1355 1958.07 1355 1935.94Z" fill="#ECEBED" fill-rule="evenodd" fill-opacity="1"/><path d="M1440.82 1855.95 1440.81 1855.95 1414.54 1900.9C1410.05 1908.58 1415.93 1918 1425.22 1918L1477.78 1918C1487.07 1918 1492.96 1908.58 1488.46 1900.9 1488.46 1900.9 1488.46 1900.9 1488.46 1900.9L1462.18 1855.95 1462.18 1855.95C1457.54 1848.02 1445.46 1848.02 1440.82 1855.95Z" stroke="#FFFFFF" stroke-width="22.4547" stroke-linecap="butt" stroke-linejoin="miter" stroke-miterlimit="8" stroke-opacity="1" fill="none" fill-rule="evenodd"/><path d="M1454 1904.02C1454 1904.81 1453.68 1905.57 1453.12 1906.13 1452.56 1906.69 1451.8 1907 1451 1907 1450.2 1907 1449.44 1906.69 1448.88 1906.13 1448.32 1905.57 1448 1904.81 1448 1904.02 1448 1903.23 1448.32 1902.47 1448.88 1901.91 1449.44 1901.35 1450.2 1901.04 1451 1901.04 1451.8 1901.04 1452.56 1901.35 1453.12 1901.91 1453.68 1902.47 1454 1903.23 1454 1904.02ZM1451 1873C1451.64 1873 1452.25 1873.25 1452.7 1873.7 1453.15 1874.15 1453.4 1874.75 1453.4 1875.39L1453.4 1894.47C1453.4 1895.11 1453.15 1895.71 1452.7 1896.16 1452.25 1896.61 1451.64 1896.86 1451 1896.86 1450.36 1896.86 1449.75 1896.61 1449.3 1896.16 1448.85 1895.71 1448.6 1895.11 1448.6 1894.47L1448.6 1875.39C1448.6 1874.75 1448.85 1874.15 1449.3 1873.7 1449.75 1873.25 1450.36 1873 1451 1873Z" fill="#FFFFFF" fill-rule="evenodd" fill-opacity="1"/><path d="M1355 1613.27C1355 1591.03 1373.03 1573 1395.27 1573L1507.73 1573C1529.97 1573 1548 1591.03 1548 1613.27L1548 1716.73C1548 1738.97 1529.97 1757 1507.73 1757L1395.27 1757C1373.03 1757 1355 1738.97 1355 1716.73Z" fill="#E4DFE6" fill-rule="evenodd" fill-opacity="1"/><path d="M1481.17 1633.69 1472.42 1633.69 1472.42 1630.85C1472.42 1630.09 1472.11 1629.37 1471.56 1628.83 1471.02 1628.3 1470.27 1628 1469.5 1628 1468.73 1628 1467.98 1628.3 1467.44 1628.83 1466.89 1629.37 1466.58 1630.09 1466.58 1630.85L1466.58 1633.69 1437.42 1633.69 1437.42 1630.85C1437.42 1630.09 1437.11 1629.37 1436.56 1628.83 1436.02 1628.3 1435.27 1628 1434.5 1628 1433.73 1628 1432.98 1628.3 1432.44 1628.83 1431.89 1629.37 1431.58 1630.09 1431.58 1630.85L1431.58 1633.69 1422.83 1633.69C1421.29 1633.69 1419.8 1634.29 1418.71 1635.36 1417.61 1636.43 1417 1637.87 1417 1639.38L1417 1696.31C1417 1697.82 1417.61 1699.27 1418.71 1700.33 1419.8 1701.4 1421.29 1702 1422.83 1702L1481.17 1702C1482.71 1702 1484.2 1701.4 1485.29 1700.33 1486.39 1699.27 1487 1697.82 1487 1696.31L1487 1639.38C1487 1637.87 1486.39 1636.43 1485.29 1635.36 1484.2 1634.29 1482.71 1633.69 1481.17 1633.69ZM1446.17 1687.77C1446.17 1688.52 1445.86 1689.25 1445.31 1689.78 1444.77 1690.32 1444.02 1690.62 1443.25 1690.62 1442.48 1690.62 1441.73 1690.32 1441.19 1689.78 1440.64 1689.25 1440.33 1688.52 1440.33 1687.77L1440.33 1669.6 1438.72 1670.39C1438.03 1670.73 1437.23 1670.79 1436.49 1670.55 1435.76 1670.31 1435.15 1669.8 1434.81 1669.12 1434.46 1668.44 1434.4 1667.66 1434.65 1666.95 1434.89 1666.23 1435.42 1665.64 1436.11 1665.3L1441.94 1662.45C1442.39 1662.24 1442.88 1662.13 1443.38 1662.15 1443.88 1662.18 1444.36 1662.32 1444.78 1662.58 1445.21 1662.83 1445.56 1663.19 1445.8 1663.61 1446.04 1664.04 1446.17 1664.51 1446.17 1665L1446.17 1687.77ZM1466.58 1684.92C1467.36 1684.92 1468.1 1685.22 1468.65 1685.76 1469.19 1686.29 1469.5 1687.01 1469.5 1687.77 1469.5 1688.52 1469.19 1689.25 1468.65 1689.78 1468.1 1690.32 1467.36 1690.62 1466.58 1690.62L1454.92 1690.62C1454.38 1690.62 1453.84 1690.47 1453.38 1690.19 1452.92 1689.91 1452.55 1689.51 1452.31 1689.04 1452.07 1688.57 1451.96 1688.04 1452.01 1687.51 1452.06 1686.99 1452.26 1686.48 1452.58 1686.06L1463.08 1672.41C1463.31 1672.1 1463.49 1671.75 1463.58 1671.37 1463.67 1670.99 1463.69 1670.6 1463.62 1670.22 1463.55 1669.84 1463.4 1669.47 1463.19 1669.15 1462.97 1668.82 1462.69 1668.54 1462.36 1668.33 1462.03 1668.12 1461.65 1667.97 1461.26 1667.9 1460.87 1667.83 1460.47 1667.84 1460.08 1667.93 1459.7 1668.02 1459.33 1668.18 1459.01 1668.41 1458.69 1668.64 1458.42 1668.93 1458.22 1669.27 1458.04 1669.6 1457.79 1669.9 1457.48 1670.13 1457.18 1670.37 1456.83 1670.55 1456.45 1670.65 1456.08 1670.75 1455.68 1670.78 1455.3 1670.74 1454.91 1670.69 1454.54 1670.57 1454.2 1670.38 1453.86 1670.19 1453.57 1669.93 1453.33 1669.63 1453.1 1669.33 1452.93 1668.98 1452.83 1668.61 1452.74 1668.24 1452.72 1667.86 1452.78 1667.48 1452.84 1667.11 1452.97 1666.75 1453.17 1666.42 1454.14 1664.8 1455.62 1663.52 1457.4 1662.81 1459.18 1662.09 1461.15 1661.96 1463.01 1662.45 1464.87 1662.93 1466.52 1664.01 1467.69 1665.5 1468.86 1666.99 1469.5 1668.81 1469.5 1670.69 1469.51 1672.55 1468.89 1674.36 1467.74 1675.83L1460.75 1684.92 1466.58 1684.92ZM1422.83 1650.77 1422.83 1639.38 1431.58 1639.38 1431.58 1642.23C1431.58 1642.99 1431.89 1643.71 1432.44 1644.24 1432.98 1644.78 1433.73 1645.08 1434.5 1645.08 1435.27 1645.08 1436.02 1644.78 1436.56 1644.24 1437.11 1643.71 1437.42 1642.99 1437.42 1642.23L1437.42 1639.38 1466.58 1639.38 1466.58 1642.23C1466.58 1642.99 1466.89 1643.71 1467.44 1644.24 1467.98 1644.78 1468.73 1645.08 1469.5 1645.08 1470.27 1645.08 1471.02 1644.78 1471.56 1644.24 1472.11 1643.71 1472.42 1642.99 1472.42 1642.23L1472.42 1639.38 1481.17 1639.38 1481.17 1650.77 1422.83 1650.77Z" fill="#FFFFFF" fill-rule="evenodd" fill-opacity="1"/><path d="M1355 954.274C1355 932.031 1373.03 914 1395.27 914L1507.73 914C1529.97 914 1548 932.031 1548 954.274L1548 1057.73C1548 1079.97 1529.97 1098 1507.73 1098L1395.27 1098C1373.03 1098 1355 1079.97 1355 1057.73Z" fill="#FFC9F6" fill-rule="evenodd" fill-opacity="1"/><path d="M1438.18 1017.59C1439.91 1018.13 1441.77 1018.16 1443.52 1017.69 1445.28 1017.23 1446.84 1016.27 1448 1014.96L1448 1040 1417 1029.09 1417 1011 1438.18 1017.59Z" fill="#FFFFFF" fill-rule="evenodd" fill-opacity="1"/><path d="M1486.53 1028.62 1454.19 1040 1454.19 1013.87C1455.41 1015.24 1457.03 1016.23 1458.86 1016.72 1460.69 1017.21 1462.63 1017.17 1464.44 1016.61L1486.53 1009.74 1486.53 1028.62ZM1476.6 1023.46C1477.28 1023.25 1477.84 1022.79 1478.16 1022.2 1478.48 1021.6 1478.53 1020.91 1478.31 1020.27 1478.08 1019.64 1477.59 1019.12 1476.95 1018.82 1476.32 1018.52 1475.58 1018.47 1474.9 1018.68L1462.77 1022.46C1462.09 1022.67 1461.53 1023.12 1461.21 1023.72 1460.89 1024.31 1460.84 1025.01 1461.07 1025.64 1461.29 1026.27 1461.78 1026.8 1462.42 1027.09 1463.06 1027.39 1463.8 1027.44 1464.48 1027.23L1476.6 1023.46ZM1452.38 972.138C1451.81 971.954 1451.19 971.954 1450.62 972.138L1415.6 983.462 1415.53 983.48C1415.06 983.643 1414.65 983.927 1414.34 984.298L1403.59 996.849C1403.32 997.166 1403.13 997.539 1403.05 997.937 1402.97 998.334 1402.99 998.745 1403.11 999.134 1403.23 999.523 1403.45 999.879 1403.76 1000.17 1404.06 1000.46 1404.43 1000.68 1404.84 1000.81L1441.22 1012.13C1441.77 1012.3 1442.36 1012.3 1442.91 1012.13 1443.47 1011.96 1443.94 1011.63 1444.28 1011.19L1451.5 1001.55 1458.72 1011.19C1459.05 1011.63 1459.53 1011.96 1460.08 1012.14 1460.63 1012.31 1461.23 1012.31 1461.78 1012.13L1498.16 1000.81C1498.57 1000.68 1498.94 1000.46 1499.24 1000.17 1499.54 999.88 1499.77 999.524 1499.89 999.135 1500.01 998.746 1500.03 998.335 1499.95 997.937 1499.87 997.539 1499.68 997.166 1499.41 996.849L1488.66 984.298C1488.34 983.91 1487.9 983.619 1487.4 983.46L1452.38 972.138ZM1451.5 994.501 1478.29 985.84 1451.5 977.179 1424.71 985.84 1451.5 994.501Z" fill="#FFFFFF" fill-rule="evenodd" fill-opacity="1"/><path d="M1054 549.873C1054 539.45 1062.45 531 1072.87 531L3048.13 531C3058.55 531 3067 539.45 3067 549.873L3067 716.127C3067 726.55 3058.55 735 3048.13 735L1072.87 735C1062.45 735 1054 726.55 1054 716.127Z" fill="#CFA5DB" fill-rule="evenodd" fill-opacity="1"/><path d="M1116 576.723C1116 568.04 1123.04 561 1131.72 561L1482.28 561C1490.96 561 1498 568.04 1498 576.723L1498 692.277C1498 700.961 1490.96 708 1482.28 708L1131.72 708C1123.04 708 1116 700.961 1116 692.277Z" fill="#FFFFFF" fill-rule="evenodd" fill-opacity="1"/><text fill="#000000" fill-opacity="1" font-family="1 Light,1 Light_MSFontService,sans-serif" font-style="normal" font-variant="normal" font-weight="300" font-stretch="normal" font-size="55" text-anchor="start" direction="ltr" writing-mode="lr-tb" unicode-bidi="normal" text-decoration="none" transform="matrix(1 0 0 1 1231.78 650)">Tier</text><text fill="#000000" fill-opacity="1" font-family="1 Light,1 Light_MSFontService,sans-serif" font-style="normal" font-variant="normal" font-weight="300" font-stretch="normal" font-size="55" text-anchor="start" direction="ltr" writing-mode="lr-tb" unicode-bidi="normal" text-decoration="none" transform="matrix(1 0 0 1 1327.46 650)">-</text><text fill="#000000" fill-opacity="1" font-family="1 Light,1 Light_MSFontService,sans-serif" font-style="normal" font-variant="normal" font-weight="300" font-stretch="normal" font-size="55" text-anchor="start" direction="ltr" writing-mode="lr-tb" unicode-bidi="normal" text-decoration="none" transform="matrix(1 0 0 1 1350.38 650)">n</text><path d="M1618 576.723C1618 568.04 1625.04 561 1633.72 561L1984.28 561C1992.96 561 2000 568.04 2000 576.723L2000 692.277C2000 700.961 1992.96 708 1984.28 708L1633.72 708C1625.04 708 1618 700.961 1618 692.277Z" fill="#FFFFFF" fill-rule="evenodd" fill-opacity="1"/><text fill="#000000" fill-opacity="1" font-family="1 Light,1 Light_MSFontService,sans-serif" font-style="normal" font-variant="normal" font-weight="300" font-stretch="normal" font-size="55" text-anchor="start" direction="ltr" writing-mode="lr-tb" unicode-bidi="normal" text-decoration="none" transform="matrix(1 0 0 1 1734.41 650)">Tier</text><text fill="#000000" fill-opacity="1" font-family="1 Light,1 Light_MSFontService,sans-serif" font-style="normal" font-variant="normal" font-weight="300" font-stretch="normal" font-size="55" text-anchor="start" direction="ltr" writing-mode="lr-tb" unicode-bidi="normal" text-decoration="none" transform="matrix(1 0 0 1 1830.08 650)">-</text><text fill="#000000" fill-opacity="1" font-family="1 Light,1 Light_MSFontService,sans-serif" font-style="normal" font-variant="normal" font-weight="300" font-stretch="normal" font-size="55" text-anchor="start" direction="ltr" writing-mode="lr-tb" unicode-bidi="normal" text-decoration="none" transform="matrix(1 0 0 1 1853 650)">2</text><path d="M2120 576.723C2120 568.04 2127.04 561 2135.72 561L2486.28 561C2494.96 561 2502 568.04 2502 576.723L2502 692.277C2502 700.961 2494.96 708 2486.28 708L2135.72 708C2127.04 708 2120 700.961 2120 692.277Z" fill="#FFFFFF" fill-rule="evenodd" fill-opacity="1"/><text fill="#000000" fill-opacity="1" font-family="1 Light,1 Light_MSFontService,sans-serif" font-style="normal" font-variant="normal" font-weight="300" font-stretch="normal" font-size="55" text-anchor="start" direction="ltr" writing-mode="lr-tb" unicode-bidi="normal" text-decoration="none" transform="matrix(1 0 0 1 2241.62 650)">Tier</text><text fill="#000000" fill-opacity="1" font-family="1 Light,1 Light_MSFontService,sans-serif" font-style="normal" font-variant="normal" font-weight="300" font-stretch="normal" font-size="55" text-anchor="start" direction="ltr" writing-mode="lr-tb" unicode-bidi="normal" text-decoration="none" transform="matrix(1 0 0 1 2337.29 650)">-</text><text fill="#000000" fill-opacity="1" font-family="1 Light,1 Light_MSFontService,sans-serif" font-style="normal" font-variant="normal" font-weight="300" font-stretch="normal" font-size="55" text-anchor="start" direction="ltr" writing-mode="lr-tb" unicode-bidi="normal" text-decoration="none" transform="matrix(1 0 0 1 2360.21 650)">1</text><path d="M2622 576.723C2622 568.04 2629.04 561 2637.72 561L2988.28 561C2996.96 561 3004 568.04 3004 576.723L3004 692.277C3004 700.961 2996.96 708 2988.28 708L2637.72 708C2629.04 708 2622 700.961 2622 692.277Z" fill="#FFFFFF" fill-rule="evenodd" fill-opacity="1"/><text fill="#000000" fill-opacity="1" font-family="1 Light,1 Light_MSFontService,sans-serif" font-style="normal" font-variant="normal" font-weight="300" font-stretch="normal" font-size="55" text-anchor="start" direction="ltr" writing-mode="lr-tb" unicode-bidi="normal" text-decoration="none" transform="matrix(1 0 0 1 2755.13 650)">OEM</text><path d="M1520.92 632.135 1594.92 632.136 1594.92 637.865 1520.92 637.865ZM1525.5 648.75 1498 635 1525.5 621.25ZM1590.34 621.25 1617.84 635 1590.34 648.75Z" fill="#000000" fill-rule="nonzero" fill-opacity="1"/><path d="M2022.92 632.135 2096.92 632.136 2096.92 637.865 2022.92 637.865ZM2027.5 648.75 2000 635 2027.5 621.25ZM2092.33 621.25 2119.83 635 2092.33 648.75Z" fill="#000000" fill-rule="nonzero" fill-opacity="1"/><path d="M2524.92 632.135 2598.92 632.136 2598.92 637.865 2524.92 637.865ZM2529.5 648.75 2502 635 2529.5 621.25ZM2594.33 621.25 2621.83 635 2594.33 648.75Z" fill="#000000" fill-rule="nonzero" fill-opacity="1"/><text fill="#FFFFFF" fill-opacity="1" font-family="1 Light,1 Light_MSFontService,sans-serif" font-style="normal" font-variant="normal" font-weight="300" font-stretch="normal" font-size="55" text-anchor="start" direction="ltr" writing-mode="lr-tb" unicode-bidi="normal" text-decoration="none" transform="matrix(1 0 0 1 1839.38 1345)">Data Exchange</text><text fill="#FFFFFF" fill-opacity="1" font-family="1 Light,1 Light_MSFontService,sans-serif" font-style="normal" font-variant="normal" font-weight="300" font-stretch="normal" font-size="55" text-anchor="start" direction="ltr" writing-mode="lr-tb" unicode-bidi="normal" text-decoration="none" transform="matrix(1 0 0 1 1827.96 1595)">Data Exchange</text></g></g></svg>