<svg width="3543" height="967" xmlns="http://www.w3.org/2000/svg" xmlns:xlink="http://www.w3.org/1999/xlink" xml:space="preserve" overflow="hidden"><g transform="translate(-467 -183)"><g><rect x="471" y="184" width="3500" height="962" fill="#000000" fill-opacity="1"/><rect x="1299.5" y="872.5" width="2630" height="234" stroke="#FFFFFF" stroke-width="3.4375" stroke-linecap="butt" stroke-linejoin="round" stroke-miterlimit="10" stroke-opacity="1" fill="none"/><rect x="568.5" y="291.5" width="3361" height="584" stroke="#FFFFFF" stroke-width="6.875" stroke-linecap="butt" stroke-linejoin="miter" stroke-miterlimit="8" stroke-opacity="1" fill="none"/><rect x="1299.5" y="288.5" width="2630" height="585" stroke="#FFA600" stroke-width="6.875" stroke-linecap="butt" stroke-linejoin="miter" stroke-miterlimit="8" stroke-opacity="1" fill="#D9D9D9" fill-opacity="1"/><g><g><g><path d="M123.21 50.6097C123.168 49.9957 122.721 49.4855 122.118 49.3638L107.692 46.4245C107.243 46.3292 106.777 46.4692 106.455 46.7956L104.643 48.6078 78.1046 22.3396C74.8093 18.5822 69.1659 18.0215 65.1957 21.0569L36.4112 43.6994C36.1014 43.6858 35.793 43.6667 35.4792 43.6667 21.9203 43.6825 10.9325 54.6702 10.9167 68.2291L10.9167 97.0219C7.74207 97.6747 5.46243 100.467 5.45833 103.708L5.45833 110.531 65.5 110.531 65.5 103.708C65.4907 100.443 63.1713 97.641 59.9652 97.0219L60.0417 68.2291C60.0366 62.7423 58.1797 57.4178 54.7716 53.1178L67.7161 37.6297C69.7634 38.3844 72.0097 38.4013 74.0682 37.6775L94.9914 58.2595 93.0045 60.245C92.6826 60.5662 92.5419 61.0267 92.6293 61.4731L95.4198 76.0509C95.537 76.6604 96.0505 77.114 96.6698 77.1549L111.143 78.1197 111.235 78.1197C111.989 78.1441 112.62 77.5531 112.644 76.7994 112.669 76.0458 112.078 75.415 111.324 75.3905L97.902 74.4967 95.4458 61.6628 107.863 49.2451 120.554 51.8296 121.448 65.2639C121.508 66.0112 122.151 66.575 122.9 66.5357 123.652 66.4892 124.224 65.8417 124.177 65.0895 124.177 65.0871 124.177 65.0847 124.177 65.0824ZM62.7708 103.708 62.7708 107.802 8.1875 107.802 8.1875 103.708C8.1875 101.447 10.0203 99.6146 12.2812 99.6146L58.6771 99.6146C60.938 99.6146 62.7708 101.447 62.7708 103.708ZM57.3125 68.2291 57.2361 96.8854 13.6458 96.8854 13.6458 68.2291C13.6632 57.2417 21.838 47.9766 32.7377 46.591L27.2657 50.8989C22.4583 54.9256 21.8253 62.0872 25.852 66.8946 28.0092 69.47 31.1959 70.9579 34.5553 70.9583 34.7205 70.9583 34.8869 70.9583 35.0534 70.946 38.2351 70.8021 41.2108 69.331 43.2573 66.8905L52.9881 55.2479C55.7933 58.9946 57.3103 63.5486 57.3125 68.2291ZM41.1667 65.1384C39.6212 67.0046 37.3546 68.125 34.9333 68.2196 32.5117 68.3531 30.1503 67.4354 28.4543 65.7019 25.0846 62.3358 25.0816 56.8753 28.4477 53.5056 28.6198 53.3332 28.7991 53.1684 28.9851 53.0113L61.4622 27.4459C61.4772 27.4349 61.4867 27.4459 61.484 27.4581 61.0258 30.8748 62.4742 34.2681 65.2585 36.3006ZM64.1927 29.546C63.7017 25.8099 66.3325 22.3833 70.0686 21.8923 73.8047 21.4014 77.2313 24.0321 77.7223 27.7682 78.2131 31.5043 75.5825 34.9309 71.8464 35.4218 71.2563 35.4994 70.6587 35.4994 70.0686 35.4218 67.0069 35.0167 64.5979 32.6077 64.1927 29.546ZM80.5295 28.5689 102.668 50.4896 96.8772 56.2822 76.6036 36.3443C79.0181 34.5791 80.4645 31.7833 80.5104 28.7927 80.5104 28.7518 80.5104 28.6562 80.5104 28.5826 80.5104 28.558 80.5104 28.5553 80.5295 28.5689Z" fill="#000000" fill-rule="nonzero" fill-opacity="1" transform="matrix(1 0 0 1.00763 1806 399)"/><path d="M33.6179 54.7839C31.8514 56.195 31.5634 58.771 32.9745 60.5375 34.3856 62.304 36.9615 62.5921 38.7281 61.1809 38.8464 61.0864 38.9595 60.9853 39.0666 60.8781L39.0666 60.8781C40.6689 59.2831 40.6748 56.6911 39.0797 55.0888 37.6041 53.6063 35.248 53.4747 33.6165 54.7839ZM37.1371 58.95C36.598 59.4658 35.7481 59.4658 35.209 58.95 34.676 58.4171 34.6758 57.5532 35.2087 57.0202 35.7416 56.4872 36.6055 56.487 37.1385 57.0199 37.6715 57.5527 37.6716 58.4167 37.1388 58.9497 37.1386 58.9499 37.1386 58.9499 37.1385 58.95Z" fill="#000000" fill-rule="nonzero" fill-opacity="1" transform="matrix(1 0 0 1.00763 1806 399)"/><path d="M71.627 25.3089C69.7792 24.9406 67.9827 26.1398 67.6144 27.9876 67.2461 29.8354 68.4453 31.6319 70.2931 32.0002 72.1409 32.3685 73.9373 31.1693 74.3056 29.3215 74.3934 28.8813 74.3934 28.4279 74.3056 27.9876 74.0361 26.6354 72.9791 25.5784 71.627 25.3089ZM70.9583 29.3385C70.5816 29.3385 70.276 29.033 70.276 28.6562 70.276 28.2795 70.5816 27.974 70.9583 27.974 71.3351 27.974 71.6406 28.2795 71.6406 28.6562 71.6406 29.033 71.3351 29.3385 70.9583 29.3385Z" fill="#000000" fill-rule="nonzero" fill-opacity="1" transform="matrix(1 0 0 1.00763 1806 399)"/></g></g></g><text fill="#000000" fill-opacity="1" font-family="Aptos,Aptos_MSFontService,sans-serif" font-style="normal" font-variant="normal" font-weight="700" font-stretch="normal" font-size="41" text-anchor="start" direction="ltr" writing-mode="lr-tb" unicode-bidi="normal" text-decoration="none" transform="matrix(1 0 0 1 1409.63 367)">Planned Production</text><text fill="#000000" fill-opacity="1" font-family="Aptos,Aptos_MSFontService,sans-serif" font-style="normal" font-variant="normal" font-weight="700" font-stretch="normal" font-size="41" text-anchor="start" direction="ltr" writing-mode="lr-tb" unicode-bidi="normal" text-decoration="none" transform="matrix(1 0 0 1 1533.95 417)">Output</text><g><g><g><path d="M3212.93 437.198 3212.93 339.073C3212.93 329.512 3188.49 324.354 3165.5 324.354 3142.51 324.354 3118.07 329.512 3118.07 339.073L3118.07 437.198C3118.07 446.759 3142.51 451.917 3165.5 451.917 3188.49 451.917 3212.93 446.759 3212.93 437.198ZM3165.5 327.625C3190.77 327.625 3209.66 333.676 3209.66 339.073 3209.66 344.47 3190.77 350.521 3165.5 350.521 3140.23 350.521 3121.34 344.47 3121.34 339.073 3121.34 333.676 3140.23 327.625 3165.5 327.625ZM3121.34 344.731C3128.75 350.652 3147.56 353.792 3165.5 353.792 3183.44 353.792 3202.25 350.652 3209.66 344.731L3209.66 371.781C3209.66 377.178 3190.77 383.229 3165.5 383.229 3140.23 383.229 3121.34 377.178 3121.34 371.781ZM3121.34 377.44C3128.75 383.36 3147.56 386.5 3165.5 386.5 3183.44 386.5 3202.25 383.36 3209.66 377.44L3209.66 404.49C3209.66 409.887 3190.77 415.938 3165.5 415.938 3140.23 415.938 3121.34 409.887 3121.34 404.49ZM3121.34 437.198 3121.34 410.148C3128.75 416.068 3147.56 419.208 3165.5 419.208 3183.44 419.208 3202.25 416.068 3209.66 410.148L3209.66 437.198C3209.66 442.595 3190.77 448.646 3165.5 448.646 3140.23 448.646 3121.34 442.595 3121.34 437.198Z" fill="#000000" fill-rule="nonzero" fill-opacity="1"/><path d="M3201.48 366.875C3201.48 368.681 3200.01 370.146 3198.21 370.146 3196.4 370.146 3194.94 368.681 3194.94 366.875 3194.94 365.069 3196.4 363.604 3198.21 363.604 3200.01 363.604 3201.48 365.069 3201.48 366.875Z" fill="#000000" fill-rule="nonzero" fill-opacity="1"/><path d="M3201.48 399.583C3201.48 401.39 3200.01 402.854 3198.21 402.854 3196.4 402.854 3194.94 401.39 3194.94 399.583 3194.94 397.777 3196.4 396.313 3198.21 396.313 3200.01 396.313 3201.48 397.777 3201.48 399.583Z" fill="#000000" fill-rule="nonzero" fill-opacity="1"/><path d="M3201.48 432.292C3201.48 434.098 3200.01 435.563 3198.21 435.563 3196.4 435.563 3194.94 434.098 3194.94 432.292 3194.94 430.485 3196.4 429.021 3198.21 429.021 3200.01 429.021 3201.48 430.485 3201.48 432.292Z" fill="#000000" fill-rule="nonzero" fill-opacity="1"/></g></g></g><g><g><g><path d="M18 50.012 14 50.012 14 118.036 110 118.036 110 50.012 18 50.012ZM106 114.036 18 114.036 18 54.0119 106 54.0119Z" fill="#000000" fill-rule="nonzero" fill-opacity="1" transform="matrix(1 0 0 1 2898 297)"/><path d="M112 40 12 40C7.58719 40.0132 4.01318 43.5872 4 48L4 120.038C4.01428 124.45 7.58763 128.024 12 128.038L51.9999 128.038 51.9999 144.038 32 144.038 32 148.038 91.9999 148.038 91.9999 144.038 71.9999 144.038 71.9999 128.038 112 128.038C116.412 128.024 119.986 124.45 120 120.038L120 48.0099C119.992 43.5932 116.417 40.0132 112 40ZM67.9999 144.046 55.9999 144.046 55.9999 128.046 67.9999 128.046ZM116 120.046C116 122.255 114.209 124.046 112 124.046L12 124.046C9.79085 124.046 7.99999 122.255 7.99999 120.046L7.99999 48.0099C7.99999 45.8008 9.79085 44.01 12 44.01L112 44.01C114.209 44.01 116 45.8008 116 48.0099Z" fill="#000000" fill-rule="nonzero" fill-opacity="1" transform="matrix(1 0 0 1 2898 297)"/><path d="M180 40 140 40C135.582 40 132 43.5818 132 48L132 140C132 144.418 135.582 148 140 148L180 148C184.418 148 188 144.418 188 140L188 48C188 43.5818 184.418 40 180 40ZM184 140C184 142.209 182.209 144 180 144L140 144C137.791 144 136 142.209 136 140L136 48C136 45.7908 137.791 44 140 44L180 44C182.209 44 184 45.7908 184 48Z" fill="#000000" fill-rule="nonzero" fill-opacity="1" transform="matrix(1 0 0 1 2898 297)"/><path d="M144 55.9999 176 55.9999 176 59.9999 144 59.9999Z" fill="#000000" fill-rule="nonzero" fill-opacity="1" transform="matrix(1 0 0 1 2898 297)"/><path d="M144 67.9999 176 67.9999 176 71.9999 144 71.9999Z" fill="#000000" fill-rule="nonzero" fill-opacity="1" transform="matrix(1 0 0 1 2898 297)"/><path d="M163 129C163 130.657 161.657 132 160 132 158.343 132 157 130.657 157 129 157 127.343 158.343 126 160 126 161.657 126 163 127.343 163 129Z" fill="#000000" fill-rule="nonzero" fill-opacity="1" transform="matrix(1 0 0 1 2898 297)"/></g></g></g><path d="M2893.27 455.269 3231.24 455.269 3231.24 620.269 2893.27 620.269Z" fill="#156082" fill-rule="evenodd" fill-opacity="1"/><path d="M3231.24 455.269 3569.22 455.269 3569.22 620.269 3231.24 620.269Z" fill="#156082" fill-rule="evenodd" fill-opacity="1"/><path d="M3569.22 455.269 3907.19 455.269 3907.19 620.269 3569.22 620.269Z" fill="#156082" fill-rule="evenodd" fill-opacity="1"/><path d="M2893.27 620.269 3231.24 620.269 3231.24 702.455 2893.27 702.455Z" fill="#CCD2D8" fill-rule="evenodd" fill-opacity="1"/><path d="M3231.24 620.269 3569.22 620.269 3569.22 702.455 3231.24 702.455Z" fill="#CCD2D8" fill-rule="evenodd" fill-opacity="1"/><path d="M3569.22 620.269 3907.19 620.269 3907.19 702.455 3569.22 702.455Z" fill="#CCD2D8" fill-rule="evenodd" fill-opacity="1"/><path d="M2893.27 702.455 3231.24 702.455 3231.24 784.641 2893.27 784.641Z" fill="#E7EAED" fill-rule="evenodd" fill-opacity="1"/><path d="M3231.24 702.455 3569.22 702.455 3569.22 784.641 3231.24 784.641Z" fill="#E7EAED" fill-rule="evenodd" fill-opacity="1"/><path d="M3569.22 702.455 3907.19 702.455 3907.19 784.641 3569.22 784.641Z" fill="#E7EAED" fill-rule="evenodd" fill-opacity="1"/><path d="M2893.27 784.641 3231.24 784.641 3231.24 866.827 2893.27 866.827Z" fill="#CCD2D8" fill-rule="evenodd" fill-opacity="1"/><path d="M3231.24 784.641 3569.22 784.641 3569.22 866.827 3231.24 866.827Z" fill="#CCD2D8" fill-rule="evenodd" fill-opacity="1"/><path d="M3569.22 784.641 3907.19 784.641 3907.19 866.827 3569.22 866.827Z" fill="#CCD2D8" fill-rule="evenodd" fill-opacity="1"/><path d="M3231.24 452.977 3231.24 869.118" stroke="#FFFFFF" stroke-width="4.58333" stroke-linecap="butt" stroke-linejoin="round" stroke-miterlimit="10" stroke-opacity="1" fill="none" fill-rule="evenodd"/><path d="M3569.22 452.977 3569.22 869.118" stroke="#FFFFFF" stroke-width="4.58333" stroke-linecap="butt" stroke-linejoin="round" stroke-miterlimit="10" stroke-opacity="1" fill="none" fill-rule="evenodd"/><path d="M2890.98 620.269 3909.48 620.269" stroke="#FFFFFF" stroke-width="13.75" stroke-linecap="butt" stroke-linejoin="round" stroke-miterlimit="10" stroke-opacity="1" fill="none" fill-rule="evenodd"/><path d="M2890.98 702.455 3909.48 702.455" stroke="#FFFFFF" stroke-width="4.58333" stroke-linecap="butt" stroke-linejoin="round" stroke-miterlimit="10" stroke-opacity="1" fill="none" fill-rule="evenodd"/><path d="M2890.98 784.641 3909.48 784.641" stroke="#FFFFFF" stroke-width="4.58333" stroke-linecap="butt" stroke-linejoin="round" stroke-miterlimit="10" stroke-opacity="1" fill="none" fill-rule="evenodd"/><path d="M2893.27 452.977 2893.27 869.118" stroke="#FFFFFF" stroke-width="4.58333" stroke-linecap="butt" stroke-linejoin="round" stroke-miterlimit="10" stroke-opacity="1" fill="none" fill-rule="evenodd"/><path d="M3907.19 452.977 3907.19 869.118" stroke="#FFFFFF" stroke-width="4.58333" stroke-linecap="butt" stroke-linejoin="round" stroke-miterlimit="10" stroke-opacity="1" fill="none" fill-rule="evenodd"/><path d="M2890.98 455.269 3909.48 455.269" stroke="#FFFFFF" stroke-width="4.58333" stroke-linecap="butt" stroke-linejoin="round" stroke-miterlimit="10" stroke-opacity="1" fill="none" fill-rule="evenodd"/><path d="M2890.98 866.827 3909.48 866.827" stroke="#FFFFFF" stroke-width="4.58333" stroke-linecap="butt" stroke-linejoin="round" stroke-miterlimit="10" stroke-opacity="1" fill="none" fill-rule="evenodd"/><text fill="#FFFFFF" fill-opacity="1" font-family="Aptos,Aptos_MSFontService,sans-serif" font-style="normal" font-variant="normal" font-weight="700" font-stretch="normal" font-size="37" text-anchor="start" direction="ltr" writing-mode="lr-tb" unicode-bidi="normal" text-decoration="none" transform="matrix(1 0 0 1 3602.22 506)">Item Stock</text><text fill="#FFFFFF" fill-opacity="1" font-family="Aptos,Aptos_MSFontService,sans-serif" font-style="normal" font-variant="normal" font-weight="700" font-stretch="normal" font-size="37" text-anchor="start" direction="ltr" writing-mode="lr-tb" unicode-bidi="normal" text-decoration="none" transform="matrix(1 0 0 1 3264.24 506)">Planned </text><text fill="#FFFFFF" fill-opacity="1" font-family="Aptos,Aptos_MSFontService,sans-serif" font-style="normal" font-variant="normal" font-weight="700" font-stretch="normal" font-size="37" text-anchor="start" direction="ltr" writing-mode="lr-tb" unicode-bidi="normal" text-decoration="none" transform="matrix(1 0 0 1 3264.24 550)">Production </text><text fill="#FFFFFF" fill-opacity="1" font-family="Aptos,Aptos_MSFontService,sans-serif" font-style="normal" font-variant="normal" font-weight="700" font-stretch="normal" font-size="37" text-anchor="start" direction="ltr" writing-mode="lr-tb" unicode-bidi="normal" text-decoration="none" transform="matrix(1 0 0 1 3264.24 594)">Output</text><text fill="#FFFFFF" fill-opacity="1" font-family="Aptos,Aptos_MSFontService,sans-serif" font-style="normal" font-variant="normal" font-weight="700" font-stretch="normal" font-size="37" text-anchor="start" direction="ltr" writing-mode="lr-tb" unicode-bidi="normal" text-decoration="none" transform="matrix(1 0 0 1 2926.27 506)">Customer</text><text fill="#000000" fill-opacity="1" font-family="Aptos,Aptos_MSFontService,sans-serif" font-style="normal" font-variant="normal" font-weight="400" font-stretch="normal" font-size="37" text-anchor="start" direction="ltr" writing-mode="lr-tb" unicode-bidi="normal" text-decoration="none" transform="matrix(1 0 0 1 3602.22 671)">specific</text><text fill="#000000" fill-opacity="1" font-family="Aptos,Aptos_MSFontService,sans-serif" font-style="normal" font-variant="normal" font-weight="400" font-stretch="normal" font-size="37" text-anchor="start" direction="ltr" writing-mode="lr-tb" unicode-bidi="normal" text-decoration="none" transform="matrix(1 0 0 1 3264.24 671)">specific</text><text fill="#000000" fill-opacity="1" font-family="Aptos,Aptos_MSFontService,sans-serif" font-style="normal" font-variant="normal" font-weight="400" font-stretch="normal" font-size="37" text-anchor="start" direction="ltr" writing-mode="lr-tb" unicode-bidi="normal" text-decoration="none" transform="matrix(1 0 0 1 2926.27 671)">1</text><text fill="#000000" fill-opacity="1" font-family="Aptos,Aptos_MSFontService,sans-serif" font-style="normal" font-variant="normal" font-weight="400" font-stretch="normal" font-size="37" text-anchor="start" direction="ltr" writing-mode="lr-tb" unicode-bidi="normal" text-decoration="none" transform="matrix(1 0 0 1 3602.22 753)">specific</text><path d="M3264.24 717.963 3329.56 717.963 3329.56 762.963 3264.24 762.963Z" fill="#FFFF00" fill-rule="evenodd" fill-opacity="1"/><path d="M3329.56 717.963 3454.45 717.963 3454.45 762.963 3329.56 762.963Z" fill="#FFFF00" fill-rule="evenodd" fill-opacity="1"/><text fill="#000000" fill-opacity="1" font-family="Aptos,Aptos_MSFontService,sans-serif" font-style="normal" font-variant="normal" font-weight="400" font-stretch="normal" font-size="37" text-anchor="start" direction="ltr" writing-mode="lr-tb" unicode-bidi="normal" text-decoration="none" transform="matrix(1 0 0 1 3264.24 753)">Not </text><text fill="#000000" fill-opacity="1" font-family="Aptos,Aptos_MSFontService,sans-serif" font-style="normal" font-variant="normal" font-weight="400" font-stretch="normal" font-size="37" text-anchor="start" direction="ltr" writing-mode="lr-tb" unicode-bidi="normal" text-decoration="none" transform="matrix(1 0 0 1 3329.56 753)">specific</text><text fill="#000000" fill-opacity="1" font-family="Aptos,Aptos_MSFontService,sans-serif" font-style="normal" font-variant="normal" font-weight="400" font-stretch="normal" font-size="37" text-anchor="start" direction="ltr" writing-mode="lr-tb" unicode-bidi="normal" text-decoration="none" transform="matrix(1 0 0 1 2926.27 753)">2</text><text fill="#000000" fill-opacity="1" font-family="Aptos,Aptos_MSFontService,sans-serif" font-style="normal" font-variant="normal" font-weight="400" font-stretch="normal" font-size="37" text-anchor="start" direction="ltr" writing-mode="lr-tb" unicode-bidi="normal" text-decoration="none" transform="matrix(1 0 0 1 3602.22 835)">specific</text><path d="M3264.24 800.149 3329.56 800.149 3329.56 845.149 3264.24 845.149Z" fill="#FFFF00" fill-rule="evenodd" fill-opacity="1"/><path d="M3329.56 800.149 3454.45 800.149 3454.45 845.149 3329.56 845.149Z" fill="#FFFF00" fill-rule="evenodd" fill-opacity="1"/><text fill="#000000" fill-opacity="1" font-family="Aptos,Aptos_MSFontService,sans-serif" font-style="normal" font-variant="normal" font-weight="400" font-stretch="normal" font-size="37" text-anchor="start" direction="ltr" writing-mode="lr-tb" unicode-bidi="normal" text-decoration="none" transform="matrix(1 0 0 1 3264.24 835)">Not </text><text fill="#000000" fill-opacity="1" font-family="Aptos,Aptos_MSFontService,sans-serif" font-style="normal" font-variant="normal" font-weight="400" font-stretch="normal" font-size="37" text-anchor="start" direction="ltr" writing-mode="lr-tb" unicode-bidi="normal" text-decoration="none" transform="matrix(1 0 0 1 3329.56 835)">specific</text><text fill="#000000" fill-opacity="1" font-family="Aptos,Aptos_MSFontService,sans-serif" font-style="normal" font-variant="normal" font-weight="400" font-stretch="normal" font-size="37" text-anchor="start" direction="ltr" writing-mode="lr-tb" unicode-bidi="normal" text-decoration="none" transform="matrix(1 0 0 1 2926.27 835)">3</text><text fill="#FFFFFF" fill-opacity="1" font-family="Aptos,Aptos_MSFontService,sans-serif" font-style="italic" font-variant="normal" font-weight="400" font-stretch="normal" font-size="41" text-anchor="start" direction="ltr" writing-mode="lr-tb" unicode-bidi="normal" text-decoration="none" transform="matrix(1 0 0 1 586.746 541)">Customer 1 (C1)</text><text fill="#FFFFFF" fill-opacity="1" font-family="Aptos,Aptos_MSFontService,sans-serif" font-style="normal" font-variant="normal" font-weight="400" font-stretch="normal" font-size="41" text-anchor="start" direction="ltr" writing-mode="lr-tb" unicode-bidi="normal" text-decoration="none" transform="matrix(1 0 0 1 1112.75 380)">Demand</text><g><g><g><path d="M78.3527 29.1286 75.1996 25.9755C74.1677 24.8999 72.4602 24.8612 71.3807 25.889 71.0393 26.2511 70.4765 26.2888 70.0899 25.9755 69.6672 25.5281 69.683 24.8239 70.1254 24.3959 71.0708 23.3239 71.017 21.7008 70.0026 20.6938L62.2162 12.9895C57.2595 8.0311 47.5952 6.41865 38.1531 8.97954 38.0061 9.01793 37.8618 9.06557 37.7208 9.1222 37.6613 9.1522 37.6035 9.18575 37.5479 9.22249 36.9132 9.61458 36.583 10.3549 36.7153 11.0891 36.851 11.8033 37.347 12.3962 38.026 12.6557 39.2036 13.0759 41.3235 13.7287 41.3858 13.7477 45.6179 15.2054 50.1328 20.5589 51.4703 22.5932L28.3583 45.5565 28.2978 45.496C27.7638 44.9612 27.0356 44.666 26.2798 44.6781 25.5907 44.6924 24.9377 44.9897 24.4746 45.5003L5.12092 65.103 5.03878 65.2007C3.2056 67.717 3.49798 71.1975 5.72526 73.3727 6.93825 74.544 8.55654 75.2018 10.2427 75.2091 11.5475 75.2137 12.8198 74.8014 13.8739 74.0324L33.5682 54.5127C34.1058 53.9802 34.4012 53.2504 34.3853 52.4939 34.3723 51.8068 34.0768 51.1554 33.5682 50.693L33.5086 50.6342 56.3258 27.8093 59.5671 31.0515C60.599 32.1277 62.3072 32.1663 63.3868 31.1379 63.7281 30.7763 64.2903 30.7386 64.6768 31.0515 65.0997 31.4986 65.0842 32.2028 64.6422 32.631 63.6956 33.7049 63.7513 35.331 64.7693 36.3375L68.0296 39.5114C69.1166 40.5672 70.8462 40.5672 71.9332 39.5114L78.383 33.0599C78.9048 32.5427 79.2055 31.8431 79.2216 31.1085 79.2442 30.3515 78.9252 29.6245 78.3527 29.1286ZM32.3492 53.2868 12.7958 72.6741C10.9651 73.9224 8.50628 73.6977 6.93222 72.1381 5.31468 70.5904 5.08593 68.0871 6.39617 66.2719L25.7317 46.6814C25.8823 46.5105 26.0979 46.411 26.3256 46.4073 26.6066 46.4024 26.8768 46.5153 27.0709 46.7185L27.747 47.3955 28.3462 47.9947 28.3522 47.9877 31.6791 51.2455 32.3794 51.9441C32.5504 52.0951 32.6501 52.3109 32.6544 52.5389 32.6605 52.8197 32.55 53.0904 32.3492 53.2868ZM32.2826 49.4152 29.5834 46.7739 52.5501 23.9601 55.1128 26.5798ZM77.1605 31.8399 70.7107 38.2915C70.3116 38.6952 69.6606 38.699 69.2569 38.2998 69.2515 38.2946 69.2462 38.2891 69.2409 38.2837L65.9823 35.1072C65.6202 34.7658 65.5825 34.203 65.8958 33.8164 66.9965 32.7056 66.9884 30.9128 65.8776 29.8121 65.8715 29.8061 65.8656 29.8002 65.8595 29.7943 64.8055 28.8567 63.2058 28.8945 62.1971 29.8808 61.8052 30.2572 61.1824 30.2447 60.806 29.8528 60.7993 29.8458 60.7926 29.8387 60.7861 29.8315L56.937 25.9815 53.247 22.2085C52.3746 20.6393 47.2995 13.9543 41.9244 12.1041 41.9028 12.0972 39.7526 11.435 38.639 11.039 38.5526 11.0018 38.3978 10.8981 38.4099 10.7978 38.4099 10.7493 38.4324 10.7191 38.4869 10.6888L38.5456 10.6646C47.4275 8.24379 56.4485 9.66689 60.9954 14.2155L68.7818 21.9197C69.1439 22.2612 69.1816 22.8239 68.8682 23.2106 67.7677 24.3222 67.7769 26.1156 68.8886 27.2161 68.8947 27.2222 68.9009 27.2283 68.9072 27.2343 69.961 28.1714 71.5602 28.1337 72.5687 27.1479 72.9606 26.7714 73.5834 26.784 73.9598 27.1759 73.9665 27.1829 73.9732 27.19 73.9797 27.1971L77.163 30.3805 77.2339 30.4445C77.4158 30.6163 77.511 30.8606 77.4933 31.1102 77.4759 31.3861 77.3574 31.6459 77.1605 31.8399Z" stroke="#FFFFFF" stroke-width="0.864491" stroke-linecap="butt" stroke-linejoin="miter" stroke-miterlimit="4" stroke-opacity="1" fill="#FFFFFF" fill-rule="nonzero" fill-opacity="1" transform="matrix(1 0 0 1 940 480)"/></g></g></g><g><g><g><path d="M66.2944 5.12005C66.7244 5.11872 67.1542 5.14123 67.5818 5.18749L61.2703 11.4989 63.4318 19.5663 71.5052 21.7278 77.7164 15.4466C78.3697 21.7579 73.7829 27.4037 67.4717 28.0569 67.0891 28.0965 66.7049 28.1169 66.3203 28.1179 65.3327 28.118 64.3494 27.9869 63.3963 27.728L62.428 27.4634 27.4496 62.4418 27.7358 63.4248C28.9017 67.564 27.6205 72.0064 24.4296 74.8892 22.3169 76.8127 19.5626 77.8791 16.7054 77.8798 16.2754 77.8811 15.8456 77.8586 15.4181 77.8123L21.7295 71.5009 19.5724 63.437 11.5923 61.2755 5.28519 67.574C4.62096 61.2634 9.19828 55.6092 15.5088 54.945 15.8978 54.904 16.2885 54.883 16.6795 54.8819 17.6671 54.8817 18.6504 55.0129 19.6035 55.2718L20.5719 55.5364 55.5502 20.558 55.2641 19.575C54.0982 15.4358 55.3793 10.9934 58.5702 8.11064 60.6829 6.18708 63.4372 5.12072 66.2944 5.12005M66.2944 3.39089C59.0317 3.38033 53.1355 9.25932 53.125 16.5221 53.1233 17.7171 53.2844 18.9068 53.6041 20.0583L20.0583 53.6041C18.9571 53.3041 17.8208 53.1523 16.6795 53.1528 9.37907 53.1703 3.47517 59.1026 3.4927 66.4031 3.49646 67.9665 3.77755 69.5169 4.32291 70.9822L12.1041 63.2009 18.1562 64.8436 19.7989 70.9822 12.0177 78.7634C13.5177 79.3212 15.105 79.6076 16.7054 79.6089 23.9681 79.6195 29.8643 73.7405 29.8748 66.4778 29.8766 65.2827 29.7154 64.0931 29.3958 62.9415L62.9415 29.3958C64.0428 29.6957 65.179 29.8475 66.3203 29.8471 73.6208 29.8295 79.5247 23.8972 79.5071 16.5968 79.5034 15.0333 79.2223 13.483 78.6769 12.0177L70.9822 19.7989 64.8436 18.1562 63.2009 12.0177 70.9822 4.23645C69.4822 3.67854 67.8948 3.39221 66.2944 3.39089Z" stroke="#FFFFFF" stroke-width="0.864491" stroke-linecap="butt" stroke-linejoin="miter" stroke-miterlimit="4" stroke-opacity="1" fill="#FFFFFF" fill-rule="nonzero" fill-opacity="1" transform="matrix(1 0 0 1.01205 940 619)"/></g></g></g><text fill="#FFFFFF" fill-opacity="1" font-family="Aptos,Aptos_MSFontService,sans-serif" font-style="normal" font-variant="normal" font-weight="400" font-stretch="normal" font-size="41" text-anchor="start" direction="ltr" writing-mode="lr-tb" unicode-bidi="normal" text-decoration="none" transform="matrix(1 0 0 1 945.618 380)">Item</text><text fill="#FFFFFF" fill-opacity="1" font-family="Aptos,Aptos_MSFontService,sans-serif" font-style="italic" font-variant="normal" font-weight="400" font-stretch="normal" font-size="41" text-anchor="start" direction="ltr" writing-mode="lr-tb" unicode-bidi="normal" text-decoration="none" transform="matrix(1 0 0 1 586.746 675)">Customer 2 (C2)</text><text fill="#FFFFFF" fill-opacity="1" font-family="Aptos,Aptos_MSFontService,sans-serif" font-style="italic" font-variant="normal" font-weight="400" font-stretch="normal" font-size="41" text-anchor="start" direction="ltr" writing-mode="lr-tb" unicode-bidi="normal" text-decoration="none" transform="matrix(1 0 0 1 586.746 814)">Customer 3 (C3)</text><path d="M1181.5 531.063 1279.12 531.063 1279.12 537.938 1181.5 537.938ZM1274.53 520.75 1302.03 534.5 1274.53 548.25Z" fill="#FFFFFF" fill-rule="nonzero" fill-opacity="1"/><path d="M1181.5 668.062 1279.12 668.063 1279.12 674.938 1181.5 674.937ZM1274.53 657.75 1302.03 671.5 1274.53 685.25Z" fill="#FFFFFF" fill-rule="nonzero" fill-opacity="1"/><path d="M1181.5 805.062 1279.12 805.063 1279.12 811.938 1181.5 811.938ZM1274.53 794.75 1302.03 808.5 1274.53 822.25Z" fill="#FFFFFF" fill-rule="nonzero" fill-opacity="1"/><rect x="1311" y="399" width="100" height="454" stroke="#F2F2F2" stroke-width="2.29167" stroke-linecap="butt" stroke-linejoin="miter" stroke-miterlimit="8" stroke-dasharray="9.16667 6.875" stroke-opacity="1" fill="#104862" fill-opacity="0.380392"/><text fill="#000000" fill-opacity="1" font-family="Aptos,Aptos_MSFontService,sans-serif" font-style="normal" font-variant="normal" font-weight="400" font-stretch="normal" font-size="41" text-anchor="start" direction="ltr" writing-mode="lr-tb" unicode-bidi="normal" text-decoration="none" transform="matrix(6.12323e-17 1 -1 6.12323e-17 1347.15 439)">Production</text><text fill="#000000" fill-opacity="1" font-family="Aptos,Aptos_MSFontService,sans-serif" font-style="normal" font-variant="normal" font-weight="400" font-stretch="normal" font-size="41" text-anchor="start" direction="ltr" writing-mode="lr-tb" unicode-bidi="normal" text-decoration="none" transform="matrix(6.12323e-17 1 -1 6.12323e-17 1347.15 659)">planning</text><text fill="#000000" fill-opacity="1" font-family="Aptos,Aptos_MSFontService,sans-serif" font-style="normal" font-variant="normal" font-weight="700" font-stretch="normal" font-size="41" text-anchor="start" direction="ltr" writing-mode="lr-tb" unicode-bidi="normal" text-decoration="none" transform="matrix(1 0 0 1 2501.36 371)">Physical</text><text fill="#000000" fill-opacity="1" font-family="Aptos,Aptos_MSFontService,sans-serif" font-style="normal" font-variant="normal" font-weight="700" font-stretch="normal" font-size="41" text-anchor="start" direction="ltr" writing-mode="lr-tb" unicode-bidi="normal" text-decoration="none" transform="matrix(1 0 0 1 2669.8 371)">Storage</text><g><g><g><path d="M64.1789 12.3958 5.75384 12.3958 5.75384 57.6222 64.1789 57.6222ZM62.7205 56.1639 7.21216 56.1639 7.21216 24.0624 62.7205 24.0624ZM62.7205 22.6041 7.21216 22.6041 7.21216 13.8541 62.7205 13.8541Z" stroke="#BAE9FD" stroke-width="0.729026" stroke-linecap="butt" stroke-linejoin="miter" stroke-miterlimit="4" stroke-opacity="1" fill="#BAE9FD" fill-rule="nonzero" fill-opacity="1" transform="matrix(1.00001 0 0 1 1106 500)"/><path d="M47.3957 18.2291C47.3957 19.0345 46.7428 19.6874 45.9374 19.6874 45.1319 19.6874 44.479 19.0345 44.479 18.2291 44.479 17.4237 45.1319 16.7708 45.9374 16.7708 46.7428 16.7708 47.3957 17.4237 47.3957 18.2291Z" stroke="#BAE9FD" stroke-width="0.729026" stroke-linecap="butt" stroke-linejoin="miter" stroke-miterlimit="4" stroke-opacity="1" fill="#BAE9FD" fill-rule="nonzero" fill-opacity="1" transform="matrix(1.00001 0 0 1 1106 500)"/><path d="M52.4998 18.2291C52.4998 19.0345 51.8469 19.6874 51.0415 19.6874 50.2361 19.6874 49.5832 19.0345 49.5832 18.2291 49.5832 17.4237 50.2361 16.7708 51.0415 16.7708 51.8469 16.7708 52.4998 17.4237 52.4998 18.2291Z" stroke="#BAE9FD" stroke-width="0.729026" stroke-linecap="butt" stroke-linejoin="miter" stroke-miterlimit="4" stroke-opacity="1" fill="#BAE9FD" fill-rule="nonzero" fill-opacity="1" transform="matrix(1.00001 0 0 1 1106 500)"/><path d="M57.604 18.2291C57.604 19.0345 56.9511 19.6874 56.1457 19.6874 55.3402 19.6874 54.6873 19.0345 54.6873 18.2291 54.6873 17.4237 55.3402 16.7708 56.1457 16.7708 56.9511 16.7708 57.604 17.4237 57.604 18.2291Z" stroke="#BAE9FD" stroke-width="0.729026" stroke-linecap="butt" stroke-linejoin="miter" stroke-miterlimit="4" stroke-opacity="1" fill="#BAE9FD" fill-rule="nonzero" fill-opacity="1" transform="matrix(1.00001 0 0 1 1106 500)"/><path d="M16.6198 44.3281 17.6509 45.3591 25.0935 37.9165 17.2863 30.1094 16.2553 31.1404 23.0314 37.9165 16.6198 44.3281Z" stroke="#BAE9FD" stroke-width="0.729026" stroke-linecap="butt" stroke-linejoin="miter" stroke-miterlimit="4" stroke-opacity="1" fill="#BAE9FD" fill-rule="nonzero" fill-opacity="1" transform="matrix(1.00001 0 0 1 1106 500)"/><path d="M27.7082 43.7499 39.3749 43.7499 39.3749 45.2082 27.7082 45.2082Z" stroke="#BAE9FD" stroke-width="0.729026" stroke-linecap="butt" stroke-linejoin="miter" stroke-miterlimit="4" stroke-opacity="1" fill="#BAE9FD" fill-rule="nonzero" fill-opacity="1" transform="matrix(1.00001 0 0 1 1106 500)"/></g></g></g><g><g><g><path d="M1170.18 650.396 1111.75 650.396 1111.75 695.622 1170.18 695.622ZM1168.72 694.164 1113.21 694.164 1113.21 662.063 1168.72 662.063ZM1168.72 660.604 1113.21 660.604 1113.21 651.854 1168.72 651.854Z" stroke="#FF0000" stroke-width="0.72903" stroke-linecap="butt" stroke-linejoin="miter" stroke-miterlimit="4" stroke-opacity="1" fill="#FF0000" fill-rule="nonzero" fill-opacity="1"/><path d="M1153.4 656.229C1153.4 657.035 1152.74 657.688 1151.94 657.688 1151.13 657.688 1150.48 657.035 1150.48 656.229 1150.48 655.424 1151.13 654.771 1151.94 654.771 1152.74 654.771 1153.4 655.424 1153.4 656.229Z" stroke="#FF0000" stroke-width="0.72903" stroke-linecap="butt" stroke-linejoin="miter" stroke-miterlimit="4" stroke-opacity="1" fill="#FF0000" fill-rule="nonzero" fill-opacity="1"/><path d="M1158.5 656.229C1158.5 657.035 1157.85 657.688 1157.04 657.688 1156.24 657.688 1155.58 657.035 1155.58 656.229 1155.58 655.424 1156.24 654.771 1157.04 654.771 1157.85 654.771 1158.5 655.424 1158.5 656.229Z" stroke="#FF0000" stroke-width="0.72903" stroke-linecap="butt" stroke-linejoin="miter" stroke-miterlimit="4" stroke-opacity="1" fill="#FF0000" fill-rule="nonzero" fill-opacity="1"/><path d="M1163.6 656.229C1163.6 657.035 1162.95 657.688 1162.15 657.688 1161.34 657.688 1160.69 657.035 1160.69 656.229 1160.69 655.424 1161.34 654.771 1162.15 654.771 1162.95 654.771 1163.6 655.424 1163.6 656.229Z" stroke="#FF0000" stroke-width="0.72903" stroke-linecap="butt" stroke-linejoin="miter" stroke-miterlimit="4" stroke-opacity="1" fill="#FF0000" fill-rule="nonzero" fill-opacity="1"/><path d="M1122.62 682.328 1123.65 683.359 1131.09 675.917 1123.29 668.11 1122.26 669.141 1129.03 675.917 1122.62 682.328Z" stroke="#FF0000" stroke-width="0.72903" stroke-linecap="butt" stroke-linejoin="miter" stroke-miterlimit="4" stroke-opacity="1" fill="#FF0000" fill-rule="nonzero" fill-opacity="1"/><path d="M1133.71 681.75 1145.38 681.75 1145.38 683.208 1133.71 683.208Z" stroke="#FF0000" stroke-width="0.72903" stroke-linecap="butt" stroke-linejoin="miter" stroke-miterlimit="4" stroke-opacity="1" fill="#FF0000" fill-rule="nonzero" fill-opacity="1"/></g></g></g><g><g><g><path d="M64.1789 12.3958 5.75384 12.3958 5.75384 57.6222 64.1789 57.6222ZM62.7205 56.1639 7.21216 56.1639 7.21216 24.0624 62.7205 24.0624ZM62.7205 22.6041 7.21216 22.6041 7.21216 13.8541 62.7205 13.8541Z" stroke="#438DEF" stroke-width="0.729026" stroke-linecap="butt" stroke-linejoin="miter" stroke-miterlimit="4" stroke-opacity="1" fill="#A02B93" fill-rule="nonzero" fill-opacity="1" transform="matrix(1.00001 0 0 1 1106 773)"/><path d="M47.3957 18.2291C47.3957 19.0345 46.7428 19.6874 45.9374 19.6874 45.1319 19.6874 44.479 19.0345 44.479 18.2291 44.479 17.4237 45.1319 16.7708 45.9374 16.7708 46.7428 16.7708 47.3957 17.4237 47.3957 18.2291Z" stroke="#438DEF" stroke-width="0.729026" stroke-linecap="butt" stroke-linejoin="miter" stroke-miterlimit="4" stroke-opacity="1" fill="#A02B93" fill-rule="nonzero" fill-opacity="1" transform="matrix(1.00001 0 0 1 1106 773)"/><path d="M52.4998 18.2291C52.4998 19.0345 51.8469 19.6874 51.0415 19.6874 50.2361 19.6874 49.5832 19.0345 49.5832 18.2291 49.5832 17.4237 50.2361 16.7708 51.0415 16.7708 51.8469 16.7708 52.4998 17.4237 52.4998 18.2291Z" stroke="#438DEF" stroke-width="0.729026" stroke-linecap="butt" stroke-linejoin="miter" stroke-miterlimit="4" stroke-opacity="1" fill="#A02B93" fill-rule="nonzero" fill-opacity="1" transform="matrix(1.00001 0 0 1 1106 773)"/><path d="M57.604 18.2291C57.604 19.0345 56.9511 19.6874 56.1457 19.6874 55.3402 19.6874 54.6873 19.0345 54.6873 18.2291 54.6873 17.4237 55.3402 16.7708 56.1457 16.7708 56.9511 16.7708 57.604 17.4237 57.604 18.2291Z" stroke="#438DEF" stroke-width="0.729026" stroke-linecap="butt" stroke-linejoin="miter" stroke-miterlimit="4" stroke-opacity="1" fill="#A02B93" fill-rule="nonzero" fill-opacity="1" transform="matrix(1.00001 0 0 1 1106 773)"/><path d="M16.6198 44.3281 17.6509 45.3591 25.0935 37.9165 17.2863 30.1094 16.2553 31.1404 23.0314 37.9165 16.6198 44.3281Z" stroke="#438DEF" stroke-width="0.729026" stroke-linecap="butt" stroke-linejoin="miter" stroke-miterlimit="4" stroke-opacity="1" fill="#A02B93" fill-rule="nonzero" fill-opacity="1" transform="matrix(1.00001 0 0 1 1106 773)"/><path d="M27.7082 43.7499 39.3749 43.7499 39.3749 45.2082 27.7082 45.2082Z" stroke="#438DEF" stroke-width="0.729026" stroke-linecap="butt" stroke-linejoin="miter" stroke-miterlimit="4" stroke-opacity="1" fill="#A02B93" fill-rule="nonzero" fill-opacity="1" transform="matrix(1.00001 0 0 1 1106 773)"/></g></g></g><text fill="#FFFFFF" fill-opacity="1" font-family="Aptos,Aptos_MSFontService,sans-serif" font-style="normal" font-variant="normal" font-weight="700" font-stretch="normal" font-size="46" text-anchor="start" direction="ltr" writing-mode="lr-tb" unicode-bidi="normal" text-decoration="none" transform="matrix(1 0 0 1 1491.07 949)">Physical</text><text fill="#FFFFFF" fill-opacity="1" font-family="Aptos,Aptos_MSFontService,sans-serif" font-style="normal" font-variant="normal" font-weight="700" font-stretch="normal" font-size="46" text-anchor="start" direction="ltr" writing-mode="lr-tb" unicode-bidi="normal" text-decoration="none" transform="matrix(1 0 0 1 1676.12 949)">separation</text><text fill="#FFFFFF" fill-opacity="1" font-family="Arial,Arial_MSFontService,sans-serif" font-style="normal" font-variant="normal" font-weight="400" font-stretch="normal" font-size="46" text-anchor="start" direction="ltr" writing-mode="lr-tb" unicode-bidi="normal" text-decoration="none" transform="matrix(1 0 0 1 1491.07 1004)">•</text><text fill="#FFFFFF" fill-opacity="1" font-family="Aptos,Aptos_MSFontService,sans-serif" font-style="normal" font-variant="normal" font-weight="400" font-stretch="normal" font-size="46" text-anchor="start" direction="ltr" writing-mode="lr-tb" unicode-bidi="normal" text-decoration="none" transform="matrix(1 0 0 1 1552.94 1004)">Production: </text><text fill="#FFA600" fill-opacity="1" font-family="Aptos,Aptos_MSFontService,sans-serif" font-style="normal" font-variant="normal" font-weight="400" font-stretch="normal" font-size="46" text-anchor="start" direction="ltr" writing-mode="lr-tb" unicode-bidi="normal" text-decoration="none" transform="matrix(1 0 0 1 1794.14 1004)">no</text><text fill="#FFFFFF" fill-opacity="1" font-family="Arial,Arial_MSFontService,sans-serif" font-style="normal" font-variant="normal" font-weight="400" font-stretch="normal" font-size="46" text-anchor="start" direction="ltr" writing-mode="lr-tb" unicode-bidi="normal" text-decoration="none" transform="matrix(1 0 0 1 1491.07 1059)">•</text><text fill="#FFFFFF" fill-opacity="1" font-family="Aptos,Aptos_MSFontService,sans-serif" font-style="normal" font-variant="normal" font-weight="400" font-stretch="normal" font-size="46" text-anchor="start" direction="ltr" writing-mode="lr-tb" unicode-bidi="normal" text-decoration="none" transform="matrix(1 0 0 1 1552.94 1059)">Storage: </text><text fill="#92D050" fill-opacity="1" font-family="Aptos,Aptos_MSFontService,sans-serif" font-style="normal" font-variant="normal" font-weight="400" font-stretch="normal" font-size="46" text-anchor="start" direction="ltr" writing-mode="lr-tb" unicode-bidi="normal" text-decoration="none" transform="matrix(1 0 0 1 1727.68 1059)">yes</text><text fill="#FFFFFF" fill-opacity="1" font-family="Aptos,Aptos_MSFontService,sans-serif" font-style="normal" font-variant="normal" font-weight="700" font-stretch="normal" font-size="46" text-anchor="start" direction="ltr" writing-mode="lr-tb" unicode-bidi="normal" text-decoration="none" transform="matrix(1 0 0 1 3108.37 940)">Data </text><text fill="#FFFFFF" fill-opacity="1" font-family="Aptos,Aptos_MSFontService,sans-serif" font-style="normal" font-variant="normal" font-weight="700" font-stretch="normal" font-size="46" text-anchor="start" direction="ltr" writing-mode="lr-tb" unicode-bidi="normal" text-decoration="none" transform="matrix(1 0 0 1 3216.65 940)">seperation</text><text fill="#FFFFFF" fill-opacity="1" font-family="Arial,Arial_MSFontService,sans-serif" font-style="normal" font-variant="normal" font-weight="400" font-stretch="normal" font-size="46" text-anchor="start" direction="ltr" writing-mode="lr-tb" unicode-bidi="normal" text-decoration="none" transform="matrix(1 0 0 1 3108.37 995)">•</text><text fill="#FFFFFF" fill-opacity="1" font-family="Aptos,Aptos_MSFontService,sans-serif" font-style="normal" font-variant="normal" font-weight="400" font-stretch="normal" font-size="46" text-anchor="start" direction="ltr" writing-mode="lr-tb" unicode-bidi="normal" text-decoration="none" transform="matrix(1 0 0 1 3170.24 995)">Planned Production Output: </text><text fill="#FFA600" fill-opacity="1" font-family="Aptos,Aptos_MSFontService,sans-serif" font-style="normal" font-variant="normal" font-weight="400" font-stretch="normal" font-size="46" text-anchor="start" direction="ltr" writing-mode="lr-tb" unicode-bidi="normal" text-decoration="none" transform="matrix(1 0 0 1 3733.99 995)">no</text><text fill="#FFFFFF" fill-opacity="1" font-family="Arial,Arial_MSFontService,sans-serif" font-style="normal" font-variant="normal" font-weight="400" font-stretch="normal" font-size="46" text-anchor="start" direction="ltr" writing-mode="lr-tb" unicode-bidi="normal" text-decoration="none" transform="matrix(1 0 0 1 3108.37 1050)">•</text><text fill="#FFFFFF" fill-opacity="1" font-family="Aptos,Aptos_MSFontService,sans-serif" font-style="normal" font-variant="normal" font-weight="400" font-stretch="normal" font-size="46" text-anchor="start" direction="ltr" writing-mode="lr-tb" unicode-bidi="normal" text-decoration="none" transform="matrix(1 0 0 1 3170.24 1050)">Item Stock: </text><text fill="#92D050" fill-opacity="1" font-family="Aptos,Aptos_MSFontService,sans-serif" font-style="normal" font-variant="normal" font-weight="400" font-stretch="normal" font-size="46" text-anchor="start" direction="ltr" writing-mode="lr-tb" unicode-bidi="normal" text-decoration="none" transform="matrix(1 0 0 1 3403.99 1050)">yes</text><text fill="#FFFFFF" fill-opacity="1" font-family="Aptos,Aptos_MSFontService,sans-serif" font-style="normal" font-variant="normal" font-weight="700" font-stretch="normal" font-size="46" text-anchor="start" direction="ltr" writing-mode="lr-tb" unicode-bidi="normal" text-decoration="none" transform="matrix(1 0 0 1 2193.53 952)">Production </text><text fill="#FFFFFF" fill-opacity="1" font-family="Aptos,Aptos_MSFontService,sans-serif" font-style="normal" font-variant="normal" font-weight="700" font-stretch="normal" font-size="46" text-anchor="start" direction="ltr" writing-mode="lr-tb" unicode-bidi="normal" text-decoration="none" transform="matrix(1 0 0 1 2433.58 952)">Planning</text><text fill="#FFFFFF" fill-opacity="1" font-family="Arial,Arial_MSFontService,sans-serif" font-style="normal" font-variant="normal" font-weight="400" font-stretch="normal" font-size="46" text-anchor="start" direction="ltr" writing-mode="lr-tb" unicode-bidi="normal" text-decoration="none" transform="matrix(1 0 0 1 2193.53 1007)">•</text><text fill="#FFFFFF" fill-opacity="1" font-family="Aptos,Aptos_MSFontService,sans-serif" font-style="normal" font-variant="normal" font-weight="400" font-stretch="normal" font-size="46" text-anchor="start" direction="ltr" writing-mode="lr-tb" unicode-bidi="normal" text-decoration="none" transform="matrix(1 0 0 1 2255.4 1007)">Separated</text><text fill="#FFFFFF" fill-opacity="1" font-family="Aptos,Aptos_MSFontService,sans-serif" font-style="normal" font-variant="normal" font-weight="400" font-stretch="normal" font-size="46" text-anchor="start" direction="ltr" writing-mode="lr-tb" unicode-bidi="normal" text-decoration="none" transform="matrix(1 0 0 1 2469.67 1007)">Production Orders: </text><text fill="#FFA600" fill-opacity="1" font-family="Aptos,Aptos_MSFontService,sans-serif" font-style="normal" font-variant="normal" font-weight="400" font-stretch="normal" font-size="46" text-anchor="start" direction="ltr" writing-mode="lr-tb" unicode-bidi="normal" text-decoration="none" transform="matrix(1 0 0 1 2856.96 1007)">no</text><path d="M497 288C497 247.131 529.907 214 570.5 214 611.093 214 644 247.131 644 288 644 328.869 611.093 362 570.5 362 529.907 362 497 328.869 497 288Z" fill="#A31612" fill-rule="evenodd" fill-opacity="1"/><text fill="#FFFFFF" fill-opacity="1" font-family="Calibri,Calibri_MSFontService,sans-serif" font-style="normal" font-variant="normal" font-weight="400" font-stretch="normal" font-size="83" text-anchor="start" direction="ltr" writing-mode="lr-tb" unicode-bidi="normal" text-decoration="none" transform="matrix(1 0 0 1 549.575 311)">3</text><g><g><g><path d="M66.2947 5.12007C66.7247 5.11874 67.1545 5.14126 67.582 5.18751L61.2706 11.499 63.432 19.5664 71.5055 21.7279 77.7167 15.4467C78.37 21.758 73.7832 27.4038 67.472 28.057 67.0894 28.0966 66.7052 28.117 66.3206 28.118 65.333 28.1181 64.3497 27.987 63.3966 27.7281L62.4283 27.4636 27.4497 62.4421 27.7359 63.4251C28.9018 67.5643 27.6206 72.0067 24.4297 74.8895 22.317 76.8131 19.5627 77.8794 16.7055 77.8801 16.2755 77.8814 15.8457 77.8589 15.4182 77.8127L21.7296 71.5012 19.5725 63.4372 11.5924 61.2758 5.28521 67.5743C4.62098 61.2637 9.19832 55.6094 15.5088 54.9453 15.8978 54.9043 16.2885 54.8833 16.6796 54.8822 17.6672 54.882 18.6505 55.0131 19.6036 55.2721L20.5719 55.5366 55.5505 20.5581 55.2643 19.5751C54.0984 15.4359 55.3795 10.9935 58.5705 8.11067 60.6832 6.18711 63.4375 5.12074 66.2947 5.12007M66.2947 3.3909C59.032 3.38035 53.1358 9.25936 53.1252 16.5221 53.1235 17.7172 53.2847 18.9068 53.6043 20.0584L20.0584 53.6043C18.9572 53.3044 17.8209 53.1525 16.6796 53.153 9.37911 53.1705 3.47518 59.1029 3.49272 66.4034 3.49648 67.9668 3.77756 69.5172 4.32293 70.9825L12.1042 63.2012 18.1563 64.8439 19.799 70.9825 12.0177 78.7637C13.5178 79.3216 15.1051 79.6079 16.7055 79.6093 23.9682 79.6198 29.8644 73.7408 29.875 66.4781 29.8767 65.283 29.7155 64.0934 29.3959 62.9418L62.9418 29.3959C64.043 29.6958 65.1793 29.8476 66.3206 29.8472 73.6211 29.8297 79.525 23.8973 79.5074 16.5968 79.5037 15.0334 79.2226 13.483 78.6773 12.0177L70.9825 19.799 64.8439 18.1563 63.2012 12.0177 70.9825 4.23647C69.4825 3.67855 67.8951 3.39223 66.2947 3.3909Z" stroke="#FFFFFF" stroke-width="0.864495" stroke-linecap="butt" stroke-linejoin="miter" stroke-miterlimit="4" stroke-opacity="1" fill="#FFFFFF" fill-rule="nonzero" fill-opacity="1" transform="matrix(1 0 0 1.01204 931 749)"/></g></g></g><rect x="910.5" y="603.5" width="143" height="252" stroke="#FFA600" stroke-width="3.4375" stroke-linecap="butt" stroke-linejoin="round" stroke-miterlimit="10" stroke-dasharray="13.75 10.3125" stroke-opacity="1" fill="none"/><text fill="#FFC000" fill-opacity="1" font-family="Calibri,Calibri_MSFontService,sans-serif" font-style="normal" font-variant="normal" font-weight="700" font-stretch="normal" font-size="110" text-anchor="start" direction="ltr" writing-mode="lr-tb" unicode-bidi="normal" text-decoration="none" transform="matrix(1 0 0 1 1011.5 833)">!</text><text fill="#FFA600" fill-opacity="1" font-family="Arial,Arial_MSFontService,sans-serif" font-style="normal" font-variant="normal" font-weight="400" font-stretch="normal" font-size="46" text-anchor="start" direction="ltr" writing-mode="lr-tb" unicode-bidi="normal" text-decoration="none" transform="matrix(1 0 0 1 570.839 940)">•</text><text fill="#FFA600" fill-opacity="1" font-family="Calibri,Calibri_MSFontService,sans-serif" font-style="normal" font-variant="normal" font-weight="400" font-stretch="normal" font-size="46" text-anchor="start" direction="ltr" writing-mode="lr-tb" unicode-bidi="normal" text-decoration="none" transform="matrix(1 0 0 1 632.714 940)">Two</text><text fill="#FFA600" fill-opacity="1" font-family="Calibri,Calibri_MSFontService,sans-serif" font-style="normal" font-variant="normal" font-weight="400" font-stretch="normal" font-size="46" text-anchor="start" direction="ltr" writing-mode="lr-tb" unicode-bidi="normal" text-decoration="none" transform="matrix(1 0 0 1 722.089 940)">c</text><text fill="#FFA600" fill-opacity="1" font-family="Calibri,Calibri_MSFontService,sans-serif" font-style="normal" font-variant="normal" font-weight="400" font-stretch="normal" font-size="46" text-anchor="start" direction="ltr" writing-mode="lr-tb" unicode-bidi="normal" text-decoration="none" transform="matrix(1 0 0 1 741.568 940)">ustomers</text><text fill="#FFA600" fill-opacity="1" font-family="Calibri,Calibri_MSFontService,sans-serif" font-style="normal" font-variant="normal" font-weight="400" font-stretch="normal" font-size="46" text-anchor="start" direction="ltr" writing-mode="lr-tb" unicode-bidi="normal" text-decoration="none" transform="matrix(1 0 0 1 926.62 940)">for</text><text fill="#FFA600" fill-opacity="1" font-family="Calibri,Calibri_MSFontService,sans-serif" font-style="normal" font-variant="normal" font-weight="400" font-stretch="normal" font-size="46" text-anchor="start" direction="ltr" writing-mode="lr-tb" unicode-bidi="normal" text-decoration="none" transform="matrix(1 0 0 1 990.787 940)">the</text><text fill="#FFA600" fill-opacity="1" font-family="Calibri,Calibri_MSFontService,sans-serif" font-style="normal" font-variant="normal" font-weight="400" font-stretch="normal" font-size="46" text-anchor="start" direction="ltr" writing-mode="lr-tb" unicode-bidi="normal" text-decoration="none" transform="matrix(1 0 0 1 1063.55 940)">same </text><text fill="#FFA600" fill-opacity="1" font-family="Calibri,Calibri_MSFontService,sans-serif" font-style="normal" font-variant="normal" font-weight="400" font-stretch="normal" font-size="46" text-anchor="start" direction="ltr" writing-mode="lr-tb" unicode-bidi="normal" text-decoration="none" transform="matrix(1 0 0 1 1172.97 940)">item</text><text fill="#FFA600" fill-opacity="1" font-family="Arial,Arial_MSFontService,sans-serif" font-style="normal" font-variant="normal" font-weight="400" font-stretch="normal" font-size="46" text-anchor="start" direction="ltr" writing-mode="lr-tb" unicode-bidi="normal" text-decoration="none" transform="matrix(1 0 0 1 570.839 994)">•</text><text fill="#FFA600" fill-opacity="1" font-family="Aptos,Aptos_MSFontService,sans-serif" font-style="normal" font-variant="normal" font-weight="400" font-stretch="normal" font-size="46" text-anchor="start" direction="ltr" writing-mode="lr-tb" unicode-bidi="normal" text-decoration="none" transform="matrix(1 0 0 1 632.714 994)">One</text><text fill="#FFA600" fill-opacity="1" font-family="Aptos,Aptos_MSFontService,sans-serif" font-style="normal" font-variant="normal" font-weight="400" font-stretch="normal" font-size="46" text-anchor="start" direction="ltr" writing-mode="lr-tb" unicode-bidi="normal" text-decoration="none" transform="matrix(1 0 0 1 724.954 994)">production</text><text fill="#FFA600" fill-opacity="1" font-family="Aptos,Aptos_MSFontService,sans-serif" font-style="normal" font-variant="normal" font-weight="400" font-stretch="normal" font-size="46" text-anchor="start" direction="ltr" writing-mode="lr-tb" unicode-bidi="normal" text-decoration="none" transform="matrix(1 0 0 1 952.401 994)">line</text><text fill="#FFA600" fill-opacity="1" font-family="Aptos,Aptos_MSFontService,sans-serif" font-style="normal" font-variant="normal" font-weight="400" font-stretch="normal" font-size="46" text-anchor="start" direction="ltr" writing-mode="lr-tb" unicode-bidi="normal" text-decoration="none" transform="matrix(1 0 0 1 1033.76 994)">&amp; </text><text fill="#FFA600" fill-opacity="1" font-family="Aptos,Aptos_MSFontService,sans-serif" font-style="normal" font-variant="normal" font-weight="400" font-stretch="normal" font-size="46" text-anchor="start" direction="ltr" writing-mode="lr-tb" unicode-bidi="normal" text-decoration="none" transform="matrix(1 0 0 1 1072.14 994)">one</text><text fill="#FFA600" fill-opacity="1" font-family="Aptos,Aptos_MSFontService,sans-serif" font-style="normal" font-variant="normal" font-weight="400" font-stretch="normal" font-size="46" text-anchor="start" direction="ltr" writing-mode="lr-tb" unicode-bidi="normal" text-decoration="none" transform="matrix(1 0 0 1 632.714 1049)">storage</text><path d="M1804 514.5 2287 514.5 2287 490 2336 539 2287 588 2287 563.5 1804 563.5Z" fill="#156082" fill-rule="evenodd" fill-opacity="1"/><text fill="#FFFFFF" fill-opacity="1" font-family="Aptos,Aptos_MSFontService,sans-serif" font-style="normal" font-variant="normal" font-weight="400" font-stretch="normal" font-size="48" text-anchor="start" direction="ltr" writing-mode="lr-tb" unicode-bidi="normal" text-decoration="none" transform="matrix(1 0 0 1 1864.33 554)">Production Line #1</text><g><g><g><path d="M64.1789 12.3958 5.75384 12.3958 5.75384 57.6222 64.1789 57.6222ZM62.7205 56.1639 7.21216 56.1639 7.21216 24.0624 62.7205 24.0624ZM62.7205 22.6041 7.21216 22.6041 7.21216 13.8541 62.7205 13.8541Z" stroke="#8CBEE6" stroke-width="0.729164" stroke-linecap="butt" stroke-linejoin="miter" stroke-miterlimit="4" stroke-opacity="1" fill="#000000" fill-rule="nonzero" fill-opacity="1" transform="matrix(1 0 0 1.00001 1556 504)"/><path d="M47.3957 18.2291C47.3957 19.0345 46.7428 19.6874 45.9374 19.6874 45.1319 19.6874 44.479 19.0345 44.479 18.2291 44.479 17.4237 45.1319 16.7708 45.9374 16.7708 46.7428 16.7708 47.3957 17.4237 47.3957 18.2291Z" stroke="#8CBEE6" stroke-width="0.729164" stroke-linecap="butt" stroke-linejoin="miter" stroke-miterlimit="4" stroke-opacity="1" fill="#000000" fill-rule="nonzero" fill-opacity="1" transform="matrix(1 0 0 1.00001 1556 504)"/><path d="M52.4998 18.2291C52.4998 19.0345 51.8469 19.6874 51.0415 19.6874 50.2361 19.6874 49.5832 19.0345 49.5832 18.2291 49.5832 17.4237 50.2361 16.7708 51.0415 16.7708 51.8469 16.7708 52.4998 17.4237 52.4998 18.2291Z" stroke="#8CBEE6" stroke-width="0.729164" stroke-linecap="butt" stroke-linejoin="miter" stroke-miterlimit="4" stroke-opacity="1" fill="#000000" fill-rule="nonzero" fill-opacity="1" transform="matrix(1 0 0 1.00001 1556 504)"/><path d="M57.604 18.2291C57.604 19.0345 56.9511 19.6874 56.1457 19.6874 55.3402 19.6874 54.6873 19.0345 54.6873 18.2291 54.6873 17.4237 55.3402 16.7708 56.1457 16.7708 56.9511 16.7708 57.604 17.4237 57.604 18.2291Z" stroke="#8CBEE6" stroke-width="0.729164" stroke-linecap="butt" stroke-linejoin="miter" stroke-miterlimit="4" stroke-opacity="1" fill="#000000" fill-rule="nonzero" fill-opacity="1" transform="matrix(1 0 0 1.00001 1556 504)"/><path d="M16.6198 44.3281 17.6509 45.3591 25.0935 37.9165 17.2863 30.1094 16.2553 31.1404 23.0314 37.9165 16.6198 44.3281Z" stroke="#8CBEE6" stroke-width="0.729164" stroke-linecap="butt" stroke-linejoin="miter" stroke-miterlimit="4" stroke-opacity="1" fill="#000000" fill-rule="nonzero" fill-opacity="1" transform="matrix(1 0 0 1.00001 1556 504)"/><path d="M27.7082 43.7499 39.3749 43.7499 39.3749 45.2082 27.7082 45.2082Z" stroke="#8CBEE6" stroke-width="0.729164" stroke-linecap="butt" stroke-linejoin="miter" stroke-miterlimit="4" stroke-opacity="1" fill="#000000" fill-rule="nonzero" fill-opacity="1" transform="matrix(1 0 0 1.00001 1556 504)"/></g></g></g><path d="M1801 649.5 2285 649.5 2285 625 2334 674 2285 723 2285 698.501 1801 698.501Z" fill="#156082" fill-rule="evenodd" fill-opacity="1"/><text fill="#FFFFFF" fill-opacity="1" font-family="Aptos,Aptos_MSFontService,sans-serif" font-style="normal" font-variant="normal" font-weight="400" font-stretch="normal" font-size="48" text-anchor="start" direction="ltr" writing-mode="lr-tb" unicode-bidi="normal" text-decoration="none" transform="matrix(1 0 0 1 1862.29 689)">Production Line #2</text><rect x="2593" y="486" width="28.0002" height="29.9999" fill="#156082" fill-opacity="1"/><rect x="2593" y="517" width="7.00024" height="7.99988" fill="#7F7F7F" fill-opacity="1"/><rect x="2614" y="517" width="7.00024" height="7.99988" fill="#7F7F7F" fill-opacity="1"/><path d="M2593.5 516.5 2621.78 516.501" stroke="#7F7F7F" stroke-width="3.4375" stroke-linecap="butt" stroke-linejoin="miter" stroke-miterlimit="8" stroke-opacity="1" fill="none" fill-rule="evenodd"/><rect x="2681" y="485" width="28.0002" height="29.9999" fill="#156082" fill-opacity="1"/><rect x="2681" y="516" width="7.00024" height="7.99988" fill="#7F7F7F" fill-opacity="1"/><rect x="2702" y="516" width="7.00024" height="7.99988" fill="#7F7F7F" fill-opacity="1"/><path d="M2681.5 516.5 2709.78 516.501" stroke="#7F7F7F" stroke-width="3.4375" stroke-linecap="butt" stroke-linejoin="miter" stroke-miterlimit="8" stroke-opacity="1" fill="none" fill-rule="evenodd"/><rect x="2636" y="487" width="28.0002" height="29.9999" fill="#156082" fill-opacity="1"/><rect x="2636" y="518" width="6.00024" height="7.99988" fill="#7F7F7F" fill-opacity="1"/><rect x="2657" y="518" width="7.00024" height="7.99988" fill="#7F7F7F" fill-opacity="1"/><path d="M2636.5 517.5 2664.78 517.5" stroke="#7F7F7F" stroke-width="3.4375" stroke-linecap="butt" stroke-linejoin="miter" stroke-miterlimit="8" stroke-opacity="1" fill="none" fill-rule="evenodd"/><rect x="2549" y="486" width="28.0002" height="29.9999" fill="#156082" fill-opacity="1"/><rect x="2549" y="517" width="7.00024" height="7.99988" fill="#7F7F7F" fill-opacity="1"/><rect x="2570" y="517" width="7.00024" height="7.99988" fill="#7F7F7F" fill-opacity="1"/><path d="M2549.5 516.5 2577.78 516.501" stroke="#7F7F7F" stroke-width="3.4375" stroke-linecap="butt" stroke-linejoin="miter" stroke-miterlimit="8" stroke-opacity="1" fill="none" fill-rule="evenodd"/><path d="M2540.5 534.5 2767.38 534.5" stroke="#000000" stroke-width="6.875" stroke-linecap="butt" stroke-linejoin="miter" stroke-miterlimit="8" stroke-opacity="1" fill="none" fill-rule="evenodd"/><text fill="#000000" fill-opacity="1" font-family="Aptos,Aptos_MSFontService,sans-serif" font-style="normal" font-variant="normal" font-weight="400" font-stretch="normal" font-size="41" text-anchor="start" direction="ltr" writing-mode="lr-tb" unicode-bidi="normal" text-decoration="none" transform="matrix(1 0 0 1 2521.73 586)">Item Stock [C1]</text><text fill="#000000" fill-opacity="1" font-family="Aptos,Aptos_MSFontService,sans-serif" font-style="normal" font-variant="normal" font-weight="400" font-stretch="normal" font-size="41" text-anchor="start" direction="ltr" writing-mode="lr-tb" unicode-bidi="normal" text-decoration="none" transform="matrix(1 0 0 1 2518.41 718)">Item Stock [C2]</text><g><g><g><path d="M1607.97 490.703C1607.95 490.464 1607.78 490.265 1607.54 490.218L1601.93 489.074C1601.75 489.037 1601.57 489.091 1601.44 489.218L1600.74 489.924 1590.41 479.697C1589.12 478.234 1586.93 478.016 1585.38 479.198L1574.18 488.013C1574.05 488.007 1573.93 488 1573.81 488 1568.53 488.006 1564.26 492.284 1564.25 497.563L1564.25 508.772C1563.01 509.026 1562.13 510.113 1562.12 511.375L1562.12 514.031 1585.5 514.031 1585.5 511.375C1585.5 510.104 1584.59 509.013 1583.35 508.772L1583.38 497.563C1583.37 495.426 1582.65 493.354 1581.32 491.679L1586.36 485.65C1587.16 485.944 1588.03 485.95 1588.84 485.668L1596.98 493.681 1596.21 494.454C1596.08 494.579 1596.03 494.759 1596.06 494.932L1597.15 500.608C1597.19 500.845 1597.39 501.022 1597.63 501.037L1603.27 501.413 1603.31 501.413C1603.6 501.423 1603.84 501.193 1603.85 500.899 1603.86 500.606 1603.63 500.36 1603.34 500.351L1598.11 500.003 1597.16 495.006 1601.99 490.172 1606.93 491.178 1607.28 496.408C1607.3 496.699 1607.56 496.919 1607.85 496.903 1608.14 496.885 1608.36 496.633 1608.34 496.34 1608.34 496.339 1608.34 496.338 1608.34 496.337ZM1584.44 511.375 1584.44 512.969 1563.19 512.969 1563.19 511.375C1563.19 510.495 1563.9 509.781 1564.78 509.781L1582.84 509.781C1583.72 509.781 1584.44 510.495 1584.44 511.375ZM1582.31 497.563 1582.28 508.719 1565.31 508.719 1565.31 497.563C1565.32 493.285 1568.5 489.678 1572.75 489.138L1570.61 490.816C1568.74 492.383 1568.5 495.171 1570.06 497.043 1570.9 498.046 1572.14 498.625 1573.45 498.625 1573.52 498.625 1573.58 498.625 1573.65 498.62 1574.89 498.564 1576.04 497.992 1576.84 497.041L1580.63 492.509C1581.72 493.967 1582.31 495.74 1582.31 497.563ZM1576.03 496.359C1575.43 497.086 1574.54 497.522 1573.6 497.559 1572.66 497.611 1571.74 497.254 1571.08 496.579 1569.77 495.268 1569.76 493.142 1571.07 491.83 1571.14 491.763 1571.21 491.699 1571.28 491.638L1583.93 481.685C1583.93 481.681 1583.94 481.685 1583.94 481.69 1583.76 483.02 1584.32 484.341 1585.41 485.132ZM1584.99 482.503C1584.8 481.048 1585.82 479.714 1587.28 479.523 1588.73 479.332 1590.07 480.356 1590.26 481.81 1590.45 483.265 1589.43 484.599 1587.97 484.79 1587.74 484.82 1587.51 484.82 1587.28 484.79 1586.09 484.632 1585.15 483.695 1584.99 482.503ZM1591.35 482.122 1599.97 490.656 1597.72 492.911 1589.82 485.149C1590.76 484.462 1591.33 483.374 1591.34 482.209 1591.34 482.193 1591.34 482.156 1591.34 482.128 1591.34 482.118 1591.34 482.117 1591.35 482.122Z" fill="#000000" fill-rule="nonzero" fill-opacity="1"/><path d="M1573.09 492.328C1572.4 492.878 1572.29 493.88 1572.84 494.568 1573.39 495.256 1574.39 495.368 1575.08 494.819 1575.12 494.782 1575.17 494.742 1575.21 494.701L1575.21 494.701C1575.83 494.08 1575.84 493.071 1575.21 492.447 1574.64 491.87 1573.72 491.818 1573.09 492.328ZM1574.46 493.95C1574.25 494.151 1573.92 494.151 1573.71 493.95 1573.5 493.743 1573.5 493.406 1573.71 493.199 1573.91 492.991 1574.25 492.991 1574.46 493.199 1574.67 493.406 1574.67 493.742 1574.46 493.95 1574.46 493.95 1574.46 493.95 1574.46 493.95Z" fill="#000000" fill-rule="nonzero" fill-opacity="1"/><path d="M1587.89 480.853C1587.17 480.71 1586.47 481.177 1586.32 481.896 1586.18 482.615 1586.65 483.315 1587.37 483.458 1588.09 483.601 1588.78 483.135 1588.93 482.415 1588.96 482.244 1588.96 482.067 1588.93 481.896 1588.82 481.37 1588.41 480.958 1587.89 480.853ZM1587.62 482.422C1587.48 482.422 1587.36 482.303 1587.36 482.156 1587.36 482.01 1587.48 481.891 1587.62 481.891 1587.77 481.891 1587.89 482.01 1587.89 482.156 1587.89 482.303 1587.77 482.422 1587.62 482.422Z" fill="#000000" fill-rule="nonzero" fill-opacity="1"/></g></g></g><g><g><g><path d="M63.2623 12.2188 5.67166 12.2188 5.67166 56.7993 63.2623 56.7993ZM61.8248 55.3618 7.10917 55.3618 7.10917 23.7188 61.8248 23.7188ZM61.8248 22.2813 7.10917 22.2813 7.10917 13.6563 61.8248 13.6563Z" stroke="#8CBEE6" stroke-width="0.718751" stroke-linecap="butt" stroke-linejoin="miter" stroke-miterlimit="4" stroke-opacity="1" fill="#196B24" fill-rule="nonzero" fill-opacity="1" transform="matrix(1.01449 0 0 1 1554 637)"/><path d="M46.7188 17.9688C46.7188 18.7627 46.0752 19.4063 45.2813 19.4063 44.4874 19.4063 43.8438 18.7627 43.8438 17.9688 43.8438 17.1749 44.4874 16.5313 45.2813 16.5313 46.0752 16.5313 46.7188 17.1749 46.7188 17.9688Z" stroke="#8CBEE6" stroke-width="0.718751" stroke-linecap="butt" stroke-linejoin="miter" stroke-miterlimit="4" stroke-opacity="1" fill="#196B24" fill-rule="nonzero" fill-opacity="1" transform="matrix(1.01449 0 0 1 1554 637)"/><path d="M51.7501 17.9688C51.7501 18.7627 51.1065 19.4063 50.3126 19.4063 49.5187 19.4063 48.8751 18.7627 48.8751 17.9688 48.8751 17.1749 49.5187 16.5313 50.3126 16.5313 51.1065 16.5313 51.7501 17.1749 51.7501 17.9688Z" stroke="#8CBEE6" stroke-width="0.718751" stroke-linecap="butt" stroke-linejoin="miter" stroke-miterlimit="4" stroke-opacity="1" fill="#196B24" fill-rule="nonzero" fill-opacity="1" transform="matrix(1.01449 0 0 1 1554 637)"/><path d="M56.7813 17.9688C56.7813 18.7627 56.1377 19.4063 55.3438 19.4063 54.5499 19.4063 53.9063 18.7627 53.9063 17.9688 53.9063 17.1749 54.5499 16.5313 55.3438 16.5313 56.1377 16.5313 56.7813 17.1749 56.7813 17.9688Z" stroke="#8CBEE6" stroke-width="0.718751" stroke-linecap="butt" stroke-linejoin="miter" stroke-miterlimit="4" stroke-opacity="1" fill="#196B24" fill-rule="nonzero" fill-opacity="1" transform="matrix(1.01449 0 0 1 1554 637)"/><path d="M16.3825 43.695 17.3988 44.7113 24.7351 37.3751 17.0394 29.6794 16.0231 30.6957 22.7025 37.3751 16.3825 43.695Z" stroke="#8CBEE6" stroke-width="0.718751" stroke-linecap="butt" stroke-linejoin="miter" stroke-miterlimit="4" stroke-opacity="1" fill="#196B24" fill-rule="nonzero" fill-opacity="1" transform="matrix(1.01449 0 0 1 1554 637)"/><path d="M27.3125 43.1251 38.8126 43.1251 38.8126 44.5626 27.3125 44.5626Z" stroke="#8CBEE6" stroke-width="0.718751" stroke-linecap="butt" stroke-linejoin="miter" stroke-miterlimit="4" stroke-opacity="1" fill="#196B24" fill-rule="nonzero" fill-opacity="1" transform="matrix(1.01449 0 0 1 1554 637)"/></g></g></g><g><g><g><path d="M47.967 19.7029C47.9509 19.4639 47.7768 19.2653 47.542 19.2179L41.9256 18.0736C41.751 18.0365 41.5696 18.091 41.4443 18.2181L40.7388 18.9236 30.4071 8.69707C29.1242 7.23428 26.9271 7.01599 25.3815 8.1977L14.1753 17.0127C14.0547 17.0074 13.9347 17 13.8125 17 8.53382 17.0061 4.25614 21.2838 4.24999 26.5624L4.24999 37.7718C3.01408 38.0259 2.12659 39.1131 2.12499 40.3749L2.12499 43.0311 25.4999 43.0311 25.4999 40.3749C25.4963 39.1037 24.5934 38.0128 23.3452 37.7718L23.3749 26.5624C23.373 24.4263 22.6501 22.3535 21.3233 20.6794L26.3627 14.6497C27.1597 14.9435 28.0343 14.9501 28.8356 14.6683L36.9813 22.6811 36.2078 23.4541C36.0825 23.5792 36.0277 23.7584 36.0617 23.9322L37.1481 29.6075C37.1937 29.8448 37.3936 30.0214 37.6347 30.0373L43.2691 30.4129 43.3053 30.4129C43.5987 30.4224 43.8442 30.1923 43.8538 29.8989 43.8633 29.6055 43.6332 29.36 43.3398 29.3504L38.1144 29.0025 37.1582 24.0061 41.9925 19.1717 46.9332 20.1779 47.2811 25.408C47.3043 25.6989 47.5549 25.9185 47.8464 25.9032 48.1392 25.885 48.3619 25.633 48.3438 25.3401 48.3437 25.3392 48.3437 25.3383 48.3436 25.3374ZM24.4374 40.3749 24.4374 41.9686 3.18749 41.9686 3.18749 40.3749C3.18749 39.4947 3.90104 38.7812 4.78124 38.7812L22.8437 38.7812C23.7239 38.7812 24.4374 39.4947 24.4374 40.3749ZM22.3124 26.5624 22.2827 37.7187 5.31249 37.7187 5.31249 26.5624C5.31923 22.2849 8.50178 18.6779 12.7452 18.1384L10.6149 19.8156C8.74329 21.3832 8.49684 24.1713 10.0645 26.0429 10.9043 27.0455 12.1449 27.6248 13.4528 27.6249 13.5171 27.6249 13.5819 27.6249 13.6467 27.6201 14.8854 27.5641 16.0439 26.9914 16.8406 26.0413L20.6289 21.5087C21.721 22.9673 22.3116 24.7402 22.3124 26.5624ZM16.0267 25.3592C15.425 26.0857 14.5426 26.5219 13.6 26.5587 12.6572 26.6107 11.7379 26.2534 11.0776 25.5786 9.76573 24.2681 9.76456 22.1422 11.075 20.8304 11.142 20.7633 11.2118 20.6991 11.2843 20.6379L23.928 10.685C23.9338 10.6808 23.9375 10.685 23.9365 10.6898 23.7581 12.0199 24.3219 13.341 25.4059 14.1323ZM24.991 11.5026C24.7999 10.0481 25.824 8.71407 27.2786 8.52293 28.7331 8.33184 30.0671 9.35598 30.2582 10.8105 30.4493 12.265 29.4252 13.599 27.9707 13.7902 27.741 13.8203 27.5083 13.8203 27.2786 13.7902 26.0866 13.6324 25.1487 12.6946 24.991 11.5026ZM31.3511 11.1222 39.9701 19.6562 37.7155 21.9113 29.8227 14.1493C30.7627 13.4621 31.3258 12.3736 31.3437 11.2093 31.3437 11.1934 31.3437 11.1562 31.3437 11.1275 31.3437 11.118 31.3437 11.1169 31.3511 11.1222Z" fill="#000000" fill-rule="nonzero" fill-opacity="1" transform="matrix(1.00001 0 0 1 1560 605)"/><path d="M13.0878 21.328C12.4001 21.8774 12.288 22.8802 12.8374 23.568 13.3867 24.2557 14.3896 24.3678 15.0773 23.8185 15.1234 23.7817 15.1674 23.7423 15.2091 23.7006L15.2091 23.7006C15.8329 23.0796 15.8352 22.0705 15.2142 21.4467 14.6397 20.8696 13.7225 20.8184 13.0873 21.328ZM14.4579 22.9499C14.248 23.1508 13.9172 23.1508 13.7073 22.9499 13.4998 22.7425 13.4997 22.4062 13.7072 22.1987 13.9146 21.9911 14.251 21.9911 14.4585 22.1985 14.666 22.4059 14.666 22.7423 14.4586 22.9498 14.4585 22.9499 14.4585 22.9499 14.4585 22.9499Z" fill="#000000" fill-rule="nonzero" fill-opacity="1" transform="matrix(1.00001 0 0 1 1560 605)"/><path d="M27.8852 9.85307C27.1659 9.70968 26.4665 10.1765 26.3231 10.8959 26.1797 11.6153 26.6466 12.3147 27.3659 12.458 28.0853 12.6014 28.7847 12.1346 28.9281 11.4152 28.9622 11.2438 28.9622 11.0673 28.9281 10.8959 28.8232 10.3695 28.4117 9.95799 27.8852 9.85307ZM27.6249 11.4218C27.4783 11.4218 27.3593 11.3029 27.3593 11.1562 27.3593 11.0095 27.4783 10.8906 27.6249 10.8906 27.7716 10.8906 27.8906 11.0095 27.8906 11.1562 27.8906 11.3029 27.7716 11.4218 27.6249 11.4218Z" fill="#000000" fill-rule="nonzero" fill-opacity="1" transform="matrix(1.00001 0 0 1 1560 605)"/></g></g></g><path d="M1422.5 533.063 1520.12 533.063 1520.12 539.938 1422.5 539.938ZM1515.53 522.75 1543.03 536.5 1515.53 550.25Z" fill="#156082" fill-rule="nonzero" fill-opacity="1"/><path d="M1422.5 670.062 1520.12 670.063 1520.12 676.938 1422.5 676.937ZM1515.53 659.75 1543.03 673.5 1515.53 687.25Z" fill="#156082" fill-rule="nonzero" fill-opacity="1"/><path d="M1657.5 533.063 1755.12 533.063 1755.12 539.938 1657.5 539.938ZM1750.53 522.75 1778.03 536.5 1750.53 550.25Z" fill="#156082" fill-rule="nonzero" fill-opacity="1"/><path d="M1657.5 670.062 1755.12 670.063 1755.12 676.938 1657.5 676.937ZM1750.53 659.75 1778.03 673.5 1750.53 687.25Z" fill="#156082" fill-rule="nonzero" fill-opacity="1"/><path d="M2361.5 670.062 2459.12 670.063 2459.12 676.938 2361.5 676.937ZM2454.53 659.75 2482.03 673.5 2454.53 687.25Z" fill="#156082" fill-rule="nonzero" fill-opacity="1"/><path d="M2354.5 539.062 2452.12 539.063 2452.12 545.938 2354.5 545.937ZM2447.53 528.75 2475.03 542.5 2447.53 556.25Z" fill="#156082" fill-rule="nonzero" fill-opacity="1"/><path d="M0-3.4375 141.996-3.4375 142.182 67.8123 135.307 67.8304 135.13 0.00901149 138.567 3.4375 0 3.4375ZM152.307 62.7081 139.634 90.7208 124.828 63.7749Z" fill="#156082" fill-rule="nonzero" fill-opacity="1" transform="matrix(1 0 0 -1 1416.5 804.221)"/><text fill="#FFC000" fill-opacity="1" font-family="Aptos,Aptos_MSFontService,sans-serif" font-style="normal" font-variant="normal" font-weight="700" font-stretch="normal" font-size="110" text-anchor="start" direction="ltr" writing-mode="lr-tb" unicode-bidi="normal" text-decoration="none" transform="matrix(1 0 0 1 1592.45 791)">!</text><text fill="#000000" fill-opacity="1" font-family="Calibri,Calibri_MSFontService,sans-serif" font-style="normal" font-variant="normal" font-weight="400" font-stretch="normal" font-size="64" text-anchor="start" direction="ltr" writing-mode="lr-tb" unicode-bidi="normal" text-decoration="none" transform="matrix(1 0 0 1 3230.1 414)">Data Storage &amp; </text><text fill="#000000" fill-opacity="1" font-family="Calibri,Calibri_MSFontService,sans-serif" font-style="normal" font-variant="normal" font-weight="400" font-stretch="normal" font-size="64" text-anchor="start" direction="ltr" writing-mode="lr-tb" unicode-bidi="normal" text-decoration="none" transform="matrix(1 0 0 1 3636.48 414)">provison</text><rect x="2592" y="628" width="28.0002" height="28.9999" fill="#C00000" fill-opacity="1"/><rect x="2592" y="659" width="7.00024" height="6.99988" fill="#7F7F7F" fill-opacity="1"/><rect x="2613" y="659" width="7.00024" height="6.99988" fill="#7F7F7F" fill-opacity="1"/><path d="M2592.5 658.5 2620.78 658.5" stroke="#7F7F7F" stroke-width="3.4375" stroke-linecap="butt" stroke-linejoin="miter" stroke-miterlimit="8" stroke-opacity="1" fill="none" fill-rule="evenodd"/><rect x="2548" y="628" width="28.0002" height="28.9999" fill="#C00000" fill-opacity="1"/><rect x="2548" y="659" width="7.00024" height="6.99988" fill="#7F7F7F" fill-opacity="1"/><rect x="2569" y="659" width="7.00024" height="6.99988" fill="#7F7F7F" fill-opacity="1"/><path d="M2548.5 658.5 2576.78 658.5" stroke="#7F7F7F" stroke-width="3.4375" stroke-linecap="butt" stroke-linejoin="miter" stroke-miterlimit="8" stroke-opacity="1" fill="none" fill-rule="evenodd"/><path d="M2539.5 676.5 2766.38 676.5" stroke="#000000" stroke-width="6.875" stroke-linecap="butt" stroke-linejoin="miter" stroke-miterlimit="8" stroke-opacity="1" fill="none" fill-rule="evenodd"/><rect x="2589" y="763" width="28.9998" height="28.9999" fill="#A02B93" fill-opacity="1"/><rect x="2589" y="794" width="6.99976" height="7.99988" fill="#7F7F7F" fill-opacity="1"/><rect x="2611" y="794" width="6.99976" height="7.99988" fill="#7F7F7F" fill-opacity="1"/><path d="M2589.5 793.5 2617.78 793.5" stroke="#7F7F7F" stroke-width="3.4375" stroke-linecap="butt" stroke-linejoin="miter" stroke-miterlimit="8" stroke-opacity="1" fill="none" fill-rule="evenodd"/><rect x="2632" y="764" width="28.9998" height="28.9999" fill="#A02B93" fill-opacity="1"/><rect x="2632" y="795" width="6.99976" height="7.99988" fill="#7F7F7F" fill-opacity="1"/><rect x="2654" y="795" width="6.99976" height="7.99988" fill="#7F7F7F" fill-opacity="1"/><path d="M2632.5 794.5 2660.78 794.5" stroke="#7F7F7F" stroke-width="3.4375" stroke-linecap="butt" stroke-linejoin="miter" stroke-miterlimit="8" stroke-opacity="1" fill="none" fill-rule="evenodd"/><rect x="2546" y="763" width="27.9998" height="28.9999" fill="#A02B93" fill-opacity="1"/><rect x="2546" y="794" width="6.99976" height="7.99988" fill="#7F7F7F" fill-opacity="1"/><rect x="2567" y="794" width="6.99976" height="7.99988" fill="#7F7F7F" fill-opacity="1"/><path d="M2546.5 793.5 2574.78 793.5" stroke="#7F7F7F" stroke-width="3.4375" stroke-linecap="butt" stroke-linejoin="miter" stroke-miterlimit="8" stroke-opacity="1" fill="none" fill-rule="evenodd"/><path d="M2537.5 811.5 2764.38 811.5" stroke="#000000" stroke-width="6.875" stroke-linecap="butt" stroke-linejoin="miter" stroke-miterlimit="8" stroke-opacity="1" fill="none" fill-rule="evenodd"/><text fill="#000000" fill-opacity="1" font-family="Aptos,Aptos_MSFontService,sans-serif" font-style="normal" font-variant="normal" font-weight="400" font-stretch="normal" font-size="41" text-anchor="start" direction="ltr" writing-mode="lr-tb" unicode-bidi="normal" text-decoration="none" transform="matrix(1 0 0 1 2518.41 849)">Item Stock [C3]</text><path d="M2363.58 670.763 2492.04 768.426 2487.87 773.899 2359.42 676.236ZM2494.63 757.443 2508.2 785.033 2477.98 779.335Z" fill="#156082" fill-rule="nonzero" fill-opacity="1"/></g></g></svg>