<svg width="967" height="525" xmlns="http://www.w3.org/2000/svg" xmlns:xlink="http://www.w3.org/1999/xlink" overflow="hidden"><defs><clipPath id="clip0"><rect x="0" y="0" width="967" height="525"/></clipPath></defs><g clip-path="url(#clip0)"><rect x="0" y="0" width="967" height="524.909"/><rect x="354.5" y="2.49953" width="299" height="519.91" stroke="#FFA600" stroke-width="1.33356" stroke-miterlimit="8" fill="none"/><text fill="#FFFFFF" font-family="Manrope,Manrope_MSFontService,sans-serif" font-weight="400" font-size="21" transform="matrix(1 0 0 0.999828 379.516 27)">Operating Company (e.g.</text><text fill="#FFFFFF" font-family="Manrope,Manrope_MSFontService,sans-serif" font-weight="400" font-size="21" transform="matrix(1 0 0 0.999828 448.608 53)">Cofinity</text><text fill="#FFFFFF" font-family="Manrope,Manrope_MSFontService,sans-serif" font-weight="400" font-size="21" transform="matrix(1 0 0 0.999828 526.622 53)">-</text><text fill="#FFFFFF" font-family="Manrope,Manrope_MSFontService,sans-serif" font-weight="400" font-size="21" transform="matrix(1 0 0 0.999828 535.623 53)">X)</text><path d="M41 77.6123C41 71.7449 45.7573 66.9884 51.6257 66.9884L642.374 66.9884C648.243 66.9884 653 71.7449 653 77.6123L653 206.339C653 212.206 648.243 216.963 642.374 216.963L51.6257 216.963C45.7573 216.963 41 212.206 41 206.339Z" fill="#F5F2F4" fill-rule="evenodd" fill-opacity="0.396078"/><path d="M41 239.459C41 230.9 47.9398 223.961 56.5005 223.961L948.5 223.961C957.06 223.961 964 230.9 964 239.459L964 301.448C964 310.007 957.06 316.945 948.5 316.945L56.5005 316.945C47.9398 316.945 41 310.007 41 301.448Z" fill="#F5F2F4" fill-rule="evenodd" fill-opacity="0.396078"/><path d="M41 336.276C41 330.017 46.0743 324.944 52.3338 324.944L641.666 324.944C647.926 324.944 653 330.017 653 336.276L653 381.6C653 387.859 647.926 392.932 641.666 392.932L52.3338 392.932C46.0743 392.932 41 387.859 41 381.6Z" fill="#F5F2F4" fill-rule="evenodd" fill-opacity="0.396078"/><rect x="665.5" y="2.49953" width="299" height="519.91" stroke="#FFA600" stroke-width="1.33356" stroke-miterlimit="8" fill="none"/><text fill="#FFFFFF" font-family="Manrope,Manrope_MSFontService,sans-serif" font-weight="400" font-size="21" transform="matrix(1 0 0 0.999828 711.826 27)">Business</text><text fill="#FFFFFF" font-family="Manrope,Manrope_MSFontService,sans-serif" font-weight="400" font-size="21" transform="matrix(1 0 0 0.999828 805.509 27)">Application</text><text fill="#FFFFFF" font-family="Manrope,Manrope_MSFontService,sans-serif" font-weight="400" font-size="21" transform="matrix(1 0 0 0.999828 773.416 53)">Provider</text><path d="M41 419.261C41 409.69 48.7605 401.931 58.3335 401.931L946.667 401.931C956.24 401.931 964 409.69 964 419.261L964 488.582C964 498.154 956.24 505.913 946.667 505.913L58.3335 505.913C48.7605 505.913 41 498.154 41 488.582Z" fill="#F5F2F4" fill-rule="evenodd" fill-opacity="0.396078"/><text fill="#FFFFFF" font-family="Manrope,Manrope_MSFontService,sans-serif" font-weight="400" font-size="14" transform="matrix(1 0 0 0.999828 91.7903 92)">Register at operating company</text><text fill="#FFFFFF" font-family="Manrope,Manrope_MSFontService,sans-serif" font-weight="400" font-size="14" transform="matrix(1 0 0 0.999828 139.719 112)">(e.g.</text><text fill="#FFFFFF" font-family="Manrope,Manrope_MSFontService,sans-serif" font-weight="400" font-size="14" transform="matrix(1 0 0 0.999828 172.057 112)">Cofinity</text><text fill="#FFFFFF" font-family="Manrope,Manrope_MSFontService,sans-serif" font-weight="400" font-size="14" transform="matrix(1 0 0 0.999828 223.4 112)">-</text><text fill="#FFFFFF" font-family="Manrope,Manrope_MSFontService,sans-serif" font-weight="400" font-size="14" transform="matrix(1 0 0 0.999828 229.234 112)">X)</text><rect x="42.5" y="2.49953" width="300" height="519.91" stroke="#B3CB2D" stroke-width="1.33356" stroke-miterlimit="8" fill="none"/><text fill="#FFFFFF" font-family="Manrope,Manrope_MSFontService,sans-serif" font-weight="400" font-size="21" transform="matrix(1 0 0 0.999828 127.887 27)">My Company</text><text fill="#FFFFFF" font-family="Manrope,Manrope_MSFontService,sans-serif" font-weight="400" font-size="14" transform="matrix(1 0 0 0.999828 78.0058 176)">Request BPNL (&amp; BPNS if required),</text><text fill="#FFFFFF" font-family="Manrope,Manrope_MSFontService,sans-serif" font-weight="400" font-size="14" transform="matrix(1 0 0 0.999828 120.846 193)">where needed (1 or 2)</text><text fill="#FFFFFF" font-family="Manrope,Manrope_MSFontService,sans-serif" font-weight="400" font-size="14" transform="matrix(1 0 0 0.999828 438.855 176)">Create &amp; send BPNL</text><text fill="#FFFFFF" font-family="Manrope,Manrope_MSFontService,sans-serif" font-weight="400" font-size="14" transform="matrix(1 0 0 0.999828 391.514 193)">(&amp; BPNS if required) and SSI Wallet</text><text fill="#FFFFFF" font-family="Manrope,Manrope_MSFontService,sans-serif" font-weight="400" font-size="14" transform="matrix(1 0 0 0.999828 98.632 291)">Develop own EDC (CUSTOM)</text><text fill="#FFFFFF" font-family="Manrope,Manrope_MSFontService,sans-serif" font-weight="400" font-size="14" transform="matrix(1 0 0 0.999828 733.663 291)">Use EDC (COTS) as SaaS</text><path d="M691 286.951C691 278.668 697.716 271.953 706 271.953 714.284 271.953 721 278.668 721 286.951 721 295.233 714.284 301.948 706 301.948 697.716 301.948 691 295.233 691 286.951Z" fill="#FFA600" fill-rule="evenodd"/><text fill="#FFFFFF" font-family="Manrope,Manrope_MSFontService,sans-serif" font-weight="400" font-size="21" transform="matrix(1 0 0 0.999828 698.621 294)">C</text><text fill="#FFFFFF" font-family="Manrope,Manrope_MSFontService,sans-serif" font-weight="400" font-size="14" transform="matrix(1 0 0 0.999828 405.434 98)">Onboard Company to Network</text><text fill="#FFFFFF" font-family="Manrope,Manrope_MSFontService,sans-serif" font-weight="400" font-size="14" transform="matrix(1 0 0 0.999828 53.5181 352)">Sign DCM Data Exchange Governance with</text><text fill="#FFFFFF" font-family="Manrope,Manrope_MSFontService,sans-serif" font-weight="400" font-size="14" transform="matrix(1 0 0 0.999828 126.277 369)">Operating Company</text><text fill="#FFFFFF" font-family="Manrope,Manrope_MSFontService,sans-serif" font-weight="400" font-size="14" transform="matrix(1 0 0 0.999828 369.26 361)">Receive DCM Data Exchange Governance</text><text fill="#FFFFFF" font-family="Manrope,Manrope_MSFontService,sans-serif" font-weight="400" font-size="14" transform="matrix(1 0 0 0.999828 721.911 469)">Get DCM application (COTS)</text><path d="M7.00005 92.984C7.00005 84.7011 13.7158 77.9866 22 77.9866 30.2843 77.9866 37 84.7011 37 92.984 37 101.267 30.2843 107.981 22 107.981 13.7158 107.981 7.00005 101.267 7.00005 92.984Z" fill="#B3CB2D" fill-rule="evenodd"/><text fill="#FFFFFF" font-family="Manrope,Manrope_MSFontService,sans-serif" font-weight="400" font-size="21" transform="matrix(1 0 0 0.999828 17.7993 100)">1</text><path d="M7.00005 249.957C7.00005 241.674 13.7158 234.959 22 234.959 30.2843 234.959 37 241.674 37 249.957 37 258.24 30.2843 264.954 22 264.954 13.7158 264.954 7.00005 258.24 7.00005 249.957Z" fill="#B3CB2D" fill-rule="evenodd"/><text fill="#FFFFFF" font-family="Manrope,Manrope_MSFontService,sans-serif" font-weight="400" font-size="21" transform="matrix(1 0 0 0.999828 15.8823 257)">2</text><path d="M7.00005 352.939C7.00005 344.656 13.7158 337.942 22 337.942 30.2843 337.942 37 344.656 37 352.939 37 361.222 30.2843 367.937 22 367.937 13.7158 367.937 7.00005 361.222 7.00005 352.939Z" fill="#B3CB2D" fill-rule="evenodd"/><text fill="#FFFFFF" font-family="Manrope,Manrope_MSFontService,sans-serif" font-weight="400" font-size="21" transform="matrix(1 0 0 0.999828 16.049 360)">3</text><path d="M7.00005 432.925C7.00005 424.643 13.7158 417.928 22 417.928 30.2843 417.928 37 424.643 37 432.925 37 441.208 30.2843 447.923 22 447.923 13.7158 447.923 7.00005 441.208 7.00005 432.925Z" fill="#B3CB2D" fill-rule="evenodd"/><text fill="#FFFFFF" font-family="Manrope,Manrope_MSFontService,sans-serif" font-weight="400" font-size="21" transform="matrix(1 0 0 0.999828 15.7156 440)">4</text><path d="M1-2.97873e-06 1.00009 28.5788-0.999915 28.5788-1 2.97873e-06ZM4.00008 27.2454 0.000104987 35.2455-3.99992 27.2455Z" fill="#BF7100" transform="matrix(-1.00017 0 0 1 191 122.979)"/><path d="M0.00143831-0.999999 45.2327-0.934942 45.2298 1.06506-0.00143831 0.999999ZM43.9037-3.93686 51.8979 0.0746457 43.8922 4.06314Z" fill="#BF7100" transform="matrix(1.00017 0 0 -1 325 94.0585)"/><path d="M1-1.88861e-05 1.00082 43.3639-0.999181 43.3639-1 1.88861e-05ZM4.00079 42.0305 0.000944882 50.0305-3.99921 42.0306Z" fill="#BF7100" transform="matrix(-1.00017 0 0 1 503.001 107.981)"/><path d="M54 286.951C54 278.668 60.7157 271.953 69 271.953 77.2843 271.953 84 278.668 84 286.951 84 295.233 77.2843 301.948 69 301.948 60.7157 301.948 54 295.233 54 286.951Z" fill="#FFA600" fill-rule="evenodd"/><text fill="#FFFFFF" font-family="Manrope,Manrope_MSFontService,sans-serif" font-weight="400" font-size="21" transform="matrix(1 0 0 0.999828 62.1104 294)">A</text><path d="M6.66811-0.99041 45.2327-0.934942 45.2298 1.06506 6.66523 1.00959ZM7.99424 4.0115 0 0 8.00574-3.98849ZM43.9037-3.93686 51.8979 0.0746457 43.8922 4.06314Z" fill="#BF7100" transform="matrix(1.00017 0 0 -1 325 180.044)"/><text fill="#FFFFFF" font-family="Manrope,Manrope_MSFontService,sans-serif" font-weight="400" font-size="14" transform="matrix(1 0 0 0.999828 451.442 291)">Get EDC (FOSS)</text><text fill="#FFFFFF" font-family="Manrope,Manrope_MSFontService,sans-serif" font-weight="700" font-size="14" transform="matrix(1 0 0 0.999828 59.2921 242)">Deploy a Catena</text><text fill="#FFFFFF" font-family="Manrope,Manrope_MSFontService,sans-serif" font-weight="700" font-size="14" transform="matrix(1 0 0 0.999828 170.144 242)">-</text><text fill="#FFFFFF" font-family="Manrope,Manrope_MSFontService,sans-serif" font-weight="700" font-size="14" transform="matrix(1 0 0 0.999828 175.979 242)">X certified Data space</text><text fill="#FFFFFF" font-family="Manrope,Manrope_MSFontService,sans-serif" font-weight="700" font-size="14" transform="matrix(1 0 0 0.999828 156.475 259)">connector</text><text fill="#FFFFFF" font-family="Manrope,Manrope_MSFontService,sans-serif" font-weight="700" font-size="14" transform="matrix(1 0 0 0.999828 66.2933 420)">Deploy a Catena</text><text fill="#FFFFFF" font-family="Manrope,Manrope_MSFontService,sans-serif" font-weight="700" font-size="14" transform="matrix(1 0 0 0.999828 177.146 420)">-</text><text fill="#FFFFFF" font-family="Manrope,Manrope_MSFontService,sans-serif" font-weight="700" font-size="14" transform="matrix(1 0 0 0.999828 182.98 420)">X certified business</text><text fill="#FFFFFF" font-family="Manrope,Manrope_MSFontService,sans-serif" font-weight="700" font-size="14" transform="matrix(1 0 0 0.999828 153.642 437)">application</text><text fill="#FFFFFF" font-family="Manrope,Manrope_MSFontService,sans-serif" font-weight="400" font-size="14" transform="matrix(1 0 0 0.999828 112.195 469)">Develop own application</text><text fill="#FFFFFF" font-family="Manrope,Manrope_MSFontService,sans-serif" font-weight="400" font-size="14" transform="matrix(1 0 0 0.999828 155.869 486)">(CUSTOM)</text><path d="M679 463.92C679 455.637 685.716 448.923 694 448.923 702.284 448.923 709 455.637 709 463.92 709 472.203 702.284 478.917 694 478.917 685.716 478.917 679 472.203 679 463.92Z" fill="#FFA600" fill-rule="evenodd"/><text fill="#FFFFFF" font-family="Manrope,Manrope_MSFontService,sans-serif" font-weight="400" font-size="21" transform="matrix(1 0 0 0.999828 686.721 471)">C</text><path d="M72 467.919C72 459.636 78.7158 452.922 87 452.922 95.2843 452.922 102 459.636 102 467.919 102 476.202 95.2843 482.917 87 482.917 78.7158 482.917 72 476.202 72 467.919Z" fill="#FFA600" fill-rule="evenodd"/><text fill="#FFFFFF" font-family="Manrope,Manrope_MSFontService,sans-serif" font-weight="400" font-size="21" transform="matrix(1 0 0 0.999828 79.9802 475)">A</text><path d="M369 463.92C369 455.637 375.716 448.923 384 448.923 392.284 448.923 399 455.637 399 463.92 399 472.203 392.284 478.917 384 478.917 375.716 478.917 369 472.203 369 463.92Z" fill="#FFA600" fill-rule="evenodd"/><text fill="#FFFFFF" font-family="Manrope,Manrope_MSFontService,sans-serif" font-weight="400" font-size="21" transform="matrix(1 0 0 0.999828 377.884 471)">B</text><text fill="#FFFFFF" font-family="Manrope,Manrope_MSFontService,sans-serif" font-weight="400" font-size="14" transform="matrix(1 0 0 0.999828 411.934 469)">Get DCM application (FOSS)</text><path d="M411 286.951C411 278.668 417.716 271.953 426 271.953 434.284 271.953 441 278.668 441 286.951 441 295.233 434.284 301.948 426 301.948 417.716 301.948 411 295.233 411 286.951Z" fill="#FFA600" fill-rule="evenodd"/><text fill="#FFFFFF" font-family="Manrope,Manrope_MSFontService,sans-serif" font-weight="400" font-size="21" transform="matrix(1 0 0 0.999828 419.889 294)">B</text></g></svg>