<?xml version="1.0" encoding="UTF-8"?>
<?xml-stylesheet href="https://cdnjs.cloudflare.com/ajax/libs/font-awesome/6.6.0/css/all.min.css" type="text/css"?>
<svg aria-roledescription="xychart" role="graphics-document document" viewBox="0 0 1200 420" style="max-width: 100%;" xmlns="http://www.w3.org/2000/svg" width="100%" id="graph-div" height="100%" xmlns:xlink="http://www.w3.org/1999/xlink"><style>#graph-div{font-family:"trebuchet ms",verdana,arial,sans-serif;font-size:16px;fill:#ccc;}#graph-div .error-icon{fill:#a44141;}#graph-div .error-text{fill:#ddd;stroke:#ddd;}#graph-div .edge-thickness-normal{stroke-width:1px;}#graph-div .edge-thickness-thick{stroke-width:3.5px;}#graph-div .edge-pattern-solid{stroke-dasharray:0;}#graph-div .edge-thickness-invisible{stroke-width:0;fill:none;}#graph-div .edge-pattern-dashed{stroke-dasharray:3;}#graph-div .edge-pattern-dotted{stroke-dasharray:2;}#graph-div .marker{fill:lightgrey;stroke:lightgrey;}#graph-div .marker.cross{stroke:lightgrey;}#graph-div svg{font-family:"trebuchet ms",verdana,arial,sans-serif;font-size:16px;}#graph-div p{margin:0;}#graph-div :root{--mermaid-font-family:"trebuchet ms",verdana,arial,sans-serif;}</style><g></g><g class="main"><rect fill="#000000" class="background" height="420" width="1200"></rect><g class="chart-title"><text transform="translate(600, 21.600000381469727) rotate(0)" text-anchor="middle" dominant-baseline="middle" font-size="20" fill="#F4F2F3" y="0" x="0">Example 4b</text></g><g class="plot"><g class="bar-plot-0"><rect stroke-width="0" stroke="#FFA600" fill="#FFA600" height="8" width="70.3" y="379" x="77.27539024353027"></rect><rect stroke-width="0" stroke="#FFA600" fill="#FFA600" height="8" width="70.3" y="379" x="194.00590243869357"></rect><rect stroke-width="0" stroke="#FFA600" fill="#FFA600" height="8" width="70.3" y="379" x="310.7364146338569"></rect><rect stroke-width="0" stroke="#FFA600" fill="#FFA600" height="8" width="70.3" y="379" x="427.46692682902017"></rect><rect stroke-width="0" stroke="#FFA600" fill="#FFA600" height="8" width="70.3" y="379" x="544.1974390241835"></rect><rect stroke-width="0" stroke="#FFA600" fill="#FFA600" height="8" width="70.3" y="379" x="660.9279512193468"></rect><rect stroke-width="0" stroke="#FFA600" fill="#FFA600" height="8" width="70.3" y="379" x="777.65846341451"></rect><rect stroke-width="0" stroke="#FFA600" fill="#FFA600" height="8" width="70.3" y="379" x="894.3889756096734"></rect><rect stroke-width="0" stroke="#FFA600" fill="#FFA600" height="8" width="70.3" y="379" x="1011.1194878048367"></rect><rect stroke-width="0" stroke="#FFA600" fill="#FFA600" height="8" width="70.3" y="379" x="1127.85"></rect></g><g class="bar-plot-1"><rect stroke-width="0" stroke="#d91e18" fill="#d91e18" height="8" width="70.3" y="379" x="77.27539024353027"></rect><rect stroke-width="0" stroke="#d91e18" fill="#d91e18" height="8" width="70.3" y="379" x="194.00590243869357"></rect><rect stroke-width="0" stroke="#d91e18" fill="#d91e18" height="8" width="70.3" y="379" x="310.7364146338569"></rect><rect stroke-width="0" stroke="#d91e18" fill="#d91e18" height="8" width="70.3" y="379" x="427.46692682902017"></rect><rect stroke-width="0" stroke="#d91e18" fill="#d91e18" height="8" width="70.3" y="379" x="544.1974390241835"></rect><rect stroke-width="0" stroke="#d91e18" fill="#d91e18" height="8" width="70.3" y="379" x="660.9279512193468"></rect><rect stroke-width="0" stroke="#d91e18" fill="#d91e18" height="8" width="70.3" y="379" x="777.65846341451"></rect><rect stroke-width="0" stroke="#d91e18" fill="#d91e18" height="8" width="70.3" y="379" x="894.3889756096734"></rect><rect stroke-width="0" stroke="#d91e18" fill="#d91e18" height="8" width="70.3" y="379" x="1011.1194878048367"></rect><rect stroke-width="0" stroke="#d91e18" fill="#d91e18" height="8" width="70.3" y="379" x="1127.85"></rect></g><g class="bar-plot-2"><rect stroke-width="0" stroke="#809500" fill="#809500" height="273.2199993827126" width="70.3" y="113.78000061728739" x="77.27539024353027"></rect><rect stroke-width="0" stroke="#809500" fill="#809500" height="272.47499938444656" width="70.3" y="114.52500061555344" x="194.00590243869357"></rect><rect stroke-width="0" stroke="#809500" fill="#809500" height="272.47499938444656" width="70.3" y="114.52500061555344" x="310.7364146338569"></rect><rect stroke-width="0" stroke="#809500" fill="#809500" height="272.47499938444656" width="70.3" y="114.52500061555344" x="427.46692682902017"></rect><rect stroke-width="0" stroke="#809500" fill="#809500" height="271.72999938618057" width="70.3" y="115.27000061381946" x="544.1974390241835"></rect><rect stroke-width="0" stroke="#809500" fill="#809500" height="295.56999933069403" width="70.3" y="91.43000066930595" x="660.9279512193468"></rect><rect stroke-width="0" stroke="#809500" fill="#809500" height="295.56999933069403" width="70.3" y="91.43000066930595" x="777.65846341451"></rect><rect stroke-width="0" stroke="#809500" fill="#809500" height="295.56999933069403" width="70.3" y="91.43000066930595" x="894.3889756096734"></rect><rect stroke-width="0" stroke="#809500" fill="#809500" height="271.72999938618057" width="70.3" y="115.27000061381946" x="1011.1194878048367"></rect><rect stroke-width="0" stroke="#809500" fill="#809500" height="271.72999938618057" width="70.3" y="115.27000061381946" x="1127.85"></rect></g><g class="line-plot-3"><path stroke-width="2" stroke="#ffffff" fill="none" d="M112.425,113.035L229.156,113.035L345.886,113.035L462.617,113.035L579.347,113.035L696.078,90.685L812.808,90.685L929.539,90.685L1046.269,113.035L1163,113.035"></path></g><g class="line-plot-4"><path stroke-width="2" stroke="#00ffff" fill="none" d="M112.425,110.8L229.156,110.8L345.886,110.8L462.617,110.8L579.347,110.8L696.078,88.45L812.808,88.45L929.539,88.45L1046.269,110.8L1163,110.8"></path></g></g><g class="bottom-axis"><g class="axis-line"><path stroke-width="2" stroke="#F4F2F3" fill="none" d="M 75.42539024353027,388 L 1200,388"></path></g><g class="label"><text transform="translate(112.42539024353027, 399) rotate(0)" text-anchor="middle" dominant-baseline="text-before-edge" font-size="14" fill="#F4F2F3" y="0" x="0">Week14</text><text transform="translate(229.15590243869357, 399) rotate(0)" text-anchor="middle" dominant-baseline="text-before-edge" font-size="14" fill="#F4F2F3" y="0" x="0">Week15</text><text transform="translate(345.8864146338569, 399) rotate(0)" text-anchor="middle" dominant-baseline="text-before-edge" font-size="14" fill="#F4F2F3" y="0" x="0">Week16</text><text transform="translate(462.61692682902014, 399) rotate(0)" text-anchor="middle" dominant-baseline="text-before-edge" font-size="14" fill="#F4F2F3" y="0" x="0">Week17</text><text transform="translate(579.3474390241835, 399) rotate(0)" text-anchor="middle" dominant-baseline="text-before-edge" font-size="14" fill="#F4F2F3" y="0" x="0">Week18</text><text transform="translate(696.0779512193468, 399) rotate(0)" text-anchor="middle" dominant-baseline="text-before-edge" font-size="14" fill="#F4F2F3" y="0" x="0">Week19</text><text transform="translate(812.80846341451, 399) rotate(0)" text-anchor="middle" dominant-baseline="text-before-edge" font-size="14" fill="#F4F2F3" y="0" x="0">Week20</text><text transform="translate(929.5389756096733, 399) rotate(0)" text-anchor="middle" dominant-baseline="text-before-edge" font-size="14" fill="#F4F2F3" y="0" x="0">Week21</text><text transform="translate(1046.2694878048367, 399) rotate(0)" text-anchor="middle" dominant-baseline="text-before-edge" font-size="14" fill="#F4F2F3" y="0" x="0">Week22</text><text transform="translate(1163, 399) rotate(0)" text-anchor="middle" dominant-baseline="text-before-edge" font-size="14" fill="#F4F2F3" y="0" x="0">Week23</text></g><g class="ticks"><path stroke-width="2" stroke="#F4F2F3" fill="none" d="M 112.42539024353027,389 L 112.42539024353027,394"></path><path stroke-width="2" stroke="#F4F2F3" fill="none" d="M 229.15590243869357,389 L 229.15590243869357,394"></path><path stroke-width="2" stroke="#F4F2F3" fill="none" d="M 345.8864146338569,389 L 345.8864146338569,394"></path><path stroke-width="2" stroke="#F4F2F3" fill="none" d="M 462.61692682902014,389 L 462.61692682902014,394"></path><path stroke-width="2" stroke="#F4F2F3" fill="none" d="M 579.3474390241835,389 L 579.3474390241835,394"></path><path stroke-width="2" stroke="#F4F2F3" fill="none" d="M 696.0779512193468,389 L 696.0779512193468,394"></path><path stroke-width="2" stroke="#F4F2F3" fill="none" d="M 812.80846341451,389 L 812.80846341451,394"></path><path stroke-width="2" stroke="#F4F2F3" fill="none" d="M 929.5389756096733,389 L 929.5389756096733,394"></path><path stroke-width="2" stroke="#F4F2F3" fill="none" d="M 1046.2694878048367,389 L 1046.2694878048367,394"></path><path stroke-width="2" stroke="#F4F2F3" fill="none" d="M 1163,389 L 1163,394"></path></g></g><g class="left-axis"><g class="axisl-line"><path stroke-width="2" stroke="#F4F2F3" fill="none" d="M 74.42539024353027,43.20000076293945 L 74.42539024353027,387"></path></g><g class="label"><text transform="translate(63.42539024353027, 51.20000076293945) rotate(0)" text-anchor="end" dominant-baseline="middle" font-size="14" fill="#F4F2F3" y="0" x="0">2200</text><text transform="translate(63.42539024353027, 81.00000069358134) rotate(0)" text-anchor="end" dominant-baseline="middle" font-size="14" fill="#F4F2F3" y="0" x="0">2000</text><text transform="translate(63.42539024353027, 110.80000062422317) rotate(0)" text-anchor="end" dominant-baseline="middle" font-size="14" fill="#F4F2F3" y="0" x="0">1800</text><text transform="translate(63.42539024353027, 140.60000055486506) rotate(0)" text-anchor="end" dominant-baseline="middle" font-size="14" fill="#F4F2F3" y="0" x="0">1600</text><text transform="translate(63.42539024353027, 170.40000048550692) rotate(0)" text-anchor="end" dominant-baseline="middle" font-size="14" fill="#F4F2F3" y="0" x="0">1400</text><text transform="translate(63.42539024353027, 200.2000004161488) rotate(0)" text-anchor="end" dominant-baseline="middle" font-size="14" fill="#F4F2F3" y="0" x="0">1200</text><text transform="translate(63.42539024353027, 230.00000034679064) rotate(0)" text-anchor="end" dominant-baseline="middle" font-size="14" fill="#F4F2F3" y="0" x="0">1000</text><text transform="translate(63.42539024353027, 259.80000027743256) rotate(0)" text-anchor="end" dominant-baseline="middle" font-size="14" fill="#F4F2F3" y="0" x="0">800</text><text transform="translate(63.42539024353027, 289.6000002080744) rotate(0)" text-anchor="end" dominant-baseline="middle" font-size="14" fill="#F4F2F3" y="0" x="0">600</text><text transform="translate(63.42539024353027, 319.4000001387162) rotate(0)" text-anchor="end" dominant-baseline="middle" font-size="14" fill="#F4F2F3" y="0" x="0">400</text><text transform="translate(63.42539024353027, 349.20000006935817) rotate(0)" text-anchor="end" dominant-baseline="middle" font-size="14" fill="#F4F2F3" y="0" x="0">200</text><text transform="translate(63.42539024353027, 379) rotate(0)" text-anchor="end" dominant-baseline="middle" font-size="14" fill="#F4F2F3" y="0" x="0">0</text></g><g class="ticks"><path stroke-width="2" stroke="#F4F2F3" fill="none" d="M 73.42539024353027,51.20000076293945 L 68.42539024353027,51.20000076293945"></path><path stroke-width="2" stroke="#F4F2F3" fill="none" d="M 73.42539024353027,81.00000069358134 L 68.42539024353027,81.00000069358134"></path><path stroke-width="2" stroke="#F4F2F3" fill="none" d="M 73.42539024353027,110.80000062422317 L 68.42539024353027,110.80000062422317"></path><path stroke-width="2" stroke="#F4F2F3" fill="none" d="M 73.42539024353027,140.60000055486506 L 68.42539024353027,140.60000055486506"></path><path stroke-width="2" stroke="#F4F2F3" fill="none" d="M 73.42539024353027,170.40000048550692 L 68.42539024353027,170.40000048550692"></path><path stroke-width="2" stroke="#F4F2F3" fill="none" d="M 73.42539024353027,200.2000004161488 L 68.42539024353027,200.2000004161488"></path><path stroke-width="2" stroke="#F4F2F3" fill="none" d="M 73.42539024353027,230.00000034679064 L 68.42539024353027,230.00000034679064"></path><path stroke-width="2" stroke="#F4F2F3" fill="none" d="M 73.42539024353027,259.80000027743256 L 68.42539024353027,259.80000027743256"></path><path stroke-width="2" stroke="#F4F2F3" fill="none" d="M 73.42539024353027,289.6000002080744 L 68.42539024353027,289.6000002080744"></path><path stroke-width="2" stroke="#F4F2F3" fill="none" d="M 73.42539024353027,319.4000001387162 L 68.42539024353027,319.4000001387162"></path><path stroke-width="2" stroke="#F4F2F3" fill="none" d="M 73.42539024353027,349.20000006935817 L 68.42539024353027,349.20000006935817"></path><path stroke-width="2" stroke="#F4F2F3" fill="none" d="M 73.42539024353027,379 L 68.42539024353027,379"></path></g><g class="title"><text transform="translate(5, 215.10000038146973) rotate(270)" text-anchor="middle" dominant-baseline="text-before-edge" font-size="16" fill="#F4F2F3" y="0" x="0">.</text></g></g></g><g class="mermaid-tmp-group"></g></svg>