<svg width="1280" height="586" xmlns="http://www.w3.org/2000/svg" xmlns:xlink="http://www.w3.org/1999/xlink" overflow="hidden"><defs><clipPath id="clip0"><rect x="0" y="0" width="1280" height="586"/></clipPath></defs><g clip-path="url(#clip0)"><rect x="0" y="0" width="1280" height="586.167" fill="#FFFFFF"/><rect x="0" y="0" width="1280" height="586.167"/><g><rect x="56" y="59.0168" width="1209" height="428.122"/></g><g><path d="M55.5001 415.618 1265.5 415.618M55.5001 344.598 1265.5 344.598M55.5001 272.578 1265.5 272.578M55.5001 201.557 1265.5 201.557M55.5001 130.537 1265.5 130.537M55.5001 58.5167 1265.5 58.5167" stroke="#D9D9D9" stroke-linejoin="round" stroke-miterlimit="10" fill="none"/></g><g><rect x="719" y="201.057" width="34" height="286.081" fill="#D91E18"/></g><g><rect x="871" y="201.057" width="33" height="286.081" fill="#FFC000"/></g><g><rect x="1022" y="201.057" width="33" height="286.081" fill="#FFC000"/></g><g><rect x="1173" y="130.037" width="34" height="357.102" fill="#D91E18"/></g><g><path d="M115 273.078 148 273.078 148 487.139 115 487.139ZM266 273.078 299 273.078 299 487.139 266 487.139ZM417 273.078 451 273.078 451 487.139 417 487.139ZM568 273.078 602 273.078 602 487.139 568 487.139Z" fill="#B3CB2D"/></g><g><path d="M55.5001 486.638 1265.5 486.639" stroke="#D9D9D9" stroke-linejoin="round" stroke-miterlimit="10" fill="none" fill-rule="evenodd"/></g><g><path d="M131.5 272.578 282.5 272.578 433.5 201.557 584.5 201.557 736.5 272.578 887.5 272.578 1038.5 272.578 1189.5 272.578" stroke="#046B99" stroke-width="3" stroke-linecap="round" stroke-linejoin="round" stroke-miterlimit="10" fill="none"/></g><g><path d="M131.5 272.578 282.5 201.557 433.5 201.557 584.5 130.537 736.5 272.578 887.5 201.557 1038.5 130.537 1189.5 201.557" stroke="#219DD4" stroke-width="3" stroke-linecap="round" stroke-linejoin="round" stroke-miterlimit="10" stroke-dasharray="0 6" fill="none"/></g><g><path d="M131.5 130.537 282.5 130.537 433.5 130.537 584.5 130.537 736.5 130.537 887.5 130.537 1038.5 130.537 1189.5 130.537" stroke="#219DD4" stroke-width="3" stroke-linecap="round" stroke-linejoin="round" stroke-miterlimit="10" stroke-dasharray="9 12" fill="none"/></g><g><text fill="#F4F2F3" font-family="Calibri,Calibri_MSFontService,sans-serif" font-weight="400" font-size="16" transform="matrix(1 0 0 1.00028 32.9269 492)">0</text></g><g><text fill="#F4F2F3" font-family="Calibri,Calibri_MSFontService,sans-serif" font-weight="400" font-size="16" transform="matrix(1 0 0 1.00028 8.66677 420)">1000</text></g><g><text fill="#F4F2F3" font-family="Calibri,Calibri_MSFontService,sans-serif" font-weight="400" font-size="16" transform="matrix(1 0 0 1.00028 8.66677 349)">2000</text></g><g><text fill="#F4F2F3" font-family="Calibri,Calibri_MSFontService,sans-serif" font-weight="400" font-size="16" transform="matrix(1 0 0 1.00028 8.66677 277)">3000</text></g><g><text fill="#F4F2F3" font-family="Calibri,Calibri_MSFontService,sans-serif" font-weight="400" font-size="16" transform="matrix(1 0 0 1.00028 8.66677 206)">4000</text></g><g><text fill="#F4F2F3" font-family="Calibri,Calibri_MSFontService,sans-serif" font-weight="400" font-size="16" transform="matrix(1 0 0 1.00028 8.66677 135)">5000</text></g><g><text fill="#F4F2F3" font-family="Calibri,Calibri_MSFontService,sans-serif" font-weight="400" font-size="16" transform="matrix(1 0 0 1.00028 8.66677 63)">6000</text></g><g><text fill="#F4F2F3" font-family="Calibri,Calibri_MSFontService,sans-serif" font-weight="400" font-size="16" transform="matrix(1 0 0 1.00028 106.9 512)">Week 1</text></g><g><text fill="#F4F2F3" font-family="Calibri,Calibri_MSFontService,sans-serif" font-weight="400" font-size="16" transform="matrix(1 0 0 1.00028 258.089 512)">Week 2</text></g><g><text fill="#F4F2F3" font-family="Calibri,Calibri_MSFontService,sans-serif" font-weight="400" font-size="16" transform="matrix(1 0 0 1.00028 409.278 512)">Week 3</text></g><g><text fill="#F4F2F3" font-family="Calibri,Calibri_MSFontService,sans-serif" font-weight="400" font-size="16" transform="matrix(1 0 0 1.00028 560.468 512)">Week 4</text></g><g><text fill="#F4F2F3" font-family="Calibri,Calibri_MSFontService,sans-serif" font-weight="400" font-size="16" transform="matrix(1 0 0 1.00028 711.657 512)">Week 5</text></g><g><text fill="#F4F2F3" font-family="Calibri,Calibri_MSFontService,sans-serif" font-weight="400" font-size="16" transform="matrix(1 0 0 1.00028 862.846 512)">Week 6</text></g><g><text fill="#F4F2F3" font-family="Calibri,Calibri_MSFontService,sans-serif" font-weight="400" font-size="16" transform="matrix(1 0 0 1.00028 1014.04 512)">Week 7</text></g><g><text fill="#F4F2F3" font-family="Calibri,Calibri_MSFontService,sans-serif" font-weight="400" font-size="16" transform="matrix(1 0 0 1.00028 1165.23 512)">Week 8</text></g><g><text fill="#F4F2F3" font-family="Calibri,Calibri_MSFontService,sans-serif" font-weight="400" font-size="25" transform="matrix(1 0 0 1.00028 204.607 34)">Example: Demand and Capacity Data Matching and Comparison within Capacity Group</text></g><g><rect x="93" y="535.152" width="33" height="8.00226" fill="#D91E18"/></g><g><text fill="#F4F2F3" font-family="Calibri,Calibri_MSFontService,sans-serif" font-weight="400" font-size="16" transform="matrix(1 0 0 1.00028 129.978 544)">Demand over actual capacity</text></g><g><rect x="461" y="535.152" width="34" height="8.00226" fill="#B3CB2D"/></g><g><text fill="#F4F2F3" font-family="Calibri,Calibri_MSFontService,sans-serif" font-weight="400" font-size="16" transform="matrix(1 0 0 1.00028 498.326 544)">Demand within actual capacity</text></g><g><rect x="829" y="535.152" width="34" height="8.00226" fill="#FFA600"/></g><g><text fill="#F4F2F3" font-family="Calibri,Calibri_MSFontService,sans-serif" font-weight="400" font-size="16" transform="matrix(1 0 0 1.00028 866.674 544)">Demand over actual but within maximum capacity</text></g><g><path d="M92.5001 566.661 126.5 566.661" stroke="#046B99" stroke-width="3" stroke-linecap="round" stroke-linejoin="round" stroke-miterlimit="10" fill="none" fill-rule="evenodd"/></g><g><text fill="#F4F2F3" font-family="Calibri,Calibri_MSFontService,sans-serif" font-weight="400" font-size="16" transform="matrix(1 0 0 1.00028 129.978 571)">Actual capacity</text></g><g><path d="M461.5 566.661 494.5 566.661" stroke="#219DD4" stroke-width="3" stroke-linecap="round" stroke-linejoin="round" stroke-miterlimit="10" stroke-dasharray="0 6" fill="none" fill-rule="evenodd"/></g><g><text fill="#F4F2F3" font-family="Calibri,Calibri_MSFontService,sans-serif" font-weight="400" font-size="16" transform="matrix(1 0 0 1.00028 498.326 571)">Maximum capacity</text></g><g><path d="M829.5 566.661 862.5 566.661" stroke="#219DD4" stroke-width="3" stroke-linecap="round" stroke-linejoin="round" stroke-miterlimit="10" stroke-dasharray="9 12" fill="none" fill-rule="evenodd"/></g><g><text fill="#F4F2F3" font-family="Calibri,Calibri_MSFontService,sans-serif" font-weight="400" font-size="16" transform="matrix(1 0 0 1.00028 866.674 571)">Agreed capacity</text></g></g></svg>