<svg width="1280" height="586" xmlns="http://www.w3.org/2000/svg" xmlns:xlink="http://www.w3.org/1999/xlink" overflow="hidden"><defs><clipPath id="clip0"><rect x="0" y="0" width="1280" height="586"/></clipPath></defs><g clip-path="url(#clip0)"><rect x="0" y="0" width="1280" height="586.167" fill="#FFFFFF"/><rect x="0" y="0" width="1280" height="586.167"/><g><path d="M64.5001 432.623 1265.5 432.623M64.5001 358.602 1265.5 358.602M64.5001 284.581 1265.5 284.581M64.5001 211.56 1265.5 211.56M64.5001 137.539 1265.5 137.539M64.5001 63.5181 1265.5 63.5181" stroke="#D9D9D9" stroke-linejoin="round" stroke-miterlimit="10" fill="none"/></g><g><path d="M104 285.081 139 285.081 139 506.144 104 506.144ZM254 285.081 290 285.081 290 506.144 254 506.144ZM404 285.081 440 285.081 440 506.144 404 506.144ZM554 285.081 590 285.081 590 506.144 554 506.144ZM704 211.06 740 211.06 740 506.144 704 506.144ZM854 211.06 890 211.06 890 506.144 854 506.144ZM1004 211.06 1040 211.06 1040 506.144 1004 506.144ZM1154 137.039 1190 137.039 1190 506.144 1154 506.144Z" fill="#FFA600"/></g><g><path d="M64.5001 506.644 1265.5 506.644" stroke="#D9D9D9" stroke-linejoin="round" stroke-miterlimit="10" fill="none" fill-rule="evenodd"/></g><g><text fill="#F4F2F3" font-family="Manrope,Manrope_MSFontService,sans-serif" font-weight="400" font-size="16" transform="matrix(1 0 0 1.00028 38.0334 511)">0</text></g><g><text fill="#F4F2F3" font-family="Manrope,Manrope_MSFontService,sans-serif" font-weight="400" font-size="16" transform="matrix(1 0 0 1.00028 12.3401 437)">1000</text></g><g><text fill="#F4F2F3" font-family="Manrope,Manrope_MSFontService,sans-serif" font-weight="400" font-size="16" transform="matrix(1 0 0 1.00028 9.46667 364)">2000</text></g><g><text fill="#F4F2F3" font-family="Manrope,Manrope_MSFontService,sans-serif" font-weight="400" font-size="16" transform="matrix(1 0 0 1.00028 9.74005 290)">3000</text></g><g><text fill="#F4F2F3" font-family="Manrope,Manrope_MSFontService,sans-serif" font-weight="400" font-size="16" transform="matrix(1 0 0 1.00028 9.16 216)">4000</text></g><g><text fill="#F4F2F3" font-family="Manrope,Manrope_MSFontService,sans-serif" font-weight="400" font-size="16" transform="matrix(1 0 0 1.00028 9.34667 142)">5000</text></g><g><text fill="#F4F2F3" font-family="Manrope,Manrope_MSFontService,sans-serif" font-weight="400" font-size="16" transform="matrix(1 0 0 1.00028 8.66667 68)">6000</text></g><g><text fill="#F4F2F3" font-family="Manrope,Manrope_MSFontService,sans-serif" font-weight="400" font-size="16" transform="matrix(1 0 0 1.00028 113.94 535)">Week 1</text></g><g><text fill="#F4F2F3" font-family="Manrope,Manrope_MSFontService,sans-serif" font-weight="400" font-size="16" transform="matrix(1 0 0 1.00028 262.628 535)">Week 2</text></g><g><text fill="#F4F2F3" font-family="Manrope,Manrope_MSFontService,sans-serif" font-weight="400" font-size="16" transform="matrix(1 0 0 1.00028 412.889 535)">Week 3</text></g><g><text fill="#F4F2F3" font-family="Manrope,Manrope_MSFontService,sans-serif" font-weight="400" font-size="16" transform="matrix(1 0 0 1.00028 562.723 535)">Week 4</text></g><g><text fill="#F4F2F3" font-family="Manrope,Manrope_MSFontService,sans-serif" font-weight="400" font-size="16" transform="matrix(1 0 0 1.00028 712.941 535)">Week 5</text></g><g><text fill="#F4F2F3" font-family="Manrope,Manrope_MSFontService,sans-serif" font-weight="400" font-size="16" transform="matrix(1 0 0 1.00028 862.725 535)">Week 6</text></g><g><text fill="#F4F2F3" font-family="Manrope,Manrope_MSFontService,sans-serif" font-weight="400" font-size="16" transform="matrix(1 0 0 1.00028 1013.79 535)">Week 7</text></g><g><text fill="#F4F2F3" font-family="Manrope,Manrope_MSFontService,sans-serif" font-weight="400" font-size="16" transform="matrix(1 0 0 1.00028 1163.29 535)">Week 8</text></g><g><text fill="#F4F2F3" font-family="Manrope,Manrope_MSFontService,sans-serif" font-weight="400" font-size="25" transform="matrix(1 0 0 1.00028 507.93 36)">Example: Demand Data</text></g><g><rect x="605" y="558.159" width="10" height="10.0029" fill="#FFA600"/></g><g><text fill="#F4F2F3" font-family="Manrope,Manrope_MSFontService,sans-serif" font-weight="400" font-size="16" transform="matrix(1 0 0 1.00028 619.62 568)">Demand</text></g></g></svg>