<svg width="493" height="349" viewBox="0 0 493 349" fill="none" xmlns="http://www.w3.org/2000/svg">
<g filter="url(#filter0_ddddd_594_2570)">
<path d="M166.566 99.3286C177.223 93.1761 194.502 93.1761 205.16 99.3286L297.862 152.846C308.52 158.998 308.52 168.974 297.862 175.126L205.16 228.643C194.502 234.796 177.223 234.796 166.566 228.643L73.863 175.126C63.2056 168.974 63.2055 158.998 73.863 152.846L166.566 99.3286Z" fill="#DAFDBA" fill-opacity="0.9"/>
</g>
<g filter="url(#filter1_ddddd_594_2570)">
<path fill-rule="evenodd" clip-rule="evenodd" d="M296.898 165.602L204.195 112.085C194.07 106.24 177.655 106.24 167.531 112.085L74.8279 165.602C64.7033 171.447 64.7033 180.924 74.8279 186.768L167.531 240.286C177.655 246.131 194.07 246.131 204.195 240.286L296.898 186.768C307.022 180.924 307.022 171.447 296.898 165.602ZM205.16 111.528C194.502 105.375 177.223 105.375 166.566 111.528L73.8631 165.045C63.2056 171.198 63.2056 181.173 73.8631 187.325L166.566 240.843C177.223 246.995 194.502 246.995 205.16 240.843L297.862 187.325C308.52 181.173 308.52 171.198 297.862 165.045L205.16 111.528Z" fill="#DAFDBA"/>
</g>
<g filter="url(#filter2_ddddd_594_2570)">
<path d="M167.182 72.188C177.84 66.0355 195.119 66.0355 205.776 72.188L298.479 125.705C309.136 131.858 309.136 141.833 298.479 147.986L205.776 201.503C195.119 207.655 177.84 207.655 167.182 201.503L74.4796 147.986C63.8221 141.833 63.8221 131.858 74.4796 125.705L167.182 72.188Z" fill="#8CD794" fill-opacity="0.9"/>
</g>
<g filter="url(#filter3_ddddd_594_2570)">
<path fill-rule="evenodd" clip-rule="evenodd" d="M297.514 138.462L204.811 84.9447C194.687 79.0998 178.272 79.0998 168.147 84.9447L75.4445 138.462C65.3199 144.307 65.3199 153.783 75.4445 159.628L168.147 213.146C178.272 218.99 194.687 218.99 204.811 213.146L297.514 159.628C307.639 153.783 307.639 144.307 297.514 138.462ZM205.776 84.3877C195.119 78.2352 177.84 78.2352 167.182 84.3877L74.4796 137.905C63.8222 144.058 63.8222 154.033 74.4796 160.185L167.182 213.703C177.84 219.855 195.119 219.855 205.776 213.703L298.479 160.185C309.136 154.033 309.136 144.058 298.479 137.905L205.776 84.3877Z" fill="#8CD794"/>
</g>
<g filter="url(#filter4_ddddd_594_2570)">
<path d="M167.182 46.2808C177.84 40.1283 195.119 40.1282 205.776 46.2808L298.479 99.798C309.136 105.951 309.136 115.926 298.479 122.078L205.776 175.596C195.119 181.748 177.84 181.748 167.182 175.596L74.4796 122.078C63.8221 115.926 63.8221 105.951 74.4796 99.798L167.182 46.2808Z" fill="#45C4B0" fill-opacity="0.9"/>
</g>
<g filter="url(#filter5_ddddd_594_2570)">
<path fill-rule="evenodd" clip-rule="evenodd" d="M297.514 112.554L204.812 59.037C194.687 53.1921 178.272 53.1921 168.147 59.037L75.4445 112.554C65.32 118.399 65.32 127.876 75.4446 133.721L168.147 187.238C178.272 193.083 194.687 193.083 204.812 187.238L297.514 133.721C307.639 127.876 307.639 118.399 297.514 112.554ZM205.776 58.48C195.119 52.3275 177.84 52.3275 167.182 58.48L74.4797 111.997C63.8222 118.15 63.8223 128.125 74.4797 134.278L167.182 187.795C177.84 193.947 195.119 193.947 205.776 187.795L298.479 134.278C309.136 128.125 309.136 118.15 298.479 111.997L205.776 58.48Z" fill="#45C4B0"/>
</g>
<g filter="url(#filter6_ddddd_594_2570)">
<path d="M167.183 19.1402C177.84 12.9876 195.119 12.9876 205.777 19.1402L298.479 72.6574C309.137 78.81 309.137 88.7852 298.479 94.9378L205.777 148.455C195.119 154.608 177.84 154.608 167.183 148.455L74.4799 94.9378C63.8225 88.7852 63.8225 78.81 74.4799 72.6574L167.183 19.1402Z" fill="#19D9AB"/>
</g>
<g filter="url(#filter7_ddddd_594_2570)">
<path fill-rule="evenodd" clip-rule="evenodd" d="M297.514 85.4141L204.812 31.8969C194.687 26.052 178.272 26.052 168.147 31.8969L75.4448 85.4141C65.3202 91.259 65.3202 100.736 75.4448 106.58L168.147 160.098C178.272 165.943 194.687 165.943 204.812 160.098L297.514 106.58C307.639 100.736 307.639 91.259 297.514 85.4141ZM205.777 31.3399C195.119 25.1873 177.84 25.1873 167.183 31.3399L74.4799 84.8571C63.8225 91.0097 63.8225 100.985 74.4799 107.137L167.183 160.655C177.84 166.807 195.119 166.807 205.777 160.655L298.479 107.137C309.137 100.985 309.137 91.0097 298.479 84.8571L205.777 31.3399Z" fill="#19D9AB"/>
</g>
<path fill-rule="evenodd" clip-rule="evenodd" d="M188.578 74.2288L201.801 81.8625C203.624 82.915 206.589 82.915 208.412 81.8625L221.636 74.2288C223.459 73.1763 223.459 71.4644 221.636 70.4119L208.412 62.7782C206.589 61.7257 203.624 61.7257 201.801 62.7782L188.578 70.4119C186.755 71.4644 186.755 73.1763 188.578 74.2288ZM204.005 64.0505C204.612 63.6998 205.601 63.6998 206.209 64.0505L219.432 71.6842C220.039 72.035 220.039 72.6058 219.432 72.9565L206.209 80.5902C205.601 80.941 204.612 80.941 204.005 80.5902L190.782 72.9565C190.174 72.6058 190.174 72.035 190.782 71.6842L204.005 64.0505ZM153.195 94.5156L166.419 102.149C168.242 103.202 171.207 103.202 173.03 102.149L186.253 94.5156C188.077 93.4631 188.077 91.7512 186.253 90.6987L173.03 83.065C171.207 82.0125 168.242 82.0125 166.419 83.065L153.195 90.6987C151.372 91.7512 151.372 93.4631 153.195 94.5156ZM168.622 84.3373C169.23 83.9866 170.219 83.9866 170.826 84.3373L184.049 91.971C184.657 92.3217 184.657 92.8926 184.049 93.2433L170.826 100.877C170.219 101.228 169.23 101.228 168.622 100.877L155.399 93.2433C154.792 92.8926 154.792 92.3217 155.399 91.971L168.622 84.3373ZM158.533 77.5807L158.531 77.5798L181.966 64.0508C184.182 62.7716 186.901 62.3556 189.621 62.8793C191.567 63.2536 192.846 63.9704 192.985 64.0508L190.787 65.3265C190.779 65.3214 189.856 64.8062 188.551 64.5705C186.974 64.2851 185.541 64.5313 184.17 65.323L183.871 65.4954L183.873 65.4963L157.81 80.5422C156.439 81.3339 156.013 82.1612 156.507 83.0714C156.915 83.8246 157.808 84.3573 157.81 84.359L155.607 85.6313C155.467 85.551 154.226 84.8126 153.577 83.6891C152.67 82.1186 153.391 80.549 155.607 79.2699L158.533 77.5807ZM216.386 87.2997L216.385 87.299L219.311 85.6098C221.527 84.3307 222.247 82.7611 221.34 81.1906C220.692 80.0672 219.45 79.3288 219.311 79.2484L217.107 80.5207C217.11 80.5224 218.002 81.0552 218.411 81.8083C218.905 82.7185 218.478 83.5458 217.107 84.3376L191.044 99.3836L191.046 99.3843L190.747 99.5563C189.376 100.348 187.943 100.594 186.366 100.309C185.062 100.073 184.139 99.558 184.13 99.5529L181.932 100.829C182.071 100.909 183.35 101.626 185.296 102C188.017 102.524 190.736 102.108 192.951 100.829L216.386 87.2997Z" fill="white"/>
<defs>
<filter id="filter0_ddddd_594_2570" x="0.869934" y="80.7144" width="391.985" height="418.543" filterUnits="userSpaceOnUse" color-interpolation-filters="sRGB">
<feFlood flood-opacity="0" result="BackgroundImageFix"/>
<feColorMatrix in="SourceAlpha" type="matrix" values="0 0 0 0 0 0 0 0 0 0 0 0 0 0 0 0 0 0 127 0" result="hardAlpha"/>
<feOffset/>
<feColorMatrix type="matrix" values="0 0 0 0 0 0 0 0 0 0 0 0 0 0 0 0 0 0 0.1 0"/>
<feBlend mode="normal" in2="BackgroundImageFix" result="effect1_dropShadow_594_2570"/>
<feColorMatrix in="SourceAlpha" type="matrix" values="0 0 0 0 0 0 0 0 0 0 0 0 0 0 0 0 0 0 127 0" result="hardAlpha"/>
<feOffset dx="1" dy="12"/>
<feGaussianBlur stdDeviation="13"/>
<feColorMatrix type="matrix" values="0 0 0 0 0 0 0 0 0 0 0 0 0 0 0 0 0 0 0.1 0"/>
<feBlend mode="normal" in2="effect1_dropShadow_594_2570" result="effect2_dropShadow_594_2570"/>
<feColorMatrix in="SourceAlpha" type="matrix" values="0 0 0 0 0 0 0 0 0 0 0 0 0 0 0 0 0 0 127 0" result="hardAlpha"/>
<feOffset dx="3" dy="47"/>
<feGaussianBlur stdDeviation="24"/>
<feColorMatrix type="matrix" values="0 0 0 0 0 0 0 0 0 0 0 0 0 0 0 0 0 0 0.09 0"/>
<feBlend mode="normal" in2="effect2_dropShadow_594_2570" result="effect3_dropShadow_594_2570"/>
<feColorMatrix in="SourceAlpha" type="matrix" values="0 0 0 0 0 0 0 0 0 0 0 0 0 0 0 0 0 0 127 0" result="hardAlpha"/>
<feOffset dx="6" dy="107"/>
<feGaussianBlur stdDeviation="32"/>
<feColorMatrix type="matrix" values="0 0 0 0 0 0 0 0 0 0 0 0 0 0 0 0 0 0 0.05 0"/>
<feBlend mode="normal" in2="effect3_dropShadow_594_2570" result="effect4_dropShadow_594_2570"/>
<feColorMatrix in="SourceAlpha" type="matrix" values="0 0 0 0 0 0 0 0 0 0 0 0 0 0 0 0 0 0 127 0" result="hardAlpha"/>
<feOffset dx="11" dy="190"/>
<feGaussianBlur stdDeviation="38"/>
<feColorMatrix type="matrix" values="0 0 0 0 0 0 0 0 0 0 0 0 0 0 0 0 0 0 0.01 0"/>
<feBlend mode="normal" in2="effect4_dropShadow_594_2570" result="effect5_dropShadow_594_2570"/>
<feBlend mode="normal" in="SourceGraphic" in2="effect5_dropShadow_594_2570" result="shape"/>
</filter>
<filter id="filter1_ddddd_594_2570" x="0.869995" y="92.9136" width="391.985" height="418.543" filterUnits="userSpaceOnUse" color-interpolation-filters="sRGB">
<feFlood flood-opacity="0" result="BackgroundImageFix"/>
<feColorMatrix in="SourceAlpha" type="matrix" values="0 0 0 0 0 0 0 0 0 0 0 0 0 0 0 0 0 0 127 0" result="hardAlpha"/>
<feOffset/>
<feColorMatrix type="matrix" values="0 0 0 0 0 0 0 0 0 0 0 0 0 0 0 0 0 0 0.1 0"/>
<feBlend mode="normal" in2="BackgroundImageFix" result="effect1_dropShadow_594_2570"/>
<feColorMatrix in="SourceAlpha" type="matrix" values="0 0 0 0 0 0 0 0 0 0 0 0 0 0 0 0 0 0 127 0" result="hardAlpha"/>
<feOffset dx="1" dy="12"/>
<feGaussianBlur stdDeviation="13"/>
<feColorMatrix type="matrix" values="0 0 0 0 0 0 0 0 0 0 0 0 0 0 0 0 0 0 0.1 0"/>
<feBlend mode="normal" in2="effect1_dropShadow_594_2570" result="effect2_dropShadow_594_2570"/>
<feColorMatrix in="SourceAlpha" type="matrix" values="0 0 0 0 0 0 0 0 0 0 0 0 0 0 0 0 0 0 127 0" result="hardAlpha"/>
<feOffset dx="3" dy="47"/>
<feGaussianBlur stdDeviation="24"/>
<feColorMatrix type="matrix" values="0 0 0 0 0 0 0 0 0 0 0 0 0 0 0 0 0 0 0.09 0"/>
<feBlend mode="normal" in2="effect2_dropShadow_594_2570" result="effect3_dropShadow_594_2570"/>
<feColorMatrix in="SourceAlpha" type="matrix" values="0 0 0 0 0 0 0 0 0 0 0 0 0 0 0 0 0 0 127 0" result="hardAlpha"/>
<feOffset dx="6" dy="107"/>
<feGaussianBlur stdDeviation="32"/>
<feColorMatrix type="matrix" values="0 0 0 0 0 0 0 0 0 0 0 0 0 0 0 0 0 0 0.05 0"/>
<feBlend mode="normal" in2="effect3_dropShadow_594_2570" result="effect4_dropShadow_594_2570"/>
<feColorMatrix in="SourceAlpha" type="matrix" values="0 0 0 0 0 0 0 0 0 0 0 0 0 0 0 0 0 0 127 0" result="hardAlpha"/>
<feOffset dx="11" dy="190"/>
<feGaussianBlur stdDeviation="38"/>
<feColorMatrix type="matrix" values="0 0 0 0 0 0 0 0 0 0 0 0 0 0 0 0 0 0 0.01 0"/>
<feBlend mode="normal" in2="effect4_dropShadow_594_2570" result="effect5_dropShadow_594_2570"/>
<feBlend mode="normal" in="SourceGraphic" in2="effect5_dropShadow_594_2570" result="shape"/>
</filter>
<filter id="filter2_ddddd_594_2570" x="1.48651" y="53.5737" width="391.985" height="418.543" filterUnits="userSpaceOnUse" color-interpolation-filters="sRGB">
<feFlood flood-opacity="0" result="BackgroundImageFix"/>
<feColorMatrix in="SourceAlpha" type="matrix" values="0 0 0 0 0 0 0 0 0 0 0 0 0 0 0 0 0 0 127 0" result="hardAlpha"/>
<feOffset/>
<feColorMatrix type="matrix" values="0 0 0 0 0 0 0 0 0 0 0 0 0 0 0 0 0 0 0.1 0"/>
<feBlend mode="normal" in2="BackgroundImageFix" result="effect1_dropShadow_594_2570"/>
<feColorMatrix in="SourceAlpha" type="matrix" values="0 0 0 0 0 0 0 0 0 0 0 0 0 0 0 0 0 0 127 0" result="hardAlpha"/>
<feOffset dx="1" dy="12"/>
<feGaussianBlur stdDeviation="13"/>
<feColorMatrix type="matrix" values="0 0 0 0 0 0 0 0 0 0 0 0 0 0 0 0 0 0 0.1 0"/>
<feBlend mode="normal" in2="effect1_dropShadow_594_2570" result="effect2_dropShadow_594_2570"/>
<feColorMatrix in="SourceAlpha" type="matrix" values="0 0 0 0 0 0 0 0 0 0 0 0 0 0 0 0 0 0 127 0" result="hardAlpha"/>
<feOffset dx="3" dy="47"/>
<feGaussianBlur stdDeviation="24"/>
<feColorMatrix type="matrix" values="0 0 0 0 0 0 0 0 0 0 0 0 0 0 0 0 0 0 0.09 0"/>
<feBlend mode="normal" in2="effect2_dropShadow_594_2570" result="effect3_dropShadow_594_2570"/>
<feColorMatrix in="SourceAlpha" type="matrix" values="0 0 0 0 0 0 0 0 0 0 0 0 0 0 0 0 0 0 127 0" result="hardAlpha"/>
<feOffset dx="6" dy="107"/>
<feGaussianBlur stdDeviation="32"/>
<feColorMatrix type="matrix" values="0 0 0 0 0 0 0 0 0 0 0 0 0 0 0 0 0 0 0.05 0"/>
<feBlend mode="normal" in2="effect3_dropShadow_594_2570" result="effect4_dropShadow_594_2570"/>
<feColorMatrix in="SourceAlpha" type="matrix" values="0 0 0 0 0 0 0 0 0 0 0 0 0 0 0 0 0 0 127 0" result="hardAlpha"/>
<feOffset dx="11" dy="190"/>
<feGaussianBlur stdDeviation="38"/>
<feColorMatrix type="matrix" values="0 0 0 0 0 0 0 0 0 0 0 0 0 0 0 0 0 0 0.01 0"/>
<feBlend mode="normal" in2="effect4_dropShadow_594_2570" result="effect5_dropShadow_594_2570"/>
<feBlend mode="normal" in="SourceGraphic" in2="effect5_dropShadow_594_2570" result="shape"/>
</filter>
<filter id="filter3_ddddd_594_2570" x="1.48657" y="65.7734" width="391.985" height="418.543" filterUnits="userSpaceOnUse" color-interpolation-filters="sRGB">
<feFlood flood-opacity="0" result="BackgroundImageFix"/>
<feColorMatrix in="SourceAlpha" type="matrix" values="0 0 0 0 0 0 0 0 0 0 0 0 0 0 0 0 0 0 127 0" result="hardAlpha"/>
<feOffset/>
<feColorMatrix type="matrix" values="0 0 0 0 0 0 0 0 0 0 0 0 0 0 0 0 0 0 0.1 0"/>
<feBlend mode="normal" in2="BackgroundImageFix" result="effect1_dropShadow_594_2570"/>
<feColorMatrix in="SourceAlpha" type="matrix" values="0 0 0 0 0 0 0 0 0 0 0 0 0 0 0 0 0 0 127 0" result="hardAlpha"/>
<feOffset dx="1" dy="12"/>
<feGaussianBlur stdDeviation="13"/>
<feColorMatrix type="matrix" values="0 0 0 0 0 0 0 0 0 0 0 0 0 0 0 0 0 0 0.1 0"/>
<feBlend mode="normal" in2="effect1_dropShadow_594_2570" result="effect2_dropShadow_594_2570"/>
<feColorMatrix in="SourceAlpha" type="matrix" values="0 0 0 0 0 0 0 0 0 0 0 0 0 0 0 0 0 0 127 0" result="hardAlpha"/>
<feOffset dx="3" dy="47"/>
<feGaussianBlur stdDeviation="24"/>
<feColorMatrix type="matrix" values="0 0 0 0 0 0 0 0 0 0 0 0 0 0 0 0 0 0 0.09 0"/>
<feBlend mode="normal" in2="effect2_dropShadow_594_2570" result="effect3_dropShadow_594_2570"/>
<feColorMatrix in="SourceAlpha" type="matrix" values="0 0 0 0 0 0 0 0 0 0 0 0 0 0 0 0 0 0 127 0" result="hardAlpha"/>
<feOffset dx="6" dy="107"/>
<feGaussianBlur stdDeviation="32"/>
<feColorMatrix type="matrix" values="0 0 0 0 0 0 0 0 0 0 0 0 0 0 0 0 0 0 0.05 0"/>
<feBlend mode="normal" in2="effect3_dropShadow_594_2570" result="effect4_dropShadow_594_2570"/>
<feColorMatrix in="SourceAlpha" type="matrix" values="0 0 0 0 0 0 0 0 0 0 0 0 0 0 0 0 0 0 127 0" result="hardAlpha"/>
<feOffset dx="11" dy="190"/>
<feGaussianBlur stdDeviation="38"/>
<feColorMatrix type="matrix" values="0 0 0 0 0 0 0 0 0 0 0 0 0 0 0 0 0 0 0.01 0"/>
<feBlend mode="normal" in2="effect4_dropShadow_594_2570" result="effect5_dropShadow_594_2570"/>
<feBlend mode="normal" in="SourceGraphic" in2="effect5_dropShadow_594_2570" result="shape"/>
</filter>
<filter id="filter4_ddddd_594_2570" x="1.48651" y="27.6665" width="391.985" height="418.543" filterUnits="userSpaceOnUse" color-interpolation-filters="sRGB">
<feFlood flood-opacity="0" result="BackgroundImageFix"/>
<feColorMatrix in="SourceAlpha" type="matrix" values="0 0 0 0 0 0 0 0 0 0 0 0 0 0 0 0 0 0 127 0" result="hardAlpha"/>
<feOffset/>
<feColorMatrix type="matrix" values="0 0 0 0 0 0 0 0 0 0 0 0 0 0 0 0 0 0 0.1 0"/>
<feBlend mode="normal" in2="BackgroundImageFix" result="effect1_dropShadow_594_2570"/>
<feColorMatrix in="SourceAlpha" type="matrix" values="0 0 0 0 0 0 0 0 0 0 0 0 0 0 0 0 0 0 127 0" result="hardAlpha"/>
<feOffset dx="1" dy="12"/>
<feGaussianBlur stdDeviation="13"/>
<feColorMatrix type="matrix" values="0 0 0 0 0 0 0 0 0 0 0 0 0 0 0 0 0 0 0.1 0"/>
<feBlend mode="normal" in2="effect1_dropShadow_594_2570" result="effect2_dropShadow_594_2570"/>
<feColorMatrix in="SourceAlpha" type="matrix" values="0 0 0 0 0 0 0 0 0 0 0 0 0 0 0 0 0 0 127 0" result="hardAlpha"/>
<feOffset dx="3" dy="47"/>
<feGaussianBlur stdDeviation="24"/>
<feColorMatrix type="matrix" values="0 0 0 0 0 0 0 0 0 0 0 0 0 0 0 0 0 0 0.09 0"/>
<feBlend mode="normal" in2="effect2_dropShadow_594_2570" result="effect3_dropShadow_594_2570"/>
<feColorMatrix in="SourceAlpha" type="matrix" values="0 0 0 0 0 0 0 0 0 0 0 0 0 0 0 0 0 0 127 0" result="hardAlpha"/>
<feOffset dx="6" dy="107"/>
<feGaussianBlur stdDeviation="32"/>
<feColorMatrix type="matrix" values="0 0 0 0 0 0 0 0 0 0 0 0 0 0 0 0 0 0 0.05 0"/>
<feBlend mode="normal" in2="effect3_dropShadow_594_2570" result="effect4_dropShadow_594_2570"/>
<feColorMatrix in="SourceAlpha" type="matrix" values="0 0 0 0 0 0 0 0 0 0 0 0 0 0 0 0 0 0 127 0" result="hardAlpha"/>
<feOffset dx="11" dy="190"/>
<feGaussianBlur stdDeviation="38"/>
<feColorMatrix type="matrix" values="0 0 0 0 0 0 0 0 0 0 0 0 0 0 0 0 0 0 0.01 0"/>
<feBlend mode="normal" in2="effect4_dropShadow_594_2570" result="effect5_dropShadow_594_2570"/>
<feBlend mode="normal" in="SourceGraphic" in2="effect5_dropShadow_594_2570" result="shape"/>
</filter>
<filter id="filter5_ddddd_594_2570" x="1.48663" y="39.8657" width="391.985" height="418.543" filterUnits="userSpaceOnUse" color-interpolation-filters="sRGB">
<feFlood flood-opacity="0" result="BackgroundImageFix"/>
<feColorMatrix in="SourceAlpha" type="matrix" values="0 0 0 0 0 0 0 0 0 0 0 0 0 0 0 0 0 0 127 0" result="hardAlpha"/>
<feOffset/>
<feColorMatrix type="matrix" values="0 0 0 0 0 0 0 0 0 0 0 0 0 0 0 0 0 0 0.1 0"/>
<feBlend mode="normal" in2="BackgroundImageFix" result="effect1_dropShadow_594_2570"/>
<feColorMatrix in="SourceAlpha" type="matrix" values="0 0 0 0 0 0 0 0 0 0 0 0 0 0 0 0 0 0 127 0" result="hardAlpha"/>
<feOffset dx="1" dy="12"/>
<feGaussianBlur stdDeviation="13"/>
<feColorMatrix type="matrix" values="0 0 0 0 0 0 0 0 0 0 0 0 0 0 0 0 0 0 0.1 0"/>
<feBlend mode="normal" in2="effect1_dropShadow_594_2570" result="effect2_dropShadow_594_2570"/>
<feColorMatrix in="SourceAlpha" type="matrix" values="0 0 0 0 0 0 0 0 0 0 0 0 0 0 0 0 0 0 127 0" result="hardAlpha"/>
<feOffset dx="3" dy="47"/>
<feGaussianBlur stdDeviation="24"/>
<feColorMatrix type="matrix" values="0 0 0 0 0 0 0 0 0 0 0 0 0 0 0 0 0 0 0.09 0"/>
<feBlend mode="normal" in2="effect2_dropShadow_594_2570" result="effect3_dropShadow_594_2570"/>
<feColorMatrix in="SourceAlpha" type="matrix" values="0 0 0 0 0 0 0 0 0 0 0 0 0 0 0 0 0 0 127 0" result="hardAlpha"/>
<feOffset dx="6" dy="107"/>
<feGaussianBlur stdDeviation="32"/>
<feColorMatrix type="matrix" values="0 0 0 0 0 0 0 0 0 0 0 0 0 0 0 0 0 0 0.05 0"/>
<feBlend mode="normal" in2="effect3_dropShadow_594_2570" result="effect4_dropShadow_594_2570"/>
<feColorMatrix in="SourceAlpha" type="matrix" values="0 0 0 0 0 0 0 0 0 0 0 0 0 0 0 0 0 0 127 0" result="hardAlpha"/>
<feOffset dx="11" dy="190"/>
<feGaussianBlur stdDeviation="38"/>
<feColorMatrix type="matrix" values="0 0 0 0 0 0 0 0 0 0 0 0 0 0 0 0 0 0 0.01 0"/>
<feBlend mode="normal" in2="effect4_dropShadow_594_2570" result="effect5_dropShadow_594_2570"/>
<feBlend mode="normal" in="SourceGraphic" in2="effect5_dropShadow_594_2570" result="shape"/>
</filter>
<filter id="filter6_ddddd_594_2570" x="1.48688" y="0.525879" width="391.985" height="418.543" filterUnits="userSpaceOnUse" color-interpolation-filters="sRGB">
<feFlood flood-opacity="0" result="BackgroundImageFix"/>
<feColorMatrix in="SourceAlpha" type="matrix" values="0 0 0 0 0 0 0 0 0 0 0 0 0 0 0 0 0 0 127 0" result="hardAlpha"/>
<feOffset/>
<feColorMatrix type="matrix" values="0 0 0 0 0 0 0 0 0 0 0 0 0 0 0 0 0 0 0.1 0"/>
<feBlend mode="normal" in2="BackgroundImageFix" result="effect1_dropShadow_594_2570"/>
<feColorMatrix in="SourceAlpha" type="matrix" values="0 0 0 0 0 0 0 0 0 0 0 0 0 0 0 0 0 0 127 0" result="hardAlpha"/>
<feOffset dx="1" dy="12"/>
<feGaussianBlur stdDeviation="13"/>
<feColorMatrix type="matrix" values="0 0 0 0 0 0 0 0 0 0 0 0 0 0 0 0 0 0 0.1 0"/>
<feBlend mode="normal" in2="effect1_dropShadow_594_2570" result="effect2_dropShadow_594_2570"/>
<feColorMatrix in="SourceAlpha" type="matrix" values="0 0 0 0 0 0 0 0 0 0 0 0 0 0 0 0 0 0 127 0" result="hardAlpha"/>
<feOffset dx="3" dy="47"/>
<feGaussianBlur stdDeviation="24"/>
<feColorMatrix type="matrix" values="0 0 0 0 0 0 0 0 0 0 0 0 0 0 0 0 0 0 0.09 0"/>
<feBlend mode="normal" in2="effect2_dropShadow_594_2570" result="effect3_dropShadow_594_2570"/>
<feColorMatrix in="SourceAlpha" type="matrix" values="0 0 0 0 0 0 0 0 0 0 0 0 0 0 0 0 0 0 127 0" result="hardAlpha"/>
<feOffset dx="6" dy="107"/>
<feGaussianBlur stdDeviation="32"/>
<feColorMatrix type="matrix" values="0 0 0 0 0 0 0 0 0 0 0 0 0 0 0 0 0 0 0.05 0"/>
<feBlend mode="normal" in2="effect3_dropShadow_594_2570" result="effect4_dropShadow_594_2570"/>
<feColorMatrix in="SourceAlpha" type="matrix" values="0 0 0 0 0 0 0 0 0 0 0 0 0 0 0 0 0 0 127 0" result="hardAlpha"/>
<feOffset dx="11" dy="190"/>
<feGaussianBlur stdDeviation="38"/>
<feColorMatrix type="matrix" values="0 0 0 0 0 0 0 0 0 0 0 0 0 0 0 0 0 0 0.01 0"/>
<feBlend mode="normal" in2="effect4_dropShadow_594_2570" result="effect5_dropShadow_594_2570"/>
<feBlend mode="normal" in="SourceGraphic" in2="effect5_dropShadow_594_2570" result="shape"/>
</filter>
<filter id="filter7_ddddd_594_2570" x="1.48688" y="12.7256" width="391.985" height="418.543" filterUnits="userSpaceOnUse" color-interpolation-filters="sRGB">
<feFlood flood-opacity="0" result="BackgroundImageFix"/>
<feColorMatrix in="SourceAlpha" type="matrix" values="0 0 0 0 0 0 0 0 0 0 0 0 0 0 0 0 0 0 127 0" result="hardAlpha"/>
<feOffset/>
<feColorMatrix type="matrix" values="0 0 0 0 0 0 0 0 0 0 0 0 0 0 0 0 0 0 0.1 0"/>
<feBlend mode="normal" in2="BackgroundImageFix" result="effect1_dropShadow_594_2570"/>
<feColorMatrix in="SourceAlpha" type="matrix" values="0 0 0 0 0 0 0 0 0 0 0 0 0 0 0 0 0 0 127 0" result="hardAlpha"/>
<feOffset dx="1" dy="12"/>
<feGaussianBlur stdDeviation="13"/>
<feColorMatrix type="matrix" values="0 0 0 0 0 0 0 0 0 0 0 0 0 0 0 0 0 0 0.1 0"/>
<feBlend mode="normal" in2="effect1_dropShadow_594_2570" result="effect2_dropShadow_594_2570"/>
<feColorMatrix in="SourceAlpha" type="matrix" values="0 0 0 0 0 0 0 0 0 0 0 0 0 0 0 0 0 0 127 0" result="hardAlpha"/>
<feOffset dx="3" dy="47"/>
<feGaussianBlur stdDeviation="24"/>
<feColorMatrix type="matrix" values="0 0 0 0 0 0 0 0 0 0 0 0 0 0 0 0 0 0 0.09 0"/>
<feBlend mode="normal" in2="effect2_dropShadow_594_2570" result="effect3_dropShadow_594_2570"/>
<feColorMatrix in="SourceAlpha" type="matrix" values="0 0 0 0 0 0 0 0 0 0 0 0 0 0 0 0 0 0 127 0" result="hardAlpha"/>
<feOffset dx="6" dy="107"/>
<feGaussianBlur stdDeviation="32"/>
<feColorMatrix type="matrix" values="0 0 0 0 0 0 0 0 0 0 0 0 0 0 0 0 0 0 0.05 0"/>
<feBlend mode="normal" in2="effect3_dropShadow_594_2570" result="effect4_dropShadow_594_2570"/>
<feColorMatrix in="SourceAlpha" type="matrix" values="0 0 0 0 0 0 0 0 0 0 0 0 0 0 0 0 0 0 127 0" result="hardAlpha"/>
<feOffset dx="11" dy="190"/>
<feGaussianBlur stdDeviation="38"/>
<feColorMatrix type="matrix" values="0 0 0 0 0 0 0 0 0 0 0 0 0 0 0 0 0 0 0.01 0"/>
<feBlend mode="normal" in2="effect4_dropShadow_594_2570" result="effect5_dropShadow_594_2570"/>
<feBlend mode="normal" in="SourceGraphic" in2="effect5_dropShadow_594_2570" result="shape"/>
</filter>
</defs>
</svg>
