<svg width="493" height="349" viewBox="0 0 493 349" fill="none" xmlns="http://www.w3.org/2000/svg">
<g filter="url(#filter0_ddddd_563_11151)">
<path d="M207.851 133.676C222.881 125 247.249 124.999 262.279 133.676L393.015 209.15C408.045 217.827 408.045 231.895 393.015 240.572L262.279 316.046C247.249 324.722 222.881 324.722 207.851 316.046L77.1144 240.572C62.0845 231.895 62.0845 217.827 77.1144 209.15L207.851 133.676Z" fill="#6EC869" fill-opacity="0.9"/>
</g>
<g filter="url(#filter1_ddddd_563_11151)">
<path fill-rule="evenodd" clip-rule="evenodd" d="M391.654 227.14L260.918 151.666C246.64 143.423 223.49 143.423 209.211 151.666L78.4751 227.14C64.1967 235.383 64.1967 248.748 78.4751 256.991L209.211 332.465C223.49 340.708 246.64 340.708 260.918 332.465L391.654 256.991C405.933 248.748 405.933 235.383 391.654 227.14ZM262.279 150.881C247.249 142.204 222.881 142.204 207.851 150.881L77.1144 226.355C62.0845 235.032 62.0845 249.099 77.1144 257.776L207.851 333.25C222.881 341.927 247.249 341.927 262.279 333.25L393.015 257.776C408.045 249.099 408.045 235.032 393.015 226.355L262.279 150.881Z" fill="#6EC869"/>
</g>
<g filter="url(#filter2_ddddd_563_11151)">
<path d="M208.72 95.4019C223.75 86.7251 248.118 86.7251 263.148 95.4019L393.885 170.876C408.915 179.553 408.915 193.62 393.885 202.297L263.148 277.771C248.118 286.448 223.75 286.448 208.72 277.771L77.9841 202.297C62.9541 193.62 62.9541 179.553 77.984 170.876L208.72 95.4019Z" fill="#B3CB2D" fill-opacity="0.9"/>
</g>
<g filter="url(#filter3_ddddd_563_11151)">
<path fill-rule="evenodd" clip-rule="evenodd" d="M392.524 188.865L261.788 113.391C247.509 105.149 224.359 105.149 210.081 113.391L79.3447 188.866C65.0663 197.108 65.0663 210.473 79.3448 218.716L210.081 294.19C224.359 302.433 247.509 302.433 261.788 294.19L392.524 218.716C406.802 210.473 406.802 197.108 392.524 188.865ZM263.148 112.606C248.118 103.929 223.75 103.929 208.72 112.606L77.984 188.08C62.9541 196.757 62.9541 210.825 77.9841 219.501L208.72 294.975C223.75 303.652 248.118 303.652 263.148 294.975L393.885 219.501C408.915 210.825 408.915 196.757 393.885 188.08L263.148 112.606Z" fill="#B3CB2D"/>
</g>
<g filter="url(#filter4_ddddd_563_11151)">
<path d="M208.72 58.8643C223.75 50.1875 248.118 50.1875 263.148 58.8643L393.885 134.338C408.915 143.015 408.915 157.083 393.885 165.76L263.148 241.234C248.118 249.91 223.75 249.91 208.72 241.234L77.9841 165.76C62.9541 157.083 62.9541 143.015 77.984 134.338L208.72 58.8643Z" fill="#E6A326" fill-opacity="0.9"/>
</g>
<g filter="url(#filter5_ddddd_563_11151)">
<path fill-rule="evenodd" clip-rule="evenodd" d="M392.524 152.328L261.788 76.8541C247.509 68.6112 224.359 68.6112 210.081 76.8541L79.3447 152.328C65.0663 160.571 65.0663 173.936 79.3448 182.178L210.081 257.652C224.359 265.895 247.509 265.895 261.788 257.652L392.524 182.178C406.802 173.936 406.802 160.571 392.524 152.328ZM263.148 76.0686C248.118 67.3918 223.75 67.3918 208.72 76.0686L77.984 151.543C62.9541 160.219 62.9541 174.287 77.9841 182.964L208.72 258.438C223.75 267.115 248.118 267.115 263.148 258.438L393.885 182.964C408.915 174.287 408.915 160.219 393.885 151.543L263.148 76.0686Z" fill="#E5A326"/>
</g>
<g filter="url(#filter6_dddddi_563_11151)">
<path d="M208.72 20.5877C223.75 11.9109 248.118 11.9109 263.148 20.5876L393.885 96.0617C408.915 104.738 408.915 118.806 393.885 127.483L263.148 202.957C248.118 211.634 223.75 211.634 208.72 202.957L77.9841 127.483C62.9541 118.806 62.9541 104.738 77.984 96.0617L208.72 20.5877Z" fill="#FAA023"/>
</g>
<path d="M204.823 125.672L216.164 132.219C216.498 132.423 216.923 132.57 217.393 132.644C217.863 132.717 218.359 132.714 218.826 132.635C219.294 132.556 219.714 132.404 220.041 132.196C220.367 131.987 220.588 131.731 220.678 131.454L234.554 87.4956C234.913 86.3579 235.805 85.2987 237.132 84.4324C238.459 83.5661 240.171 82.9257 242.082 82.5806C243.994 82.2354 246.033 82.1986 247.979 82.4742C249.924 82.7497 251.702 83.3271 253.12 84.1439L268.129 92.8086C270.633 94.2653 272.488 96.0508 273.536 98.0121C274.583 99.9734 274.791 102.052 274.142 104.07L270.011 117.136C269.688 118.143 269.799 119.18 270.333 120.156C270.867 121.132 271.808 122.017 273.073 122.734L283.664 128.849L293.856 134.732C294.191 134.94 294.619 135.089 295.092 135.164C295.565 135.238 296.065 135.235 296.536 135.155C297.006 135.074 297.429 134.92 297.755 134.709C298.082 134.498 298.301 134.238 298.386 133.959L301.225 124.769C301.54 123.763 301.426 122.727 300.892 121.752C300.359 120.776 299.422 119.891 298.163 119.171L292.708 116.022L296.217 104.788C297.349 101.218 296.97 97.542 295.112 94.0743C293.255 90.6065 289.973 87.4493 285.546 84.8713L268.735 75.1662C264.473 72.6978 259.12 70.9508 253.259 70.1147C247.398 69.2787 241.252 69.3856 235.489 70.4237C229.726 71.4619 224.565 73.3918 220.568 76.0037C216.57 78.6157 213.889 81.8099 212.814 85.2396L201.761 120.073C201.446 121.08 201.56 122.116 202.094 123.091C202.627 124.066 203.564 124.952 204.823 125.672Z" fill="white"/>
<path d="M252.242 137.706L263.312 102.844C263.633 101.837 263.524 100.8 262.993 99.8226C262.462 98.8453 261.525 97.9577 260.265 97.2368L248.925 90.6899C248.587 90.4874 248.159 90.3422 247.687 90.2704C247.216 90.1986 246.72 90.2028 246.253 90.2826C245.786 90.3623 245.365 90.5147 245.038 90.7229C244.71 90.9311 244.488 91.1873 244.395 91.4634L230.534 135.431C230.175 136.569 229.284 137.628 227.957 138.495C226.63 139.361 224.918 140.001 223.006 140.346C221.094 140.692 219.055 140.728 217.11 140.453C215.164 140.177 213.386 139.6 211.968 138.783L197.039 130.164C194.534 128.711 192.676 126.93 191.623 124.972C190.57 123.014 190.355 120.938 190.994 118.922L194.695 107.246L195.125 105.911C195.444 104.904 195.331 103.868 194.798 102.892C194.264 101.916 193.325 101.031 192.063 100.312L189.176 98.6456L171.248 88.2959C170.914 88.0886 170.486 87.9393 170.012 87.8647C169.539 87.7901 169.039 87.7931 168.569 87.8734C168.098 87.9538 167.676 88.1082 167.349 88.3195C167.022 88.5307 166.804 88.7904 166.718 89.0693L163.799 98.2312C163.483 99.2378 163.596 100.274 164.13 101.249C164.663 102.225 165.601 103.111 166.862 103.83L172.253 106.942L168.776 118.157C167.637 121.743 168.023 125.435 169.901 128.915C171.779 132.396 175.093 135.561 179.558 138.139L196.305 147.807C200.571 150.278 205.928 152.027 211.795 152.863C217.661 153.699 223.813 153.59 229.58 152.549C235.347 151.507 240.509 149.573 244.505 146.956C248.5 144.339 251.177 141.14 252.242 137.706Z" fill="white"/>
<g filter="url(#filter7_ddddd_563_11151)">
<path fill-rule="evenodd" clip-rule="evenodd" d="M392.524 114.052L261.788 38.5775C247.509 30.3346 224.359 30.3346 210.081 38.5775L79.3447 114.052C65.0663 122.294 65.0663 135.659 79.3448 143.902L210.081 219.376C224.359 227.619 247.509 227.619 261.788 219.376L392.524 143.902C406.802 135.659 406.802 122.294 392.524 114.052ZM263.148 37.792C248.118 29.1152 223.75 29.1152 208.72 37.792L77.984 113.266C62.9541 121.943 62.9541 136.011 77.9841 144.687L208.72 220.161C223.75 228.838 248.118 228.838 263.148 220.161L393.885 144.687C408.915 136.011 408.915 121.943 393.885 113.266L263.148 37.792Z" fill="#FAA023"/>
</g>
<defs>
<filter id="filter0_ddddd_563_11151" x="0.842041" y="113.169" width="490.445" height="475.385" filterUnits="userSpaceOnUse" color-interpolation-filters="sRGB">
<feFlood flood-opacity="0" result="BackgroundImageFix"/>
<feColorMatrix in="SourceAlpha" type="matrix" values="0 0 0 0 0 0 0 0 0 0 0 0 0 0 0 0 0 0 127 0" result="hardAlpha"/>
<feOffset/>
<feColorMatrix type="matrix" values="0 0 0 0 0 0 0 0 0 0 0 0 0 0 0 0 0 0 0.1 0"/>
<feBlend mode="normal" in2="BackgroundImageFix" result="effect1_dropShadow_563_11151"/>
<feColorMatrix in="SourceAlpha" type="matrix" values="0 0 0 0 0 0 0 0 0 0 0 0 0 0 0 0 0 0 127 0" result="hardAlpha"/>
<feOffset dx="1" dy="12"/>
<feGaussianBlur stdDeviation="13"/>
<feColorMatrix type="matrix" values="0 0 0 0 0 0 0 0 0 0 0 0 0 0 0 0 0 0 0.1 0"/>
<feBlend mode="normal" in2="effect1_dropShadow_563_11151" result="effect2_dropShadow_563_11151"/>
<feColorMatrix in="SourceAlpha" type="matrix" values="0 0 0 0 0 0 0 0 0 0 0 0 0 0 0 0 0 0 127 0" result="hardAlpha"/>
<feOffset dx="3" dy="47"/>
<feGaussianBlur stdDeviation="24"/>
<feColorMatrix type="matrix" values="0 0 0 0 0 0 0 0 0 0 0 0 0 0 0 0 0 0 0.09 0"/>
<feBlend mode="normal" in2="effect2_dropShadow_563_11151" result="effect3_dropShadow_563_11151"/>
<feColorMatrix in="SourceAlpha" type="matrix" values="0 0 0 0 0 0 0 0 0 0 0 0 0 0 0 0 0 0 127 0" result="hardAlpha"/>
<feOffset dx="6" dy="107"/>
<feGaussianBlur stdDeviation="32"/>
<feColorMatrix type="matrix" values="0 0 0 0 0 0 0 0 0 0 0 0 0 0 0 0 0 0 0.05 0"/>
<feBlend mode="normal" in2="effect3_dropShadow_563_11151" result="effect4_dropShadow_563_11151"/>
<feColorMatrix in="SourceAlpha" type="matrix" values="0 0 0 0 0 0 0 0 0 0 0 0 0 0 0 0 0 0 127 0" result="hardAlpha"/>
<feOffset dx="11" dy="190"/>
<feGaussianBlur stdDeviation="38"/>
<feColorMatrix type="matrix" values="0 0 0 0 0 0 0 0 0 0 0 0 0 0 0 0 0 0 0.01 0"/>
<feBlend mode="normal" in2="effect4_dropShadow_563_11151" result="effect5_dropShadow_563_11151"/>
<feBlend mode="normal" in="SourceGraphic" in2="effect5_dropShadow_563_11151" result="shape"/>
</filter>
<filter id="filter1_ddddd_563_11151" x="0.842041" y="130.373" width="490.445" height="475.385" filterUnits="userSpaceOnUse" color-interpolation-filters="sRGB">
<feFlood flood-opacity="0" result="BackgroundImageFix"/>
<feColorMatrix in="SourceAlpha" type="matrix" values="0 0 0 0 0 0 0 0 0 0 0 0 0 0 0 0 0 0 127 0" result="hardAlpha"/>
<feOffset/>
<feColorMatrix type="matrix" values="0 0 0 0 0 0 0 0 0 0 0 0 0 0 0 0 0 0 0.1 0"/>
<feBlend mode="normal" in2="BackgroundImageFix" result="effect1_dropShadow_563_11151"/>
<feColorMatrix in="SourceAlpha" type="matrix" values="0 0 0 0 0 0 0 0 0 0 0 0 0 0 0 0 0 0 127 0" result="hardAlpha"/>
<feOffset dx="1" dy="12"/>
<feGaussianBlur stdDeviation="13"/>
<feColorMatrix type="matrix" values="0 0 0 0 0 0 0 0 0 0 0 0 0 0 0 0 0 0 0.1 0"/>
<feBlend mode="normal" in2="effect1_dropShadow_563_11151" result="effect2_dropShadow_563_11151"/>
<feColorMatrix in="SourceAlpha" type="matrix" values="0 0 0 0 0 0 0 0 0 0 0 0 0 0 0 0 0 0 127 0" result="hardAlpha"/>
<feOffset dx="3" dy="47"/>
<feGaussianBlur stdDeviation="24"/>
<feColorMatrix type="matrix" values="0 0 0 0 0 0 0 0 0 0 0 0 0 0 0 0 0 0 0.09 0"/>
<feBlend mode="normal" in2="effect2_dropShadow_563_11151" result="effect3_dropShadow_563_11151"/>
<feColorMatrix in="SourceAlpha" type="matrix" values="0 0 0 0 0 0 0 0 0 0 0 0 0 0 0 0 0 0 127 0" result="hardAlpha"/>
<feOffset dx="6" dy="107"/>
<feGaussianBlur stdDeviation="32"/>
<feColorMatrix type="matrix" values="0 0 0 0 0 0 0 0 0 0 0 0 0 0 0 0 0 0 0.05 0"/>
<feBlend mode="normal" in2="effect3_dropShadow_563_11151" result="effect4_dropShadow_563_11151"/>
<feColorMatrix in="SourceAlpha" type="matrix" values="0 0 0 0 0 0 0 0 0 0 0 0 0 0 0 0 0 0 127 0" result="hardAlpha"/>
<feOffset dx="11" dy="190"/>
<feGaussianBlur stdDeviation="38"/>
<feColorMatrix type="matrix" values="0 0 0 0 0 0 0 0 0 0 0 0 0 0 0 0 0 0 0.01 0"/>
<feBlend mode="normal" in2="effect4_dropShadow_563_11151" result="effect5_dropShadow_563_11151"/>
<feBlend mode="normal" in="SourceGraphic" in2="effect5_dropShadow_563_11151" result="shape"/>
</filter>
<filter id="filter2_ddddd_563_11151" x="1.71167" y="74.8943" width="490.445" height="475.385" filterUnits="userSpaceOnUse" color-interpolation-filters="sRGB">
<feFlood flood-opacity="0" result="BackgroundImageFix"/>
<feColorMatrix in="SourceAlpha" type="matrix" values="0 0 0 0 0 0 0 0 0 0 0 0 0 0 0 0 0 0 127 0" result="hardAlpha"/>
<feOffset/>
<feColorMatrix type="matrix" values="0 0 0 0 0 0 0 0 0 0 0 0 0 0 0 0 0 0 0.1 0"/>
<feBlend mode="normal" in2="BackgroundImageFix" result="effect1_dropShadow_563_11151"/>
<feColorMatrix in="SourceAlpha" type="matrix" values="0 0 0 0 0 0 0 0 0 0 0 0 0 0 0 0 0 0 127 0" result="hardAlpha"/>
<feOffset dx="1" dy="12"/>
<feGaussianBlur stdDeviation="13"/>
<feColorMatrix type="matrix" values="0 0 0 0 0 0 0 0 0 0 0 0 0 0 0 0 0 0 0.1 0"/>
<feBlend mode="normal" in2="effect1_dropShadow_563_11151" result="effect2_dropShadow_563_11151"/>
<feColorMatrix in="SourceAlpha" type="matrix" values="0 0 0 0 0 0 0 0 0 0 0 0 0 0 0 0 0 0 127 0" result="hardAlpha"/>
<feOffset dx="3" dy="47"/>
<feGaussianBlur stdDeviation="24"/>
<feColorMatrix type="matrix" values="0 0 0 0 0 0 0 0 0 0 0 0 0 0 0 0 0 0 0.09 0"/>
<feBlend mode="normal" in2="effect2_dropShadow_563_11151" result="effect3_dropShadow_563_11151"/>
<feColorMatrix in="SourceAlpha" type="matrix" values="0 0 0 0 0 0 0 0 0 0 0 0 0 0 0 0 0 0 127 0" result="hardAlpha"/>
<feOffset dx="6" dy="107"/>
<feGaussianBlur stdDeviation="32"/>
<feColorMatrix type="matrix" values="0 0 0 0 0 0 0 0 0 0 0 0 0 0 0 0 0 0 0.05 0"/>
<feBlend mode="normal" in2="effect3_dropShadow_563_11151" result="effect4_dropShadow_563_11151"/>
<feColorMatrix in="SourceAlpha" type="matrix" values="0 0 0 0 0 0 0 0 0 0 0 0 0 0 0 0 0 0 127 0" result="hardAlpha"/>
<feOffset dx="11" dy="190"/>
<feGaussianBlur stdDeviation="38"/>
<feColorMatrix type="matrix" values="0 0 0 0 0 0 0 0 0 0 0 0 0 0 0 0 0 0 0.01 0"/>
<feBlend mode="normal" in2="effect4_dropShadow_563_11151" result="effect5_dropShadow_563_11151"/>
<feBlend mode="normal" in="SourceGraphic" in2="effect5_dropShadow_563_11151" result="shape"/>
</filter>
<filter id="filter3_ddddd_563_11151" x="1.71167" y="92.0984" width="490.445" height="475.385" filterUnits="userSpaceOnUse" color-interpolation-filters="sRGB">
<feFlood flood-opacity="0" result="BackgroundImageFix"/>
<feColorMatrix in="SourceAlpha" type="matrix" values="0 0 0 0 0 0 0 0 0 0 0 0 0 0 0 0 0 0 127 0" result="hardAlpha"/>
<feOffset/>
<feColorMatrix type="matrix" values="0 0 0 0 0 0 0 0 0 0 0 0 0 0 0 0 0 0 0.1 0"/>
<feBlend mode="normal" in2="BackgroundImageFix" result="effect1_dropShadow_563_11151"/>
<feColorMatrix in="SourceAlpha" type="matrix" values="0 0 0 0 0 0 0 0 0 0 0 0 0 0 0 0 0 0 127 0" result="hardAlpha"/>
<feOffset dx="1" dy="12"/>
<feGaussianBlur stdDeviation="13"/>
<feColorMatrix type="matrix" values="0 0 0 0 0 0 0 0 0 0 0 0 0 0 0 0 0 0 0.1 0"/>
<feBlend mode="normal" in2="effect1_dropShadow_563_11151" result="effect2_dropShadow_563_11151"/>
<feColorMatrix in="SourceAlpha" type="matrix" values="0 0 0 0 0 0 0 0 0 0 0 0 0 0 0 0 0 0 127 0" result="hardAlpha"/>
<feOffset dx="3" dy="47"/>
<feGaussianBlur stdDeviation="24"/>
<feColorMatrix type="matrix" values="0 0 0 0 0 0 0 0 0 0 0 0 0 0 0 0 0 0 0.09 0"/>
<feBlend mode="normal" in2="effect2_dropShadow_563_11151" result="effect3_dropShadow_563_11151"/>
<feColorMatrix in="SourceAlpha" type="matrix" values="0 0 0 0 0 0 0 0 0 0 0 0 0 0 0 0 0 0 127 0" result="hardAlpha"/>
<feOffset dx="6" dy="107"/>
<feGaussianBlur stdDeviation="32"/>
<feColorMatrix type="matrix" values="0 0 0 0 0 0 0 0 0 0 0 0 0 0 0 0 0 0 0.05 0"/>
<feBlend mode="normal" in2="effect3_dropShadow_563_11151" result="effect4_dropShadow_563_11151"/>
<feColorMatrix in="SourceAlpha" type="matrix" values="0 0 0 0 0 0 0 0 0 0 0 0 0 0 0 0 0 0 127 0" result="hardAlpha"/>
<feOffset dx="11" dy="190"/>
<feGaussianBlur stdDeviation="38"/>
<feColorMatrix type="matrix" values="0 0 0 0 0 0 0 0 0 0 0 0 0 0 0 0 0 0 0.01 0"/>
<feBlend mode="normal" in2="effect4_dropShadow_563_11151" result="effect5_dropShadow_563_11151"/>
<feBlend mode="normal" in="SourceGraphic" in2="effect5_dropShadow_563_11151" result="shape"/>
</filter>
<filter id="filter4_ddddd_563_11151" x="1.71167" y="38.3567" width="490.445" height="475.385" filterUnits="userSpaceOnUse" color-interpolation-filters="sRGB">
<feFlood flood-opacity="0" result="BackgroundImageFix"/>
<feColorMatrix in="SourceAlpha" type="matrix" values="0 0 0 0 0 0 0 0 0 0 0 0 0 0 0 0 0 0 127 0" result="hardAlpha"/>
<feOffset/>
<feColorMatrix type="matrix" values="0 0 0 0 0 0 0 0 0 0 0 0 0 0 0 0 0 0 0.1 0"/>
<feBlend mode="normal" in2="BackgroundImageFix" result="effect1_dropShadow_563_11151"/>
<feColorMatrix in="SourceAlpha" type="matrix" values="0 0 0 0 0 0 0 0 0 0 0 0 0 0 0 0 0 0 127 0" result="hardAlpha"/>
<feOffset dx="1" dy="12"/>
<feGaussianBlur stdDeviation="13"/>
<feColorMatrix type="matrix" values="0 0 0 0 0 0 0 0 0 0 0 0 0 0 0 0 0 0 0.1 0"/>
<feBlend mode="normal" in2="effect1_dropShadow_563_11151" result="effect2_dropShadow_563_11151"/>
<feColorMatrix in="SourceAlpha" type="matrix" values="0 0 0 0 0 0 0 0 0 0 0 0 0 0 0 0 0 0 127 0" result="hardAlpha"/>
<feOffset dx="3" dy="47"/>
<feGaussianBlur stdDeviation="24"/>
<feColorMatrix type="matrix" values="0 0 0 0 0 0 0 0 0 0 0 0 0 0 0 0 0 0 0.09 0"/>
<feBlend mode="normal" in2="effect2_dropShadow_563_11151" result="effect3_dropShadow_563_11151"/>
<feColorMatrix in="SourceAlpha" type="matrix" values="0 0 0 0 0 0 0 0 0 0 0 0 0 0 0 0 0 0 127 0" result="hardAlpha"/>
<feOffset dx="6" dy="107"/>
<feGaussianBlur stdDeviation="32"/>
<feColorMatrix type="matrix" values="0 0 0 0 0 0 0 0 0 0 0 0 0 0 0 0 0 0 0.05 0"/>
<feBlend mode="normal" in2="effect3_dropShadow_563_11151" result="effect4_dropShadow_563_11151"/>
<feColorMatrix in="SourceAlpha" type="matrix" values="0 0 0 0 0 0 0 0 0 0 0 0 0 0 0 0 0 0 127 0" result="hardAlpha"/>
<feOffset dx="11" dy="190"/>
<feGaussianBlur stdDeviation="38"/>
<feColorMatrix type="matrix" values="0 0 0 0 0 0 0 0 0 0 0 0 0 0 0 0 0 0 0.01 0"/>
<feBlend mode="normal" in2="effect4_dropShadow_563_11151" result="effect5_dropShadow_563_11151"/>
<feBlend mode="normal" in="SourceGraphic" in2="effect5_dropShadow_563_11151" result="shape"/>
</filter>
<filter id="filter5_ddddd_563_11151" x="1.71167" y="55.561" width="490.445" height="475.385" filterUnits="userSpaceOnUse" color-interpolation-filters="sRGB">
<feFlood flood-opacity="0" result="BackgroundImageFix"/>
<feColorMatrix in="SourceAlpha" type="matrix" values="0 0 0 0 0 0 0 0 0 0 0 0 0 0 0 0 0 0 127 0" result="hardAlpha"/>
<feOffset/>
<feColorMatrix type="matrix" values="0 0 0 0 0 0 0 0 0 0 0 0 0 0 0 0 0 0 0.1 0"/>
<feBlend mode="normal" in2="BackgroundImageFix" result="effect1_dropShadow_563_11151"/>
<feColorMatrix in="SourceAlpha" type="matrix" values="0 0 0 0 0 0 0 0 0 0 0 0 0 0 0 0 0 0 127 0" result="hardAlpha"/>
<feOffset dx="1" dy="12"/>
<feGaussianBlur stdDeviation="13"/>
<feColorMatrix type="matrix" values="0 0 0 0 0 0 0 0 0 0 0 0 0 0 0 0 0 0 0.1 0"/>
<feBlend mode="normal" in2="effect1_dropShadow_563_11151" result="effect2_dropShadow_563_11151"/>
<feColorMatrix in="SourceAlpha" type="matrix" values="0 0 0 0 0 0 0 0 0 0 0 0 0 0 0 0 0 0 127 0" result="hardAlpha"/>
<feOffset dx="3" dy="47"/>
<feGaussianBlur stdDeviation="24"/>
<feColorMatrix type="matrix" values="0 0 0 0 0 0 0 0 0 0 0 0 0 0 0 0 0 0 0.09 0"/>
<feBlend mode="normal" in2="effect2_dropShadow_563_11151" result="effect3_dropShadow_563_11151"/>
<feColorMatrix in="SourceAlpha" type="matrix" values="0 0 0 0 0 0 0 0 0 0 0 0 0 0 0 0 0 0 127 0" result="hardAlpha"/>
<feOffset dx="6" dy="107"/>
<feGaussianBlur stdDeviation="32"/>
<feColorMatrix type="matrix" values="0 0 0 0 0 0 0 0 0 0 0 0 0 0 0 0 0 0 0.05 0"/>
<feBlend mode="normal" in2="effect3_dropShadow_563_11151" result="effect4_dropShadow_563_11151"/>
<feColorMatrix in="SourceAlpha" type="matrix" values="0 0 0 0 0 0 0 0 0 0 0 0 0 0 0 0 0 0 127 0" result="hardAlpha"/>
<feOffset dx="11" dy="190"/>
<feGaussianBlur stdDeviation="38"/>
<feColorMatrix type="matrix" values="0 0 0 0 0 0 0 0 0 0 0 0 0 0 0 0 0 0 0.01 0"/>
<feBlend mode="normal" in2="effect4_dropShadow_563_11151" result="effect5_dropShadow_563_11151"/>
<feBlend mode="normal" in="SourceGraphic" in2="effect5_dropShadow_563_11151" result="shape"/>
</filter>
<filter id="filter6_dddddi_563_11151" x="1.71167" y="0.0800781" width="490.445" height="475.385" filterUnits="userSpaceOnUse" color-interpolation-filters="sRGB">
<feFlood flood-opacity="0" result="BackgroundImageFix"/>
<feColorMatrix in="SourceAlpha" type="matrix" values="0 0 0 0 0 0 0 0 0 0 0 0 0 0 0 0 0 0 127 0" result="hardAlpha"/>
<feOffset/>
<feColorMatrix type="matrix" values="0 0 0 0 0 0 0 0 0 0 0 0 0 0 0 0 0 0 0.1 0"/>
<feBlend mode="normal" in2="BackgroundImageFix" result="effect1_dropShadow_563_11151"/>
<feColorMatrix in="SourceAlpha" type="matrix" values="0 0 0 0 0 0 0 0 0 0 0 0 0 0 0 0 0 0 127 0" result="hardAlpha"/>
<feOffset dx="1" dy="12"/>
<feGaussianBlur stdDeviation="13"/>
<feColorMatrix type="matrix" values="0 0 0 0 0 0 0 0 0 0 0 0 0 0 0 0 0 0 0.1 0"/>
<feBlend mode="normal" in2="effect1_dropShadow_563_11151" result="effect2_dropShadow_563_11151"/>
<feColorMatrix in="SourceAlpha" type="matrix" values="0 0 0 0 0 0 0 0 0 0 0 0 0 0 0 0 0 0 127 0" result="hardAlpha"/>
<feOffset dx="3" dy="47"/>
<feGaussianBlur stdDeviation="24"/>
<feColorMatrix type="matrix" values="0 0 0 0 0 0 0 0 0 0 0 0 0 0 0 0 0 0 0.09 0"/>
<feBlend mode="normal" in2="effect2_dropShadow_563_11151" result="effect3_dropShadow_563_11151"/>
<feColorMatrix in="SourceAlpha" type="matrix" values="0 0 0 0 0 0 0 0 0 0 0 0 0 0 0 0 0 0 127 0" result="hardAlpha"/>
<feOffset dx="6" dy="107"/>
<feGaussianBlur stdDeviation="32"/>
<feColorMatrix type="matrix" values="0 0 0 0 0 0 0 0 0 0 0 0 0 0 0 0 0 0 0.05 0"/>
<feBlend mode="normal" in2="effect3_dropShadow_563_11151" result="effect4_dropShadow_563_11151"/>
<feColorMatrix in="SourceAlpha" type="matrix" values="0 0 0 0 0 0 0 0 0 0 0 0 0 0 0 0 0 0 127 0" result="hardAlpha"/>
<feOffset dx="11" dy="190"/>
<feGaussianBlur stdDeviation="38"/>
<feColorMatrix type="matrix" values="0 0 0 0 0 0 0 0 0 0 0 0 0 0 0 0 0 0 0.01 0"/>
<feBlend mode="normal" in2="effect4_dropShadow_563_11151" result="effect5_dropShadow_563_11151"/>
<feBlend mode="normal" in="SourceGraphic" in2="effect5_dropShadow_563_11151" result="shape"/>
<feColorMatrix in="SourceAlpha" type="matrix" values="0 0 0 0 0 0 0 0 0 0 0 0 0 0 0 0 0 0 127 0" result="hardAlpha"/>
<feOffset dy="1"/>
<feGaussianBlur stdDeviation="1"/>
<feComposite in2="hardAlpha" operator="arithmetic" k2="-1" k3="1"/>
<feColorMatrix type="matrix" values="0 0 0 0 0 0 0 0 0 0 0 0 0 0 0 0 0 0 0.1 0"/>
<feBlend mode="normal" in2="shape" result="effect6_innerShadow_563_11151"/>
</filter>
<filter id="filter7_ddddd_563_11151" x="1.71167" y="17.2844" width="490.445" height="475.385" filterUnits="userSpaceOnUse" color-interpolation-filters="sRGB">
<feFlood flood-opacity="0" result="BackgroundImageFix"/>
<feColorMatrix in="SourceAlpha" type="matrix" values="0 0 0 0 0 0 0 0 0 0 0 0 0 0 0 0 0 0 127 0" result="hardAlpha"/>
<feOffset/>
<feColorMatrix type="matrix" values="0 0 0 0 0 0 0 0 0 0 0 0 0 0 0 0 0 0 0.1 0"/>
<feBlend mode="normal" in2="BackgroundImageFix" result="effect1_dropShadow_563_11151"/>
<feColorMatrix in="SourceAlpha" type="matrix" values="0 0 0 0 0 0 0 0 0 0 0 0 0 0 0 0 0 0 127 0" result="hardAlpha"/>
<feOffset dx="1" dy="12"/>
<feGaussianBlur stdDeviation="13"/>
<feColorMatrix type="matrix" values="0 0 0 0 0 0 0 0 0 0 0 0 0 0 0 0 0 0 0.1 0"/>
<feBlend mode="normal" in2="effect1_dropShadow_563_11151" result="effect2_dropShadow_563_11151"/>
<feColorMatrix in="SourceAlpha" type="matrix" values="0 0 0 0 0 0 0 0 0 0 0 0 0 0 0 0 0 0 127 0" result="hardAlpha"/>
<feOffset dx="3" dy="47"/>
<feGaussianBlur stdDeviation="24"/>
<feColorMatrix type="matrix" values="0 0 0 0 0 0 0 0 0 0 0 0 0 0 0 0 0 0 0.09 0"/>
<feBlend mode="normal" in2="effect2_dropShadow_563_11151" result="effect3_dropShadow_563_11151"/>
<feColorMatrix in="SourceAlpha" type="matrix" values="0 0 0 0 0 0 0 0 0 0 0 0 0 0 0 0 0 0 127 0" result="hardAlpha"/>
<feOffset dx="6" dy="107"/>
<feGaussianBlur stdDeviation="32"/>
<feColorMatrix type="matrix" values="0 0 0 0 0 0 0 0 0 0 0 0 0 0 0 0 0 0 0.05 0"/>
<feBlend mode="normal" in2="effect3_dropShadow_563_11151" result="effect4_dropShadow_563_11151"/>
<feColorMatrix in="SourceAlpha" type="matrix" values="0 0 0 0 0 0 0 0 0 0 0 0 0 0 0 0 0 0 127 0" result="hardAlpha"/>
<feOffset dx="11" dy="190"/>
<feGaussianBlur stdDeviation="38"/>
<feColorMatrix type="matrix" values="0 0 0 0 0 0 0 0 0 0 0 0 0 0 0 0 0 0 0.01 0"/>
<feBlend mode="normal" in2="effect4_dropShadow_563_11151" result="effect5_dropShadow_563_11151"/>
<feBlend mode="normal" in="SourceGraphic" in2="effect5_dropShadow_563_11151" result="shape"/>
</filter>
</defs>
</svg>
